<?xml version="1.0" encoding="UTF-8"?>
<!DOCTYPE svg PUBLIC "-//W3C//DTD SVG 1.1//EN" "http://www.w3.org/Graphics/SVG/1.1/DTD/svg11.dtd">
<svg xmlns="http://www.w3.org/2000/svg" version="1.1" width="48px" height="48px" style="shape-rendering:geometricPrecision; text-rendering:geometricPrecision; image-rendering:optimizeQuality; fill-rule:evenodd; clip-rule:evenodd" xmlns:xlink="http://www.w3.org/1999/xlink">
<g><path style="opacity:1" fill="#165800" d="M 4.5,-0.5 C 7.5,-0.5 10.5,-0.5 13.5,-0.5C 13.5,0.5 13.5,1.5 13.5,2.5C 11.5,2.5 9.5,2.5 7.5,2.5C 7.5,3.5 7.5,4.5 7.5,5.5C 6.5,5.5 5.5,5.5 4.5,5.5C 4.5,3.5 4.5,1.5 4.5,-0.5 Z"/></g>
<g><path style="opacity:1" fill="#165800" d="M 28.5,-0.5 C 32.5,-0.5 36.5,-0.5 40.5,-0.5C 40.5,1.5 40.5,3.5 40.5,5.5C 39.5,5.5 38.5,5.5 37.5,5.5C 37.5,4.5 37.5,3.5 37.5,2.5C 35.5,2.5 33.5,2.5 31.5,2.5C 30.5,2.5 29.5,2.5 28.5,2.5C 28.5,1.5 28.5,0.5 28.5,-0.5 Z"/></g>
<g><path style="opacity:1" fill="#6fef00" d="M 13.5,2.5 C 13.5,3.5 13.5,4.5 13.5,5.5C 12.5,5.5 11.5,5.5 10.5,5.5C 9.5,5.5 8.5,5.5 7.5,5.5C 7.5,4.5 7.5,3.5 7.5,2.5C 9.5,2.5 11.5,2.5 13.5,2.5 Z"/></g>
<g><path style="opacity:1" fill="#165800" d="M 13.5,2.5 C 14.5,2.5 15.5,2.5 16.5,2.5C 16.5,3.5 16.5,4.5 16.5,5.5C 15.5,5.5 14.5,5.5 13.5,5.5C 13.5,4.5 13.5,3.5 13.5,2.5 Z"/></g>
<g><path style="opacity:1" fill="#002100" d="M 28.5,2.5 C 28.5,3.5 28.5,4.5 28.5,5.5C 27.5,5.5 26.5,5.5 25.5,5.5C 25.5,4.5 25.5,3.5 25.5,2.5C 26.5,2.5 27.5,2.5 28.5,2.5 Z"/></g>
<g><path style="opacity:1" fill="#319800" d="M 28.5,2.5 C 29.5,2.5 30.5,2.5 31.5,2.5C 31.5,3.5 31.5,4.5 31.5,5.5C 31.5,6.5 31.5,7.5 31.5,8.5C 30.5,8.5 29.5,8.5 28.5,8.5C 28.5,7.5 28.5,6.5 28.5,5.5C 28.5,4.5 28.5,3.5 28.5,2.5 Z"/></g>
<g><path style="opacity:1" fill="#5bdf00" d="M 31.5,2.5 C 33.5,2.5 35.5,2.5 37.5,2.5C 37.5,3.5 37.5,4.5 37.5,5.5C 35.5,5.5 33.5,5.5 31.5,5.5C 31.5,4.5 31.5,3.5 31.5,2.5 Z"/></g>
<g><path style="opacity:1" fill="#165800" d="M 7.5,5.5 C 8.5,5.5 9.5,5.5 10.5,5.5C 10.5,6.5 10.5,7.5 10.5,8.5C 9.5,8.5 8.5,8.5 7.5,8.5C 7.5,7.5 7.5,6.5 7.5,5.5 Z"/></g>
<g><path style="opacity:1" fill="#002100" d="M 16.5,5.5 C 17.5,5.5 18.5,5.5 19.5,5.5C 19.5,6.5 19.5,7.5 19.5,8.5C 19.5,7.5 19.5,6.5 19.5,5.5C 18.5,5.5 17.5,5.5 16.5,5.5 Z"/></g>
<g><path style="opacity:1" fill="#002100" d="M 25.5,5.5 C 25.5,7.5 25.5,9.5 25.5,11.5C 23.5,11.5 21.5,11.5 19.5,11.5C 19.5,10.5 19.5,9.5 19.5,8.5C 20.5,8.5 21.5,8.5 22.5,8.5C 22.5,7.5 22.5,6.5 22.5,5.5C 23.5,5.5 24.5,5.5 25.5,5.5 Z"/></g>
<g><path style="opacity:1" fill="#165800" d="M 31.5,5.5 C 33.5,5.5 35.5,5.5 37.5,5.5C 37.5,6.5 37.5,7.5 37.5,8.5C 35.5,8.5 33.5,8.5 31.5,8.5C 31.5,7.5 31.5,6.5 31.5,5.5 Z"/></g>
<g><path style="opacity:1" fill="#002100" d="M 10.5,8.5 C 11.5,8.5 12.5,8.5 13.5,8.5C 13.5,9.5 13.5,10.5 13.5,11.5C 13.5,10.5 13.5,9.5 13.5,8.5C 12.5,8.5 11.5,8.5 10.5,8.5 Z"/></g>
<g><path style="opacity:1" fill="#288e08" d="M 10.5,5.5 C 11.5,5.5 12.5,5.5 13.5,5.5C 14.5,5.5 15.5,5.5 16.5,5.5C 16.5,6.5 16.5,7.5 16.5,8.5C 17.5,8.5 18.5,8.5 19.5,8.5C 19.5,9.5 19.5,10.5 19.5,11.5C 17.5,11.5 15.5,11.5 13.5,11.5C 13.5,10.5 13.5,9.5 13.5,8.5C 12.5,8.5 11.5,8.5 10.5,8.5C 10.5,7.5 10.5,6.5 10.5,5.5 Z"/></g>
<g><path style="opacity:1" fill="#115f07" d="M 25.5,5.5 C 26.5,5.5 27.5,5.5 28.5,5.5C 28.5,6.5 28.5,7.5 28.5,8.5C 28.5,9.5 28.5,10.5 28.5,11.5C 27.5,11.5 26.5,11.5 25.5,11.5C 25.5,9.5 25.5,7.5 25.5,5.5 Z"/></g>
<g><path style="opacity:1" fill="#002100" d="M 28.5,8.5 C 29.5,8.5 30.5,8.5 31.5,8.5C 31.5,9.5 31.5,10.5 31.5,11.5C 30.5,11.5 29.5,11.5 28.5,11.5C 28.5,10.5 28.5,9.5 28.5,8.5 Z"/></g>
<g><path style="opacity:1" fill="#002100" d="M 13.5,11.5 C 15.5,11.5 17.5,11.5 19.5,11.5C 19.5,12.5 19.5,13.5 19.5,14.5C 18.5,14.5 17.5,14.5 16.5,14.5C 16.5,15.5 16.5,16.5 16.5,17.5C 15.5,17.5 14.5,17.5 13.5,17.5C 13.5,16.5 13.5,15.5 13.5,14.5C 13.5,13.5 13.5,12.5 13.5,11.5 Z"/></g>
<g><path style="opacity:1" fill="#310200" d="M 19.5,11.5 C 21.5,11.5 23.5,11.5 25.5,11.5C 26.5,11.5 27.5,11.5 28.5,11.5C 28.5,12.5 28.5,13.5 28.5,14.5C 27.5,14.5 26.5,14.5 25.5,14.5C 25.5,15.5 25.5,16.5 25.5,17.5C 24.5,17.5 23.5,17.5 22.5,17.5C 22.5,16.5 22.5,15.5 22.5,14.5C 21.5,14.5 20.5,14.5 19.5,14.5C 19.5,13.5 19.5,12.5 19.5,11.5 Z"/></g>
<g><path style="opacity:1" fill="#165800" d="M 28.5,11.5 C 29.5,11.5 30.5,11.5 31.5,11.5C 31.5,12.5 31.5,13.5 31.5,14.5C 30.5,14.5 29.5,14.5 28.5,14.5C 28.5,13.5 28.5,12.5 28.5,11.5 Z"/></g>
<g><path style="opacity:1" fill="#002100" d="M 31.5,11.5 C 33.5,11.5 35.5,11.5 37.5,11.5C 37.5,12.5 37.5,13.5 37.5,14.5C 36.5,14.5 35.5,14.5 34.5,14.5C 33.5,14.5 32.5,14.5 31.5,14.5C 31.5,13.5 31.5,12.5 31.5,11.5 Z"/></g>
<g><path style="opacity:1" fill="#165800" d="M 13.5,14.5 C 13.5,15.5 13.5,16.5 13.5,17.5C 12.5,17.5 11.5,17.5 10.5,17.5C 10.5,16.5 10.5,15.5 10.5,14.5C 11.5,14.5 12.5,14.5 13.5,14.5 Z"/></g>
<g><path style="opacity:1" fill="#006f17" d="M 19.5,14.5 C 19.5,15.5 19.5,16.5 19.5,17.5C 18.5,17.5 17.5,17.5 16.5,17.5C 16.5,16.5 16.5,15.5 16.5,14.5C 17.5,14.5 18.5,14.5 19.5,14.5 Z"/></g>
<g><path style="opacity:1" fill="#002100" d="M 19.5,14.5 C 20.5,14.5 21.5,14.5 22.5,14.5C 22.5,15.5 22.5,16.5 22.5,17.5C 22.5,18.5 22.5,19.5 22.5,20.5C 21.5,20.5 20.5,20.5 19.5,20.5C 18.5,20.5 17.5,20.5 16.5,20.5C 16.5,19.5 16.5,18.5 16.5,17.5C 17.5,17.5 18.5,17.5 19.5,17.5C 19.5,16.5 19.5,15.5 19.5,14.5 Z"/></g>
<g><path style="opacity:1" fill="#02240e" d="M 28.5,14.5 C 29.5,14.5 30.5,14.5 31.5,14.5C 31.5,15.5 31.5,16.5 31.5,17.5C 30.5,17.5 29.5,17.5 28.5,17.5C 28.5,18.5 28.5,19.5 28.5,20.5C 27.5,20.5 26.5,20.5 25.5,20.5C 25.5,19.5 25.5,18.5 25.5,17.5C 25.5,16.5 25.5,15.5 25.5,14.5C 26.5,14.5 27.5,14.5 28.5,14.5 Z"/></g>
<g><path style="opacity:1" fill="#006f17" d="M 31.5,14.5 C 32.5,14.5 33.5,14.5 34.5,14.5C 34.5,15.5 34.5,16.5 34.5,17.5C 33.5,17.5 32.5,17.5 31.5,17.5C 31.5,16.5 31.5,15.5 31.5,14.5 Z"/></g>
<g><path style="opacity:1" fill="#165800" d="M 37.5,14.5 C 38.5,14.5 39.5,14.5 40.5,14.5C 40.5,15.5 40.5,16.5 40.5,17.5C 39.5,17.5 38.5,17.5 37.5,17.5C 37.5,16.5 37.5,15.5 37.5,14.5 Z"/></g>
<g><path style="opacity:1" fill="#165800" d="M 10.5,17.5 C 10.5,18.5 10.5,19.5 10.5,20.5C 12.5,20.5 14.5,20.5 16.5,20.5C 16.5,21.5 16.5,22.5 16.5,23.5C 13.5,23.5 10.5,23.5 7.5,23.5C 7.5,21.5 7.5,19.5 7.5,17.5C 8.5,17.5 9.5,17.5 10.5,17.5 Z"/></g>
<g><path style="opacity:1" fill="#37aa00" d="M 10.5,17.5 C 11.5,17.5 12.5,17.5 13.5,17.5C 14.5,17.5 15.5,17.5 16.5,17.5C 16.5,18.5 16.5,19.5 16.5,20.5C 14.5,20.5 12.5,20.5 10.5,20.5C 10.5,19.5 10.5,18.5 10.5,17.5 Z"/></g>
<g><path style="opacity:1" fill="#006f17" d="M 22.5,17.5 C 23.5,17.5 24.5,17.5 25.5,17.5C 25.5,18.5 25.5,19.5 25.5,20.5C 24.5,20.5 23.5,20.5 22.5,20.5C 22.5,19.5 22.5,18.5 22.5,17.5 Z"/></g>
<g><path style="opacity:1" fill="#002100" d="M 31.5,17.5 C 32.5,17.5 33.5,17.5 34.5,17.5C 34.5,18.5 34.5,19.5 34.5,20.5C 33.5,20.5 32.5,20.5 31.5,20.5C 31.5,19.5 31.5,18.5 31.5,17.5 Z"/></g>
<g><path style="opacity:1" fill="#37aa00" d="M 34.5,14.5 C 35.5,14.5 36.5,14.5 37.5,14.5C 37.5,15.5 37.5,16.5 37.5,17.5C 37.5,18.5 37.5,19.5 37.5,20.5C 36.5,20.5 35.5,20.5 34.5,20.5C 34.5,19.5 34.5,18.5 34.5,17.5C 34.5,16.5 34.5,15.5 34.5,14.5 Z"/></g>
<g><path style="opacity:1" fill="#165800" d="M 40.5,17.5 C 41.5,17.5 42.5,17.5 43.5,17.5C 43.5,20.5 43.5,23.5 43.5,26.5C 41.5,26.5 39.5,26.5 37.5,26.5C 37.5,25.5 37.5,24.5 37.5,23.5C 38.5,23.5 39.5,23.5 40.5,23.5C 40.5,21.5 40.5,19.5 40.5,17.5 Z"/></g>
<g><path style="opacity:1" fill="#220000" d="M 19.5,20.5 C 20.5,20.5 21.5,20.5 22.5,20.5C 22.5,21.5 22.5,22.5 22.5,23.5C 21.5,23.5 20.5,23.5 19.5,23.5C 19.5,22.5 19.5,21.5 19.5,20.5 Z"/></g>
<g><path style="opacity:1" fill="#002100" d="M 22.5,20.5 C 23.5,20.5 24.5,20.5 25.5,20.5C 25.5,22.5 25.5,24.5 25.5,26.5C 24.5,26.5 23.5,26.5 22.5,26.5C 22.5,25.5 22.5,24.5 22.5,23.5C 22.5,22.5 22.5,21.5 22.5,20.5 Z"/></g>
<g><path style="opacity:1" fill="#006f17" d="M 25.5,20.5 C 26.5,20.5 27.5,20.5 28.5,20.5C 28.5,22.5 28.5,24.5 28.5,26.5C 27.5,26.5 26.5,26.5 25.5,26.5C 25.5,24.5 25.5,22.5 25.5,20.5 Z"/></g>
<g><path style="opacity:1" fill="#03322a" d="M 28.5,20.5 C 29.5,20.5 30.5,20.5 31.5,20.5C 31.5,22.5 31.5,24.5 31.5,26.5C 30.5,26.5 29.5,26.5 28.5,26.5C 28.5,24.5 28.5,22.5 28.5,20.5 Z"/></g>
<g><path style="opacity:1" fill="#165800" d="M 34.5,20.5 C 35.5,20.5 36.5,20.5 37.5,20.5C 37.5,21.5 37.5,22.5 37.5,23.5C 36.5,23.5 35.5,23.5 34.5,23.5C 34.5,22.5 34.5,21.5 34.5,20.5 Z"/></g>
<g><path style="opacity:1" fill="#5bdf00" d="M 37.5,17.5 C 38.5,17.5 39.5,17.5 40.5,17.5C 40.5,19.5 40.5,21.5 40.5,23.5C 39.5,23.5 38.5,23.5 37.5,23.5C 37.5,22.5 37.5,21.5 37.5,20.5C 37.5,19.5 37.5,18.5 37.5,17.5 Z"/></g>
<g><path style="opacity:1" fill="#680000" d="M 19.5,23.5 C 20.5,23.5 21.5,23.5 22.5,23.5C 22.5,24.5 22.5,25.5 22.5,26.5C 23.5,26.5 24.5,26.5 25.5,26.5C 25.5,27.5 25.5,28.5 25.5,29.5C 25.5,30.5 25.5,31.5 25.5,32.5C 24.5,32.5 23.5,32.5 22.5,32.5C 22.5,31.5 22.5,30.5 22.5,29.5C 21.5,29.5 20.5,29.5 19.5,29.5C 19.5,27.5 19.5,25.5 19.5,23.5 Z"/></g>
<g><path style="opacity:1" fill="#002100" d="M 25.5,26.5 C 26.5,26.5 27.5,26.5 28.5,26.5C 28.5,27.5 28.5,28.5 28.5,29.5C 27.5,29.5 26.5,29.5 25.5,29.5C 25.5,28.5 25.5,27.5 25.5,26.5 Z"/></g>
<g><path style="opacity:1" fill="#4f0202" d="M 28.5,26.5 C 29.5,26.5 30.5,26.5 31.5,26.5C 32.5,26.5 33.5,26.5 34.5,26.5C 34.5,29.5 34.5,32.5 34.5,35.5C 33.5,35.5 32.5,35.5 31.5,35.5C 29.5,35.5 27.5,35.5 25.5,35.5C 25.5,34.5 25.5,33.5 25.5,32.5C 27.5,32.5 29.5,32.5 31.5,32.5C 31.5,31.5 31.5,30.5 31.5,29.5C 30.5,29.5 29.5,29.5 28.5,29.5C 28.5,28.5 28.5,27.5 28.5,26.5 Z"/></g>
<g><path style="opacity:1" fill="#300200" d="M 16.5,23.5 C 17.5,23.5 18.5,23.5 19.5,23.5C 19.5,25.5 19.5,27.5 19.5,29.5C 20.5,29.5 21.5,29.5 22.5,29.5C 22.5,30.5 22.5,31.5 22.5,32.5C 23.5,32.5 24.5,32.5 25.5,32.5C 25.5,33.5 25.5,34.5 25.5,35.5C 27.5,35.5 29.5,35.5 31.5,35.5C 31.5,36.5 31.5,37.5 31.5,38.5C 30.5,38.5 29.5,38.5 28.5,38.5C 28.5,39.5 28.5,40.5 28.5,41.5C 27.5,41.5 26.5,41.5 25.5,41.5C 25.5,42.5 25.5,43.5 25.5,44.5C 24.5,44.5 23.5,44.5 22.5,44.5C 22.5,43.5 22.5,42.5 22.5,41.5C 21.5,41.5 20.5,41.5 19.5,41.5C 19.5,40.5 19.5,39.5 19.5,38.5C 18.5,38.5 17.5,38.5 16.5,38.5C 16.5,37.5 16.5,36.5 16.5,35.5C 15.5,35.5 14.5,35.5 13.5,35.5C 13.5,32.5 13.5,29.5 13.5,26.5C 14.5,26.5 15.5,26.5 16.5,26.5C 16.5,25.5 16.5,24.5 16.5,23.5 Z"/></g>
<g><path style="opacity:1" fill="#ad0000" d="M 25.5,29.5 C 26.5,29.5 27.5,29.5 28.5,29.5C 29.5,29.5 30.5,29.5 31.5,29.5C 31.5,30.5 31.5,31.5 31.5,32.5C 29.5,32.5 27.5,32.5 25.5,32.5C 25.5,31.5 25.5,30.5 25.5,29.5 Z"/></g>
<g><path style="opacity:1" fill="#220000" d="M 25.5,44.5 C 26.5,44.5 27.5,44.5 28.5,44.5C 28.5,45.5 28.5,46.5 28.5,47.5C 27.5,47.5 26.5,47.5 25.5,47.5C 25.5,46.5 25.5,45.5 25.5,44.5 Z"/></g>
</svg>
