<?xml version="1.0" encoding="UTF-8"?>
<!DOCTYPE svg PUBLIC "-//W3C//DTD SVG 1.1//EN" "http://www.w3.org/Graphics/SVG/1.1/DTD/svg11.dtd">
<svg xmlns="http://www.w3.org/2000/svg" version="1.1" width="48px" height="48px" style="shape-rendering:geometricPrecision; text-rendering:geometricPrecision; image-rendering:optimizeQuality; fill-rule:evenodd; clip-rule:evenodd" xmlns:xlink="http://www.w3.org/1999/xlink">
<g><path style="opacity:1" fill="#0f3a1a" d="M 11.5,-0.5 C 14.5,-0.5 17.5,-0.5 20.5,-0.5C 20.5,0.5 20.5,1.5 20.5,2.5C 21.5,2.5 22.5,2.5 23.5,2.5C 23.5,1.5 23.5,0.5 23.5,-0.5C 26.5,-0.5 29.5,-0.5 32.5,-0.5C 32.5,0.5 32.5,1.5 32.5,2.5C 36.5,2.5 40.5,2.5 44.5,2.5C 44.5,4.5 44.5,6.5 44.5,8.5C 43.5,8.5 42.5,8.5 41.5,8.5C 41.5,7.5 41.5,6.5 41.5,5.5C 38.5,5.5 35.5,5.5 32.5,5.5C 31.5,5.5 30.5,5.5 29.5,5.5C 29.5,7.5 29.5,9.5 29.5,11.5C 28.5,11.5 27.5,11.5 26.5,11.5C 23.5,11.5 20.5,11.5 17.5,11.5C 17.5,12.5 17.5,13.5 17.5,14.5C 16.5,14.5 15.5,14.5 14.5,14.5C 14.5,12.5 14.5,10.5 14.5,8.5C 12.5,8.5 10.5,8.5 8.5,8.5C 8.5,9.5 8.5,10.5 8.5,11.5C 7.5,11.5 6.5,11.5 5.5,11.5C 5.5,10.5 5.5,9.5 5.5,8.5C 4.5,8.5 3.5,8.5 2.5,8.5C 2.5,6.5 2.5,4.5 2.5,2.5C 5.5,2.5 8.5,2.5 11.5,2.5C 11.5,1.5 11.5,0.5 11.5,-0.5 Z"/></g>
<g><path style="opacity:1" fill="#c1ea1f" d="M 14.5,2.5 C 15.5,2.5 16.5,2.5 17.5,2.5C 17.5,3.5 17.5,4.5 17.5,5.5C 16.5,5.5 15.5,5.5 14.5,5.5C 14.5,4.5 14.5,3.5 14.5,2.5 Z"/></g>
<g><path style="opacity:1" fill="#c1ea1f" d="M 29.5,5.5 C 28.5,5.5 27.5,5.5 26.5,5.5C 26.5,4.5 26.5,3.5 26.5,2.5C 27.5,2.5 28.5,2.5 29.5,2.5C 29.5,3.5 29.5,4.5 29.5,5.5 Z"/></g>
<g><path style="opacity:1" fill="#378f2a" d="M 29.5,5.5 C 30.5,5.5 31.5,5.5 32.5,5.5C 32.5,6.5 32.5,7.5 32.5,8.5C 33.5,8.5 34.5,8.5 35.5,8.5C 35.5,9.5 35.5,10.5 35.5,11.5C 33.5,11.5 31.5,11.5 29.5,11.5C 29.5,9.5 29.5,7.5 29.5,5.5 Z"/></g>
<g><path style="opacity:1" fill="#c1ea1f" d="M 32.5,5.5 C 35.5,5.5 38.5,5.5 41.5,5.5C 41.5,6.5 41.5,7.5 41.5,8.5C 40.5,8.5 39.5,8.5 38.5,8.5C 38.5,9.5 38.5,10.5 38.5,11.5C 37.5,11.5 36.5,11.5 35.5,11.5C 35.5,10.5 35.5,9.5 35.5,8.5C 34.5,8.5 33.5,8.5 32.5,8.5C 32.5,7.5 32.5,6.5 32.5,5.5 Z"/></g>
<g><path style="opacity:1" fill="#378f2a" d="M 14.5,14.5 C 13.5,14.5 12.5,14.5 11.5,14.5C 11.5,13.5 11.5,12.5 11.5,11.5C 10.5,11.5 9.5,11.5 8.5,11.5C 8.5,10.5 8.5,9.5 8.5,8.5C 10.5,8.5 12.5,8.5 14.5,8.5C 14.5,10.5 14.5,12.5 14.5,14.5 Z"/></g>
<g><path style="opacity:1" fill="#043217" d="M 41.5,8.5 C 41.5,9.5 41.5,10.5 41.5,11.5C 43.5,11.5 45.5,11.5 47.5,11.5C 47.5,13.5 47.5,15.5 47.5,17.5C 46.5,17.5 45.5,17.5 44.5,17.5C 44.5,20.5 44.5,23.5 44.5,26.5C 43.5,26.5 42.5,26.5 41.5,26.5C 39.5,26.5 37.5,26.5 35.5,26.5C 35.5,25.5 35.5,24.5 35.5,23.5C 37.5,23.5 39.5,23.5 41.5,23.5C 41.5,21.5 41.5,19.5 41.5,17.5C 40.5,17.5 39.5,17.5 38.5,17.5C 38.5,16.5 38.5,15.5 38.5,14.5C 37.5,14.5 36.5,14.5 35.5,14.5C 34.5,14.5 33.5,14.5 32.5,14.5C 32.5,16.5 32.5,18.5 32.5,20.5C 31.5,20.5 30.5,20.5 29.5,20.5C 29.5,19.5 29.5,18.5 29.5,17.5C 28.5,17.5 27.5,17.5 26.5,17.5C 26.5,16.5 26.5,15.5 26.5,14.5C 26.5,13.5 26.5,12.5 26.5,11.5C 27.5,11.5 28.5,11.5 29.5,11.5C 31.5,11.5 33.5,11.5 35.5,11.5C 36.5,11.5 37.5,11.5 38.5,11.5C 38.5,10.5 38.5,9.5 38.5,8.5C 39.5,8.5 40.5,8.5 41.5,8.5 Z"/></g>
<g><path style="opacity:1" fill="#033216" d="M 5.5,11.5 C 5.5,12.5 5.5,13.5 5.5,14.5C 7.5,14.5 9.5,14.5 11.5,14.5C 12.5,14.5 13.5,14.5 14.5,14.5C 14.5,15.5 14.5,16.5 14.5,17.5C 13.5,17.5 12.5,17.5 11.5,17.5C 9.5,17.5 7.5,17.5 5.5,17.5C 5.5,18.5 5.5,19.5 5.5,20.5C 4.5,20.5 3.5,20.5 2.5,20.5C 2.5,21.5 2.5,22.5 2.5,23.5C 1.5,23.5 0.5,23.5 -0.5,23.5C -0.5,21.5 -0.5,19.5 -0.5,17.5C 0.5,17.5 1.5,17.5 2.5,17.5C 2.5,15.5 2.5,13.5 2.5,11.5C 3.5,11.5 4.5,11.5 5.5,11.5 Z"/></g>
<g><path style="opacity:1" fill="#c1ea1f" d="M 5.5,11.5 C 6.5,11.5 7.5,11.5 8.5,11.5C 9.5,11.5 10.5,11.5 11.5,11.5C 11.5,12.5 11.5,13.5 11.5,14.5C 9.5,14.5 7.5,14.5 5.5,14.5C 5.5,13.5 5.5,12.5 5.5,11.5 Z"/></g>
<g><path style="opacity:1" fill="#37752a" d="M 26.5,11.5 C 26.5,12.5 26.5,13.5 26.5,14.5C 25.5,14.5 24.5,14.5 23.5,14.5C 23.5,15.5 23.5,16.5 23.5,17.5C 22.5,17.5 21.5,17.5 20.5,17.5C 20.5,16.5 20.5,15.5 20.5,14.5C 19.5,14.5 18.5,14.5 17.5,14.5C 17.5,13.5 17.5,12.5 17.5,11.5C 20.5,11.5 23.5,11.5 26.5,11.5 Z"/></g>
<g><path style="opacity:1" fill="#c1ea1f" d="M 17.5,14.5 C 18.5,14.5 19.5,14.5 20.5,14.5C 20.5,15.5 20.5,16.5 20.5,17.5C 19.5,17.5 18.5,17.5 17.5,17.5C 17.5,16.5 17.5,15.5 17.5,14.5 Z"/></g>
<g><path style="opacity:1" fill="#c1ea1f" d="M 26.5,14.5 C 26.5,15.5 26.5,16.5 26.5,17.5C 25.5,17.5 24.5,17.5 23.5,17.5C 23.5,16.5 23.5,15.5 23.5,14.5C 24.5,14.5 25.5,14.5 26.5,14.5 Z"/></g>
<g><path style="opacity:1" fill="#378f2a" d="M 35.5,14.5 C 36.5,14.5 37.5,14.5 38.5,14.5C 38.5,15.5 38.5,16.5 38.5,17.5C 38.5,18.5 38.5,19.5 38.5,20.5C 37.5,20.5 36.5,20.5 35.5,20.5C 34.5,20.5 33.5,20.5 32.5,20.5C 32.5,18.5 32.5,16.5 32.5,14.5C 33.5,14.5 34.5,14.5 35.5,14.5 Z"/></g>
<g><path style="opacity:1" fill="#c1ea1f" d="M 35.5,14.5 C 36.5,14.5 37.5,14.5 38.5,14.5C 38.5,15.5 38.5,16.5 38.5,17.5C 37.5,17.5 36.5,17.5 35.5,17.5C 35.5,16.5 35.5,15.5 35.5,14.5 Z"/></g>
<g><path style="opacity:1" fill="#c1ea1f" d="M 38.5,17.5 C 39.5,17.5 40.5,17.5 41.5,17.5C 41.5,19.5 41.5,21.5 41.5,23.5C 39.5,23.5 37.5,23.5 35.5,23.5C 35.5,22.5 35.5,21.5 35.5,20.5C 36.5,20.5 37.5,20.5 38.5,20.5C 38.5,19.5 38.5,18.5 38.5,17.5 Z"/></g>
<g><path style="opacity:1" fill="#2d2d70" d="M 11.5,17.5 C 11.5,18.5 11.5,19.5 11.5,20.5C 12.5,20.5 13.5,20.5 14.5,20.5C 14.5,21.5 14.5,22.5 14.5,23.5C 13.5,23.5 12.5,23.5 11.5,23.5C 11.5,24.5 11.5,25.5 11.5,26.5C 9.5,26.5 7.5,26.5 5.5,26.5C 4.5,26.5 3.5,26.5 2.5,26.5C 2.5,25.5 2.5,24.5 2.5,23.5C 2.5,22.5 2.5,21.5 2.5,20.5C 3.5,20.5 4.5,20.5 5.5,20.5C 5.5,19.5 5.5,18.5 5.5,17.5C 7.5,17.5 9.5,17.5 11.5,17.5 Z"/></g>
<g><path style="opacity:1" fill="#1c1f46" d="M 14.5,14.5 C 15.5,14.5 16.5,14.5 17.5,14.5C 17.5,15.5 17.5,16.5 17.5,17.5C 17.5,18.5 17.5,19.5 17.5,20.5C 17.5,22.5 17.5,24.5 17.5,26.5C 18.5,26.5 19.5,26.5 20.5,26.5C 20.5,27.5 20.5,28.5 20.5,29.5C 21.5,29.5 22.5,29.5 23.5,29.5C 23.5,28.5 23.5,27.5 23.5,26.5C 25.5,26.5 27.5,26.5 29.5,26.5C 29.5,25.5 29.5,24.5 29.5,23.5C 28.5,23.5 27.5,23.5 26.5,23.5C 26.5,22.5 26.5,21.5 26.5,20.5C 26.5,19.5 26.5,18.5 26.5,17.5C 27.5,17.5 28.5,17.5 29.5,17.5C 29.5,18.5 29.5,19.5 29.5,20.5C 30.5,20.5 31.5,20.5 32.5,20.5C 32.5,21.5 32.5,22.5 32.5,23.5C 33.5,23.5 34.5,23.5 35.5,23.5C 35.5,24.5 35.5,25.5 35.5,26.5C 34.5,26.5 33.5,26.5 32.5,26.5C 32.5,28.5 32.5,30.5 32.5,32.5C 34.5,32.5 36.5,32.5 38.5,32.5C 38.5,33.5 38.5,34.5 38.5,35.5C 37.5,35.5 36.5,35.5 35.5,35.5C 35.5,37.5 35.5,39.5 35.5,41.5C 34.5,41.5 33.5,41.5 32.5,41.5C 32.5,42.5 32.5,43.5 32.5,44.5C 31.5,44.5 30.5,44.5 29.5,44.5C 29.5,43.5 29.5,42.5 29.5,41.5C 28.5,41.5 27.5,41.5 26.5,41.5C 26.5,40.5 26.5,39.5 26.5,38.5C 25.5,38.5 24.5,38.5 23.5,38.5C 23.5,37.5 23.5,36.5 23.5,35.5C 22.5,35.5 21.5,35.5 20.5,35.5C 20.5,34.5 20.5,33.5 20.5,32.5C 19.5,32.5 18.5,32.5 17.5,32.5C 17.5,31.5 17.5,30.5 17.5,29.5C 16.5,29.5 15.5,29.5 14.5,29.5C 14.5,28.5 14.5,27.5 14.5,26.5C 13.5,26.5 12.5,26.5 11.5,26.5C 11.5,25.5 11.5,24.5 11.5,23.5C 12.5,23.5 13.5,23.5 14.5,23.5C 14.5,22.5 14.5,21.5 14.5,20.5C 13.5,20.5 12.5,20.5 11.5,20.5C 11.5,19.5 11.5,18.5 11.5,17.5C 12.5,17.5 13.5,17.5 14.5,17.5C 14.5,16.5 14.5,15.5 14.5,14.5 Z"/></g>
<g><path style="opacity:1" fill="#312b7b" d="M 17.5,20.5 C 18.5,20.5 19.5,20.5 20.5,20.5C 20.5,21.5 20.5,22.5 20.5,23.5C 21.5,23.5 22.5,23.5 23.5,23.5C 23.5,22.5 23.5,21.5 23.5,20.5C 24.5,20.5 25.5,20.5 26.5,20.5C 26.5,21.5 26.5,22.5 26.5,23.5C 27.5,23.5 28.5,23.5 29.5,23.5C 29.5,24.5 29.5,25.5 29.5,26.5C 27.5,26.5 25.5,26.5 23.5,26.5C 23.5,27.5 23.5,28.5 23.5,29.5C 22.5,29.5 21.5,29.5 20.5,29.5C 20.5,28.5 20.5,27.5 20.5,26.5C 19.5,26.5 18.5,26.5 17.5,26.5C 17.5,24.5 17.5,22.5 17.5,20.5 Z"/></g>
<g><path style="opacity:1" fill="#033216" d="M 20.5,20.5 C 21.5,20.5 22.5,20.5 23.5,20.5C 23.5,21.5 23.5,22.5 23.5,23.5C 22.5,23.5 21.5,23.5 20.5,23.5C 20.5,22.5 20.5,21.5 20.5,20.5 Z"/></g>
<g><path style="opacity:1" fill="#033216" d="M 23.5,17.5 C 24.5,17.5 25.5,17.5 26.5,17.5C 26.5,18.5 26.5,19.5 26.5,20.5C 25.5,20.5 24.5,20.5 23.5,20.5C 23.5,19.5 23.5,18.5 23.5,17.5 Z"/></g>
<g><path style="opacity:1" fill="#c1ea1f" d="M 20.5,17.5 C 21.5,17.5 22.5,17.5 23.5,17.5C 23.5,18.5 23.5,19.5 23.5,20.5C 22.5,20.5 21.5,20.5 20.5,20.5C 20.5,19.5 20.5,18.5 20.5,17.5 Z"/></g>
<g><path style="opacity:1" fill="#033216" d="M 17.5,17.5 C 18.5,17.5 19.5,17.5 20.5,17.5C 20.5,18.5 20.5,19.5 20.5,20.5C 19.5,20.5 18.5,20.5 17.5,20.5C 17.5,19.5 17.5,18.5 17.5,17.5 Z"/></g>
<g><path style="opacity:1" fill="#033216" d="M 32.5,20.5 C 33.5,20.5 34.5,20.5 35.5,20.5C 35.5,21.5 35.5,22.5 35.5,23.5C 34.5,23.5 33.5,23.5 32.5,23.5C 32.5,22.5 32.5,21.5 32.5,20.5 Z"/></g>
<g><path style="opacity:1" fill="#151136" d="M 5.5,26.5 C 7.5,26.5 9.5,26.5 11.5,26.5C 11.5,28.5 11.5,30.5 11.5,32.5C 10.5,32.5 9.5,32.5 8.5,32.5C 8.5,34.5 8.5,36.5 8.5,38.5C 7.5,38.5 6.5,38.5 5.5,38.5C 5.5,34.5 5.5,30.5 5.5,26.5 Z"/></g>
<g><path style="opacity:1" fill="#363087" d="M 11.5,26.5 C 12.5,26.5 13.5,26.5 14.5,26.5C 14.5,27.5 14.5,28.5 14.5,29.5C 15.5,29.5 16.5,29.5 17.5,29.5C 17.5,30.5 17.5,31.5 17.5,32.5C 15.5,32.5 13.5,32.5 11.5,32.5C 11.5,30.5 11.5,28.5 11.5,26.5 Z"/></g>
<g><path style="opacity:1" fill="#363087" d="M 35.5,26.5 C 35.5,27.5 35.5,28.5 35.5,29.5C 36.5,29.5 37.5,29.5 38.5,29.5C 38.5,30.5 38.5,31.5 38.5,32.5C 36.5,32.5 34.5,32.5 32.5,32.5C 32.5,30.5 32.5,28.5 32.5,26.5C 33.5,26.5 34.5,26.5 35.5,26.5 Z"/></g>
<g><path style="opacity:1" fill="#1e264d" d="M 35.5,26.5 C 37.5,26.5 39.5,26.5 41.5,26.5C 41.5,28.5 41.5,30.5 41.5,32.5C 40.5,32.5 39.5,32.5 38.5,32.5C 38.5,31.5 38.5,30.5 38.5,29.5C 37.5,29.5 36.5,29.5 35.5,29.5C 35.5,28.5 35.5,27.5 35.5,26.5 Z"/></g>
<g><path style="opacity:1" fill="#363087" d="M 32.5,32.5 C 32.5,33.5 32.5,34.5 32.5,35.5C 30.5,35.5 28.5,35.5 26.5,35.5C 26.5,33.5 26.5,31.5 26.5,29.5C 27.5,29.5 28.5,29.5 29.5,29.5C 29.5,30.5 29.5,31.5 29.5,32.5C 30.5,32.5 31.5,32.5 32.5,32.5 Z"/></g>
<g><path style="opacity:1" fill="#363087" d="M 11.5,32.5 C 11.5,33.5 11.5,34.5 11.5,35.5C 12.5,35.5 13.5,35.5 14.5,35.5C 14.5,36.5 14.5,37.5 14.5,38.5C 12.5,38.5 10.5,38.5 8.5,38.5C 8.5,36.5 8.5,34.5 8.5,32.5C 9.5,32.5 10.5,32.5 11.5,32.5 Z"/></g>
<g><path style="opacity:1" fill="#1e264d" d="M 11.5,32.5 C 13.5,32.5 15.5,32.5 17.5,32.5C 17.5,34.5 17.5,36.5 17.5,38.5C 16.5,38.5 15.5,38.5 14.5,38.5C 14.5,37.5 14.5,36.5 14.5,35.5C 13.5,35.5 12.5,35.5 11.5,35.5C 11.5,34.5 11.5,33.5 11.5,32.5 Z"/></g>
<g><path style="opacity:1" fill="#363087" d="M 17.5,32.5 C 18.5,32.5 19.5,32.5 20.5,32.5C 20.5,33.5 20.5,34.5 20.5,35.5C 21.5,35.5 22.5,35.5 23.5,35.5C 23.5,36.5 23.5,37.5 23.5,38.5C 21.5,38.5 19.5,38.5 17.5,38.5C 17.5,36.5 17.5,34.5 17.5,32.5 Z"/></g>
<g><path style="opacity:1" fill="#151136" d="M 8.5,38.5 C 10.5,38.5 12.5,38.5 14.5,38.5C 14.5,40.5 14.5,42.5 14.5,44.5C 13.5,44.5 12.5,44.5 11.5,44.5C 11.5,43.5 11.5,42.5 11.5,41.5C 10.5,41.5 9.5,41.5 8.5,41.5C 8.5,40.5 8.5,39.5 8.5,38.5 Z"/></g>
<g><path style="opacity:1" fill="#363087" d="M 14.5,38.5 C 15.5,38.5 16.5,38.5 17.5,38.5C 17.5,39.5 17.5,40.5 17.5,41.5C 18.5,41.5 19.5,41.5 20.5,41.5C 20.5,42.5 20.5,43.5 20.5,44.5C 18.5,44.5 16.5,44.5 14.5,44.5C 14.5,42.5 14.5,40.5 14.5,38.5 Z"/></g>
<g><path style="opacity:1" fill="#151136" d="M 17.5,38.5 C 19.5,38.5 21.5,38.5 23.5,38.5C 23.5,40.5 23.5,42.5 23.5,44.5C 25.5,44.5 27.5,44.5 29.5,44.5C 29.5,45.5 29.5,46.5 29.5,47.5C 24.5,47.5 19.5,47.5 14.5,47.5C 14.5,46.5 14.5,45.5 14.5,44.5C 16.5,44.5 18.5,44.5 20.5,44.5C 20.5,43.5 20.5,42.5 20.5,41.5C 19.5,41.5 18.5,41.5 17.5,41.5C 17.5,40.5 17.5,39.5 17.5,38.5 Z"/></g>
<g><path style="opacity:1" fill="#363087" d="M 23.5,38.5 C 24.5,38.5 25.5,38.5 26.5,38.5C 26.5,39.5 26.5,40.5 26.5,41.5C 27.5,41.5 28.5,41.5 29.5,41.5C 29.5,42.5 29.5,43.5 29.5,44.5C 27.5,44.5 25.5,44.5 23.5,44.5C 23.5,42.5 23.5,40.5 23.5,38.5 Z"/></g>
</svg>
