<?xml version="1.0" encoding="UTF-8"?>
<!DOCTYPE svg PUBLIC "-//W3C//DTD SVG 1.1//EN" "http://www.w3.org/Graphics/SVG/1.1/DTD/svg11.dtd">
<svg xmlns="http://www.w3.org/2000/svg" version="1.1" width="48px" height="48px" style="shape-rendering:geometricPrecision; text-rendering:geometricPrecision; image-rendering:optimizeQuality; fill-rule:evenodd; clip-rule:evenodd" xmlns:xlink="http://www.w3.org/1999/xlink">
<g><path style="opacity:1" fill="#270d1c" d="M 14.5,-0.5 C 20.5,-0.5 26.5,-0.5 32.5,-0.5C 32.5,1.5 32.5,3.5 32.5,5.5C 31.5,5.5 30.5,5.5 29.5,5.5C 29.5,4.5 29.5,3.5 29.5,2.5C 25.5,2.5 21.5,2.5 17.5,2.5C 17.5,3.5 17.5,4.5 17.5,5.5C 16.5,5.5 15.5,5.5 14.5,5.5C 14.5,3.5 14.5,1.5 14.5,-0.5 Z"/></g>
<g><path style="opacity:1" fill="#fdc9af" d="M 29.5,5.5 C 28.5,5.5 27.5,5.5 26.5,5.5C 24.5,5.5 22.5,5.5 20.5,5.5C 19.5,5.5 18.5,5.5 17.5,5.5C 17.5,4.5 17.5,3.5 17.5,2.5C 21.5,2.5 25.5,2.5 29.5,2.5C 29.5,3.5 29.5,4.5 29.5,5.5 Z"/></g>
<g><path style="opacity:1" fill="#482036" d="M -0.5,14.5 C 0.5,14.5 1.5,14.5 2.5,14.5C 2.5,17.5 2.5,20.5 2.5,23.5C 1.5,23.5 0.5,23.5 -0.5,23.5C -0.5,20.5 -0.5,17.5 -0.5,14.5 Z"/></g>
<g><path style="opacity:1" fill="#3f1b2e" d="M 17.5,5.5 C 18.5,5.5 19.5,5.5 20.5,5.5C 20.5,6.5 20.5,7.5 20.5,8.5C 22.5,8.5 24.5,8.5 26.5,8.5C 26.5,7.5 26.5,6.5 26.5,5.5C 27.5,5.5 28.5,5.5 29.5,5.5C 29.5,6.5 29.5,7.5 29.5,8.5C 30.5,8.5 31.5,8.5 32.5,8.5C 32.5,9.5 32.5,10.5 32.5,11.5C 33.5,11.5 34.5,11.5 35.5,11.5C 35.5,12.5 35.5,13.5 35.5,14.5C 36.5,14.5 37.5,14.5 38.5,14.5C 38.5,13.5 38.5,12.5 38.5,11.5C 40.5,11.5 42.5,11.5 44.5,11.5C 44.5,12.5 44.5,13.5 44.5,14.5C 43.5,14.5 42.5,14.5 41.5,14.5C 41.5,15.5 41.5,16.5 41.5,17.5C 40.5,17.5 39.5,17.5 38.5,17.5C 38.5,18.5 38.5,19.5 38.5,20.5C 37.5,20.5 36.5,20.5 35.5,20.5C 35.5,19.5 35.5,18.5 35.5,17.5C 34.5,17.5 33.5,17.5 32.5,17.5C 31.5,17.5 30.5,17.5 29.5,17.5C 29.5,16.5 29.5,15.5 29.5,14.5C 28.5,14.5 27.5,14.5 26.5,14.5C 26.5,13.5 26.5,12.5 26.5,11.5C 24.5,11.5 22.5,11.5 20.5,11.5C 20.5,12.5 20.5,13.5 20.5,14.5C 19.5,14.5 18.5,14.5 17.5,14.5C 17.5,15.5 17.5,16.5 17.5,17.5C 15.5,17.5 13.5,17.5 11.5,17.5C 11.5,18.5 11.5,19.5 11.5,20.5C 10.5,20.5 9.5,20.5 8.5,20.5C 8.5,19.5 8.5,18.5 8.5,17.5C 7.5,17.5 6.5,17.5 5.5,17.5C 5.5,16.5 5.5,15.5 5.5,14.5C 4.5,14.5 3.5,14.5 2.5,14.5C 2.5,13.5 2.5,12.5 2.5,11.5C 4.5,11.5 6.5,11.5 8.5,11.5C 8.5,12.5 8.5,13.5 8.5,14.5C 9.5,14.5 10.5,14.5 11.5,14.5C 11.5,13.5 11.5,12.5 11.5,11.5C 12.5,11.5 13.5,11.5 14.5,11.5C 14.5,10.5 14.5,9.5 14.5,8.5C 15.5,8.5 16.5,8.5 17.5,8.5C 17.5,7.5 17.5,6.5 17.5,5.5 Z"/></g>
<g><path style="opacity:1" fill="#f7a590" d="M 20.5,14.5 C 22.5,14.5 24.5,14.5 26.5,14.5C 27.5,14.5 28.5,14.5 29.5,14.5C 29.5,15.5 29.5,16.5 29.5,17.5C 27.5,17.5 25.5,17.5 23.5,17.5C 21.5,17.5 19.5,17.5 17.5,17.5C 17.5,16.5 17.5,15.5 17.5,14.5C 18.5,14.5 19.5,14.5 20.5,14.5 Z"/></g>
<g><path style="opacity:1" fill="#9d5968" d="M 26.5,14.5 C 24.5,14.5 22.5,14.5 20.5,14.5C 20.5,13.5 20.5,12.5 20.5,11.5C 22.5,11.5 24.5,11.5 26.5,11.5C 26.5,12.5 26.5,13.5 26.5,14.5 Z"/></g>
<g><path style="opacity:1" fill="#9d5968" d="M 20.5,5.5 C 22.5,5.5 24.5,5.5 26.5,5.5C 26.5,6.5 26.5,7.5 26.5,8.5C 24.5,8.5 22.5,8.5 20.5,8.5C 20.5,7.5 20.5,6.5 20.5,5.5 Z"/></g>
<g><path style="opacity:1" fill="#482036" d="M 44.5,14.5 C 45.5,14.5 46.5,14.5 47.5,14.5C 47.5,17.5 47.5,20.5 47.5,23.5C 46.5,23.5 45.5,23.5 44.5,23.5C 44.5,20.5 44.5,17.5 44.5,14.5 Z"/></g>
<g><path style="opacity:1" fill="#fdc9af" d="M 2.5,14.5 C 3.5,14.5 4.5,14.5 5.5,14.5C 5.5,15.5 5.5,16.5 5.5,17.5C 6.5,17.5 7.5,17.5 8.5,17.5C 8.5,18.5 8.5,19.5 8.5,20.5C 7.5,20.5 6.5,20.5 5.5,20.5C 5.5,21.5 5.5,22.5 5.5,23.5C 4.5,23.5 3.5,23.5 2.5,23.5C 2.5,20.5 2.5,17.5 2.5,14.5 Z"/></g>
<g><path style="opacity:1" fill="#fed1af" d="M 17.5,17.5 C 19.5,17.5 21.5,17.5 23.5,17.5C 23.5,18.5 23.5,19.5 23.5,20.5C 25.5,20.5 27.5,20.5 29.5,20.5C 29.5,21.5 29.5,22.5 29.5,23.5C 30.5,23.5 31.5,23.5 32.5,23.5C 32.5,21.5 32.5,19.5 32.5,17.5C 33.5,17.5 34.5,17.5 35.5,17.5C 35.5,18.5 35.5,19.5 35.5,20.5C 36.5,20.5 37.5,20.5 38.5,20.5C 38.5,22.5 38.5,24.5 38.5,26.5C 40.5,26.5 42.5,26.5 44.5,26.5C 44.5,31.5 44.5,36.5 44.5,41.5C 43.5,41.5 42.5,41.5 41.5,41.5C 40.5,41.5 39.5,41.5 38.5,41.5C 38.5,40.5 38.5,39.5 38.5,38.5C 37.5,38.5 36.5,38.5 35.5,38.5C 35.5,37.5 35.5,36.5 35.5,35.5C 34.5,35.5 33.5,35.5 32.5,35.5C 32.5,33.5 32.5,31.5 32.5,29.5C 31.5,29.5 30.5,29.5 29.5,29.5C 29.5,32.5 29.5,35.5 29.5,38.5C 25.5,38.5 21.5,38.5 17.5,38.5C 17.5,35.5 17.5,32.5 17.5,29.5C 16.5,29.5 15.5,29.5 14.5,29.5C 14.5,31.5 14.5,33.5 14.5,35.5C 13.5,35.5 12.5,35.5 11.5,35.5C 11.5,36.5 11.5,37.5 11.5,38.5C 10.5,38.5 9.5,38.5 8.5,38.5C 8.5,39.5 8.5,40.5 8.5,41.5C 7.5,41.5 6.5,41.5 5.5,41.5C 5.5,39.5 5.5,37.5 5.5,35.5C 4.5,35.5 3.5,35.5 2.5,35.5C 2.5,32.5 2.5,29.5 2.5,26.5C 4.5,26.5 6.5,26.5 8.5,26.5C 8.5,24.5 8.5,22.5 8.5,20.5C 9.5,20.5 10.5,20.5 11.5,20.5C 11.5,19.5 11.5,18.5 11.5,17.5C 13.5,17.5 15.5,17.5 17.5,17.5 Z"/></g>
<g><path style="opacity:1" fill="#ffeddd" d="M 23.5,17.5 C 25.5,17.5 27.5,17.5 29.5,17.5C 30.5,17.5 31.5,17.5 32.5,17.5C 32.5,19.5 32.5,21.5 32.5,23.5C 31.5,23.5 30.5,23.5 29.5,23.5C 29.5,22.5 29.5,21.5 29.5,20.5C 27.5,20.5 25.5,20.5 23.5,20.5C 23.5,19.5 23.5,18.5 23.5,17.5 Z"/></g>
<g><path style="opacity:1" fill="#fdc9af" d="M 44.5,14.5 C 44.5,17.5 44.5,20.5 44.5,23.5C 43.5,23.5 42.5,23.5 41.5,23.5C 41.5,22.5 41.5,21.5 41.5,20.5C 40.5,20.5 39.5,20.5 38.5,20.5C 38.5,19.5 38.5,18.5 38.5,17.5C 39.5,17.5 40.5,17.5 41.5,17.5C 41.5,16.5 41.5,15.5 41.5,14.5C 42.5,14.5 43.5,14.5 44.5,14.5 Z"/></g>
<g><path style="opacity:1" fill="#8a4b5e" d="M 8.5,20.5 C 8.5,22.5 8.5,24.5 8.5,26.5C 6.5,26.5 4.5,26.5 2.5,26.5C 2.5,25.5 2.5,24.5 2.5,23.5C 3.5,23.5 4.5,23.5 5.5,23.5C 5.5,22.5 5.5,21.5 5.5,20.5C 6.5,20.5 7.5,20.5 8.5,20.5 Z"/></g>
<g><path style="opacity:1" fill="#8a4b5e" d="M 38.5,20.5 C 39.5,20.5 40.5,20.5 41.5,20.5C 41.5,21.5 41.5,22.5 41.5,23.5C 42.5,23.5 43.5,23.5 44.5,23.5C 44.5,24.5 44.5,25.5 44.5,26.5C 42.5,26.5 40.5,26.5 38.5,26.5C 38.5,24.5 38.5,22.5 38.5,20.5 Z"/></g>
<g><path style="opacity:1" fill="#270d1c" d="M -0.5,26.5 C 0.5,26.5 1.5,26.5 2.5,26.5C 2.5,29.5 2.5,32.5 2.5,35.5C 2.5,37.5 2.5,39.5 2.5,41.5C 2.5,42.5 2.5,43.5 2.5,44.5C 1.5,44.5 0.5,44.5 -0.5,44.5C -0.5,38.5 -0.5,32.5 -0.5,26.5 Z"/></g>
<g><path style="opacity:1" fill="#270d1c" d="M 44.5,26.5 C 45.5,26.5 46.5,26.5 47.5,26.5C 47.5,32.5 47.5,38.5 47.5,44.5C 46.5,44.5 45.5,44.5 44.5,44.5C 44.5,43.5 44.5,42.5 44.5,41.5C 44.5,36.5 44.5,31.5 44.5,26.5 Z"/></g>
<g><path style="opacity:1" fill="#53273e" d="M 5.5,29.5 C 6.5,29.5 7.5,29.5 8.5,29.5C 8.5,30.5 8.5,31.5 8.5,32.5C 7.5,32.5 6.5,32.5 5.5,32.5C 5.5,31.5 5.5,30.5 5.5,29.5 Z"/></g>
<g><path style="opacity:1" fill="#53273e" d="M 38.5,29.5 C 39.5,29.5 40.5,29.5 41.5,29.5C 41.5,30.5 41.5,31.5 41.5,32.5C 40.5,32.5 39.5,32.5 38.5,32.5C 38.5,31.5 38.5,30.5 38.5,29.5 Z"/></g>
<g><path style="opacity:1" fill="#703a4f" d="M 17.5,38.5 C 16.5,38.5 15.5,38.5 14.5,38.5C 13.5,38.5 12.5,38.5 11.5,38.5C 11.5,37.5 11.5,36.5 11.5,35.5C 12.5,35.5 13.5,35.5 14.5,35.5C 14.5,33.5 14.5,31.5 14.5,29.5C 15.5,29.5 16.5,29.5 17.5,29.5C 17.5,32.5 17.5,35.5 17.5,38.5 Z"/></g>
<g><path style="opacity:1" fill="#703a4f" d="M 35.5,38.5 C 34.5,38.5 33.5,38.5 32.5,38.5C 31.5,38.5 30.5,38.5 29.5,38.5C 29.5,35.5 29.5,32.5 29.5,29.5C 30.5,29.5 31.5,29.5 32.5,29.5C 32.5,31.5 32.5,33.5 32.5,35.5C 33.5,35.5 34.5,35.5 35.5,35.5C 35.5,36.5 35.5,37.5 35.5,38.5 Z"/></g>
<g><path style="opacity:1" fill="#f7a590" d="M 2.5,35.5 C 3.5,35.5 4.5,35.5 5.5,35.5C 5.5,37.5 5.5,39.5 5.5,41.5C 4.5,41.5 3.5,41.5 2.5,41.5C 2.5,39.5 2.5,37.5 2.5,35.5 Z"/></g>
<g><path style="opacity:1" fill="#9d5968" d="M 11.5,38.5 C 11.5,39.5 11.5,40.5 11.5,41.5C 10.5,41.5 9.5,41.5 8.5,41.5C 8.5,40.5 8.5,39.5 8.5,38.5C 9.5,38.5 10.5,38.5 11.5,38.5 Z"/></g>
<g><path style="opacity:1" fill="#f7a590" d="M 11.5,38.5 C 12.5,38.5 13.5,38.5 14.5,38.5C 14.5,40.5 14.5,42.5 14.5,44.5C 11.5,44.5 8.5,44.5 5.5,44.5C 5.5,43.5 5.5,42.5 5.5,41.5C 6.5,41.5 7.5,41.5 8.5,41.5C 9.5,41.5 10.5,41.5 11.5,41.5C 11.5,40.5 11.5,39.5 11.5,38.5 Z"/></g>
<g><path style="opacity:1" fill="#9d5968" d="M 14.5,38.5 C 15.5,38.5 16.5,38.5 17.5,38.5C 17.5,39.5 17.5,40.5 17.5,41.5C 21.5,41.5 25.5,41.5 29.5,41.5C 29.5,40.5 29.5,39.5 29.5,38.5C 30.5,38.5 31.5,38.5 32.5,38.5C 32.5,40.5 32.5,42.5 32.5,44.5C 26.5,44.5 20.5,44.5 14.5,44.5C 14.5,42.5 14.5,40.5 14.5,38.5 Z"/></g>
<g><path style="opacity:1" fill="#53273e" d="M 17.5,38.5 C 21.5,38.5 25.5,38.5 29.5,38.5C 29.5,39.5 29.5,40.5 29.5,41.5C 25.5,41.5 21.5,41.5 17.5,41.5C 17.5,40.5 17.5,39.5 17.5,38.5 Z"/></g>
<g><path style="opacity:1" fill="#f7a590" d="M 32.5,38.5 C 33.5,38.5 34.5,38.5 35.5,38.5C 36.5,38.5 37.5,38.5 38.5,38.5C 38.5,39.5 38.5,40.5 38.5,41.5C 39.5,41.5 40.5,41.5 41.5,41.5C 41.5,42.5 41.5,43.5 41.5,44.5C 38.5,44.5 35.5,44.5 32.5,44.5C 32.5,42.5 32.5,40.5 32.5,38.5 Z"/></g>
<g><path style="opacity:1" fill="#9d5968" d="M 35.5,38.5 C 36.5,38.5 37.5,38.5 38.5,38.5C 38.5,39.5 38.5,40.5 38.5,41.5C 37.5,41.5 36.5,41.5 35.5,41.5C 35.5,40.5 35.5,39.5 35.5,38.5 Z"/></g>
<g><path style="opacity:1" fill="#9d5968" d="M 2.5,41.5 C 3.5,41.5 4.5,41.5 5.5,41.5C 5.5,42.5 5.5,43.5 5.5,44.5C 4.5,44.5 3.5,44.5 2.5,44.5C 2.5,43.5 2.5,42.5 2.5,41.5 Z"/></g>
<g><path style="opacity:1" fill="#9d5968" d="M 41.5,41.5 C 42.5,41.5 43.5,41.5 44.5,41.5C 44.5,42.5 44.5,43.5 44.5,44.5C 43.5,44.5 42.5,44.5 41.5,44.5C 41.5,43.5 41.5,42.5 41.5,41.5 Z"/></g>
<g><path style="opacity:1" fill="#270d1c" d="M 2.5,44.5 C 3.5,44.5 4.5,44.5 5.5,44.5C 8.5,44.5 11.5,44.5 14.5,44.5C 20.5,44.5 26.5,44.5 32.5,44.5C 35.5,44.5 38.5,44.5 41.5,44.5C 42.5,44.5 43.5,44.5 44.5,44.5C 44.5,45.5 44.5,46.5 44.5,47.5C 30.5,47.5 16.5,47.5 2.5,47.5C 2.5,46.5 2.5,45.5 2.5,44.5 Z"/></g>
</svg>
