<?xml version="1.0" encoding="UTF-8"?>
<!DOCTYPE svg PUBLIC "-//W3C//DTD SVG 1.1//EN" "http://www.w3.org/Graphics/SVG/1.1/DTD/svg11.dtd">
<svg xmlns="http://www.w3.org/2000/svg" version="1.1" width="48px" height="48px" style="shape-rendering:geometricPrecision; text-rendering:geometricPrecision; image-rendering:optimizeQuality; fill-rule:evenodd; clip-rule:evenodd" xmlns:xlink="http://www.w3.org/1999/xlink">
<g><path style="opacity:1" fill="#0e3807" d="M 14.5,-0.5 C 16.5,-0.5 18.5,-0.5 20.5,-0.5C 20.5,0.5 20.5,1.5 20.5,2.5C 18.5,2.5 16.5,2.5 14.5,2.5C 14.5,1.5 14.5,0.5 14.5,-0.5 Z"/></g>
<g><path style="opacity:1" fill="#0e3807" d="M 8.5,5.5 C 7.5,5.5 6.5,5.5 5.5,5.5C 5.5,4.5 5.5,3.5 5.5,2.5C 6.5,2.5 7.5,2.5 8.5,2.5C 8.5,3.5 8.5,4.5 8.5,5.5 Z"/></g>
<g><path style="opacity:1" fill="#0e3807" d="M 5.5,5.5 C 5.5,9.5 5.5,13.5 5.5,17.5C 4.5,17.5 3.5,17.5 2.5,17.5C 2.5,13.5 2.5,9.5 2.5,5.5C 3.5,5.5 4.5,5.5 5.5,5.5 Z"/></g>
<g><path style="opacity:1" fill="#0f3d07" d="M 14.5,2.5 C 14.5,4.5 14.5,6.5 14.5,8.5C 13.5,8.5 12.5,8.5 11.5,8.5C 11.5,9.5 11.5,10.5 11.5,11.5C 11.5,12.5 11.5,13.5 11.5,14.5C 10.5,14.5 9.5,14.5 8.5,14.5C 8.5,11.5 8.5,8.5 8.5,5.5C 9.5,5.5 10.5,5.5 11.5,5.5C 11.5,4.5 11.5,3.5 11.5,2.5C 12.5,2.5 13.5,2.5 14.5,2.5 Z"/></g>
<g><path style="opacity:1" fill="#1b8000" d="M 14.5,2.5 C 16.5,2.5 18.5,2.5 20.5,2.5C 20.5,5.5 20.5,8.5 20.5,11.5C 19.5,11.5 18.5,11.5 17.5,11.5C 15.5,11.5 13.5,11.5 11.5,11.5C 11.5,10.5 11.5,9.5 11.5,8.5C 12.5,8.5 13.5,8.5 14.5,8.5C 14.5,6.5 14.5,4.5 14.5,2.5 Z"/></g>
<g><path style="opacity:1" fill="#199d00" d="M 38.5,5.5 C 38.5,9.5 38.5,13.5 38.5,17.5C 37.5,17.5 36.5,17.5 35.5,17.5C 35.5,18.5 35.5,19.5 35.5,20.5C 34.5,20.5 33.5,20.5 32.5,20.5C 32.5,22.5 32.5,24.5 32.5,26.5C 31.5,26.5 30.5,26.5 29.5,26.5C 29.5,22.5 29.5,18.5 29.5,14.5C 30.5,14.5 31.5,14.5 32.5,14.5C 32.5,11.5 32.5,8.5 32.5,5.5C 34.5,5.5 36.5,5.5 38.5,5.5 Z"/></g>
<g><path style="opacity:1" fill="#0e3807" d="M 38.5,5.5 C 39.5,5.5 40.5,5.5 41.5,5.5C 41.5,9.5 41.5,13.5 41.5,17.5C 40.5,17.5 39.5,17.5 38.5,17.5C 38.5,13.5 38.5,9.5 38.5,5.5 Z"/></g>
<g><path style="opacity:1" fill="#104007" d="M 20.5,2.5 C 21.5,2.5 22.5,2.5 23.5,2.5C 23.5,3.5 23.5,4.5 23.5,5.5C 25.5,5.5 27.5,5.5 29.5,5.5C 29.5,4.5 29.5,3.5 29.5,2.5C 32.5,2.5 35.5,2.5 38.5,2.5C 38.5,3.5 38.5,4.5 38.5,5.5C 36.5,5.5 34.5,5.5 32.5,5.5C 32.5,8.5 32.5,11.5 32.5,14.5C 31.5,14.5 30.5,14.5 29.5,14.5C 29.5,18.5 29.5,22.5 29.5,26.5C 28.5,26.5 27.5,26.5 26.5,26.5C 26.5,27.5 26.5,28.5 26.5,29.5C 25.5,29.5 24.5,29.5 23.5,29.5C 23.5,28.5 23.5,27.5 23.5,26.5C 22.5,26.5 21.5,26.5 20.5,26.5C 20.5,24.5 20.5,22.5 20.5,20.5C 19.5,20.5 18.5,20.5 17.5,20.5C 17.5,17.5 17.5,14.5 17.5,11.5C 18.5,11.5 19.5,11.5 20.5,11.5C 20.5,8.5 20.5,5.5 20.5,2.5 Z"/></g>
<g><path style="opacity:1" fill="#169b00" d="M 29.5,14.5 C 28.5,14.5 27.5,14.5 26.5,14.5C 26.5,17.5 26.5,20.5 26.5,23.5C 25.5,23.5 24.5,23.5 23.5,23.5C 23.5,18.5 23.5,13.5 23.5,8.5C 25.5,8.5 27.5,8.5 29.5,8.5C 29.5,10.5 29.5,12.5 29.5,14.5 Z"/></g>
<g><path style="opacity:1" fill="#1c9f00" d="M 11.5,11.5 C 13.5,11.5 15.5,11.5 17.5,11.5C 17.5,14.5 17.5,17.5 17.5,20.5C 16.5,20.5 15.5,20.5 14.5,20.5C 14.5,19.5 14.5,18.5 14.5,17.5C 13.5,17.5 12.5,17.5 11.5,17.5C 11.5,16.5 11.5,15.5 11.5,14.5C 11.5,13.5 11.5,12.5 11.5,11.5 Z"/></g>
<g><path style="opacity:1" fill="#0e3807" d="M 5.5,17.5 C 6.5,17.5 7.5,17.5 8.5,17.5C 8.5,19.5 8.5,21.5 8.5,23.5C 7.5,23.5 6.5,23.5 5.5,23.5C 5.5,21.5 5.5,19.5 5.5,17.5 Z"/></g>
<g><path style="opacity:1" fill="#1d6c00" d="M 5.5,5.5 C 6.5,5.5 7.5,5.5 8.5,5.5C 8.5,8.5 8.5,11.5 8.5,14.5C 9.5,14.5 10.5,14.5 11.5,14.5C 11.5,15.5 11.5,16.5 11.5,17.5C 12.5,17.5 13.5,17.5 14.5,17.5C 14.5,18.5 14.5,19.5 14.5,20.5C 13.5,20.5 12.5,20.5 11.5,20.5C 11.5,21.5 11.5,22.5 11.5,23.5C 10.5,23.5 9.5,23.5 8.5,23.5C 8.5,21.5 8.5,19.5 8.5,17.5C 7.5,17.5 6.5,17.5 5.5,17.5C 5.5,13.5 5.5,9.5 5.5,5.5 Z"/></g>
<g><path style="opacity:1" fill="#0f3c07" d="M 38.5,17.5 C 38.5,19.5 38.5,21.5 38.5,23.5C 39.5,23.5 40.5,23.5 41.5,23.5C 41.5,26.5 41.5,29.5 41.5,32.5C 40.5,32.5 39.5,32.5 38.5,32.5C 38.5,30.5 38.5,28.5 38.5,26.5C 37.5,26.5 36.5,26.5 35.5,26.5C 35.5,24.5 35.5,22.5 35.5,20.5C 35.5,19.5 35.5,18.5 35.5,17.5C 36.5,17.5 37.5,17.5 38.5,17.5 Z"/></g>
<g><path style="opacity:1" fill="#0e3807" d="M 41.5,17.5 C 42.5,17.5 43.5,17.5 44.5,17.5C 44.5,19.5 44.5,21.5 44.5,23.5C 43.5,23.5 42.5,23.5 41.5,23.5C 41.5,21.5 41.5,19.5 41.5,17.5 Z"/></g>
<g><path style="opacity:1" fill="#5bff1b" d="M 35.5,20.5 C 35.5,22.5 35.5,24.5 35.5,26.5C 34.5,26.5 33.5,26.5 32.5,26.5C 32.5,24.5 32.5,22.5 32.5,20.5C 33.5,20.5 34.5,20.5 35.5,20.5 Z"/></g>
<g><path style="opacity:1" fill="#1c9f00" d="M 38.5,17.5 C 39.5,17.5 40.5,17.5 41.5,17.5C 41.5,19.5 41.5,21.5 41.5,23.5C 40.5,23.5 39.5,23.5 38.5,23.5C 38.5,21.5 38.5,19.5 38.5,17.5 Z"/></g>
<g><path style="opacity:1" fill="#19430a" d="M 14.5,20.5 C 14.5,22.5 14.5,24.5 14.5,26.5C 15.5,26.5 16.5,26.5 17.5,26.5C 17.5,28.5 17.5,30.5 17.5,32.5C 16.5,32.5 15.5,32.5 14.5,32.5C 14.5,31.5 14.5,30.5 14.5,29.5C 13.5,29.5 12.5,29.5 11.5,29.5C 11.5,28.5 11.5,27.5 11.5,26.5C 10.5,26.5 9.5,26.5 8.5,26.5C 8.5,25.5 8.5,24.5 8.5,23.5C 9.5,23.5 10.5,23.5 11.5,23.5C 11.5,22.5 11.5,21.5 11.5,20.5C 12.5,20.5 13.5,20.5 14.5,20.5 Z"/></g>
<g><path style="opacity:1" fill="#47d50b" d="M 14.5,20.5 C 15.5,20.5 16.5,20.5 17.5,20.5C 18.5,20.5 19.5,20.5 20.5,20.5C 20.5,22.5 20.5,24.5 20.5,26.5C 21.5,26.5 22.5,26.5 23.5,26.5C 23.5,27.5 23.5,28.5 23.5,29.5C 22.5,29.5 21.5,29.5 20.5,29.5C 20.5,30.5 20.5,31.5 20.5,32.5C 19.5,32.5 18.5,32.5 17.5,32.5C 17.5,30.5 17.5,28.5 17.5,26.5C 16.5,26.5 15.5,26.5 14.5,26.5C 14.5,24.5 14.5,22.5 14.5,20.5 Z"/></g>
<g><path style="opacity:1" fill="#51eb14" d="M 29.5,26.5 C 30.5,26.5 31.5,26.5 32.5,26.5C 32.5,27.5 32.5,28.5 32.5,29.5C 31.5,29.5 30.5,29.5 29.5,29.5C 28.5,29.5 27.5,29.5 26.5,29.5C 26.5,28.5 26.5,27.5 26.5,26.5C 27.5,26.5 28.5,26.5 29.5,26.5 Z"/></g>
<g><path style="opacity:1" fill="#0e3807" d="M 32.5,26.5 C 33.5,26.5 34.5,26.5 35.5,26.5C 35.5,27.5 35.5,28.5 35.5,29.5C 34.5,29.5 33.5,29.5 32.5,29.5C 32.5,28.5 32.5,27.5 32.5,26.5 Z"/></g>
<g><path style="opacity:1" fill="#e2ffcb" d="M 23.5,29.5 C 23.5,30.5 23.5,31.5 23.5,32.5C 22.5,32.5 21.5,32.5 20.5,32.5C 20.5,31.5 20.5,30.5 20.5,29.5C 21.5,29.5 22.5,29.5 23.5,29.5 Z"/></g>
<g><path style="opacity:1" fill="#3fc402" d="M 23.5,29.5 C 24.5,29.5 25.5,29.5 26.5,29.5C 26.5,30.5 26.5,31.5 26.5,32.5C 25.5,32.5 24.5,32.5 23.5,32.5C 23.5,31.5 23.5,30.5 23.5,29.5 Z"/></g>
<g><path style="opacity:1" fill="#e2ffcb" d="M 26.5,29.5 C 27.5,29.5 28.5,29.5 29.5,29.5C 29.5,30.5 29.5,31.5 29.5,32.5C 30.5,32.5 31.5,32.5 32.5,32.5C 32.5,34.5 32.5,36.5 32.5,38.5C 31.5,38.5 30.5,38.5 29.5,38.5C 29.5,39.5 29.5,40.5 29.5,41.5C 28.5,41.5 27.5,41.5 26.5,41.5C 26.5,40.5 26.5,39.5 26.5,38.5C 25.5,38.5 24.5,38.5 23.5,38.5C 23.5,36.5 23.5,34.5 23.5,32.5C 24.5,32.5 25.5,32.5 26.5,32.5C 26.5,31.5 26.5,30.5 26.5,29.5 Z"/></g>
<g><path style="opacity:1" fill="#26a200" d="M 35.5,26.5 C 36.5,26.5 37.5,26.5 38.5,26.5C 38.5,28.5 38.5,30.5 38.5,32.5C 36.5,32.5 34.5,32.5 32.5,32.5C 31.5,32.5 30.5,32.5 29.5,32.5C 29.5,31.5 29.5,30.5 29.5,29.5C 30.5,29.5 31.5,29.5 32.5,29.5C 33.5,29.5 34.5,29.5 35.5,29.5C 35.5,28.5 35.5,27.5 35.5,26.5 Z"/></g>
<g><path style="opacity:1" fill="#405c1a" d="M 14.5,32.5 C 14.5,35.5 14.5,38.5 14.5,41.5C 13.5,41.5 12.5,41.5 11.5,41.5C 11.5,38.5 11.5,35.5 11.5,32.5C 12.5,32.5 13.5,32.5 14.5,32.5 Z"/></g>
<g><path style="opacity:1" fill="#a9dd63" d="M 14.5,32.5 C 15.5,32.5 16.5,32.5 17.5,32.5C 17.5,34.5 17.5,36.5 17.5,38.5C 18.5,38.5 19.5,38.5 20.5,38.5C 20.5,39.5 20.5,40.5 20.5,41.5C 21.5,41.5 22.5,41.5 23.5,41.5C 23.5,40.5 23.5,39.5 23.5,38.5C 24.5,38.5 25.5,38.5 26.5,38.5C 26.5,39.5 26.5,40.5 26.5,41.5C 27.5,41.5 28.5,41.5 29.5,41.5C 29.5,42.5 29.5,43.5 29.5,44.5C 25.5,44.5 21.5,44.5 17.5,44.5C 17.5,43.5 17.5,42.5 17.5,41.5C 16.5,41.5 15.5,41.5 14.5,41.5C 14.5,38.5 14.5,35.5 14.5,32.5 Z"/></g>
<g><path style="opacity:1" fill="#e2ffcb" d="M 17.5,32.5 C 18.5,32.5 19.5,32.5 20.5,32.5C 20.5,34.5 20.5,36.5 20.5,38.5C 19.5,38.5 18.5,38.5 17.5,38.5C 17.5,36.5 17.5,34.5 17.5,32.5 Z"/></g>
<g><path style="opacity:1" fill="#a9dd63" d="M 20.5,32.5 C 21.5,32.5 22.5,32.5 23.5,32.5C 23.5,34.5 23.5,36.5 23.5,38.5C 22.5,38.5 21.5,38.5 20.5,38.5C 20.5,36.5 20.5,34.5 20.5,32.5 Z"/></g>
<g><path style="opacity:1" fill="#3a5b16" d="M 32.5,32.5 C 34.5,32.5 36.5,32.5 38.5,32.5C 38.5,33.5 38.5,34.5 38.5,35.5C 37.5,35.5 36.5,35.5 35.5,35.5C 35.5,37.5 35.5,39.5 35.5,41.5C 34.5,41.5 33.5,41.5 32.5,41.5C 32.5,40.5 32.5,39.5 32.5,38.5C 32.5,36.5 32.5,34.5 32.5,32.5 Z"/></g>
<g><path style="opacity:1" fill="#e2ffcb" d="M 20.5,38.5 C 21.5,38.5 22.5,38.5 23.5,38.5C 23.5,39.5 23.5,40.5 23.5,41.5C 22.5,41.5 21.5,41.5 20.5,41.5C 20.5,40.5 20.5,39.5 20.5,38.5 Z"/></g>
<g><path style="opacity:1" fill="#a9dd63" d="M 32.5,38.5 C 32.5,39.5 32.5,40.5 32.5,41.5C 31.5,41.5 30.5,41.5 29.5,41.5C 29.5,40.5 29.5,39.5 29.5,38.5C 30.5,38.5 31.5,38.5 32.5,38.5 Z"/></g>
<g><path style="opacity:1" fill="#405c1a" d="M 14.5,41.5 C 15.5,41.5 16.5,41.5 17.5,41.5C 17.5,42.5 17.5,43.5 17.5,44.5C 16.5,44.5 15.5,44.5 14.5,44.5C 14.5,43.5 14.5,42.5 14.5,41.5 Z"/></g>
<g><path style="opacity:1" fill="#405c1a" d="M 29.5,41.5 C 30.5,41.5 31.5,41.5 32.5,41.5C 32.5,42.5 32.5,43.5 32.5,44.5C 31.5,44.5 30.5,44.5 29.5,44.5C 29.5,43.5 29.5,42.5 29.5,41.5 Z"/></g>
<g><path style="opacity:1" fill="#405c1a" d="M 17.5,44.5 C 21.5,44.5 25.5,44.5 29.5,44.5C 29.5,45.5 29.5,46.5 29.5,47.5C 25.5,47.5 21.5,47.5 17.5,47.5C 17.5,46.5 17.5,45.5 17.5,44.5 Z"/></g>
</svg>
