<?xml version="1.0" encoding="UTF-8"?>
<!DOCTYPE svg PUBLIC "-//W3C//DTD SVG 1.1//EN" "http://www.w3.org/Graphics/SVG/1.1/DTD/svg11.dtd">
<svg xmlns="http://www.w3.org/2000/svg" version="1.1" width="64px" height="64px" style="shape-rendering:geometricPrecision; text-rendering:geometricPrecision; image-rendering:optimizeQuality; fill-rule:evenodd; clip-rule:evenodd" xmlns:xlink="http://www.w3.org/1999/xlink">
<g><path style="opacity:1" fill="#262857" d="M 7.5,-0.5 C 23.5,-0.5 39.5,-0.5 55.5,-0.5C 55.5,0.833333 55.5,2.16667 55.5,3.5C 54.1667,3.5 52.8333,3.5 51.5,3.5C 43.5,3.5 35.5,3.5 27.5,3.5C 26.1667,3.5 24.8333,3.5 23.5,3.5C 22.1667,3.5 20.8333,3.5 19.5,3.5C 16.8333,3.5 14.1667,3.5 11.5,3.5C 11.5,4.83333 11.5,6.16667 11.5,7.5C 10.1667,7.5 8.83333,7.5 7.5,7.5C 7.5,4.83333 7.5,2.16667 7.5,-0.5 Z"/></g>
<g><path style="opacity:1" fill="#1c67c7" d="M 19.5,3.5 C 19.5,4.83333 19.5,6.16667 19.5,7.5C 18.1667,7.5 16.8333,7.5 15.5,7.5C 15.5,18.1667 15.5,28.8333 15.5,39.5C 14.1667,39.5 12.8333,39.5 11.5,39.5C 10.1667,39.5 8.83333,39.5 7.5,39.5C 6.16667,39.5 4.83333,39.5 3.5,39.5C 3.5,38.1667 3.5,36.8333 3.5,35.5C 4.83333,35.5 6.16667,35.5 7.5,35.5C 7.5,30.1667 7.5,24.8333 7.5,19.5C 7.5,18.1667 7.5,16.8333 7.5,15.5C 8.83333,15.5 10.1667,15.5 11.5,15.5C 11.5,12.8333 11.5,10.1667 11.5,7.5C 11.5,6.16667 11.5,4.83333 11.5,3.5C 14.1667,3.5 16.8333,3.5 19.5,3.5 Z"/></g>
<g><path style="opacity:1" fill="#4e9fd1" d="M 19.5,3.5 C 20.8333,3.5 22.1667,3.5 23.5,3.5C 23.5,4.83333 23.5,6.16667 23.5,7.5C 22.1667,7.5 20.8333,7.5 19.5,7.5C 19.5,6.16667 19.5,4.83333 19.5,3.5 Z"/></g>
<g><path style="opacity:1" fill="#1965c2" d="M 27.5,3.5 C 35.5,3.5 43.5,3.5 51.5,3.5C 51.5,4.83333 51.5,6.16667 51.5,7.5C 52.8333,7.5 54.1667,7.5 55.5,7.5C 55.5,18.1667 55.5,28.8333 55.5,39.5C 54.1667,39.5 52.8333,39.5 51.5,39.5C 51.5,40.8333 51.5,42.1667 51.5,43.5C 50.1667,43.5 48.8333,43.5 47.5,43.5C 40.8333,43.5 34.1667,43.5 27.5,43.5C 26.1667,43.5 24.8333,43.5 23.5,43.5C 23.5,32.8333 23.5,22.1667 23.5,11.5C 24.8333,11.5 26.1667,11.5 27.5,11.5C 27.5,8.83333 27.5,6.16667 27.5,3.5 Z"/></g>
<g><path style="opacity:1" fill="#4e9fd1" d="M 51.5,3.5 C 52.8333,3.5 54.1667,3.5 55.5,3.5C 55.5,4.83333 55.5,6.16667 55.5,7.5C 54.1667,7.5 52.8333,7.5 51.5,7.5C 51.5,6.16667 51.5,4.83333 51.5,3.5 Z"/></g>
<g><path style="opacity:1" fill="#262857" d="M 55.5,3.5 C 56.8333,3.5 58.1667,3.5 59.5,3.5C 59.5,4.83333 59.5,6.16667 59.5,7.5C 58.1667,7.5 56.8333,7.5 55.5,7.5C 55.5,6.16667 55.5,4.83333 55.5,3.5 Z"/></g>
<g><path style="opacity:1" fill="#262857" d="M 7.5,7.5 C 7.5,10.1667 7.5,12.8333 7.5,15.5C 7.5,16.8333 7.5,18.1667 7.5,19.5C 6.16667,19.5 4.83333,19.5 3.5,19.5C 3.5,15.5 3.5,11.5 3.5,7.5C 4.83333,7.5 6.16667,7.5 7.5,7.5 Z"/></g>
<g><path style="opacity:1" fill="#004d94" d="M 7.5,7.5 C 8.83333,7.5 10.1667,7.5 11.5,7.5C 11.5,10.1667 11.5,12.8333 11.5,15.5C 10.1667,15.5 8.83333,15.5 7.5,15.5C 7.5,12.8333 7.5,10.1667 7.5,7.5 Z"/></g>
<g><path style="opacity:1" fill="#4e9fd1" d="M 19.5,7.5 C 19.5,18.1667 19.5,28.8333 19.5,39.5C 18.1667,39.5 16.8333,39.5 15.5,39.5C 15.5,28.8333 15.5,18.1667 15.5,7.5C 16.8333,7.5 18.1667,7.5 19.5,7.5 Z"/></g>
<g><path style="opacity:1" fill="#4e9fd1" d="M 55.5,7.5 C 56.8333,7.5 58.1667,7.5 59.5,7.5C 59.5,18.1667 59.5,28.8333 59.5,39.5C 58.1667,39.5 56.8333,39.5 55.5,39.5C 55.5,28.8333 55.5,18.1667 55.5,7.5 Z"/></g>
<g><path style="opacity:1" fill="#262857" d="M 59.5,7.5 C 60.8333,7.5 62.1667,7.5 63.5,7.5C 63.5,20.8333 63.5,34.1667 63.5,47.5C 62.1667,47.5 60.8333,47.5 59.5,47.5C 59.5,44.8333 59.5,42.1667 59.5,39.5C 59.5,28.8333 59.5,18.1667 59.5,7.5 Z"/></g>
<g><path style="opacity:1" fill="#03519a" d="M 23.5,3.5 C 24.8333,3.5 26.1667,3.5 27.5,3.5C 27.5,6.16667 27.5,8.83333 27.5,11.5C 26.1667,11.5 24.8333,11.5 23.5,11.5C 23.5,22.1667 23.5,32.8333 23.5,43.5C 23.5,44.8333 23.5,46.1667 23.5,47.5C 23.5,48.8333 23.5,50.1667 23.5,51.5C 22.1667,51.5 20.8333,51.5 19.5,51.5C 19.5,50.1667 19.5,48.8333 19.5,47.5C 18.1667,47.5 16.8333,47.5 15.5,47.5C 15.5,46.1667 15.5,44.8333 15.5,43.5C 15.5,42.1667 15.5,40.8333 15.5,39.5C 16.8333,39.5 18.1667,39.5 19.5,39.5C 19.5,28.8333 19.5,18.1667 19.5,7.5C 20.8333,7.5 22.1667,7.5 23.5,7.5C 23.5,6.16667 23.5,4.83333 23.5,3.5 Z"/></g>
<g><path style="opacity:1" fill="#262857" d="M 35.5,11.5 C 36.8333,11.5 38.1667,11.5 39.5,11.5C 39.5,12.8333 39.5,14.1667 39.5,15.5C 38.1667,15.5 36.8333,15.5 35.5,15.5C 35.5,14.1667 35.5,12.8333 35.5,11.5 Z"/></g>
<g><path style="opacity:1" fill="#262857" d="M -0.5,19.5 C 0.833333,19.5 2.16667,19.5 3.5,19.5C 3.5,24.8333 3.5,30.1667 3.5,35.5C 3.5,36.8333 3.5,38.1667 3.5,39.5C 3.5,40.8333 3.5,42.1667 3.5,43.5C 3.5,44.8333 3.5,46.1667 3.5,47.5C 3.5,48.8333 3.5,50.1667 3.5,51.5C 3.5,54.1667 3.5,56.8333 3.5,59.5C 2.16667,59.5 0.833333,59.5 -0.5,59.5C -0.5,46.1667 -0.5,32.8333 -0.5,19.5 Z"/></g>
<g><path style="opacity:1" fill="#004d94" d="M 3.5,19.5 C 4.83333,19.5 6.16667,19.5 7.5,19.5C 7.5,24.8333 7.5,30.1667 7.5,35.5C 6.16667,35.5 4.83333,35.5 3.5,35.5C 3.5,30.1667 3.5,24.8333 3.5,19.5 Z"/></g>
<g><path style="opacity:1" fill="#262857" d="M 39.5,19.5 C 40.8333,19.5 42.1667,19.5 43.5,19.5C 43.5,20.8333 43.5,22.1667 43.5,23.5C 42.1667,23.5 40.8333,23.5 39.5,23.5C 39.5,22.1667 39.5,20.8333 39.5,19.5 Z"/></g>
<g><path style="opacity:1" fill="#262857" d="M 39.5,35.5 C 40.8333,35.5 42.1667,35.5 43.5,35.5C 43.5,36.8333 43.5,38.1667 43.5,39.5C 42.1667,39.5 40.8333,39.5 39.5,39.5C 39.5,38.1667 39.5,36.8333 39.5,35.5 Z"/></g>
<g><path style="opacity:1" fill="#4e9fd1" d="M 3.5,39.5 C 4.83333,39.5 6.16667,39.5 7.5,39.5C 7.5,40.8333 7.5,42.1667 7.5,43.5C 6.16667,43.5 4.83333,43.5 3.5,43.5C 3.5,42.1667 3.5,40.8333 3.5,39.5 Z"/></g>
<g><path style="opacity:1" fill="#96fcfe" d="M 7.5,39.5 C 8.83333,39.5 10.1667,39.5 11.5,39.5C 11.5,40.8333 11.5,42.1667 11.5,43.5C 10.1667,43.5 8.83333,43.5 7.5,43.5C 7.5,42.1667 7.5,40.8333 7.5,39.5 Z"/></g>
<g><path style="opacity:1" fill="#4e9fd1" d="M 11.5,39.5 C 12.8333,39.5 14.1667,39.5 15.5,39.5C 15.5,40.8333 15.5,42.1667 15.5,43.5C 14.1667,43.5 12.8333,43.5 11.5,43.5C 11.5,42.1667 11.5,40.8333 11.5,39.5 Z"/></g>
<g><path style="opacity:1" fill="#4e9fd1" d="M 55.5,39.5 C 55.5,40.8333 55.5,42.1667 55.5,43.5C 54.1667,43.5 52.8333,43.5 51.5,43.5C 51.5,42.1667 51.5,40.8333 51.5,39.5C 52.8333,39.5 54.1667,39.5 55.5,39.5 Z"/></g>
<g><path style="opacity:1" fill="#96fcfe" d="M 3.5,43.5 C 4.83333,43.5 6.16667,43.5 7.5,43.5C 7.5,44.8333 7.5,46.1667 7.5,47.5C 6.16667,47.5 4.83333,47.5 3.5,47.5C 3.5,46.1667 3.5,44.8333 3.5,43.5 Z"/></g>
<g><path style="opacity:1" fill="#004d94" d="M 7.5,43.5 C 8.83333,43.5 10.1667,43.5 11.5,43.5C 11.5,44.8333 11.5,46.1667 11.5,47.5C 10.1667,47.5 8.83333,47.5 7.5,47.5C 7.5,46.1667 7.5,44.8333 7.5,43.5 Z"/></g>
<g><path style="opacity:1" fill="#262857" d="M 11.5,43.5 C 12.8333,43.5 14.1667,43.5 15.5,43.5C 15.5,44.8333 15.5,46.1667 15.5,47.5C 14.1667,47.5 12.8333,47.5 11.5,47.5C 11.5,46.1667 11.5,44.8333 11.5,43.5 Z"/></g>
<g><path style="opacity:1" fill="#4e9fd1" d="M 23.5,43.5 C 24.8333,43.5 26.1667,43.5 27.5,43.5C 27.5,44.8333 27.5,46.1667 27.5,47.5C 26.1667,47.5 24.8333,47.5 23.5,47.5C 23.5,46.1667 23.5,44.8333 23.5,43.5 Z"/></g>
<g><path style="opacity:1" fill="#96fcfe" d="M 27.5,43.5 C 34.1667,43.5 40.8333,43.5 47.5,43.5C 47.5,44.8333 47.5,46.1667 47.5,47.5C 40.8333,47.5 34.1667,47.5 27.5,47.5C 27.5,46.1667 27.5,44.8333 27.5,43.5 Z"/></g>
<g><path style="opacity:1" fill="#4e9fd1" d="M 47.5,43.5 C 48.8333,43.5 50.1667,43.5 51.5,43.5C 51.5,44.8333 51.5,46.1667 51.5,47.5C 50.1667,47.5 48.8333,47.5 47.5,47.5C 47.5,46.1667 47.5,44.8333 47.5,43.5 Z"/></g>
<g><path style="opacity:1" fill="#0b58a8" d="M 55.5,39.5 C 56.8333,39.5 58.1667,39.5 59.5,39.5C 59.5,42.1667 59.5,44.8333 59.5,47.5C 58.1667,47.5 56.8333,47.5 55.5,47.5C 55.5,48.8333 55.5,50.1667 55.5,51.5C 54.1667,51.5 52.8333,51.5 51.5,51.5C 51.5,50.1667 51.5,48.8333 51.5,47.5C 51.5,46.1667 51.5,44.8333 51.5,43.5C 52.8333,43.5 54.1667,43.5 55.5,43.5C 55.5,42.1667 55.5,40.8333 55.5,39.5 Z"/></g>
<g><path style="opacity:1" fill="#4e9fd1" d="M 3.5,47.5 C 4.83333,47.5 6.16667,47.5 7.5,47.5C 7.5,48.8333 7.5,50.1667 7.5,51.5C 6.16667,51.5 4.83333,51.5 3.5,51.5C 3.5,50.1667 3.5,48.8333 3.5,47.5 Z"/></g>
<g><path style="opacity:1" fill="#262857" d="M 7.5,47.5 C 8.83333,47.5 10.1667,47.5 11.5,47.5C 11.5,50.1667 11.5,52.8333 11.5,55.5C 10.1667,55.5 8.83333,55.5 7.5,55.5C 7.5,54.1667 7.5,52.8333 7.5,51.5C 7.5,50.1667 7.5,48.8333 7.5,47.5 Z"/></g>
<g><path style="opacity:1" fill="#7e4e27" d="M 11.5,47.5 C 12.8333,47.5 14.1667,47.5 15.5,47.5C 16.8333,47.5 18.1667,47.5 19.5,47.5C 19.5,48.8333 19.5,50.1667 19.5,51.5C 18.1667,51.5 16.8333,51.5 15.5,51.5C 15.5,52.8333 15.5,54.1667 15.5,55.5C 14.1667,55.5 12.8333,55.5 11.5,55.5C 11.5,52.8333 11.5,50.1667 11.5,47.5 Z"/></g>
<g><path style="opacity:1" fill="#262857" d="M 23.5,47.5 C 24.8333,47.5 26.1667,47.5 27.5,47.5C 34.1667,47.5 40.8333,47.5 47.5,47.5C 48.8333,47.5 50.1667,47.5 51.5,47.5C 51.5,48.8333 51.5,50.1667 51.5,51.5C 42.1667,51.5 32.8333,51.5 23.5,51.5C 23.5,50.1667 23.5,48.8333 23.5,47.5 Z"/></g>
<g><path style="opacity:1" fill="#55350b" d="M 59.5,47.5 C 59.5,51.5 59.5,55.5 59.5,59.5C 56.8333,59.5 54.1667,59.5 51.5,59.5C 51.5,58.1667 51.5,56.8333 51.5,55.5C 52.8333,55.5 54.1667,55.5 55.5,55.5C 55.5,54.1667 55.5,52.8333 55.5,51.5C 55.5,50.1667 55.5,48.8333 55.5,47.5C 56.8333,47.5 58.1667,47.5 59.5,47.5 Z"/></g>
<g><path style="opacity:1" fill="#d0a86d" d="M 19.5,51.5 C 20.8333,51.5 22.1667,51.5 23.5,51.5C 23.5,52.8333 23.5,54.1667 23.5,55.5C 32.8333,55.5 42.1667,55.5 51.5,55.5C 51.5,56.8333 51.5,58.1667 51.5,59.5C 40.8333,59.5 30.1667,59.5 19.5,59.5C 19.5,58.1667 19.5,56.8333 19.5,55.5C 18.1667,55.5 16.8333,55.5 15.5,55.5C 15.5,54.1667 15.5,52.8333 15.5,51.5C 16.8333,51.5 18.1667,51.5 19.5,51.5 Z"/></g>
<g><path style="opacity:1" fill="#ffebd0" d="M 23.5,51.5 C 32.8333,51.5 42.1667,51.5 51.5,51.5C 51.5,52.8333 51.5,54.1667 51.5,55.5C 42.1667,55.5 32.8333,55.5 23.5,55.5C 23.5,54.1667 23.5,52.8333 23.5,51.5 Z"/></g>
<g><path style="opacity:1" fill="#d0a86d" d="M 51.5,51.5 C 52.8333,51.5 54.1667,51.5 55.5,51.5C 55.5,52.8333 55.5,54.1667 55.5,55.5C 54.1667,55.5 52.8333,55.5 51.5,55.5C 51.5,54.1667 51.5,52.8333 51.5,51.5 Z"/></g>
<g><path style="opacity:1" fill="#0654a0" d="M 3.5,51.5 C 4.83333,51.5 6.16667,51.5 7.5,51.5C 7.5,52.8333 7.5,54.1667 7.5,55.5C 8.83333,55.5 10.1667,55.5 11.5,55.5C 11.5,56.8333 11.5,58.1667 11.5,59.5C 8.83333,59.5 6.16667,59.5 3.5,59.5C 3.5,56.8333 3.5,54.1667 3.5,51.5 Z"/></g>
<g><path style="opacity:1" fill="#262857" d="M 11.5,55.5 C 12.8333,55.5 14.1667,55.5 15.5,55.5C 16.8333,55.5 18.1667,55.5 19.5,55.5C 19.5,56.8333 19.5,58.1667 19.5,59.5C 30.1667,59.5 40.8333,59.5 51.5,59.5C 54.1667,59.5 56.8333,59.5 59.5,59.5C 59.5,60.8333 59.5,62.1667 59.5,63.5C 40.8333,63.5 22.1667,63.5 3.5,63.5C 3.5,62.1667 3.5,60.8333 3.5,59.5C 6.16667,59.5 8.83333,59.5 11.5,59.5C 11.5,58.1667 11.5,56.8333 11.5,55.5 Z"/></g>
<g><path style="opacity:1" fill="#7e4e27" d="M 15.5,55.5 C 16.8333,55.5 18.1667,55.5 19.5,55.5C 19.5,56.8333 19.5,58.1667 19.5,59.5C 18.1667,59.5 16.8333,59.5 15.5,59.5C 15.5,58.1667 15.5,56.8333 15.5,55.5 Z"/></g>
</svg>
