<?xml version="1.0" encoding="UTF-8"?>
<!DOCTYPE svg PUBLIC "-//W3C//DTD SVG 1.1//EN" "http://www.w3.org/Graphics/SVG/1.1/DTD/svg11.dtd">
<svg xmlns="http://www.w3.org/2000/svg" version="1.1" width="48px" height="48px" style="shape-rendering:geometricPrecision; text-rendering:geometricPrecision; image-rendering:optimizeQuality; fill-rule:evenodd; clip-rule:evenodd" xmlns:xlink="http://www.w3.org/1999/xlink">
<g><path style="opacity:1" fill="#793a22" d="M 17.5,-0.5 C 21.5,-0.5 25.5,-0.5 29.5,-0.5C 29.5,0.5 29.5,1.5 29.5,2.5C 25.5,2.5 21.5,2.5 17.5,2.5C 17.5,1.5 17.5,0.5 17.5,-0.5 Z"/></g>
<g><path style="opacity:1" fill="#fff43e" d="M 17.5,2.5 C 21.5,2.5 25.5,2.5 29.5,2.5C 29.5,3.5 29.5,4.5 29.5,5.5C 29.5,6.5 29.5,7.5 29.5,8.5C 28.5,8.5 27.5,8.5 26.5,8.5C 24.5,8.5 22.5,8.5 20.5,8.5C 19.5,8.5 18.5,8.5 17.5,8.5C 17.5,7.5 17.5,6.5 17.5,5.5C 17.5,4.5 17.5,3.5 17.5,2.5 Z"/></g>
<g><path style="opacity:1" fill="#793a22" d="M 29.5,2.5 C 31.5,2.5 33.5,2.5 35.5,2.5C 35.5,3.5 35.5,4.5 35.5,5.5C 33.5,5.5 31.5,5.5 29.5,5.5C 29.5,4.5 29.5,3.5 29.5,2.5 Z"/></g>
<g><path style="opacity:1" fill="#92461a" d="M 17.5,2.5 C 17.5,3.5 17.5,4.5 17.5,5.5C 16.5,5.5 15.5,5.5 14.5,5.5C 14.5,6.5 14.5,7.5 14.5,8.5C 12.5,8.5 10.5,8.5 8.5,8.5C 8.5,7.5 8.5,6.5 8.5,5.5C 9.5,5.5 10.5,5.5 11.5,5.5C 11.5,4.5 11.5,3.5 11.5,2.5C 13.5,2.5 15.5,2.5 17.5,2.5 Z"/></g>
<g><path style="opacity:1" fill="#ee972a" d="M 17.5,5.5 C 17.5,6.5 17.5,7.5 17.5,8.5C 16.5,8.5 15.5,8.5 14.5,8.5C 14.5,7.5 14.5,6.5 14.5,5.5C 15.5,5.5 16.5,5.5 17.5,5.5 Z"/></g>
<g><path style="opacity:1" fill="#c56b11" d="M 29.5,5.5 C 31.5,5.5 33.5,5.5 35.5,5.5C 35.5,6.5 35.5,7.5 35.5,8.5C 33.5,8.5 31.5,8.5 29.5,8.5C 29.5,7.5 29.5,6.5 29.5,5.5 Z"/></g>
<g><path style="opacity:1" fill="#793a22" d="M 35.5,5.5 C 36.5,5.5 37.5,5.5 38.5,5.5C 38.5,6.5 38.5,7.5 38.5,8.5C 37.5,8.5 36.5,8.5 35.5,8.5C 35.5,7.5 35.5,6.5 35.5,5.5 Z"/></g>
<g><path style="opacity:1" fill="#793a22" d="M 8.5,8.5 C 8.5,9.5 8.5,10.5 8.5,11.5C 7.5,11.5 6.5,11.5 5.5,11.5C 5.5,10.5 5.5,9.5 5.5,8.5C 6.5,8.5 7.5,8.5 8.5,8.5 Z"/></g>
<g><path style="opacity:1" fill="#ffe32a" d="M 8.5,8.5 C 10.5,8.5 12.5,8.5 14.5,8.5C 15.5,8.5 16.5,8.5 17.5,8.5C 17.5,9.5 17.5,10.5 17.5,11.5C 17.5,12.5 17.5,13.5 17.5,14.5C 16.5,14.5 15.5,14.5 14.5,14.5C 14.5,15.5 14.5,16.5 14.5,17.5C 13.5,17.5 12.5,17.5 11.5,17.5C 11.5,18.5 11.5,19.5 11.5,20.5C 10.5,20.5 9.5,20.5 8.5,20.5C 7.5,20.5 6.5,20.5 5.5,20.5C 5.5,17.5 5.5,14.5 5.5,11.5C 6.5,11.5 7.5,11.5 8.5,11.5C 8.5,10.5 8.5,9.5 8.5,8.5 Z"/></g>
<g><path style="opacity:1" fill="#793a22" d="M 17.5,8.5 C 18.5,8.5 19.5,8.5 20.5,8.5C 20.5,9.5 20.5,10.5 20.5,11.5C 19.5,11.5 18.5,11.5 17.5,11.5C 17.5,10.5 17.5,9.5 17.5,8.5 Z"/></g>
<g><path style="opacity:1" fill="#793a22" d="M 26.5,8.5 C 27.5,8.5 28.5,8.5 29.5,8.5C 29.5,9.5 29.5,10.5 29.5,11.5C 28.5,11.5 27.5,11.5 26.5,11.5C 26.5,10.5 26.5,9.5 26.5,8.5 Z"/></g>
<g><path style="opacity:1" fill="#ffe32a" d="M 29.5,8.5 C 31.5,8.5 33.5,8.5 35.5,8.5C 36.5,8.5 37.5,8.5 38.5,8.5C 38.5,9.5 38.5,10.5 38.5,11.5C 39.5,11.5 40.5,11.5 41.5,11.5C 41.5,14.5 41.5,17.5 41.5,20.5C 40.5,20.5 39.5,20.5 38.5,20.5C 37.5,20.5 36.5,20.5 35.5,20.5C 35.5,19.5 35.5,18.5 35.5,17.5C 34.5,17.5 33.5,17.5 32.5,17.5C 32.5,16.5 32.5,15.5 32.5,14.5C 31.5,14.5 30.5,14.5 29.5,14.5C 29.5,13.5 29.5,12.5 29.5,11.5C 29.5,10.5 29.5,9.5 29.5,8.5 Z"/></g>
<g><path style="opacity:1" fill="#793a22" d="M 38.5,8.5 C 39.5,8.5 40.5,8.5 41.5,8.5C 41.5,9.5 41.5,10.5 41.5,11.5C 41.5,10.5 41.5,9.5 41.5,8.5C 40.5,8.5 39.5,8.5 38.5,8.5 Z"/></g>
<g><path style="opacity:1" fill="#793a22" d="M 5.5,11.5 C 5.5,14.5 5.5,17.5 5.5,20.5C 5.5,22.5 5.5,24.5 5.5,26.5C 4.5,26.5 3.5,26.5 2.5,26.5C 2.5,21.5 2.5,16.5 2.5,11.5C 3.5,11.5 4.5,11.5 5.5,11.5 Z"/></g>
<g><path style="opacity:1" fill="#d27919" d="M 20.5,8.5 C 22.5,8.5 24.5,8.5 26.5,8.5C 26.5,9.5 26.5,10.5 26.5,11.5C 27.5,11.5 28.5,11.5 29.5,11.5C 29.5,12.5 29.5,13.5 29.5,14.5C 25.5,14.5 21.5,14.5 17.5,14.5C 17.5,13.5 17.5,12.5 17.5,11.5C 18.5,11.5 19.5,11.5 20.5,11.5C 20.5,10.5 20.5,9.5 20.5,8.5 Z"/></g>
<g><path style="opacity:1" fill="#793a22" d="M 41.5,11.5 C 42.5,11.5 43.5,11.5 44.5,11.5C 44.5,16.5 44.5,21.5 44.5,26.5C 43.5,26.5 42.5,26.5 41.5,26.5C 41.5,24.5 41.5,22.5 41.5,20.5C 41.5,17.5 41.5,14.5 41.5,11.5 Z"/></g>
<g><path style="opacity:1" fill="#ee972a" d="M 17.5,14.5 C 17.5,15.5 17.5,16.5 17.5,17.5C 16.5,17.5 15.5,17.5 14.5,17.5C 14.5,16.5 14.5,15.5 14.5,14.5C 15.5,14.5 16.5,14.5 17.5,14.5 Z"/></g>
<g><path style="opacity:1" fill="#fecf04" d="M 17.5,14.5 C 21.5,14.5 25.5,14.5 29.5,14.5C 29.5,15.5 29.5,16.5 29.5,17.5C 25.5,17.5 21.5,17.5 17.5,17.5C 17.5,16.5 17.5,15.5 17.5,14.5 Z"/></g>
<g><path style="opacity:1" fill="#ee972a" d="M 29.5,14.5 C 30.5,14.5 31.5,14.5 32.5,14.5C 32.5,15.5 32.5,16.5 32.5,17.5C 31.5,17.5 30.5,17.5 29.5,17.5C 29.5,16.5 29.5,15.5 29.5,14.5 Z"/></g>
<g><path style="opacity:1" fill="#b05602" d="M 14.5,17.5 C 14.5,18.5 14.5,19.5 14.5,20.5C 13.5,20.5 12.5,20.5 11.5,20.5C 11.5,19.5 11.5,18.5 11.5,17.5C 12.5,17.5 13.5,17.5 14.5,17.5 Z"/></g>
<g><path style="opacity:1" fill="#feff48" d="M 14.5,17.5 C 15.5,17.5 16.5,17.5 17.5,17.5C 21.5,17.5 25.5,17.5 29.5,17.5C 30.5,17.5 31.5,17.5 32.5,17.5C 32.5,18.5 32.5,19.5 32.5,20.5C 31.5,20.5 30.5,20.5 29.5,20.5C 29.5,21.5 29.5,22.5 29.5,23.5C 25.5,23.5 21.5,23.5 17.5,23.5C 17.5,22.5 17.5,21.5 17.5,20.5C 16.5,20.5 15.5,20.5 14.5,20.5C 14.5,19.5 14.5,18.5 14.5,17.5 Z"/></g>
<g><path style="opacity:1" fill="#b05602" d="M 32.5,17.5 C 33.5,17.5 34.5,17.5 35.5,17.5C 35.5,18.5 35.5,19.5 35.5,20.5C 34.5,20.5 33.5,20.5 32.5,20.5C 32.5,19.5 32.5,18.5 32.5,17.5 Z"/></g>
<g><path style="opacity:1" fill="#fe9712" d="M 5.5,20.5 C 6.5,20.5 7.5,20.5 8.5,20.5C 8.5,22.5 8.5,24.5 8.5,26.5C 7.5,26.5 6.5,26.5 5.5,26.5C 5.5,24.5 5.5,22.5 5.5,20.5 Z"/></g>
<g><path style="opacity:1" fill="#b05602" d="M 8.5,20.5 C 9.5,20.5 10.5,20.5 11.5,20.5C 11.5,21.5 11.5,22.5 11.5,23.5C 11.5,26.5 11.5,29.5 11.5,32.5C 11.5,33.5 11.5,34.5 11.5,35.5C 10.5,35.5 9.5,35.5 8.5,35.5C 8.5,32.5 8.5,29.5 8.5,26.5C 8.5,24.5 8.5,22.5 8.5,20.5 Z"/></g>
<g><path style="opacity:1" fill="#fecf04" d="M 11.5,20.5 C 12.5,20.5 13.5,20.5 14.5,20.5C 15.5,20.5 16.5,20.5 17.5,20.5C 17.5,21.5 17.5,22.5 17.5,23.5C 21.5,23.5 25.5,23.5 29.5,23.5C 29.5,22.5 29.5,21.5 29.5,20.5C 30.5,20.5 31.5,20.5 32.5,20.5C 33.5,20.5 34.5,20.5 35.5,20.5C 35.5,21.5 35.5,22.5 35.5,23.5C 34.5,23.5 33.5,23.5 32.5,23.5C 32.5,26.5 32.5,29.5 32.5,32.5C 31.5,32.5 30.5,32.5 29.5,32.5C 29.5,33.5 29.5,34.5 29.5,35.5C 25.5,35.5 21.5,35.5 17.5,35.5C 17.5,34.5 17.5,33.5 17.5,32.5C 16.5,32.5 15.5,32.5 14.5,32.5C 14.5,29.5 14.5,26.5 14.5,23.5C 13.5,23.5 12.5,23.5 11.5,23.5C 11.5,22.5 11.5,21.5 11.5,20.5 Z"/></g>
<g><path style="opacity:1" fill="#b05602" d="M 35.5,20.5 C 36.5,20.5 37.5,20.5 38.5,20.5C 38.5,22.5 38.5,24.5 38.5,26.5C 38.5,29.5 38.5,32.5 38.5,35.5C 37.5,35.5 36.5,35.5 35.5,35.5C 35.5,34.5 35.5,33.5 35.5,32.5C 35.5,29.5 35.5,26.5 35.5,23.5C 35.5,22.5 35.5,21.5 35.5,20.5 Z"/></g>
<g><path style="opacity:1" fill="#fe9712" d="M 38.5,20.5 C 39.5,20.5 40.5,20.5 41.5,20.5C 41.5,22.5 41.5,24.5 41.5,26.5C 40.5,26.5 39.5,26.5 38.5,26.5C 38.5,24.5 38.5,22.5 38.5,20.5 Z"/></g>
<g><path style="opacity:1" fill="#fe9712" d="M 11.5,23.5 C 12.5,23.5 13.5,23.5 14.5,23.5C 14.5,26.5 14.5,29.5 14.5,32.5C 13.5,32.5 12.5,32.5 11.5,32.5C 11.5,29.5 11.5,26.5 11.5,23.5 Z"/></g>
<g><path style="opacity:1" fill="#fe9712" d="M 35.5,23.5 C 35.5,26.5 35.5,29.5 35.5,32.5C 34.5,32.5 33.5,32.5 32.5,32.5C 32.5,29.5 32.5,26.5 32.5,23.5C 33.5,23.5 34.5,23.5 35.5,23.5 Z"/></g>
<g><path style="opacity:0.306" fill="#804132" d="M 5.5,26.5 C 6.5,26.5 7.5,26.5 8.5,26.5C 8.5,29.5 8.5,32.5 8.5,35.5C 9.5,35.5 10.5,35.5 11.5,35.5C 11.5,34.5 11.5,33.5 11.5,32.5C 12.5,32.5 13.5,32.5 14.5,32.5C 15.5,32.5 16.5,32.5 17.5,32.5C 17.5,33.5 17.5,34.5 17.5,35.5C 21.5,35.5 25.5,35.5 29.5,35.5C 30.5,35.5 31.5,35.5 32.5,35.5C 32.5,34.5 32.5,33.5 32.5,32.5C 33.5,32.5 34.5,32.5 35.5,32.5C 35.5,33.5 35.5,34.5 35.5,35.5C 36.5,35.5 37.5,35.5 38.5,35.5C 38.5,32.5 38.5,29.5 38.5,26.5C 39.5,26.5 40.5,26.5 41.5,26.5C 41.5,27.5 41.5,28.5 41.5,29.5C 42.5,29.5 43.5,29.5 44.5,29.5C 44.5,32.5 44.5,35.5 44.5,38.5C 43.5,38.5 42.5,38.5 41.5,38.5C 41.5,39.5 41.5,40.5 41.5,41.5C 39.5,41.5 37.5,41.5 35.5,41.5C 35.5,42.5 35.5,43.5 35.5,44.5C 27.5,44.5 19.5,44.5 11.5,44.5C 11.5,43.5 11.5,42.5 11.5,41.5C 9.5,41.5 7.5,41.5 5.5,41.5C 5.5,40.5 5.5,39.5 5.5,38.5C 4.5,38.5 3.5,38.5 2.5,38.5C 2.5,35.5 2.5,32.5 2.5,29.5C 3.5,29.5 4.5,29.5 5.5,29.5C 5.5,28.5 5.5,27.5 5.5,26.5 Z"/></g>
<g><path style="opacity:1" fill="#fe9712" d="M 14.5,32.5 C 15.5,32.5 16.5,32.5 17.5,32.5C 17.5,33.5 17.5,34.5 17.5,35.5C 16.5,35.5 15.5,35.5 14.5,35.5C 14.5,34.5 14.5,33.5 14.5,32.5 Z"/></g>
<g><path style="opacity:1" fill="#fe9712" d="M 32.5,32.5 C 32.5,33.5 32.5,34.5 32.5,35.5C 31.5,35.5 30.5,35.5 29.5,35.5C 29.5,34.5 29.5,33.5 29.5,32.5C 30.5,32.5 31.5,32.5 32.5,32.5 Z"/></g>
</svg>
