<?xml version="1.0" encoding="UTF-8"?>
<!DOCTYPE svg PUBLIC "-//W3C//DTD SVG 1.1//EN" "http://www.w3.org/Graphics/SVG/1.1/DTD/svg11.dtd">
<svg xmlns="http://www.w3.org/2000/svg" version="1.1" width="60px" height="108px" style="shape-rendering:geometricPrecision; text-rendering:geometricPrecision; image-rendering:optimizeQuality; fill-rule:evenodd; clip-rule:evenodd" xmlns:xlink="http://www.w3.org/1999/xlink">
<g><path style="opacity:1" fill="#5f1300" d="M 19.5,35.5 C 18.1667,35.5 16.8333,35.5 15.5,35.5C 15.5,38.1667 15.5,40.8333 15.5,43.5C 15.5,46.1667 15.5,48.8333 15.5,51.5C 14.1667,51.5 12.8333,51.5 11.5,51.5C 11.5,55.5 11.5,59.5 11.5,63.5C 10.1667,63.5 8.83333,63.5 7.5,63.5C 7.5,62.1667 7.5,60.8333 7.5,59.5C 6.16667,59.5 4.83333,59.5 3.5,59.5C 3.5,58.1667 3.5,56.8333 3.5,55.5C 4.83333,55.5 6.16667,55.5 7.5,55.5C 7.5,54.1667 7.5,52.8333 7.5,51.5C 6.16667,51.5 4.83333,51.5 3.5,51.5C 3.5,50.1667 3.5,48.8333 3.5,47.5C 6.16667,47.5 8.83333,47.5 11.5,47.5C 11.5,42.1667 11.5,36.8333 11.5,31.5C 14.1667,31.5 16.8333,31.5 19.5,31.5C 19.5,32.8333 19.5,34.1667 19.5,35.5 Z"/></g>
<g><path style="opacity:1" fill="#5f1300" d="M 47.5,63.5 C 47.5,59.5 47.5,55.5 47.5,51.5C 46.1667,51.5 44.8333,51.5 43.5,51.5C 43.5,48.8333 43.5,46.1667 43.5,43.5C 43.5,40.8333 43.5,38.1667 43.5,35.5C 42.1667,35.5 40.8333,35.5 39.5,35.5C 39.5,34.1667 39.5,32.8333 39.5,31.5C 42.1667,31.5 44.8333,31.5 47.5,31.5C 47.5,36.8333 47.5,42.1667 47.5,47.5C 50.1667,47.5 52.8333,47.5 55.5,47.5C 55.5,48.8333 55.5,50.1667 55.5,51.5C 54.1667,51.5 52.8333,51.5 51.5,51.5C 51.5,52.8333 51.5,54.1667 51.5,55.5C 52.8333,55.5 54.1667,55.5 55.5,55.5C 55.5,56.8333 55.5,58.1667 55.5,59.5C 54.1667,59.5 52.8333,59.5 51.5,59.5C 51.5,60.8333 51.5,62.1667 51.5,63.5C 50.1667,63.5 48.8333,63.5 47.5,63.5 Z"/></g>
<g><path style="opacity:1" fill="#fee17e" d="M 19.5,35.5 C 19.5,36.8333 19.5,38.1667 19.5,39.5C 19.5,40.8333 19.5,42.1667 19.5,43.5C 18.1667,43.5 16.8333,43.5 15.5,43.5C 15.5,40.8333 15.5,38.1667 15.5,35.5C 16.8333,35.5 18.1667,35.5 19.5,35.5 Z"/></g>
<g><path style="opacity:1" fill="#5f1300" d="M 19.5,35.5 C 20.8333,35.5 22.1667,35.5 23.5,35.5C 23.5,36.8333 23.5,38.1667 23.5,39.5C 22.1667,39.5 20.8333,39.5 19.5,39.5C 19.5,38.1667 19.5,36.8333 19.5,35.5 Z"/></g>
<g><path style="opacity:1" fill="#5f1300" d="M 39.5,35.5 C 39.5,36.8333 39.5,38.1667 39.5,39.5C 38.1667,39.5 36.8333,39.5 35.5,39.5C 35.5,38.1667 35.5,36.8333 35.5,35.5C 36.8333,35.5 38.1667,35.5 39.5,35.5 Z"/></g>
<g><path style="opacity:1" fill="#fee17e" d="M 39.5,35.5 C 40.8333,35.5 42.1667,35.5 43.5,35.5C 43.5,38.1667 43.5,40.8333 43.5,43.5C 42.1667,43.5 40.8333,43.5 39.5,43.5C 39.5,42.1667 39.5,40.8333 39.5,39.5C 39.5,38.1667 39.5,36.8333 39.5,35.5 Z"/></g>
<g><path style="opacity:1" fill="#d2472d" d="M 19.5,39.5 C 20.8333,39.5 22.1667,39.5 23.5,39.5C 23.5,40.8333 23.5,42.1667 23.5,43.5C 22.1667,43.5 20.8333,43.5 19.5,43.5C 19.5,42.1667 19.5,40.8333 19.5,39.5 Z"/></g>
<g><path style="opacity:1" fill="#5f1300" d="M 23.5,39.5 C 27.5,39.5 31.5,39.5 35.5,39.5C 35.5,40.8333 35.5,42.1667 35.5,43.5C 31.5,43.5 27.5,43.5 23.5,43.5C 23.5,42.1667 23.5,40.8333 23.5,39.5 Z"/></g>
<g><path style="opacity:1" fill="#d2472d" d="M 35.5,39.5 C 36.8333,39.5 38.1667,39.5 39.5,39.5C 39.5,40.8333 39.5,42.1667 39.5,43.5C 38.1667,43.5 36.8333,43.5 35.5,43.5C 35.5,42.1667 35.5,40.8333 35.5,39.5 Z"/></g>
<g><path style="opacity:1" fill="#fe921d" d="M 15.5,43.5 C 16.8333,43.5 18.1667,43.5 19.5,43.5C 20.8333,43.5 22.1667,43.5 23.5,43.5C 27.5,43.5 31.5,43.5 35.5,43.5C 36.8333,43.5 38.1667,43.5 39.5,43.5C 40.8333,43.5 42.1667,43.5 43.5,43.5C 43.5,46.1667 43.5,48.8333 43.5,51.5C 44.8333,51.5 46.1667,51.5 47.5,51.5C 47.5,55.5 47.5,59.5 47.5,63.5C 46.1667,63.5 44.8333,63.5 43.5,63.5C 43.5,64.8333 43.5,66.1667 43.5,67.5C 42.1667,67.5 40.8333,67.5 39.5,67.5C 39.5,64.8333 39.5,62.1667 39.5,59.5C 40.8333,59.5 42.1667,59.5 43.5,59.5C 43.5,58.1667 43.5,56.8333 43.5,55.5C 42.1667,55.5 40.8333,55.5 39.5,55.5C 39.5,54.1667 39.5,52.8333 39.5,51.5C 39.5,50.1667 39.5,48.8333 39.5,47.5C 38.1667,47.5 36.8333,47.5 35.5,47.5C 35.5,48.8333 35.5,50.1667 35.5,51.5C 35.5,54.1667 35.5,56.8333 35.5,59.5C 34.1667,59.5 32.8333,59.5 31.5,59.5C 31.5,58.1667 31.5,56.8333 31.5,55.5C 30.1667,55.5 28.8333,55.5 27.5,55.5C 27.5,56.8333 27.5,58.1667 27.5,59.5C 26.1667,59.5 24.8333,59.5 23.5,59.5C 23.5,56.8333 23.5,54.1667 23.5,51.5C 23.5,50.1667 23.5,48.8333 23.5,47.5C 22.1667,47.5 20.8333,47.5 19.5,47.5C 19.5,48.8333 19.5,50.1667 19.5,51.5C 19.5,52.8333 19.5,54.1667 19.5,55.5C 18.1667,55.5 16.8333,55.5 15.5,55.5C 15.5,56.8333 15.5,58.1667 15.5,59.5C 16.8333,59.5 18.1667,59.5 19.5,59.5C 19.5,62.1667 19.5,64.8333 19.5,67.5C 18.1667,67.5 16.8333,67.5 15.5,67.5C 15.5,66.1667 15.5,64.8333 15.5,63.5C 14.1667,63.5 12.8333,63.5 11.5,63.5C 11.5,59.5 11.5,55.5 11.5,51.5C 12.8333,51.5 14.1667,51.5 15.5,51.5C 15.5,48.8333 15.5,46.1667 15.5,43.5 Z"/></g>
<g><path style="opacity:1" fill="#d2472d" d="M 23.5,51.5 C 22.1667,51.5 20.8333,51.5 19.5,51.5C 19.5,50.1667 19.5,48.8333 19.5,47.5C 20.8333,47.5 22.1667,47.5 23.5,47.5C 23.5,48.8333 23.5,50.1667 23.5,51.5 Z"/></g>
<g><path style="opacity:1" fill="#d2472d" d="M 39.5,51.5 C 38.1667,51.5 36.8333,51.5 35.5,51.5C 35.5,50.1667 35.5,48.8333 35.5,47.5C 36.8333,47.5 38.1667,47.5 39.5,47.5C 39.5,48.8333 39.5,50.1667 39.5,51.5 Z"/></g>
<g><path style="opacity:1" fill="#5f1300" d="M 19.5,51.5 C 20.8333,51.5 22.1667,51.5 23.5,51.5C 23.5,54.1667 23.5,56.8333 23.5,59.5C 22.1667,59.5 20.8333,59.5 19.5,59.5C 19.5,58.1667 19.5,56.8333 19.5,55.5C 19.5,54.1667 19.5,52.8333 19.5,51.5 Z"/></g>
<g><path style="opacity:1" fill="#5f1300" d="M 35.5,51.5 C 36.8333,51.5 38.1667,51.5 39.5,51.5C 39.5,52.8333 39.5,54.1667 39.5,55.5C 39.5,56.8333 39.5,58.1667 39.5,59.5C 38.1667,59.5 36.8333,59.5 35.5,59.5C 35.5,56.8333 35.5,54.1667 35.5,51.5 Z"/></g>
<g><path style="opacity:1" fill="#d2472d" d="M 19.5,55.5 C 19.5,56.8333 19.5,58.1667 19.5,59.5C 18.1667,59.5 16.8333,59.5 15.5,59.5C 15.5,58.1667 15.5,56.8333 15.5,55.5C 16.8333,55.5 18.1667,55.5 19.5,55.5 Z"/></g>
<g><path style="opacity:1" fill="#d2472d" d="M 31.5,59.5 C 30.1667,59.5 28.8333,59.5 27.5,59.5C 27.5,58.1667 27.5,56.8333 27.5,55.5C 28.8333,55.5 30.1667,55.5 31.5,55.5C 31.5,56.8333 31.5,58.1667 31.5,59.5 Z"/></g>
<g><path style="opacity:1" fill="#d2472d" d="M 39.5,55.5 C 40.8333,55.5 42.1667,55.5 43.5,55.5C 43.5,56.8333 43.5,58.1667 43.5,59.5C 42.1667,59.5 40.8333,59.5 39.5,59.5C 39.5,58.1667 39.5,56.8333 39.5,55.5 Z"/></g>
<g><path style="opacity:1" fill="#fee17e" d="M 19.5,59.5 C 20.8333,59.5 22.1667,59.5 23.5,59.5C 24.8333,59.5 26.1667,59.5 27.5,59.5C 27.5,60.8333 27.5,62.1667 27.5,63.5C 26.1667,63.5 24.8333,63.5 23.5,63.5C 23.5,64.8333 23.5,66.1667 23.5,67.5C 22.1667,67.5 20.8333,67.5 19.5,67.5C 19.5,64.8333 19.5,62.1667 19.5,59.5 Z"/></g>
<g><path style="opacity:1" fill="#5f1300" d="M 27.5,59.5 C 28.8333,59.5 30.1667,59.5 31.5,59.5C 31.5,60.8333 31.5,62.1667 31.5,63.5C 30.1667,63.5 28.8333,63.5 27.5,63.5C 27.5,62.1667 27.5,60.8333 27.5,59.5 Z"/></g>
<g><path style="opacity:1" fill="#fee17e" d="M 31.5,59.5 C 32.8333,59.5 34.1667,59.5 35.5,59.5C 36.8333,59.5 38.1667,59.5 39.5,59.5C 39.5,62.1667 39.5,64.8333 39.5,67.5C 38.1667,67.5 36.8333,67.5 35.5,67.5C 35.5,66.1667 35.5,64.8333 35.5,63.5C 34.1667,63.5 32.8333,63.5 31.5,63.5C 31.5,62.1667 31.5,60.8333 31.5,59.5 Z"/></g>
<g><path style="opacity:1" fill="#5f1300" d="M 11.5,63.5 C 12.8333,63.5 14.1667,63.5 15.5,63.5C 15.5,64.8333 15.5,66.1667 15.5,67.5C 14.1667,67.5 12.8333,67.5 11.5,67.5C 11.5,66.1667 11.5,64.8333 11.5,63.5 Z"/></g>
<g><path style="opacity:1" fill="#5f1300" d="M 27.5,63.5 C 27.5,64.8333 27.5,66.1667 27.5,67.5C 28.8333,67.5 30.1667,67.5 31.5,67.5C 31.5,66.1667 31.5,64.8333 31.5,63.5C 32.8333,63.5 34.1667,63.5 35.5,63.5C 35.5,64.8333 35.5,66.1667 35.5,67.5C 36.8333,67.5 38.1667,67.5 39.5,67.5C 40.8333,67.5 42.1667,67.5 43.5,67.5C 43.5,66.1667 43.5,64.8333 43.5,63.5C 44.8333,63.5 46.1667,63.5 47.5,63.5C 47.5,68.8333 47.5,74.1667 47.5,79.5C 46.1667,79.5 44.8333,79.5 43.5,79.5C 43.5,82.1667 43.5,84.8333 43.5,87.5C 43.5,88.8333 43.5,90.1667 43.5,91.5C 44.8333,91.5 46.1667,91.5 47.5,91.5C 47.5,92.8333 47.5,94.1667 47.5,95.5C 46.1667,95.5 44.8333,95.5 43.5,95.5C 43.5,96.8333 43.5,98.1667 43.5,99.5C 42.1667,99.5 40.8333,99.5 39.5,99.5C 39.5,98.1667 39.5,96.8333 39.5,95.5C 39.5,88.8333 39.5,82.1667 39.5,75.5C 39.5,74.1667 39.5,72.8333 39.5,71.5C 36.8333,71.5 34.1667,71.5 31.5,71.5C 30.1667,71.5 28.8333,71.5 27.5,71.5C 24.8333,71.5 22.1667,71.5 19.5,71.5C 19.5,72.8333 19.5,74.1667 19.5,75.5C 19.5,82.1667 19.5,88.8333 19.5,95.5C 19.5,96.8333 19.5,98.1667 19.5,99.5C 18.1667,99.5 16.8333,99.5 15.5,99.5C 15.5,98.1667 15.5,96.8333 15.5,95.5C 14.1667,95.5 12.8333,95.5 11.5,95.5C 11.5,94.1667 11.5,92.8333 11.5,91.5C 12.8333,91.5 14.1667,91.5 15.5,91.5C 15.5,90.1667 15.5,88.8333 15.5,87.5C 15.5,84.8333 15.5,82.1667 15.5,79.5C 14.1667,79.5 12.8333,79.5 11.5,79.5C 11.5,76.8333 11.5,74.1667 11.5,71.5C 12.8333,71.5 14.1667,71.5 15.5,71.5C 15.5,70.1667 15.5,68.8333 15.5,67.5C 16.8333,67.5 18.1667,67.5 19.5,67.5C 20.8333,67.5 22.1667,67.5 23.5,67.5C 23.5,66.1667 23.5,64.8333 23.5,63.5C 24.8333,63.5 26.1667,63.5 27.5,63.5 Z"/></g>
<g><path style="opacity:1" fill="#d2472d" d="M 27.5,63.5 C 28.8333,63.5 30.1667,63.5 31.5,63.5C 31.5,64.8333 31.5,66.1667 31.5,67.5C 30.1667,67.5 28.8333,67.5 27.5,67.5C 27.5,66.1667 27.5,64.8333 27.5,63.5 Z"/></g>
<g><path style="opacity:1" fill="#d2472d" d="M 27.5,71.5 C 27.5,72.8333 27.5,74.1667 27.5,75.5C 26.1667,75.5 24.8333,75.5 23.5,75.5C 22.1667,75.5 20.8333,75.5 19.5,75.5C 19.5,74.1667 19.5,72.8333 19.5,71.5C 22.1667,71.5 24.8333,71.5 27.5,71.5 Z"/></g>
<g><path style="opacity:1" fill="#fe921d" d="M 27.5,71.5 C 28.8333,71.5 30.1667,71.5 31.5,71.5C 31.5,72.8333 31.5,74.1667 31.5,75.5C 30.1667,75.5 28.8333,75.5 27.5,75.5C 27.5,74.1667 27.5,72.8333 27.5,71.5 Z"/></g>
<g><path style="opacity:1" fill="#d2472d" d="M 31.5,71.5 C 34.1667,71.5 36.8333,71.5 39.5,71.5C 39.5,72.8333 39.5,74.1667 39.5,75.5C 38.1667,75.5 36.8333,75.5 35.5,75.5C 34.1667,75.5 32.8333,75.5 31.5,75.5C 31.5,74.1667 31.5,72.8333 31.5,71.5 Z"/></g>
<g><path style="opacity:1" fill="#fe921d" d="M 19.5,75.5 C 20.8333,75.5 22.1667,75.5 23.5,75.5C 23.5,76.8333 23.5,78.1667 23.5,79.5C 24.8333,79.5 26.1667,79.5 27.5,79.5C 27.5,80.8333 27.5,82.1667 27.5,83.5C 26.1667,83.5 24.8333,83.5 23.5,83.5C 23.5,87.5 23.5,91.5 23.5,95.5C 22.1667,95.5 20.8333,95.5 19.5,95.5C 19.5,88.8333 19.5,82.1667 19.5,75.5 Z"/></g>
<g><path style="opacity:1" fill="#fee17e" d="M 23.5,75.5 C 24.8333,75.5 26.1667,75.5 27.5,75.5C 28.8333,75.5 30.1667,75.5 31.5,75.5C 32.8333,75.5 34.1667,75.5 35.5,75.5C 35.5,76.8333 35.5,78.1667 35.5,79.5C 34.1667,79.5 32.8333,79.5 31.5,79.5C 31.5,80.8333 31.5,82.1667 31.5,83.5C 30.1667,83.5 28.8333,83.5 27.5,83.5C 27.5,82.1667 27.5,80.8333 27.5,79.5C 26.1667,79.5 24.8333,79.5 23.5,79.5C 23.5,78.1667 23.5,76.8333 23.5,75.5 Z"/></g>
<g><path style="opacity:1" fill="#fe921d" d="M 35.5,75.5 C 36.8333,75.5 38.1667,75.5 39.5,75.5C 39.5,82.1667 39.5,88.8333 39.5,95.5C 38.1667,95.5 36.8333,95.5 35.5,95.5C 35.5,91.5 35.5,87.5 35.5,83.5C 34.1667,83.5 32.8333,83.5 31.5,83.5C 31.5,82.1667 31.5,80.8333 31.5,79.5C 32.8333,79.5 34.1667,79.5 35.5,79.5C 35.5,78.1667 35.5,76.8333 35.5,75.5 Z"/></g>
<g><path style="opacity:1" fill="#5f1300" d="M 11.5,79.5 C 11.5,82.1667 11.5,84.8333 11.5,87.5C 11.5,88.8333 11.5,90.1667 11.5,91.5C 10.1667,91.5 8.83333,91.5 7.5,91.5C 7.5,88.8333 7.5,86.1667 7.5,83.5C 7.5,82.1667 7.5,80.8333 7.5,79.5C 8.83333,79.5 10.1667,79.5 11.5,79.5 Z"/></g>
<g><path style="opacity:1" fill="#fe921d" d="M 11.5,79.5 C 12.8333,79.5 14.1667,79.5 15.5,79.5C 15.5,82.1667 15.5,84.8333 15.5,87.5C 14.1667,87.5 12.8333,87.5 11.5,87.5C 11.5,84.8333 11.5,82.1667 11.5,79.5 Z"/></g>
<g><path style="opacity:1" fill="#fe921d" d="M 47.5,79.5 C 47.5,82.1667 47.5,84.8333 47.5,87.5C 46.1667,87.5 44.8333,87.5 43.5,87.5C 43.5,84.8333 43.5,82.1667 43.5,79.5C 44.8333,79.5 46.1667,79.5 47.5,79.5 Z"/></g>
<g><path style="opacity:1" fill="#5f1300" d="M 47.5,79.5 C 48.8333,79.5 50.1667,79.5 51.5,79.5C 51.5,80.8333 51.5,82.1667 51.5,83.5C 51.5,86.1667 51.5,88.8333 51.5,91.5C 50.1667,91.5 48.8333,91.5 47.5,91.5C 47.5,90.1667 47.5,88.8333 47.5,87.5C 47.5,84.8333 47.5,82.1667 47.5,79.5 Z"/></g>
<g><path style="opacity:0.427" fill="#000000" d="M 7.5,83.5 C 7.5,86.1667 7.5,88.8333 7.5,91.5C 8.83333,91.5 10.1667,91.5 11.5,91.5C 11.5,92.8333 11.5,94.1667 11.5,95.5C 12.8333,95.5 14.1667,95.5 15.5,95.5C 15.5,96.8333 15.5,98.1667 15.5,99.5C 16.8333,99.5 18.1667,99.5 19.5,99.5C 19.5,100.833 19.5,102.167 19.5,103.5C 22.1667,103.5 24.8333,103.5 27.5,103.5C 27.5,100.833 27.5,98.1667 27.5,95.5C 28.8333,95.5 30.1667,95.5 31.5,95.5C 31.5,98.1667 31.5,100.833 31.5,103.5C 34.1667,103.5 36.8333,103.5 39.5,103.5C 39.5,102.167 39.5,100.833 39.5,99.5C 40.8333,99.5 42.1667,99.5 43.5,99.5C 43.5,98.1667 43.5,96.8333 43.5,95.5C 44.8333,95.5 46.1667,95.5 47.5,95.5C 47.5,94.1667 47.5,92.8333 47.5,91.5C 48.8333,91.5 50.1667,91.5 51.5,91.5C 51.5,88.8333 51.5,86.1667 51.5,83.5C 52.8333,83.5 54.1667,83.5 55.5,83.5C 55.5,84.8333 55.5,86.1667 55.5,87.5C 56.8333,87.5 58.1667,87.5 59.5,87.5C 59.5,90.1667 59.5,92.8333 59.5,95.5C 58.1667,95.5 56.8333,95.5 55.5,95.5C 55.5,96.8333 55.5,98.1667 55.5,99.5C 54.1667,99.5 52.8333,99.5 51.5,99.5C 51.5,100.833 51.5,102.167 51.5,103.5C 48.8333,103.5 46.1667,103.5 43.5,103.5C 43.5,104.833 43.5,106.167 43.5,107.5C 34.1667,107.5 24.8333,107.5 15.5,107.5C 15.5,106.167 15.5,104.833 15.5,103.5C 12.8333,103.5 10.1667,103.5 7.5,103.5C 7.5,102.167 7.5,100.833 7.5,99.5C 6.16667,99.5 4.83333,99.5 3.5,99.5C 3.5,98.1667 3.5,96.8333 3.5,95.5C 2.16667,95.5 0.833333,95.5 -0.5,95.5C -0.5,92.8333 -0.5,90.1667 -0.5,87.5C 0.833333,87.5 2.16667,87.5 3.5,87.5C 3.5,86.1667 3.5,84.8333 3.5,83.5C 4.83333,83.5 6.16667,83.5 7.5,83.5 Z"/></g>
<g><path style="opacity:1" fill="#5f1300" d="M 27.5,83.5 C 27.5,84.8333 27.5,86.1667 27.5,87.5C 27.5,88.8333 27.5,90.1667 27.5,91.5C 28.8333,91.5 30.1667,91.5 31.5,91.5C 31.5,90.1667 31.5,88.8333 31.5,87.5C 31.5,86.1667 31.5,84.8333 31.5,83.5C 32.8333,83.5 34.1667,83.5 35.5,83.5C 35.5,87.5 35.5,91.5 35.5,95.5C 35.5,96.8333 35.5,98.1667 35.5,99.5C 36.8333,99.5 38.1667,99.5 39.5,99.5C 39.5,100.833 39.5,102.167 39.5,103.5C 36.8333,103.5 34.1667,103.5 31.5,103.5C 31.5,100.833 31.5,98.1667 31.5,95.5C 30.1667,95.5 28.8333,95.5 27.5,95.5C 27.5,98.1667 27.5,100.833 27.5,103.5C 24.8333,103.5 22.1667,103.5 19.5,103.5C 19.5,102.167 19.5,100.833 19.5,99.5C 20.8333,99.5 22.1667,99.5 23.5,99.5C 23.5,98.1667 23.5,96.8333 23.5,95.5C 23.5,91.5 23.5,87.5 23.5,83.5C 24.8333,83.5 26.1667,83.5 27.5,83.5 Z"/></g>
<g><path style="opacity:1" fill="#fe921d" d="M 27.5,83.5 C 28.8333,83.5 30.1667,83.5 31.5,83.5C 31.5,84.8333 31.5,86.1667 31.5,87.5C 30.1667,87.5 28.8333,87.5 27.5,87.5C 27.5,86.1667 27.5,84.8333 27.5,83.5 Z"/></g>
<g><path style="opacity:1" fill="#d2472d" d="M 11.5,87.5 C 12.8333,87.5 14.1667,87.5 15.5,87.5C 15.5,88.8333 15.5,90.1667 15.5,91.5C 14.1667,91.5 12.8333,91.5 11.5,91.5C 11.5,90.1667 11.5,88.8333 11.5,87.5 Z"/></g>
<g><path style="opacity:1" fill="#d2472d" d="M 27.5,87.5 C 28.8333,87.5 30.1667,87.5 31.5,87.5C 31.5,88.8333 31.5,90.1667 31.5,91.5C 30.1667,91.5 28.8333,91.5 27.5,91.5C 27.5,90.1667 27.5,88.8333 27.5,87.5 Z"/></g>
<g><path style="opacity:1" fill="#d2472d" d="M 43.5,87.5 C 44.8333,87.5 46.1667,87.5 47.5,87.5C 47.5,88.8333 47.5,90.1667 47.5,91.5C 46.1667,91.5 44.8333,91.5 43.5,91.5C 43.5,90.1667 43.5,88.8333 43.5,87.5 Z"/></g>
<g><path style="opacity:1" fill="#fee17e" d="M 19.5,95.5 C 20.8333,95.5 22.1667,95.5 23.5,95.5C 23.5,96.8333 23.5,98.1667 23.5,99.5C 22.1667,99.5 20.8333,99.5 19.5,99.5C 19.5,98.1667 19.5,96.8333 19.5,95.5 Z"/></g>
<g><path style="opacity:1" fill="#fee17e" d="M 35.5,95.5 C 36.8333,95.5 38.1667,95.5 39.5,95.5C 39.5,96.8333 39.5,98.1667 39.5,99.5C 38.1667,99.5 36.8333,99.5 35.5,99.5C 35.5,98.1667 35.5,96.8333 35.5,95.5 Z"/></g>
</svg>
