<?xml version="1.0" encoding="UTF-8"?>
<!DOCTYPE svg PUBLIC "-//W3C//DTD SVG 1.1//EN" "http://www.w3.org/Graphics/SVG/1.1/DTD/svg11.dtd">
<svg xmlns="http://www.w3.org/2000/svg" version="1.1" width="48px" height="48px" style="shape-rendering:geometricPrecision; text-rendering:geometricPrecision; image-rendering:optimizeQuality; fill-rule:evenodd; clip-rule:evenodd" xmlns:xlink="http://www.w3.org/1999/xlink">
<g><path style="opacity:1" fill="#581f00" d="M 40.5,17.5 C 38.5,17.5 36.5,17.5 34.5,17.5C 34.5,16.5 34.5,15.5 34.5,14.5C 32.5,14.5 30.5,14.5 28.5,14.5C 28.5,13.5 28.5,12.5 28.5,11.5C 27.5,11.5 26.5,11.5 25.5,11.5C 24.5,11.5 23.5,11.5 22.5,11.5C 22.5,12.5 22.5,13.5 22.5,14.5C 21.5,14.5 20.5,14.5 19.5,14.5C 19.5,15.5 19.5,16.5 19.5,17.5C 18.5,17.5 17.5,17.5 16.5,17.5C 16.5,18.5 16.5,19.5 16.5,20.5C 15.5,20.5 14.5,20.5 13.5,20.5C 13.5,19.5 13.5,18.5 13.5,17.5C 12.5,17.5 11.5,17.5 10.5,17.5C 10.5,16.5 10.5,15.5 10.5,14.5C 11.5,14.5 12.5,14.5 13.5,14.5C 13.5,13.5 13.5,12.5 13.5,11.5C 15.5,11.5 17.5,11.5 19.5,11.5C 19.5,10.5 19.5,9.5 19.5,8.5C 23.5,8.5 27.5,8.5 31.5,8.5C 31.5,9.5 31.5,10.5 31.5,11.5C 33.5,11.5 35.5,11.5 37.5,11.5C 37.5,12.5 37.5,13.5 37.5,14.5C 38.5,14.5 39.5,14.5 40.5,14.5C 40.5,15.5 40.5,16.5 40.5,17.5 Z"/></g>
<g><path style="opacity:1" fill="#6a2f00" d="M 25.5,11.5 C 25.5,13.5 25.5,15.5 25.5,17.5C 24.5,17.5 23.5,17.5 22.5,17.5C 22.5,19.5 22.5,21.5 22.5,23.5C 21.5,23.5 20.5,23.5 19.5,23.5C 19.5,22.5 19.5,21.5 19.5,20.5C 18.5,20.5 17.5,20.5 16.5,20.5C 16.5,19.5 16.5,18.5 16.5,17.5C 17.5,17.5 18.5,17.5 19.5,17.5C 19.5,16.5 19.5,15.5 19.5,14.5C 20.5,14.5 21.5,14.5 22.5,14.5C 22.5,13.5 22.5,12.5 22.5,11.5C 23.5,11.5 24.5,11.5 25.5,11.5 Z"/></g>
<g><path style="opacity:1" fill="#954a03" d="M 25.5,11.5 C 26.5,11.5 27.5,11.5 28.5,11.5C 28.5,12.5 28.5,13.5 28.5,14.5C 30.5,14.5 32.5,14.5 34.5,14.5C 34.5,15.5 34.5,16.5 34.5,17.5C 36.5,17.5 38.5,17.5 40.5,17.5C 40.5,18.5 40.5,19.5 40.5,20.5C 39.5,20.5 38.5,20.5 37.5,20.5C 35.5,20.5 33.5,20.5 31.5,20.5C 31.5,21.5 31.5,22.5 31.5,23.5C 28.5,23.5 25.5,23.5 22.5,23.5C 22.5,21.5 22.5,19.5 22.5,17.5C 23.5,17.5 24.5,17.5 25.5,17.5C 25.5,15.5 25.5,13.5 25.5,11.5 Z"/></g>
<g><path style="opacity:1" fill="#3d0800" d="M 10.5,17.5 C 10.5,19.5 10.5,21.5 10.5,23.5C 10.5,24.5 10.5,25.5 10.5,26.5C 9.5,26.5 8.5,26.5 7.5,26.5C 7.5,23.5 7.5,20.5 7.5,17.5C 8.5,17.5 9.5,17.5 10.5,17.5 Z"/></g>
<g><path style="opacity:1" fill="#894302" d="M 10.5,17.5 C 11.5,17.5 12.5,17.5 13.5,17.5C 13.5,18.5 13.5,19.5 13.5,20.5C 14.5,20.5 15.5,20.5 16.5,20.5C 17.5,20.5 18.5,20.5 19.5,20.5C 19.5,21.5 19.5,22.5 19.5,23.5C 16.5,23.5 13.5,23.5 10.5,23.5C 10.5,21.5 10.5,19.5 10.5,17.5 Z"/></g>
<g><path style="opacity:1" fill="#be630b" d="M 37.5,20.5 C 37.5,21.5 37.5,22.5 37.5,23.5C 35.5,23.5 33.5,23.5 31.5,23.5C 31.5,22.5 31.5,21.5 31.5,20.5C 33.5,20.5 35.5,20.5 37.5,20.5 Z"/></g>
<g><path style="opacity:1" fill="#430d00" d="M 40.5,17.5 C 41.5,17.5 42.5,17.5 43.5,17.5C 43.5,20.5 43.5,23.5 43.5,26.5C 42.5,26.5 41.5,26.5 40.5,26.5C 40.5,24.5 40.5,22.5 40.5,20.5C 40.5,19.5 40.5,18.5 40.5,17.5 Z"/></g>
<g><path style="opacity:1" fill="#3d0800" d="M 10.5,26.5 C 12.5,26.5 14.5,26.5 16.5,26.5C 16.5,27.5 16.5,28.5 16.5,29.5C 14.5,29.5 12.5,29.5 10.5,29.5C 10.5,28.5 10.5,27.5 10.5,26.5 Z"/></g>
<g><path style="opacity:1" fill="#592000" d="M 37.5,20.5 C 38.5,20.5 39.5,20.5 40.5,20.5C 40.5,22.5 40.5,24.5 40.5,26.5C 38.5,26.5 36.5,26.5 34.5,26.5C 34.5,27.5 34.5,28.5 34.5,29.5C 28.5,29.5 22.5,29.5 16.5,29.5C 16.5,28.5 16.5,27.5 16.5,26.5C 14.5,26.5 12.5,26.5 10.5,26.5C 10.5,25.5 10.5,24.5 10.5,23.5C 13.5,23.5 16.5,23.5 19.5,23.5C 19.5,24.5 19.5,25.5 19.5,26.5C 23.5,26.5 27.5,26.5 31.5,26.5C 31.5,25.5 31.5,24.5 31.5,23.5C 33.5,23.5 35.5,23.5 37.5,23.5C 37.5,22.5 37.5,21.5 37.5,20.5 Z"/></g>
<g><path style="opacity:1" fill="#c8680d" d="M 19.5,23.5 C 20.5,23.5 21.5,23.5 22.5,23.5C 25.5,23.5 28.5,23.5 31.5,23.5C 31.5,24.5 31.5,25.5 31.5,26.5C 27.5,26.5 23.5,26.5 19.5,26.5C 19.5,25.5 19.5,24.5 19.5,23.5 Z"/></g>
<g><path style="opacity:1" fill="#3d0800" d="M 40.5,26.5 C 40.5,27.5 40.5,28.5 40.5,29.5C 38.5,29.5 36.5,29.5 34.5,29.5C 34.5,28.5 34.5,27.5 34.5,26.5C 36.5,26.5 38.5,26.5 40.5,26.5 Z"/></g>
<g><path style="opacity:1" fill="#3d0800" d="M 16.5,29.5 C 22.5,29.5 28.5,29.5 34.5,29.5C 34.5,30.5 34.5,31.5 34.5,32.5C 33.5,32.5 32.5,32.5 31.5,32.5C 31.5,35.5 31.5,38.5 31.5,41.5C 30.5,41.5 29.5,41.5 28.5,41.5C 28.5,40.5 28.5,39.5 28.5,38.5C 28.5,36.5 28.5,34.5 28.5,32.5C 26.5,32.5 24.5,32.5 22.5,32.5C 22.5,34.5 22.5,36.5 22.5,38.5C 22.5,39.5 22.5,40.5 22.5,41.5C 21.5,41.5 20.5,41.5 19.5,41.5C 19.5,38.5 19.5,35.5 19.5,32.5C 18.5,32.5 17.5,32.5 16.5,32.5C 16.5,31.5 16.5,30.5 16.5,29.5 Z"/></g>
<g><path style="opacity:1" fill="#723401" d="M 28.5,38.5 C 26.5,38.5 24.5,38.5 22.5,38.5C 22.5,36.5 22.5,34.5 22.5,32.5C 24.5,32.5 26.5,32.5 28.5,32.5C 28.5,34.5 28.5,36.5 28.5,38.5 Z"/></g>
<g><path style="opacity:1" fill="#551e00" d="M 22.5,38.5 C 24.5,38.5 26.5,38.5 28.5,38.5C 28.5,39.5 28.5,40.5 28.5,41.5C 26.5,41.5 24.5,41.5 22.5,41.5C 22.5,40.5 22.5,39.5 22.5,38.5 Z"/></g>
<g><path style="opacity:1" fill="#3d0800" d="M 22.5,41.5 C 24.5,41.5 26.5,41.5 28.5,41.5C 28.5,42.5 28.5,43.5 28.5,44.5C 26.5,44.5 24.5,44.5 22.5,44.5C 22.5,43.5 22.5,42.5 22.5,41.5 Z"/></g>
</svg>
