<?xml version="1.0" encoding="UTF-8"?>
<!DOCTYPE svg PUBLIC "-//W3C//DTD SVG 1.1//EN" "http://www.w3.org/Graphics/SVG/1.1/DTD/svg11.dtd">
<svg xmlns="http://www.w3.org/2000/svg" version="1.1" width="48px" height="48px" style="shape-rendering:geometricPrecision; text-rendering:geometricPrecision; image-rendering:optimizeQuality; fill-rule:evenodd; clip-rule:evenodd" xmlns:xlink="http://www.w3.org/1999/xlink">
<g><path style="opacity:1" fill="#9d670e" d="M 37.5,8.5 C 34.5,8.5 31.5,8.5 28.5,8.5C 28.5,7.5 28.5,6.5 28.5,5.5C 31.5,5.5 34.5,5.5 37.5,5.5C 37.5,6.5 37.5,7.5 37.5,8.5 Z"/></g>
<g><path style="opacity:1" fill="#9d670e" d="M 28.5,8.5 C 28.5,9.5 28.5,10.5 28.5,11.5C 27.5,11.5 26.5,11.5 25.5,11.5C 25.5,10.5 25.5,9.5 25.5,8.5C 26.5,8.5 27.5,8.5 28.5,8.5 Z"/></g>
<g><path style="opacity:1" fill="#f1d95f" d="M 28.5,8.5 C 31.5,8.5 34.5,8.5 37.5,8.5C 37.5,10.5 37.5,12.5 37.5,14.5C 37.5,15.5 37.5,16.5 37.5,17.5C 36.5,17.5 35.5,17.5 34.5,17.5C 34.5,16.5 34.5,15.5 34.5,14.5C 33.5,14.5 32.5,14.5 31.5,14.5C 31.5,13.5 31.5,12.5 31.5,11.5C 30.5,11.5 29.5,11.5 28.5,11.5C 28.5,10.5 28.5,9.5 28.5,8.5 Z"/></g>
<g><path style="opacity:1" fill="#9d670e" d="M 37.5,8.5 C 38.5,8.5 39.5,8.5 40.5,8.5C 40.5,10.5 40.5,12.5 40.5,14.5C 39.5,14.5 38.5,14.5 37.5,14.5C 37.5,12.5 37.5,10.5 37.5,8.5 Z"/></g>
<g><path style="opacity:1" fill="#165800" d="M 13.5,14.5 C 11.5,14.5 9.5,14.5 7.5,14.5C 7.5,13.5 7.5,12.5 7.5,11.5C 9.5,11.5 11.5,11.5 13.5,11.5C 13.5,12.5 13.5,13.5 13.5,14.5 Z"/></g>
<g><path style="opacity:1" fill="#9d670e" d="M 25.5,11.5 C 25.5,12.5 25.5,13.5 25.5,14.5C 24.5,14.5 23.5,14.5 22.5,14.5C 22.5,13.5 22.5,12.5 22.5,11.5C 23.5,11.5 24.5,11.5 25.5,11.5 Z"/></g>
<g><path style="opacity:1" fill="#feff13" d="M 28.5,11.5 C 29.5,11.5 30.5,11.5 31.5,11.5C 31.5,12.5 31.5,13.5 31.5,14.5C 30.5,14.5 29.5,14.5 28.5,14.5C 28.5,13.5 28.5,12.5 28.5,11.5 Z"/></g>
<g><path style="opacity:1" fill="#165800" d="M 7.5,14.5 C 7.5,15.5 7.5,16.5 7.5,17.5C 7.5,18.5 7.5,19.5 7.5,20.5C 6.5,20.5 5.5,20.5 4.5,20.5C 4.5,18.5 4.5,16.5 4.5,14.5C 5.5,14.5 6.5,14.5 7.5,14.5 Z"/></g>
<g><path style="opacity:1" fill="#2ea701" d="M 7.5,14.5 C 9.5,14.5 11.5,14.5 13.5,14.5C 13.5,15.5 13.5,16.5 13.5,17.5C 13.5,18.5 13.5,19.5 13.5,20.5C 12.5,20.5 11.5,20.5 10.5,20.5C 10.5,19.5 10.5,18.5 10.5,17.5C 9.5,17.5 8.5,17.5 7.5,17.5C 7.5,16.5 7.5,15.5 7.5,14.5 Z"/></g>
<g><path style="opacity:1" fill="#165800" d="M 13.5,14.5 C 14.5,14.5 15.5,14.5 16.5,14.5C 16.5,15.5 16.5,16.5 16.5,17.5C 15.5,17.5 14.5,17.5 13.5,17.5C 13.5,16.5 13.5,15.5 13.5,14.5 Z"/></g>
<g><path style="opacity:1" fill="#9d670e" d="M 22.5,14.5 C 22.5,15.5 22.5,16.5 22.5,17.5C 21.5,17.5 20.5,17.5 19.5,17.5C 19.5,16.5 19.5,15.5 19.5,14.5C 20.5,14.5 21.5,14.5 22.5,14.5 Z"/></g>
<g><path style="opacity:1" fill="#eed356" d="M 25.5,11.5 C 26.5,11.5 27.5,11.5 28.5,11.5C 28.5,12.5 28.5,13.5 28.5,14.5C 29.5,14.5 30.5,14.5 31.5,14.5C 31.5,15.5 31.5,16.5 31.5,17.5C 30.5,17.5 29.5,17.5 28.5,17.5C 28.5,18.5 28.5,19.5 28.5,20.5C 27.5,20.5 26.5,20.5 25.5,20.5C 25.5,19.5 25.5,18.5 25.5,17.5C 24.5,17.5 23.5,17.5 22.5,17.5C 22.5,16.5 22.5,15.5 22.5,14.5C 23.5,14.5 24.5,14.5 25.5,14.5C 25.5,13.5 25.5,12.5 25.5,11.5 Z"/></g>
<g><path style="opacity:1" fill="#feff13" d="M 31.5,14.5 C 32.5,14.5 33.5,14.5 34.5,14.5C 34.5,15.5 34.5,16.5 34.5,17.5C 33.5,17.5 32.5,17.5 31.5,17.5C 31.5,16.5 31.5,15.5 31.5,14.5 Z"/></g>
<g><path style="opacity:1" fill="#145300" d="M 37.5,14.5 C 38.5,14.5 39.5,14.5 40.5,14.5C 42.5,14.5 44.5,14.5 46.5,14.5C 46.5,15.5 46.5,16.5 46.5,17.5C 45.5,17.5 44.5,17.5 43.5,17.5C 43.5,19.5 43.5,21.5 43.5,23.5C 42.5,23.5 41.5,23.5 40.5,23.5C 40.5,21.5 40.5,19.5 40.5,17.5C 39.5,17.5 38.5,17.5 37.5,17.5C 37.5,16.5 37.5,15.5 37.5,14.5 Z"/></g>
<g><path style="opacity:1" fill="#4ee512" d="M 13.5,17.5 C 14.5,17.5 15.5,17.5 16.5,17.5C 16.5,19.5 16.5,21.5 16.5,23.5C 17.5,23.5 18.5,23.5 19.5,23.5C 19.5,24.5 19.5,25.5 19.5,26.5C 19.5,27.5 19.5,28.5 19.5,29.5C 20.5,29.5 21.5,29.5 22.5,29.5C 22.5,30.5 22.5,31.5 22.5,32.5C 20.5,32.5 18.5,32.5 16.5,32.5C 16.5,31.5 16.5,30.5 16.5,29.5C 15.5,29.5 14.5,29.5 13.5,29.5C 13.5,26.5 13.5,23.5 13.5,20.5C 13.5,19.5 13.5,18.5 13.5,17.5 Z"/></g>
<g><path style="opacity:1" fill="#165800" d="M 16.5,17.5 C 17.5,17.5 18.5,17.5 19.5,17.5C 19.5,18.5 19.5,19.5 19.5,20.5C 19.5,21.5 19.5,22.5 19.5,23.5C 18.5,23.5 17.5,23.5 16.5,23.5C 16.5,21.5 16.5,19.5 16.5,17.5 Z"/></g>
<g><path style="opacity:1" fill="#e4be31" d="M 19.5,17.5 C 20.5,17.5 21.5,17.5 22.5,17.5C 22.5,18.5 22.5,19.5 22.5,20.5C 21.5,20.5 20.5,20.5 19.5,20.5C 19.5,19.5 19.5,18.5 19.5,17.5 Z"/></g>
<g><path style="opacity:1" fill="#feff13" d="M 22.5,17.5 C 23.5,17.5 24.5,17.5 25.5,17.5C 25.5,18.5 25.5,19.5 25.5,20.5C 24.5,20.5 23.5,20.5 22.5,20.5C 22.5,19.5 22.5,18.5 22.5,17.5 Z"/></g>
<g><path style="opacity:1" fill="#feff13" d="M 31.5,17.5 C 31.5,18.5 31.5,19.5 31.5,20.5C 30.5,20.5 29.5,20.5 28.5,20.5C 28.5,19.5 28.5,18.5 28.5,17.5C 29.5,17.5 30.5,17.5 31.5,17.5 Z"/></g>
<g><path style="opacity:1" fill="#165800" d="M 31.5,17.5 C 32.5,17.5 33.5,17.5 34.5,17.5C 35.5,17.5 36.5,17.5 37.5,17.5C 37.5,18.5 37.5,19.5 37.5,20.5C 35.5,20.5 33.5,20.5 31.5,20.5C 31.5,19.5 31.5,18.5 31.5,17.5 Z"/></g>
<g><path style="opacity:1" fill="#feff13" d="M 19.5,20.5 C 20.5,20.5 21.5,20.5 22.5,20.5C 22.5,21.5 22.5,22.5 22.5,23.5C 21.5,23.5 20.5,23.5 19.5,23.5C 19.5,22.5 19.5,21.5 19.5,20.5 Z"/></g>
<g><path style="opacity:1" fill="#e4be31" d="M 22.5,20.5 C 23.5,20.5 24.5,20.5 25.5,20.5C 25.5,21.5 25.5,22.5 25.5,23.5C 24.5,23.5 23.5,23.5 22.5,23.5C 22.5,22.5 22.5,21.5 22.5,20.5 Z"/></g>
<g><path style="opacity:1" fill="#feff13" d="M 25.5,20.5 C 26.5,20.5 27.5,20.5 28.5,20.5C 28.5,21.5 28.5,22.5 28.5,23.5C 27.5,23.5 26.5,23.5 25.5,23.5C 25.5,22.5 25.5,21.5 25.5,20.5 Z"/></g>
<g><path style="opacity:1" fill="#165800" d="M 28.5,20.5 C 29.5,20.5 30.5,20.5 31.5,20.5C 31.5,21.5 31.5,22.5 31.5,23.5C 30.5,23.5 29.5,23.5 28.5,23.5C 28.5,22.5 28.5,21.5 28.5,20.5 Z"/></g>
<g><path style="opacity:1" fill="#48d70b" d="M 31.5,20.5 C 33.5,20.5 35.5,20.5 37.5,20.5C 37.5,21.5 37.5,22.5 37.5,23.5C 35.5,23.5 33.5,23.5 31.5,23.5C 31.5,22.5 31.5,21.5 31.5,20.5 Z"/></g>
<g><path style="opacity:1" fill="#168700" d="M 37.5,17.5 C 38.5,17.5 39.5,17.5 40.5,17.5C 40.5,19.5 40.5,21.5 40.5,23.5C 39.5,23.5 38.5,23.5 37.5,23.5C 37.5,22.5 37.5,21.5 37.5,20.5C 37.5,19.5 37.5,18.5 37.5,17.5 Z"/></g>
<g><path style="opacity:1" fill="#e4be31" d="M 19.5,23.5 C 20.5,23.5 21.5,23.5 22.5,23.5C 22.5,24.5 22.5,25.5 22.5,26.5C 21.5,26.5 20.5,26.5 19.5,26.5C 19.5,25.5 19.5,24.5 19.5,23.5 Z"/></g>
<g><path style="opacity:1" fill="#feff13" d="M 22.5,23.5 C 23.5,23.5 24.5,23.5 25.5,23.5C 25.5,24.5 25.5,25.5 25.5,26.5C 24.5,26.5 23.5,26.5 22.5,26.5C 22.5,25.5 22.5,24.5 22.5,23.5 Z"/></g>
<g><path style="opacity:1" fill="#165800" d="M 25.5,23.5 C 26.5,23.5 27.5,23.5 28.5,23.5C 28.5,24.5 28.5,25.5 28.5,26.5C 27.5,26.5 26.5,26.5 25.5,26.5C 25.5,25.5 25.5,24.5 25.5,23.5 Z"/></g>
<g><path style="opacity:1" fill="#5bff1b" d="M 28.5,23.5 C 29.5,23.5 30.5,23.5 31.5,23.5C 31.5,24.5 31.5,25.5 31.5,26.5C 30.5,26.5 29.5,26.5 28.5,26.5C 28.5,25.5 28.5,24.5 28.5,23.5 Z"/></g>
<g><path style="opacity:1" fill="#008000" d="M 31.5,23.5 C 33.5,23.5 35.5,23.5 37.5,23.5C 37.5,24.5 37.5,25.5 37.5,26.5C 36.5,26.5 35.5,26.5 34.5,26.5C 34.5,27.5 34.5,28.5 34.5,29.5C 33.5,29.5 32.5,29.5 31.5,29.5C 31.5,30.5 31.5,31.5 31.5,32.5C 30.5,32.5 29.5,32.5 28.5,32.5C 28.5,30.5 28.5,28.5 28.5,26.5C 29.5,26.5 30.5,26.5 31.5,26.5C 31.5,25.5 31.5,24.5 31.5,23.5 Z"/></g>
<g><path style="opacity:1" fill="#124a01" d="M 10.5,20.5 C 11.5,20.5 12.5,20.5 13.5,20.5C 13.5,23.5 13.5,26.5 13.5,29.5C 13.5,31.5 13.5,33.5 13.5,35.5C 11.5,35.5 9.5,35.5 7.5,35.5C 7.5,36.5 7.5,37.5 7.5,38.5C 6.5,38.5 5.5,38.5 4.5,38.5C 4.5,36.5 4.5,34.5 4.5,32.5C 5.5,32.5 6.5,32.5 7.5,32.5C 7.5,30.5 7.5,28.5 7.5,26.5C 8.5,26.5 9.5,26.5 10.5,26.5C 10.5,24.5 10.5,22.5 10.5,20.5 Z"/></g>
<g><path style="opacity:1" fill="#165800" d="M 19.5,26.5 C 20.5,26.5 21.5,26.5 22.5,26.5C 22.5,27.5 22.5,28.5 22.5,29.5C 21.5,29.5 20.5,29.5 19.5,29.5C 19.5,28.5 19.5,27.5 19.5,26.5 Z"/></g>
<g><path style="opacity:1" fill="#9d670e" d="M 22.5,26.5 C 23.5,26.5 24.5,26.5 25.5,26.5C 25.5,27.5 25.5,28.5 25.5,29.5C 24.5,29.5 23.5,29.5 22.5,29.5C 22.5,28.5 22.5,27.5 22.5,26.5 Z"/></g>
<g><path style="opacity:1" fill="#3fc402" d="M 25.5,26.5 C 26.5,26.5 27.5,26.5 28.5,26.5C 28.5,28.5 28.5,30.5 28.5,32.5C 27.5,32.5 26.5,32.5 25.5,32.5C 25.5,31.5 25.5,30.5 25.5,29.5C 25.5,28.5 25.5,27.5 25.5,26.5 Z"/></g>
<g><path style="opacity:1" fill="#135600" d="M 22.5,29.5 C 23.5,29.5 24.5,29.5 25.5,29.5C 25.5,30.5 25.5,31.5 25.5,32.5C 26.5,32.5 27.5,32.5 28.5,32.5C 29.5,32.5 30.5,32.5 31.5,32.5C 31.5,33.5 31.5,34.5 31.5,35.5C 31.5,36.5 31.5,37.5 31.5,38.5C 30.5,38.5 29.5,38.5 28.5,38.5C 28.5,39.5 28.5,40.5 28.5,41.5C 27.5,41.5 26.5,41.5 25.5,41.5C 24.5,41.5 23.5,41.5 22.5,41.5C 22.5,40.5 22.5,39.5 22.5,38.5C 22.5,36.5 22.5,34.5 22.5,32.5C 22.5,31.5 22.5,30.5 22.5,29.5 Z"/></g>
<g><path style="opacity:1" fill="#104300" d="M 37.5,23.5 C 38.5,23.5 39.5,23.5 40.5,23.5C 40.5,25.5 40.5,27.5 40.5,29.5C 39.5,29.5 38.5,29.5 37.5,29.5C 37.5,30.5 37.5,31.5 37.5,32.5C 36.5,32.5 35.5,32.5 34.5,32.5C 34.5,33.5 34.5,34.5 34.5,35.5C 33.5,35.5 32.5,35.5 31.5,35.5C 31.5,34.5 31.5,33.5 31.5,32.5C 31.5,31.5 31.5,30.5 31.5,29.5C 32.5,29.5 33.5,29.5 34.5,29.5C 34.5,28.5 34.5,27.5 34.5,26.5C 35.5,26.5 36.5,26.5 37.5,26.5C 37.5,25.5 37.5,24.5 37.5,23.5 Z"/></g>
<g><path style="opacity:1" fill="#1d8400" d="M 13.5,29.5 C 14.5,29.5 15.5,29.5 16.5,29.5C 16.5,30.5 16.5,31.5 16.5,32.5C 18.5,32.5 20.5,32.5 22.5,32.5C 22.5,34.5 22.5,36.5 22.5,38.5C 21.5,38.5 20.5,38.5 19.5,38.5C 19.5,39.5 19.5,40.5 19.5,41.5C 18.5,41.5 17.5,41.5 16.5,41.5C 16.5,42.5 16.5,43.5 16.5,44.5C 15.5,44.5 14.5,44.5 13.5,44.5C 13.5,43.5 13.5,42.5 13.5,41.5C 12.5,41.5 11.5,41.5 10.5,41.5C 10.5,40.5 10.5,39.5 10.5,38.5C 9.5,38.5 8.5,38.5 7.5,38.5C 7.5,37.5 7.5,36.5 7.5,35.5C 9.5,35.5 11.5,35.5 13.5,35.5C 13.5,33.5 13.5,31.5 13.5,29.5 Z"/></g>
<g><path style="opacity:1" fill="#0f4000" d="M 22.5,38.5 C 22.5,39.5 22.5,40.5 22.5,41.5C 23.5,41.5 24.5,41.5 25.5,41.5C 25.5,42.5 25.5,43.5 25.5,44.5C 23.5,44.5 21.5,44.5 19.5,44.5C 19.5,45.5 19.5,46.5 19.5,47.5C 17.5,47.5 15.5,47.5 13.5,47.5C 13.5,46.5 13.5,45.5 13.5,44.5C 14.5,44.5 15.5,44.5 16.5,44.5C 16.5,43.5 16.5,42.5 16.5,41.5C 17.5,41.5 18.5,41.5 19.5,41.5C 19.5,40.5 19.5,39.5 19.5,38.5C 20.5,38.5 21.5,38.5 22.5,38.5 Z"/></g>
<g><path style="opacity:1" fill="#302202" d="M 4.5,38.5 C 5.5,38.5 6.5,38.5 7.5,38.5C 8.5,38.5 9.5,38.5 10.5,38.5C 10.5,39.5 10.5,40.5 10.5,41.5C 11.5,41.5 12.5,41.5 13.5,41.5C 13.5,42.5 13.5,43.5 13.5,44.5C 13.5,45.5 13.5,46.5 13.5,47.5C 11.5,47.5 9.5,47.5 7.5,47.5C 7.5,46.5 7.5,45.5 7.5,44.5C 6.5,44.5 5.5,44.5 4.5,44.5C 4.5,42.5 4.5,40.5 4.5,38.5 Z"/></g>
</svg>
