<?xml version="1.0" encoding="UTF-8"?>
<!DOCTYPE svg PUBLIC "-//W3C//DTD SVG 1.1//EN" "http://www.w3.org/Graphics/SVG/1.1/DTD/svg11.dtd">
<svg xmlns="http://www.w3.org/2000/svg" version="1.1" width="48px" height="48px" style="shape-rendering:geometricPrecision; text-rendering:geometricPrecision; image-rendering:optimizeQuality; fill-rule:evenodd; clip-rule:evenodd" xmlns:xlink="http://www.w3.org/1999/xlink">
<g><path style="opacity:1" fill="#4b1da2" d="M 18.5,8.5 C 18.5,10.5 18.5,12.5 18.5,14.5C 17.5,14.5 16.5,14.5 15.5,14.5C 15.5,13.5 15.5,12.5 15.5,11.5C 14.5,11.5 13.5,11.5 12.5,11.5C 11.5,11.5 10.5,11.5 9.5,11.5C 9.5,9.5 9.5,7.5 9.5,5.5C 12.5,5.5 15.5,5.5 18.5,5.5C 18.5,6.5 18.5,7.5 18.5,8.5 Z"/></g>
<g><path style="opacity:1" fill="#5e36c8" d="M 24.5,5.5 C 26.5,5.5 28.5,5.5 30.5,5.5C 30.5,6.5 30.5,7.5 30.5,8.5C 29.5,8.5 28.5,8.5 27.5,8.5C 27.5,9.5 27.5,10.5 27.5,11.5C 26.5,11.5 25.5,11.5 24.5,11.5C 23.5,11.5 22.5,11.5 21.5,11.5C 21.5,10.5 21.5,9.5 21.5,8.5C 21.5,7.5 21.5,6.5 21.5,5.5C 22.5,5.5 23.5,5.5 24.5,5.5 Z"/></g>
<g><path style="opacity:1" fill="#340d82" d="M 36.5,17.5 C 33.5,17.5 30.5,17.5 27.5,17.5C 27.5,16.5 27.5,15.5 27.5,14.5C 27.5,13.5 27.5,12.5 27.5,11.5C 27.5,10.5 27.5,9.5 27.5,8.5C 28.5,8.5 29.5,8.5 30.5,8.5C 30.5,7.5 30.5,6.5 30.5,5.5C 28.5,5.5 26.5,5.5 24.5,5.5C 24.5,4.5 24.5,3.5 24.5,2.5C 27.5,2.5 30.5,2.5 33.5,2.5C 33.5,4.5 33.5,6.5 33.5,8.5C 35.5,8.5 37.5,8.5 39.5,8.5C 39.5,10.5 39.5,12.5 39.5,14.5C 38.5,14.5 37.5,14.5 36.5,14.5C 36.5,15.5 36.5,16.5 36.5,17.5 Z"/></g>
<g><path style="opacity:1" fill="#9e6dd1" d="M 21.5,11.5 C 22.5,11.5 23.5,11.5 24.5,11.5C 24.5,12.5 24.5,13.5 24.5,14.5C 25.5,14.5 26.5,14.5 27.5,14.5C 27.5,15.5 27.5,16.5 27.5,17.5C 25.5,17.5 23.5,17.5 21.5,17.5C 21.5,15.5 21.5,13.5 21.5,11.5 Z"/></g>
<g><path style="opacity:1" fill="#ccdedd" d="M 24.5,11.5 C 25.5,11.5 26.5,11.5 27.5,11.5C 27.5,12.5 27.5,13.5 27.5,14.5C 26.5,14.5 25.5,14.5 24.5,14.5C 24.5,13.5 24.5,12.5 24.5,11.5 Z"/></g>
<g><path style="opacity:1" fill="#380f86" d="M 18.5,8.5 C 19.5,8.5 20.5,8.5 21.5,8.5C 21.5,9.5 21.5,10.5 21.5,11.5C 21.5,13.5 21.5,15.5 21.5,17.5C 23.5,17.5 25.5,17.5 27.5,17.5C 27.5,18.5 27.5,19.5 27.5,20.5C 26.5,20.5 25.5,20.5 24.5,20.5C 24.5,21.5 24.5,22.5 24.5,23.5C 23.5,23.5 22.5,23.5 21.5,23.5C 21.5,25.5 21.5,27.5 21.5,29.5C 20.5,29.5 19.5,29.5 18.5,29.5C 18.5,30.5 18.5,31.5 18.5,32.5C 16.5,32.5 14.5,32.5 12.5,32.5C 11.5,32.5 10.5,32.5 9.5,32.5C 9.5,30.5 9.5,28.5 9.5,26.5C 10.5,26.5 11.5,26.5 12.5,26.5C 12.5,25.5 12.5,24.5 12.5,23.5C 10.5,23.5 8.5,23.5 6.5,23.5C 6.5,21.5 6.5,19.5 6.5,17.5C 7.5,17.5 8.5,17.5 9.5,17.5C 9.5,16.5 9.5,15.5 9.5,14.5C 10.5,14.5 11.5,14.5 12.5,14.5C 12.5,13.5 12.5,12.5 12.5,11.5C 13.5,11.5 14.5,11.5 15.5,11.5C 15.5,12.5 15.5,13.5 15.5,14.5C 16.5,14.5 17.5,14.5 18.5,14.5C 18.5,12.5 18.5,10.5 18.5,8.5 Z"/></g>
<g><path style="opacity:1" fill="#5426a7" d="M 27.5,17.5 C 30.5,17.5 33.5,17.5 36.5,17.5C 37.5,17.5 38.5,17.5 39.5,17.5C 39.5,18.5 39.5,19.5 39.5,20.5C 39.5,21.5 39.5,22.5 39.5,23.5C 38.5,23.5 37.5,23.5 36.5,23.5C 36.5,24.5 36.5,25.5 36.5,26.5C 37.5,26.5 38.5,26.5 39.5,26.5C 39.5,27.5 39.5,28.5 39.5,29.5C 39.5,30.5 39.5,31.5 39.5,32.5C 37.5,32.5 35.5,32.5 33.5,32.5C 32.5,32.5 31.5,32.5 30.5,32.5C 30.5,31.5 30.5,30.5 30.5,29.5C 29.5,29.5 28.5,29.5 27.5,29.5C 27.5,30.5 27.5,31.5 27.5,32.5C 26.5,32.5 25.5,32.5 24.5,32.5C 23.5,32.5 22.5,32.5 21.5,32.5C 21.5,31.5 21.5,30.5 21.5,29.5C 21.5,27.5 21.5,25.5 21.5,23.5C 22.5,23.5 23.5,23.5 24.5,23.5C 24.5,22.5 24.5,21.5 24.5,20.5C 25.5,20.5 26.5,20.5 27.5,20.5C 27.5,19.5 27.5,18.5 27.5,17.5 Z"/></g>
<g><path style="opacity:1" fill="#031232" d="M 42.5,26.5 C 42.5,25.5 42.5,24.5 42.5,23.5C 41.5,23.5 40.5,23.5 39.5,23.5C 39.5,22.5 39.5,21.5 39.5,20.5C 40.5,20.5 41.5,20.5 42.5,20.5C 42.5,19.5 42.5,18.5 42.5,17.5C 43.5,17.5 44.5,17.5 45.5,17.5C 45.5,20.5 45.5,23.5 45.5,26.5C 44.5,26.5 43.5,26.5 42.5,26.5 Z"/></g>
<g><path style="opacity:1" fill="#0b1e37" d="M 6.5,23.5 C 8.5,23.5 10.5,23.5 12.5,23.5C 12.5,24.5 12.5,25.5 12.5,26.5C 11.5,26.5 10.5,26.5 9.5,26.5C 9.5,28.5 9.5,30.5 9.5,32.5C 7.5,32.5 5.5,32.5 3.5,32.5C 3.5,31.5 3.5,30.5 3.5,29.5C 2.5,29.5 1.5,29.5 0.5,29.5C 0.5,26.5 0.5,23.5 0.5,20.5C 1.5,20.5 2.5,20.5 3.5,20.5C 3.5,21.5 3.5,22.5 3.5,23.5C 4.5,23.5 5.5,23.5 6.5,23.5 Z"/></g>
<g><path style="opacity:1" fill="#27504c" d="M 39.5,23.5 C 39.5,24.5 39.5,25.5 39.5,26.5C 38.5,26.5 37.5,26.5 36.5,26.5C 36.5,25.5 36.5,24.5 36.5,23.5C 37.5,23.5 38.5,23.5 39.5,23.5 Z"/></g>
<g><path style="opacity:1" fill="#008e00" d="M 39.5,23.5 C 40.5,23.5 41.5,23.5 42.5,23.5C 42.5,24.5 42.5,25.5 42.5,26.5C 41.5,26.5 40.5,26.5 39.5,26.5C 39.5,25.5 39.5,24.5 39.5,23.5 Z"/></g>
<g><path style="opacity:1" fill="#008e00" d="M 3.5,29.5 C 3.5,28.5 3.5,27.5 3.5,26.5C 4.5,26.5 5.5,26.5 6.5,26.5C 6.5,27.5 6.5,28.5 6.5,29.5C 5.5,29.5 4.5,29.5 3.5,29.5 Z"/></g>
<g><path style="opacity:1" fill="#031232" d="M 39.5,26.5 C 40.5,26.5 41.5,26.5 42.5,26.5C 42.5,27.5 42.5,28.5 42.5,29.5C 41.5,29.5 40.5,29.5 39.5,29.5C 39.5,28.5 39.5,27.5 39.5,26.5 Z"/></g>
<g><path style="opacity:1" fill="#031232" d="M 12.5,35.5 C 12.5,36.5 12.5,37.5 12.5,38.5C 12.5,39.5 12.5,40.5 12.5,41.5C 13.5,41.5 14.5,41.5 15.5,41.5C 15.5,42.5 15.5,43.5 15.5,44.5C 12.5,44.5 9.5,44.5 6.5,44.5C 6.5,43.5 6.5,42.5 6.5,41.5C 7.5,41.5 8.5,41.5 9.5,41.5C 9.5,39.5 9.5,37.5 9.5,35.5C 10.5,35.5 11.5,35.5 12.5,35.5 Z"/></g>
<g><path style="opacity:1" fill="#008e00" d="M 12.5,35.5 C 13.5,35.5 14.5,35.5 15.5,35.5C 15.5,36.5 15.5,37.5 15.5,38.5C 14.5,38.5 13.5,38.5 12.5,38.5C 12.5,37.5 12.5,36.5 12.5,35.5 Z"/></g>
<g><path style="opacity:1" fill="#0a1c36" d="M 21.5,29.5 C 21.5,30.5 21.5,31.5 21.5,32.5C 21.5,34.5 21.5,36.5 21.5,38.5C 22.5,38.5 23.5,38.5 24.5,38.5C 24.5,36.5 24.5,34.5 24.5,32.5C 25.5,32.5 26.5,32.5 27.5,32.5C 27.5,31.5 27.5,30.5 27.5,29.5C 28.5,29.5 29.5,29.5 30.5,29.5C 30.5,30.5 30.5,31.5 30.5,32.5C 31.5,32.5 32.5,32.5 33.5,32.5C 33.5,33.5 33.5,34.5 33.5,35.5C 31.5,35.5 29.5,35.5 27.5,35.5C 27.5,36.5 27.5,37.5 27.5,38.5C 28.5,38.5 29.5,38.5 30.5,38.5C 30.5,39.5 30.5,40.5 30.5,41.5C 29.5,41.5 28.5,41.5 27.5,41.5C 27.5,42.5 27.5,43.5 27.5,44.5C 24.5,44.5 21.5,44.5 18.5,44.5C 18.5,43.5 18.5,42.5 18.5,41.5C 17.5,41.5 16.5,41.5 15.5,41.5C 15.5,40.5 15.5,39.5 15.5,38.5C 15.5,37.5 15.5,36.5 15.5,35.5C 14.5,35.5 13.5,35.5 12.5,35.5C 12.5,34.5 12.5,33.5 12.5,32.5C 14.5,32.5 16.5,32.5 18.5,32.5C 18.5,31.5 18.5,30.5 18.5,29.5C 19.5,29.5 20.5,29.5 21.5,29.5 Z"/></g>
<g><path style="opacity:1" fill="#008e00" d="M 21.5,32.5 C 22.5,32.5 23.5,32.5 24.5,32.5C 24.5,34.5 24.5,36.5 24.5,38.5C 23.5,38.5 22.5,38.5 21.5,38.5C 21.5,36.5 21.5,34.5 21.5,32.5 Z"/></g>
<g><path style="opacity:1" fill="#26565c" d="M 33.5,35.5 C 34.5,35.5 35.5,35.5 36.5,35.5C 36.5,36.5 36.5,37.5 36.5,38.5C 36.5,39.5 36.5,40.5 36.5,41.5C 35.5,41.5 34.5,41.5 33.5,41.5C 33.5,40.5 33.5,39.5 33.5,38.5C 32.5,38.5 31.5,38.5 30.5,38.5C 29.5,38.5 28.5,38.5 27.5,38.5C 27.5,37.5 27.5,36.5 27.5,35.5C 29.5,35.5 31.5,35.5 33.5,35.5 Z"/></g>
<g><path style="opacity:1" fill="#3abcbb" d="M 12.5,38.5 C 13.5,38.5 14.5,38.5 15.5,38.5C 15.5,39.5 15.5,40.5 15.5,41.5C 14.5,41.5 13.5,41.5 12.5,41.5C 12.5,40.5 12.5,39.5 12.5,38.5 Z"/></g>
<g><path style="opacity:1" fill="#008e00" d="M 30.5,38.5 C 31.5,38.5 32.5,38.5 33.5,38.5C 33.5,39.5 33.5,40.5 33.5,41.5C 32.5,41.5 31.5,41.5 30.5,41.5C 30.5,40.5 30.5,39.5 30.5,38.5 Z"/></g>
<g><path style="opacity:1" fill="#031232" d="M 36.5,38.5 C 37.5,38.5 38.5,38.5 39.5,38.5C 39.5,40.5 39.5,42.5 39.5,44.5C 36.5,44.5 33.5,44.5 30.5,44.5C 30.5,43.5 30.5,42.5 30.5,41.5C 31.5,41.5 32.5,41.5 33.5,41.5C 34.5,41.5 35.5,41.5 36.5,41.5C 36.5,40.5 36.5,39.5 36.5,38.5 Z"/></g>
</svg>
