<?xml version="1.0" encoding="UTF-8"?>
<!DOCTYPE svg PUBLIC "-//W3C//DTD SVG 1.1//EN" "http://www.w3.org/Graphics/SVG/1.1/DTD/svg11.dtd">
<svg xmlns="http://www.w3.org/2000/svg" version="1.1" width="48px" height="48px" style="shape-rendering:geometricPrecision; text-rendering:geometricPrecision; image-rendering:optimizeQuality; fill-rule:evenodd; clip-rule:evenodd" xmlns:xlink="http://www.w3.org/1999/xlink">
<g><path style="opacity:1" fill="#c85f13" d="M 35.5,-0.5 C 37.5,-0.5 39.5,-0.5 41.5,-0.5C 41.5,0.5 41.5,1.5 41.5,2.5C 39.5,2.5 37.5,2.5 35.5,2.5C 35.5,1.5 35.5,0.5 35.5,-0.5 Z"/></g>
<g><path style="opacity:1" fill="#741b16" d="M 35.5,2.5 C 35.5,3.5 35.5,4.5 35.5,5.5C 34.5,5.5 33.5,5.5 32.5,5.5C 32.5,4.5 32.5,3.5 32.5,2.5C 33.5,2.5 34.5,2.5 35.5,2.5 Z"/></g>
<g><path style="opacity:1" fill="#ffd53a" d="M 35.5,2.5 C 37.5,2.5 39.5,2.5 41.5,2.5C 41.5,3.5 41.5,4.5 41.5,5.5C 42.5,5.5 43.5,5.5 44.5,5.5C 44.5,6.5 44.5,7.5 44.5,8.5C 42.5,8.5 40.5,8.5 38.5,8.5C 38.5,7.5 38.5,6.5 38.5,5.5C 37.5,5.5 36.5,5.5 35.5,5.5C 35.5,4.5 35.5,3.5 35.5,2.5 Z"/></g>
<g><path style="opacity:1" fill="#c85f13" d="M 41.5,2.5 C 42.5,2.5 43.5,2.5 44.5,2.5C 44.5,3.5 44.5,4.5 44.5,5.5C 44.5,4.5 44.5,3.5 44.5,2.5C 43.5,2.5 42.5,2.5 41.5,2.5 Z"/></g>
<g><path style="opacity:1" fill="#5f486a" d="M 17.5,8.5 C 14.5,8.5 11.5,8.5 8.5,8.5C 8.5,7.5 8.5,6.5 8.5,5.5C 11.5,5.5 14.5,5.5 17.5,5.5C 17.5,6.5 17.5,7.5 17.5,8.5 Z"/></g>
<g><path style="opacity:1" fill="#741b16" d="M 32.5,5.5 C 32.5,7.5 32.5,9.5 32.5,11.5C 31.5,11.5 30.5,11.5 29.5,11.5C 29.5,9.5 29.5,7.5 29.5,5.5C 30.5,5.5 31.5,5.5 32.5,5.5 Z"/></g>
<g><path style="opacity:1" fill="#f1a717" d="M 32.5,5.5 C 33.5,5.5 34.5,5.5 35.5,5.5C 36.5,5.5 37.5,5.5 38.5,5.5C 38.5,6.5 38.5,7.5 38.5,8.5C 38.5,9.5 38.5,10.5 38.5,11.5C 39.5,11.5 40.5,11.5 41.5,11.5C 41.5,12.5 41.5,13.5 41.5,14.5C 39.5,14.5 37.5,14.5 35.5,14.5C 35.5,13.5 35.5,12.5 35.5,11.5C 34.5,11.5 33.5,11.5 32.5,11.5C 32.5,9.5 32.5,7.5 32.5,5.5 Z"/></g>
<g><path style="opacity:1" fill="#fef8ab" d="M 35.5,5.5 C 36.5,5.5 37.5,5.5 38.5,5.5C 38.5,6.5 38.5,7.5 38.5,8.5C 37.5,8.5 36.5,8.5 35.5,8.5C 35.5,7.5 35.5,6.5 35.5,5.5 Z"/></g>
<g><path style="opacity:1" fill="#c85f13" d="M 44.5,5.5 C 45.5,5.5 46.5,5.5 47.5,5.5C 47.5,7.5 47.5,9.5 47.5,11.5C 46.5,11.5 45.5,11.5 44.5,11.5C 44.5,10.5 44.5,9.5 44.5,8.5C 44.5,7.5 44.5,6.5 44.5,5.5 Z"/></g>
<g><path style="opacity:1" fill="#412c44" d="M 8.5,8.5 C 8.5,9.5 8.5,10.5 8.5,11.5C 8.5,13.5 8.5,15.5 8.5,17.5C 7.5,17.5 6.5,17.5 5.5,17.5C 5.5,14.5 5.5,11.5 5.5,8.5C 6.5,8.5 7.5,8.5 8.5,8.5 Z"/></g>
<g><path style="opacity:1" fill="#fcf0e0" d="M 8.5,8.5 C 11.5,8.5 14.5,8.5 17.5,8.5C 17.5,11.5 17.5,14.5 17.5,17.5C 16.5,17.5 15.5,17.5 14.5,17.5C 14.5,16.5 14.5,15.5 14.5,14.5C 13.5,14.5 12.5,14.5 11.5,14.5C 11.5,13.5 11.5,12.5 11.5,11.5C 10.5,11.5 9.5,11.5 8.5,11.5C 8.5,10.5 8.5,9.5 8.5,8.5 Z"/></g>
<g><path style="opacity:1" fill="#5f486a" d="M 17.5,8.5 C 18.5,8.5 19.5,8.5 20.5,8.5C 20.5,11.5 20.5,14.5 20.5,17.5C 19.5,17.5 18.5,17.5 17.5,17.5C 17.5,14.5 17.5,11.5 17.5,8.5 Z"/></g>
<g><path style="opacity:1" fill="#fef8ab" d="M 38.5,8.5 C 40.5,8.5 42.5,8.5 44.5,8.5C 44.5,9.5 44.5,10.5 44.5,11.5C 43.5,11.5 42.5,11.5 41.5,11.5C 40.5,11.5 39.5,11.5 38.5,11.5C 38.5,10.5 38.5,9.5 38.5,8.5 Z"/></g>
<g><path style="opacity:1" fill="#c3b0b9" d="M 8.5,11.5 C 9.5,11.5 10.5,11.5 11.5,11.5C 11.5,12.5 11.5,13.5 11.5,14.5C 12.5,14.5 13.5,14.5 14.5,14.5C 14.5,15.5 14.5,16.5 14.5,17.5C 12.5,17.5 10.5,17.5 8.5,17.5C 8.5,15.5 8.5,13.5 8.5,11.5 Z"/></g>
<g><path style="opacity:1" fill="#03322a" d="M 29.5,11.5 C 29.5,12.5 29.5,13.5 29.5,14.5C 28.5,14.5 27.5,14.5 26.5,14.5C 26.5,13.5 26.5,12.5 26.5,11.5C 27.5,11.5 28.5,11.5 29.5,11.5 Z"/></g>
<g><path style="opacity:1" fill="#5db42b" d="M 29.5,11.5 C 30.5,11.5 31.5,11.5 32.5,11.5C 32.5,12.5 32.5,13.5 32.5,14.5C 31.5,14.5 30.5,14.5 29.5,14.5C 29.5,13.5 29.5,12.5 29.5,11.5 Z"/></g>
<g><path style="opacity:1" fill="#741b16" d="M 32.5,11.5 C 33.5,11.5 34.5,11.5 35.5,11.5C 35.5,12.5 35.5,13.5 35.5,14.5C 34.5,14.5 33.5,14.5 32.5,14.5C 32.5,13.5 32.5,12.5 32.5,11.5 Z"/></g>
<g><path style="opacity:1" fill="#741b16" d="M 41.5,11.5 C 42.5,11.5 43.5,11.5 44.5,11.5C 44.5,12.5 44.5,13.5 44.5,14.5C 43.5,14.5 42.5,14.5 41.5,14.5C 41.5,13.5 41.5,12.5 41.5,11.5 Z"/></g>
<g><path style="opacity:1" fill="#5db42b" d="M 26.5,14.5 C 27.5,14.5 28.5,14.5 29.5,14.5C 29.5,15.5 29.5,16.5 29.5,17.5C 29.5,18.5 29.5,19.5 29.5,20.5C 28.5,20.5 27.5,20.5 26.5,20.5C 26.5,18.5 26.5,16.5 26.5,14.5 Z"/></g>
<g><path style="opacity:1" fill="#3f772e" d="M 29.5,14.5 C 30.5,14.5 31.5,14.5 32.5,14.5C 32.5,15.5 32.5,16.5 32.5,17.5C 31.5,17.5 30.5,17.5 29.5,17.5C 29.5,16.5 29.5,15.5 29.5,14.5 Z"/></g>
<g><path style="opacity:1" fill="#03322a" d="M 32.5,14.5 C 33.5,14.5 34.5,14.5 35.5,14.5C 35.5,15.5 35.5,16.5 35.5,17.5C 34.5,17.5 33.5,17.5 32.5,17.5C 32.5,16.5 32.5,15.5 32.5,14.5 Z"/></g>
<g><path style="opacity:1" fill="#741b16" d="M 35.5,14.5 C 37.5,14.5 39.5,14.5 41.5,14.5C 41.5,15.5 41.5,16.5 41.5,17.5C 39.5,17.5 37.5,17.5 35.5,17.5C 35.5,16.5 35.5,15.5 35.5,14.5 Z"/></g>
<g><path style="opacity:1" fill="#412c44" d="M 8.5,17.5 C 10.5,17.5 12.5,17.5 14.5,17.5C 15.5,17.5 16.5,17.5 17.5,17.5C 17.5,18.5 17.5,19.5 17.5,20.5C 14.5,20.5 11.5,20.5 8.5,20.5C 8.5,19.5 8.5,18.5 8.5,17.5 Z"/></g>
<g><path style="opacity:1" fill="#033932" d="M 26.5,14.5 C 26.5,16.5 26.5,18.5 26.5,20.5C 26.5,22.5 26.5,24.5 26.5,26.5C 25.5,26.5 24.5,26.5 23.5,26.5C 23.5,27.5 23.5,28.5 23.5,29.5C 22.5,29.5 21.5,29.5 20.5,29.5C 20.5,31.5 20.5,33.5 20.5,35.5C 20.5,36.5 20.5,37.5 20.5,38.5C 19.5,38.5 18.5,38.5 17.5,38.5C 15.5,38.5 13.5,38.5 11.5,38.5C 11.5,37.5 11.5,36.5 11.5,35.5C 12.5,35.5 13.5,35.5 14.5,35.5C 15.5,35.5 16.5,35.5 17.5,35.5C 17.5,34.5 17.5,33.5 17.5,32.5C 16.5,32.5 15.5,32.5 14.5,32.5C 14.5,31.5 14.5,30.5 14.5,29.5C 15.5,29.5 16.5,29.5 17.5,29.5C 17.5,26.5 17.5,23.5 17.5,20.5C 17.5,19.5 17.5,18.5 17.5,17.5C 18.5,17.5 19.5,17.5 20.5,17.5C 21.5,17.5 22.5,17.5 23.5,17.5C 23.5,16.5 23.5,15.5 23.5,14.5C 24.5,14.5 25.5,14.5 26.5,14.5 Z"/></g>
<g><path style="opacity:1" fill="#156540" d="M 23.5,26.5 C 22.5,26.5 21.5,26.5 20.5,26.5C 20.5,24.5 20.5,22.5 20.5,20.5C 21.5,20.5 22.5,20.5 23.5,20.5C 23.5,22.5 23.5,24.5 23.5,26.5 Z"/></g>
<g><path style="opacity:1" fill="#03322a" d="M 11.5,26.5 C 10.5,26.5 9.5,26.5 8.5,26.5C 8.5,28.5 8.5,30.5 8.5,32.5C 7.5,32.5 6.5,32.5 5.5,32.5C 5.5,29.5 5.5,26.5 5.5,23.5C 7.5,23.5 9.5,23.5 11.5,23.5C 11.5,24.5 11.5,25.5 11.5,26.5 Z"/></g>
<g><path style="opacity:1" fill="#276a3b" d="M 26.5,20.5 C 27.5,20.5 28.5,20.5 29.5,20.5C 29.5,22.5 29.5,24.5 29.5,26.5C 28.5,26.5 27.5,26.5 26.5,26.5C 26.5,24.5 26.5,22.5 26.5,20.5 Z"/></g>
<g><path style="opacity:1" fill="#03322a" d="M 11.5,26.5 C 12.5,26.5 13.5,26.5 14.5,26.5C 14.5,27.5 14.5,28.5 14.5,29.5C 14.5,28.5 14.5,27.5 14.5,26.5C 13.5,26.5 12.5,26.5 11.5,26.5 Z"/></g>
<g><path style="opacity:1" fill="#033f37" d="M 29.5,17.5 C 30.5,17.5 31.5,17.5 32.5,17.5C 32.5,19.5 32.5,21.5 32.5,23.5C 34.5,23.5 36.5,23.5 38.5,23.5C 38.5,26.5 38.5,29.5 38.5,32.5C 37.5,32.5 36.5,32.5 35.5,32.5C 35.5,34.5 35.5,36.5 35.5,38.5C 33.5,38.5 31.5,38.5 29.5,38.5C 28.5,38.5 27.5,38.5 26.5,38.5C 26.5,36.5 26.5,34.5 26.5,32.5C 26.5,30.5 26.5,28.5 26.5,26.5C 27.5,26.5 28.5,26.5 29.5,26.5C 29.5,24.5 29.5,22.5 29.5,20.5C 29.5,19.5 29.5,18.5 29.5,17.5 Z"/></g>
<g><path style="opacity:1" fill="#347035" d="M 23.5,26.5 C 24.5,26.5 25.5,26.5 26.5,26.5C 26.5,28.5 26.5,30.5 26.5,32.5C 25.5,32.5 24.5,32.5 23.5,32.5C 23.5,31.5 23.5,30.5 23.5,29.5C 23.5,28.5 23.5,27.5 23.5,26.5 Z"/></g>
<g><path style="opacity:1" fill="#03322a" d="M 8.5,32.5 C 9.5,32.5 10.5,32.5 11.5,32.5C 11.5,33.5 11.5,34.5 11.5,35.5C 11.5,34.5 11.5,33.5 11.5,32.5C 10.5,32.5 9.5,32.5 8.5,32.5 Z"/></g>
<g><path style="opacity:1" fill="#89ce2e" d="M 11.5,26.5 C 11.5,27.5 11.5,28.5 11.5,29.5C 12.5,29.5 13.5,29.5 14.5,29.5C 14.5,30.5 14.5,31.5 14.5,32.5C 14.5,33.5 14.5,34.5 14.5,35.5C 13.5,35.5 12.5,35.5 11.5,35.5C 11.5,34.5 11.5,33.5 11.5,32.5C 10.5,32.5 9.5,32.5 8.5,32.5C 8.5,30.5 8.5,28.5 8.5,26.5C 9.5,26.5 10.5,26.5 11.5,26.5 Z"/></g>
<g><path style="opacity:1" fill="#3f772e" d="M 14.5,32.5 C 15.5,32.5 16.5,32.5 17.5,32.5C 17.5,33.5 17.5,34.5 17.5,35.5C 16.5,35.5 15.5,35.5 14.5,35.5C 14.5,34.5 14.5,33.5 14.5,32.5 Z"/></g>
<g><path style="opacity:1" fill="#80c82d" d="M 23.5,29.5 C 23.5,30.5 23.5,31.5 23.5,32.5C 24.5,32.5 25.5,32.5 26.5,32.5C 26.5,34.5 26.5,36.5 26.5,38.5C 25.5,38.5 24.5,38.5 23.5,38.5C 23.5,37.5 23.5,36.5 23.5,35.5C 22.5,35.5 21.5,35.5 20.5,35.5C 20.5,33.5 20.5,31.5 20.5,29.5C 21.5,29.5 22.5,29.5 23.5,29.5 Z"/></g>
<g><path style="opacity:1" fill="#89ce2e" d="M 35.5,32.5 C 34.5,32.5 33.5,32.5 32.5,32.5C 32.5,33.5 32.5,34.5 32.5,35.5C 31.5,35.5 30.5,35.5 29.5,35.5C 29.5,33.5 29.5,31.5 29.5,29.5C 30.5,29.5 31.5,29.5 32.5,29.5C 32.5,28.5 32.5,27.5 32.5,26.5C 33.5,26.5 34.5,26.5 35.5,26.5C 35.5,28.5 35.5,30.5 35.5,32.5 Z"/></g>
<g><path style="opacity:1" fill="#3f772e" d="M 20.5,35.5 C 21.5,35.5 22.5,35.5 23.5,35.5C 23.5,36.5 23.5,37.5 23.5,38.5C 22.5,38.5 21.5,38.5 20.5,38.5C 20.5,37.5 20.5,36.5 20.5,35.5 Z"/></g>
<g><path style="opacity:1" fill="#03322a" d="M 11.5,38.5 C 11.5,39.5 11.5,40.5 11.5,41.5C 10.5,41.5 9.5,41.5 8.5,41.5C 8.5,40.5 8.5,39.5 8.5,38.5C 9.5,38.5 10.5,38.5 11.5,38.5 Z"/></g>
<g><path style="opacity:1" fill="#3f772e" d="M 17.5,38.5 C 18.5,38.5 19.5,38.5 20.5,38.5C 20.5,39.5 20.5,40.5 20.5,41.5C 19.5,41.5 18.5,41.5 17.5,41.5C 17.5,40.5 17.5,39.5 17.5,38.5 Z"/></g>
<g><path style="opacity:1" fill="#03322a" d="M 20.5,38.5 C 21.5,38.5 22.5,38.5 23.5,38.5C 24.5,38.5 25.5,38.5 26.5,38.5C 26.5,39.5 26.5,40.5 26.5,41.5C 24.5,41.5 22.5,41.5 20.5,41.5C 20.5,40.5 20.5,39.5 20.5,38.5 Z"/></g>
<g><path style="opacity:1" fill="#3f772e" d="M 26.5,38.5 C 27.5,38.5 28.5,38.5 29.5,38.5C 29.5,39.5 29.5,40.5 29.5,41.5C 28.5,41.5 27.5,41.5 26.5,41.5C 26.5,40.5 26.5,39.5 26.5,38.5 Z"/></g>
<g><path style="opacity:1" fill="#03322a" d="M 35.5,38.5 C 36.5,38.5 37.5,38.5 38.5,38.5C 38.5,39.5 38.5,40.5 38.5,41.5C 38.5,40.5 38.5,39.5 38.5,38.5C 37.5,38.5 36.5,38.5 35.5,38.5 Z"/></g>
<g><path style="opacity:1" fill="#03322a" d="M 8.5,41.5 C 8.5,42.5 8.5,43.5 8.5,44.5C 11.5,44.5 14.5,44.5 17.5,44.5C 17.5,45.5 17.5,46.5 17.5,47.5C 13.5,47.5 9.5,47.5 5.5,47.5C 5.5,45.5 5.5,43.5 5.5,41.5C 6.5,41.5 7.5,41.5 8.5,41.5 Z"/></g>
<g><path style="opacity:1" fill="#8bcf2e" d="M 11.5,38.5 C 13.5,38.5 15.5,38.5 17.5,38.5C 17.5,39.5 17.5,40.5 17.5,41.5C 17.5,42.5 17.5,43.5 17.5,44.5C 14.5,44.5 11.5,44.5 8.5,44.5C 8.5,43.5 8.5,42.5 8.5,41.5C 9.5,41.5 10.5,41.5 11.5,41.5C 11.5,40.5 11.5,39.5 11.5,38.5 Z"/></g>
<g><path style="opacity:1" fill="#03322a" d="M 17.5,41.5 C 18.5,41.5 19.5,41.5 20.5,41.5C 20.5,42.5 20.5,43.5 20.5,44.5C 19.5,44.5 18.5,44.5 17.5,44.5C 17.5,43.5 17.5,42.5 17.5,41.5 Z"/></g>
<g><path style="opacity:1" fill="#03322a" d="M 26.5,41.5 C 27.5,41.5 28.5,41.5 29.5,41.5C 29.5,42.5 29.5,43.5 29.5,44.5C 28.5,44.5 27.5,44.5 26.5,44.5C 26.5,43.5 26.5,42.5 26.5,41.5 Z"/></g>
<g><path style="opacity:1" fill="#3f772e" d="M 29.5,41.5 C 30.5,41.5 31.5,41.5 32.5,41.5C 32.5,42.5 32.5,43.5 32.5,44.5C 31.5,44.5 30.5,44.5 29.5,44.5C 29.5,43.5 29.5,42.5 29.5,41.5 Z"/></g>
<g><path style="opacity:1" fill="#89ce2e" d="M 29.5,38.5 C 31.5,38.5 33.5,38.5 35.5,38.5C 35.5,39.5 35.5,40.5 35.5,41.5C 36.5,41.5 37.5,41.5 38.5,41.5C 38.5,42.5 38.5,43.5 38.5,44.5C 36.5,44.5 34.5,44.5 32.5,44.5C 32.5,43.5 32.5,42.5 32.5,41.5C 31.5,41.5 30.5,41.5 29.5,41.5C 29.5,40.5 29.5,39.5 29.5,38.5 Z"/></g>
<g><path style="opacity:1" fill="#03322a" d="M 38.5,41.5 C 39.5,41.5 40.5,41.5 41.5,41.5C 41.5,43.5 41.5,45.5 41.5,47.5C 37.5,47.5 33.5,47.5 29.5,47.5C 29.5,46.5 29.5,45.5 29.5,44.5C 30.5,44.5 31.5,44.5 32.5,44.5C 34.5,44.5 36.5,44.5 38.5,44.5C 38.5,43.5 38.5,42.5 38.5,41.5 Z"/></g>
</svg>
