<?xml version="1.0" encoding="UTF-8"?>
<!DOCTYPE svg PUBLIC "-//W3C//DTD SVG 1.1//EN" "http://www.w3.org/Graphics/SVG/1.1/DTD/svg11.dtd">
<svg xmlns="http://www.w3.org/2000/svg" version="1.1" width="60px" height="108px" style="shape-rendering:geometricPrecision; text-rendering:geometricPrecision; image-rendering:optimizeQuality; fill-rule:evenodd; clip-rule:evenodd" xmlns:xlink="http://www.w3.org/1999/xlink">
<g><path style="opacity:1" fill="#4a1700" d="M 31.5,15.5 C 30.1667,15.5 28.8333,15.5 27.5,15.5C 26.1667,15.5 24.8333,15.5 23.5,15.5C 23.5,16.8333 23.5,18.1667 23.5,19.5C 22.1667,19.5 20.8333,19.5 19.5,19.5C 19.5,16.8333 19.5,14.1667 19.5,11.5C 23.5,11.5 27.5,11.5 31.5,11.5C 31.5,12.8333 31.5,14.1667 31.5,15.5 Z"/></g>
<g><path style="opacity:1" fill="#b67e36" d="M 27.5,15.5 C 27.5,16.8333 27.5,18.1667 27.5,19.5C 26.1667,19.5 24.8333,19.5 23.5,19.5C 23.5,18.1667 23.5,16.8333 23.5,15.5C 24.8333,15.5 26.1667,15.5 27.5,15.5 Z"/></g>
<g><path style="opacity:1" fill="#f9c782" d="M 27.5,15.5 C 28.8333,15.5 30.1667,15.5 31.5,15.5C 31.5,16.8333 31.5,18.1667 31.5,19.5C 32.8333,19.5 34.1667,19.5 35.5,19.5C 35.5,20.8333 35.5,22.1667 35.5,23.5C 36.8333,23.5 38.1667,23.5 39.5,23.5C 39.5,24.8333 39.5,26.1667 39.5,27.5C 40.8333,27.5 42.1667,27.5 43.5,27.5C 43.5,30.1667 43.5,32.8333 43.5,35.5C 43.5,36.8333 43.5,38.1667 43.5,39.5C 42.1667,39.5 40.8333,39.5 39.5,39.5C 39.5,40.8333 39.5,42.1667 39.5,43.5C 39.5,44.8333 39.5,46.1667 39.5,47.5C 38.1667,47.5 36.8333,47.5 35.5,47.5C 35.5,46.1667 35.5,44.8333 35.5,43.5C 35.5,42.1667 35.5,40.8333 35.5,39.5C 31.5,39.5 27.5,39.5 23.5,39.5C 23.5,40.8333 23.5,42.1667 23.5,43.5C 23.5,44.8333 23.5,46.1667 23.5,47.5C 22.1667,47.5 20.8333,47.5 19.5,47.5C 19.5,46.1667 19.5,44.8333 19.5,43.5C 19.5,42.1667 19.5,40.8333 19.5,39.5C 18.1667,39.5 16.8333,39.5 15.5,39.5C 15.5,38.1667 15.5,36.8333 15.5,35.5C 15.5,32.8333 15.5,30.1667 15.5,27.5C 16.8333,27.5 18.1667,27.5 19.5,27.5C 19.5,26.1667 19.5,24.8333 19.5,23.5C 20.8333,23.5 22.1667,23.5 23.5,23.5C 23.5,22.1667 23.5,20.8333 23.5,19.5C 24.8333,19.5 26.1667,19.5 27.5,19.5C 27.5,18.1667 27.5,16.8333 27.5,15.5 Z"/></g>
<g><path style="opacity:1" fill="#4a1700" d="M 31.5,15.5 C 34.1667,15.5 36.8333,15.5 39.5,15.5C 39.5,16.8333 39.5,18.1667 39.5,19.5C 38.1667,19.5 36.8333,19.5 35.5,19.5C 34.1667,19.5 32.8333,19.5 31.5,19.5C 31.5,18.1667 31.5,16.8333 31.5,15.5 Z"/></g>
<g><path style="opacity:1" fill="#4a1700" d="M 19.5,19.5 C 19.5,20.8333 19.5,22.1667 19.5,23.5C 18.1667,23.5 16.8333,23.5 15.5,23.5C 14.1667,23.5 12.8333,23.5 11.5,23.5C 11.5,22.1667 11.5,20.8333 11.5,19.5C 14.1667,19.5 16.8333,19.5 19.5,19.5 Z"/></g>
<g><path style="opacity:1" fill="#b67e36" d="M 19.5,19.5 C 20.8333,19.5 22.1667,19.5 23.5,19.5C 23.5,20.8333 23.5,22.1667 23.5,23.5C 22.1667,23.5 20.8333,23.5 19.5,23.5C 19.5,22.1667 19.5,20.8333 19.5,19.5 Z"/></g>
<g><path style="opacity:1" fill="#b67e36" d="M 35.5,19.5 C 36.8333,19.5 38.1667,19.5 39.5,19.5C 39.5,20.8333 39.5,22.1667 39.5,23.5C 38.1667,23.5 36.8333,23.5 35.5,23.5C 35.5,22.1667 35.5,20.8333 35.5,19.5 Z"/></g>
<g><path style="opacity:1" fill="#4a1700" d="M 39.5,19.5 C 42.1667,19.5 44.8333,19.5 47.5,19.5C 47.5,20.8333 47.5,22.1667 47.5,23.5C 46.1667,23.5 44.8333,23.5 43.5,23.5C 42.1667,23.5 40.8333,23.5 39.5,23.5C 39.5,22.1667 39.5,20.8333 39.5,19.5 Z"/></g>
<g><path style="opacity:1" fill="#4a1700" d="M 11.5,23.5 C 11.5,24.8333 11.5,26.1667 11.5,27.5C 10.1667,27.5 8.83333,27.5 7.5,27.5C 7.5,26.1667 7.5,24.8333 7.5,23.5C 8.83333,23.5 10.1667,23.5 11.5,23.5 Z"/></g>
<g><path style="opacity:1" fill="#914d27" d="M 11.5,23.5 C 12.8333,23.5 14.1667,23.5 15.5,23.5C 15.5,24.8333 15.5,26.1667 15.5,27.5C 15.5,30.1667 15.5,32.8333 15.5,35.5C 14.1667,35.5 12.8333,35.5 11.5,35.5C 11.5,38.1667 11.5,40.8333 11.5,43.5C 8.83333,43.5 6.16667,43.5 3.5,43.5C 3.5,39.5 3.5,35.5 3.5,31.5C 4.83333,31.5 6.16667,31.5 7.5,31.5C 7.5,30.1667 7.5,28.8333 7.5,27.5C 8.83333,27.5 10.1667,27.5 11.5,27.5C 11.5,26.1667 11.5,24.8333 11.5,23.5 Z"/></g>
<g><path style="opacity:1" fill="#b67e36" d="M 15.5,23.5 C 16.8333,23.5 18.1667,23.5 19.5,23.5C 19.5,24.8333 19.5,26.1667 19.5,27.5C 18.1667,27.5 16.8333,27.5 15.5,27.5C 15.5,26.1667 15.5,24.8333 15.5,23.5 Z"/></g>
<g><path style="opacity:1" fill="#b67e36" d="M 39.5,23.5 C 40.8333,23.5 42.1667,23.5 43.5,23.5C 43.5,24.8333 43.5,26.1667 43.5,27.5C 42.1667,27.5 40.8333,27.5 39.5,27.5C 39.5,26.1667 39.5,24.8333 39.5,23.5 Z"/></g>
<g><path style="opacity:1" fill="#914d27" d="M 43.5,23.5 C 44.8333,23.5 46.1667,23.5 47.5,23.5C 47.5,24.8333 47.5,26.1667 47.5,27.5C 48.8333,27.5 50.1667,27.5 51.5,27.5C 51.5,28.8333 51.5,30.1667 51.5,31.5C 52.8333,31.5 54.1667,31.5 55.5,31.5C 55.5,35.5 55.5,39.5 55.5,43.5C 52.8333,43.5 50.1667,43.5 47.5,43.5C 47.5,40.8333 47.5,38.1667 47.5,35.5C 46.1667,35.5 44.8333,35.5 43.5,35.5C 43.5,32.8333 43.5,30.1667 43.5,27.5C 43.5,26.1667 43.5,24.8333 43.5,23.5 Z"/></g>
<g><path style="opacity:1" fill="#4a1700" d="M 47.5,23.5 C 48.8333,23.5 50.1667,23.5 51.5,23.5C 51.5,24.8333 51.5,26.1667 51.5,27.5C 51.5,26.1667 51.5,24.8333 51.5,23.5C 50.1667,23.5 48.8333,23.5 47.5,23.5 Z"/></g>
<g><path style="opacity:1" fill="#4a1700" d="M 7.5,27.5 C 7.5,28.8333 7.5,30.1667 7.5,31.5C 6.16667,31.5 4.83333,31.5 3.5,31.5C 3.5,30.1667 3.5,28.8333 3.5,27.5C 4.83333,27.5 6.16667,27.5 7.5,27.5 Z"/></g>
<g><path style="opacity:1" fill="#4a1700" d="M 51.5,27.5 C 52.8333,27.5 54.1667,27.5 55.5,27.5C 55.5,28.8333 55.5,30.1667 55.5,31.5C 55.5,30.1667 55.5,28.8333 55.5,27.5C 54.1667,27.5 52.8333,27.5 51.5,27.5 Z"/></g>
<g><path style="opacity:1" fill="#4a1700" d="M -0.5,31.5 C 0.833333,31.5 2.16667,31.5 3.5,31.5C 3.5,35.5 3.5,39.5 3.5,43.5C 2.16667,43.5 0.833333,43.5 -0.5,43.5C -0.5,39.5 -0.5,35.5 -0.5,31.5 Z"/></g>
<g><path style="opacity:1" fill="#4a1700" d="M 19.5,31.5 C 20.8333,31.5 22.1667,31.5 23.5,31.5C 23.5,32.8333 23.5,34.1667 23.5,35.5C 22.1667,35.5 20.8333,35.5 19.5,35.5C 19.5,34.1667 19.5,32.8333 19.5,31.5 Z"/></g>
<g><path style="opacity:1" fill="#4a1700" d="M 35.5,31.5 C 36.8333,31.5 38.1667,31.5 39.5,31.5C 39.5,32.8333 39.5,34.1667 39.5,35.5C 38.1667,35.5 36.8333,35.5 35.5,35.5C 35.5,34.1667 35.5,32.8333 35.5,31.5 Z"/></g>
<g><path style="opacity:1" fill="#4a1700" d="M 55.5,31.5 C 56.8333,31.5 58.1667,31.5 59.5,31.5C 59.5,35.5 59.5,39.5 59.5,43.5C 58.1667,43.5 56.8333,43.5 55.5,43.5C 55.5,39.5 55.5,35.5 55.5,31.5 Z"/></g>
<g><path style="opacity:1" fill="#4a1700" d="M 15.5,35.5 C 15.5,36.8333 15.5,38.1667 15.5,39.5C 15.5,40.8333 15.5,42.1667 15.5,43.5C 15.5,44.8333 15.5,46.1667 15.5,47.5C 11.5,47.5 7.5,47.5 3.5,47.5C 3.5,46.1667 3.5,44.8333 3.5,43.5C 6.16667,43.5 8.83333,43.5 11.5,43.5C 11.5,40.8333 11.5,38.1667 11.5,35.5C 12.8333,35.5 14.1667,35.5 15.5,35.5 Z"/></g>
<g><path style="opacity:1" fill="#4a1700" d="M 43.5,35.5 C 44.8333,35.5 46.1667,35.5 47.5,35.5C 47.5,38.1667 47.5,40.8333 47.5,43.5C 50.1667,43.5 52.8333,43.5 55.5,43.5C 55.5,44.8333 55.5,46.1667 55.5,47.5C 51.5,47.5 47.5,47.5 43.5,47.5C 43.5,46.1667 43.5,44.8333 43.5,43.5C 43.5,42.1667 43.5,40.8333 43.5,39.5C 43.5,38.1667 43.5,36.8333 43.5,35.5 Z"/></g>
<g><path style="opacity:1" fill="#b67e36" d="M 15.5,39.5 C 16.8333,39.5 18.1667,39.5 19.5,39.5C 19.5,40.8333 19.5,42.1667 19.5,43.5C 18.1667,43.5 16.8333,43.5 15.5,43.5C 15.5,42.1667 15.5,40.8333 15.5,39.5 Z"/></g>
<g><path style="opacity:1" fill="#4a1700" d="M 35.5,43.5 C 34.1667,43.5 32.8333,43.5 31.5,43.5C 31.5,44.8333 31.5,46.1667 31.5,47.5C 30.1667,47.5 28.8333,47.5 27.5,47.5C 27.5,46.1667 27.5,44.8333 27.5,43.5C 26.1667,43.5 24.8333,43.5 23.5,43.5C 23.5,42.1667 23.5,40.8333 23.5,39.5C 27.5,39.5 31.5,39.5 35.5,39.5C 35.5,40.8333 35.5,42.1667 35.5,43.5 Z"/></g>
<g><path style="opacity:1" fill="#b67e36" d="M 43.5,39.5 C 43.5,40.8333 43.5,42.1667 43.5,43.5C 42.1667,43.5 40.8333,43.5 39.5,43.5C 39.5,42.1667 39.5,40.8333 39.5,39.5C 40.8333,39.5 42.1667,39.5 43.5,39.5 Z"/></g>
<g><path style="opacity:1" fill="#914d27" d="M 15.5,43.5 C 16.8333,43.5 18.1667,43.5 19.5,43.5C 19.5,44.8333 19.5,46.1667 19.5,47.5C 18.1667,47.5 16.8333,47.5 15.5,47.5C 15.5,46.1667 15.5,44.8333 15.5,43.5 Z"/></g>
<g><path style="opacity:1" fill="#b67e36" d="M 23.5,43.5 C 24.8333,43.5 26.1667,43.5 27.5,43.5C 27.5,44.8333 27.5,46.1667 27.5,47.5C 26.1667,47.5 24.8333,47.5 23.5,47.5C 23.5,46.1667 23.5,44.8333 23.5,43.5 Z"/></g>
<g><path style="opacity:1" fill="#b67e36" d="M 35.5,43.5 C 35.5,44.8333 35.5,46.1667 35.5,47.5C 34.1667,47.5 32.8333,47.5 31.5,47.5C 31.5,46.1667 31.5,44.8333 31.5,43.5C 32.8333,43.5 34.1667,43.5 35.5,43.5 Z"/></g>
<g><path style="opacity:1" fill="#914d27" d="M 39.5,43.5 C 40.8333,43.5 42.1667,43.5 43.5,43.5C 43.5,44.8333 43.5,46.1667 43.5,47.5C 42.1667,47.5 40.8333,47.5 39.5,47.5C 39.5,46.1667 39.5,44.8333 39.5,43.5 Z"/></g>
<g><path style="opacity:1" fill="#4a1700" d="M 15.5,47.5 C 16.8333,47.5 18.1667,47.5 19.5,47.5C 19.5,48.8333 19.5,50.1667 19.5,51.5C 20.8333,51.5 22.1667,51.5 23.5,51.5C 23.5,52.8333 23.5,54.1667 23.5,55.5C 22.1667,55.5 20.8333,55.5 19.5,55.5C 19.5,56.8333 19.5,58.1667 19.5,59.5C 18.1667,59.5 16.8333,59.5 15.5,59.5C 15.5,60.8333 15.5,62.1667 15.5,63.5C 15.5,64.8333 15.5,66.1667 15.5,67.5C 15.5,68.8333 15.5,70.1667 15.5,71.5C 15.5,74.1667 15.5,76.8333 15.5,79.5C 15.5,82.1667 15.5,84.8333 15.5,87.5C 14.1667,87.5 12.8333,87.5 11.5,87.5C 11.5,86.1667 11.5,84.8333 11.5,83.5C 11.5,80.8333 11.5,78.1667 11.5,75.5C 11.5,74.1667 11.5,72.8333 11.5,71.5C 10.1667,71.5 8.83333,71.5 7.5,71.5C 7.5,70.1667 7.5,68.8333 7.5,67.5C 8.83333,67.5 10.1667,67.5 11.5,67.5C 11.5,64.8333 11.5,62.1667 11.5,59.5C 11.5,58.1667 11.5,56.8333 11.5,55.5C 12.8333,55.5 14.1667,55.5 15.5,55.5C 15.5,52.8333 15.5,50.1667 15.5,47.5 Z"/></g>
<g><path style="opacity:1" fill="#b67e36" d="M 19.5,47.5 C 20.8333,47.5 22.1667,47.5 23.5,47.5C 23.5,48.8333 23.5,50.1667 23.5,51.5C 22.1667,51.5 20.8333,51.5 19.5,51.5C 19.5,50.1667 19.5,48.8333 19.5,47.5 Z"/></g>
<g><path style="opacity:1" fill="#4a1700" d="M 23.5,47.5 C 24.8333,47.5 26.1667,47.5 27.5,47.5C 27.5,48.8333 27.5,50.1667 27.5,51.5C 26.1667,51.5 24.8333,51.5 23.5,51.5C 23.5,50.1667 23.5,48.8333 23.5,47.5 Z"/></g>
<g><path style="opacity:1" fill="#d51d1c" d="M 27.5,47.5 C 28.8333,47.5 30.1667,47.5 31.5,47.5C 31.5,48.8333 31.5,50.1667 31.5,51.5C 31.5,52.8333 31.5,54.1667 31.5,55.5C 30.1667,55.5 28.8333,55.5 27.5,55.5C 27.5,54.1667 27.5,52.8333 27.5,51.5C 27.5,50.1667 27.5,48.8333 27.5,47.5 Z"/></g>
<g><path style="opacity:1" fill="#4a1700" d="M 31.5,47.5 C 32.8333,47.5 34.1667,47.5 35.5,47.5C 35.5,48.8333 35.5,50.1667 35.5,51.5C 34.1667,51.5 32.8333,51.5 31.5,51.5C 31.5,50.1667 31.5,48.8333 31.5,47.5 Z"/></g>
<g><path style="opacity:1" fill="#b67e36" d="M 35.5,47.5 C 36.8333,47.5 38.1667,47.5 39.5,47.5C 39.5,48.8333 39.5,50.1667 39.5,51.5C 38.1667,51.5 36.8333,51.5 35.5,51.5C 35.5,50.1667 35.5,48.8333 35.5,47.5 Z"/></g>
<g><path style="opacity:1" fill="#4a1700" d="M 39.5,47.5 C 40.8333,47.5 42.1667,47.5 43.5,47.5C 43.5,50.1667 43.5,52.8333 43.5,55.5C 44.8333,55.5 46.1667,55.5 47.5,55.5C 47.5,56.8333 47.5,58.1667 47.5,59.5C 47.5,62.1667 47.5,64.8333 47.5,67.5C 48.8333,67.5 50.1667,67.5 51.5,67.5C 51.5,68.8333 51.5,70.1667 51.5,71.5C 50.1667,71.5 48.8333,71.5 47.5,71.5C 47.5,72.8333 47.5,74.1667 47.5,75.5C 47.5,78.1667 47.5,80.8333 47.5,83.5C 47.5,84.8333 47.5,86.1667 47.5,87.5C 46.1667,87.5 44.8333,87.5 43.5,87.5C 43.5,84.8333 43.5,82.1667 43.5,79.5C 43.5,76.8333 43.5,74.1667 43.5,71.5C 43.5,70.1667 43.5,68.8333 43.5,67.5C 43.5,66.1667 43.5,64.8333 43.5,63.5C 43.5,62.1667 43.5,60.8333 43.5,59.5C 42.1667,59.5 40.8333,59.5 39.5,59.5C 39.5,58.1667 39.5,56.8333 39.5,55.5C 38.1667,55.5 36.8333,55.5 35.5,55.5C 35.5,54.1667 35.5,52.8333 35.5,51.5C 36.8333,51.5 38.1667,51.5 39.5,51.5C 39.5,50.1667 39.5,48.8333 39.5,47.5 Z"/></g>
<g><path style="opacity:1" fill="#b67e36" d="M 23.5,51.5 C 24.8333,51.5 26.1667,51.5 27.5,51.5C 27.5,52.8333 27.5,54.1667 27.5,55.5C 26.1667,55.5 24.8333,55.5 23.5,55.5C 23.5,54.1667 23.5,52.8333 23.5,51.5 Z"/></g>
<g><path style="opacity:1" fill="#b67e36" d="M 31.5,51.5 C 32.8333,51.5 34.1667,51.5 35.5,51.5C 35.5,52.8333 35.5,54.1667 35.5,55.5C 34.1667,55.5 32.8333,55.5 31.5,55.5C 31.5,54.1667 31.5,52.8333 31.5,51.5 Z"/></g>
<g><path style="opacity:1" fill="#d51d1c" d="M 23.5,55.5 C 23.5,56.8333 23.5,58.1667 23.5,59.5C 22.1667,59.5 20.8333,59.5 19.5,59.5C 19.5,58.1667 19.5,56.8333 19.5,55.5C 20.8333,55.5 22.1667,55.5 23.5,55.5 Z"/></g>
<g><path style="opacity:1" fill="#4a1700" d="M 23.5,55.5 C 24.8333,55.5 26.1667,55.5 27.5,55.5C 28.8333,55.5 30.1667,55.5 31.5,55.5C 32.8333,55.5 34.1667,55.5 35.5,55.5C 35.5,56.8333 35.5,58.1667 35.5,59.5C 31.5,59.5 27.5,59.5 23.5,59.5C 23.5,58.1667 23.5,56.8333 23.5,55.5 Z"/></g>
<g><path style="opacity:1" fill="#d51d1c" d="M 35.5,55.5 C 36.8333,55.5 38.1667,55.5 39.5,55.5C 39.5,56.8333 39.5,58.1667 39.5,59.5C 38.1667,59.5 36.8333,59.5 35.5,59.5C 35.5,58.1667 35.5,56.8333 35.5,55.5 Z"/></g>
<g><path style="opacity:0.365" fill="#000000" d="M 11.5,59.5 C 11.5,62.1667 11.5,64.8333 11.5,67.5C 10.1667,67.5 8.83333,67.5 7.5,67.5C 7.5,68.8333 7.5,70.1667 7.5,71.5C 6.16667,71.5 4.83333,71.5 3.5,71.5C 3.5,68.8333 3.5,66.1667 3.5,63.5C 4.83333,63.5 6.16667,63.5 7.5,63.5C 7.5,62.1667 7.5,60.8333 7.5,59.5C 8.83333,59.5 10.1667,59.5 11.5,59.5 Z"/></g>
<g><path style="opacity:1" fill="#914d27" d="M 19.5,59.5 C 19.5,60.8333 19.5,62.1667 19.5,63.5C 18.1667,63.5 16.8333,63.5 15.5,63.5C 15.5,62.1667 15.5,60.8333 15.5,59.5C 16.8333,59.5 18.1667,59.5 19.5,59.5 Z"/></g>
<g><path style="opacity:1" fill="#4a1700" d="M 19.5,59.5 C 20.8333,59.5 22.1667,59.5 23.5,59.5C 23.5,60.8333 23.5,62.1667 23.5,63.5C 22.1667,63.5 20.8333,63.5 19.5,63.5C 19.5,62.1667 19.5,60.8333 19.5,59.5 Z"/></g>
<g><path style="opacity:1" fill="#fe4a49" d="M 23.5,59.5 C 27.5,59.5 31.5,59.5 35.5,59.5C 35.5,60.8333 35.5,62.1667 35.5,63.5C 31.5,63.5 27.5,63.5 23.5,63.5C 23.5,62.1667 23.5,60.8333 23.5,59.5 Z"/></g>
<g><path style="opacity:1" fill="#4a1700" d="M 35.5,59.5 C 36.8333,59.5 38.1667,59.5 39.5,59.5C 39.5,60.8333 39.5,62.1667 39.5,63.5C 38.1667,63.5 36.8333,63.5 35.5,63.5C 35.5,62.1667 35.5,60.8333 35.5,59.5 Z"/></g>
<g><path style="opacity:1" fill="#914d27" d="M 39.5,59.5 C 40.8333,59.5 42.1667,59.5 43.5,59.5C 43.5,60.8333 43.5,62.1667 43.5,63.5C 42.1667,63.5 40.8333,63.5 39.5,63.5C 39.5,62.1667 39.5,60.8333 39.5,59.5 Z"/></g>
<g><path style="opacity:0.365" fill="#000000" d="M 47.5,59.5 C 48.8333,59.5 50.1667,59.5 51.5,59.5C 51.5,60.8333 51.5,62.1667 51.5,63.5C 52.8333,63.5 54.1667,63.5 55.5,63.5C 55.5,66.1667 55.5,68.8333 55.5,71.5C 54.1667,71.5 52.8333,71.5 51.5,71.5C 51.5,70.1667 51.5,68.8333 51.5,67.5C 50.1667,67.5 48.8333,67.5 47.5,67.5C 47.5,64.8333 47.5,62.1667 47.5,59.5 Z"/></g>
<g><path style="opacity:1" fill="#b67e36" d="M 15.5,63.5 C 16.8333,63.5 18.1667,63.5 19.5,63.5C 19.5,64.8333 19.5,66.1667 19.5,67.5C 18.1667,67.5 16.8333,67.5 15.5,67.5C 15.5,66.1667 15.5,64.8333 15.5,63.5 Z"/></g>
<g><path style="opacity:1" fill="#914d27" d="M 19.5,63.5 C 20.8333,63.5 22.1667,63.5 23.5,63.5C 23.5,64.8333 23.5,66.1667 23.5,67.5C 22.1667,67.5 20.8333,67.5 19.5,67.5C 19.5,66.1667 19.5,64.8333 19.5,63.5 Z"/></g>
<g><path style="opacity:1" fill="#4a1700" d="M 23.5,63.5 C 27.5,63.5 31.5,63.5 35.5,63.5C 35.5,64.8333 35.5,66.1667 35.5,67.5C 31.5,67.5 27.5,67.5 23.5,67.5C 23.5,66.1667 23.5,64.8333 23.5,63.5 Z"/></g>
<g><path style="opacity:1" fill="#914d27" d="M 35.5,63.5 C 36.8333,63.5 38.1667,63.5 39.5,63.5C 39.5,64.8333 39.5,66.1667 39.5,67.5C 38.1667,67.5 36.8333,67.5 35.5,67.5C 35.5,66.1667 35.5,64.8333 35.5,63.5 Z"/></g>
<g><path style="opacity:1" fill="#b67e36" d="M 39.5,63.5 C 40.8333,63.5 42.1667,63.5 43.5,63.5C 43.5,64.8333 43.5,66.1667 43.5,67.5C 42.1667,67.5 40.8333,67.5 39.5,67.5C 39.5,66.1667 39.5,64.8333 39.5,63.5 Z"/></g>
<g><path style="opacity:1" fill="#914d27" d="M 15.5,67.5 C 16.8333,67.5 18.1667,67.5 19.5,67.5C 19.5,68.8333 19.5,70.1667 19.5,71.5C 18.1667,71.5 16.8333,71.5 15.5,71.5C 15.5,70.1667 15.5,68.8333 15.5,67.5 Z"/></g>
<g><path style="opacity:1" fill="#b67e36" d="M 19.5,67.5 C 20.8333,67.5 22.1667,67.5 23.5,67.5C 23.5,68.8333 23.5,70.1667 23.5,71.5C 27.5,71.5 31.5,71.5 35.5,71.5C 35.5,70.1667 35.5,68.8333 35.5,67.5C 36.8333,67.5 38.1667,67.5 39.5,67.5C 39.5,68.8333 39.5,70.1667 39.5,71.5C 40.8333,71.5 42.1667,71.5 43.5,71.5C 43.5,74.1667 43.5,76.8333 43.5,79.5C 42.1667,79.5 40.8333,79.5 39.5,79.5C 39.5,80.8333 39.5,82.1667 39.5,83.5C 38.1667,83.5 36.8333,83.5 35.5,83.5C 35.5,80.8333 35.5,78.1667 35.5,75.5C 34.1667,75.5 32.8333,75.5 31.5,75.5C 30.1667,75.5 28.8333,75.5 27.5,75.5C 26.1667,75.5 24.8333,75.5 23.5,75.5C 23.5,78.1667 23.5,80.8333 23.5,83.5C 22.1667,83.5 20.8333,83.5 19.5,83.5C 19.5,82.1667 19.5,80.8333 19.5,79.5C 18.1667,79.5 16.8333,79.5 15.5,79.5C 15.5,76.8333 15.5,74.1667 15.5,71.5C 16.8333,71.5 18.1667,71.5 19.5,71.5C 19.5,70.1667 19.5,68.8333 19.5,67.5 Z"/></g>
<g><path style="opacity:1" fill="#914d27" d="M 23.5,67.5 C 27.5,67.5 31.5,67.5 35.5,67.5C 35.5,68.8333 35.5,70.1667 35.5,71.5C 31.5,71.5 27.5,71.5 23.5,71.5C 23.5,70.1667 23.5,68.8333 23.5,67.5 Z"/></g>
<g><path style="opacity:1" fill="#914d27" d="M 39.5,67.5 C 40.8333,67.5 42.1667,67.5 43.5,67.5C 43.5,68.8333 43.5,70.1667 43.5,71.5C 42.1667,71.5 40.8333,71.5 39.5,71.5C 39.5,70.1667 39.5,68.8333 39.5,67.5 Z"/></g>
<g><path style="opacity:0.365" fill="#000000" d="M -0.5,71.5 C 0.833333,71.5 2.16667,71.5 3.5,71.5C 3.5,76.8333 3.5,82.1667 3.5,87.5C 4.83333,87.5 6.16667,87.5 7.5,87.5C 7.5,90.1667 7.5,92.8333 7.5,95.5C 8.83333,95.5 10.1667,95.5 11.5,95.5C 11.5,96.8333 11.5,98.1667 11.5,99.5C 15.5,99.5 19.5,99.5 23.5,99.5C 23.5,98.1667 23.5,96.8333 23.5,95.5C 24.8333,95.5 26.1667,95.5 27.5,95.5C 27.5,94.1667 27.5,92.8333 27.5,91.5C 28.8333,91.5 30.1667,91.5 31.5,91.5C 31.5,92.8333 31.5,94.1667 31.5,95.5C 32.8333,95.5 34.1667,95.5 35.5,95.5C 35.5,96.8333 35.5,98.1667 35.5,99.5C 39.5,99.5 43.5,99.5 47.5,99.5C 47.5,98.1667 47.5,96.8333 47.5,95.5C 48.8333,95.5 50.1667,95.5 51.5,95.5C 51.5,92.8333 51.5,90.1667 51.5,87.5C 52.8333,87.5 54.1667,87.5 55.5,87.5C 55.5,82.1667 55.5,76.8333 55.5,71.5C 56.8333,71.5 58.1667,71.5 59.5,71.5C 59.5,78.1667 59.5,84.8333 59.5,91.5C 58.1667,91.5 56.8333,91.5 55.5,91.5C 55.5,94.1667 55.5,96.8333 55.5,99.5C 54.1667,99.5 52.8333,99.5 51.5,99.5C 51.5,100.833 51.5,102.167 51.5,103.5C 48.8333,103.5 46.1667,103.5 43.5,103.5C 43.5,104.833 43.5,106.167 43.5,107.5C 34.1667,107.5 24.8333,107.5 15.5,107.5C 15.5,106.167 15.5,104.833 15.5,103.5C 12.8333,103.5 10.1667,103.5 7.5,103.5C 7.5,102.167 7.5,100.833 7.5,99.5C 6.16667,99.5 4.83333,99.5 3.5,99.5C 3.5,96.8333 3.5,94.1667 3.5,91.5C 2.16667,91.5 0.833333,91.5 -0.5,91.5C -0.5,84.8333 -0.5,78.1667 -0.5,71.5 Z"/></g>
<g><path style="opacity:1" fill="#4a1700" d="M 3.5,71.5 C 4.83333,71.5 6.16667,71.5 7.5,71.5C 7.5,72.8333 7.5,74.1667 7.5,75.5C 7.5,78.1667 7.5,80.8333 7.5,83.5C 7.5,84.8333 7.5,86.1667 7.5,87.5C 6.16667,87.5 4.83333,87.5 3.5,87.5C 3.5,82.1667 3.5,76.8333 3.5,71.5 Z"/></g>
<g><path style="opacity:1" fill="#914d27" d="M 7.5,71.5 C 8.83333,71.5 10.1667,71.5 11.5,71.5C 11.5,72.8333 11.5,74.1667 11.5,75.5C 10.1667,75.5 8.83333,75.5 7.5,75.5C 7.5,74.1667 7.5,72.8333 7.5,71.5 Z"/></g>
<g><path style="opacity:1" fill="#914d27" d="M 51.5,71.5 C 51.5,72.8333 51.5,74.1667 51.5,75.5C 50.1667,75.5 48.8333,75.5 47.5,75.5C 47.5,74.1667 47.5,72.8333 47.5,71.5C 48.8333,71.5 50.1667,71.5 51.5,71.5 Z"/></g>
<g><path style="opacity:1" fill="#4a1700" d="M 51.5,71.5 C 52.8333,71.5 54.1667,71.5 55.5,71.5C 55.5,76.8333 55.5,82.1667 55.5,87.5C 54.1667,87.5 52.8333,87.5 51.5,87.5C 51.5,86.1667 51.5,84.8333 51.5,83.5C 51.5,80.8333 51.5,78.1667 51.5,75.5C 51.5,74.1667 51.5,72.8333 51.5,71.5 Z"/></g>
<g><path style="opacity:1" fill="#b67e36" d="M 7.5,75.5 C 8.83333,75.5 10.1667,75.5 11.5,75.5C 11.5,78.1667 11.5,80.8333 11.5,83.5C 10.1667,83.5 8.83333,83.5 7.5,83.5C 7.5,80.8333 7.5,78.1667 7.5,75.5 Z"/></g>
<g><path style="opacity:1" fill="#4a1700" d="M 27.5,75.5 C 27.5,76.8333 27.5,78.1667 27.5,79.5C 28.8333,79.5 30.1667,79.5 31.5,79.5C 31.5,78.1667 31.5,76.8333 31.5,75.5C 32.8333,75.5 34.1667,75.5 35.5,75.5C 35.5,78.1667 35.5,80.8333 35.5,83.5C 35.5,86.1667 35.5,88.8333 35.5,91.5C 35.5,92.8333 35.5,94.1667 35.5,95.5C 34.1667,95.5 32.8333,95.5 31.5,95.5C 31.5,94.1667 31.5,92.8333 31.5,91.5C 30.1667,91.5 28.8333,91.5 27.5,91.5C 27.5,92.8333 27.5,94.1667 27.5,95.5C 26.1667,95.5 24.8333,95.5 23.5,95.5C 23.5,94.1667 23.5,92.8333 23.5,91.5C 23.5,88.8333 23.5,86.1667 23.5,83.5C 23.5,80.8333 23.5,78.1667 23.5,75.5C 24.8333,75.5 26.1667,75.5 27.5,75.5 Z"/></g>
<g><path style="opacity:1" fill="#914d27" d="M 27.5,75.5 C 28.8333,75.5 30.1667,75.5 31.5,75.5C 31.5,76.8333 31.5,78.1667 31.5,79.5C 30.1667,79.5 28.8333,79.5 27.5,79.5C 27.5,78.1667 27.5,76.8333 27.5,75.5 Z"/></g>
<g><path style="opacity:1" fill="#b67e36" d="M 47.5,75.5 C 48.8333,75.5 50.1667,75.5 51.5,75.5C 51.5,78.1667 51.5,80.8333 51.5,83.5C 50.1667,83.5 48.8333,83.5 47.5,83.5C 47.5,80.8333 47.5,78.1667 47.5,75.5 Z"/></g>
<g><path style="opacity:1" fill="#f9c782" d="M 15.5,79.5 C 16.8333,79.5 18.1667,79.5 19.5,79.5C 19.5,80.8333 19.5,82.1667 19.5,83.5C 20.8333,83.5 22.1667,83.5 23.5,83.5C 23.5,86.1667 23.5,88.8333 23.5,91.5C 22.1667,91.5 20.8333,91.5 19.5,91.5C 19.5,92.8333 19.5,94.1667 19.5,95.5C 16.8333,95.5 14.1667,95.5 11.5,95.5C 11.5,94.1667 11.5,92.8333 11.5,91.5C 12.8333,91.5 14.1667,91.5 15.5,91.5C 15.5,90.1667 15.5,88.8333 15.5,87.5C 15.5,84.8333 15.5,82.1667 15.5,79.5 Z"/></g>
<g><path style="opacity:1" fill="#f9c782" d="M 43.5,79.5 C 43.5,82.1667 43.5,84.8333 43.5,87.5C 43.5,88.8333 43.5,90.1667 43.5,91.5C 44.8333,91.5 46.1667,91.5 47.5,91.5C 47.5,92.8333 47.5,94.1667 47.5,95.5C 44.8333,95.5 42.1667,95.5 39.5,95.5C 39.5,94.1667 39.5,92.8333 39.5,91.5C 38.1667,91.5 36.8333,91.5 35.5,91.5C 35.5,88.8333 35.5,86.1667 35.5,83.5C 36.8333,83.5 38.1667,83.5 39.5,83.5C 39.5,82.1667 39.5,80.8333 39.5,79.5C 40.8333,79.5 42.1667,79.5 43.5,79.5 Z"/></g>
<g><path style="opacity:1" fill="#914d27" d="M 7.5,83.5 C 8.83333,83.5 10.1667,83.5 11.5,83.5C 11.5,84.8333 11.5,86.1667 11.5,87.5C 10.1667,87.5 8.83333,87.5 7.5,87.5C 7.5,86.1667 7.5,84.8333 7.5,83.5 Z"/></g>
<g><path style="opacity:1" fill="#914d27" d="M 27.5,83.5 C 28.8333,83.5 30.1667,83.5 31.5,83.5C 31.5,84.8333 31.5,86.1667 31.5,87.5C 30.1667,87.5 28.8333,87.5 27.5,87.5C 27.5,86.1667 27.5,84.8333 27.5,83.5 Z"/></g>
<g><path style="opacity:1" fill="#914d27" d="M 47.5,83.5 C 48.8333,83.5 50.1667,83.5 51.5,83.5C 51.5,84.8333 51.5,86.1667 51.5,87.5C 50.1667,87.5 48.8333,87.5 47.5,87.5C 47.5,86.1667 47.5,84.8333 47.5,83.5 Z"/></g>
<g><path style="opacity:1" fill="#4a1700" d="M 7.5,87.5 C 8.83333,87.5 10.1667,87.5 11.5,87.5C 11.5,88.8333 11.5,90.1667 11.5,91.5C 11.5,92.8333 11.5,94.1667 11.5,95.5C 10.1667,95.5 8.83333,95.5 7.5,95.5C 7.5,92.8333 7.5,90.1667 7.5,87.5 Z"/></g>
<g><path style="opacity:1" fill="#b67e36" d="M 11.5,87.5 C 12.8333,87.5 14.1667,87.5 15.5,87.5C 15.5,88.8333 15.5,90.1667 15.5,91.5C 14.1667,91.5 12.8333,91.5 11.5,91.5C 11.5,90.1667 11.5,88.8333 11.5,87.5 Z"/></g>
<g><path style="opacity:1" fill="#b67e36" d="M 43.5,87.5 C 44.8333,87.5 46.1667,87.5 47.5,87.5C 47.5,88.8333 47.5,90.1667 47.5,91.5C 46.1667,91.5 44.8333,91.5 43.5,91.5C 43.5,90.1667 43.5,88.8333 43.5,87.5 Z"/></g>
<g><path style="opacity:1" fill="#4a1700" d="M 47.5,87.5 C 48.8333,87.5 50.1667,87.5 51.5,87.5C 51.5,90.1667 51.5,92.8333 51.5,95.5C 50.1667,95.5 48.8333,95.5 47.5,95.5C 47.5,94.1667 47.5,92.8333 47.5,91.5C 47.5,90.1667 47.5,88.8333 47.5,87.5 Z"/></g>
<g><path style="opacity:1" fill="#b67e36" d="M 23.5,91.5 C 23.5,92.8333 23.5,94.1667 23.5,95.5C 22.1667,95.5 20.8333,95.5 19.5,95.5C 19.5,94.1667 19.5,92.8333 19.5,91.5C 20.8333,91.5 22.1667,91.5 23.5,91.5 Z"/></g>
<g><path style="opacity:1" fill="#b67e36" d="M 35.5,91.5 C 36.8333,91.5 38.1667,91.5 39.5,91.5C 39.5,92.8333 39.5,94.1667 39.5,95.5C 38.1667,95.5 36.8333,95.5 35.5,95.5C 35.5,94.1667 35.5,92.8333 35.5,91.5 Z"/></g>
<g><path style="opacity:1" fill="#4a1700" d="M 11.5,95.5 C 14.1667,95.5 16.8333,95.5 19.5,95.5C 20.8333,95.5 22.1667,95.5 23.5,95.5C 23.5,96.8333 23.5,98.1667 23.5,99.5C 19.5,99.5 15.5,99.5 11.5,99.5C 11.5,98.1667 11.5,96.8333 11.5,95.5 Z"/></g>
<g><path style="opacity:1" fill="#4a1700" d="M 35.5,95.5 C 36.8333,95.5 38.1667,95.5 39.5,95.5C 42.1667,95.5 44.8333,95.5 47.5,95.5C 47.5,96.8333 47.5,98.1667 47.5,99.5C 43.5,99.5 39.5,99.5 35.5,99.5C 35.5,98.1667 35.5,96.8333 35.5,95.5 Z"/></g>
</svg>
