<?xml version="1.0" encoding="UTF-8"?>
<!DOCTYPE svg PUBLIC "-//W3C//DTD SVG 1.1//EN" "http://www.w3.org/Graphics/SVG/1.1/DTD/svg11.dtd">
<svg xmlns="http://www.w3.org/2000/svg" version="1.1" width="48px" height="48px" style="shape-rendering:geometricPrecision; text-rendering:geometricPrecision; image-rendering:optimizeQuality; fill-rule:evenodd; clip-rule:evenodd" xmlns:xlink="http://www.w3.org/1999/xlink">
<g><path style="opacity:1" fill="#03322a" d="M 41.5,8.5 C 40.5,8.5 39.5,8.5 38.5,8.5C 38.5,7.5 38.5,6.5 38.5,5.5C 40.5,5.5 42.5,5.5 44.5,5.5C 44.5,6.5 44.5,7.5 44.5,8.5C 43.5,8.5 42.5,8.5 41.5,8.5 Z"/></g>
<g><path style="opacity:1" fill="#0b3925" d="M 38.5,8.5 C 38.5,9.5 38.5,10.5 38.5,11.5C 39.5,11.5 40.5,11.5 41.5,11.5C 41.5,12.5 41.5,13.5 41.5,14.5C 40.5,14.5 39.5,14.5 38.5,14.5C 37.5,14.5 36.5,14.5 35.5,14.5C 35.5,13.5 35.5,12.5 35.5,11.5C 34.5,11.5 33.5,11.5 32.5,11.5C 32.5,10.5 32.5,9.5 32.5,8.5C 34.5,8.5 36.5,8.5 38.5,8.5 Z"/></g>
<g><path style="opacity:1" fill="#319800" d="M 38.5,8.5 C 39.5,8.5 40.5,8.5 41.5,8.5C 41.5,9.5 41.5,10.5 41.5,11.5C 40.5,11.5 39.5,11.5 38.5,11.5C 38.5,10.5 38.5,9.5 38.5,8.5 Z"/></g>
<g><path style="opacity:1" fill="#361277" d="M 32.5,11.5 C 33.5,11.5 34.5,11.5 35.5,11.5C 35.5,12.5 35.5,13.5 35.5,14.5C 34.5,14.5 33.5,14.5 32.5,14.5C 32.5,15.5 32.5,16.5 32.5,17.5C 31.5,17.5 30.5,17.5 29.5,17.5C 29.5,18.5 29.5,19.5 29.5,20.5C 26.5,20.5 23.5,20.5 20.5,20.5C 20.5,19.5 20.5,18.5 20.5,17.5C 22.5,17.5 24.5,17.5 26.5,17.5C 26.5,16.5 26.5,15.5 26.5,14.5C 27.5,14.5 28.5,14.5 29.5,14.5C 29.5,13.5 29.5,12.5 29.5,11.5C 30.5,11.5 31.5,11.5 32.5,11.5 Z"/></g>
<g><path style="opacity:1" fill="#291251" d="M 38.5,14.5 C 39.5,14.5 40.5,14.5 41.5,14.5C 41.5,17.5 41.5,20.5 41.5,23.5C 40.5,23.5 39.5,23.5 38.5,23.5C 38.5,20.5 38.5,17.5 38.5,14.5 Z"/></g>
<g><path style="opacity:1" fill="#291251" d="M 20.5,20.5 C 20.5,21.5 20.5,22.5 20.5,23.5C 19.5,23.5 18.5,23.5 17.5,23.5C 15.5,23.5 13.5,23.5 11.5,23.5C 11.5,22.5 11.5,21.5 11.5,20.5C 14.5,20.5 17.5,20.5 20.5,20.5 Z"/></g>
<g><path style="opacity:1" fill="#3e108c" d="M 11.5,23.5 C 13.5,23.5 15.5,23.5 17.5,23.5C 17.5,24.5 17.5,25.5 17.5,26.5C 16.5,26.5 15.5,26.5 14.5,26.5C 14.5,28.5 14.5,30.5 14.5,32.5C 15.5,32.5 16.5,32.5 17.5,32.5C 17.5,33.5 17.5,34.5 17.5,35.5C 19.5,35.5 21.5,35.5 23.5,35.5C 23.5,36.5 23.5,37.5 23.5,38.5C 19.5,38.5 15.5,38.5 11.5,38.5C 10.5,38.5 9.5,38.5 8.5,38.5C 8.5,37.5 8.5,36.5 8.5,35.5C 8.5,32.5 8.5,29.5 8.5,26.5C 8.5,25.5 8.5,24.5 8.5,23.5C 9.5,23.5 10.5,23.5 11.5,23.5 Z"/></g>
<g><path style="opacity:1" fill="#612cbf" d="M 35.5,14.5 C 36.5,14.5 37.5,14.5 38.5,14.5C 38.5,17.5 38.5,20.5 38.5,23.5C 37.5,23.5 36.5,23.5 35.5,23.5C 35.5,25.5 35.5,27.5 35.5,29.5C 34.5,29.5 33.5,29.5 32.5,29.5C 32.5,27.5 32.5,25.5 32.5,23.5C 31.5,23.5 30.5,23.5 29.5,23.5C 29.5,24.5 29.5,25.5 29.5,26.5C 26.5,26.5 23.5,26.5 20.5,26.5C 20.5,27.5 20.5,28.5 20.5,29.5C 21.5,29.5 22.5,29.5 23.5,29.5C 23.5,30.5 23.5,31.5 23.5,32.5C 25.5,32.5 27.5,32.5 29.5,32.5C 29.5,33.5 29.5,34.5 29.5,35.5C 27.5,35.5 25.5,35.5 23.5,35.5C 21.5,35.5 19.5,35.5 17.5,35.5C 17.5,34.5 17.5,33.5 17.5,32.5C 16.5,32.5 15.5,32.5 14.5,32.5C 14.5,30.5 14.5,28.5 14.5,26.5C 15.5,26.5 16.5,26.5 17.5,26.5C 17.5,25.5 17.5,24.5 17.5,23.5C 18.5,23.5 19.5,23.5 20.5,23.5C 20.5,22.5 20.5,21.5 20.5,20.5C 23.5,20.5 26.5,20.5 29.5,20.5C 29.5,19.5 29.5,18.5 29.5,17.5C 30.5,17.5 31.5,17.5 32.5,17.5C 32.5,16.5 32.5,15.5 32.5,14.5C 33.5,14.5 34.5,14.5 35.5,14.5 Z"/></g>
<g><path style="opacity:1" fill="#291251" d="M 38.5,23.5 C 38.5,25.5 38.5,27.5 38.5,29.5C 37.5,29.5 36.5,29.5 35.5,29.5C 35.5,27.5 35.5,25.5 35.5,23.5C 36.5,23.5 37.5,23.5 38.5,23.5 Z"/></g>
<g><path style="opacity:1" fill="#291251" d="M 8.5,26.5 C 8.5,29.5 8.5,32.5 8.5,35.5C 7.5,35.5 6.5,35.5 5.5,35.5C 5.5,32.5 5.5,29.5 5.5,26.5C 6.5,26.5 7.5,26.5 8.5,26.5 Z"/></g>
<g><path style="opacity:1" fill="#7f52d1" d="M 32.5,29.5 C 32.5,30.5 32.5,31.5 32.5,32.5C 31.5,32.5 30.5,32.5 29.5,32.5C 27.5,32.5 25.5,32.5 23.5,32.5C 23.5,31.5 23.5,30.5 23.5,29.5C 22.5,29.5 21.5,29.5 20.5,29.5C 20.5,28.5 20.5,27.5 20.5,26.5C 23.5,26.5 26.5,26.5 29.5,26.5C 29.5,25.5 29.5,24.5 29.5,23.5C 30.5,23.5 31.5,23.5 32.5,23.5C 32.5,25.5 32.5,27.5 32.5,29.5 Z"/></g>
<g><path style="opacity:1" fill="#291251" d="M 32.5,29.5 C 33.5,29.5 34.5,29.5 35.5,29.5C 35.5,30.5 35.5,31.5 35.5,32.5C 34.5,32.5 33.5,32.5 32.5,32.5C 32.5,31.5 32.5,30.5 32.5,29.5 Z"/></g>
<g><path style="opacity:1" fill="#291251" d="M 29.5,32.5 C 30.5,32.5 31.5,32.5 32.5,32.5C 32.5,33.5 32.5,34.5 32.5,35.5C 31.5,35.5 30.5,35.5 29.5,35.5C 29.5,34.5 29.5,33.5 29.5,32.5 Z"/></g>
<g><path style="opacity:1" fill="#291251" d="M 23.5,35.5 C 25.5,35.5 27.5,35.5 29.5,35.5C 29.5,36.5 29.5,37.5 29.5,38.5C 27.5,38.5 25.5,38.5 23.5,38.5C 23.5,37.5 23.5,36.5 23.5,35.5 Z"/></g>
<g><path style="opacity:1" fill="#291251" d="M 11.5,38.5 C 15.5,38.5 19.5,38.5 23.5,38.5C 23.5,39.5 23.5,40.5 23.5,41.5C 19.5,41.5 15.5,41.5 11.5,41.5C 11.5,40.5 11.5,39.5 11.5,38.5 Z"/></g>
</svg>
