<?xml version="1.0" encoding="UTF-8"?>
<!DOCTYPE svg PUBLIC "-//W3C//DTD SVG 1.1//EN" "http://www.w3.org/Graphics/SVG/1.1/DTD/svg11.dtd">
<svg xmlns="http://www.w3.org/2000/svg" version="1.1" width="48px" height="48px" style="shape-rendering:geometricPrecision; text-rendering:geometricPrecision; image-rendering:optimizeQuality; fill-rule:evenodd; clip-rule:evenodd" xmlns:xlink="http://www.w3.org/1999/xlink">
<g><path style="opacity:1" fill="#630300" d="M 29.5,8.5 C 28.5,8.5 27.5,8.5 26.5,8.5C 24.5,8.5 22.5,8.5 20.5,8.5C 19.5,8.5 18.5,8.5 17.5,8.5C 17.5,7.5 17.5,6.5 17.5,5.5C 21.5,5.5 25.5,5.5 29.5,5.5C 29.5,6.5 29.5,7.5 29.5,8.5 Z"/></g>
<g><path style="opacity:1" fill="#630300" d="M 17.5,8.5 C 17.5,9.5 17.5,10.5 17.5,11.5C 16.5,11.5 15.5,11.5 14.5,11.5C 13.5,11.5 12.5,11.5 11.5,11.5C 11.5,10.5 11.5,9.5 11.5,8.5C 13.5,8.5 15.5,8.5 17.5,8.5 Z"/></g>
<g><path style="opacity:1" fill="#9f4c04" d="M 17.5,8.5 C 18.5,8.5 19.5,8.5 20.5,8.5C 20.5,9.5 20.5,10.5 20.5,11.5C 19.5,11.5 18.5,11.5 17.5,11.5C 17.5,10.5 17.5,9.5 17.5,8.5 Z"/></g>
<g><path style="opacity:1" fill="#d56b0a" d="M 20.5,8.5 C 22.5,8.5 24.5,8.5 26.5,8.5C 26.5,9.5 26.5,10.5 26.5,11.5C 27.5,11.5 28.5,11.5 29.5,11.5C 30.5,11.5 31.5,11.5 32.5,11.5C 32.5,12.5 32.5,13.5 32.5,14.5C 30.5,14.5 28.5,14.5 26.5,14.5C 26.5,15.5 26.5,16.5 26.5,17.5C 24.5,17.5 22.5,17.5 20.5,17.5C 20.5,16.5 20.5,15.5 20.5,14.5C 18.5,14.5 16.5,14.5 14.5,14.5C 14.5,13.5 14.5,12.5 14.5,11.5C 15.5,11.5 16.5,11.5 17.5,11.5C 18.5,11.5 19.5,11.5 20.5,11.5C 20.5,10.5 20.5,9.5 20.5,8.5 Z"/></g>
<g><path style="opacity:1" fill="#9f4c04" d="M 26.5,8.5 C 27.5,8.5 28.5,8.5 29.5,8.5C 29.5,9.5 29.5,10.5 29.5,11.5C 28.5,11.5 27.5,11.5 26.5,11.5C 26.5,10.5 26.5,9.5 26.5,8.5 Z"/></g>
<g><path style="opacity:1" fill="#630300" d="M 29.5,8.5 C 31.5,8.5 33.5,8.5 35.5,8.5C 35.5,9.5 35.5,10.5 35.5,11.5C 34.5,11.5 33.5,11.5 32.5,11.5C 31.5,11.5 30.5,11.5 29.5,11.5C 29.5,10.5 29.5,9.5 29.5,8.5 Z"/></g>
<g><path style="opacity:1" fill="#630300" d="M 11.5,11.5 C 11.5,12.5 11.5,13.5 11.5,14.5C 10.5,14.5 9.5,14.5 8.5,14.5C 8.5,13.5 8.5,12.5 8.5,11.5C 9.5,11.5 10.5,11.5 11.5,11.5 Z"/></g>
<g><path style="opacity:1" fill="#9f4c04" d="M 11.5,11.5 C 12.5,11.5 13.5,11.5 14.5,11.5C 14.5,12.5 14.5,13.5 14.5,14.5C 16.5,14.5 18.5,14.5 20.5,14.5C 20.5,15.5 20.5,16.5 20.5,17.5C 22.5,17.5 24.5,17.5 26.5,17.5C 26.5,16.5 26.5,15.5 26.5,14.5C 28.5,14.5 30.5,14.5 32.5,14.5C 32.5,13.5 32.5,12.5 32.5,11.5C 33.5,11.5 34.5,11.5 35.5,11.5C 35.5,12.5 35.5,13.5 35.5,14.5C 36.5,14.5 37.5,14.5 38.5,14.5C 38.5,15.5 38.5,16.5 38.5,17.5C 35.5,17.5 32.5,17.5 29.5,17.5C 29.5,18.5 29.5,19.5 29.5,20.5C 25.5,20.5 21.5,20.5 17.5,20.5C 17.5,19.5 17.5,18.5 17.5,17.5C 14.5,17.5 11.5,17.5 8.5,17.5C 8.5,16.5 8.5,15.5 8.5,14.5C 9.5,14.5 10.5,14.5 11.5,14.5C 11.5,13.5 11.5,12.5 11.5,11.5 Z"/></g>
<g><path style="opacity:1" fill="#630300" d="M 35.5,11.5 C 36.5,11.5 37.5,11.5 38.5,11.5C 38.5,12.5 38.5,13.5 38.5,14.5C 38.5,13.5 38.5,12.5 38.5,11.5C 37.5,11.5 36.5,11.5 35.5,11.5 Z"/></g>
<g><path style="opacity:1" fill="#410000" d="M 8.5,14.5 C 8.5,15.5 8.5,16.5 8.5,17.5C 8.5,20.5 8.5,23.5 8.5,26.5C 7.5,26.5 6.5,26.5 5.5,26.5C 5.5,22.5 5.5,18.5 5.5,14.5C 6.5,14.5 7.5,14.5 8.5,14.5 Z"/></g>
<g><path style="opacity:1" fill="#410000" d="M 38.5,14.5 C 39.5,14.5 40.5,14.5 41.5,14.5C 41.5,18.5 41.5,22.5 41.5,26.5C 40.5,26.5 39.5,26.5 38.5,26.5C 38.5,25.5 38.5,24.5 38.5,23.5C 38.5,21.5 38.5,19.5 38.5,17.5C 38.5,16.5 38.5,15.5 38.5,14.5 Z"/></g>
<g><path style="opacity:1" fill="#5e0200" d="M 8.5,17.5 C 11.5,17.5 14.5,17.5 17.5,17.5C 17.5,18.5 17.5,19.5 17.5,20.5C 21.5,20.5 25.5,20.5 29.5,20.5C 29.5,21.5 29.5,22.5 29.5,23.5C 24.5,23.5 19.5,23.5 14.5,23.5C 14.5,25.5 14.5,27.5 14.5,29.5C 15.5,29.5 16.5,29.5 17.5,29.5C 17.5,30.5 17.5,31.5 17.5,32.5C 18.5,32.5 19.5,32.5 20.5,32.5C 20.5,33.5 20.5,34.5 20.5,35.5C 21.5,35.5 22.5,35.5 23.5,35.5C 23.5,36.5 23.5,37.5 23.5,38.5C 25.5,38.5 27.5,38.5 29.5,38.5C 29.5,39.5 29.5,40.5 29.5,41.5C 28.5,41.5 27.5,41.5 26.5,41.5C 24.5,41.5 22.5,41.5 20.5,41.5C 19.5,41.5 18.5,41.5 17.5,41.5C 17.5,40.5 17.5,39.5 17.5,38.5C 16.5,38.5 15.5,38.5 14.5,38.5C 14.5,37.5 14.5,36.5 14.5,35.5C 13.5,35.5 12.5,35.5 11.5,35.5C 11.5,34.5 11.5,33.5 11.5,32.5C 11.5,30.5 11.5,28.5 11.5,26.5C 10.5,26.5 9.5,26.5 8.5,26.5C 8.5,23.5 8.5,20.5 8.5,17.5 Z"/></g>
<g><path style="opacity:1" fill="#901f00" d="M 38.5,17.5 C 38.5,19.5 38.5,21.5 38.5,23.5C 37.5,23.5 36.5,23.5 35.5,23.5C 35.5,22.5 35.5,21.5 35.5,20.5C 34.5,20.5 33.5,20.5 32.5,20.5C 32.5,21.5 32.5,22.5 32.5,23.5C 31.5,23.5 30.5,23.5 29.5,23.5C 29.5,22.5 29.5,21.5 29.5,20.5C 29.5,19.5 29.5,18.5 29.5,17.5C 32.5,17.5 35.5,17.5 38.5,17.5 Z"/></g>
<g><path style="opacity:1" fill="#901f00" d="M 14.5,23.5 C 13.5,23.5 12.5,23.5 11.5,23.5C 11.5,22.5 11.5,21.5 11.5,20.5C 12.5,20.5 13.5,20.5 14.5,20.5C 14.5,21.5 14.5,22.5 14.5,23.5 Z"/></g>
<g><path style="opacity:1" fill="#bc3703" d="M 38.5,23.5 C 38.5,24.5 38.5,25.5 38.5,26.5C 37.5,26.5 36.5,26.5 35.5,26.5C 35.5,27.5 35.5,28.5 35.5,29.5C 34.5,29.5 33.5,29.5 32.5,29.5C 32.5,28.5 32.5,27.5 32.5,26.5C 31.5,26.5 30.5,26.5 29.5,26.5C 29.5,25.5 29.5,24.5 29.5,23.5C 30.5,23.5 31.5,23.5 32.5,23.5C 32.5,22.5 32.5,21.5 32.5,20.5C 33.5,20.5 34.5,20.5 35.5,20.5C 35.5,21.5 35.5,22.5 35.5,23.5C 36.5,23.5 37.5,23.5 38.5,23.5 Z"/></g>
<g><path style="opacity:1" fill="#901f00" d="M 14.5,23.5 C 19.5,23.5 24.5,23.5 29.5,23.5C 29.5,24.5 29.5,25.5 29.5,26.5C 27.5,26.5 25.5,26.5 23.5,26.5C 23.5,27.5 23.5,28.5 23.5,29.5C 22.5,29.5 21.5,29.5 20.5,29.5C 20.5,28.5 20.5,27.5 20.5,26.5C 19.5,26.5 18.5,26.5 17.5,26.5C 17.5,27.5 17.5,28.5 17.5,29.5C 16.5,29.5 15.5,29.5 14.5,29.5C 14.5,27.5 14.5,25.5 14.5,23.5 Z"/></g>
<g><path style="opacity:1" fill="#410000" d="M 8.5,26.5 C 9.5,26.5 10.5,26.5 11.5,26.5C 11.5,28.5 11.5,30.5 11.5,32.5C 10.5,32.5 9.5,32.5 8.5,32.5C 8.5,30.5 8.5,28.5 8.5,26.5 Z"/></g>
<g><path style="opacity:1" fill="#630300" d="M 20.5,29.5 C 19.5,29.5 18.5,29.5 17.5,29.5C 17.5,28.5 17.5,27.5 17.5,26.5C 18.5,26.5 19.5,26.5 20.5,26.5C 20.5,27.5 20.5,28.5 20.5,29.5 Z"/></g>
<g><path style="opacity:1" fill="#bc3703" d="M 29.5,26.5 C 29.5,27.5 29.5,28.5 29.5,29.5C 27.5,29.5 25.5,29.5 23.5,29.5C 23.5,28.5 23.5,27.5 23.5,26.5C 25.5,26.5 27.5,26.5 29.5,26.5 Z"/></g>
<g><path style="opacity:1" fill="#901f00" d="M 29.5,26.5 C 30.5,26.5 31.5,26.5 32.5,26.5C 32.5,27.5 32.5,28.5 32.5,29.5C 33.5,29.5 34.5,29.5 35.5,29.5C 35.5,30.5 35.5,31.5 35.5,32.5C 34.5,32.5 33.5,32.5 32.5,32.5C 32.5,33.5 32.5,34.5 32.5,35.5C 31.5,35.5 30.5,35.5 29.5,35.5C 29.5,36.5 29.5,37.5 29.5,38.5C 27.5,38.5 25.5,38.5 23.5,38.5C 23.5,37.5 23.5,36.5 23.5,35.5C 22.5,35.5 21.5,35.5 20.5,35.5C 20.5,34.5 20.5,33.5 20.5,32.5C 21.5,32.5 22.5,32.5 23.5,32.5C 23.5,31.5 23.5,30.5 23.5,29.5C 25.5,29.5 27.5,29.5 29.5,29.5C 29.5,28.5 29.5,27.5 29.5,26.5 Z"/></g>
<g><path style="opacity:1" fill="#410000" d="M 38.5,26.5 C 38.5,28.5 38.5,30.5 38.5,32.5C 37.5,32.5 36.5,32.5 35.5,32.5C 35.5,31.5 35.5,30.5 35.5,29.5C 35.5,28.5 35.5,27.5 35.5,26.5C 36.5,26.5 37.5,26.5 38.5,26.5 Z"/></g>
<g><path style="opacity:1" fill="#901f00" d="M 17.5,29.5 C 18.5,29.5 19.5,29.5 20.5,29.5C 20.5,30.5 20.5,31.5 20.5,32.5C 19.5,32.5 18.5,32.5 17.5,32.5C 17.5,31.5 17.5,30.5 17.5,29.5 Z"/></g>
<g><path style="opacity:1" fill="#630300" d="M 20.5,29.5 C 21.5,29.5 22.5,29.5 23.5,29.5C 23.5,30.5 23.5,31.5 23.5,32.5C 22.5,32.5 21.5,32.5 20.5,32.5C 20.5,31.5 20.5,30.5 20.5,29.5 Z"/></g>
<g><path style="opacity:1" fill="#630300" d="M 29.5,35.5 C 28.5,35.5 27.5,35.5 26.5,35.5C 26.5,34.5 26.5,33.5 26.5,32.5C 27.5,32.5 28.5,32.5 29.5,32.5C 29.5,33.5 29.5,34.5 29.5,35.5 Z"/></g>
<g><path style="opacity:1" fill="#410000" d="M 35.5,32.5 C 35.5,33.5 35.5,34.5 35.5,35.5C 34.5,35.5 33.5,35.5 32.5,35.5C 32.5,34.5 32.5,33.5 32.5,32.5C 33.5,32.5 34.5,32.5 35.5,32.5 Z"/></g>
<g><path style="opacity:1" fill="#410000" d="M 29.5,35.5 C 30.5,35.5 31.5,35.5 32.5,35.5C 32.5,36.5 32.5,37.5 32.5,38.5C 31.5,38.5 30.5,38.5 29.5,38.5C 29.5,37.5 29.5,36.5 29.5,35.5 Z"/></g>
<g><path style="opacity:1" fill="#410000" d="M 20.5,41.5 C 22.5,41.5 24.5,41.5 26.5,41.5C 26.5,42.5 26.5,43.5 26.5,44.5C 24.5,44.5 22.5,44.5 20.5,44.5C 20.5,43.5 20.5,42.5 20.5,41.5 Z"/></g>
</svg>
