<?xml version="1.0" encoding="UTF-8"?>
<!DOCTYPE svg PUBLIC "-//W3C//DTD SVG 1.1//EN" "http://www.w3.org/Graphics/SVG/1.1/DTD/svg11.dtd">
<svg xmlns="http://www.w3.org/2000/svg" version="1.1" width="48px" height="48px" style="shape-rendering:geometricPrecision; text-rendering:geometricPrecision; image-rendering:optimizeQuality; fill-rule:evenodd; clip-rule:evenodd" xmlns:xlink="http://www.w3.org/1999/xlink">
<g><path style="opacity:1" fill="#003000" d="M 41.5,-0.5 C 42.5,-0.5 43.5,-0.5 44.5,-0.5C 44.5,4.5 44.5,9.5 44.5,14.5C 43.5,14.5 42.5,14.5 41.5,14.5C 41.5,13.5 41.5,12.5 41.5,11.5C 41.5,9.5 41.5,7.5 41.5,5.5C 39.5,5.5 37.5,5.5 35.5,5.5C 34.5,5.5 33.5,5.5 32.5,5.5C 32.5,4.5 32.5,3.5 32.5,2.5C 35.5,2.5 38.5,2.5 41.5,2.5C 41.5,1.5 41.5,0.5 41.5,-0.5 Z"/></g>
<g><path style="opacity:1" fill="#003400" d="M 32.5,5.5 C 32.5,6.5 32.5,7.5 32.5,8.5C 31.5,8.5 30.5,8.5 29.5,8.5C 29.5,7.5 29.5,6.5 29.5,5.5C 30.5,5.5 31.5,5.5 32.5,5.5 Z"/></g>
<g><path style="opacity:1" fill="#46d000" d="M 35.5,5.5 C 37.5,5.5 39.5,5.5 41.5,5.5C 41.5,7.5 41.5,9.5 41.5,11.5C 40.5,11.5 39.5,11.5 38.5,11.5C 38.5,10.5 38.5,9.5 38.5,8.5C 37.5,8.5 36.5,8.5 35.5,8.5C 35.5,7.5 35.5,6.5 35.5,5.5 Z"/></g>
<g><path style="opacity:1" fill="#003400" d="M -0.5,8.5 C 0.5,8.5 1.5,8.5 2.5,8.5C 2.5,9.5 2.5,10.5 2.5,11.5C 4.5,11.5 6.5,11.5 8.5,11.5C 8.5,12.5 8.5,13.5 8.5,14.5C 6.5,14.5 4.5,14.5 2.5,14.5C 2.5,16.5 2.5,18.5 2.5,20.5C 1.5,20.5 0.5,20.5 -0.5,20.5C -0.5,16.5 -0.5,12.5 -0.5,8.5 Z"/></g>
<g><path style="opacity:1" fill="#126f00" d="M 32.5,5.5 C 33.5,5.5 34.5,5.5 35.5,5.5C 35.5,6.5 35.5,7.5 35.5,8.5C 36.5,8.5 37.5,8.5 38.5,8.5C 38.5,9.5 38.5,10.5 38.5,11.5C 39.5,11.5 40.5,11.5 41.5,11.5C 41.5,12.5 41.5,13.5 41.5,14.5C 40.5,14.5 39.5,14.5 38.5,14.5C 38.5,15.5 38.5,16.5 38.5,17.5C 37.5,17.5 36.5,17.5 35.5,17.5C 35.5,16.5 35.5,15.5 35.5,14.5C 35.5,13.5 35.5,12.5 35.5,11.5C 34.5,11.5 33.5,11.5 32.5,11.5C 32.5,12.5 32.5,13.5 32.5,14.5C 31.5,14.5 30.5,14.5 29.5,14.5C 29.5,12.5 29.5,10.5 29.5,8.5C 30.5,8.5 31.5,8.5 32.5,8.5C 32.5,7.5 32.5,6.5 32.5,5.5 Z"/></g>
<g><path style="opacity:1" fill="#052c03" d="M 17.5,8.5 C 16.5,8.5 15.5,8.5 14.5,8.5C 14.5,10.5 14.5,12.5 14.5,14.5C 15.5,14.5 16.5,14.5 17.5,14.5C 17.5,15.5 17.5,16.5 17.5,17.5C 17.5,18.5 17.5,19.5 17.5,20.5C 17.5,21.5 17.5,22.5 17.5,23.5C 17.5,26.5 17.5,29.5 17.5,32.5C 16.5,32.5 15.5,32.5 14.5,32.5C 14.5,31.5 14.5,30.5 14.5,29.5C 13.5,29.5 12.5,29.5 11.5,29.5C 10.5,29.5 9.5,29.5 8.5,29.5C 8.5,28.5 8.5,27.5 8.5,26.5C 9.5,26.5 10.5,26.5 11.5,26.5C 11.5,25.5 11.5,24.5 11.5,23.5C 10.5,23.5 9.5,23.5 8.5,23.5C 8.5,22.5 8.5,21.5 8.5,20.5C 9.5,20.5 10.5,20.5 11.5,20.5C 11.5,19.5 11.5,18.5 11.5,17.5C 10.5,17.5 9.5,17.5 8.5,17.5C 8.5,16.5 8.5,15.5 8.5,14.5C 9.5,14.5 10.5,14.5 11.5,14.5C 11.5,12.5 11.5,10.5 11.5,8.5C 10.5,8.5 9.5,8.5 8.5,8.5C 8.5,7.5 8.5,6.5 8.5,5.5C 11.5,5.5 14.5,5.5 17.5,5.5C 17.5,6.5 17.5,7.5 17.5,8.5 Z"/></g>
<g><path style="opacity:1" fill="#0e6301" d="M 17.5,8.5 C 18.5,8.5 19.5,8.5 20.5,8.5C 20.5,9.5 20.5,10.5 20.5,11.5C 20.5,13.5 20.5,15.5 20.5,17.5C 19.5,17.5 18.5,17.5 17.5,17.5C 17.5,16.5 17.5,15.5 17.5,14.5C 16.5,14.5 15.5,14.5 14.5,14.5C 14.5,12.5 14.5,10.5 14.5,8.5C 15.5,8.5 16.5,8.5 17.5,8.5 Z"/></g>
<g><path style="opacity:1" fill="#002100" d="M 20.5,11.5 C 22.5,11.5 24.5,11.5 26.5,11.5C 26.5,12.5 26.5,13.5 26.5,14.5C 25.5,14.5 24.5,14.5 23.5,14.5C 23.5,15.5 23.5,16.5 23.5,17.5C 22.5,17.5 21.5,17.5 20.5,17.5C 20.5,15.5 20.5,13.5 20.5,11.5 Z"/></g>
<g><path style="opacity:1" fill="#093d2f" d="M 35.5,14.5 C 34.5,14.5 33.5,14.5 32.5,14.5C 32.5,13.5 32.5,12.5 32.5,11.5C 33.5,11.5 34.5,11.5 35.5,11.5C 35.5,12.5 35.5,13.5 35.5,14.5 Z"/></g>
<g><path style="opacity:1" fill="#159400" d="M 8.5,14.5 C 8.5,15.5 8.5,16.5 8.5,17.5C 9.5,17.5 10.5,17.5 11.5,17.5C 11.5,18.5 11.5,19.5 11.5,20.5C 10.5,20.5 9.5,20.5 8.5,20.5C 7.5,20.5 6.5,20.5 5.5,20.5C 4.5,20.5 3.5,20.5 2.5,20.5C 2.5,18.5 2.5,16.5 2.5,14.5C 4.5,14.5 6.5,14.5 8.5,14.5 Z"/></g>
<g><path style="opacity:1" fill="#fe3f13" d="M 26.5,14.5 C 26.5,15.5 26.5,16.5 26.5,17.5C 25.5,17.5 24.5,17.5 23.5,17.5C 23.5,16.5 23.5,15.5 23.5,14.5C 24.5,14.5 25.5,14.5 26.5,14.5 Z"/></g>
<g><path style="opacity:1" fill="#0d4707" d="M 29.5,8.5 C 29.5,10.5 29.5,12.5 29.5,14.5C 30.5,14.5 31.5,14.5 32.5,14.5C 33.5,14.5 34.5,14.5 35.5,14.5C 35.5,15.5 35.5,16.5 35.5,17.5C 36.5,17.5 37.5,17.5 38.5,17.5C 38.5,18.5 38.5,19.5 38.5,20.5C 37.5,20.5 36.5,20.5 35.5,20.5C 33.5,20.5 31.5,20.5 29.5,20.5C 29.5,19.5 29.5,18.5 29.5,17.5C 28.5,17.5 27.5,17.5 26.5,17.5C 26.5,16.5 26.5,15.5 26.5,14.5C 26.5,13.5 26.5,12.5 26.5,11.5C 26.5,10.5 26.5,9.5 26.5,8.5C 27.5,8.5 28.5,8.5 29.5,8.5 Z"/></g>
<g><path style="opacity:1" fill="#002100" d="M 41.5,14.5 C 41.5,15.5 41.5,16.5 41.5,17.5C 40.5,17.5 39.5,17.5 38.5,17.5C 38.5,16.5 38.5,15.5 38.5,14.5C 39.5,14.5 40.5,14.5 41.5,14.5 Z"/></g>
<g><path style="opacity:1" fill="#2e0401" d="M 17.5,17.5 C 18.5,17.5 19.5,17.5 20.5,17.5C 21.5,17.5 22.5,17.5 23.5,17.5C 23.5,18.5 23.5,19.5 23.5,20.5C 21.5,20.5 19.5,20.5 17.5,20.5C 17.5,19.5 17.5,18.5 17.5,17.5 Z"/></g>
<g><path style="opacity:1" fill="#46d000" d="M 5.5,20.5 C 6.5,20.5 7.5,20.5 8.5,20.5C 8.5,21.5 8.5,22.5 8.5,23.5C 7.5,23.5 6.5,23.5 5.5,23.5C 5.5,22.5 5.5,21.5 5.5,20.5 Z"/></g>
<g><path style="opacity:1" fill="#dd2a0a" d="M 17.5,20.5 C 19.5,20.5 21.5,20.5 23.5,20.5C 24.5,20.5 25.5,20.5 26.5,20.5C 26.5,21.5 26.5,22.5 26.5,23.5C 25.5,23.5 24.5,23.5 23.5,23.5C 23.5,24.5 23.5,25.5 23.5,26.5C 22.5,26.5 21.5,26.5 20.5,26.5C 20.5,25.5 20.5,24.5 20.5,23.5C 19.5,23.5 18.5,23.5 17.5,23.5C 17.5,22.5 17.5,21.5 17.5,20.5 Z"/></g>
<g><path style="opacity:1" fill="#07260c" d="M 23.5,17.5 C 24.5,17.5 25.5,17.5 26.5,17.5C 27.5,17.5 28.5,17.5 29.5,17.5C 29.5,18.5 29.5,19.5 29.5,20.5C 31.5,20.5 33.5,20.5 35.5,20.5C 35.5,21.5 35.5,22.5 35.5,23.5C 36.5,23.5 37.5,23.5 38.5,23.5C 38.5,24.5 38.5,25.5 38.5,26.5C 39.5,26.5 40.5,26.5 41.5,26.5C 41.5,27.5 41.5,28.5 41.5,29.5C 40.5,29.5 39.5,29.5 38.5,29.5C 38.5,30.5 38.5,31.5 38.5,32.5C 37.5,32.5 36.5,32.5 35.5,32.5C 35.5,33.5 35.5,34.5 35.5,35.5C 34.5,35.5 33.5,35.5 32.5,35.5C 32.5,36.5 32.5,37.5 32.5,38.5C 31.5,38.5 30.5,38.5 29.5,38.5C 29.5,36.5 29.5,34.5 29.5,32.5C 29.5,30.5 29.5,28.5 29.5,26.5C 28.5,26.5 27.5,26.5 26.5,26.5C 26.5,25.5 26.5,24.5 26.5,23.5C 26.5,22.5 26.5,21.5 26.5,20.5C 25.5,20.5 24.5,20.5 23.5,20.5C 23.5,19.5 23.5,18.5 23.5,17.5 Z"/></g>
<g><path style="opacity:1" fill="#022500" d="M 2.5,20.5 C 3.5,20.5 4.5,20.5 5.5,20.5C 5.5,21.5 5.5,22.5 5.5,23.5C 6.5,23.5 7.5,23.5 8.5,23.5C 8.5,24.5 8.5,25.5 8.5,26.5C 6.5,26.5 4.5,26.5 2.5,26.5C 2.5,24.5 2.5,22.5 2.5,20.5 Z"/></g>
<g><path style="opacity:1" fill="#008e00" d="M 8.5,23.5 C 9.5,23.5 10.5,23.5 11.5,23.5C 11.5,24.5 11.5,25.5 11.5,26.5C 10.5,26.5 9.5,26.5 8.5,26.5C 8.5,25.5 8.5,24.5 8.5,23.5 Z"/></g>
<g><path style="opacity:1" fill="#fe3f13" d="M 35.5,23.5 C 35.5,24.5 35.5,25.5 35.5,26.5C 34.5,26.5 33.5,26.5 32.5,26.5C 32.5,25.5 32.5,24.5 32.5,23.5C 33.5,23.5 34.5,23.5 35.5,23.5 Z"/></g>
<g><path style="opacity:1" fill="#002100" d="M -0.5,26.5 C 0.5,26.5 1.5,26.5 2.5,26.5C 2.5,28.5 2.5,30.5 2.5,32.5C 1.5,32.5 0.5,32.5 -0.5,32.5C -0.5,30.5 -0.5,28.5 -0.5,26.5 Z"/></g>
<g><path style="opacity:1" fill="#680000" d="M 2.5,26.5 C 4.5,26.5 6.5,26.5 8.5,26.5C 8.5,27.5 8.5,28.5 8.5,29.5C 7.5,29.5 6.5,29.5 5.5,29.5C 5.5,30.5 5.5,31.5 5.5,32.5C 4.5,32.5 3.5,32.5 2.5,32.5C 2.5,30.5 2.5,28.5 2.5,26.5 Z"/></g>
<g><path style="opacity:1" fill="#890001" d="M 17.5,23.5 C 18.5,23.5 19.5,23.5 20.5,23.5C 20.5,24.5 20.5,25.5 20.5,26.5C 21.5,26.5 22.5,26.5 23.5,26.5C 23.5,25.5 23.5,24.5 23.5,23.5C 24.5,23.5 25.5,23.5 26.5,23.5C 26.5,24.5 26.5,25.5 26.5,26.5C 26.5,27.5 26.5,28.5 26.5,29.5C 25.5,29.5 24.5,29.5 23.5,29.5C 23.5,31.5 23.5,33.5 23.5,35.5C 22.5,35.5 21.5,35.5 20.5,35.5C 20.5,34.5 20.5,33.5 20.5,32.5C 19.5,32.5 18.5,32.5 17.5,32.5C 17.5,29.5 17.5,26.5 17.5,23.5 Z"/></g>
<g><path style="opacity:1" fill="#d52408" d="M 8.5,29.5 C 9.5,29.5 10.5,29.5 11.5,29.5C 11.5,30.5 11.5,31.5 11.5,32.5C 11.5,33.5 11.5,34.5 11.5,35.5C 10.5,35.5 9.5,35.5 8.5,35.5C 8.5,34.5 8.5,33.5 8.5,32.5C 7.5,32.5 6.5,32.5 5.5,32.5C 5.5,31.5 5.5,30.5 5.5,29.5C 6.5,29.5 7.5,29.5 8.5,29.5 Z"/></g>
<g><path style="opacity:1" fill="#680000" d="M 11.5,29.5 C 12.5,29.5 13.5,29.5 14.5,29.5C 14.5,30.5 14.5,31.5 14.5,32.5C 13.5,32.5 12.5,32.5 11.5,32.5C 11.5,31.5 11.5,30.5 11.5,29.5 Z"/></g>
<g><path style="opacity:1" fill="#550002" d="M 26.5,26.5 C 27.5,26.5 28.5,26.5 29.5,26.5C 29.5,28.5 29.5,30.5 29.5,32.5C 28.5,32.5 27.5,32.5 26.5,32.5C 26.5,33.5 26.5,34.5 26.5,35.5C 25.5,35.5 24.5,35.5 23.5,35.5C 23.5,33.5 23.5,31.5 23.5,29.5C 24.5,29.5 25.5,29.5 26.5,29.5C 26.5,28.5 26.5,27.5 26.5,26.5 Z"/></g>
<g><path style="opacity:1" fill="#008e00" d="M 35.5,32.5 C 34.5,32.5 33.5,32.5 32.5,32.5C 32.5,31.5 32.5,30.5 32.5,29.5C 33.5,29.5 34.5,29.5 35.5,29.5C 35.5,30.5 35.5,31.5 35.5,32.5 Z"/></g>
<g><path style="opacity:1" fill="#002100" d="M 2.5,32.5 C 3.5,32.5 4.5,32.5 5.5,32.5C 5.5,33.5 5.5,34.5 5.5,35.5C 4.5,35.5 3.5,35.5 2.5,35.5C 2.5,34.5 2.5,33.5 2.5,32.5 Z"/></g>
<g><path style="opacity:1" fill="#680000" d="M 5.5,32.5 C 6.5,32.5 7.5,32.5 8.5,32.5C 8.5,33.5 8.5,34.5 8.5,35.5C 7.5,35.5 6.5,35.5 5.5,35.5C 5.5,34.5 5.5,33.5 5.5,32.5 Z"/></g>
<g><path style="opacity:1" fill="#0d4404" d="M 11.5,32.5 C 12.5,32.5 13.5,32.5 14.5,32.5C 15.5,32.5 16.5,32.5 17.5,32.5C 17.5,33.5 17.5,34.5 17.5,35.5C 15.5,35.5 13.5,35.5 11.5,35.5C 11.5,34.5 11.5,33.5 11.5,32.5 Z"/></g>
<g><path style="opacity:1" fill="#012300" d="M 38.5,32.5 C 39.5,32.5 40.5,32.5 41.5,32.5C 41.5,34.5 41.5,36.5 41.5,38.5C 42.5,38.5 43.5,38.5 44.5,38.5C 44.5,39.5 44.5,40.5 44.5,41.5C 40.5,41.5 36.5,41.5 32.5,41.5C 32.5,40.5 32.5,39.5 32.5,38.5C 34.5,38.5 36.5,38.5 38.5,38.5C 38.5,36.5 38.5,34.5 38.5,32.5 Z"/></g>
<g><path style="opacity:1" fill="#012300" d="M 5.5,35.5 C 6.5,35.5 7.5,35.5 8.5,35.5C 9.5,35.5 10.5,35.5 11.5,35.5C 11.5,36.5 11.5,37.5 11.5,38.5C 13.5,38.5 15.5,38.5 17.5,38.5C 17.5,39.5 17.5,40.5 17.5,41.5C 13.5,41.5 9.5,41.5 5.5,41.5C 5.5,39.5 5.5,37.5 5.5,35.5 Z"/></g>
<g><path style="opacity:1" fill="#1fa300" d="M 11.5,35.5 C 13.5,35.5 15.5,35.5 17.5,35.5C 17.5,36.5 17.5,37.5 17.5,38.5C 15.5,38.5 13.5,38.5 11.5,38.5C 11.5,37.5 11.5,36.5 11.5,35.5 Z"/></g>
<g><path style="opacity:1" fill="#38bf00" d="M 35.5,32.5 C 36.5,32.5 37.5,32.5 38.5,32.5C 38.5,34.5 38.5,36.5 38.5,38.5C 36.5,38.5 34.5,38.5 32.5,38.5C 32.5,37.5 32.5,36.5 32.5,35.5C 33.5,35.5 34.5,35.5 35.5,35.5C 35.5,34.5 35.5,33.5 35.5,32.5 Z"/></g>
<g><path style="opacity:1" fill="#052209" d="M 17.5,32.5 C 18.5,32.5 19.5,32.5 20.5,32.5C 20.5,33.5 20.5,34.5 20.5,35.5C 21.5,35.5 22.5,35.5 23.5,35.5C 24.5,35.5 25.5,35.5 26.5,35.5C 26.5,34.5 26.5,33.5 26.5,32.5C 27.5,32.5 28.5,32.5 29.5,32.5C 29.5,34.5 29.5,36.5 29.5,38.5C 29.5,40.5 29.5,42.5 29.5,44.5C 27.5,44.5 25.5,44.5 23.5,44.5C 23.5,43.5 23.5,42.5 23.5,41.5C 22.5,41.5 21.5,41.5 20.5,41.5C 20.5,40.5 20.5,39.5 20.5,38.5C 19.5,38.5 18.5,38.5 17.5,38.5C 17.5,37.5 17.5,36.5 17.5,35.5C 17.5,34.5 17.5,33.5 17.5,32.5 Z"/></g>
<g><path style="opacity:1" fill="#fe3f13" d="M 23.5,41.5 C 23.5,40.5 23.5,39.5 23.5,38.5C 24.5,38.5 25.5,38.5 26.5,38.5C 26.5,39.5 26.5,40.5 26.5,41.5C 25.5,41.5 24.5,41.5 23.5,41.5 Z"/></g>
</svg>
