<?xml version="1.0" encoding="UTF-8"?>
<!DOCTYPE svg PUBLIC "-//W3C//DTD SVG 1.1//EN" "http://www.w3.org/Graphics/SVG/1.1/DTD/svg11.dtd">
<svg xmlns="http://www.w3.org/2000/svg" version="1.1" width="24px" height="24px" style="shape-rendering:geometricPrecision; text-rendering:geometricPrecision; image-rendering:optimizeQuality; fill-rule:evenodd; clip-rule:evenodd" xmlns:xlink="http://www.w3.org/1999/xlink">
<g><path style="opacity:1" fill="#2a0984" d="M 11.5,-0.5 C 13.5,-0.5 15.5,-0.5 17.5,-0.5C 17.5,1.5 17.5,3.5 17.5,5.5C 19.5,5.5 21.5,5.5 23.5,5.5C 23.5,7.5 23.5,9.5 23.5,11.5C 22.5,11.5 21.5,11.5 20.5,11.5C 20.5,10.5 20.5,9.5 20.5,8.5C 18.5,8.5 16.5,8.5 14.5,8.5C 14.5,6.5 14.5,4.5 14.5,2.5C 13.5,2.5 12.5,2.5 11.5,2.5C 11.5,1.5 11.5,0.5 11.5,-0.5 Z"/></g>
<g><path style="opacity:1" fill="#2a0984" d="M 11.5,2.5 C 11.5,3.5 11.5,4.5 11.5,5.5C 10.5,5.5 9.5,5.5 8.5,5.5C 8.5,4.5 8.5,3.5 8.5,2.5C 9.5,2.5 10.5,2.5 11.5,2.5 Z"/></g>
<g><path style="opacity:1" fill="#da67c3" d="M 11.5,2.5 C 12.5,2.5 13.5,2.5 14.5,2.5C 14.5,4.5 14.5,6.5 14.5,8.5C 16.5,8.5 18.5,8.5 20.5,8.5C 20.5,9.5 20.5,10.5 20.5,11.5C 19.5,11.5 18.5,11.5 17.5,11.5C 16.5,11.5 15.5,11.5 14.5,11.5C 14.5,12.5 14.5,13.5 14.5,14.5C 12.5,14.5 10.5,14.5 8.5,14.5C 8.5,13.5 8.5,12.5 8.5,11.5C 7.5,11.5 6.5,11.5 5.5,11.5C 4.5,11.5 3.5,11.5 2.5,11.5C 2.5,10.5 2.5,9.5 2.5,8.5C 4.5,8.5 6.5,8.5 8.5,8.5C 9.5,8.5 10.5,8.5 11.5,8.5C 11.5,7.5 11.5,6.5 11.5,5.5C 11.5,4.5 11.5,3.5 11.5,2.5 Z"/></g>
<g><path style="opacity:1" fill="#2a0984" d="M -0.5,5.5 C 2.5,5.5 5.5,5.5 8.5,5.5C 8.5,6.5 8.5,7.5 8.5,8.5C 6.5,8.5 4.5,8.5 2.5,8.5C 2.5,9.5 2.5,10.5 2.5,11.5C 1.5,11.5 0.5,11.5 -0.5,11.5C -0.5,9.5 -0.5,7.5 -0.5,5.5 Z"/></g>
<g><path style="opacity:1" fill="#7f1fe2" d="M 8.5,5.5 C 9.5,5.5 10.5,5.5 11.5,5.5C 11.5,6.5 11.5,7.5 11.5,8.5C 10.5,8.5 9.5,8.5 8.5,8.5C 8.5,7.5 8.5,6.5 8.5,5.5 Z"/></g>
<g><path style="opacity:1" fill="#2a0984" d="M 2.5,11.5 C 3.5,11.5 4.5,11.5 5.5,11.5C 5.5,12.5 5.5,13.5 5.5,14.5C 5.5,15.5 5.5,16.5 5.5,17.5C 4.5,17.5 3.5,17.5 2.5,17.5C 2.5,15.5 2.5,13.5 2.5,11.5 Z"/></g>
<g><path style="opacity:1" fill="#7f1fe2" d="M 5.5,11.5 C 6.5,11.5 7.5,11.5 8.5,11.5C 8.5,12.5 8.5,13.5 8.5,14.5C 7.5,14.5 6.5,14.5 5.5,14.5C 5.5,13.5 5.5,12.5 5.5,11.5 Z"/></g>
<g><path style="opacity:1" fill="#7f1fe2" d="M 17.5,11.5 C 17.5,12.5 17.5,13.5 17.5,14.5C 16.5,14.5 15.5,14.5 14.5,14.5C 14.5,13.5 14.5,12.5 14.5,11.5C 15.5,11.5 16.5,11.5 17.5,11.5 Z"/></g>
<g><path style="opacity:1" fill="#2a0984" d="M 17.5,11.5 C 18.5,11.5 19.5,11.5 20.5,11.5C 20.5,13.5 20.5,15.5 20.5,17.5C 19.5,17.5 18.5,17.5 17.5,17.5C 17.5,16.5 17.5,15.5 17.5,14.5C 17.5,13.5 17.5,12.5 17.5,11.5 Z"/></g>
<g><path style="opacity:1" fill="#da67c3" d="M 5.5,14.5 C 6.5,14.5 7.5,14.5 8.5,14.5C 8.5,15.5 8.5,16.5 8.5,17.5C 7.5,17.5 6.5,17.5 5.5,17.5C 5.5,16.5 5.5,15.5 5.5,14.5 Z"/></g>
<g><path style="opacity:1" fill="#7f1fe2" d="M 8.5,14.5 C 10.5,14.5 12.5,14.5 14.5,14.5C 14.5,15.5 14.5,16.5 14.5,17.5C 12.5,17.5 10.5,17.5 8.5,17.5C 8.5,16.5 8.5,15.5 8.5,14.5 Z"/></g>
<g><path style="opacity:1" fill="#da67c3" d="M 14.5,14.5 C 15.5,14.5 16.5,14.5 17.5,14.5C 17.5,15.5 17.5,16.5 17.5,17.5C 16.5,17.5 15.5,17.5 14.5,17.5C 14.5,16.5 14.5,15.5 14.5,14.5 Z"/></g>
<g><path style="opacity:1" fill="#2a0984" d="M -0.5,17.5 C 0.5,17.5 1.5,17.5 2.5,17.5C 2.5,18.5 2.5,19.5 2.5,20.5C 3.5,20.5 4.5,20.5 5.5,20.5C 6.5,20.5 7.5,20.5 8.5,20.5C 8.5,21.5 8.5,22.5 8.5,23.5C 5.5,23.5 2.5,23.5 -0.5,23.5C -0.5,21.5 -0.5,19.5 -0.5,17.5 Z"/></g>
<g><path style="opacity:1" fill="#da67c3" d="M 2.5,17.5 C 3.5,17.5 4.5,17.5 5.5,17.5C 5.5,18.5 5.5,19.5 5.5,20.5C 4.5,20.5 3.5,20.5 2.5,20.5C 2.5,19.5 2.5,18.5 2.5,17.5 Z"/></g>
<g><path style="opacity:1" fill="#7f1fe2" d="M 5.5,17.5 C 6.5,17.5 7.5,17.5 8.5,17.5C 8.5,18.5 8.5,19.5 8.5,20.5C 7.5,20.5 6.5,20.5 5.5,20.5C 5.5,19.5 5.5,18.5 5.5,17.5 Z"/></g>
<g><path style="opacity:1" fill="#2a0984" d="M 8.5,17.5 C 10.5,17.5 12.5,17.5 14.5,17.5C 14.5,18.5 14.5,19.5 14.5,20.5C 12.5,20.5 10.5,20.5 8.5,20.5C 8.5,19.5 8.5,18.5 8.5,17.5 Z"/></g>
<g><path style="opacity:1" fill="#7f1fe2" d="M 14.5,17.5 C 15.5,17.5 16.5,17.5 17.5,17.5C 17.5,18.5 17.5,19.5 17.5,20.5C 16.5,20.5 15.5,20.5 14.5,20.5C 14.5,19.5 14.5,18.5 14.5,17.5 Z"/></g>
<g><path style="opacity:1" fill="#da67c3" d="M 17.5,17.5 C 18.5,17.5 19.5,17.5 20.5,17.5C 20.5,18.5 20.5,19.5 20.5,20.5C 19.5,20.5 18.5,20.5 17.5,20.5C 17.5,19.5 17.5,18.5 17.5,17.5 Z"/></g>
<g><path style="opacity:1" fill="#2a0984" d="M 20.5,17.5 C 21.5,17.5 22.5,17.5 23.5,17.5C 23.5,19.5 23.5,21.5 23.5,23.5C 20.5,23.5 17.5,23.5 14.5,23.5C 14.5,22.5 14.5,21.5 14.5,20.5C 15.5,20.5 16.5,20.5 17.5,20.5C 18.5,20.5 19.5,20.5 20.5,20.5C 20.5,19.5 20.5,18.5 20.5,17.5 Z"/></g>
</svg>
