<?xml version="1.0" encoding="UTF-8"?>
<!DOCTYPE svg PUBLIC "-//W3C//DTD SVG 1.1//EN" "http://www.w3.org/Graphics/SVG/1.1/DTD/svg11.dtd">
<svg xmlns="http://www.w3.org/2000/svg" version="1.1" width="48px" height="48px" style="shape-rendering:geometricPrecision; text-rendering:geometricPrecision; image-rendering:optimizeQuality; fill-rule:evenodd; clip-rule:evenodd" xmlns:xlink="http://www.w3.org/1999/xlink">
<g><path style="opacity:1" fill="#03322a" d="M 17.5,-0.5 C 21.5,-0.5 25.5,-0.5 29.5,-0.5C 29.5,0.5 29.5,1.5 29.5,2.5C 28.5,2.5 27.5,2.5 26.5,2.5C 24.5,2.5 22.5,2.5 20.5,2.5C 19.5,2.5 18.5,2.5 17.5,2.5C 17.5,1.5 17.5,0.5 17.5,-0.5 Z"/></g>
<g><path style="opacity:1" fill="#03322a" d="M 17.5,2.5 C 17.5,3.5 17.5,4.5 17.5,5.5C 14.5,5.5 11.5,5.5 8.5,5.5C 8.5,4.5 8.5,3.5 8.5,2.5C 11.5,2.5 14.5,2.5 17.5,2.5 Z"/></g>
<g><path style="opacity:1" fill="#006f17" d="M 17.5,2.5 C 18.5,2.5 19.5,2.5 20.5,2.5C 20.5,3.5 20.5,4.5 20.5,5.5C 19.5,5.5 18.5,5.5 17.5,5.5C 17.5,4.5 17.5,3.5 17.5,2.5 Z"/></g>
<g><path style="opacity:1" fill="#46d000" d="M 20.5,2.5 C 22.5,2.5 24.5,2.5 26.5,2.5C 26.5,3.5 26.5,4.5 26.5,5.5C 24.5,5.5 22.5,5.5 20.5,5.5C 20.5,4.5 20.5,3.5 20.5,2.5 Z"/></g>
<g><path style="opacity:1" fill="#006f17" d="M 26.5,2.5 C 27.5,2.5 28.5,2.5 29.5,2.5C 29.5,3.5 29.5,4.5 29.5,5.5C 28.5,5.5 27.5,5.5 26.5,5.5C 26.5,4.5 26.5,3.5 26.5,2.5 Z"/></g>
<g><path style="opacity:1" fill="#03322a" d="M 29.5,2.5 C 32.5,2.5 35.5,2.5 38.5,2.5C 38.5,3.5 38.5,4.5 38.5,5.5C 36.5,5.5 34.5,5.5 32.5,5.5C 31.5,5.5 30.5,5.5 29.5,5.5C 29.5,4.5 29.5,3.5 29.5,2.5 Z"/></g>
<g><path style="opacity:1" fill="#03322a" d="M 8.5,5.5 C 8.5,6.5 8.5,7.5 8.5,8.5C 7.5,8.5 6.5,8.5 5.5,8.5C 5.5,7.5 5.5,6.5 5.5,5.5C 6.5,5.5 7.5,5.5 8.5,5.5 Z"/></g>
<g><path style="opacity:1" fill="#81f300" d="M 8.5,5.5 C 11.5,5.5 14.5,5.5 17.5,5.5C 17.5,6.5 17.5,7.5 17.5,8.5C 14.5,8.5 11.5,8.5 8.5,8.5C 8.5,7.5 8.5,6.5 8.5,5.5 Z"/></g>
<g><path style="opacity:1" fill="#034330" d="M 17.5,5.5 C 18.5,5.5 19.5,5.5 20.5,5.5C 22.5,5.5 24.5,5.5 26.5,5.5C 27.5,5.5 28.5,5.5 29.5,5.5C 29.5,6.5 29.5,7.5 29.5,8.5C 27.5,8.5 25.5,8.5 23.5,8.5C 23.5,10.5 23.5,12.5 23.5,14.5C 22.5,14.5 21.5,14.5 20.5,14.5C 20.5,12.5 20.5,10.5 20.5,8.5C 19.5,8.5 18.5,8.5 17.5,8.5C 17.5,7.5 17.5,6.5 17.5,5.5 Z"/></g>
<g><path style="opacity:1" fill="#46d000" d="M 32.5,5.5 C 34.5,5.5 36.5,5.5 38.5,5.5C 38.5,6.5 38.5,7.5 38.5,8.5C 37.5,8.5 36.5,8.5 35.5,8.5C 34.5,8.5 33.5,8.5 32.5,8.5C 32.5,7.5 32.5,6.5 32.5,5.5 Z"/></g>
<g><path style="opacity:1" fill="#03322a" d="M 38.5,5.5 C 39.5,5.5 40.5,5.5 41.5,5.5C 41.5,6.5 41.5,7.5 41.5,8.5C 40.5,8.5 39.5,8.5 38.5,8.5C 38.5,7.5 38.5,6.5 38.5,5.5 Z"/></g>
<g><path style="opacity:1" fill="#03322a" d="M 5.5,8.5 C 5.5,10.5 5.5,12.5 5.5,14.5C 4.5,14.5 3.5,14.5 2.5,14.5C 2.5,12.5 2.5,10.5 2.5,8.5C 3.5,8.5 4.5,8.5 5.5,8.5 Z"/></g>
<g><path style="opacity:1" fill="#09850f" d="M 8.5,8.5 C 11.5,8.5 14.5,8.5 17.5,8.5C 18.5,8.5 19.5,8.5 20.5,8.5C 20.5,10.5 20.5,12.5 20.5,14.5C 19.5,14.5 18.5,14.5 17.5,14.5C 17.5,13.5 17.5,12.5 17.5,11.5C 15.5,11.5 13.5,11.5 11.5,11.5C 11.5,12.5 11.5,13.5 11.5,14.5C 10.5,14.5 9.5,14.5 8.5,14.5C 8.5,12.5 8.5,10.5 8.5,8.5 Z"/></g>
<g><path style="opacity:1" fill="#008707" d="M 29.5,5.5 C 30.5,5.5 31.5,5.5 32.5,5.5C 32.5,6.5 32.5,7.5 32.5,8.5C 32.5,12.5 32.5,16.5 32.5,20.5C 31.5,20.5 30.5,20.5 29.5,20.5C 29.5,17.5 29.5,14.5 29.5,11.5C 28.5,11.5 27.5,11.5 26.5,11.5C 26.5,12.5 26.5,13.5 26.5,14.5C 25.5,14.5 24.5,14.5 23.5,14.5C 23.5,12.5 23.5,10.5 23.5,8.5C 25.5,8.5 27.5,8.5 29.5,8.5C 29.5,7.5 29.5,6.5 29.5,5.5 Z"/></g>
<g><path style="opacity:1" fill="#92ff00" d="M 38.5,8.5 C 39.5,8.5 40.5,8.5 41.5,8.5C 41.5,9.5 41.5,10.5 41.5,11.5C 40.5,11.5 39.5,11.5 38.5,11.5C 38.5,10.5 38.5,9.5 38.5,8.5 Z"/></g>
<g><path style="opacity:1" fill="#03322a" d="M 41.5,8.5 C 42.5,8.5 43.5,8.5 44.5,8.5C 44.5,9.5 44.5,10.5 44.5,11.5C 43.5,11.5 42.5,11.5 41.5,11.5C 41.5,10.5 41.5,9.5 41.5,8.5 Z"/></g>
<g><path style="opacity:1" fill="#62df00" d="M 5.5,8.5 C 6.5,8.5 7.5,8.5 8.5,8.5C 8.5,10.5 8.5,12.5 8.5,14.5C 7.5,14.5 6.5,14.5 5.5,14.5C 5.5,12.5 5.5,10.5 5.5,8.5 Z"/></g>
<g><path style="opacity:1" fill="#033e2e" d="M 20.5,14.5 C 21.5,14.5 22.5,14.5 23.5,14.5C 23.5,18.5 23.5,22.5 23.5,26.5C 22.5,26.5 21.5,26.5 20.5,26.5C 20.5,25.5 20.5,24.5 20.5,23.5C 20.5,21.5 20.5,19.5 20.5,17.5C 19.5,17.5 18.5,17.5 17.5,17.5C 17.5,19.5 17.5,21.5 17.5,23.5C 17.5,24.5 17.5,25.5 17.5,26.5C 16.5,26.5 15.5,26.5 14.5,26.5C 14.5,25.5 14.5,24.5 14.5,23.5C 13.5,23.5 12.5,23.5 11.5,23.5C 11.5,21.5 11.5,19.5 11.5,17.5C 10.5,17.5 9.5,17.5 8.5,17.5C 8.5,16.5 8.5,15.5 8.5,14.5C 9.5,14.5 10.5,14.5 11.5,14.5C 11.5,13.5 11.5,12.5 11.5,11.5C 13.5,11.5 15.5,11.5 17.5,11.5C 17.5,12.5 17.5,13.5 17.5,14.5C 18.5,14.5 19.5,14.5 20.5,14.5 Z"/></g>
<g><path style="opacity:1" fill="#0e8e0a" d="M 35.5,8.5 C 36.5,8.5 37.5,8.5 38.5,8.5C 38.5,9.5 38.5,10.5 38.5,11.5C 39.5,11.5 40.5,11.5 41.5,11.5C 41.5,14.5 41.5,17.5 41.5,20.5C 40.5,20.5 39.5,20.5 38.5,20.5C 38.5,21.5 38.5,22.5 38.5,23.5C 36.5,23.5 34.5,23.5 32.5,23.5C 32.5,22.5 32.5,21.5 32.5,20.5C 33.5,20.5 34.5,20.5 35.5,20.5C 35.5,19.5 35.5,18.5 35.5,17.5C 36.5,17.5 37.5,17.5 38.5,17.5C 38.5,16.5 38.5,15.5 38.5,14.5C 37.5,14.5 36.5,14.5 35.5,14.5C 35.5,12.5 35.5,10.5 35.5,8.5 Z"/></g>
<g><path style="opacity:1" fill="#81f300" d="M 41.5,11.5 C 42.5,11.5 43.5,11.5 44.5,11.5C 44.5,14.5 44.5,17.5 44.5,20.5C 43.5,20.5 42.5,20.5 41.5,20.5C 41.5,17.5 41.5,14.5 41.5,11.5 Z"/></g>
<g><path style="opacity:1" fill="#03322a" d="M 44.5,11.5 C 45.5,11.5 46.5,11.5 47.5,11.5C 47.5,16.5 47.5,21.5 47.5,26.5C 45.5,26.5 43.5,26.5 41.5,26.5C 41.5,25.5 41.5,24.5 41.5,23.5C 42.5,23.5 43.5,23.5 44.5,23.5C 44.5,22.5 44.5,21.5 44.5,20.5C 44.5,17.5 44.5,14.5 44.5,11.5 Z"/></g>
<g><path style="opacity:1" fill="#03322a" d="M -0.5,14.5 C 0.5,14.5 1.5,14.5 2.5,14.5C 2.5,17.5 2.5,20.5 2.5,23.5C 3.5,23.5 4.5,23.5 5.5,23.5C 5.5,24.5 5.5,25.5 5.5,26.5C 3.5,26.5 1.5,26.5 -0.5,26.5C -0.5,22.5 -0.5,18.5 -0.5,14.5 Z"/></g>
<g><path style="opacity:1" fill="#3dc400" d="M 23.5,14.5 C 24.5,14.5 25.5,14.5 26.5,14.5C 26.5,17.5 26.5,20.5 26.5,23.5C 27.5,23.5 28.5,23.5 29.5,23.5C 29.5,24.5 29.5,25.5 29.5,26.5C 27.5,26.5 25.5,26.5 23.5,26.5C 23.5,22.5 23.5,18.5 23.5,14.5 Z"/></g>
<g><path style="opacity:1" fill="#84f500" d="M 29.5,20.5 C 29.5,21.5 29.5,22.5 29.5,23.5C 28.5,23.5 27.5,23.5 26.5,23.5C 26.5,20.5 26.5,17.5 26.5,14.5C 26.5,13.5 26.5,12.5 26.5,11.5C 27.5,11.5 28.5,11.5 29.5,11.5C 29.5,14.5 29.5,17.5 29.5,20.5 Z"/></g>
<g><path style="opacity:1" fill="#024b32" d="M 32.5,8.5 C 33.5,8.5 34.5,8.5 35.5,8.5C 35.5,10.5 35.5,12.5 35.5,14.5C 36.5,14.5 37.5,14.5 38.5,14.5C 38.5,15.5 38.5,16.5 38.5,17.5C 37.5,17.5 36.5,17.5 35.5,17.5C 35.5,18.5 35.5,19.5 35.5,20.5C 34.5,20.5 33.5,20.5 32.5,20.5C 32.5,16.5 32.5,12.5 32.5,8.5 Z"/></g>
<g><path style="opacity:1" fill="#209c0c" d="M 2.5,14.5 C 3.5,14.5 4.5,14.5 5.5,14.5C 6.5,14.5 7.5,14.5 8.5,14.5C 8.5,15.5 8.5,16.5 8.5,17.5C 9.5,17.5 10.5,17.5 11.5,17.5C 11.5,19.5 11.5,21.5 11.5,23.5C 10.5,23.5 9.5,23.5 8.5,23.5C 8.5,22.5 8.5,21.5 8.5,20.5C 7.5,20.5 6.5,20.5 5.5,20.5C 5.5,21.5 5.5,22.5 5.5,23.5C 4.5,23.5 3.5,23.5 2.5,23.5C 2.5,20.5 2.5,17.5 2.5,14.5 Z"/></g>
<g><path style="opacity:1" fill="#554715" d="M 20.5,23.5 C 19.5,23.5 18.5,23.5 17.5,23.5C 17.5,21.5 17.5,19.5 17.5,17.5C 18.5,17.5 19.5,17.5 20.5,17.5C 20.5,19.5 20.5,21.5 20.5,23.5 Z"/></g>
<g><path style="opacity:1" fill="#03322a" d="M 8.5,23.5 C 7.5,23.5 6.5,23.5 5.5,23.5C 5.5,22.5 5.5,21.5 5.5,20.5C 6.5,20.5 7.5,20.5 8.5,20.5C 8.5,21.5 8.5,22.5 8.5,23.5 Z"/></g>
<g><path style="opacity:1" fill="#03372c" d="M 29.5,20.5 C 30.5,20.5 31.5,20.5 32.5,20.5C 32.5,21.5 32.5,22.5 32.5,23.5C 34.5,23.5 36.5,23.5 38.5,23.5C 38.5,24.5 38.5,25.5 38.5,26.5C 36.5,26.5 34.5,26.5 32.5,26.5C 32.5,27.5 32.5,28.5 32.5,29.5C 31.5,29.5 30.5,29.5 29.5,29.5C 29.5,30.5 29.5,31.5 29.5,32.5C 28.5,32.5 27.5,32.5 26.5,32.5C 26.5,31.5 26.5,30.5 26.5,29.5C 25.5,29.5 24.5,29.5 23.5,29.5C 23.5,28.5 23.5,27.5 23.5,26.5C 25.5,26.5 27.5,26.5 29.5,26.5C 29.5,25.5 29.5,24.5 29.5,23.5C 29.5,22.5 29.5,21.5 29.5,20.5 Z"/></g>
<g><path style="opacity:1" fill="#03322a" d="M 41.5,20.5 C 41.5,21.5 41.5,22.5 41.5,23.5C 40.5,23.5 39.5,23.5 38.5,23.5C 38.5,22.5 38.5,21.5 38.5,20.5C 39.5,20.5 40.5,20.5 41.5,20.5 Z"/></g>
<g><path style="opacity:1" fill="#008e00" d="M 41.5,20.5 C 42.5,20.5 43.5,20.5 44.5,20.5C 44.5,21.5 44.5,22.5 44.5,23.5C 43.5,23.5 42.5,23.5 41.5,23.5C 41.5,22.5 41.5,21.5 41.5,20.5 Z"/></g>
<g><path style="opacity:1" fill="#03322a" d="M 8.5,23.5 C 9.5,23.5 10.5,23.5 11.5,23.5C 12.5,23.5 13.5,23.5 14.5,23.5C 14.5,24.5 14.5,25.5 14.5,26.5C 14.5,27.5 14.5,28.5 14.5,29.5C 12.5,29.5 10.5,29.5 8.5,29.5C 8.5,27.5 8.5,25.5 8.5,23.5 Z"/></g>
<g><path style="opacity:1" fill="#008e00" d="M 11.5,23.5 C 12.5,23.5 13.5,23.5 14.5,23.5C 14.5,24.5 14.5,25.5 14.5,26.5C 13.5,26.5 12.5,26.5 11.5,26.5C 11.5,25.5 11.5,24.5 11.5,23.5 Z"/></g>
<g><path style="opacity:1" fill="#741717" d="M 17.5,23.5 C 18.5,23.5 19.5,23.5 20.5,23.5C 20.5,24.5 20.5,25.5 20.5,26.5C 21.5,26.5 22.5,26.5 23.5,26.5C 23.5,27.5 23.5,28.5 23.5,29.5C 23.5,30.5 23.5,31.5 23.5,32.5C 22.5,32.5 21.5,32.5 20.5,32.5C 20.5,31.5 20.5,30.5 20.5,29.5C 19.5,29.5 18.5,29.5 17.5,29.5C 17.5,28.5 17.5,27.5 17.5,26.5C 17.5,25.5 17.5,24.5 17.5,23.5 Z"/></g>
<g><path style="opacity:1" fill="#8d8096" d="M 23.5,29.5 C 24.5,29.5 25.5,29.5 26.5,29.5C 26.5,30.5 26.5,31.5 26.5,32.5C 25.5,32.5 24.5,32.5 23.5,32.5C 23.5,31.5 23.5,30.5 23.5,29.5 Z"/></g>
<g><path style="opacity:1" fill="#685376" d="M 32.5,29.5 C 32.5,30.5 32.5,31.5 32.5,32.5C 31.5,32.5 30.5,32.5 29.5,32.5C 29.5,31.5 29.5,30.5 29.5,29.5C 30.5,29.5 31.5,29.5 32.5,29.5 Z"/></g>
<g><path style="opacity:1" fill="#503a54" d="M 14.5,29.5 C 15.5,29.5 16.5,29.5 17.5,29.5C 18.5,29.5 19.5,29.5 20.5,29.5C 20.5,30.5 20.5,31.5 20.5,32.5C 19.5,32.5 18.5,32.5 17.5,32.5C 17.5,35.5 17.5,38.5 17.5,41.5C 18.5,41.5 19.5,41.5 20.5,41.5C 20.5,42.5 20.5,43.5 20.5,44.5C 23.5,44.5 26.5,44.5 29.5,44.5C 29.5,45.5 29.5,46.5 29.5,47.5C 25.5,47.5 21.5,47.5 17.5,47.5C 17.5,46.5 17.5,45.5 17.5,44.5C 16.5,44.5 15.5,44.5 14.5,44.5C 14.5,43.5 14.5,42.5 14.5,41.5C 13.5,41.5 12.5,41.5 11.5,41.5C 11.5,38.5 11.5,35.5 11.5,32.5C 12.5,32.5 13.5,32.5 14.5,32.5C 14.5,31.5 14.5,30.5 14.5,29.5 Z"/></g>
<g><path style="opacity:1" fill="#ae9cab" d="M 20.5,32.5 C 21.5,32.5 22.5,32.5 23.5,32.5C 23.5,33.5 23.5,34.5 23.5,35.5C 22.5,35.5 21.5,35.5 20.5,35.5C 20.5,37.5 20.5,39.5 20.5,41.5C 19.5,41.5 18.5,41.5 17.5,41.5C 17.5,38.5 17.5,35.5 17.5,32.5C 18.5,32.5 19.5,32.5 20.5,32.5 Z"/></g>
<g><path style="opacity:1" fill="#fdf7eb" d="M 23.5,32.5 C 24.5,32.5 25.5,32.5 26.5,32.5C 27.5,32.5 28.5,32.5 29.5,32.5C 30.5,32.5 31.5,32.5 32.5,32.5C 32.5,35.5 32.5,38.5 32.5,41.5C 31.5,41.5 30.5,41.5 29.5,41.5C 28.5,41.5 27.5,41.5 26.5,41.5C 26.5,40.5 26.5,39.5 26.5,38.5C 25.5,38.5 24.5,38.5 23.5,38.5C 23.5,37.5 23.5,36.5 23.5,35.5C 23.5,34.5 23.5,33.5 23.5,32.5 Z"/></g>
<g><path style="opacity:1" fill="#e8cfbf" d="M 23.5,35.5 C 23.5,36.5 23.5,37.5 23.5,38.5C 24.5,38.5 25.5,38.5 26.5,38.5C 26.5,39.5 26.5,40.5 26.5,41.5C 27.5,41.5 28.5,41.5 29.5,41.5C 29.5,42.5 29.5,43.5 29.5,44.5C 26.5,44.5 23.5,44.5 20.5,44.5C 20.5,43.5 20.5,42.5 20.5,41.5C 20.5,39.5 20.5,37.5 20.5,35.5C 21.5,35.5 22.5,35.5 23.5,35.5 Z"/></g>
<g><path style="opacity:1" fill="#4b3551" d="M 32.5,32.5 C 33.5,32.5 34.5,32.5 35.5,32.5C 35.5,35.5 35.5,38.5 35.5,41.5C 34.5,41.5 33.5,41.5 32.5,41.5C 32.5,38.5 32.5,35.5 32.5,32.5 Z"/></g>
<g><path style="opacity:1" fill="#412c44" d="M 29.5,41.5 C 30.5,41.5 31.5,41.5 32.5,41.5C 32.5,42.5 32.5,43.5 32.5,44.5C 31.5,44.5 30.5,44.5 29.5,44.5C 29.5,43.5 29.5,42.5 29.5,41.5 Z"/></g>
</svg>
