<?xml version="1.0" encoding="UTF-8"?>
<!DOCTYPE svg PUBLIC "-//W3C//DTD SVG 1.1//EN" "http://www.w3.org/Graphics/SVG/1.1/DTD/svg11.dtd">
<svg xmlns="http://www.w3.org/2000/svg" version="1.1" width="48px" height="48px" style="shape-rendering:geometricPrecision; text-rendering:geometricPrecision; image-rendering:optimizeQuality; fill-rule:evenodd; clip-rule:evenodd" xmlns:xlink="http://www.w3.org/1999/xlink">
<g><path style="opacity:1" fill="#202120" d="M 31.5,1.5 C 31.5,2.5 31.5,3.5 31.5,4.5C 30.5,4.5 29.5,4.5 28.5,4.5C 26.5,4.5 24.5,4.5 22.5,4.5C 21.5,4.5 20.5,4.5 19.5,4.5C 19.5,3.5 19.5,2.5 19.5,1.5C 23.5,1.5 27.5,1.5 31.5,1.5 Z"/></g>
<g><path style="opacity:1" fill="#555655" d="M 31.5,1.5 C 33.5,1.5 35.5,1.5 37.5,1.5C 37.5,2.5 37.5,3.5 37.5,4.5C 36.5,4.5 35.5,4.5 34.5,4.5C 33.5,4.5 32.5,4.5 31.5,4.5C 31.5,3.5 31.5,2.5 31.5,1.5 Z"/></g>
<g><path style="opacity:1" fill="#484848" d="M 19.5,4.5 C 20.5,4.5 21.5,4.5 22.5,4.5C 22.5,5.5 22.5,6.5 22.5,7.5C 21.5,7.5 20.5,7.5 19.5,7.5C 19.5,8.5 19.5,9.5 19.5,10.5C 18.5,10.5 17.5,10.5 16.5,10.5C 16.5,9.5 16.5,8.5 16.5,7.5C 16.5,6.5 16.5,5.5 16.5,4.5C 17.5,4.5 18.5,4.5 19.5,4.5 Z"/></g>
<g><path style="opacity:1" fill="#a2a2a2" d="M 22.5,4.5 C 24.5,4.5 26.5,4.5 28.5,4.5C 28.5,5.5 28.5,6.5 28.5,7.5C 26.5,7.5 24.5,7.5 22.5,7.5C 22.5,6.5 22.5,5.5 22.5,4.5 Z"/></g>
<g><path style="opacity:1" fill="#d2d3d2" d="M 28.5,4.5 C 29.5,4.5 30.5,4.5 31.5,4.5C 32.5,4.5 33.5,4.5 34.5,4.5C 34.5,5.5 34.5,6.5 34.5,7.5C 32.5,7.5 30.5,7.5 28.5,7.5C 28.5,6.5 28.5,5.5 28.5,4.5 Z"/></g>
<g><path style="opacity:1" fill="#9d9d9d" d="M 34.5,4.5 C 35.5,4.5 36.5,4.5 37.5,4.5C 38.5,4.5 39.5,4.5 40.5,4.5C 40.5,5.5 40.5,6.5 40.5,7.5C 40.5,8.5 40.5,9.5 40.5,10.5C 39.5,10.5 38.5,10.5 37.5,10.5C 37.5,9.5 37.5,8.5 37.5,7.5C 36.5,7.5 35.5,7.5 34.5,7.5C 34.5,6.5 34.5,5.5 34.5,4.5 Z"/></g>
<g><path style="opacity:1" fill="#202120" d="M 16.5,7.5 C 16.5,8.5 16.5,9.5 16.5,10.5C 16.5,14.5 16.5,18.5 16.5,22.5C 15.5,22.5 14.5,22.5 13.5,22.5C 13.5,17.5 13.5,12.5 13.5,7.5C 14.5,7.5 15.5,7.5 16.5,7.5 Z"/></g>
<g><path style="opacity:1" fill="#319f9e" d="M 22.5,7.5 C 22.5,8.5 22.5,9.5 22.5,10.5C 21.5,10.5 20.5,10.5 19.5,10.5C 19.5,9.5 19.5,8.5 19.5,7.5C 20.5,7.5 21.5,7.5 22.5,7.5 Z"/></g>
<g><path style="opacity:1" fill="#00efbe" d="M 22.5,7.5 C 24.5,7.5 26.5,7.5 28.5,7.5C 28.5,8.5 28.5,9.5 28.5,10.5C 26.5,10.5 24.5,10.5 22.5,10.5C 22.5,9.5 22.5,8.5 22.5,7.5 Z"/></g>
<g><path style="opacity:1" fill="#9effea" d="M 28.5,7.5 C 30.5,7.5 32.5,7.5 34.5,7.5C 34.5,8.5 34.5,9.5 34.5,10.5C 35.5,10.5 36.5,10.5 37.5,10.5C 37.5,12.5 37.5,14.5 37.5,16.5C 36.5,16.5 35.5,16.5 34.5,16.5C 34.5,18.5 34.5,20.5 34.5,22.5C 33.5,22.5 32.5,22.5 31.5,22.5C 31.5,23.5 31.5,24.5 31.5,25.5C 29.5,25.5 27.5,25.5 25.5,25.5C 25.5,24.5 25.5,23.5 25.5,22.5C 24.5,22.5 23.5,22.5 22.5,22.5C 22.5,21.5 22.5,20.5 22.5,19.5C 21.5,19.5 20.5,19.5 19.5,19.5C 19.5,17.5 19.5,15.5 19.5,13.5C 20.5,13.5 21.5,13.5 22.5,13.5C 22.5,12.5 22.5,11.5 22.5,10.5C 24.5,10.5 26.5,10.5 28.5,10.5C 28.5,9.5 28.5,8.5 28.5,7.5 Z"/></g>
<g><path style="opacity:1" fill="#00efbe" d="M 34.5,7.5 C 35.5,7.5 36.5,7.5 37.5,7.5C 37.5,8.5 37.5,9.5 37.5,10.5C 36.5,10.5 35.5,10.5 34.5,10.5C 34.5,9.5 34.5,8.5 34.5,7.5 Z"/></g>
<g><path style="opacity:1" fill="#555655" d="M 40.5,7.5 C 41.5,7.5 42.5,7.5 43.5,7.5C 43.5,13.5 43.5,19.5 43.5,25.5C 42.5,25.5 41.5,25.5 40.5,25.5C 40.5,23.5 40.5,21.5 40.5,19.5C 40.5,16.5 40.5,13.5 40.5,10.5C 40.5,9.5 40.5,8.5 40.5,7.5 Z"/></g>
<g><path style="opacity:1" fill="#848484" d="M 16.5,10.5 C 17.5,10.5 18.5,10.5 19.5,10.5C 19.5,11.5 19.5,12.5 19.5,13.5C 19.5,15.5 19.5,17.5 19.5,19.5C 19.5,20.5 19.5,21.5 19.5,22.5C 19.5,23.5 19.5,24.5 19.5,25.5C 18.5,25.5 17.5,25.5 16.5,25.5C 16.5,24.5 16.5,23.5 16.5,22.5C 16.5,18.5 16.5,14.5 16.5,10.5 Z"/></g>
<g><path style="opacity:1" fill="#00efbe" d="M 19.5,10.5 C 20.5,10.5 21.5,10.5 22.5,10.5C 22.5,11.5 22.5,12.5 22.5,13.5C 21.5,13.5 20.5,13.5 19.5,13.5C 19.5,12.5 19.5,11.5 19.5,10.5 Z"/></g>
<g><path style="opacity:1" fill="#fefffe" d="M 34.5,10.5 C 34.5,11.5 34.5,12.5 34.5,13.5C 33.5,13.5 32.5,13.5 31.5,13.5C 31.5,12.5 31.5,11.5 31.5,10.5C 32.5,10.5 33.5,10.5 34.5,10.5 Z"/></g>
<g><path style="opacity:1" fill="#d2d3d2" d="M 37.5,10.5 C 38.5,10.5 39.5,10.5 40.5,10.5C 40.5,13.5 40.5,16.5 40.5,19.5C 39.5,19.5 38.5,19.5 37.5,19.5C 37.5,18.5 37.5,17.5 37.5,16.5C 37.5,14.5 37.5,12.5 37.5,10.5 Z"/></g>
<g><path style="opacity:1" fill="#00efbe" d="M 19.5,19.5 C 20.5,19.5 21.5,19.5 22.5,19.5C 22.5,20.5 22.5,21.5 22.5,22.5C 21.5,22.5 20.5,22.5 19.5,22.5C 19.5,21.5 19.5,20.5 19.5,19.5 Z"/></g>
<g><path style="opacity:1" fill="#62003d" d="M 13.5,22.5 C 14.5,22.5 15.5,22.5 16.5,22.5C 16.5,23.5 16.5,24.5 16.5,25.5C 16.5,26.5 16.5,27.5 16.5,28.5C 15.5,28.5 14.5,28.5 13.5,28.5C 13.5,26.5 13.5,24.5 13.5,22.5 Z"/></g>
<g><path style="opacity:1" fill="#319f9e" d="M 19.5,22.5 C 20.5,22.5 21.5,22.5 22.5,22.5C 22.5,23.5 22.5,24.5 22.5,25.5C 21.5,25.5 20.5,25.5 19.5,25.5C 19.5,24.5 19.5,23.5 19.5,22.5 Z"/></g>
<g><path style="opacity:1" fill="#00efbe" d="M 22.5,22.5 C 23.5,22.5 24.5,22.5 25.5,22.5C 25.5,23.5 25.5,24.5 25.5,25.5C 24.5,25.5 23.5,25.5 22.5,25.5C 22.5,24.5 22.5,23.5 22.5,22.5 Z"/></g>
<g><path style="opacity:1" fill="#00d8ac" d="M 37.5,16.5 C 37.5,17.5 37.5,18.5 37.5,19.5C 37.5,21.5 37.5,23.5 37.5,25.5C 35.5,25.5 33.5,25.5 31.5,25.5C 31.5,24.5 31.5,23.5 31.5,22.5C 32.5,22.5 33.5,22.5 34.5,22.5C 34.5,20.5 34.5,18.5 34.5,16.5C 35.5,16.5 36.5,16.5 37.5,16.5 Z"/></g>
<g><path style="opacity:1" fill="#989898" d="M 37.5,19.5 C 38.5,19.5 39.5,19.5 40.5,19.5C 40.5,21.5 40.5,23.5 40.5,25.5C 39.5,25.5 38.5,25.5 37.5,25.5C 37.5,23.5 37.5,21.5 37.5,19.5 Z"/></g>
<g><path style="opacity:1" fill="#9b9b9b" d="M 19.5,25.5 C 20.5,25.5 21.5,25.5 22.5,25.5C 23.5,25.5 24.5,25.5 25.5,25.5C 27.5,25.5 29.5,25.5 31.5,25.5C 33.5,25.5 35.5,25.5 37.5,25.5C 37.5,26.5 37.5,27.5 37.5,28.5C 35.5,28.5 33.5,28.5 31.5,28.5C 29.5,28.5 27.5,28.5 25.5,28.5C 24.5,28.5 23.5,28.5 22.5,28.5C 21.5,28.5 20.5,28.5 19.5,28.5C 19.5,27.5 19.5,26.5 19.5,25.5 Z"/></g>
<g><path style="opacity:1" fill="#555655" d="M 37.5,25.5 C 38.5,25.5 39.5,25.5 40.5,25.5C 40.5,26.5 40.5,27.5 40.5,28.5C 39.5,28.5 38.5,28.5 37.5,28.5C 37.5,27.5 37.5,26.5 37.5,25.5 Z"/></g>
<g><path style="opacity:1" fill="#870e3a" d="M 13.5,28.5 C 13.5,29.5 13.5,30.5 13.5,31.5C 12.5,31.5 11.5,31.5 10.5,31.5C 10.5,30.5 10.5,29.5 10.5,28.5C 11.5,28.5 12.5,28.5 13.5,28.5 Z"/></g>
<g><path style="opacity:1" fill="#dc003a" d="M 13.5,28.5 C 14.5,28.5 15.5,28.5 16.5,28.5C 16.5,30.5 16.5,32.5 16.5,34.5C 15.5,34.5 14.5,34.5 13.5,34.5C 13.5,33.5 13.5,32.5 13.5,31.5C 13.5,30.5 13.5,29.5 13.5,28.5 Z"/></g>
<g><path style="opacity:1" fill="#90052f" d="M 16.5,25.5 C 17.5,25.5 18.5,25.5 19.5,25.5C 19.5,26.5 19.5,27.5 19.5,28.5C 20.5,28.5 21.5,28.5 22.5,28.5C 22.5,29.5 22.5,30.5 22.5,31.5C 21.5,31.5 20.5,31.5 19.5,31.5C 19.5,32.5 19.5,33.5 19.5,34.5C 18.5,34.5 17.5,34.5 16.5,34.5C 16.5,32.5 16.5,30.5 16.5,28.5C 16.5,27.5 16.5,26.5 16.5,25.5 Z"/></g>
<g><path style="opacity:1" fill="#62003d" d="M 22.5,28.5 C 23.5,28.5 24.5,28.5 25.5,28.5C 25.5,29.5 25.5,30.5 25.5,31.5C 24.5,31.5 23.5,31.5 22.5,31.5C 22.5,30.5 22.5,29.5 22.5,28.5 Z"/></g>
<g><path style="opacity:1" fill="#202120" d="M 25.5,28.5 C 27.5,28.5 29.5,28.5 31.5,28.5C 31.5,29.5 31.5,30.5 31.5,31.5C 29.5,31.5 27.5,31.5 25.5,31.5C 25.5,30.5 25.5,29.5 25.5,28.5 Z"/></g>
<g><path style="opacity:1" fill="#555655" d="M 31.5,28.5 C 33.5,28.5 35.5,28.5 37.5,28.5C 37.5,29.5 37.5,30.5 37.5,31.5C 35.5,31.5 33.5,31.5 31.5,31.5C 31.5,30.5 31.5,29.5 31.5,28.5 Z"/></g>
<g><path style="opacity:1" fill="#870e3a" d="M 10.5,31.5 C 10.5,32.5 10.5,33.5 10.5,34.5C 9.5,34.5 8.5,34.5 7.5,34.5C 7.5,33.5 7.5,32.5 7.5,31.5C 8.5,31.5 9.5,31.5 10.5,31.5 Z"/></g>
<g><path style="opacity:1" fill="#fe6947" d="M 10.5,31.5 C 11.5,31.5 12.5,31.5 13.5,31.5C 13.5,32.5 13.5,33.5 13.5,34.5C 12.5,34.5 11.5,34.5 10.5,34.5C 10.5,33.5 10.5,32.5 10.5,31.5 Z"/></g>
<g><path style="opacity:1" fill="#62003d" d="M 22.5,31.5 C 22.5,32.5 22.5,33.5 22.5,34.5C 21.5,34.5 20.5,34.5 19.5,34.5C 19.5,33.5 19.5,32.5 19.5,31.5C 20.5,31.5 21.5,31.5 22.5,31.5 Z"/></g>
<g><path style="opacity:1" fill="#870e3a" d="M 7.5,34.5 C 7.5,35.5 7.5,36.5 7.5,37.5C 6.5,37.5 5.5,37.5 4.5,37.5C 4.5,36.5 4.5,35.5 4.5,34.5C 5.5,34.5 6.5,34.5 7.5,34.5 Z"/></g>
<g><path style="opacity:1" fill="#fe6947" d="M 7.5,34.5 C 8.5,34.5 9.5,34.5 10.5,34.5C 10.5,35.5 10.5,36.5 10.5,37.5C 9.5,37.5 8.5,37.5 7.5,37.5C 7.5,36.5 7.5,35.5 7.5,34.5 Z"/></g>
<g><path style="opacity:1" fill="#dc003a" d="M 10.5,34.5 C 11.5,34.5 12.5,34.5 13.5,34.5C 13.5,35.5 13.5,36.5 13.5,37.5C 12.5,37.5 11.5,37.5 10.5,37.5C 10.5,36.5 10.5,35.5 10.5,34.5 Z"/></g>
<g><path style="opacity:1" fill="#950026" d="M 13.5,34.5 C 14.5,34.5 15.5,34.5 16.5,34.5C 16.5,35.5 16.5,36.5 16.5,37.5C 15.5,37.5 14.5,37.5 13.5,37.5C 13.5,36.5 13.5,35.5 13.5,34.5 Z"/></g>
<g><path style="opacity:1" fill="#62003d" d="M 16.5,34.5 C 17.5,34.5 18.5,34.5 19.5,34.5C 19.5,35.5 19.5,36.5 19.5,37.5C 18.5,37.5 17.5,37.5 16.5,37.5C 16.5,36.5 16.5,35.5 16.5,34.5 Z"/></g>
<g><path style="opacity:1" fill="#62003d" d="M 4.5,37.5 C 4.5,38.5 4.5,39.5 4.5,40.5C 4.5,41.5 4.5,42.5 4.5,43.5C 3.5,43.5 2.5,43.5 1.5,43.5C 1.5,41.5 1.5,39.5 1.5,37.5C 2.5,37.5 3.5,37.5 4.5,37.5 Z"/></g>
<g><path style="opacity:1" fill="#dc003a" d="M 4.5,37.5 C 5.5,37.5 6.5,37.5 7.5,37.5C 8.5,37.5 9.5,37.5 10.5,37.5C 10.5,38.5 10.5,39.5 10.5,40.5C 8.5,40.5 6.5,40.5 4.5,40.5C 4.5,39.5 4.5,38.5 4.5,37.5 Z"/></g>
<g><path style="opacity:1" fill="#950026" d="M 10.5,37.5 C 11.5,37.5 12.5,37.5 13.5,37.5C 13.5,38.5 13.5,39.5 13.5,40.5C 12.5,40.5 11.5,40.5 10.5,40.5C 10.5,39.5 10.5,38.5 10.5,37.5 Z"/></g>
<g><path style="opacity:1" fill="#62003d" d="M 13.5,37.5 C 14.5,37.5 15.5,37.5 16.5,37.5C 16.5,38.5 16.5,39.5 16.5,40.5C 15.5,40.5 14.5,40.5 13.5,40.5C 13.5,39.5 13.5,38.5 13.5,37.5 Z"/></g>
<g><path style="opacity:1" fill="#950026" d="M 4.5,40.5 C 6.5,40.5 8.5,40.5 10.5,40.5C 10.5,41.5 10.5,42.5 10.5,43.5C 8.5,43.5 6.5,43.5 4.5,43.5C 4.5,42.5 4.5,41.5 4.5,40.5 Z"/></g>
<g><path style="opacity:1" fill="#62003d" d="M 10.5,40.5 C 11.5,40.5 12.5,40.5 13.5,40.5C 13.5,41.5 13.5,42.5 13.5,43.5C 12.5,43.5 11.5,43.5 10.5,43.5C 10.5,42.5 10.5,41.5 10.5,40.5 Z"/></g>
<g><path style="opacity:1" fill="#62003d" d="M 4.5,43.5 C 6.5,43.5 8.5,43.5 10.5,43.5C 10.5,44.5 10.5,45.5 10.5,46.5C 8.5,46.5 6.5,46.5 4.5,46.5C 4.5,45.5 4.5,44.5 4.5,43.5 Z"/></g>
</svg>
