<?xml version="1.0" encoding="UTF-8"?>
<!DOCTYPE svg PUBLIC "-//W3C//DTD SVG 1.1//EN" "http://www.w3.org/Graphics/SVG/1.1/DTD/svg11.dtd">
<svg xmlns="http://www.w3.org/2000/svg" version="1.1" width="88px" height="88px" style="shape-rendering:geometricPrecision; text-rendering:geometricPrecision; image-rendering:optimizeQuality; fill-rule:evenodd; clip-rule:evenodd" xmlns:xlink="http://www.w3.org/1999/xlink">
<g><path style="opacity:1" fill="#4e2457" d="M 31.5,-0.5 C 39.5,-0.5 47.5,-0.5 55.5,-0.5C 55.5,0.833333 55.5,2.16667 55.5,3.5C 54.1667,3.5 52.8333,3.5 51.5,3.5C 46.1667,3.5 40.8333,3.5 35.5,3.5C 34.1667,3.5 32.8333,3.5 31.5,3.5C 31.5,2.16667 31.5,0.833333 31.5,-0.5 Z"/></g>
<g><path style="opacity:1" fill="#391452" d="M 31.5,3.5 C 31.5,4.83333 31.5,6.16667 31.5,7.5C 30.1667,7.5 28.8333,7.5 27.5,7.5C 27.5,6.16667 27.5,4.83333 27.5,3.5C 28.8333,3.5 30.1667,3.5 31.5,3.5 Z"/></g>
<g><path style="opacity:1" fill="#743c5b" d="M 31.5,3.5 C 32.8333,3.5 34.1667,3.5 35.5,3.5C 35.5,4.83333 35.5,6.16667 35.5,7.5C 34.1667,7.5 32.8333,7.5 31.5,7.5C 31.5,6.16667 31.5,4.83333 31.5,3.5 Z"/></g>
<g><path style="opacity:1" fill="#a55d62" d="M 35.5,3.5 C 40.8333,3.5 46.1667,3.5 51.5,3.5C 51.5,4.83333 51.5,6.16667 51.5,7.5C 52.8333,7.5 54.1667,7.5 55.5,7.5C 55.5,10.1667 55.5,12.8333 55.5,15.5C 54.1667,15.5 52.8333,15.5 51.5,15.5C 51.5,16.8333 51.5,18.1667 51.5,19.5C 47.5,19.5 43.5,19.5 39.5,19.5C 39.5,18.1667 39.5,16.8333 39.5,15.5C 38.1667,15.5 36.8333,15.5 35.5,15.5C 35.5,14.1667 35.5,12.8333 35.5,11.5C 34.1667,11.5 32.8333,11.5 31.5,11.5C 31.5,10.1667 31.5,8.83333 31.5,7.5C 32.8333,7.5 34.1667,7.5 35.5,7.5C 35.5,6.16667 35.5,4.83333 35.5,3.5 Z"/></g>
<g><path style="opacity:1" fill="#da826e" d="M 51.5,3.5 C 52.8333,3.5 54.1667,3.5 55.5,3.5C 55.5,4.83333 55.5,6.16667 55.5,7.5C 54.1667,7.5 52.8333,7.5 51.5,7.5C 51.5,6.16667 51.5,4.83333 51.5,3.5 Z"/></g>
<g><path style="opacity:1" fill="#512758" d="M 55.5,3.5 C 56.8333,3.5 58.1667,3.5 59.5,3.5C 59.5,4.83333 59.5,6.16667 59.5,7.5C 58.1667,7.5 56.8333,7.5 55.5,7.5C 55.5,6.16667 55.5,4.83333 55.5,3.5 Z"/></g>
<g><path style="opacity:1" fill="#391452" d="M 27.5,7.5 C 27.5,11.5 27.5,15.5 27.5,19.5C 28.8333,19.5 30.1667,19.5 31.5,19.5C 31.5,20.8333 31.5,22.1667 31.5,23.5C 30.1667,23.5 28.8333,23.5 27.5,23.5C 27.5,31.5 27.5,39.5 27.5,47.5C 26.1667,47.5 24.8333,47.5 23.5,47.5C 23.5,34.1667 23.5,20.8333 23.5,7.5C 24.8333,7.5 26.1667,7.5 27.5,7.5 Z"/></g>
<g><path style="opacity:1" fill="#743c5b" d="M 27.5,7.5 C 28.8333,7.5 30.1667,7.5 31.5,7.5C 31.5,8.83333 31.5,10.1667 31.5,11.5C 31.5,12.8333 31.5,14.1667 31.5,15.5C 31.5,16.8333 31.5,18.1667 31.5,19.5C 30.1667,19.5 28.8333,19.5 27.5,19.5C 27.5,15.5 27.5,11.5 27.5,7.5 Z"/></g>
<g><path style="opacity:1" fill="#743c5b" d="M 51.5,7.5 C 51.5,8.83333 51.5,10.1667 51.5,11.5C 47.5,11.5 43.5,11.5 39.5,11.5C 39.5,10.1667 39.5,8.83333 39.5,7.5C 43.5,7.5 47.5,7.5 51.5,7.5 Z"/></g>
<g><path style="opacity:1" fill="#da826e" d="M 55.5,7.5 C 56.8333,7.5 58.1667,7.5 59.5,7.5C 59.5,10.1667 59.5,12.8333 59.5,15.5C 58.1667,15.5 56.8333,15.5 55.5,15.5C 55.5,12.8333 55.5,10.1667 55.5,7.5 Z"/></g>
<g><path style="opacity:1" fill="#512758" d="M 59.5,7.5 C 60.8333,7.5 62.1667,7.5 63.5,7.5C 63.5,20.8333 63.5,34.1667 63.5,47.5C 62.1667,47.5 60.8333,47.5 59.5,47.5C 59.5,44.8333 59.5,42.1667 59.5,39.5C 59.5,38.1667 59.5,36.8333 59.5,35.5C 59.5,31.5 59.5,27.5 59.5,23.5C 59.5,22.1667 59.5,20.8333 59.5,19.5C 59.5,18.1667 59.5,16.8333 59.5,15.5C 59.5,12.8333 59.5,10.1667 59.5,7.5 Z"/></g>
<g><path style="opacity:1" fill="#da826e" d="M 31.5,11.5 C 32.8333,11.5 34.1667,11.5 35.5,11.5C 35.5,12.8333 35.5,14.1667 35.5,15.5C 34.1667,15.5 32.8333,15.5 31.5,15.5C 31.5,14.1667 31.5,12.8333 31.5,11.5 Z"/></g>
<g><path style="opacity:1" fill="#a55d62" d="M 31.5,15.5 C 32.8333,15.5 34.1667,15.5 35.5,15.5C 35.5,16.8333 35.5,18.1667 35.5,19.5C 34.1667,19.5 32.8333,19.5 31.5,19.5C 31.5,18.1667 31.5,16.8333 31.5,15.5 Z"/></g>
<g><path style="opacity:1" fill="#da826e" d="M 35.5,15.5 C 36.8333,15.5 38.1667,15.5 39.5,15.5C 39.5,16.8333 39.5,18.1667 39.5,19.5C 38.1667,19.5 36.8333,19.5 35.5,19.5C 35.5,18.1667 35.5,16.8333 35.5,15.5 Z"/></g>
<g><path style="opacity:1" fill="#da826e" d="M 55.5,15.5 C 55.5,16.8333 55.5,18.1667 55.5,19.5C 54.1667,19.5 52.8333,19.5 51.5,19.5C 51.5,18.1667 51.5,16.8333 51.5,15.5C 52.8333,15.5 54.1667,15.5 55.5,15.5 Z"/></g>
<g><path style="opacity:1" fill="#a55d62" d="M 55.5,15.5 C 56.8333,15.5 58.1667,15.5 59.5,15.5C 59.5,16.8333 59.5,18.1667 59.5,19.5C 58.1667,19.5 56.8333,19.5 55.5,19.5C 55.5,18.1667 55.5,16.8333 55.5,15.5 Z"/></g>
<g><path style="opacity:1" fill="#743c5b" d="M 31.5,19.5 C 32.8333,19.5 34.1667,19.5 35.5,19.5C 35.5,22.1667 35.5,24.8333 35.5,27.5C 34.1667,27.5 32.8333,27.5 31.5,27.5C 31.5,26.1667 31.5,24.8333 31.5,23.5C 31.5,22.1667 31.5,20.8333 31.5,19.5 Z"/></g>
<g><path style="opacity:1" fill="#a55d62" d="M 35.5,19.5 C 36.8333,19.5 38.1667,19.5 39.5,19.5C 39.5,20.8333 39.5,22.1667 39.5,23.5C 39.5,24.8333 39.5,26.1667 39.5,27.5C 38.1667,27.5 36.8333,27.5 35.5,27.5C 35.5,24.8333 35.5,22.1667 35.5,19.5 Z"/></g>
<g><path style="opacity:1" fill="#da826e" d="M 39.5,19.5 C 43.5,19.5 47.5,19.5 51.5,19.5C 51.5,20.8333 51.5,22.1667 51.5,23.5C 50.1667,23.5 48.8333,23.5 47.5,23.5C 47.5,26.1667 47.5,28.8333 47.5,31.5C 46.1667,31.5 44.8333,31.5 43.5,31.5C 43.5,30.1667 43.5,28.8333 43.5,27.5C 43.5,26.1667 43.5,24.8333 43.5,23.5C 42.1667,23.5 40.8333,23.5 39.5,23.5C 39.5,22.1667 39.5,20.8333 39.5,19.5 Z"/></g>
<g><path style="opacity:1" fill="#a55d62" d="M 51.5,19.5 C 52.8333,19.5 54.1667,19.5 55.5,19.5C 55.5,20.8333 55.5,22.1667 55.5,23.5C 54.1667,23.5 52.8333,23.5 51.5,23.5C 51.5,22.1667 51.5,20.8333 51.5,19.5 Z"/></g>
<g><path style="opacity:1" fill="#743c5b" d="M 55.5,19.5 C 56.8333,19.5 58.1667,19.5 59.5,19.5C 59.5,20.8333 59.5,22.1667 59.5,23.5C 58.1667,23.5 56.8333,23.5 55.5,23.5C 55.5,22.1667 55.5,20.8333 55.5,19.5 Z"/></g>
<g><path style="opacity:1" fill="#4e2357" d="M 31.5,23.5 C 31.5,24.8333 31.5,26.1667 31.5,27.5C 32.8333,27.5 34.1667,27.5 35.5,27.5C 35.5,28.8333 35.5,30.1667 35.5,31.5C 34.1667,31.5 32.8333,31.5 31.5,31.5C 31.5,32.8333 31.5,34.1667 31.5,35.5C 32.8333,35.5 34.1667,35.5 35.5,35.5C 35.5,36.8333 35.5,38.1667 35.5,39.5C 34.1667,39.5 32.8333,39.5 31.5,39.5C 31.5,40.8333 31.5,42.1667 31.5,43.5C 32.8333,43.5 34.1667,43.5 35.5,43.5C 35.5,44.8333 35.5,46.1667 35.5,47.5C 34.1667,47.5 32.8333,47.5 31.5,47.5C 31.5,50.1667 31.5,52.8333 31.5,55.5C 30.1667,55.5 28.8333,55.5 27.5,55.5C 27.5,60.8333 27.5,66.1667 27.5,71.5C 26.1667,71.5 24.8333,71.5 23.5,71.5C 23.5,70.1667 23.5,68.8333 23.5,67.5C 22.1667,67.5 20.8333,67.5 19.5,67.5C 19.5,63.5 19.5,59.5 19.5,55.5C 19.5,52.8333 19.5,50.1667 19.5,47.5C 20.8333,47.5 22.1667,47.5 23.5,47.5C 24.8333,47.5 26.1667,47.5 27.5,47.5C 27.5,39.5 27.5,31.5 27.5,23.5C 28.8333,23.5 30.1667,23.5 31.5,23.5 Z"/></g>
<g><path style="opacity:1" fill="#743c5b" d="M 39.5,23.5 C 40.8333,23.5 42.1667,23.5 43.5,23.5C 43.5,24.8333 43.5,26.1667 43.5,27.5C 42.1667,27.5 40.8333,27.5 39.5,27.5C 39.5,26.1667 39.5,24.8333 39.5,23.5 Z"/></g>
<g><path style="opacity:1" fill="#a55d62" d="M 51.5,23.5 C 51.5,24.8333 51.5,26.1667 51.5,27.5C 52.8333,27.5 54.1667,27.5 55.5,27.5C 55.5,30.1667 55.5,32.8333 55.5,35.5C 54.1667,35.5 52.8333,35.5 51.5,35.5C 51.5,34.1667 51.5,32.8333 51.5,31.5C 50.1667,31.5 48.8333,31.5 47.5,31.5C 47.5,28.8333 47.5,26.1667 47.5,23.5C 48.8333,23.5 50.1667,23.5 51.5,23.5 Z"/></g>
<g><path style="opacity:1" fill="#743c5b" d="M 51.5,23.5 C 52.8333,23.5 54.1667,23.5 55.5,23.5C 55.5,24.8333 55.5,26.1667 55.5,27.5C 54.1667,27.5 52.8333,27.5 51.5,27.5C 51.5,26.1667 51.5,24.8333 51.5,23.5 Z"/></g>
<g><path style="opacity:1" fill="#743c5b" d="M 35.5,27.5 C 36.8333,27.5 38.1667,27.5 39.5,27.5C 39.5,28.8333 39.5,30.1667 39.5,31.5C 38.1667,31.5 36.8333,31.5 35.5,31.5C 35.5,30.1667 35.5,28.8333 35.5,27.5 Z"/></g>
<g><path style="opacity:1" fill="#a55d62" d="M 39.5,27.5 C 40.8333,27.5 42.1667,27.5 43.5,27.5C 43.5,28.8333 43.5,30.1667 43.5,31.5C 42.1667,31.5 40.8333,31.5 39.5,31.5C 39.5,30.1667 39.5,28.8333 39.5,27.5 Z"/></g>
<g><path style="opacity:1" fill="#eaa189" d="M 55.5,23.5 C 56.8333,23.5 58.1667,23.5 59.5,23.5C 59.5,27.5 59.5,31.5 59.5,35.5C 58.1667,35.5 56.8333,35.5 55.5,35.5C 55.5,32.8333 55.5,30.1667 55.5,27.5C 55.5,26.1667 55.5,24.8333 55.5,23.5 Z"/></g>
<g><path style="opacity:1" fill="#743c5b" d="M 35.5,31.5 C 35.5,32.8333 35.5,34.1667 35.5,35.5C 34.1667,35.5 32.8333,35.5 31.5,35.5C 31.5,34.1667 31.5,32.8333 31.5,31.5C 32.8333,31.5 34.1667,31.5 35.5,31.5 Z"/></g>
<g><path style="opacity:1" fill="#512758" d="M 35.5,31.5 C 36.8333,31.5 38.1667,31.5 39.5,31.5C 39.5,32.8333 39.5,34.1667 39.5,35.5C 38.1667,35.5 36.8333,35.5 35.5,35.5C 35.5,34.1667 35.5,32.8333 35.5,31.5 Z"/></g>
<g><path style="opacity:1" fill="#743c5b" d="M 39.5,31.5 C 40.8333,31.5 42.1667,31.5 43.5,31.5C 43.5,36.8333 43.5,42.1667 43.5,47.5C 44.8333,47.5 46.1667,47.5 47.5,47.5C 47.5,51.5 47.5,55.5 47.5,59.5C 46.1667,59.5 44.8333,59.5 43.5,59.5C 43.5,58.1667 43.5,56.8333 43.5,55.5C 43.5,54.1667 43.5,52.8333 43.5,51.5C 42.1667,51.5 40.8333,51.5 39.5,51.5C 39.5,52.8333 39.5,54.1667 39.5,55.5C 39.5,56.8333 39.5,58.1667 39.5,59.5C 38.1667,59.5 36.8333,59.5 35.5,59.5C 35.5,60.8333 35.5,62.1667 35.5,63.5C 34.1667,63.5 32.8333,63.5 31.5,63.5C 31.5,66.1667 31.5,68.8333 31.5,71.5C 30.1667,71.5 28.8333,71.5 27.5,71.5C 27.5,66.1667 27.5,60.8333 27.5,55.5C 28.8333,55.5 30.1667,55.5 31.5,55.5C 31.5,52.8333 31.5,50.1667 31.5,47.5C 32.8333,47.5 34.1667,47.5 35.5,47.5C 35.5,46.1667 35.5,44.8333 35.5,43.5C 36.8333,43.5 38.1667,43.5 39.5,43.5C 39.5,42.1667 39.5,40.8333 39.5,39.5C 38.1667,39.5 36.8333,39.5 35.5,39.5C 35.5,38.1667 35.5,36.8333 35.5,35.5C 36.8333,35.5 38.1667,35.5 39.5,35.5C 39.5,34.1667 39.5,32.8333 39.5,31.5 Z"/></g>
<g><path style="opacity:1" fill="#a55d62" d="M 43.5,31.5 C 44.8333,31.5 46.1667,31.5 47.5,31.5C 47.5,35.5 47.5,39.5 47.5,43.5C 48.8333,43.5 50.1667,43.5 51.5,43.5C 51.5,44.8333 51.5,46.1667 51.5,47.5C 51.5,48.8333 51.5,50.1667 51.5,51.5C 52.8333,51.5 54.1667,51.5 55.5,51.5C 55.5,54.1667 55.5,56.8333 55.5,59.5C 55.5,62.1667 55.5,64.8333 55.5,67.5C 54.1667,67.5 52.8333,67.5 51.5,67.5C 51.5,64.8333 51.5,62.1667 51.5,59.5C 50.1667,59.5 48.8333,59.5 47.5,59.5C 47.5,55.5 47.5,51.5 47.5,47.5C 46.1667,47.5 44.8333,47.5 43.5,47.5C 43.5,42.1667 43.5,36.8333 43.5,31.5 Z"/></g>
<g><path style="opacity:1" fill="#da826e" d="M 47.5,31.5 C 48.8333,31.5 50.1667,31.5 51.5,31.5C 51.5,32.8333 51.5,34.1667 51.5,35.5C 52.8333,35.5 54.1667,35.5 55.5,35.5C 56.8333,35.5 58.1667,35.5 59.5,35.5C 59.5,36.8333 59.5,38.1667 59.5,39.5C 58.1667,39.5 56.8333,39.5 55.5,39.5C 54.1667,39.5 52.8333,39.5 51.5,39.5C 51.5,40.8333 51.5,42.1667 51.5,43.5C 50.1667,43.5 48.8333,43.5 47.5,43.5C 47.5,39.5 47.5,35.5 47.5,31.5 Z"/></g>
<g><path style="opacity:1" fill="#743c5b" d="M 35.5,39.5 C 35.5,40.8333 35.5,42.1667 35.5,43.5C 34.1667,43.5 32.8333,43.5 31.5,43.5C 31.5,42.1667 31.5,40.8333 31.5,39.5C 32.8333,39.5 34.1667,39.5 35.5,39.5 Z"/></g>
<g><path style="opacity:1" fill="#512758" d="M 35.5,39.5 C 36.8333,39.5 38.1667,39.5 39.5,39.5C 39.5,40.8333 39.5,42.1667 39.5,43.5C 38.1667,43.5 36.8333,43.5 35.5,43.5C 35.5,42.1667 35.5,40.8333 35.5,39.5 Z"/></g>
<g><path style="opacity:1" fill="#efac91" d="M 55.5,39.5 C 55.5,42.1667 55.5,44.8333 55.5,47.5C 54.1667,47.5 52.8333,47.5 51.5,47.5C 51.5,46.1667 51.5,44.8333 51.5,43.5C 51.5,42.1667 51.5,40.8333 51.5,39.5C 52.8333,39.5 54.1667,39.5 55.5,39.5 Z"/></g>
<g><path style="opacity:1" fill="#a55d62" d="M 55.5,39.5 C 56.8333,39.5 58.1667,39.5 59.5,39.5C 59.5,42.1667 59.5,44.8333 59.5,47.5C 58.1667,47.5 56.8333,47.5 55.5,47.5C 55.5,44.8333 55.5,42.1667 55.5,39.5 Z"/></g>
<g><path style="opacity:1" fill="#da826e" d="M 51.5,47.5 C 52.8333,47.5 54.1667,47.5 55.5,47.5C 56.8333,47.5 58.1667,47.5 59.5,47.5C 59.5,48.8333 59.5,50.1667 59.5,51.5C 58.1667,51.5 56.8333,51.5 55.5,51.5C 54.1667,51.5 52.8333,51.5 51.5,51.5C 51.5,50.1667 51.5,48.8333 51.5,47.5 Z"/></g>
<g><path style="opacity:1" fill="#743c5b" d="M 59.5,47.5 C 60.8333,47.5 62.1667,47.5 63.5,47.5C 63.5,50.1667 63.5,52.8333 63.5,55.5C 62.1667,55.5 60.8333,55.5 59.5,55.5C 59.5,54.1667 59.5,52.8333 59.5,51.5C 59.5,50.1667 59.5,48.8333 59.5,47.5 Z"/></g>
<g><path style="opacity:1" fill="#512758" d="M 63.5,47.5 C 64.8333,47.5 66.1667,47.5 67.5,47.5C 67.5,50.1667 67.5,52.8333 67.5,55.5C 66.1667,55.5 64.8333,55.5 63.5,55.5C 63.5,52.8333 63.5,50.1667 63.5,47.5 Z"/></g>
<g><path style="opacity:1" fill="#a55d62" d="M 43.5,55.5 C 42.1667,55.5 40.8333,55.5 39.5,55.5C 39.5,54.1667 39.5,52.8333 39.5,51.5C 40.8333,51.5 42.1667,51.5 43.5,51.5C 43.5,52.8333 43.5,54.1667 43.5,55.5 Z"/></g>
<g><path style="opacity:0.407" fill="#000000" d="M 19.5,55.5 C 19.5,59.5 19.5,63.5 19.5,67.5C 20.8333,67.5 22.1667,67.5 23.5,67.5C 23.5,68.8333 23.5,70.1667 23.5,71.5C 24.8333,71.5 26.1667,71.5 27.5,71.5C 27.5,72.8333 27.5,74.1667 27.5,75.5C 28.8333,75.5 30.1667,75.5 31.5,75.5C 34.1667,75.5 36.8333,75.5 39.5,75.5C 40.8333,75.5 42.1667,75.5 43.5,75.5C 47.5,75.5 51.5,75.5 55.5,75.5C 56.8333,75.5 58.1667,75.5 59.5,75.5C 60.8333,75.5 62.1667,75.5 63.5,75.5C 63.5,74.1667 63.5,72.8333 63.5,71.5C 64.8333,71.5 66.1667,71.5 67.5,71.5C 68.8333,71.5 70.1667,71.5 71.5,71.5C 71.5,70.1667 71.5,68.8333 71.5,67.5C 72.8333,67.5 74.1667,67.5 75.5,67.5C 75.5,70.1667 75.5,72.8333 75.5,75.5C 74.1667,75.5 72.8333,75.5 71.5,75.5C 71.5,76.8333 71.5,78.1667 71.5,79.5C 70.1667,79.5 68.8333,79.5 67.5,79.5C 67.5,80.8333 67.5,82.1667 67.5,83.5C 51.5,83.5 35.5,83.5 19.5,83.5C 19.5,82.1667 19.5,80.8333 19.5,79.5C 18.1667,79.5 16.8333,79.5 15.5,79.5C 15.5,78.1667 15.5,76.8333 15.5,75.5C 14.1667,75.5 12.8333,75.5 11.5,75.5C 11.5,70.1667 11.5,64.8333 11.5,59.5C 12.8333,59.5 14.1667,59.5 15.5,59.5C 15.5,58.1667 15.5,56.8333 15.5,55.5C 16.8333,55.5 18.1667,55.5 19.5,55.5 Z"/></g>
<g><path style="opacity:1" fill="#da826e" d="M 39.5,55.5 C 40.8333,55.5 42.1667,55.5 43.5,55.5C 43.5,56.8333 43.5,58.1667 43.5,59.5C 43.5,60.8333 43.5,62.1667 43.5,63.5C 42.1667,63.5 40.8333,63.5 39.5,63.5C 39.5,62.1667 39.5,60.8333 39.5,59.5C 39.5,58.1667 39.5,56.8333 39.5,55.5 Z"/></g>
<g><path style="opacity:1" fill="#743c5b" d="M 63.5,55.5 C 64.8333,55.5 66.1667,55.5 67.5,55.5C 67.5,58.1667 67.5,60.8333 67.5,63.5C 66.1667,63.5 64.8333,63.5 63.5,63.5C 63.5,60.8333 63.5,58.1667 63.5,55.5 Z"/></g>
<g><path style="opacity:1" fill="#512758" d="M 67.5,55.5 C 68.8333,55.5 70.1667,55.5 71.5,55.5C 71.5,58.1667 71.5,60.8333 71.5,63.5C 70.1667,63.5 68.8333,63.5 67.5,63.5C 67.5,60.8333 67.5,58.1667 67.5,55.5 Z"/></g>
<g><path style="opacity:1" fill="#a55d62" d="M 39.5,59.5 C 39.5,60.8333 39.5,62.1667 39.5,63.5C 38.1667,63.5 36.8333,63.5 35.5,63.5C 35.5,62.1667 35.5,60.8333 35.5,59.5C 36.8333,59.5 38.1667,59.5 39.5,59.5 Z"/></g>
<g><path style="opacity:1" fill="#a55d62" d="M 43.5,59.5 C 44.8333,59.5 46.1667,59.5 47.5,59.5C 47.5,60.8333 47.5,62.1667 47.5,63.5C 46.1667,63.5 44.8333,63.5 43.5,63.5C 43.5,62.1667 43.5,60.8333 43.5,59.5 Z"/></g>
<g><path style="opacity:1" fill="#743c5b" d="M 47.5,59.5 C 48.8333,59.5 50.1667,59.5 51.5,59.5C 51.5,62.1667 51.5,64.8333 51.5,67.5C 52.8333,67.5 54.1667,67.5 55.5,67.5C 55.5,68.8333 55.5,70.1667 55.5,71.5C 55.5,72.8333 55.5,74.1667 55.5,75.5C 51.5,75.5 47.5,75.5 43.5,75.5C 43.5,74.1667 43.5,72.8333 43.5,71.5C 44.8333,71.5 46.1667,71.5 47.5,71.5C 47.5,70.1667 47.5,68.8333 47.5,67.5C 47.5,66.1667 47.5,64.8333 47.5,63.5C 47.5,62.1667 47.5,60.8333 47.5,59.5 Z"/></g>
<g><path style="opacity:1" fill="#da826e" d="M 55.5,59.5 C 56.8333,59.5 58.1667,59.5 59.5,59.5C 59.5,62.1667 59.5,64.8333 59.5,67.5C 60.8333,67.5 62.1667,67.5 63.5,67.5C 63.5,68.8333 63.5,70.1667 63.5,71.5C 62.1667,71.5 60.8333,71.5 59.5,71.5C 58.1667,71.5 56.8333,71.5 55.5,71.5C 55.5,70.1667 55.5,68.8333 55.5,67.5C 55.5,64.8333 55.5,62.1667 55.5,59.5 Z"/></g>
<g><path style="opacity:1" fill="#eaa189" d="M 55.5,51.5 C 56.8333,51.5 58.1667,51.5 59.5,51.5C 59.5,52.8333 59.5,54.1667 59.5,55.5C 60.8333,55.5 62.1667,55.5 63.5,55.5C 63.5,58.1667 63.5,60.8333 63.5,63.5C 64.8333,63.5 66.1667,63.5 67.5,63.5C 67.5,64.8333 67.5,66.1667 67.5,67.5C 66.1667,67.5 64.8333,67.5 63.5,67.5C 62.1667,67.5 60.8333,67.5 59.5,67.5C 59.5,64.8333 59.5,62.1667 59.5,59.5C 58.1667,59.5 56.8333,59.5 55.5,59.5C 55.5,56.8333 55.5,54.1667 55.5,51.5 Z"/></g>
<g><path style="opacity:1" fill="#a55d62" d="M 35.5,63.5 C 35.5,64.8333 35.5,66.1667 35.5,67.5C 35.5,68.8333 35.5,70.1667 35.5,71.5C 34.1667,71.5 32.8333,71.5 31.5,71.5C 31.5,68.8333 31.5,66.1667 31.5,63.5C 32.8333,63.5 34.1667,63.5 35.5,63.5 Z"/></g>
<g><path style="opacity:1" fill="#743c5b" d="M 35.5,63.5 C 36.8333,63.5 38.1667,63.5 39.5,63.5C 39.5,64.8333 39.5,66.1667 39.5,67.5C 38.1667,67.5 36.8333,67.5 35.5,67.5C 35.5,66.1667 35.5,64.8333 35.5,63.5 Z"/></g>
<g><path style="opacity:1" fill="#a55d62" d="M 39.5,63.5 C 40.8333,63.5 42.1667,63.5 43.5,63.5C 43.5,64.8333 43.5,66.1667 43.5,67.5C 44.8333,67.5 46.1667,67.5 47.5,67.5C 47.5,68.8333 47.5,70.1667 47.5,71.5C 46.1667,71.5 44.8333,71.5 43.5,71.5C 42.1667,71.5 40.8333,71.5 39.5,71.5C 39.5,70.1667 39.5,68.8333 39.5,67.5C 39.5,66.1667 39.5,64.8333 39.5,63.5 Z"/></g>
<g><path style="opacity:1" fill="#da826e" d="M 43.5,63.5 C 44.8333,63.5 46.1667,63.5 47.5,63.5C 47.5,64.8333 47.5,66.1667 47.5,67.5C 46.1667,67.5 44.8333,67.5 43.5,67.5C 43.5,66.1667 43.5,64.8333 43.5,63.5 Z"/></g>
<g><path style="opacity:1" fill="#a55d62" d="M 67.5,63.5 C 68.8333,63.5 70.1667,63.5 71.5,63.5C 71.5,64.8333 71.5,66.1667 71.5,67.5C 70.1667,67.5 68.8333,67.5 67.5,67.5C 67.5,66.1667 67.5,64.8333 67.5,63.5 Z"/></g>
<g><path style="opacity:1" fill="#512758" d="M 71.5,63.5 C 72.8333,63.5 74.1667,63.5 75.5,63.5C 75.5,64.8333 75.5,66.1667 75.5,67.5C 74.1667,67.5 72.8333,67.5 71.5,67.5C 71.5,66.1667 71.5,64.8333 71.5,63.5 Z"/></g>
<g><path style="opacity:1" fill="#512758" d="M 35.5,67.5 C 36.8333,67.5 38.1667,67.5 39.5,67.5C 39.5,68.8333 39.5,70.1667 39.5,71.5C 38.1667,71.5 36.8333,71.5 35.5,71.5C 35.5,70.1667 35.5,68.8333 35.5,67.5 Z"/></g>
<g><path style="opacity:1" fill="#743c5b" d="M 63.5,67.5 C 64.8333,67.5 66.1667,67.5 67.5,67.5C 67.5,68.8333 67.5,70.1667 67.5,71.5C 66.1667,71.5 64.8333,71.5 63.5,71.5C 63.5,70.1667 63.5,68.8333 63.5,67.5 Z"/></g>
<g><path style="opacity:1" fill="#512758" d="M 67.5,67.5 C 68.8333,67.5 70.1667,67.5 71.5,67.5C 71.5,68.8333 71.5,70.1667 71.5,71.5C 70.1667,71.5 68.8333,71.5 67.5,71.5C 67.5,70.1667 67.5,68.8333 67.5,67.5 Z"/></g>
<g><path style="opacity:1" fill="#512758" d="M 27.5,71.5 C 28.8333,71.5 30.1667,71.5 31.5,71.5C 31.5,72.8333 31.5,74.1667 31.5,75.5C 30.1667,75.5 28.8333,75.5 27.5,75.5C 27.5,74.1667 27.5,72.8333 27.5,71.5 Z"/></g>
<g><path style="opacity:1" fill="#743c5b" d="M 31.5,71.5 C 32.8333,71.5 34.1667,71.5 35.5,71.5C 36.8333,71.5 38.1667,71.5 39.5,71.5C 39.5,72.8333 39.5,74.1667 39.5,75.5C 36.8333,75.5 34.1667,75.5 31.5,75.5C 31.5,74.1667 31.5,72.8333 31.5,71.5 Z"/></g>
<g><path style="opacity:1" fill="#512758" d="M 39.5,71.5 C 40.8333,71.5 42.1667,71.5 43.5,71.5C 43.5,72.8333 43.5,74.1667 43.5,75.5C 42.1667,75.5 40.8333,75.5 39.5,75.5C 39.5,74.1667 39.5,72.8333 39.5,71.5 Z"/></g>
<g><path style="opacity:1" fill="#a55d62" d="M 55.5,71.5 C 56.8333,71.5 58.1667,71.5 59.5,71.5C 59.5,72.8333 59.5,74.1667 59.5,75.5C 58.1667,75.5 56.8333,75.5 55.5,75.5C 55.5,74.1667 55.5,72.8333 55.5,71.5 Z"/></g>
<g><path style="opacity:1" fill="#743c5b" d="M 59.5,71.5 C 60.8333,71.5 62.1667,71.5 63.5,71.5C 63.5,72.8333 63.5,74.1667 63.5,75.5C 62.1667,75.5 60.8333,75.5 59.5,75.5C 59.5,74.1667 59.5,72.8333 59.5,71.5 Z"/></g>
</svg>
