<?xml version="1.0" encoding="UTF-8"?>
<!DOCTYPE svg PUBLIC "-//W3C//DTD SVG 1.1//EN" "http://www.w3.org/Graphics/SVG/1.1/DTD/svg11.dtd">
<svg xmlns="http://www.w3.org/2000/svg" version="1.1" width="48px" height="48px" style="shape-rendering:geometricPrecision; text-rendering:geometricPrecision; image-rendering:optimizeQuality; fill-rule:evenodd; clip-rule:evenodd" xmlns:xlink="http://www.w3.org/1999/xlink">
<g><path style="opacity:1" fill="#003d0b" d="M 14.5,-0.5 C 16.5,-0.5 18.5,-0.5 20.5,-0.5C 20.5,0.5 20.5,1.5 20.5,2.5C 21.5,2.5 22.5,2.5 23.5,2.5C 23.5,3.5 23.5,4.5 23.5,5.5C 24.5,5.5 25.5,5.5 26.5,5.5C 26.5,4.5 26.5,3.5 26.5,2.5C 28.5,2.5 30.5,2.5 32.5,2.5C 32.5,3.5 32.5,4.5 32.5,5.5C 31.5,5.5 30.5,5.5 29.5,5.5C 29.5,8.5 29.5,11.5 29.5,14.5C 28.5,14.5 27.5,14.5 26.5,14.5C 26.5,12.5 26.5,10.5 26.5,8.5C 25.5,8.5 24.5,8.5 23.5,8.5C 23.5,9.5 23.5,10.5 23.5,11.5C 22.5,11.5 21.5,11.5 20.5,11.5C 20.5,12.5 20.5,13.5 20.5,14.5C 19.5,14.5 18.5,14.5 17.5,14.5C 17.5,13.5 17.5,12.5 17.5,11.5C 15.5,11.5 13.5,11.5 11.5,11.5C 11.5,12.5 11.5,13.5 11.5,14.5C 9.5,14.5 7.5,14.5 5.5,14.5C 5.5,13.5 5.5,12.5 5.5,11.5C 6.5,11.5 7.5,11.5 8.5,11.5C 8.5,10.5 8.5,9.5 8.5,8.5C 9.5,8.5 10.5,8.5 11.5,8.5C 11.5,7.5 11.5,6.5 11.5,5.5C 13.5,5.5 15.5,5.5 17.5,5.5C 17.5,4.5 17.5,3.5 17.5,2.5C 16.5,2.5 15.5,2.5 14.5,2.5C 14.5,1.5 14.5,0.5 14.5,-0.5 Z"/></g>
<g><path style="opacity:1" fill="#00390a" d="M 32.5,5.5 C 33.5,5.5 34.5,5.5 35.5,5.5C 35.5,6.5 35.5,7.5 35.5,8.5C 37.5,8.5 39.5,8.5 41.5,8.5C 41.5,7.5 41.5,6.5 41.5,5.5C 42.5,5.5 43.5,5.5 44.5,5.5C 44.5,8.5 44.5,11.5 44.5,14.5C 43.5,14.5 42.5,14.5 41.5,14.5C 41.5,13.5 41.5,12.5 41.5,11.5C 38.5,11.5 35.5,11.5 32.5,11.5C 32.5,9.5 32.5,7.5 32.5,5.5 Z"/></g>
<g><path style="opacity:1" fill="#067f02" d="M 29.5,14.5 C 29.5,15.5 29.5,16.5 29.5,17.5C 27.5,17.5 25.5,17.5 23.5,17.5C 22.5,17.5 21.5,17.5 20.5,17.5C 20.5,16.5 20.5,15.5 20.5,14.5C 20.5,13.5 20.5,12.5 20.5,11.5C 21.5,11.5 22.5,11.5 23.5,11.5C 23.5,10.5 23.5,9.5 23.5,8.5C 24.5,8.5 25.5,8.5 26.5,8.5C 26.5,10.5 26.5,12.5 26.5,14.5C 27.5,14.5 28.5,14.5 29.5,14.5 Z"/></g>
<g><path style="opacity:1" fill="#2eb101" d="M 32.5,5.5 C 32.5,7.5 32.5,9.5 32.5,11.5C 35.5,11.5 38.5,11.5 41.5,11.5C 41.5,12.5 41.5,13.5 41.5,14.5C 40.5,14.5 39.5,14.5 38.5,14.5C 37.5,14.5 36.5,14.5 35.5,14.5C 33.5,14.5 31.5,14.5 29.5,14.5C 29.5,11.5 29.5,8.5 29.5,5.5C 30.5,5.5 31.5,5.5 32.5,5.5 Z"/></g>
<g><path style="opacity:1" fill="#003400" d="M 5.5,14.5 C 5.5,15.5 5.5,16.5 5.5,17.5C 8.5,17.5 11.5,17.5 14.5,17.5C 14.5,18.5 14.5,19.5 14.5,20.5C 12.5,20.5 10.5,20.5 8.5,20.5C 8.5,21.5 8.5,22.5 8.5,23.5C 7.5,23.5 6.5,23.5 5.5,23.5C 5.5,22.5 5.5,21.5 5.5,20.5C 3.5,20.5 1.5,20.5 -0.5,20.5C -0.5,19.5 -0.5,18.5 -0.5,17.5C 0.5,17.5 1.5,17.5 2.5,17.5C 2.5,16.5 2.5,15.5 2.5,14.5C 3.5,14.5 4.5,14.5 5.5,14.5 Z"/></g>
<g><path style="opacity:1" fill="#31b401" d="M 17.5,14.5 C 16.5,14.5 15.5,14.5 14.5,14.5C 14.5,15.5 14.5,16.5 14.5,17.5C 11.5,17.5 8.5,17.5 5.5,17.5C 5.5,16.5 5.5,15.5 5.5,14.5C 7.5,14.5 9.5,14.5 11.5,14.5C 11.5,13.5 11.5,12.5 11.5,11.5C 13.5,11.5 15.5,11.5 17.5,11.5C 17.5,12.5 17.5,13.5 17.5,14.5 Z"/></g>
<g><path style="opacity:1" fill="#003400" d="M 17.5,14.5 C 17.5,15.5 17.5,16.5 17.5,17.5C 16.5,17.5 15.5,17.5 14.5,17.5C 14.5,16.5 14.5,15.5 14.5,14.5C 15.5,14.5 16.5,14.5 17.5,14.5 Z"/></g>
<g><path style="opacity:1" fill="#003400" d="M 29.5,14.5 C 31.5,14.5 33.5,14.5 35.5,14.5C 35.5,15.5 35.5,16.5 35.5,17.5C 33.5,17.5 31.5,17.5 29.5,17.5C 29.5,16.5 29.5,15.5 29.5,14.5 Z"/></g>
<g><path style="opacity:1" fill="#60003d" d="M 35.5,14.5 C 36.5,14.5 37.5,14.5 38.5,14.5C 38.5,15.5 38.5,16.5 38.5,17.5C 37.5,17.5 36.5,17.5 35.5,17.5C 35.5,16.5 35.5,15.5 35.5,14.5 Z"/></g>
<g><path style="opacity:1" fill="#003400" d="M 38.5,14.5 C 39.5,14.5 40.5,14.5 41.5,14.5C 41.5,15.5 41.5,16.5 41.5,17.5C 40.5,17.5 39.5,17.5 38.5,17.5C 38.5,16.5 38.5,15.5 38.5,14.5 Z"/></g>
<g><path style="opacity:1" fill="#003400" d="M 23.5,17.5 C 25.5,17.5 27.5,17.5 29.5,17.5C 29.5,18.5 29.5,19.5 29.5,20.5C 27.5,20.5 25.5,20.5 23.5,20.5C 23.5,19.5 23.5,18.5 23.5,17.5 Z"/></g>
<g><path style="opacity:1" fill="#f66f6d" d="M 29.5,17.5 C 31.5,17.5 33.5,17.5 35.5,17.5C 36.5,17.5 37.5,17.5 38.5,17.5C 38.5,19.5 38.5,21.5 38.5,23.5C 37.5,23.5 36.5,23.5 35.5,23.5C 35.5,22.5 35.5,21.5 35.5,20.5C 34.5,20.5 33.5,20.5 32.5,20.5C 32.5,21.5 32.5,22.5 32.5,23.5C 31.5,23.5 30.5,23.5 29.5,23.5C 29.5,22.5 29.5,21.5 29.5,20.5C 29.5,19.5 29.5,18.5 29.5,17.5 Z"/></g>
<g><path style="opacity:1" fill="#dd3e5d" d="M 14.5,20.5 C 16.5,20.5 18.5,20.5 20.5,20.5C 20.5,21.5 20.5,22.5 20.5,23.5C 19.5,23.5 18.5,23.5 17.5,23.5C 17.5,24.5 17.5,25.5 17.5,26.5C 18.5,26.5 19.5,26.5 20.5,26.5C 20.5,27.5 20.5,28.5 20.5,29.5C 19.5,29.5 18.5,29.5 17.5,29.5C 17.5,30.5 17.5,31.5 17.5,32.5C 18.5,32.5 19.5,32.5 20.5,32.5C 20.5,33.5 20.5,34.5 20.5,35.5C 21.5,35.5 22.5,35.5 23.5,35.5C 23.5,36.5 23.5,37.5 23.5,38.5C 27.5,38.5 31.5,38.5 35.5,38.5C 35.5,39.5 35.5,40.5 35.5,41.5C 34.5,41.5 33.5,41.5 32.5,41.5C 27.5,41.5 22.5,41.5 17.5,41.5C 17.5,40.5 17.5,39.5 17.5,38.5C 16.5,38.5 15.5,38.5 14.5,38.5C 14.5,36.5 14.5,34.5 14.5,32.5C 13.5,32.5 12.5,32.5 11.5,32.5C 11.5,31.5 11.5,30.5 11.5,29.5C 12.5,29.5 13.5,29.5 14.5,29.5C 14.5,28.5 14.5,27.5 14.5,26.5C 13.5,26.5 12.5,26.5 11.5,26.5C 11.5,25.5 11.5,24.5 11.5,23.5C 12.5,23.5 13.5,23.5 14.5,23.5C 14.5,22.5 14.5,21.5 14.5,20.5 Z"/></g>
<g><path style="opacity:1" fill="#9b1d48" d="M 17.5,14.5 C 18.5,14.5 19.5,14.5 20.5,14.5C 20.5,15.5 20.5,16.5 20.5,17.5C 21.5,17.5 22.5,17.5 23.5,17.5C 23.5,18.5 23.5,19.5 23.5,20.5C 25.5,20.5 27.5,20.5 29.5,20.5C 29.5,21.5 29.5,22.5 29.5,23.5C 28.5,23.5 27.5,23.5 26.5,23.5C 24.5,23.5 22.5,23.5 20.5,23.5C 20.5,22.5 20.5,21.5 20.5,20.5C 18.5,20.5 16.5,20.5 14.5,20.5C 14.5,19.5 14.5,18.5 14.5,17.5C 15.5,17.5 16.5,17.5 17.5,17.5C 17.5,16.5 17.5,15.5 17.5,14.5 Z"/></g>
<g><path style="opacity:1" fill="#ffab74" d="M 38.5,23.5 C 38.5,27.5 38.5,31.5 38.5,35.5C 35.5,35.5 32.5,35.5 29.5,35.5C 29.5,34.5 29.5,33.5 29.5,32.5C 28.5,32.5 27.5,32.5 26.5,32.5C 26.5,31.5 26.5,30.5 26.5,29.5C 25.5,29.5 24.5,29.5 23.5,29.5C 23.5,28.5 23.5,27.5 23.5,26.5C 24.5,26.5 25.5,26.5 26.5,26.5C 26.5,25.5 26.5,24.5 26.5,23.5C 27.5,23.5 28.5,23.5 29.5,23.5C 30.5,23.5 31.5,23.5 32.5,23.5C 32.5,22.5 32.5,21.5 32.5,20.5C 33.5,20.5 34.5,20.5 35.5,20.5C 35.5,21.5 35.5,22.5 35.5,23.5C 36.5,23.5 37.5,23.5 38.5,23.5 Z"/></g>
<g><path style="opacity:1" fill="#831042" d="M 14.5,20.5 C 14.5,21.5 14.5,22.5 14.5,23.5C 13.5,23.5 12.5,23.5 11.5,23.5C 11.5,24.5 11.5,25.5 11.5,26.5C 12.5,26.5 13.5,26.5 14.5,26.5C 14.5,27.5 14.5,28.5 14.5,29.5C 13.5,29.5 12.5,29.5 11.5,29.5C 11.5,30.5 11.5,31.5 11.5,32.5C 12.5,32.5 13.5,32.5 14.5,32.5C 14.5,34.5 14.5,36.5 14.5,38.5C 15.5,38.5 16.5,38.5 17.5,38.5C 17.5,39.5 17.5,40.5 17.5,41.5C 15.5,41.5 13.5,41.5 11.5,41.5C 11.5,40.5 11.5,39.5 11.5,38.5C 10.5,38.5 9.5,38.5 8.5,38.5C 8.5,37.5 8.5,36.5 8.5,35.5C 7.5,35.5 6.5,35.5 5.5,35.5C 5.5,31.5 5.5,27.5 5.5,23.5C 6.5,23.5 7.5,23.5 8.5,23.5C 8.5,22.5 8.5,21.5 8.5,20.5C 10.5,20.5 12.5,20.5 14.5,20.5 Z"/></g>
<g><path style="opacity:1" fill="#bb2d52" d="M 38.5,17.5 C 39.5,17.5 40.5,17.5 41.5,17.5C 41.5,23.5 41.5,29.5 41.5,35.5C 40.5,35.5 39.5,35.5 38.5,35.5C 38.5,31.5 38.5,27.5 38.5,23.5C 38.5,21.5 38.5,19.5 38.5,17.5 Z"/></g>
<g><path style="opacity:1" fill="#f1706c" d="M 20.5,23.5 C 22.5,23.5 24.5,23.5 26.5,23.5C 26.5,24.5 26.5,25.5 26.5,26.5C 25.5,26.5 24.5,26.5 23.5,26.5C 23.5,27.5 23.5,28.5 23.5,29.5C 24.5,29.5 25.5,29.5 26.5,29.5C 26.5,30.5 26.5,31.5 26.5,32.5C 27.5,32.5 28.5,32.5 29.5,32.5C 29.5,33.5 29.5,34.5 29.5,35.5C 32.5,35.5 35.5,35.5 38.5,35.5C 38.5,36.5 38.5,37.5 38.5,38.5C 37.5,38.5 36.5,38.5 35.5,38.5C 31.5,38.5 27.5,38.5 23.5,38.5C 23.5,37.5 23.5,36.5 23.5,35.5C 22.5,35.5 21.5,35.5 20.5,35.5C 20.5,34.5 20.5,33.5 20.5,32.5C 19.5,32.5 18.5,32.5 17.5,32.5C 17.5,31.5 17.5,30.5 17.5,29.5C 18.5,29.5 19.5,29.5 20.5,29.5C 20.5,28.5 20.5,27.5 20.5,26.5C 19.5,26.5 18.5,26.5 17.5,26.5C 17.5,25.5 17.5,24.5 17.5,23.5C 18.5,23.5 19.5,23.5 20.5,23.5 Z"/></g>
<g><path style="opacity:1" fill="#60003d" d="M 17.5,41.5 C 22.5,41.5 27.5,41.5 32.5,41.5C 32.5,42.5 32.5,43.5 32.5,44.5C 27.5,44.5 22.5,44.5 17.5,44.5C 17.5,43.5 17.5,42.5 17.5,41.5 Z"/></g>
</svg>
