<?xml version="1.0" encoding="UTF-8"?>
<!DOCTYPE svg PUBLIC "-//W3C//DTD SVG 1.1//EN" "http://www.w3.org/Graphics/SVG/1.1/DTD/svg11.dtd">
<svg xmlns="http://www.w3.org/2000/svg" version="1.1" width="48px" height="48px" style="shape-rendering:geometricPrecision; text-rendering:geometricPrecision; image-rendering:optimizeQuality; fill-rule:evenodd; clip-rule:evenodd" xmlns:xlink="http://www.w3.org/1999/xlink">
<g><path style="opacity:1" fill="#4d1500" d="M 16.5,-0.5 C 21.5,-0.5 26.5,-0.5 31.5,-0.5C 31.5,0.5 31.5,1.5 31.5,2.5C 26.5,2.5 21.5,2.5 16.5,2.5C 16.5,1.5 16.5,0.5 16.5,-0.5 Z"/></g>
<g><path style="opacity:1" fill="#4d1500" d="M 16.5,2.5 C 16.5,3.5 16.5,4.5 16.5,5.5C 14.5,5.5 12.5,5.5 10.5,5.5C 10.5,4.5 10.5,3.5 10.5,2.5C 12.5,2.5 14.5,2.5 16.5,2.5 Z"/></g>
<g><path style="opacity:1" fill="#f5891d" d="M 16.5,2.5 C 21.5,2.5 26.5,2.5 31.5,2.5C 31.5,3.5 31.5,4.5 31.5,5.5C 26.5,5.5 21.5,5.5 16.5,5.5C 16.5,4.5 16.5,3.5 16.5,2.5 Z"/></g>
<g><path style="opacity:1" fill="#4d1500" d="M 31.5,2.5 C 33.5,2.5 35.5,2.5 37.5,2.5C 37.5,3.5 37.5,4.5 37.5,5.5C 36.5,5.5 35.5,5.5 34.5,5.5C 33.5,5.5 32.5,5.5 31.5,5.5C 31.5,4.5 31.5,3.5 31.5,2.5 Z"/></g>
<g><path style="opacity:1" fill="#4d1500" d="M 10.5,5.5 C 10.5,6.5 10.5,7.5 10.5,8.5C 9.5,8.5 8.5,8.5 7.5,8.5C 7.5,7.5 7.5,6.5 7.5,5.5C 8.5,5.5 9.5,5.5 10.5,5.5 Z"/></g>
<g><path style="opacity:1" fill="#f68c1f" d="M 10.5,5.5 C 12.5,5.5 14.5,5.5 16.5,5.5C 16.5,6.5 16.5,7.5 16.5,8.5C 16.5,9.5 16.5,10.5 16.5,11.5C 15.5,11.5 14.5,11.5 13.5,11.5C 12.5,11.5 11.5,11.5 10.5,11.5C 10.5,12.5 10.5,13.5 10.5,14.5C 9.5,14.5 8.5,14.5 7.5,14.5C 7.5,12.5 7.5,10.5 7.5,8.5C 8.5,8.5 9.5,8.5 10.5,8.5C 10.5,7.5 10.5,6.5 10.5,5.5 Z"/></g>
<g><path style="opacity:1" fill="#ffc94f" d="M 16.5,5.5 C 21.5,5.5 26.5,5.5 31.5,5.5C 32.5,5.5 33.5,5.5 34.5,5.5C 34.5,6.5 34.5,7.5 34.5,8.5C 31.5,8.5 28.5,8.5 25.5,8.5C 22.5,8.5 19.5,8.5 16.5,8.5C 16.5,7.5 16.5,6.5 16.5,5.5 Z"/></g>
<g><path style="opacity:1" fill="#4d1500" d="M 37.5,5.5 C 38.5,5.5 39.5,5.5 40.5,5.5C 40.5,6.5 40.5,7.5 40.5,8.5C 40.5,7.5 40.5,6.5 40.5,5.5C 39.5,5.5 38.5,5.5 37.5,5.5 Z"/></g>
<g><path style="opacity:1" fill="#4d1500" d="M 7.5,8.5 C 7.5,10.5 7.5,12.5 7.5,14.5C 6.5,14.5 5.5,14.5 4.5,14.5C 4.5,12.5 4.5,10.5 4.5,8.5C 5.5,8.5 6.5,8.5 7.5,8.5 Z"/></g>
<g><path style="opacity:1" fill="#893300" d="M 25.5,8.5 C 28.5,8.5 31.5,8.5 34.5,8.5C 34.5,9.5 34.5,10.5 34.5,11.5C 35.5,11.5 36.5,11.5 37.5,11.5C 37.5,12.5 37.5,13.5 37.5,14.5C 37.5,17.5 37.5,20.5 37.5,23.5C 36.5,23.5 35.5,23.5 34.5,23.5C 34.5,20.5 34.5,17.5 34.5,14.5C 33.5,14.5 32.5,14.5 31.5,14.5C 31.5,13.5 31.5,12.5 31.5,11.5C 29.5,11.5 27.5,11.5 25.5,11.5C 25.5,10.5 25.5,9.5 25.5,8.5 Z"/></g>
<g><path style="opacity:1" fill="#f3841a" d="M 34.5,5.5 C 35.5,5.5 36.5,5.5 37.5,5.5C 37.5,6.5 37.5,7.5 37.5,8.5C 38.5,8.5 39.5,8.5 40.5,8.5C 40.5,10.5 40.5,12.5 40.5,14.5C 39.5,14.5 38.5,14.5 37.5,14.5C 37.5,13.5 37.5,12.5 37.5,11.5C 36.5,11.5 35.5,11.5 34.5,11.5C 34.5,10.5 34.5,9.5 34.5,8.5C 34.5,7.5 34.5,6.5 34.5,5.5 Z"/></g>
<g><path style="opacity:1" fill="#4d1500" d="M 40.5,8.5 C 41.5,8.5 42.5,8.5 43.5,8.5C 43.5,10.5 43.5,12.5 43.5,14.5C 42.5,14.5 41.5,14.5 40.5,14.5C 40.5,12.5 40.5,10.5 40.5,8.5 Z"/></g>
<g><path style="opacity:1" fill="#ffcc51" d="M 13.5,11.5 C 13.5,16.5 13.5,21.5 13.5,26.5C 11.5,26.5 9.5,26.5 7.5,26.5C 7.5,22.5 7.5,18.5 7.5,14.5C 8.5,14.5 9.5,14.5 10.5,14.5C 10.5,13.5 10.5,12.5 10.5,11.5C 11.5,11.5 12.5,11.5 13.5,11.5 Z"/></g>
<g><path style="opacity:1" fill="#ffbd44" d="M 25.5,11.5 C 27.5,11.5 29.5,11.5 31.5,11.5C 31.5,12.5 31.5,13.5 31.5,14.5C 30.5,14.5 29.5,14.5 28.5,14.5C 26.5,14.5 24.5,14.5 22.5,14.5C 21.5,14.5 20.5,14.5 19.5,14.5C 19.5,13.5 19.5,12.5 19.5,11.5C 21.5,11.5 23.5,11.5 25.5,11.5 Z"/></g>
<g><path style="opacity:1" fill="#551800" d="M 4.5,14.5 C 4.5,18.5 4.5,22.5 4.5,26.5C 5.5,26.5 6.5,26.5 7.5,26.5C 7.5,28.1667 7.5,29.8333 7.5,31.5C 8.5,31.5 9.5,31.5 10.5,31.5C 10.5,33.5 10.5,35.5 10.5,37.5C 9.5,37.5 8.5,37.5 7.5,37.5C 7.5,36.5 7.5,35.5 7.5,34.5C 6.5,34.5 5.5,34.5 4.5,34.5C 4.5,32.8333 4.5,31.1667 4.5,29.5C 3.5,29.5 2.5,29.5 1.5,29.5C 1.5,24.5 1.5,19.5 1.5,14.5C 2.5,14.5 3.5,14.5 4.5,14.5 Z"/></g>
<g><path style="opacity:1" fill="#f78e20" d="M 19.5,14.5 C 20.5,14.5 21.5,14.5 22.5,14.5C 22.5,15.5 22.5,16.5 22.5,17.5C 21.5,17.5 20.5,17.5 19.5,17.5C 19.5,18.5 19.5,19.5 19.5,20.5C 18.5,20.5 17.5,20.5 16.5,20.5C 16.5,18.5 16.5,16.5 16.5,14.5C 17.5,14.5 18.5,14.5 19.5,14.5 Z"/></g>
<g><path style="opacity:1" fill="#7a2d00" d="M 22.5,14.5 C 24.5,14.5 26.5,14.5 28.5,14.5C 28.5,15.5 28.5,16.5 28.5,17.5C 26.5,17.5 24.5,17.5 22.5,17.5C 22.5,16.5 22.5,15.5 22.5,14.5 Z"/></g>
<g><path style="opacity:1" fill="#f4861b" d="M 28.5,14.5 C 29.5,14.5 30.5,14.5 31.5,14.5C 32.5,14.5 33.5,14.5 34.5,14.5C 34.5,17.5 34.5,20.5 34.5,23.5C 32.5,23.5 30.5,23.5 28.5,23.5C 28.5,22.5 28.5,21.5 28.5,20.5C 29.5,20.5 30.5,20.5 31.5,20.5C 31.5,19.5 31.5,18.5 31.5,17.5C 30.5,17.5 29.5,17.5 28.5,17.5C 28.5,16.5 28.5,15.5 28.5,14.5 Z"/></g>
<g><path style="opacity:1" fill="#fed155" d="M 37.5,14.5 C 38.5,14.5 39.5,14.5 40.5,14.5C 40.5,17.5 40.5,20.5 40.5,23.5C 39.5,23.5 38.5,23.5 37.5,23.5C 37.5,20.5 37.5,17.5 37.5,14.5 Z"/></g>
<g><path style="opacity:1" fill="#4d1500" d="M 43.5,14.5 C 44.5,14.5 45.5,14.5 46.5,14.5C 46.5,19.5 46.5,24.5 46.5,29.5C 45.5,29.5 44.5,29.5 43.5,29.5C 43.5,24.5 43.5,19.5 43.5,14.5 Z"/></g>
<g><path style="opacity:1" fill="#d05200" d="M 4.5,14.5 C 5.5,14.5 6.5,14.5 7.5,14.5C 7.5,18.5 7.5,22.5 7.5,26.5C 6.5,26.5 5.5,26.5 4.5,26.5C 4.5,22.5 4.5,18.5 4.5,14.5 Z"/></g>
<g><path style="opacity:1" fill="#7a2d00" d="M 22.5,17.5 C 22.5,19.5 22.5,21.5 22.5,23.5C 21.5,23.5 20.5,23.5 19.5,23.5C 19.5,22.5 19.5,21.5 19.5,20.5C 19.5,19.5 19.5,18.5 19.5,17.5C 20.5,17.5 21.5,17.5 22.5,17.5 Z"/></g>
<g><path style="opacity:1" fill="#b34500" d="M 22.5,17.5 C 24.5,17.5 26.5,17.5 28.5,17.5C 29.5,17.5 30.5,17.5 31.5,17.5C 31.5,18.5 31.5,19.5 31.5,20.5C 30.5,20.5 29.5,20.5 28.5,20.5C 28.5,21.5 28.5,22.5 28.5,23.5C 26.5,23.5 24.5,23.5 22.5,23.5C 22.5,21.5 22.5,19.5 22.5,17.5 Z"/></g>
<g><path style="opacity:1" fill="#b64700" d="M 16.5,8.5 C 19.5,8.5 22.5,8.5 25.5,8.5C 25.5,9.5 25.5,10.5 25.5,11.5C 23.5,11.5 21.5,11.5 19.5,11.5C 19.5,12.5 19.5,13.5 19.5,14.5C 18.5,14.5 17.5,14.5 16.5,14.5C 16.5,16.5 16.5,18.5 16.5,20.5C 17.5,20.5 18.5,20.5 19.5,20.5C 19.5,21.5 19.5,22.5 19.5,23.5C 20.5,23.5 21.5,23.5 22.5,23.5C 22.5,24.5 22.5,25.5 22.5,26.5C 24.5,26.5 26.5,26.5 28.5,26.5C 28.5,27.5 28.5,28.5 28.5,29.5C 25.5,29.5 22.5,29.5 19.5,29.5C 18.5,29.5 17.5,29.5 16.5,29.5C 16.5,28.5 16.5,27.5 16.5,26.5C 15.5,26.5 14.5,26.5 13.5,26.5C 13.5,21.5 13.5,16.5 13.5,11.5C 14.5,11.5 15.5,11.5 16.5,11.5C 16.5,10.5 16.5,9.5 16.5,8.5 Z"/></g>
<g><path style="opacity:1" fill="#7a2d00" d="M 22.5,23.5 C 24.5,23.5 26.5,23.5 28.5,23.5C 30.5,23.5 32.5,23.5 34.5,23.5C 34.5,24.5 34.5,25.5 34.5,26.5C 33.5,26.5 32.5,26.5 31.5,26.5C 30.5,26.5 29.5,26.5 28.5,26.5C 26.5,26.5 24.5,26.5 22.5,26.5C 22.5,25.5 22.5,24.5 22.5,23.5 Z"/></g>
<g><path style="opacity:1" fill="#e66b0b" d="M 7.5,26.5 C 9.5,26.5 11.5,26.5 13.5,26.5C 14.5,26.5 15.5,26.5 16.5,26.5C 16.5,27.5 16.5,28.5 16.5,29.5C 17.5,29.5 18.5,29.5 19.5,29.5C 19.5,30.1667 19.5,30.8333 19.5,31.5C 18.5,31.5 17.5,31.5 16.5,31.5C 16.5,32.5 16.5,33.5 16.5,34.5C 15.5,34.5 14.5,34.5 13.5,34.5C 13.5,33.5 13.5,32.5 13.5,31.5C 12.5,31.5 11.5,31.5 10.5,31.5C 9.5,31.5 8.5,31.5 7.5,31.5C 7.5,29.8333 7.5,28.1667 7.5,26.5 Z"/></g>
<g><path style="opacity:1" fill="#fb9725" d="M 34.5,23.5 C 35.5,23.5 36.5,23.5 37.5,23.5C 38.5,23.5 39.5,23.5 40.5,23.5C 40.5,24.5 40.5,25.5 40.5,26.5C 39.5,26.5 38.5,26.5 37.5,26.5C 37.5,27.5 37.5,28.5 37.5,29.5C 35.5,29.5 33.5,29.5 31.5,29.5C 31.5,28.5 31.5,27.5 31.5,26.5C 32.5,26.5 33.5,26.5 34.5,26.5C 34.5,25.5 34.5,24.5 34.5,23.5 Z"/></g>
<g><path style="opacity:1" fill="#7a2d00" d="M 19.5,29.5 C 22.5,29.5 25.5,29.5 28.5,29.5C 28.5,30.1667 28.5,30.8333 28.5,31.5C 27.5,31.5 26.5,31.5 25.5,31.5C 23.5,31.5 21.5,31.5 19.5,31.5C 19.5,30.8333 19.5,30.1667 19.5,29.5 Z"/></g>
<g><path style="opacity:1" fill="#cc5000" d="M 40.5,14.5 C 41.5,14.5 42.5,14.5 43.5,14.5C 43.5,19.5 43.5,24.5 43.5,29.5C 41.8212,29.2852 40.8212,29.9519 40.5,31.5C 38.5,31.5 36.5,31.5 34.5,31.5C 32.5,31.5 30.5,31.5 28.5,31.5C 28.5,30.8333 28.5,30.1667 28.5,29.5C 28.5,28.5 28.5,27.5 28.5,26.5C 29.5,26.5 30.5,26.5 31.5,26.5C 31.5,27.5 31.5,28.5 31.5,29.5C 33.5,29.5 35.5,29.5 37.5,29.5C 37.5,28.5 37.5,27.5 37.5,26.5C 38.5,26.5 39.5,26.5 40.5,26.5C 40.5,25.5 40.5,24.5 40.5,23.5C 40.5,20.5 40.5,17.5 40.5,14.5 Z"/></g>
<g><path style="opacity:1" fill="#4d1500" d="M 43.5,29.5 C 43.1788,31.0481 42.1788,31.7148 40.5,31.5C 40.8212,29.9519 41.8212,29.2852 43.5,29.5 Z"/></g>
<g><path style="opacity:1" fill="#bf4b00" d="M 10.5,31.5 C 11.5,31.5 12.5,31.5 13.5,31.5C 13.5,32.5 13.5,33.5 13.5,34.5C 14.5,34.5 15.5,34.5 16.5,34.5C 18.5,34.5 20.5,34.5 22.5,34.5C 22.5,36.5 22.5,38.5 22.5,40.5C 21.5,40.5 20.5,40.5 19.5,40.5C 19.5,39.5 19.5,38.5 19.5,37.5C 16.5,37.5 13.5,37.5 10.5,37.5C 10.5,35.5 10.5,33.5 10.5,31.5 Z"/></g>
<g><path style="opacity:1" fill="#fea725" d="M 19.5,31.5 C 21.5,31.5 23.5,31.5 25.5,31.5C 25.5,32.5 25.5,33.5 25.5,34.5C 25.5,36.5 25.5,38.5 25.5,40.5C 24.5,40.5 23.5,40.5 22.5,40.5C 22.5,38.5 22.5,36.5 22.5,34.5C 20.5,34.5 18.5,34.5 16.5,34.5C 16.5,33.5 16.5,32.5 16.5,31.5C 17.5,31.5 18.5,31.5 19.5,31.5 Z"/></g>
<g><path style="opacity:1" fill="#fec746" d="M 25.5,31.5 C 26.5,31.5 27.5,31.5 28.5,31.5C 30.5,31.5 32.5,31.5 34.5,31.5C 34.5,32.5 34.5,33.5 34.5,34.5C 31.5,34.5 28.5,34.5 25.5,34.5C 25.5,33.5 25.5,32.5 25.5,31.5 Z"/></g>
<g><path style="opacity:1" fill="#5c1c01" d="M 25.5,34.5 C 28.5,34.5 31.5,34.5 34.5,34.5C 34.5,35.5 34.5,36.5 34.5,37.5C 33.5,37.5 32.5,37.5 31.5,37.5C 31.5,38.5 31.5,39.5 31.5,40.5C 29.5,40.5 27.5,40.5 25.5,40.5C 25.5,38.5 25.5,36.5 25.5,34.5 Z"/></g>
<g><path style="opacity:1" fill="#622101" d="M 34.5,31.5 C 36.5,31.5 38.5,31.5 40.5,31.5C 40.5,34.5 40.5,37.5 40.5,40.5C 39.5,40.5 38.5,40.5 37.5,40.5C 37.5,38.5 37.5,36.5 37.5,34.5C 36.5,34.5 35.5,34.5 34.5,34.5C 34.5,33.5 34.5,32.5 34.5,31.5 Z"/></g>
<g><path style="opacity:1" fill="#551900" d="M 10.5,37.5 C 13.5,37.5 16.5,37.5 19.5,37.5C 19.5,38.5 19.5,39.5 19.5,40.5C 20.5,40.5 21.5,40.5 22.5,40.5C 22.5,41.5 22.5,42.5 22.5,43.5C 20.5,43.5 18.5,43.5 16.5,43.5C 16.5,42.5 16.5,41.5 16.5,40.5C 14.5,40.5 12.5,40.5 10.5,40.5C 10.5,39.5 10.5,38.5 10.5,37.5 Z"/></g>
<g><path style="opacity:1" fill="#d75600" d="M 34.5,34.5 C 35.5,34.5 36.5,34.5 37.5,34.5C 37.5,36.5 37.5,38.5 37.5,40.5C 36.5,40.5 35.5,40.5 34.5,40.5C 34.5,41.5 34.5,42.5 34.5,43.5C 30.5,43.5 26.5,43.5 22.5,43.5C 22.5,42.5 22.5,41.5 22.5,40.5C 23.5,40.5 24.5,40.5 25.5,40.5C 27.5,40.5 29.5,40.5 31.5,40.5C 31.5,39.5 31.5,38.5 31.5,37.5C 32.5,37.5 33.5,37.5 34.5,37.5C 34.5,36.5 34.5,35.5 34.5,34.5 Z"/></g>
<g><path style="opacity:1" fill="#7a2d00" d="M 37.5,40.5 C 37.5,41.5 37.5,42.5 37.5,43.5C 36.5,43.5 35.5,43.5 34.5,43.5C 34.5,42.5 34.5,41.5 34.5,40.5C 35.5,40.5 36.5,40.5 37.5,40.5 Z"/></g>
<g><path style="opacity:1" fill="#712800" d="M 22.5,43.5 C 26.5,43.5 30.5,43.5 34.5,43.5C 34.5,44.5 34.5,45.5 34.5,46.5C 30.5,46.5 26.5,46.5 22.5,46.5C 22.5,45.5 22.5,44.5 22.5,43.5 Z"/></g>
</svg>
