<?xml version="1.0" encoding="UTF-8"?>
<!DOCTYPE svg PUBLIC "-//W3C//DTD SVG 1.1//EN" "http://www.w3.org/Graphics/SVG/1.1/DTD/svg11.dtd">
<svg xmlns="http://www.w3.org/2000/svg" version="1.1" width="48px" height="48px" style="shape-rendering:geometricPrecision; text-rendering:geometricPrecision; image-rendering:optimizeQuality; fill-rule:evenodd; clip-rule:evenodd" xmlns:xlink="http://www.w3.org/1999/xlink">
<g><path style="opacity:1" fill="#7f949f" d="M 32.5,5.5 C 26.5,5.5 20.5,5.5 14.5,5.5C 14.5,4.5 14.5,3.5 14.5,2.5C 20.5,2.5 26.5,2.5 32.5,2.5C 32.5,3.5 32.5,4.5 32.5,5.5 Z"/></g>
<g><path style="opacity:1" fill="#7f949f" d="M 14.5,5.5 C 14.5,6.5 14.5,7.5 14.5,8.5C 12.5,8.5 10.5,8.5 8.5,8.5C 8.5,7.5 8.5,6.5 8.5,5.5C 10.5,5.5 12.5,5.5 14.5,5.5 Z"/></g>
<g><path style="opacity:1" fill="#dce9f1" d="M 14.5,5.5 C 20.5,5.5 26.5,5.5 32.5,5.5C 32.5,6.5 32.5,7.5 32.5,8.5C 26.5,8.5 20.5,8.5 14.5,8.5C 14.5,7.5 14.5,6.5 14.5,5.5 Z"/></g>
<g><path style="opacity:1" fill="#7f949f" d="M 32.5,5.5 C 34.5,5.5 36.5,5.5 38.5,5.5C 38.5,6.5 38.5,7.5 38.5,8.5C 36.5,8.5 34.5,8.5 32.5,8.5C 32.5,7.5 32.5,6.5 32.5,5.5 Z"/></g>
<g><path style="opacity:1" fill="#723a29" d="M 14.5,8.5 C 20.5,8.5 26.5,8.5 32.5,8.5C 32.5,9.5 32.5,10.5 32.5,11.5C 26.5,11.5 20.5,11.5 14.5,11.5C 14.5,10.5 14.5,9.5 14.5,8.5 Z"/></g>
<g><path style="opacity:1" fill="#7f949f" d="M 5.5,11.5 C 5.5,13.5 5.5,15.5 5.5,17.5C 4.5,17.5 3.5,17.5 2.5,17.5C 2.5,15.5 2.5,13.5 2.5,11.5C 3.5,11.5 4.5,11.5 5.5,11.5 Z"/></g>
<g><path style="opacity:1" fill="#723a29" d="M 14.5,11.5 C 14.5,12.5 14.5,13.5 14.5,14.5C 13.5,14.5 12.5,14.5 11.5,14.5C 11.5,13.5 11.5,12.5 11.5,11.5C 12.5,11.5 13.5,11.5 14.5,11.5 Z"/></g>
<g><path style="opacity:1" fill="#dd8800" d="M 14.5,11.5 C 20.5,11.5 26.5,11.5 32.5,11.5C 32.5,12.5 32.5,13.5 32.5,14.5C 33.5,14.5 34.5,14.5 35.5,14.5C 35.5,16.5 35.5,18.5 35.5,20.5C 34.5,20.5 33.5,20.5 32.5,20.5C 32.5,21.5 32.5,22.5 32.5,23.5C 26.5,23.5 20.5,23.5 14.5,23.5C 14.5,22.5 14.5,21.5 14.5,20.5C 13.5,20.5 12.5,20.5 11.5,20.5C 11.5,18.5 11.5,16.5 11.5,14.5C 12.5,14.5 13.5,14.5 14.5,14.5C 14.5,13.5 14.5,12.5 14.5,11.5 Z"/></g>
<g><path style="opacity:1" fill="#723a29" d="M 32.5,11.5 C 33.5,11.5 34.5,11.5 35.5,11.5C 35.5,12.5 35.5,13.5 35.5,14.5C 35.5,13.5 35.5,12.5 35.5,11.5C 34.5,11.5 33.5,11.5 32.5,11.5 Z"/></g>
<g><path style="opacity:1" fill="#aabbc5" d="M 32.5,8.5 C 34.5,8.5 36.5,8.5 38.5,8.5C 39.5,8.5 40.5,8.5 41.5,8.5C 41.5,9.5 41.5,10.5 41.5,11.5C 42.5,11.5 43.5,11.5 44.5,11.5C 44.5,13.5 44.5,15.5 44.5,17.5C 43.5,17.5 42.5,17.5 41.5,17.5C 41.5,16.5 41.5,15.5 41.5,14.5C 40.5,14.5 39.5,14.5 38.5,14.5C 37.5,14.5 36.5,14.5 35.5,14.5C 35.5,13.5 35.5,12.5 35.5,11.5C 34.5,11.5 33.5,11.5 32.5,11.5C 32.5,10.5 32.5,9.5 32.5,8.5 Z"/></g>
<g><path style="opacity:1" fill="#723a29" d="M 11.5,14.5 C 11.5,16.5 11.5,18.5 11.5,20.5C 11.5,21.5 11.5,22.5 11.5,23.5C 10.5,23.5 9.5,23.5 8.5,23.5C 8.5,20.5 8.5,17.5 8.5,14.5C 9.5,14.5 10.5,14.5 11.5,14.5 Z"/></g>
<g><path style="opacity:1" fill="#f7ea6f" d="M 26.5,17.5 C 24.5,17.5 22.5,17.5 20.5,17.5C 20.5,16.5 20.5,15.5 20.5,14.5C 22.5,14.5 24.5,14.5 26.5,14.5C 26.5,15.5 26.5,16.5 26.5,17.5 Z"/></g>
<g><path style="opacity:1" fill="#723a29" d="M 35.5,14.5 C 36.5,14.5 37.5,14.5 38.5,14.5C 38.5,17.5 38.5,20.5 38.5,23.5C 37.5,23.5 36.5,23.5 35.5,23.5C 35.5,22.5 35.5,21.5 35.5,20.5C 35.5,18.5 35.5,16.5 35.5,14.5 Z"/></g>
<g><path style="opacity:1" fill="#fbd000" d="M 20.5,17.5 C 22.5,17.5 24.5,17.5 26.5,17.5C 26.5,18.5 26.5,19.5 26.5,20.5C 24.5,20.5 22.5,20.5 20.5,20.5C 20.5,19.5 20.5,18.5 20.5,17.5 Z"/></g>
<g><path style="opacity:1" fill="#dce6ec" d="M 8.5,8.5 C 10.5,8.5 12.5,8.5 14.5,8.5C 14.5,9.5 14.5,10.5 14.5,11.5C 13.5,11.5 12.5,11.5 11.5,11.5C 11.5,12.5 11.5,13.5 11.5,14.5C 10.5,14.5 9.5,14.5 8.5,14.5C 8.5,17.5 8.5,20.5 8.5,23.5C 7.5,23.5 6.5,23.5 5.5,23.5C 5.5,25.5 5.5,27.5 5.5,29.5C 4.5,29.5 3.5,29.5 2.5,29.5C 2.5,25.5 2.5,21.5 2.5,17.5C 3.5,17.5 4.5,17.5 5.5,17.5C 5.5,15.5 5.5,13.5 5.5,11.5C 5.5,10.5 5.5,9.5 5.5,8.5C 6.5,8.5 7.5,8.5 8.5,8.5 Z"/></g>
<g><path style="opacity:1" fill="#fbd000" d="M 11.5,20.5 C 12.5,20.5 13.5,20.5 14.5,20.5C 14.5,21.5 14.5,22.5 14.5,23.5C 13.5,23.5 12.5,23.5 11.5,23.5C 11.5,22.5 11.5,21.5 11.5,20.5 Z"/></g>
<g><path style="opacity:1" fill="#fbd000" d="M 35.5,20.5 C 35.5,21.5 35.5,22.5 35.5,23.5C 34.5,23.5 33.5,23.5 32.5,23.5C 32.5,22.5 32.5,21.5 32.5,20.5C 33.5,20.5 34.5,20.5 35.5,20.5 Z"/></g>
<g><path style="opacity:1" fill="#eaf1f4" d="M 38.5,14.5 C 39.5,14.5 40.5,14.5 41.5,14.5C 41.5,15.5 41.5,16.5 41.5,17.5C 42.5,17.5 43.5,17.5 44.5,17.5C 44.5,21.5 44.5,25.5 44.5,29.5C 42.5,29.5 40.5,29.5 38.5,29.5C 38.5,28.5 38.5,27.5 38.5,26.5C 38.5,25.5 38.5,24.5 38.5,23.5C 38.5,20.5 38.5,17.5 38.5,14.5 Z"/></g>
<g><path style="opacity:1" fill="#5c707e" d="M -0.5,17.5 C 0.5,17.5 1.5,17.5 2.5,17.5C 2.5,21.5 2.5,25.5 2.5,29.5C 2.5,30.5 2.5,31.5 2.5,32.5C 3.5,32.5 4.5,32.5 5.5,32.5C 5.5,35.5 5.5,38.5 5.5,41.5C 4.5,41.5 3.5,41.5 2.5,41.5C 2.5,39.5 2.5,37.5 2.5,35.5C 1.5,35.5 0.5,35.5 -0.5,35.5C -0.5,29.5 -0.5,23.5 -0.5,17.5 Z"/></g>
<g><path style="opacity:1" fill="#afc0ca" d="M 8.5,23.5 C 8.5,24.5 8.5,25.5 8.5,26.5C 8.5,28.5 8.5,30.5 8.5,32.5C 9.5,32.5 10.5,32.5 11.5,32.5C 11.5,33.5 11.5,34.5 11.5,35.5C 12.5,35.5 13.5,35.5 14.5,35.5C 14.5,36.5 14.5,37.5 14.5,38.5C 13.5,38.5 12.5,38.5 11.5,38.5C 11.5,39.5 11.5,40.5 11.5,41.5C 9.5,41.5 7.5,41.5 5.5,41.5C 5.5,38.5 5.5,35.5 5.5,32.5C 4.5,32.5 3.5,32.5 2.5,32.5C 2.5,31.5 2.5,30.5 2.5,29.5C 3.5,29.5 4.5,29.5 5.5,29.5C 5.5,27.5 5.5,25.5 5.5,23.5C 6.5,23.5 7.5,23.5 8.5,23.5 Z"/></g>
<g><path style="opacity:1" fill="#fbd000" d="M 14.5,23.5 C 20.5,23.5 26.5,23.5 32.5,23.5C 32.5,24.5 32.5,25.5 32.5,26.5C 31.5,26.5 30.5,26.5 29.5,26.5C 25.5,26.5 21.5,26.5 17.5,26.5C 16.5,26.5 15.5,26.5 14.5,26.5C 14.5,25.5 14.5,24.5 14.5,23.5 Z"/></g>
<g><path style="opacity:1" fill="#5a6e7c" d="M 44.5,17.5 C 45.5,17.5 46.5,17.5 47.5,17.5C 47.5,23.5 47.5,29.5 47.5,35.5C 46.5,35.5 45.5,35.5 44.5,35.5C 44.5,33.5 44.5,31.5 44.5,29.5C 44.5,25.5 44.5,21.5 44.5,17.5 Z"/></g>
<g><path style="opacity:1" fill="#723a29" d="M 8.5,26.5 C 9.5,26.5 10.5,26.5 11.5,26.5C 11.5,27.5 11.5,28.5 11.5,29.5C 11.5,30.5 11.5,31.5 11.5,32.5C 10.5,32.5 9.5,32.5 8.5,32.5C 8.5,30.5 8.5,28.5 8.5,26.5 Z"/></g>
<g><path style="opacity:1" fill="#9d4900" d="M 8.5,23.5 C 9.5,23.5 10.5,23.5 11.5,23.5C 12.5,23.5 13.5,23.5 14.5,23.5C 14.5,24.5 14.5,25.5 14.5,26.5C 15.5,26.5 16.5,26.5 17.5,26.5C 17.5,27.5 17.5,28.5 17.5,29.5C 15.5,29.5 13.5,29.5 11.5,29.5C 11.5,28.5 11.5,27.5 11.5,26.5C 10.5,26.5 9.5,26.5 8.5,26.5C 8.5,25.5 8.5,24.5 8.5,23.5 Z"/></g>
<g><path style="opacity:1" fill="#723a29" d="M 17.5,26.5 C 21.5,26.5 25.5,26.5 29.5,26.5C 29.5,27.5 29.5,28.5 29.5,29.5C 25.5,29.5 21.5,29.5 17.5,29.5C 17.5,28.5 17.5,27.5 17.5,26.5 Z"/></g>
<g><path style="opacity:1" fill="#9a4700" d="M 32.5,23.5 C 33.5,23.5 34.5,23.5 35.5,23.5C 36.5,23.5 37.5,23.5 38.5,23.5C 38.5,24.5 38.5,25.5 38.5,26.5C 37.5,26.5 36.5,26.5 35.5,26.5C 35.5,27.5 35.5,28.5 35.5,29.5C 33.5,29.5 31.5,29.5 29.5,29.5C 29.5,28.5 29.5,27.5 29.5,26.5C 30.5,26.5 31.5,26.5 32.5,26.5C 32.5,25.5 32.5,24.5 32.5,23.5 Z"/></g>
<g><path style="opacity:1" fill="#723a29" d="M 38.5,26.5 C 38.5,27.5 38.5,28.5 38.5,29.5C 38.5,30.5 38.5,31.5 38.5,32.5C 37.5,32.5 36.5,32.5 35.5,32.5C 35.5,31.5 35.5,30.5 35.5,29.5C 35.5,28.5 35.5,27.5 35.5,26.5C 36.5,26.5 37.5,26.5 38.5,26.5 Z"/></g>
<g><path style="opacity:1" fill="#c16802" d="M 11.5,29.5 C 13.5,29.5 15.5,29.5 17.5,29.5C 21.5,29.5 25.5,29.5 29.5,29.5C 31.5,29.5 33.5,29.5 35.5,29.5C 35.5,30.5 35.5,31.5 35.5,32.5C 34.5,32.5 33.5,32.5 32.5,32.5C 32.5,33.5 32.5,34.5 32.5,35.5C 31.5,35.5 30.5,35.5 29.5,35.5C 29.5,34.5 29.5,33.5 29.5,32.5C 25.5,32.5 21.5,32.5 17.5,32.5C 17.5,33.5 17.5,34.5 17.5,35.5C 16.5,35.5 15.5,35.5 14.5,35.5C 13.5,35.5 12.5,35.5 11.5,35.5C 11.5,34.5 11.5,33.5 11.5,32.5C 11.5,31.5 11.5,30.5 11.5,29.5 Z"/></g>
<g><path style="opacity:1" fill="#a6b8c3" d="M 38.5,29.5 C 40.5,29.5 42.5,29.5 44.5,29.5C 44.5,31.5 44.5,33.5 44.5,35.5C 43.5,35.5 42.5,35.5 41.5,35.5C 41.5,37.5 41.5,39.5 41.5,41.5C 38.5,41.5 35.5,41.5 32.5,41.5C 32.5,40.5 32.5,39.5 32.5,38.5C 32.5,37.5 32.5,36.5 32.5,35.5C 33.5,35.5 34.5,35.5 35.5,35.5C 35.5,34.5 35.5,33.5 35.5,32.5C 36.5,32.5 37.5,32.5 38.5,32.5C 38.5,31.5 38.5,30.5 38.5,29.5 Z"/></g>
<g><path style="opacity:1" fill="#723a29" d="M 11.5,32.5 C 12.5,32.5 13.5,32.5 14.5,32.5C 14.5,33.5 14.5,34.5 14.5,35.5C 14.5,34.5 14.5,33.5 14.5,32.5C 13.5,32.5 12.5,32.5 11.5,32.5 Z"/></g>
<g><path style="opacity:1" fill="#fbd000" d="M 29.5,35.5 C 25.5,35.5 21.5,35.5 17.5,35.5C 17.5,34.5 17.5,33.5 17.5,32.5C 21.5,32.5 25.5,32.5 29.5,32.5C 29.5,33.5 29.5,34.5 29.5,35.5 Z"/></g>
<g><path style="opacity:1" fill="#723a29" d="M 35.5,32.5 C 35.5,33.5 35.5,34.5 35.5,35.5C 34.5,35.5 33.5,35.5 32.5,35.5C 32.5,34.5 32.5,33.5 32.5,32.5C 33.5,32.5 34.5,32.5 35.5,32.5 Z"/></g>
<g><path style="opacity:1" fill="#723a29" d="M 14.5,35.5 C 15.5,35.5 16.5,35.5 17.5,35.5C 21.5,35.5 25.5,35.5 29.5,35.5C 30.5,35.5 31.5,35.5 32.5,35.5C 32.5,36.5 32.5,37.5 32.5,38.5C 26.5,38.5 20.5,38.5 14.5,38.5C 14.5,37.5 14.5,36.5 14.5,35.5 Z"/></g>
<g><path style="opacity:1" fill="#4d6370" d="M 44.5,35.5 C 44.5,37.5 44.5,39.5 44.5,41.5C 43.5,41.5 42.5,41.5 41.5,41.5C 41.5,39.5 41.5,37.5 41.5,35.5C 42.5,35.5 43.5,35.5 44.5,35.5 Z"/></g>
<g><path style="opacity:1" fill="#eaf6fc" d="M 14.5,38.5 C 20.5,38.5 26.5,38.5 32.5,38.5C 32.5,39.5 32.5,40.5 32.5,41.5C 25.5,41.5 18.5,41.5 11.5,41.5C 11.5,40.5 11.5,39.5 11.5,38.5C 12.5,38.5 13.5,38.5 14.5,38.5 Z"/></g>
<g><path style="opacity:1" fill="#718592" d="M 5.5,41.5 C 7.5,41.5 9.5,41.5 11.5,41.5C 18.5,41.5 25.5,41.5 32.5,41.5C 35.5,41.5 38.5,41.5 41.5,41.5C 41.5,42.5 41.5,43.5 41.5,44.5C 39.5,44.5 37.5,44.5 35.5,44.5C 27.5,44.5 19.5,44.5 11.5,44.5C 9.5,44.5 7.5,44.5 5.5,44.5C 5.5,43.5 5.5,42.5 5.5,41.5 Z"/></g>
<g><path style="opacity:1" fill="#4d6370" d="M 11.5,44.5 C 19.5,44.5 27.5,44.5 35.5,44.5C 35.5,45.5 35.5,46.5 35.5,47.5C 27.5,47.5 19.5,47.5 11.5,47.5C 11.5,46.5 11.5,45.5 11.5,44.5 Z"/></g>
</svg>
