<?xml version="1.0" encoding="UTF-8"?>
<!DOCTYPE svg PUBLIC "-//W3C//DTD SVG 1.1//EN" "http://www.w3.org/Graphics/SVG/1.1/DTD/svg11.dtd">
<svg xmlns="http://www.w3.org/2000/svg" version="1.1" width="48px" height="48px" style="shape-rendering:geometricPrecision; text-rendering:geometricPrecision; image-rendering:optimizeQuality; fill-rule:evenodd; clip-rule:evenodd" xmlns:xlink="http://www.w3.org/1999/xlink">
<g><path style="opacity:1" fill="#295471" d="M 24.5,7.5 C 24.5,8.5 24.5,9.5 24.5,10.5C 23.5,10.5 22.5,10.5 21.5,10.5C 19.5,10.5 17.5,10.5 15.5,10.5C 15.5,9.5 15.5,8.5 15.5,7.5C 18.5,7.5 21.5,7.5 24.5,7.5 Z"/></g>
<g><path style="opacity:1" fill="#7ccac9" d="M 24.5,7.5 C 26.5,7.5 28.5,7.5 30.5,7.5C 30.5,8.5 30.5,9.5 30.5,10.5C 28.5,10.5 26.5,10.5 24.5,10.5C 24.5,9.5 24.5,8.5 24.5,7.5 Z"/></g>
<g><path style="opacity:1" fill="#2b4a66" d="M 15.5,10.5 C 15.5,11.5 15.5,12.5 15.5,13.5C 14.5,13.5 13.5,13.5 12.5,13.5C 12.5,12.5 12.5,11.5 12.5,10.5C 13.5,10.5 14.5,10.5 15.5,10.5 Z"/></g>
<g><path style="opacity:1" fill="#b1e4de" d="M 15.5,10.5 C 17.5,10.5 19.5,10.5 21.5,10.5C 21.5,11.5 21.5,12.5 21.5,13.5C 20.5,13.5 19.5,13.5 18.5,13.5C 18.5,14.5 18.5,15.5 18.5,16.5C 17.5,16.5 16.5,16.5 15.5,16.5C 15.5,15.5 15.5,14.5 15.5,13.5C 15.5,12.5 15.5,11.5 15.5,10.5 Z"/></g>
<g><path style="opacity:1" fill="#defae8" d="M 21.5,10.5 C 22.5,10.5 23.5,10.5 24.5,10.5C 26.5,10.5 28.5,10.5 30.5,10.5C 30.5,11.5 30.5,12.5 30.5,13.5C 27.5,13.5 24.5,13.5 21.5,13.5C 21.5,12.5 21.5,11.5 21.5,10.5 Z"/></g>
<g><path style="opacity:1" fill="#7ccac9" d="M 30.5,10.5 C 31.5,10.5 32.5,10.5 33.5,10.5C 33.5,11.5 33.5,12.5 33.5,13.5C 32.5,13.5 31.5,13.5 30.5,13.5C 30.5,12.5 30.5,11.5 30.5,10.5 Z"/></g>
<g><path style="opacity:1" fill="#2b4a66" d="M 12.5,13.5 C 12.5,14.5 12.5,15.5 12.5,16.5C 11.5,16.5 10.5,16.5 9.5,16.5C 9.5,15.5 9.5,14.5 9.5,13.5C 10.5,13.5 11.5,13.5 12.5,13.5 Z"/></g>
<g><path style="opacity:1" fill="#7ac7c7" d="M 12.5,13.5 C 13.5,13.5 14.5,13.5 15.5,13.5C 15.5,14.5 15.5,15.5 15.5,16.5C 15.5,19.5 15.5,22.5 15.5,25.5C 16.5,25.5 17.5,25.5 18.5,25.5C 18.5,26.5 18.5,27.5 18.5,28.5C 19.5,28.5 20.5,28.5 21.5,28.5C 21.5,29.5 21.5,30.5 21.5,31.5C 25.5,31.5 29.5,31.5 33.5,31.5C 33.5,32.5 33.5,33.5 33.5,34.5C 32.5,34.5 31.5,34.5 30.5,34.5C 30.5,35.5 30.5,36.5 30.5,37.5C 28.5,37.5 26.5,37.5 24.5,37.5C 24.5,36.5 24.5,35.5 24.5,34.5C 22.5,34.5 20.5,34.5 18.5,34.5C 18.5,33.5 18.5,32.5 18.5,31.5C 17.5,31.5 16.5,31.5 15.5,31.5C 15.5,30.5 15.5,29.5 15.5,28.5C 14.5,28.5 13.5,28.5 12.5,28.5C 12.5,26.5 12.5,24.5 12.5,22.5C 11.5,22.5 10.5,22.5 9.5,22.5C 9.5,20.5 9.5,18.5 9.5,16.5C 10.5,16.5 11.5,16.5 12.5,16.5C 12.5,15.5 12.5,14.5 12.5,13.5 Z"/></g>
<g><path style="opacity:1" fill="#e0fbe9" d="M 21.5,13.5 C 21.5,14.5 21.5,15.5 21.5,16.5C 22.5,16.5 23.5,16.5 24.5,16.5C 24.5,17.5 24.5,18.5 24.5,19.5C 23.5,19.5 22.5,19.5 21.5,19.5C 21.5,21.5 21.5,23.5 21.5,25.5C 21.5,26.5 21.5,27.5 21.5,28.5C 20.5,28.5 19.5,28.5 18.5,28.5C 18.5,27.5 18.5,26.5 18.5,25.5C 17.5,25.5 16.5,25.5 15.5,25.5C 15.5,22.5 15.5,19.5 15.5,16.5C 16.5,16.5 17.5,16.5 18.5,16.5C 18.5,15.5 18.5,14.5 18.5,13.5C 19.5,13.5 20.5,13.5 21.5,13.5 Z"/></g>
<g><path style="opacity:1" fill="#fdfffd" d="M 21.5,13.5 C 24.5,13.5 27.5,13.5 30.5,13.5C 31.5,13.5 32.5,13.5 33.5,13.5C 33.5,15.5 33.5,17.5 33.5,19.5C 33.5,21.5 33.5,23.5 33.5,25.5C 32.5,25.5 31.5,25.5 30.5,25.5C 30.5,24.5 30.5,23.5 30.5,22.5C 29.5,22.5 28.5,22.5 27.5,22.5C 27.5,23.5 27.5,24.5 27.5,25.5C 25.5,25.5 23.5,25.5 21.5,25.5C 21.5,23.5 21.5,21.5 21.5,19.5C 22.5,19.5 23.5,19.5 24.5,19.5C 24.5,18.5 24.5,17.5 24.5,16.5C 23.5,16.5 22.5,16.5 21.5,16.5C 21.5,15.5 21.5,14.5 21.5,13.5 Z"/></g>
<g><path style="opacity:1" fill="#2b4a66" d="M 9.5,16.5 C 9.5,18.5 9.5,20.5 9.5,22.5C 9.5,23.5 9.5,24.5 9.5,25.5C 8.5,25.5 7.5,25.5 6.5,25.5C 6.5,22.5 6.5,19.5 6.5,16.5C 7.5,16.5 8.5,16.5 9.5,16.5 Z"/></g>
<g><path style="opacity:1" fill="#8cd1cf" d="M 33.5,13.5 C 34.5,13.5 35.5,13.5 36.5,13.5C 36.5,14.5 36.5,15.5 36.5,16.5C 37.5,16.5 38.5,16.5 39.5,16.5C 39.5,18.5 39.5,20.5 39.5,22.5C 38.5,22.5 37.5,22.5 36.5,22.5C 36.5,21.5 36.5,20.5 36.5,19.5C 35.5,19.5 34.5,19.5 33.5,19.5C 33.5,17.5 33.5,15.5 33.5,13.5 Z"/></g>
<g><path style="opacity:1" fill="#c6efe5" d="M 9.5,22.5 C 10.5,22.5 11.5,22.5 12.5,22.5C 12.5,24.5 12.5,26.5 12.5,28.5C 13.5,28.5 14.5,28.5 15.5,28.5C 15.5,29.5 15.5,30.5 15.5,31.5C 16.5,31.5 17.5,31.5 18.5,31.5C 18.5,32.5 18.5,33.5 18.5,34.5C 20.5,34.5 22.5,34.5 24.5,34.5C 24.5,35.5 24.5,36.5 24.5,37.5C 23.5,37.5 22.5,37.5 21.5,37.5C 19.5,37.5 17.5,37.5 15.5,37.5C 15.5,36.5 15.5,35.5 15.5,34.5C 14.5,34.5 13.5,34.5 12.5,34.5C 12.5,33.5 12.5,32.5 12.5,31.5C 11.5,31.5 10.5,31.5 9.5,31.5C 9.5,29.5 9.5,27.5 9.5,25.5C 9.5,24.5 9.5,23.5 9.5,22.5 Z"/></g>
<g><path style="opacity:1" fill="#e0fbe8" d="M 33.5,19.5 C 34.5,19.5 35.5,19.5 36.5,19.5C 36.5,20.5 36.5,21.5 36.5,22.5C 36.5,24.5 36.5,26.5 36.5,28.5C 35.5,28.5 34.5,28.5 33.5,28.5C 33.5,29.5 33.5,30.5 33.5,31.5C 29.5,31.5 25.5,31.5 21.5,31.5C 21.5,30.5 21.5,29.5 21.5,28.5C 21.5,27.5 21.5,26.5 21.5,25.5C 23.5,25.5 25.5,25.5 27.5,25.5C 27.5,24.5 27.5,23.5 27.5,22.5C 28.5,22.5 29.5,22.5 30.5,22.5C 30.5,23.5 30.5,24.5 30.5,25.5C 31.5,25.5 32.5,25.5 33.5,25.5C 33.5,23.5 33.5,21.5 33.5,19.5 Z"/></g>
<g><path style="opacity:1" fill="#177796" d="M 6.5,25.5 C 7.5,25.5 8.5,25.5 9.5,25.5C 9.5,27.5 9.5,29.5 9.5,31.5C 8.5,31.5 7.5,31.5 6.5,31.5C 6.5,29.5 6.5,27.5 6.5,25.5 Z"/></g>
<g><path style="opacity:1" fill="#295471" d="M 36.5,22.5 C 37.5,22.5 38.5,22.5 39.5,22.5C 39.5,25.5 39.5,28.5 39.5,31.5C 38.5,31.5 37.5,31.5 36.5,31.5C 36.5,30.5 36.5,29.5 36.5,28.5C 36.5,26.5 36.5,24.5 36.5,22.5 Z"/></g>
<g><path style="opacity:1" fill="#7ccac9" d="M 36.5,28.5 C 36.5,29.5 36.5,30.5 36.5,31.5C 35.5,31.5 34.5,31.5 33.5,31.5C 33.5,30.5 33.5,29.5 33.5,28.5C 34.5,28.5 35.5,28.5 36.5,28.5 Z"/></g>
<g><path style="opacity:1" fill="#177796" d="M 9.5,31.5 C 10.5,31.5 11.5,31.5 12.5,31.5C 12.5,32.5 12.5,33.5 12.5,34.5C 11.5,34.5 10.5,34.5 9.5,34.5C 9.5,33.5 9.5,32.5 9.5,31.5 Z"/></g>
<g><path style="opacity:1" fill="#2b4a66" d="M 33.5,31.5 C 34.5,31.5 35.5,31.5 36.5,31.5C 36.5,32.5 36.5,33.5 36.5,34.5C 35.5,34.5 34.5,34.5 33.5,34.5C 33.5,33.5 33.5,32.5 33.5,31.5 Z"/></g>
<g><path style="opacity:1" fill="#177796" d="M 12.5,34.5 C 13.5,34.5 14.5,34.5 15.5,34.5C 15.5,35.5 15.5,36.5 15.5,37.5C 14.5,37.5 13.5,37.5 12.5,37.5C 12.5,36.5 12.5,35.5 12.5,34.5 Z"/></g>
<g><path style="opacity:1" fill="#2b4a66" d="M 33.5,34.5 C 33.5,35.5 33.5,36.5 33.5,37.5C 32.5,37.5 31.5,37.5 30.5,37.5C 30.5,36.5 30.5,35.5 30.5,34.5C 31.5,34.5 32.5,34.5 33.5,34.5 Z"/></g>
<g><path style="opacity:1" fill="#177796" d="M 15.5,37.5 C 17.5,37.5 19.5,37.5 21.5,37.5C 21.5,38.5 21.5,39.5 21.5,40.5C 19.5,40.5 17.5,40.5 15.5,40.5C 15.5,39.5 15.5,38.5 15.5,37.5 Z"/></g>
<g><path style="opacity:1" fill="#2b4a66" d="M 21.5,37.5 C 22.5,37.5 23.5,37.5 24.5,37.5C 26.5,37.5 28.5,37.5 30.5,37.5C 30.5,38.5 30.5,39.5 30.5,40.5C 27.5,40.5 24.5,40.5 21.5,40.5C 21.5,39.5 21.5,38.5 21.5,37.5 Z"/></g>
</svg>
