<?xml version="1.0" encoding="UTF-8"?>
<!DOCTYPE svg PUBLIC "-//W3C//DTD SVG 1.1//EN" "http://www.w3.org/Graphics/SVG/1.1/DTD/svg11.dtd">
<svg xmlns="http://www.w3.org/2000/svg" version="1.1" width="48px" height="48px" style="shape-rendering:geometricPrecision; text-rendering:geometricPrecision; image-rendering:optimizeQuality; fill-rule:evenodd; clip-rule:evenodd" xmlns:xlink="http://www.w3.org/1999/xlink">
<g><path style="opacity:1" fill="#4e192c" d="M 32.5,5.5 C 31.5,5.5 30.5,5.5 29.5,5.5C 28.5,5.5 27.5,5.5 26.5,5.5C 22.5,5.5 18.5,5.5 14.5,5.5C 14.5,4.5 14.5,3.5 14.5,2.5C 20.5,2.5 26.5,2.5 32.5,2.5C 32.5,3.5 32.5,4.5 32.5,5.5 Z"/></g>
<g><path style="opacity:1" fill="#4e192c" d="M 14.5,5.5 C 14.5,6.5 14.5,7.5 14.5,8.5C 13.5,8.5 12.5,8.5 11.5,8.5C 11.5,7.5 11.5,6.5 11.5,5.5C 12.5,5.5 13.5,5.5 14.5,5.5 Z"/></g>
<g><path style="opacity:1" fill="#cb2e00" d="M 14.5,5.5 C 18.5,5.5 22.5,5.5 26.5,5.5C 26.5,6.5 26.5,7.5 26.5,8.5C 27.5,8.5 28.5,8.5 29.5,8.5C 29.5,7.5 29.5,6.5 29.5,5.5C 30.5,5.5 31.5,5.5 32.5,5.5C 32.5,6.5 32.5,7.5 32.5,8.5C 33.5,8.5 34.5,8.5 35.5,8.5C 35.5,10.5 35.5,12.5 35.5,14.5C 35.5,15.5 35.5,16.5 35.5,17.5C 36.5,17.5 37.5,17.5 38.5,17.5C 38.5,19.5 38.5,21.5 38.5,23.5C 37.5,23.5 36.5,23.5 35.5,23.5C 35.5,24.5 35.5,25.5 35.5,26.5C 34.5,26.5 33.5,26.5 32.5,26.5C 32.5,25.5 32.5,24.5 32.5,23.5C 31.5,23.5 30.5,23.5 29.5,23.5C 29.5,24.5 29.5,25.5 29.5,26.5C 27.5,26.5 25.5,26.5 23.5,26.5C 23.5,25.5 23.5,24.5 23.5,23.5C 21.5,23.5 19.5,23.5 17.5,23.5C 17.5,22.5 17.5,21.5 17.5,20.5C 16.5,20.5 15.5,20.5 14.5,20.5C 14.5,19.5 14.5,18.5 14.5,17.5C 14.5,15.5 14.5,13.5 14.5,11.5C 14.5,10.5 14.5,9.5 14.5,8.5C 14.5,7.5 14.5,6.5 14.5,5.5 Z"/></g>
<g><path style="opacity:1" fill="#fe9392" d="M 26.5,5.5 C 27.5,5.5 28.5,5.5 29.5,5.5C 29.5,6.5 29.5,7.5 29.5,8.5C 28.5,8.5 27.5,8.5 26.5,8.5C 26.5,7.5 26.5,6.5 26.5,5.5 Z"/></g>
<g><path style="opacity:1" fill="#4e192c" d="M 32.5,5.5 C 33.5,5.5 34.5,5.5 35.5,5.5C 35.5,6.5 35.5,7.5 35.5,8.5C 35.5,7.5 35.5,6.5 35.5,5.5C 34.5,5.5 33.5,5.5 32.5,5.5 Z"/></g>
<g><path style="opacity:1" fill="#4e192c" d="M 11.5,8.5 C 11.5,9.5 11.5,10.5 11.5,11.5C 11.5,12.5 11.5,13.5 11.5,14.5C 10.5,14.5 9.5,14.5 8.5,14.5C 8.5,12.5 8.5,10.5 8.5,8.5C 9.5,8.5 10.5,8.5 11.5,8.5 Z"/></g>
<g><path style="opacity:1" fill="#fe9392" d="M 11.5,8.5 C 12.5,8.5 13.5,8.5 14.5,8.5C 14.5,9.5 14.5,10.5 14.5,11.5C 13.5,11.5 12.5,11.5 11.5,11.5C 11.5,10.5 11.5,9.5 11.5,8.5 Z"/></g>
<g><path style="opacity:1" fill="#4e192c" d="M 35.5,8.5 C 36.5,8.5 37.5,8.5 38.5,8.5C 38.5,10.5 38.5,12.5 38.5,14.5C 37.5,14.5 36.5,14.5 35.5,14.5C 35.5,12.5 35.5,10.5 35.5,8.5 Z"/></g>
<g><path style="opacity:1" fill="#910000" d="M 11.5,11.5 C 12.5,11.5 13.5,11.5 14.5,11.5C 14.5,13.5 14.5,15.5 14.5,17.5C 13.5,17.5 12.5,17.5 11.5,17.5C 11.5,18.5 11.5,19.5 11.5,20.5C 12.5,20.5 13.5,20.5 14.5,20.5C 15.5,20.5 16.5,20.5 17.5,20.5C 17.5,21.5 17.5,22.5 17.5,23.5C 19.5,23.5 21.5,23.5 23.5,23.5C 23.5,24.5 23.5,25.5 23.5,26.5C 25.5,26.5 27.5,26.5 29.5,26.5C 29.5,27.5 29.5,28.5 29.5,29.5C 25.5,29.5 21.5,29.5 17.5,29.5C 17.5,28.5 17.5,27.5 17.5,26.5C 15.5,26.5 13.5,26.5 11.5,26.5C 11.5,25.5 11.5,24.5 11.5,23.5C 10.5,23.5 9.5,23.5 8.5,23.5C 8.5,20.5 8.5,17.5 8.5,14.5C 9.5,14.5 10.5,14.5 11.5,14.5C 11.5,13.5 11.5,12.5 11.5,11.5 Z"/></g>
<g><path style="opacity:1" fill="#fe9392" d="M 23.5,11.5 C 24.5,11.5 25.5,11.5 26.5,11.5C 26.5,12.5 26.5,13.5 26.5,14.5C 25.5,14.5 24.5,14.5 23.5,14.5C 23.5,13.5 23.5,12.5 23.5,11.5 Z"/></g>
<g><path style="opacity:1" fill="#4e192c" d="M 8.5,14.5 C 8.5,17.5 8.5,20.5 8.5,23.5C 7.5,23.5 6.5,23.5 5.5,23.5C 5.5,20.5 5.5,17.5 5.5,14.5C 6.5,14.5 7.5,14.5 8.5,14.5 Z"/></g>
<g><path style="opacity:1" fill="#fe9392" d="M 35.5,14.5 C 36.5,14.5 37.5,14.5 38.5,14.5C 38.5,15.5 38.5,16.5 38.5,17.5C 37.5,17.5 36.5,17.5 35.5,17.5C 35.5,16.5 35.5,15.5 35.5,14.5 Z"/></g>
<g><path style="opacity:1" fill="#4e192c" d="M 38.5,14.5 C 39.5,14.5 40.5,14.5 41.5,14.5C 41.5,17.5 41.5,20.5 41.5,23.5C 40.5,23.5 39.5,23.5 38.5,23.5C 38.5,21.5 38.5,19.5 38.5,17.5C 38.5,16.5 38.5,15.5 38.5,14.5 Z"/></g>
<g><path style="opacity:1" fill="#fe9392" d="M 14.5,17.5 C 14.5,18.5 14.5,19.5 14.5,20.5C 13.5,20.5 12.5,20.5 11.5,20.5C 11.5,19.5 11.5,18.5 11.5,17.5C 12.5,17.5 13.5,17.5 14.5,17.5 Z"/></g>
<g><path style="opacity:1" fill="#fe9392" d="M 20.5,17.5 C 21.5,17.5 22.5,17.5 23.5,17.5C 23.5,18.5 23.5,19.5 23.5,20.5C 22.5,20.5 21.5,20.5 20.5,20.5C 20.5,19.5 20.5,18.5 20.5,17.5 Z"/></g>
<g><path style="opacity:1" fill="#4e192c" d="M 8.5,23.5 C 9.5,23.5 10.5,23.5 11.5,23.5C 11.5,24.5 11.5,25.5 11.5,26.5C 10.5,26.5 9.5,26.5 8.5,26.5C 8.5,25.5 8.5,24.5 8.5,23.5 Z"/></g>
<g><path style="opacity:1" fill="#fe9392" d="M 32.5,26.5 C 31.5,26.5 30.5,26.5 29.5,26.5C 29.5,25.5 29.5,24.5 29.5,23.5C 30.5,23.5 31.5,23.5 32.5,23.5C 32.5,24.5 32.5,25.5 32.5,26.5 Z"/></g>
<g><path style="opacity:1" fill="#4e192c" d="M 38.5,23.5 C 38.5,24.5 38.5,25.5 38.5,26.5C 37.5,26.5 36.5,26.5 35.5,26.5C 35.5,25.5 35.5,24.5 35.5,23.5C 36.5,23.5 37.5,23.5 38.5,23.5 Z"/></g>
<g><path style="opacity:1" fill="#5f1c31" d="M 11.5,26.5 C 13.5,26.5 15.5,26.5 17.5,26.5C 17.5,27.5 17.5,28.5 17.5,29.5C 16.5,29.5 15.5,29.5 14.5,29.5C 14.5,32.5 14.5,35.5 14.5,38.5C 13.5,38.5 12.5,38.5 11.5,38.5C 11.5,34.5 11.5,30.5 11.5,26.5 Z"/></g>
<g><path style="opacity:1" fill="#c3845f" d="M 17.5,29.5 C 21.5,29.5 25.5,29.5 29.5,29.5C 30.5,29.5 31.5,29.5 32.5,29.5C 32.5,32.5 32.5,35.5 32.5,38.5C 31.5,38.5 30.5,38.5 29.5,38.5C 29.5,36.5 29.5,34.5 29.5,32.5C 25.5,32.5 21.5,32.5 17.5,32.5C 17.5,34.5 17.5,36.5 17.5,38.5C 16.5,38.5 15.5,38.5 14.5,38.5C 14.5,35.5 14.5,32.5 14.5,29.5C 15.5,29.5 16.5,29.5 17.5,29.5 Z"/></g>
<g><path style="opacity:1" fill="#5f1c31" d="M 29.5,26.5 C 30.5,26.5 31.5,26.5 32.5,26.5C 33.5,26.5 34.5,26.5 35.5,26.5C 35.5,30.5 35.5,34.5 35.5,38.5C 34.5,38.5 33.5,38.5 32.5,38.5C 32.5,35.5 32.5,32.5 32.5,29.5C 31.5,29.5 30.5,29.5 29.5,29.5C 29.5,28.5 29.5,27.5 29.5,26.5 Z"/></g>
<g><path style="opacity:1" fill="#ffe0ad" d="M 29.5,38.5 C 28.5,38.5 27.5,38.5 26.5,38.5C 26.5,39.5 26.5,40.5 26.5,41.5C 24.5,41.5 22.5,41.5 20.5,41.5C 20.5,40.5 20.5,39.5 20.5,38.5C 19.5,38.5 18.5,38.5 17.5,38.5C 17.5,36.5 17.5,34.5 17.5,32.5C 21.5,32.5 25.5,32.5 29.5,32.5C 29.5,34.5 29.5,36.5 29.5,38.5 Z"/></g>
<g><path style="opacity:1" fill="#621d32" d="M 14.5,38.5 C 15.5,38.5 16.5,38.5 17.5,38.5C 17.5,39.5 17.5,40.5 17.5,41.5C 16.5,41.5 15.5,41.5 14.5,41.5C 14.5,40.5 14.5,39.5 14.5,38.5 Z"/></g>
<g><path style="opacity:1" fill="#c3845f" d="M 17.5,38.5 C 18.5,38.5 19.5,38.5 20.5,38.5C 20.5,39.5 20.5,40.5 20.5,41.5C 19.5,41.5 18.5,41.5 17.5,41.5C 17.5,40.5 17.5,39.5 17.5,38.5 Z"/></g>
<g><path style="opacity:1" fill="#c3845f" d="M 29.5,38.5 C 29.5,39.5 29.5,40.5 29.5,41.5C 28.5,41.5 27.5,41.5 26.5,41.5C 26.5,40.5 26.5,39.5 26.5,38.5C 27.5,38.5 28.5,38.5 29.5,38.5 Z"/></g>
<g><path style="opacity:1" fill="#621d32" d="M 29.5,38.5 C 30.5,38.5 31.5,38.5 32.5,38.5C 32.5,39.5 32.5,40.5 32.5,41.5C 31.5,41.5 30.5,41.5 29.5,41.5C 29.5,40.5 29.5,39.5 29.5,38.5 Z"/></g>
<g><path style="opacity:1" fill="#621d32" d="M 17.5,41.5 C 18.5,41.5 19.5,41.5 20.5,41.5C 22.5,41.5 24.5,41.5 26.5,41.5C 27.5,41.5 28.5,41.5 29.5,41.5C 29.5,42.5 29.5,43.5 29.5,44.5C 25.5,44.5 21.5,44.5 17.5,44.5C 17.5,43.5 17.5,42.5 17.5,41.5 Z"/></g>
</svg>
