<?xml version="1.0" encoding="UTF-8"?>
<!DOCTYPE svg PUBLIC "-//W3C//DTD SVG 1.1//EN" "http://www.w3.org/Graphics/SVG/1.1/DTD/svg11.dtd">
<svg xmlns="http://www.w3.org/2000/svg" version="1.1" width="48px" height="48px" style="shape-rendering:geometricPrecision; text-rendering:geometricPrecision; image-rendering:optimizeQuality; fill-rule:evenodd; clip-rule:evenodd" xmlns:xlink="http://www.w3.org/1999/xlink">
<g><path style="opacity:1" fill="#031232" d="M 5.5,-0.5 C 9.5,-0.5 13.5,-0.5 17.5,-0.5C 17.5,0.5 17.5,1.5 17.5,2.5C 16.5,2.5 15.5,2.5 14.5,2.5C 12.5,2.5 10.5,2.5 8.5,2.5C 8.5,3.5 8.5,4.5 8.5,5.5C 7.5,5.5 6.5,5.5 5.5,5.5C 5.5,3.5 5.5,1.5 5.5,-0.5 Z"/></g>
<g><path style="opacity:1" fill="#031232" d="M 29.5,-0.5 C 33.5,-0.5 37.5,-0.5 41.5,-0.5C 41.5,1.5 41.5,3.5 41.5,5.5C 40.5,5.5 39.5,5.5 38.5,5.5C 38.5,4.5 38.5,3.5 38.5,2.5C 36.5,2.5 34.5,2.5 32.5,2.5C 31.5,2.5 30.5,2.5 29.5,2.5C 29.5,1.5 29.5,0.5 29.5,-0.5 Z"/></g>
<g><path style="opacity:1" fill="#1cff95" d="M 14.5,2.5 C 14.5,3.5 14.5,4.5 14.5,5.5C 13.5,5.5 12.5,5.5 11.5,5.5C 10.5,5.5 9.5,5.5 8.5,5.5C 8.5,4.5 8.5,3.5 8.5,2.5C 10.5,2.5 12.5,2.5 14.5,2.5 Z"/></g>
<g><path style="opacity:1" fill="#1cff95" d="M 32.5,2.5 C 34.5,2.5 36.5,2.5 38.5,2.5C 38.5,3.5 38.5,4.5 38.5,5.5C 37.5,5.5 36.5,5.5 35.5,5.5C 34.5,5.5 33.5,5.5 32.5,5.5C 32.5,4.5 32.5,3.5 32.5,2.5 Z"/></g>
<g><path style="opacity:1" fill="#031232" d="M 8.5,5.5 C 9.5,5.5 10.5,5.5 11.5,5.5C 11.5,6.5 11.5,7.5 11.5,8.5C 10.5,8.5 9.5,8.5 8.5,8.5C 8.5,7.5 8.5,6.5 8.5,5.5 Z"/></g>
<g><path style="opacity:1" fill="#329ea5" d="M 14.5,2.5 C 15.5,2.5 16.5,2.5 17.5,2.5C 17.5,4.5 17.5,6.5 17.5,8.5C 15.5,8.5 13.5,8.5 11.5,8.5C 11.5,7.5 11.5,6.5 11.5,5.5C 12.5,5.5 13.5,5.5 14.5,5.5C 14.5,4.5 14.5,3.5 14.5,2.5 Z"/></g>
<g><path style="opacity:1" fill="#11263b" d="M 17.5,2.5 C 18.5,2.5 19.5,2.5 20.5,2.5C 20.5,3.5 20.5,4.5 20.5,5.5C 22.5,5.5 24.5,5.5 26.5,5.5C 26.5,4.5 26.5,3.5 26.5,2.5C 27.5,2.5 28.5,2.5 29.5,2.5C 29.5,4.5 29.5,6.5 29.5,8.5C 25.5,8.5 21.5,8.5 17.5,8.5C 17.5,6.5 17.5,4.5 17.5,2.5 Z"/></g>
<g><path style="opacity:1" fill="#318e92" d="M 29.5,2.5 C 30.5,2.5 31.5,2.5 32.5,2.5C 32.5,3.5 32.5,4.5 32.5,5.5C 33.5,5.5 34.5,5.5 35.5,5.5C 35.5,6.5 35.5,7.5 35.5,8.5C 34.5,8.5 33.5,8.5 32.5,8.5C 32.5,9.5 32.5,10.5 32.5,11.5C 31.5,11.5 30.5,11.5 29.5,11.5C 29.5,10.5 29.5,9.5 29.5,8.5C 29.5,6.5 29.5,4.5 29.5,2.5 Z"/></g>
<g><path style="opacity:1" fill="#031232" d="M 35.5,5.5 C 36.5,5.5 37.5,5.5 38.5,5.5C 38.5,6.5 38.5,7.5 38.5,8.5C 37.5,8.5 36.5,8.5 35.5,8.5C 35.5,7.5 35.5,6.5 35.5,5.5 Z"/></g>
<g><path style="opacity:1" fill="#1d3a44" d="M 11.5,8.5 C 13.5,8.5 15.5,8.5 17.5,8.5C 17.5,9.5 17.5,10.5 17.5,11.5C 16.5,11.5 15.5,11.5 14.5,11.5C 13.5,11.5 12.5,11.5 11.5,11.5C 11.5,10.5 11.5,9.5 11.5,8.5 Z"/></g>
<g><path style="opacity:1" fill="#063ace" d="M 17.5,8.5 C 21.5,8.5 25.5,8.5 29.5,8.5C 29.5,9.5 29.5,10.5 29.5,11.5C 28.5,11.5 27.5,11.5 26.5,11.5C 24.5,11.5 22.5,11.5 20.5,11.5C 19.5,11.5 18.5,11.5 17.5,11.5C 17.5,10.5 17.5,9.5 17.5,8.5 Z"/></g>
<g><path style="opacity:1" fill="#031232" d="M 35.5,8.5 C 35.5,9.5 35.5,10.5 35.5,11.5C 34.5,11.5 33.5,11.5 32.5,11.5C 32.5,10.5 32.5,9.5 32.5,8.5C 33.5,8.5 34.5,8.5 35.5,8.5 Z"/></g>
<g><path style="opacity:1" fill="#063ace" d="M 14.5,11.5 C 15.5,11.5 16.5,11.5 17.5,11.5C 17.5,12.5 17.5,13.5 17.5,14.5C 16.5,14.5 15.5,14.5 14.5,14.5C 14.5,13.5 14.5,12.5 14.5,11.5 Z"/></g>
<g><path style="opacity:1" fill="#009dff" d="M 17.5,11.5 C 18.5,11.5 19.5,11.5 20.5,11.5C 20.5,12.5 20.5,13.5 20.5,14.5C 19.5,14.5 18.5,14.5 17.5,14.5C 17.5,13.5 17.5,12.5 17.5,11.5 Z"/></g>
<g><path style="opacity:1" fill="#02fffe" d="M 20.5,11.5 C 22.5,11.5 24.5,11.5 26.5,11.5C 26.5,12.5 26.5,13.5 26.5,14.5C 24.5,14.5 22.5,14.5 20.5,14.5C 20.5,13.5 20.5,12.5 20.5,11.5 Z"/></g>
<g><path style="opacity:1" fill="#009dff" d="M 26.5,11.5 C 27.5,11.5 28.5,11.5 29.5,11.5C 29.5,12.5 29.5,13.5 29.5,14.5C 28.5,14.5 27.5,14.5 26.5,14.5C 26.5,13.5 26.5,12.5 26.5,11.5 Z"/></g>
<g><path style="opacity:1" fill="#063ace" d="M 29.5,11.5 C 30.5,11.5 31.5,11.5 32.5,11.5C 32.5,12.5 32.5,13.5 32.5,14.5C 31.5,14.5 30.5,14.5 29.5,14.5C 29.5,13.5 29.5,12.5 29.5,11.5 Z"/></g>
<g><path style="opacity:1" fill="#063ace" d="M 14.5,14.5 C 14.5,15.5 14.5,16.5 14.5,17.5C 14.5,20.5 14.5,23.5 14.5,26.5C 14.5,27.5 14.5,28.5 14.5,29.5C 13.5,29.5 12.5,29.5 11.5,29.5C 11.5,24.5 11.5,19.5 11.5,14.5C 12.5,14.5 13.5,14.5 14.5,14.5 Z"/></g>
<g><path style="opacity:1" fill="#009dff" d="M 14.5,14.5 C 15.5,14.5 16.5,14.5 17.5,14.5C 17.5,15.5 17.5,16.5 17.5,17.5C 16.5,17.5 15.5,17.5 14.5,17.5C 14.5,16.5 14.5,15.5 14.5,14.5 Z"/></g>
<g><path style="opacity:1" fill="#fef9f1" d="M 17.5,14.5 C 18.5,14.5 19.5,14.5 20.5,14.5C 22.5,14.5 24.5,14.5 26.5,14.5C 27.5,14.5 28.5,14.5 29.5,14.5C 29.5,15.5 29.5,16.5 29.5,17.5C 29.5,20.5 29.5,23.5 29.5,26.5C 29.5,27.5 29.5,28.5 29.5,29.5C 29.5,30.5 29.5,31.5 29.5,32.5C 28.5,32.5 27.5,32.5 26.5,32.5C 26.5,33.5 26.5,34.5 26.5,35.5C 26.5,36.5 26.5,37.5 26.5,38.5C 24.5,38.5 22.5,38.5 20.5,38.5C 20.5,37.5 20.5,36.5 20.5,35.5C 20.5,34.5 20.5,33.5 20.5,32.5C 19.5,32.5 18.5,32.5 17.5,32.5C 17.5,31.5 17.5,30.5 17.5,29.5C 17.5,28.5 17.5,27.5 17.5,26.5C 17.5,23.5 17.5,20.5 17.5,17.5C 17.5,16.5 17.5,15.5 17.5,14.5 Z"/></g>
<g><path style="opacity:1" fill="#009dff" d="M 29.5,14.5 C 30.5,14.5 31.5,14.5 32.5,14.5C 32.5,15.5 32.5,16.5 32.5,17.5C 31.5,17.5 30.5,17.5 29.5,17.5C 29.5,16.5 29.5,15.5 29.5,14.5 Z"/></g>
<g><path style="opacity:1" fill="#063ace" d="M 32.5,14.5 C 33.5,14.5 34.5,14.5 35.5,14.5C 35.5,19.5 35.5,24.5 35.5,29.5C 34.5,29.5 33.5,29.5 32.5,29.5C 32.5,28.5 32.5,27.5 32.5,26.5C 32.5,23.5 32.5,20.5 32.5,17.5C 32.5,16.5 32.5,15.5 32.5,14.5 Z"/></g>
<g><path style="opacity:1" fill="#02fffe" d="M 14.5,17.5 C 15.5,17.5 16.5,17.5 17.5,17.5C 17.5,20.5 17.5,23.5 17.5,26.5C 16.5,26.5 15.5,26.5 14.5,26.5C 14.5,23.5 14.5,20.5 14.5,17.5 Z"/></g>
<g><path style="opacity:1" fill="#02fffe" d="M 29.5,17.5 C 30.5,17.5 31.5,17.5 32.5,17.5C 32.5,20.5 32.5,23.5 32.5,26.5C 31.5,26.5 30.5,26.5 29.5,26.5C 29.5,23.5 29.5,20.5 29.5,17.5 Z"/></g>
<g><path style="opacity:1" fill="#009dff" d="M 14.5,26.5 C 15.5,26.5 16.5,26.5 17.5,26.5C 17.5,27.5 17.5,28.5 17.5,29.5C 16.5,29.5 15.5,29.5 14.5,29.5C 14.5,28.5 14.5,27.5 14.5,26.5 Z"/></g>
<g><path style="opacity:1" fill="#009dff" d="M 29.5,26.5 C 30.5,26.5 31.5,26.5 32.5,26.5C 32.5,27.5 32.5,28.5 32.5,29.5C 31.5,29.5 30.5,29.5 29.5,29.5C 29.5,28.5 29.5,27.5 29.5,26.5 Z"/></g>
<g><path style="opacity:1" fill="#063ace" d="M 14.5,29.5 C 15.5,29.5 16.5,29.5 17.5,29.5C 17.5,30.5 17.5,31.5 17.5,32.5C 17.5,33.5 17.5,34.5 17.5,35.5C 16.5,35.5 15.5,35.5 14.5,35.5C 14.5,33.5 14.5,31.5 14.5,29.5 Z"/></g>
<g><path style="opacity:1" fill="#063ace" d="M 29.5,29.5 C 30.5,29.5 31.5,29.5 32.5,29.5C 32.5,31.5 32.5,33.5 32.5,35.5C 31.5,35.5 30.5,35.5 29.5,35.5C 29.5,34.5 29.5,33.5 29.5,32.5C 29.5,31.5 29.5,30.5 29.5,29.5 Z"/></g>
<g><path style="opacity:1" fill="#02fffe" d="M 17.5,32.5 C 18.5,32.5 19.5,32.5 20.5,32.5C 20.5,33.5 20.5,34.5 20.5,35.5C 19.5,35.5 18.5,35.5 17.5,35.5C 17.5,34.5 17.5,33.5 17.5,32.5 Z"/></g>
<g><path style="opacity:1" fill="#02fffe" d="M 29.5,32.5 C 29.5,33.5 29.5,34.5 29.5,35.5C 28.5,35.5 27.5,35.5 26.5,35.5C 26.5,34.5 26.5,33.5 26.5,32.5C 27.5,32.5 28.5,32.5 29.5,32.5 Z"/></g>
<g><path style="opacity:1" fill="#063ace" d="M 17.5,35.5 C 18.5,35.5 19.5,35.5 20.5,35.5C 20.5,36.5 20.5,37.5 20.5,38.5C 20.5,39.5 20.5,40.5 20.5,41.5C 19.5,41.5 18.5,41.5 17.5,41.5C 17.5,39.5 17.5,37.5 17.5,35.5 Z"/></g>
<g><path style="opacity:1" fill="#063ace" d="M 26.5,35.5 C 27.5,35.5 28.5,35.5 29.5,35.5C 29.5,37.5 29.5,39.5 29.5,41.5C 28.5,41.5 27.5,41.5 26.5,41.5C 26.5,40.5 26.5,39.5 26.5,38.5C 26.5,37.5 26.5,36.5 26.5,35.5 Z"/></g>
<g><path style="opacity:1" fill="#02fffe" d="M 20.5,38.5 C 22.5,38.5 24.5,38.5 26.5,38.5C 26.5,39.5 26.5,40.5 26.5,41.5C 24.5,41.5 22.5,41.5 20.5,41.5C 20.5,40.5 20.5,39.5 20.5,38.5 Z"/></g>
<g><path style="opacity:1" fill="#063ace" d="M 20.5,41.5 C 22.5,41.5 24.5,41.5 26.5,41.5C 26.5,42.5 26.5,43.5 26.5,44.5C 24.5,44.5 22.5,44.5 20.5,44.5C 20.5,43.5 20.5,42.5 20.5,41.5 Z"/></g>
</svg>
