<?xml version="1.0" encoding="UTF-8"?>
<!DOCTYPE svg PUBLIC "-//W3C//DTD SVG 1.1//EN" "http://www.w3.org/Graphics/SVG/1.1/DTD/svg11.dtd">
<svg xmlns="http://www.w3.org/2000/svg" version="1.1" width="48px" height="48px" style="shape-rendering:geometricPrecision; text-rendering:geometricPrecision; image-rendering:optimizeQuality; fill-rule:evenodd; clip-rule:evenodd" xmlns:xlink="http://www.w3.org/1999/xlink">
<g><path style="opacity:1" fill="#27502b" d="M 28.5,5.5 C 25.5,5.5 22.5,5.5 19.5,5.5C 19.5,4.5 19.5,3.5 19.5,2.5C 22.5,2.5 25.5,2.5 28.5,2.5C 28.5,3.5 28.5,4.5 28.5,5.5 Z"/></g>
<g><path style="opacity:1" fill="#27502b" d="M 19.5,5.5 C 19.5,6.5 19.5,7.5 19.5,8.5C 17.5,8.5 15.5,8.5 13.5,8.5C 13.5,7.5 13.5,6.5 13.5,5.5C 15.5,5.5 17.5,5.5 19.5,5.5 Z"/></g>
<g><path style="opacity:1" fill="#32a54e" d="M 19.5,5.5 C 22.5,5.5 25.5,5.5 28.5,5.5C 28.5,6.5 28.5,7.5 28.5,8.5C 25.5,8.5 22.5,8.5 19.5,8.5C 19.5,7.5 19.5,6.5 19.5,5.5 Z"/></g>
<g><path style="opacity:1" fill="#27502b" d="M 28.5,5.5 C 30.5,5.5 32.5,5.5 34.5,5.5C 34.5,6.5 34.5,7.5 34.5,8.5C 32.5,8.5 30.5,8.5 28.5,8.5C 28.5,7.5 28.5,6.5 28.5,5.5 Z"/></g>
<g><path style="opacity:1" fill="#27502b" d="M 13.5,8.5 C 13.5,9.5 13.5,10.5 13.5,11.5C 12.5,11.5 11.5,11.5 10.5,11.5C 10.5,10.5 10.5,9.5 10.5,8.5C 11.5,8.5 12.5,8.5 13.5,8.5 Z"/></g>
<g><path style="opacity:1" fill="#2e9a4c" d="M 13.5,8.5 C 15.5,8.5 17.5,8.5 19.5,8.5C 19.5,9.5 19.5,10.5 19.5,11.5C 18.5,11.5 17.5,11.5 16.5,11.5C 16.5,12.5 16.5,13.5 16.5,14.5C 15.5,14.5 14.5,14.5 13.5,14.5C 13.5,13.5 13.5,12.5 13.5,11.5C 13.5,10.5 13.5,9.5 13.5,8.5 Z"/></g>
<g><path style="opacity:1" fill="#27502b" d="M 19.5,8.5 C 22.5,8.5 25.5,8.5 28.5,8.5C 28.5,9.5 28.5,10.5 28.5,11.5C 25.5,11.5 22.5,11.5 19.5,11.5C 19.5,10.5 19.5,9.5 19.5,8.5 Z"/></g>
<g><path style="opacity:1" fill="#32a54e" d="M 28.5,8.5 C 30.5,8.5 32.5,8.5 34.5,8.5C 34.5,9.5 34.5,10.5 34.5,11.5C 34.5,12.5 34.5,13.5 34.5,14.5C 33.5,14.5 32.5,14.5 31.5,14.5C 31.5,13.5 31.5,12.5 31.5,11.5C 30.5,11.5 29.5,11.5 28.5,11.5C 28.5,10.5 28.5,9.5 28.5,8.5 Z"/></g>
<g><path style="opacity:1" fill="#27502b" d="M 34.5,8.5 C 35.5,8.5 36.5,8.5 37.5,8.5C 37.5,9.5 37.5,10.5 37.5,11.5C 36.5,11.5 35.5,11.5 34.5,11.5C 34.5,10.5 34.5,9.5 34.5,8.5 Z"/></g>
<g><path style="opacity:1" fill="#27502b" d="M 10.5,11.5 C 10.5,12.5 10.5,13.5 10.5,14.5C 10.5,15.5 10.5,16.5 10.5,17.5C 10.5,18.5 10.5,19.5 10.5,20.5C 9.5,20.5 8.5,20.5 7.5,20.5C 7.5,17.5 7.5,14.5 7.5,11.5C 8.5,11.5 9.5,11.5 10.5,11.5 Z"/></g>
<g><path style="opacity:1" fill="#5bff1b" d="M 10.5,11.5 C 11.5,11.5 12.5,11.5 13.5,11.5C 13.5,12.5 13.5,13.5 13.5,14.5C 12.5,14.5 11.5,14.5 10.5,14.5C 10.5,13.5 10.5,12.5 10.5,11.5 Z"/></g>
<g><path style="opacity:1" fill="#27502b" d="M 19.5,11.5 C 19.5,14.5 19.5,17.5 19.5,20.5C 18.5,20.5 17.5,20.5 16.5,20.5C 16.5,18.5 16.5,16.5 16.5,14.5C 16.5,13.5 16.5,12.5 16.5,11.5C 17.5,11.5 18.5,11.5 19.5,11.5 Z"/></g>
<g><path style="opacity:1" fill="#2f9b4c" d="M 19.5,11.5 C 22.5,11.5 25.5,11.5 28.5,11.5C 28.5,12.5 28.5,13.5 28.5,14.5C 27.5,14.5 26.5,14.5 25.5,14.5C 25.5,15.5 25.5,16.5 25.5,17.5C 24.5,17.5 23.5,17.5 22.5,17.5C 22.5,18.5 22.5,19.5 22.5,20.5C 21.5,20.5 20.5,20.5 19.5,20.5C 19.5,17.5 19.5,14.5 19.5,11.5 Z"/></g>
<g><path style="opacity:1" fill="#5bff1b" d="M 34.5,11.5 C 35.5,11.5 36.5,11.5 37.5,11.5C 37.5,12.5 37.5,13.5 37.5,14.5C 36.5,14.5 35.5,14.5 34.5,14.5C 34.5,13.5 34.5,12.5 34.5,11.5 Z"/></g>
<g><path style="opacity:1" fill="#27502b" d="M 37.5,11.5 C 38.5,11.5 39.5,11.5 40.5,11.5C 40.5,14.5 40.5,17.5 40.5,20.5C 39.5,20.5 38.5,20.5 37.5,20.5C 37.5,19.5 37.5,18.5 37.5,17.5C 37.5,16.5 37.5,15.5 37.5,14.5C 37.5,13.5 37.5,12.5 37.5,11.5 Z"/></g>
<g><path style="opacity:1" fill="#3abc51" d="M 10.5,14.5 C 11.5,14.5 12.5,14.5 13.5,14.5C 13.5,15.5 13.5,16.5 13.5,17.5C 12.5,17.5 11.5,17.5 10.5,17.5C 10.5,16.5 10.5,15.5 10.5,14.5 Z"/></g>
<g><path style="opacity:1" fill="#5bff1b" d="M 28.5,14.5 C 28.5,15.5 28.5,16.5 28.5,17.5C 27.5,17.5 26.5,17.5 25.5,17.5C 25.5,16.5 25.5,15.5 25.5,14.5C 26.5,14.5 27.5,14.5 28.5,14.5 Z"/></g>
<g><path style="opacity:1" fill="#3abc51" d="M 34.5,14.5 C 35.5,14.5 36.5,14.5 37.5,14.5C 37.5,15.5 37.5,16.5 37.5,17.5C 36.5,17.5 35.5,17.5 34.5,17.5C 34.5,16.5 34.5,15.5 34.5,14.5 Z"/></g>
<g><path style="opacity:1" fill="#371042" d="M 10.5,17.5 C 11.5,17.5 12.5,17.5 13.5,17.5C 13.5,19.5 13.5,21.5 13.5,23.5C 13.5,25.5 13.5,27.5 13.5,29.5C 12.5,29.5 11.5,29.5 10.5,29.5C 10.5,26.5 10.5,23.5 10.5,20.5C 10.5,19.5 10.5,18.5 10.5,17.5 Z"/></g>
<g><path style="opacity:1" fill="#5c1a35" d="M 13.5,14.5 C 14.5,14.5 15.5,14.5 16.5,14.5C 16.5,16.5 16.5,18.5 16.5,20.5C 17.5,20.5 18.5,20.5 19.5,20.5C 19.5,22.5 19.5,24.5 19.5,26.5C 18.5,26.5 17.5,26.5 16.5,26.5C 16.5,25.5 16.5,24.5 16.5,23.5C 15.5,23.5 14.5,23.5 13.5,23.5C 13.5,21.5 13.5,19.5 13.5,17.5C 13.5,16.5 13.5,15.5 13.5,14.5 Z"/></g>
<g><path style="opacity:1" fill="#5bff1b" d="M 25.5,17.5 C 25.5,18.5 25.5,19.5 25.5,20.5C 24.5,20.5 23.5,20.5 22.5,20.5C 22.5,19.5 22.5,18.5 22.5,17.5C 23.5,17.5 24.5,17.5 25.5,17.5 Z"/></g>
<g><path style="opacity:1" fill="#4b143b" d="M 31.5,14.5 C 32.5,14.5 33.5,14.5 34.5,14.5C 34.5,15.5 34.5,16.5 34.5,17.5C 35.5,17.5 36.5,17.5 37.5,17.5C 37.5,18.5 37.5,19.5 37.5,20.5C 37.5,23.5 37.5,26.5 37.5,29.5C 36.5,29.5 35.5,29.5 34.5,29.5C 34.5,26.5 34.5,23.5 34.5,20.5C 33.5,20.5 32.5,20.5 31.5,20.5C 31.5,18.5 31.5,16.5 31.5,14.5 Z"/></g>
<g><path style="opacity:1" fill="#1f4b29" d="M 28.5,11.5 C 29.5,11.5 30.5,11.5 31.5,11.5C 31.5,12.5 31.5,13.5 31.5,14.5C 31.5,16.5 31.5,18.5 31.5,20.5C 30.5,20.5 29.5,20.5 28.5,20.5C 28.5,22.5 28.5,24.5 28.5,26.5C 27.5,26.5 26.5,26.5 25.5,26.5C 25.5,27.5 25.5,28.5 25.5,29.5C 24.5,29.5 23.5,29.5 22.5,29.5C 22.5,28.5 22.5,27.5 22.5,26.5C 21.5,26.5 20.5,26.5 19.5,26.5C 19.5,24.5 19.5,22.5 19.5,20.5C 20.5,20.5 21.5,20.5 22.5,20.5C 23.5,20.5 24.5,20.5 25.5,20.5C 25.5,19.5 25.5,18.5 25.5,17.5C 26.5,17.5 27.5,17.5 28.5,17.5C 28.5,16.5 28.5,15.5 28.5,14.5C 28.5,13.5 28.5,12.5 28.5,11.5 Z"/></g>
<g><path style="opacity:1" fill="#a0312f" d="M 31.5,20.5 C 32.5,20.5 33.5,20.5 34.5,20.5C 34.5,23.5 34.5,26.5 34.5,29.5C 34.5,32.5 34.5,35.5 34.5,38.5C 33.5,38.5 32.5,38.5 31.5,38.5C 31.5,39.5 31.5,40.5 31.5,41.5C 30.5,41.5 29.5,41.5 28.5,41.5C 28.5,40.5 28.5,39.5 28.5,38.5C 28.5,37.5 28.5,36.5 28.5,35.5C 29.5,35.5 30.5,35.5 31.5,35.5C 31.5,33.5 31.5,31.5 31.5,29.5C 31.5,28.5 31.5,27.5 31.5,26.5C 30.5,26.5 29.5,26.5 28.5,26.5C 28.5,24.5 28.5,22.5 28.5,20.5C 29.5,20.5 30.5,20.5 31.5,20.5 Z"/></g>
<g><path style="opacity:1" fill="#a02f30" d="M 13.5,23.5 C 14.5,23.5 15.5,23.5 16.5,23.5C 16.5,24.5 16.5,25.5 16.5,26.5C 17.5,26.5 18.5,26.5 19.5,26.5C 20.5,26.5 21.5,26.5 22.5,26.5C 22.5,27.5 22.5,28.5 22.5,29.5C 22.5,30.5 22.5,31.5 22.5,32.5C 21.5,32.5 20.5,32.5 19.5,32.5C 19.5,33.5 19.5,34.5 19.5,35.5C 20.5,35.5 21.5,35.5 22.5,35.5C 22.5,37.5 22.5,39.5 22.5,41.5C 21.5,41.5 20.5,41.5 19.5,41.5C 18.5,41.5 17.5,41.5 16.5,41.5C 16.5,40.5 16.5,39.5 16.5,38.5C 16.5,35.5 16.5,32.5 16.5,29.5C 15.5,29.5 14.5,29.5 13.5,29.5C 13.5,27.5 13.5,25.5 13.5,23.5 Z"/></g>
<g><path style="opacity:1" fill="#621d32" d="M 13.5,29.5 C 14.5,29.5 15.5,29.5 16.5,29.5C 16.5,32.5 16.5,35.5 16.5,38.5C 15.5,38.5 14.5,38.5 13.5,38.5C 13.5,35.5 13.5,32.5 13.5,29.5 Z"/></g>
<g><path style="opacity:1" fill="#d15a18" d="M 28.5,26.5 C 29.5,26.5 30.5,26.5 31.5,26.5C 31.5,27.5 31.5,28.5 31.5,29.5C 30.5,29.5 29.5,29.5 28.5,29.5C 28.5,30.5 28.5,31.5 28.5,32.5C 27.5,32.5 26.5,32.5 25.5,32.5C 25.5,34.5 25.5,36.5 25.5,38.5C 26.5,38.5 27.5,38.5 28.5,38.5C 28.5,39.5 28.5,40.5 28.5,41.5C 28.5,42.5 28.5,43.5 28.5,44.5C 27.5,44.5 26.5,44.5 25.5,44.5C 25.5,43.5 25.5,42.5 25.5,41.5C 24.5,41.5 23.5,41.5 22.5,41.5C 22.5,39.5 22.5,37.5 22.5,35.5C 21.5,35.5 20.5,35.5 19.5,35.5C 19.5,34.5 19.5,33.5 19.5,32.5C 20.5,32.5 21.5,32.5 22.5,32.5C 22.5,31.5 22.5,30.5 22.5,29.5C 23.5,29.5 24.5,29.5 25.5,29.5C 25.5,28.5 25.5,27.5 25.5,26.5C 26.5,26.5 27.5,26.5 28.5,26.5 Z"/></g>
<g><path style="opacity:1" fill="#feb300" d="M 31.5,29.5 C 31.5,31.5 31.5,33.5 31.5,35.5C 30.5,35.5 29.5,35.5 28.5,35.5C 28.5,36.5 28.5,37.5 28.5,38.5C 27.5,38.5 26.5,38.5 25.5,38.5C 25.5,36.5 25.5,34.5 25.5,32.5C 26.5,32.5 27.5,32.5 28.5,32.5C 28.5,31.5 28.5,30.5 28.5,29.5C 29.5,29.5 30.5,29.5 31.5,29.5 Z"/></g>
<g><path style="opacity:1" fill="#621d32" d="M 19.5,41.5 C 20.5,41.5 21.5,41.5 22.5,41.5C 23.5,41.5 24.5,41.5 25.5,41.5C 25.5,42.5 25.5,43.5 25.5,44.5C 23.5,44.5 21.5,44.5 19.5,44.5C 19.5,43.5 19.5,42.5 19.5,41.5 Z"/></g>
</svg>
