<?xml version="1.0" encoding="UTF-8"?>
<!DOCTYPE svg PUBLIC "-//W3C//DTD SVG 1.1//EN" "http://www.w3.org/Graphics/SVG/1.1/DTD/svg11.dtd">
<svg xmlns="http://www.w3.org/2000/svg" version="1.1" width="48px" height="48px" style="shape-rendering:geometricPrecision; text-rendering:geometricPrecision; image-rendering:optimizeQuality; fill-rule:evenodd; clip-rule:evenodd" xmlns:xlink="http://www.w3.org/1999/xlink">
<g><path style="opacity:1" fill="#c37524" d="M 13.5,-0.5 C 14.5,-0.5 15.5,-0.5 16.5,-0.5C 16.5,0.5 16.5,1.5 16.5,2.5C 17.5,2.5 18.5,2.5 19.5,2.5C 19.5,1.5 19.5,0.5 19.5,-0.5C 21.5,-0.5 23.5,-0.5 25.5,-0.5C 25.5,0.5 25.5,1.5 25.5,2.5C 24.5,2.5 23.5,2.5 22.5,2.5C 22.5,3.5 22.5,4.5 22.5,5.5C 19.5,5.5 16.5,5.5 13.5,5.5C 13.5,6.5 13.5,7.5 13.5,8.5C 13.5,9.5 13.5,10.5 13.5,11.5C 11.5,11.5 9.5,11.5 7.5,11.5C 7.5,10.5 7.5,9.5 7.5,8.5C 8.5,8.5 9.5,8.5 10.5,8.5C 10.5,6.5 10.5,4.5 10.5,2.5C 11.5,2.5 12.5,2.5 13.5,2.5C 13.5,1.5 13.5,0.5 13.5,-0.5 Z"/></g>
<g><path style="opacity:1" fill="#db8a20" d="M 28.5,-0.5 C 30.5,-0.5 32.5,-0.5 34.5,-0.5C 34.5,0.5 34.5,1.5 34.5,2.5C 33.5,2.5 32.5,2.5 31.5,2.5C 31.5,3.5 31.5,4.5 31.5,5.5C 32.5,5.5 33.5,5.5 34.5,5.5C 34.5,6.5 34.5,7.5 34.5,8.5C 33.5,8.5 32.5,8.5 31.5,8.5C 30.5,8.5 29.5,8.5 28.5,8.5C 28.5,7.5 28.5,6.5 28.5,5.5C 27.5,5.5 26.5,5.5 25.5,5.5C 25.5,4.5 25.5,3.5 25.5,2.5C 26.5,2.5 27.5,2.5 28.5,2.5C 28.5,1.5 28.5,0.5 28.5,-0.5 Z"/></g>
<g><path style="opacity:1" fill="#feff13" d="M 34.5,2.5 C 34.5,3.5 34.5,4.5 34.5,5.5C 33.5,5.5 32.5,5.5 31.5,5.5C 31.5,4.5 31.5,3.5 31.5,2.5C 32.5,2.5 33.5,2.5 34.5,2.5 Z"/></g>
<g><path style="opacity:1" fill="#b46825" d="M 34.5,2.5 C 35.5,2.5 36.5,2.5 37.5,2.5C 37.5,4.5 37.5,6.5 37.5,8.5C 38.5,8.5 39.5,8.5 40.5,8.5C 40.5,9.5 40.5,10.5 40.5,11.5C 39.5,11.5 38.5,11.5 37.5,11.5C 37.5,13.5 37.5,15.5 37.5,17.5C 36.5,17.5 35.5,17.5 34.5,17.5C 34.5,15.5 34.5,13.5 34.5,11.5C 34.5,10.5 34.5,9.5 34.5,8.5C 34.5,7.5 34.5,6.5 34.5,5.5C 34.5,4.5 34.5,3.5 34.5,2.5 Z"/></g>
<g><path style="opacity:1" fill="#ffdf13" d="M 22.5,5.5 C 22.5,6.5 22.5,7.5 22.5,8.5C 23.5,8.5 24.5,8.5 25.5,8.5C 25.5,9.5 25.5,10.5 25.5,11.5C 24.5,11.5 23.5,11.5 22.5,11.5C 22.5,12.5 22.5,13.5 22.5,14.5C 21.5,14.5 20.5,14.5 19.5,14.5C 19.5,13.5 19.5,12.5 19.5,11.5C 18.5,11.5 17.5,11.5 16.5,11.5C 16.5,10.5 16.5,9.5 16.5,8.5C 15.5,8.5 14.5,8.5 13.5,8.5C 13.5,7.5 13.5,6.5 13.5,5.5C 16.5,5.5 19.5,5.5 22.5,5.5 Z"/></g>
<g><path style="opacity:1" fill="#ffdb13" d="M 25.5,2.5 C 25.5,3.5 25.5,4.5 25.5,5.5C 26.5,5.5 27.5,5.5 28.5,5.5C 28.5,6.5 28.5,7.5 28.5,8.5C 29.5,8.5 30.5,8.5 31.5,8.5C 31.5,9.5 31.5,10.5 31.5,11.5C 30.5,11.5 29.5,11.5 28.5,11.5C 28.5,12.5 28.5,13.5 28.5,14.5C 27.5,14.5 26.5,14.5 25.5,14.5C 25.5,13.5 25.5,12.5 25.5,11.5C 25.5,10.5 25.5,9.5 25.5,8.5C 24.5,8.5 23.5,8.5 22.5,8.5C 22.5,7.5 22.5,6.5 22.5,5.5C 22.5,4.5 22.5,3.5 22.5,2.5C 23.5,2.5 24.5,2.5 25.5,2.5 Z"/></g>
<g><path style="opacity:1" fill="#fef9f1" d="M 13.5,8.5 C 14.5,8.5 15.5,8.5 16.5,8.5C 16.5,9.5 16.5,10.5 16.5,11.5C 15.5,11.5 14.5,11.5 13.5,11.5C 13.5,10.5 13.5,9.5 13.5,8.5 Z"/></g>
<g><path style="opacity:1" fill="#fef9f1" d="M 31.5,8.5 C 32.5,8.5 33.5,8.5 34.5,8.5C 34.5,9.5 34.5,10.5 34.5,11.5C 33.5,11.5 32.5,11.5 31.5,11.5C 31.5,10.5 31.5,9.5 31.5,8.5 Z"/></g>
<g><path style="opacity:1" fill="#d58521" d="M 7.5,11.5 C 9.5,11.5 11.5,11.5 13.5,11.5C 13.5,13.5 13.5,15.5 13.5,17.5C 11.5,17.5 9.5,17.5 7.5,17.5C 7.5,16.5 7.5,15.5 7.5,14.5C 6.5,14.5 5.5,14.5 4.5,14.5C 4.5,13.5 4.5,12.5 4.5,11.5C 5.5,11.5 6.5,11.5 7.5,11.5 Z"/></g>
<g><path style="opacity:1" fill="#fef9f1" d="M 16.5,11.5 C 17.5,11.5 18.5,11.5 19.5,11.5C 19.5,12.5 19.5,13.5 19.5,14.5C 18.5,14.5 17.5,14.5 16.5,14.5C 16.5,13.5 16.5,12.5 16.5,11.5 Z"/></g>
<g><path style="opacity:1" fill="#fef9f1" d="M 25.5,11.5 C 25.5,12.5 25.5,13.5 25.5,14.5C 24.5,14.5 23.5,14.5 22.5,14.5C 22.5,13.5 22.5,12.5 22.5,11.5C 23.5,11.5 24.5,11.5 25.5,11.5 Z"/></g>
<g><path style="opacity:1" fill="#fef9f1" d="M 31.5,11.5 C 31.5,12.5 31.5,13.5 31.5,14.5C 30.5,14.5 29.5,14.5 28.5,14.5C 28.5,13.5 28.5,12.5 28.5,11.5C 29.5,11.5 30.5,11.5 31.5,11.5 Z"/></g>
<g><path style="opacity:1" fill="#ffc313" d="M 13.5,11.5 C 14.5,11.5 15.5,11.5 16.5,11.5C 16.5,12.5 16.5,13.5 16.5,14.5C 17.5,14.5 18.5,14.5 19.5,14.5C 19.5,15.5 19.5,16.5 19.5,17.5C 20.5,17.5 21.5,17.5 22.5,17.5C 22.5,21.5 22.5,25.5 22.5,29.5C 21.5,29.5 20.5,29.5 19.5,29.5C 19.5,27.5 19.5,25.5 19.5,23.5C 18.5,23.5 17.5,23.5 16.5,23.5C 16.5,21.5 16.5,19.5 16.5,17.5C 15.5,17.5 14.5,17.5 13.5,17.5C 13.5,15.5 13.5,13.5 13.5,11.5 Z"/></g>
<g><path style="opacity:1" fill="#fef9f1" d="M 19.5,14.5 C 20.5,14.5 21.5,14.5 22.5,14.5C 22.5,15.5 22.5,16.5 22.5,17.5C 21.5,17.5 20.5,17.5 19.5,17.5C 19.5,16.5 19.5,15.5 19.5,14.5 Z"/></g>
<g><path style="opacity:1" fill="#fef9f1" d="M 25.5,14.5 C 26.5,14.5 27.5,14.5 28.5,14.5C 28.5,15.5 28.5,16.5 28.5,17.5C 27.5,17.5 26.5,17.5 25.5,17.5C 25.5,16.5 25.5,15.5 25.5,14.5 Z"/></g>
<g><path style="opacity:1" fill="#ffc313" d="M 31.5,11.5 C 32.5,11.5 33.5,11.5 34.5,11.5C 34.5,13.5 34.5,15.5 34.5,17.5C 33.5,17.5 32.5,17.5 31.5,17.5C 31.5,19.5 31.5,21.5 31.5,23.5C 30.5,23.5 29.5,23.5 28.5,23.5C 28.5,25.5 28.5,27.5 28.5,29.5C 27.5,29.5 26.5,29.5 25.5,29.5C 25.5,25.5 25.5,21.5 25.5,17.5C 26.5,17.5 27.5,17.5 28.5,17.5C 28.5,16.5 28.5,15.5 28.5,14.5C 29.5,14.5 30.5,14.5 31.5,14.5C 31.5,13.5 31.5,12.5 31.5,11.5 Z"/></g>
<g><path style="opacity:1" fill="#a75e25" d="M 13.5,17.5 C 14.5,17.5 15.5,17.5 16.5,17.5C 16.5,19.5 16.5,21.5 16.5,23.5C 15.5,23.5 14.5,23.5 13.5,23.5C 13.5,21.5 13.5,19.5 13.5,17.5 Z"/></g>
<g><path style="opacity:1" fill="#b66a25" d="M 22.5,14.5 C 23.5,14.5 24.5,14.5 25.5,14.5C 25.5,15.5 25.5,16.5 25.5,17.5C 25.5,21.5 25.5,25.5 25.5,29.5C 24.5,29.5 23.5,29.5 22.5,29.5C 22.5,25.5 22.5,21.5 22.5,17.5C 22.5,16.5 22.5,15.5 22.5,14.5 Z"/></g>
<g><path style="opacity:1" fill="#a75e25" d="M 34.5,17.5 C 34.5,19.5 34.5,21.5 34.5,23.5C 33.5,23.5 32.5,23.5 31.5,23.5C 31.5,21.5 31.5,19.5 31.5,17.5C 32.5,17.5 33.5,17.5 34.5,17.5 Z"/></g>
<g><path style="opacity:1" fill="#a75e25" d="M 16.5,23.5 C 17.5,23.5 18.5,23.5 19.5,23.5C 19.5,25.5 19.5,27.5 19.5,29.5C 18.5,29.5 17.5,29.5 16.5,29.5C 16.5,27.5 16.5,25.5 16.5,23.5 Z"/></g>
<g><path style="opacity:1" fill="#a75e25" d="M 31.5,23.5 C 31.5,25.5 31.5,27.5 31.5,29.5C 30.5,29.5 29.5,29.5 28.5,29.5C 28.5,27.5 28.5,25.5 28.5,23.5C 29.5,23.5 30.5,23.5 31.5,23.5 Z"/></g>
<g><path style="opacity:1" fill="#3f23a2" d="M 16.5,29.5 C 17.5,29.5 18.5,29.5 19.5,29.5C 20.5,29.5 21.5,29.5 22.5,29.5C 22.5,31.5 22.5,33.5 22.5,35.5C 20.5,35.5 18.5,35.5 16.5,35.5C 16.5,33.5 16.5,31.5 16.5,29.5 Z"/></g>
<g><path style="opacity:1" fill="#2b73e1" d="M 22.5,29.5 C 23.5,29.5 24.5,29.5 25.5,29.5C 26.5,29.5 27.5,29.5 28.5,29.5C 28.5,31.5 28.5,33.5 28.5,35.5C 27.5,35.5 26.5,35.5 25.5,35.5C 24.5,35.5 23.5,35.5 22.5,35.5C 22.5,33.5 22.5,31.5 22.5,29.5 Z"/></g>
<g><path style="opacity:1" fill="#411096" d="M 28.5,29.5 C 29.5,29.5 30.5,29.5 31.5,29.5C 31.5,31.5 31.5,33.5 31.5,35.5C 30.5,35.5 29.5,35.5 28.5,35.5C 28.5,33.5 28.5,31.5 28.5,29.5 Z"/></g>
<g><path style="opacity:1" fill="#d28321" d="M 16.5,35.5 C 18.5,35.5 20.5,35.5 22.5,35.5C 23.5,35.5 24.5,35.5 25.5,35.5C 25.5,36.5 25.5,37.5 25.5,38.5C 24.5,38.5 23.5,38.5 22.5,38.5C 22.5,40.5 22.5,42.5 22.5,44.5C 21.5,44.5 20.5,44.5 19.5,44.5C 19.5,42.5 19.5,40.5 19.5,38.5C 18.5,38.5 17.5,38.5 16.5,38.5C 16.5,37.5 16.5,36.5 16.5,35.5 Z"/></g>
<g><path style="opacity:1" fill="#d58521" d="M 25.5,35.5 C 26.5,35.5 27.5,35.5 28.5,35.5C 29.5,35.5 30.5,35.5 31.5,35.5C 32.5,35.5 33.5,35.5 34.5,35.5C 34.5,36.5 34.5,37.5 34.5,38.5C 32.5,38.5 30.5,38.5 28.5,38.5C 28.5,40.5 28.5,42.5 28.5,44.5C 27.5,44.5 26.5,44.5 25.5,44.5C 25.5,42.5 25.5,40.5 25.5,38.5C 25.5,37.5 25.5,36.5 25.5,35.5 Z"/></g>
<g><path style="opacity:1" fill="#a75e25" d="M 16.5,38.5 C 16.5,39.5 16.5,40.5 16.5,41.5C 15.5,41.5 14.5,41.5 13.5,41.5C 13.5,40.5 13.5,39.5 13.5,38.5C 14.5,38.5 15.5,38.5 16.5,38.5 Z"/></g>
<g><path style="opacity:1" fill="#ffea13" d="M 34.5,38.5 C 34.5,39.5 34.5,40.5 34.5,41.5C 33.5,41.5 32.5,41.5 31.5,41.5C 31.5,42.5 31.5,43.5 31.5,44.5C 30.5,44.5 29.5,44.5 28.5,44.5C 28.5,42.5 28.5,40.5 28.5,38.5C 30.5,38.5 32.5,38.5 34.5,38.5 Z"/></g>
<g><path style="opacity:1" fill="#a75e25" d="M 34.5,38.5 C 35.5,38.5 36.5,38.5 37.5,38.5C 37.5,39.5 37.5,40.5 37.5,41.5C 36.5,41.5 35.5,41.5 34.5,41.5C 34.5,40.5 34.5,39.5 34.5,38.5 Z"/></g>
<g><path style="opacity:1" fill="#a75e25" d="M 13.5,41.5 C 13.5,42.5 13.5,43.5 13.5,44.5C 15.5,44.5 17.5,44.5 19.5,44.5C 19.5,45.5 19.5,46.5 19.5,47.5C 16.5,47.5 13.5,47.5 10.5,47.5C 10.5,45.5 10.5,43.5 10.5,41.5C 11.5,41.5 12.5,41.5 13.5,41.5 Z"/></g>
<g><path style="opacity:1" fill="#ffce13" d="M 16.5,38.5 C 17.5,38.5 18.5,38.5 19.5,38.5C 19.5,40.5 19.5,42.5 19.5,44.5C 17.5,44.5 15.5,44.5 13.5,44.5C 13.5,43.5 13.5,42.5 13.5,41.5C 14.5,41.5 15.5,41.5 16.5,41.5C 16.5,40.5 16.5,39.5 16.5,38.5 Z"/></g>
<g><path style="opacity:1" fill="#fff613" d="M 25.5,38.5 C 25.5,40.5 25.5,42.5 25.5,44.5C 24.5,44.5 23.5,44.5 22.5,44.5C 22.5,42.5 22.5,40.5 22.5,38.5C 23.5,38.5 24.5,38.5 25.5,38.5 Z"/></g>
<g><path style="opacity:1" fill="#a75e25" d="M 34.5,41.5 C 34.5,43.5 34.5,45.5 34.5,47.5C 32.5,47.5 30.5,47.5 28.5,47.5C 28.5,46.5 28.5,45.5 28.5,44.5C 29.5,44.5 30.5,44.5 31.5,44.5C 31.5,43.5 31.5,42.5 31.5,41.5C 32.5,41.5 33.5,41.5 34.5,41.5 Z"/></g>
<g><path style="opacity:1" fill="#a75e25" d="M 22.5,44.5 C 23.5,44.5 24.5,44.5 25.5,44.5C 25.5,45.5 25.5,46.5 25.5,47.5C 24.5,47.5 23.5,47.5 22.5,47.5C 22.5,46.5 22.5,45.5 22.5,44.5 Z"/></g>
</svg>
