<?xml version="1.0" encoding="UTF-8"?>
<!DOCTYPE svg PUBLIC "-//W3C//DTD SVG 1.1//EN" "http://www.w3.org/Graphics/SVG/1.1/DTD/svg11.dtd">
<svg xmlns="http://www.w3.org/2000/svg" version="1.1" width="48px" height="48px" style="shape-rendering:geometricPrecision; text-rendering:geometricPrecision; image-rendering:optimizeQuality; fill-rule:evenodd; clip-rule:evenodd" xmlns:xlink="http://www.w3.org/1999/xlink">
<g><path style="opacity:1" fill="#391f08" d="M 37.5,-0.5 C 39.5,-0.5 41.5,-0.5 43.5,-0.5C 43.5,0.5 43.5,1.5 43.5,2.5C 41.5,2.5 39.5,2.5 37.5,2.5C 37.5,1.5 37.5,0.5 37.5,-0.5 Z"/></g>
<g><path style="opacity:1" fill="#391f08" d="M 37.5,2.5 C 37.5,3.5 37.5,4.5 37.5,5.5C 36.5,5.5 35.5,5.5 34.5,5.5C 34.5,4.5 34.5,3.5 34.5,2.5C 35.5,2.5 36.5,2.5 37.5,2.5 Z"/></g>
<g><path style="opacity:1" fill="#c17400" d="M 37.5,2.5 C 39.5,2.5 41.5,2.5 43.5,2.5C 43.5,3.5 43.5,4.5 43.5,5.5C 41.5,5.5 39.5,5.5 37.5,5.5C 37.5,4.5 37.5,3.5 37.5,2.5 Z"/></g>
<g><path style="opacity:1" fill="#1d0051" d="M 34.5,5.5 C 35.5,5.5 36.5,5.5 37.5,5.5C 37.5,6.5 37.5,7.5 37.5,8.5C 35.5,8.5 33.5,8.5 31.5,8.5C 31.5,7.5 31.5,6.5 31.5,5.5C 32.5,5.5 33.5,5.5 34.5,5.5 Z"/></g>
<g><path style="opacity:1" fill="#65360e" d="M 43.5,2.5 C 44.5,2.5 45.5,2.5 46.5,2.5C 46.5,4.5 46.5,6.5 46.5,8.5C 45.5,8.5 44.5,8.5 43.5,8.5C 43.5,9.5 43.5,10.5 43.5,11.5C 42.5,11.5 41.5,11.5 40.5,11.5C 40.5,10.5 40.5,9.5 40.5,8.5C 39.5,8.5 38.5,8.5 37.5,8.5C 37.5,7.5 37.5,6.5 37.5,5.5C 39.5,5.5 41.5,5.5 43.5,5.5C 43.5,4.5 43.5,3.5 43.5,2.5 Z"/></g>
<g><path style="opacity:1" fill="#1d0051" d="M 31.5,8.5 C 31.5,9.5 31.5,10.5 31.5,11.5C 28.5,11.5 25.5,11.5 22.5,11.5C 22.5,10.5 22.5,9.5 22.5,8.5C 25.5,8.5 28.5,8.5 31.5,8.5 Z"/></g>
<g><path style="opacity:1" fill="#1d0051" d="M 37.5,8.5 C 38.5,8.5 39.5,8.5 40.5,8.5C 40.5,9.5 40.5,10.5 40.5,11.5C 40.5,12.5 40.5,13.5 40.5,14.5C 39.5,14.5 38.5,14.5 37.5,14.5C 37.5,12.5 37.5,10.5 37.5,8.5 Z"/></g>
<g><path style="opacity:1" fill="#391f08" d="M 22.5,11.5 C 22.5,12.5 22.5,13.5 22.5,14.5C 21.5,14.5 20.5,14.5 19.5,14.5C 19.5,13.5 19.5,12.5 19.5,11.5C 20.5,11.5 21.5,11.5 22.5,11.5 Z"/></g>
<g><path style="opacity:1" fill="#491da0" d="M 31.5,8.5 C 33.5,8.5 35.5,8.5 37.5,8.5C 37.5,10.5 37.5,12.5 37.5,14.5C 36.5,14.5 35.5,14.5 34.5,14.5C 32.5,14.5 30.5,14.5 28.5,14.5C 28.5,15.5 28.5,16.5 28.5,17.5C 27.5,17.5 26.5,17.5 25.5,17.5C 25.5,18.5 25.5,19.5 25.5,20.5C 24.5,20.5 23.5,20.5 22.5,20.5C 22.5,18.5 22.5,16.5 22.5,14.5C 22.5,13.5 22.5,12.5 22.5,11.5C 25.5,11.5 28.5,11.5 31.5,11.5C 31.5,10.5 31.5,9.5 31.5,8.5 Z"/></g>
<g><path style="opacity:1" fill="#391f08" d="M 19.5,14.5 C 19.5,15.5 19.5,16.5 19.5,17.5C 18.5,17.5 17.5,17.5 16.5,17.5C 16.5,16.5 16.5,15.5 16.5,14.5C 17.5,14.5 18.5,14.5 19.5,14.5 Z"/></g>
<g><path style="opacity:1" fill="#b56600" d="M 19.5,14.5 C 20.5,14.5 21.5,14.5 22.5,14.5C 22.5,16.5 22.5,18.5 22.5,20.5C 23.5,20.5 24.5,20.5 25.5,20.5C 25.5,21.5 25.5,22.5 25.5,23.5C 27.5,23.5 29.5,23.5 31.5,23.5C 31.5,24.5 31.5,25.5 31.5,26.5C 30.5,26.5 29.5,26.5 28.5,26.5C 28.5,27.5 28.5,28.5 28.5,29.5C 27.5,29.5 26.5,29.5 25.5,29.5C 25.5,28.5 25.5,27.5 25.5,26.5C 24.5,26.5 23.5,26.5 22.5,26.5C 22.5,25.5 22.5,24.5 22.5,23.5C 21.5,23.5 20.5,23.5 19.5,23.5C 19.5,22.5 19.5,21.5 19.5,20.5C 18.5,20.5 17.5,20.5 16.5,20.5C 16.5,19.5 16.5,18.5 16.5,17.5C 17.5,17.5 18.5,17.5 19.5,17.5C 19.5,16.5 19.5,15.5 19.5,14.5 Z"/></g>
<g><path style="opacity:1" fill="#1d0051" d="M 34.5,14.5 C 35.5,14.5 36.5,14.5 37.5,14.5C 37.5,17.5 37.5,20.5 37.5,23.5C 36.5,23.5 35.5,23.5 34.5,23.5C 34.5,20.5 34.5,17.5 34.5,14.5 Z"/></g>
<g><path style="opacity:1" fill="#391f08" d="M 16.5,17.5 C 16.5,18.5 16.5,19.5 16.5,20.5C 15.5,20.5 14.5,20.5 13.5,20.5C 13.5,19.5 13.5,18.5 13.5,17.5C 14.5,17.5 15.5,17.5 16.5,17.5 Z"/></g>
<g><path style="opacity:1" fill="#6d4bce" d="M 34.5,14.5 C 34.5,17.5 34.5,20.5 34.5,23.5C 33.5,23.5 32.5,23.5 31.5,23.5C 29.5,23.5 27.5,23.5 25.5,23.5C 25.5,22.5 25.5,21.5 25.5,20.5C 25.5,19.5 25.5,18.5 25.5,17.5C 26.5,17.5 27.5,17.5 28.5,17.5C 28.5,16.5 28.5,15.5 28.5,14.5C 30.5,14.5 32.5,14.5 34.5,14.5 Z"/></g>
<g><path style="opacity:1" fill="#391f08" d="M 13.5,20.5 C 13.5,21.5 13.5,22.5 13.5,23.5C 12.5,23.5 11.5,23.5 10.5,23.5C 10.5,22.5 10.5,21.5 10.5,20.5C 11.5,20.5 12.5,20.5 13.5,20.5 Z"/></g>
<g><path style="opacity:1" fill="#e7d185" d="M 13.5,20.5 C 14.5,20.5 15.5,20.5 16.5,20.5C 17.5,20.5 18.5,20.5 19.5,20.5C 19.5,21.5 19.5,22.5 19.5,23.5C 18.5,23.5 17.5,23.5 16.5,23.5C 16.5,24.5 16.5,25.5 16.5,26.5C 15.5,26.5 14.5,26.5 13.5,26.5C 13.5,25.5 13.5,24.5 13.5,23.5C 13.5,22.5 13.5,21.5 13.5,20.5 Z"/></g>
<g><path style="opacity:1" fill="#86007f" d="M 19.5,23.5 C 19.5,24.5 19.5,25.5 19.5,26.5C 18.5,26.5 17.5,26.5 16.5,26.5C 16.5,25.5 16.5,24.5 16.5,23.5C 17.5,23.5 18.5,23.5 19.5,23.5 Z"/></g>
<g><path style="opacity:1" fill="#e7d185" d="M 19.5,23.5 C 20.5,23.5 21.5,23.5 22.5,23.5C 22.5,24.5 22.5,25.5 22.5,26.5C 21.5,26.5 20.5,26.5 19.5,26.5C 19.5,25.5 19.5,24.5 19.5,23.5 Z"/></g>
<g><path style="opacity:1" fill="#391f08" d="M 31.5,23.5 C 32.5,23.5 33.5,23.5 34.5,23.5C 34.5,24.5 34.5,25.5 34.5,26.5C 33.5,26.5 32.5,26.5 31.5,26.5C 31.5,25.5 31.5,24.5 31.5,23.5 Z"/></g>
<g><path style="opacity:1" fill="#380a85" d="M 10.5,23.5 C 10.5,25.5 10.5,27.5 10.5,29.5C 11.5,29.5 12.5,29.5 13.5,29.5C 13.5,30.5 13.5,31.5 13.5,32.5C 12.5,32.5 11.5,32.5 10.5,32.5C 10.5,35.5 10.5,38.5 10.5,41.5C 9.5,41.5 8.5,41.5 7.5,41.5C 6.5,41.5 5.5,41.5 4.5,41.5C 4.5,40.5 4.5,39.5 4.5,38.5C 4.5,35.5 4.5,32.5 4.5,29.5C 4.5,28.5 4.5,27.5 4.5,26.5C 5.5,26.5 6.5,26.5 7.5,26.5C 7.5,25.5 7.5,24.5 7.5,23.5C 8.5,23.5 9.5,23.5 10.5,23.5 Z"/></g>
<g><path style="opacity:1" fill="#e7d185" d="M 16.5,26.5 C 17.5,26.5 18.5,26.5 19.5,26.5C 19.5,27.5 19.5,28.5 19.5,29.5C 18.5,29.5 17.5,29.5 16.5,29.5C 16.5,28.5 16.5,27.5 16.5,26.5 Z"/></g>
<g><path style="opacity:1" fill="#86007f" d="M 19.5,26.5 C 20.5,26.5 21.5,26.5 22.5,26.5C 22.5,27.5 22.5,28.5 22.5,29.5C 21.5,29.5 20.5,29.5 19.5,29.5C 19.5,28.5 19.5,27.5 19.5,26.5 Z"/></g>
<g><path style="opacity:1" fill="#e7d185" d="M 22.5,26.5 C 23.5,26.5 24.5,26.5 25.5,26.5C 25.5,27.5 25.5,28.5 25.5,29.5C 25.5,30.5 25.5,31.5 25.5,32.5C 24.5,32.5 23.5,32.5 22.5,32.5C 21.5,32.5 20.5,32.5 19.5,32.5C 19.5,31.5 19.5,30.5 19.5,29.5C 20.5,29.5 21.5,29.5 22.5,29.5C 22.5,28.5 22.5,27.5 22.5,26.5 Z"/></g>
<g><path style="opacity:1" fill="#391f08" d="M 31.5,26.5 C 31.5,27.5 31.5,28.5 31.5,29.5C 30.5,29.5 29.5,29.5 28.5,29.5C 28.5,28.5 28.5,27.5 28.5,26.5C 29.5,26.5 30.5,26.5 31.5,26.5 Z"/></g>
<g><path style="opacity:1" fill="#1d0051" d="M 4.5,29.5 C 4.5,32.5 4.5,35.5 4.5,38.5C 3.5,38.5 2.5,38.5 1.5,38.5C 1.5,35.5 1.5,32.5 1.5,29.5C 2.5,29.5 3.5,29.5 4.5,29.5 Z"/></g>
<g><path style="opacity:1" fill="#b06100" d="M 10.5,23.5 C 11.5,23.5 12.5,23.5 13.5,23.5C 13.5,24.5 13.5,25.5 13.5,26.5C 14.5,26.5 15.5,26.5 16.5,26.5C 16.5,27.5 16.5,28.5 16.5,29.5C 17.5,29.5 18.5,29.5 19.5,29.5C 19.5,30.5 19.5,31.5 19.5,32.5C 20.5,32.5 21.5,32.5 22.5,32.5C 22.5,33.5 22.5,34.5 22.5,35.5C 21.5,35.5 20.5,35.5 19.5,35.5C 18.5,35.5 17.5,35.5 16.5,35.5C 16.5,34.5 16.5,33.5 16.5,32.5C 15.5,32.5 14.5,32.5 13.5,32.5C 13.5,31.5 13.5,30.5 13.5,29.5C 12.5,29.5 11.5,29.5 10.5,29.5C 10.5,27.5 10.5,25.5 10.5,23.5 Z"/></g>
<g><path style="opacity:1" fill="#391f08" d="M 25.5,29.5 C 26.5,29.5 27.5,29.5 28.5,29.5C 28.5,30.5 28.5,31.5 28.5,32.5C 27.5,32.5 26.5,32.5 25.5,32.5C 25.5,31.5 25.5,30.5 25.5,29.5 Z"/></g>
<g><path style="opacity:1" fill="#704fd2" d="M 13.5,32.5 C 14.5,32.5 15.5,32.5 16.5,32.5C 16.5,33.5 16.5,34.5 16.5,35.5C 17.5,35.5 18.5,35.5 19.5,35.5C 19.5,36.5 19.5,37.5 19.5,38.5C 18.5,38.5 17.5,38.5 16.5,38.5C 16.5,39.5 16.5,40.5 16.5,41.5C 14.5,41.5 12.5,41.5 10.5,41.5C 10.5,38.5 10.5,35.5 10.5,32.5C 11.5,32.5 12.5,32.5 13.5,32.5 Z"/></g>
<g><path style="opacity:1" fill="#391f08" d="M 22.5,32.5 C 23.5,32.5 24.5,32.5 25.5,32.5C 25.5,33.5 25.5,34.5 25.5,35.5C 24.5,35.5 23.5,35.5 22.5,35.5C 22.5,34.5 22.5,33.5 22.5,32.5 Z"/></g>
<g><path style="opacity:1" fill="#1d0051" d="M 19.5,35.5 C 20.5,35.5 21.5,35.5 22.5,35.5C 22.5,36.5 22.5,37.5 22.5,38.5C 21.5,38.5 20.5,38.5 19.5,38.5C 19.5,37.5 19.5,36.5 19.5,35.5 Z"/></g>
<g><path style="opacity:1" fill="#1d0051" d="M 19.5,38.5 C 19.5,39.5 19.5,40.5 19.5,41.5C 18.5,41.5 17.5,41.5 16.5,41.5C 16.5,40.5 16.5,39.5 16.5,38.5C 17.5,38.5 18.5,38.5 19.5,38.5 Z"/></g>
<g><path style="opacity:1" fill="#1d0051" d="M 7.5,41.5 C 8.5,41.5 9.5,41.5 10.5,41.5C 12.5,41.5 14.5,41.5 16.5,41.5C 16.5,42.5 16.5,43.5 16.5,44.5C 13.5,44.5 10.5,44.5 7.5,44.5C 7.5,43.5 7.5,42.5 7.5,41.5 Z"/></g>
</svg>
