<?xml version="1.0" encoding="UTF-8"?>
<!DOCTYPE svg PUBLIC "-//W3C//DTD SVG 1.1//EN" "http://www.w3.org/Graphics/SVG/1.1/DTD/svg11.dtd">
<svg xmlns="http://www.w3.org/2000/svg" version="1.1" width="48px" height="48px" style="shape-rendering:geometricPrecision; text-rendering:geometricPrecision; image-rendering:optimizeQuality; fill-rule:evenodd; clip-rule:evenodd" xmlns:xlink="http://www.w3.org/1999/xlink">
<g><path style="opacity:1" fill="#0d3870" d="M 11.5,-0.5 C 19.5,-0.5 27.5,-0.5 35.5,-0.5C 35.5,0.5 35.5,1.5 35.5,2.5C 27.5,2.5 19.5,2.5 11.5,2.5C 11.5,1.5 11.5,0.5 11.5,-0.5 Z"/></g>
<g><path style="opacity:1" fill="#0d3870" d="M 11.5,2.5 C 11.5,3.5 11.5,4.5 11.5,5.5C 10.5,5.5 9.5,5.5 8.5,5.5C 8.5,4.5 8.5,3.5 8.5,2.5C 9.5,2.5 10.5,2.5 11.5,2.5 Z"/></g>
<g><path style="opacity:1" fill="#47cde8" d="M 11.5,2.5 C 19.5,2.5 27.5,2.5 35.5,2.5C 35.5,3.5 35.5,4.5 35.5,5.5C 34.5,5.5 33.5,5.5 32.5,5.5C 32.5,6.5 32.5,7.5 32.5,8.5C 31.5,8.5 30.5,8.5 29.5,8.5C 29.5,9.5 29.5,10.5 29.5,11.5C 28.5,11.5 27.5,11.5 26.5,11.5C 26.5,10.5 26.5,9.5 26.5,8.5C 23.5,8.5 20.5,8.5 17.5,8.5C 16.5,8.5 15.5,8.5 14.5,8.5C 14.5,7.5 14.5,6.5 14.5,5.5C 13.5,5.5 12.5,5.5 11.5,5.5C 11.5,4.5 11.5,3.5 11.5,2.5 Z"/></g>
<g><path style="opacity:1" fill="#0d3870" d="M 35.5,2.5 C 36.5,2.5 37.5,2.5 38.5,2.5C 38.5,3.5 38.5,4.5 38.5,5.5C 37.5,5.5 36.5,5.5 35.5,5.5C 35.5,4.5 35.5,3.5 35.5,2.5 Z"/></g>
<g><path style="opacity:1" fill="#0d3870" d="M 8.5,5.5 C 8.5,7.5 8.5,9.5 8.5,11.5C 7.5,11.5 6.5,11.5 5.5,11.5C 5.5,9.5 5.5,7.5 5.5,5.5C 6.5,5.5 7.5,5.5 8.5,5.5 Z"/></g>
<g><path style="opacity:1" fill="#0d3870" d="M 11.5,5.5 C 12.5,5.5 13.5,5.5 14.5,5.5C 14.5,6.5 14.5,7.5 14.5,8.5C 13.5,8.5 12.5,8.5 11.5,8.5C 11.5,7.5 11.5,6.5 11.5,5.5 Z"/></g>
<g><path style="opacity:1" fill="#0d3870" d="M 35.5,5.5 C 35.5,6.5 35.5,7.5 35.5,8.5C 34.5,8.5 33.5,8.5 32.5,8.5C 32.5,7.5 32.5,6.5 32.5,5.5C 33.5,5.5 34.5,5.5 35.5,5.5 Z"/></g>
<g><path style="opacity:1" fill="#2f7cbe" d="M 35.5,5.5 C 36.5,5.5 37.5,5.5 38.5,5.5C 38.5,17.5 38.5,29.5 38.5,41.5C 37.5,41.5 36.5,41.5 35.5,41.5C 35.5,42.5 35.5,43.5 35.5,44.5C 33.5,44.5 31.5,44.5 29.5,44.5C 29.5,43.5 29.5,42.5 29.5,41.5C 30.5,41.5 31.5,41.5 32.5,41.5C 32.5,40.5 32.5,39.5 32.5,38.5C 33.5,38.5 34.5,38.5 35.5,38.5C 35.5,29.5 35.5,20.5 35.5,11.5C 34.5,11.5 33.5,11.5 32.5,11.5C 32.5,10.5 32.5,9.5 32.5,8.5C 33.5,8.5 34.5,8.5 35.5,8.5C 35.5,7.5 35.5,6.5 35.5,5.5 Z"/></g>
<g><path style="opacity:1" fill="#0d3870" d="M 38.5,5.5 C 39.5,5.5 40.5,5.5 41.5,5.5C 41.5,17.5 41.5,29.5 41.5,41.5C 40.5,41.5 39.5,41.5 38.5,41.5C 38.5,29.5 38.5,17.5 38.5,5.5 Z"/></g>
<g><path style="opacity:1" fill="#a5eefc" d="M 8.5,5.5 C 9.5,5.5 10.5,5.5 11.5,5.5C 11.5,6.5 11.5,7.5 11.5,8.5C 11.5,9.5 11.5,10.5 11.5,11.5C 11.5,21.5 11.5,31.5 11.5,41.5C 10.5,41.5 9.5,41.5 8.5,41.5C 8.5,39.5 8.5,37.5 8.5,35.5C 8.5,27.5 8.5,19.5 8.5,11.5C 8.5,9.5 8.5,7.5 8.5,5.5 Z"/></g>
<g><path style="opacity:1" fill="#2f7cbe" d="M 11.5,8.5 C 12.5,8.5 13.5,8.5 14.5,8.5C 14.5,9.5 14.5,10.5 14.5,11.5C 13.5,11.5 12.5,11.5 11.5,11.5C 11.5,10.5 11.5,9.5 11.5,8.5 Z"/></g>
<g><path style="opacity:1" fill="#0d3870" d="M 14.5,8.5 C 15.5,8.5 16.5,8.5 17.5,8.5C 17.5,9.5 17.5,10.5 17.5,11.5C 16.5,11.5 15.5,11.5 14.5,11.5C 14.5,10.5 14.5,9.5 14.5,8.5 Z"/></g>
<g><path style="opacity:1" fill="#adf2fe" d="M 17.5,8.5 C 20.5,8.5 23.5,8.5 26.5,8.5C 26.5,9.5 26.5,10.5 26.5,11.5C 23.5,11.5 20.5,11.5 17.5,11.5C 17.5,10.5 17.5,9.5 17.5,8.5 Z"/></g>
<g><path style="opacity:1" fill="#0d3870" d="M 32.5,8.5 C 32.5,9.5 32.5,10.5 32.5,11.5C 31.5,11.5 30.5,11.5 29.5,11.5C 29.5,10.5 29.5,9.5 29.5,8.5C 30.5,8.5 31.5,8.5 32.5,8.5 Z"/></g>
<g><path style="opacity:1" fill="#2f7cbe" d="M 5.5,11.5 C 6.5,11.5 7.5,11.5 8.5,11.5C 8.5,19.5 8.5,27.5 8.5,35.5C 7.5,35.5 6.5,35.5 5.5,35.5C 5.5,27.5 5.5,19.5 5.5,11.5 Z"/></g>
<g><path style="opacity:1" fill="#32c8e5" d="M 11.5,11.5 C 12.5,11.5 13.5,11.5 14.5,11.5C 14.5,12.5 14.5,13.5 14.5,14.5C 15.5,14.5 16.5,14.5 17.5,14.5C 21.5,14.5 25.5,14.5 29.5,14.5C 30.5,14.5 31.5,14.5 32.5,14.5C 32.5,13.5 32.5,12.5 32.5,11.5C 33.5,11.5 34.5,11.5 35.5,11.5C 35.5,20.5 35.5,29.5 35.5,38.5C 34.5,38.5 33.5,38.5 32.5,38.5C 32.5,39.5 32.5,40.5 32.5,41.5C 31.5,41.5 30.5,41.5 29.5,41.5C 29.5,42.5 29.5,43.5 29.5,44.5C 23.5,44.5 17.5,44.5 11.5,44.5C 11.5,43.5 11.5,42.5 11.5,41.5C 11.5,31.5 11.5,21.5 11.5,11.5 Z"/></g>
<g><path style="opacity:1" fill="#2f7cbe" d="M 14.5,11.5 C 15.5,11.5 16.5,11.5 17.5,11.5C 17.5,12.5 17.5,13.5 17.5,14.5C 16.5,14.5 15.5,14.5 14.5,14.5C 14.5,13.5 14.5,12.5 14.5,11.5 Z"/></g>
<g><path style="opacity:1" fill="#0d3870" d="M 17.5,11.5 C 20.5,11.5 23.5,11.5 26.5,11.5C 27.5,11.5 28.5,11.5 29.5,11.5C 29.5,12.5 29.5,13.5 29.5,14.5C 25.5,14.5 21.5,14.5 17.5,14.5C 17.5,13.5 17.5,12.5 17.5,11.5 Z"/></g>
<g><path style="opacity:1" fill="#2f7cbe" d="M 29.5,11.5 C 30.5,11.5 31.5,11.5 32.5,11.5C 32.5,12.5 32.5,13.5 32.5,14.5C 31.5,14.5 30.5,14.5 29.5,14.5C 29.5,13.5 29.5,12.5 29.5,11.5 Z"/></g>
<g><path style="opacity:1" fill="#0d3870" d="M 26.5,20.5 C 24.5,20.5 22.5,20.5 20.5,20.5C 20.5,19.5 20.5,18.5 20.5,17.5C 22.5,17.5 24.5,17.5 26.5,17.5C 26.5,18.5 26.5,19.5 26.5,20.5 Z"/></g>
<g><path style="opacity:1" fill="#0d3870" d="M 20.5,20.5 C 20.5,21.5 20.5,22.5 20.5,23.5C 19.5,23.5 18.5,23.5 17.5,23.5C 17.5,22.5 17.5,21.5 17.5,20.5C 18.5,20.5 19.5,20.5 20.5,20.5 Z"/></g>
<g><path style="opacity:1" fill="#4acde8" d="M 20.5,20.5 C 22.5,20.5 24.5,20.5 26.5,20.5C 26.5,21.5 26.5,22.5 26.5,23.5C 27.5,23.5 28.5,23.5 29.5,23.5C 29.5,25.5 29.5,27.5 29.5,29.5C 28.5,29.5 27.5,29.5 26.5,29.5C 25.5,29.5 24.5,29.5 23.5,29.5C 23.5,28.5 23.5,27.5 23.5,26.5C 22.5,26.5 21.5,26.5 20.5,26.5C 20.5,25.5 20.5,24.5 20.5,23.5C 20.5,22.5 20.5,21.5 20.5,20.5 Z"/></g>
<g><path style="opacity:1" fill="#0d3870" d="M 26.5,20.5 C 27.5,20.5 28.5,20.5 29.5,20.5C 29.5,21.5 29.5,22.5 29.5,23.5C 29.5,22.5 29.5,21.5 29.5,20.5C 28.5,20.5 27.5,20.5 26.5,20.5 Z"/></g>
<g><path style="opacity:1" fill="#0d3870" d="M 17.5,23.5 C 17.5,25.5 17.5,27.5 17.5,29.5C 16.5,29.5 15.5,29.5 14.5,29.5C 14.5,27.5 14.5,25.5 14.5,23.5C 15.5,23.5 16.5,23.5 17.5,23.5 Z"/></g>
<g><path style="opacity:1" fill="#2f7cbe" d="M 17.5,23.5 C 18.5,23.5 19.5,23.5 20.5,23.5C 20.5,24.5 20.5,25.5 20.5,26.5C 21.5,26.5 22.5,26.5 23.5,26.5C 23.5,27.5 23.5,28.5 23.5,29.5C 24.5,29.5 25.5,29.5 26.5,29.5C 26.5,30.5 26.5,31.5 26.5,32.5C 24.5,32.5 22.5,32.5 20.5,32.5C 20.5,31.5 20.5,30.5 20.5,29.5C 19.5,29.5 18.5,29.5 17.5,29.5C 17.5,27.5 17.5,25.5 17.5,23.5 Z"/></g>
<g><path style="opacity:1" fill="#0d3870" d="M 29.5,23.5 C 30.5,23.5 31.5,23.5 32.5,23.5C 32.5,25.5 32.5,27.5 32.5,29.5C 31.5,29.5 30.5,29.5 29.5,29.5C 29.5,27.5 29.5,25.5 29.5,23.5 Z"/></g>
<g><path style="opacity:1" fill="#0d3870" d="M 17.5,29.5 C 18.5,29.5 19.5,29.5 20.5,29.5C 20.5,30.5 20.5,31.5 20.5,32.5C 19.5,32.5 18.5,32.5 17.5,32.5C 17.5,31.5 17.5,30.5 17.5,29.5 Z"/></g>
<g><path style="opacity:1" fill="#0d3870" d="M 26.5,29.5 C 27.5,29.5 28.5,29.5 29.5,29.5C 29.5,30.5 29.5,31.5 29.5,32.5C 28.5,32.5 27.5,32.5 26.5,32.5C 26.5,31.5 26.5,30.5 26.5,29.5 Z"/></g>
<g><path style="opacity:1" fill="#0d3870" d="M 20.5,32.5 C 22.5,32.5 24.5,32.5 26.5,32.5C 26.5,33.5 26.5,34.5 26.5,35.5C 24.5,35.5 22.5,35.5 20.5,35.5C 20.5,34.5 20.5,33.5 20.5,32.5 Z"/></g>
<g><path style="opacity:1" fill="#0d3870" d="M 5.5,35.5 C 6.5,35.5 7.5,35.5 8.5,35.5C 8.5,37.5 8.5,39.5 8.5,41.5C 7.5,41.5 6.5,41.5 5.5,41.5C 5.5,39.5 5.5,37.5 5.5,35.5 Z"/></g>
<g><path style="opacity:1" fill="#0d3870" d="M 8.5,41.5 C 9.5,41.5 10.5,41.5 11.5,41.5C 11.5,42.5 11.5,43.5 11.5,44.5C 10.5,44.5 9.5,44.5 8.5,44.5C 8.5,43.5 8.5,42.5 8.5,41.5 Z"/></g>
<g><path style="opacity:1" fill="#0d3870" d="M 38.5,41.5 C 38.5,42.5 38.5,43.5 38.5,44.5C 37.5,44.5 36.5,44.5 35.5,44.5C 35.5,43.5 35.5,42.5 35.5,41.5C 36.5,41.5 37.5,41.5 38.5,41.5 Z"/></g>
<g><path style="opacity:1" fill="#0d3870" d="M 11.5,44.5 C 17.5,44.5 23.5,44.5 29.5,44.5C 31.5,44.5 33.5,44.5 35.5,44.5C 35.5,45.5 35.5,46.5 35.5,47.5C 27.5,47.5 19.5,47.5 11.5,47.5C 11.5,46.5 11.5,45.5 11.5,44.5 Z"/></g>
</svg>
