<?xml version="1.0" encoding="UTF-8"?>
<!DOCTYPE svg PUBLIC "-//W3C//DTD SVG 1.1//EN" "http://www.w3.org/Graphics/SVG/1.1/DTD/svg11.dtd">
<svg xmlns="http://www.w3.org/2000/svg" version="1.1" width="48px" height="48px" style="shape-rendering:geometricPrecision; text-rendering:geometricPrecision; image-rendering:optimizeQuality; fill-rule:evenodd; clip-rule:evenodd" xmlns:xlink="http://www.w3.org/1999/xlink">
<g><path style="opacity:1" fill="#450d1b" d="M 23.5,8.5 C 22.5,8.5 21.5,8.5 20.5,8.5C 20.5,9.5 20.5,10.5 20.5,11.5C 19.5,11.5 18.5,11.5 17.5,11.5C 17.5,10.5 17.5,9.5 17.5,8.5C 16.5,8.5 15.5,8.5 14.5,8.5C 14.5,9.5 14.5,10.5 14.5,11.5C 13.5,11.5 12.5,11.5 11.5,11.5C 11.5,12.5 11.5,13.5 11.5,14.5C 12.5,14.5 13.5,14.5 14.5,14.5C 14.5,15.5 14.5,16.5 14.5,17.5C 12.5,17.5 10.5,17.5 8.5,17.5C 8.5,14.5 8.5,11.5 8.5,8.5C 9.5,8.5 10.5,8.5 11.5,8.5C 11.5,7.5 11.5,6.5 11.5,5.5C 15.5,5.5 19.5,5.5 23.5,5.5C 23.5,6.5 23.5,7.5 23.5,8.5 Z"/></g>
<g><path style="opacity:1" fill="#922d00" d="M 23.5,8.5 C 23.5,9.5 23.5,10.5 23.5,11.5C 22.5,11.5 21.5,11.5 20.5,11.5C 20.5,10.5 20.5,9.5 20.5,8.5C 21.5,8.5 22.5,8.5 23.5,8.5 Z"/></g>
<g><path style="opacity:1" fill="#450d1b" d="M 23.5,8.5 C 24.5,8.5 25.5,8.5 26.5,8.5C 26.5,9.5 26.5,10.5 26.5,11.5C 25.5,11.5 24.5,11.5 23.5,11.5C 23.5,10.5 23.5,9.5 23.5,8.5 Z"/></g>
<g><path style="opacity:1" fill="#450d1b" d="M 20.5,11.5 C 21.5,11.5 22.5,11.5 23.5,11.5C 23.5,12.5 23.5,13.5 23.5,14.5C 23.5,15.5 23.5,16.5 23.5,17.5C 22.5,17.5 21.5,17.5 20.5,17.5C 20.5,15.5 20.5,13.5 20.5,11.5 Z"/></g>
<g><path style="opacity:1" fill="#922d00" d="M 23.5,11.5 C 24.5,11.5 25.5,11.5 26.5,11.5C 26.5,12.5 26.5,13.5 26.5,14.5C 25.5,14.5 24.5,14.5 23.5,14.5C 23.5,13.5 23.5,12.5 23.5,11.5 Z"/></g>
<g><path style="opacity:1" fill="#450d1b" d="M 26.5,11.5 C 27.5,11.5 28.5,11.5 29.5,11.5C 29.5,14.5 29.5,17.5 29.5,20.5C 28.5,20.5 27.5,20.5 26.5,20.5C 26.5,18.5 26.5,16.5 26.5,14.5C 26.5,13.5 26.5,12.5 26.5,11.5 Z"/></g>
<g><path style="opacity:1" fill="#e05b00" d="M 23.5,14.5 C 24.5,14.5 25.5,14.5 26.5,14.5C 26.5,16.5 26.5,18.5 26.5,20.5C 25.5,20.5 24.5,20.5 23.5,20.5C 23.5,19.5 23.5,18.5 23.5,17.5C 23.5,16.5 23.5,15.5 23.5,14.5 Z"/></g>
<g><path style="opacity:1" fill="#450d1b" d="M 20.5,17.5 C 20.5,18.5 20.5,19.5 20.5,20.5C 19.5,20.5 18.5,20.5 17.5,20.5C 17.5,19.5 17.5,18.5 17.5,17.5C 18.5,17.5 19.5,17.5 20.5,17.5 Z"/></g>
<g><path style="opacity:1" fill="#922d00" d="M 20.5,17.5 C 21.5,17.5 22.5,17.5 23.5,17.5C 23.5,18.5 23.5,19.5 23.5,20.5C 22.5,20.5 21.5,20.5 20.5,20.5C 20.5,19.5 20.5,18.5 20.5,17.5 Z"/></g>
<g><path style="opacity:1" fill="#450d1b" d="M 17.5,20.5 C 17.5,21.5 17.5,22.5 17.5,23.5C 16.5,23.5 15.5,23.5 14.5,23.5C 14.5,22.5 14.5,21.5 14.5,20.5C 15.5,20.5 16.5,20.5 17.5,20.5 Z"/></g>
<g><path style="opacity:1" fill="#922d00" d="M 17.5,20.5 C 18.5,20.5 19.5,20.5 20.5,20.5C 20.5,21.5 20.5,22.5 20.5,23.5C 19.5,23.5 18.5,23.5 17.5,23.5C 17.5,22.5 17.5,21.5 17.5,20.5 Z"/></g>
<g><path style="opacity:1" fill="#e05b00" d="M 20.5,20.5 C 21.5,20.5 22.5,20.5 23.5,20.5C 23.5,21.5 23.5,22.5 23.5,23.5C 22.5,23.5 21.5,23.5 20.5,23.5C 20.5,22.5 20.5,21.5 20.5,20.5 Z"/></g>
<g><path style="opacity:1" fill="#fe9f29" d="M 23.5,20.5 C 24.5,20.5 25.5,20.5 26.5,20.5C 26.5,21.5 26.5,22.5 26.5,23.5C 26.5,24.5 26.5,25.5 26.5,26.5C 25.5,26.5 24.5,26.5 23.5,26.5C 23.5,27.5 23.5,28.5 23.5,29.5C 22.5,29.5 21.5,29.5 20.5,29.5C 20.5,27.5 20.5,25.5 20.5,23.5C 21.5,23.5 22.5,23.5 23.5,23.5C 23.5,22.5 23.5,21.5 23.5,20.5 Z"/></g>
<g><path style="opacity:1" fill="#922d00" d="M 26.5,20.5 C 27.5,20.5 28.5,20.5 29.5,20.5C 29.5,21.5 29.5,22.5 29.5,23.5C 28.5,23.5 27.5,23.5 26.5,23.5C 26.5,22.5 26.5,21.5 26.5,20.5 Z"/></g>
<g><path style="opacity:1" fill="#450d1b" d="M 14.5,23.5 C 14.5,24.5 14.5,25.5 14.5,26.5C 14.5,27.5 14.5,28.5 14.5,29.5C 13.5,29.5 12.5,29.5 11.5,29.5C 11.5,27.5 11.5,25.5 11.5,23.5C 12.5,23.5 13.5,23.5 14.5,23.5 Z"/></g>
<g><path style="opacity:1" fill="#922d00" d="M 14.5,23.5 C 15.5,23.5 16.5,23.5 17.5,23.5C 17.5,24.5 17.5,25.5 17.5,26.5C 16.5,26.5 15.5,26.5 14.5,26.5C 14.5,25.5 14.5,24.5 14.5,23.5 Z"/></g>
<g><path style="opacity:1" fill="#e05b00" d="M 17.5,23.5 C 18.5,23.5 19.5,23.5 20.5,23.5C 20.5,25.5 20.5,27.5 20.5,29.5C 21.5,29.5 22.5,29.5 23.5,29.5C 23.5,30.5 23.5,31.5 23.5,32.5C 22.5,32.5 21.5,32.5 20.5,32.5C 20.5,33.5 20.5,34.5 20.5,35.5C 21.5,35.5 22.5,35.5 23.5,35.5C 23.5,36.5 23.5,37.5 23.5,38.5C 23.5,39.5 23.5,40.5 23.5,41.5C 21.5,41.5 19.5,41.5 17.5,41.5C 17.5,40.5 17.5,39.5 17.5,38.5C 16.5,38.5 15.5,38.5 14.5,38.5C 14.5,35.5 14.5,32.5 14.5,29.5C 14.5,28.5 14.5,27.5 14.5,26.5C 15.5,26.5 16.5,26.5 17.5,26.5C 17.5,25.5 17.5,24.5 17.5,23.5 Z"/></g>
<g><path style="opacity:1" fill="#e05b00" d="M 26.5,23.5 C 27.5,23.5 28.5,23.5 29.5,23.5C 29.5,24.5 29.5,25.5 29.5,26.5C 28.5,26.5 27.5,26.5 26.5,26.5C 26.5,25.5 26.5,24.5 26.5,23.5 Z"/></g>
<g><path style="opacity:1" fill="#922d00" d="M 29.5,23.5 C 30.5,23.5 31.5,23.5 32.5,23.5C 32.5,28.5 32.5,33.5 32.5,38.5C 31.5,38.5 30.5,38.5 29.5,38.5C 29.5,37.5 29.5,36.5 29.5,35.5C 29.5,34.5 29.5,33.5 29.5,32.5C 29.5,31.5 29.5,30.5 29.5,29.5C 29.5,28.5 29.5,27.5 29.5,26.5C 29.5,25.5 29.5,24.5 29.5,23.5 Z"/></g>
<g><path style="opacity:1" fill="#fec900" d="M 26.5,26.5 C 26.5,27.5 26.5,28.5 26.5,29.5C 25.5,29.5 24.5,29.5 23.5,29.5C 23.5,28.5 23.5,27.5 23.5,26.5C 24.5,26.5 25.5,26.5 26.5,26.5 Z"/></g>
<g><path style="opacity:1" fill="#fe9f29" d="M 26.5,26.5 C 27.5,26.5 28.5,26.5 29.5,26.5C 29.5,27.5 29.5,28.5 29.5,29.5C 28.5,29.5 27.5,29.5 26.5,29.5C 26.5,28.5 26.5,27.5 26.5,26.5 Z"/></g>
<g><path style="opacity:1" fill="#450d1b" d="M 11.5,29.5 C 11.5,33.5 11.5,37.5 11.5,41.5C 10.5,41.5 9.5,41.5 8.5,41.5C 8.5,37.5 8.5,33.5 8.5,29.5C 9.5,29.5 10.5,29.5 11.5,29.5 Z"/></g>
<g><path style="opacity:1" fill="#922d00" d="M 11.5,29.5 C 12.5,29.5 13.5,29.5 14.5,29.5C 14.5,32.5 14.5,35.5 14.5,38.5C 15.5,38.5 16.5,38.5 17.5,38.5C 17.5,39.5 17.5,40.5 17.5,41.5C 19.5,41.5 21.5,41.5 23.5,41.5C 23.5,42.5 23.5,43.5 23.5,44.5C 20.5,44.5 17.5,44.5 14.5,44.5C 14.5,43.5 14.5,42.5 14.5,41.5C 13.5,41.5 12.5,41.5 11.5,41.5C 11.5,37.5 11.5,33.5 11.5,29.5 Z"/></g>
<g><path style="opacity:1" fill="#fe9f29" d="M 23.5,29.5 C 24.5,29.5 25.5,29.5 26.5,29.5C 26.5,30.5 26.5,31.5 26.5,32.5C 25.5,32.5 24.5,32.5 23.5,32.5C 23.5,31.5 23.5,30.5 23.5,29.5 Z"/></g>
<g><path style="opacity:1" fill="#fec900" d="M 26.5,29.5 C 27.5,29.5 28.5,29.5 29.5,29.5C 29.5,30.5 29.5,31.5 29.5,32.5C 28.5,32.5 27.5,32.5 26.5,32.5C 26.5,31.5 26.5,30.5 26.5,29.5 Z"/></g>
<g><path style="opacity:1" fill="#fe9f29" d="M 23.5,32.5 C 23.5,33.5 23.5,34.5 23.5,35.5C 22.5,35.5 21.5,35.5 20.5,35.5C 20.5,34.5 20.5,33.5 20.5,32.5C 21.5,32.5 22.5,32.5 23.5,32.5 Z"/></g>
<g><path style="opacity:1" fill="#e05b00" d="M 23.5,32.5 C 24.5,32.5 25.5,32.5 26.5,32.5C 26.5,33.5 26.5,34.5 26.5,35.5C 25.5,35.5 24.5,35.5 23.5,35.5C 23.5,34.5 23.5,33.5 23.5,32.5 Z"/></g>
<g><path style="opacity:1" fill="#fe9f29" d="M 26.5,32.5 C 27.5,32.5 28.5,32.5 29.5,32.5C 29.5,33.5 29.5,34.5 29.5,35.5C 28.5,35.5 27.5,35.5 26.5,35.5C 26.5,34.5 26.5,33.5 26.5,32.5 Z"/></g>
<g><path style="opacity:1" fill="#fe9f29" d="M 23.5,35.5 C 24.5,35.5 25.5,35.5 26.5,35.5C 26.5,36.5 26.5,37.5 26.5,38.5C 25.5,38.5 24.5,38.5 23.5,38.5C 23.5,37.5 23.5,36.5 23.5,35.5 Z"/></g>
<g><path style="opacity:1" fill="#e05b00" d="M 26.5,35.5 C 27.5,35.5 28.5,35.5 29.5,35.5C 29.5,36.5 29.5,37.5 29.5,38.5C 28.5,38.5 27.5,38.5 26.5,38.5C 26.5,37.5 26.5,36.5 26.5,35.5 Z"/></g>
<g><path style="opacity:1" fill="#922d00" d="M 23.5,38.5 C 24.5,38.5 25.5,38.5 26.5,38.5C 27.5,38.5 28.5,38.5 29.5,38.5C 29.5,39.5 29.5,40.5 29.5,41.5C 28.5,41.5 27.5,41.5 26.5,41.5C 25.5,41.5 24.5,41.5 23.5,41.5C 23.5,40.5 23.5,39.5 23.5,38.5 Z"/></g>
<g><path style="opacity:1" fill="#450d1b" d="M 11.5,41.5 C 12.5,41.5 13.5,41.5 14.5,41.5C 14.5,42.5 14.5,43.5 14.5,44.5C 13.5,44.5 12.5,44.5 11.5,44.5C 11.5,43.5 11.5,42.5 11.5,41.5 Z"/></g>
<g><path style="opacity:1" fill="#450d1b" d="M 23.5,41.5 C 24.5,41.5 25.5,41.5 26.5,41.5C 26.5,42.5 26.5,43.5 26.5,44.5C 25.5,44.5 24.5,44.5 23.5,44.5C 23.5,43.5 23.5,42.5 23.5,41.5 Z"/></g>
<g><path style="opacity:1" fill="#450d1b" d="M 14.5,44.5 C 17.5,44.5 20.5,44.5 23.5,44.5C 23.5,45.5 23.5,46.5 23.5,47.5C 20.5,47.5 17.5,47.5 14.5,47.5C 14.5,46.5 14.5,45.5 14.5,44.5 Z"/></g>
</svg>
