<?xml version="1.0" encoding="iso-8859-1"?>
<!-- Uploaded to: SVG Repo, www.svgrepo.com, Generator: SVG Repo Mixer Tools -->
<svg version="1.1" id="Layer_1" xmlns="http://www.w3.org/2000/svg" xmlns:xlink="http://www.w3.org/1999/xlink" 
	 viewBox="0 0 512 512" xml:space="preserve">
<rect x="10.47" y="106.798" style="fill:#F92859;" width="362.274" height="362.274"/>
<polygon style="fill:#75EBE5;" points="372.744,106.798 10.47,106.798 139.256,42.928 501.53,42.928 "/>
<polygon style="fill:#FFFFFF;" points="372.744,106.798 372.744,469.072 501.53,405.202 501.53,42.928 "/>
<g>
	<path style="fill:#333333;" d="M511.993,42.927c0-0.792-0.083-1.591-0.269-2.388c-1.109-4.734-5.332-8.081-10.194-8.081H139.256
		c-1.613,0-3.206,0.373-4.652,1.09L5.818,97.417c-3.622,1.797-5.812,5.471-5.811,9.379L0,106.798v362.274
		c0,5.783,4.689,10.47,10.47,10.47h362.274c1.589,0,3.183-0.361,4.652-1.09l128.785-63.869c3.563-1.767,5.818-5.403,5.818-9.38
		V42.928C512,42.928,511.994,42.927,511.993,42.927z M141.71,53.399h315.141l-86.56,42.928H55.148L141.71,53.399z M20.941,117.268
		h341.333v341.333H20.941V117.268z M383.215,452.191V113.292l107.845-53.484v338.899L383.215,452.191z"/>
	<path style="fill:#333333;" d="M151.691,285.994c11.072-5.183,19.083-19.082,19.083-39.579c0-30.627-18.611-41.699-44.997-41.699
		c-38.165,0-47.825,24.736-47.825,38.872c0,7.774,1.885,10.13,10.366,10.13c6.832,0,9.423-3.534,9.423-8.717
		c0-9.894,5.419-22.617,27.564-22.617c17.669,0,26.385,8.481,26.385,27.564c0,22.617-10.601,28.271-27.329,28.271
		c-4.947,0-6.832,4.24-6.832,8.245c0,4.24,1.886,8.245,6.832,8.245c19.083,0,31.569,8.245,31.569,28.742v4.476
		c0,22.617-10.838,32.511-31.569,32.511c-22.852,0-30.862-13.428-30.862-23.558c0-4.947-2.12-7.774-10.131-7.774
		c-6.596,0-9.187,1.885-9.187,9.188c0,17.904,15.313,40.05,50.18,40.05c28.271,0,51.359-13.664,51.359-50.416v-4.476
		C175.722,302.957,165.591,291.649,151.691,285.994z"/>
	<path style="fill:#333333;" d="M252.525,204.717h-41.699c-5.418,0-8.952,3.298-8.952,6.832v158.551
		c0,3.534,3.534,6.832,8.952,6.832h41.699c28.507,0,50.888-13.899,50.888-51.358v-69.499
		C303.412,218.617,281.03,204.717,252.525,204.717z M283.623,325.574c0,22.853-11.78,33.454-31.098,33.454h-30.862V222.622h30.862
		c19.318,0,31.098,10.601,31.098,33.454V325.574z"/>
</g>
</svg>