<?xml version="1.0" encoding="iso-8859-1"?>
<!-- Uploaded to: SVG Repo, www.svgrepo.com, Generator: SVG Repo Mixer Tools -->
<svg height="800px" width="800px" version="1.1" id="Layer_1" xmlns="http://www.w3.org/2000/svg" xmlns:xlink="http://www.w3.org/1999/xlink" 
	 viewBox="0 0 512.001 512.001" xml:space="preserve">
<circle style="fill:#4EB79B;" cx="256.225" cy="238.764" r="57.593"/>
<path style="fill:#40A084;" d="M256.222,296.359c-31.809,0-57.593-25.784-57.593-57.593s25.784-57.593,57.593-57.593
	c-17.688,0-32.015,25.784-32.015,57.593S238.533,296.359,256.222,296.359z"/>
<g>
	<circle style="fill:#F7A872;" cx="256.225" cy="468.736" r="34.914"/>
	<circle style="fill:#F7A872;" cx="455.382" cy="123.784" r="34.914"/>
	<circle style="fill:#F7A872;" cx="57.064" cy="123.784" r="34.914"/>
</g>
<g>
	<path style="fill:#E09461;" d="M453.354,156.665c-5.991,0-11.605-1.601-16.442-4.414c-9.822-5.671-16.442-16.305-16.442-28.471
		c0-18.169,14.727-32.884,32.884-32.884c-8.427,0-15.253,14.716-15.253,32.884c0,12.166,3.076,22.799,7.626,28.471
		C447.969,155.064,450.576,156.665,453.354,156.665z"/>
	<path style="fill:#E09461;" d="M55.034,156.665c-5.991,0-11.605-1.601-16.442-4.414c-9.822-5.671-16.442-16.305-16.442-28.471
		c0-18.169,14.727-32.884,32.884-32.884c-8.427,0-15.253,14.716-15.253,32.884c0,12.166,3.076,22.799,7.626,28.471
		C49.649,155.064,52.256,156.665,55.034,156.665z"/>
	<path style="fill:#E09461;" d="M254.193,501.619c-5.991,0-11.605-1.601-16.442-4.414c-9.822-5.671-16.442-16.305-16.442-28.471
		c0-18.169,14.727-32.884,32.884-32.884c-8.427,0-15.253,14.716-15.253,32.884c0,12.166,3.076,22.799,7.626,28.471
		C248.808,500.018,251.415,501.619,254.193,501.619z"/>
</g>
<path d="M320.903,225.597c-0.922-4.646-5.438-7.665-10.08-6.741c-4.646,0.922-7.664,5.435-6.741,10.08
	c0.622,3.139,0.939,6.37,0.939,9.605c0,27.029-21.989,49.019-49.019,49.019c-27.029,0-49.017-21.99-49.017-49.019
	s21.989-49.017,49.017-49.017c13.513,0,26.099,5.382,35.44,15.152c3.271,3.423,8.7,3.546,12.125,0.273
	c3.423-3.272,3.546-8.701,0.273-12.125c-12.607-13.189-29.597-20.453-47.837-20.453c-36.486,0-66.168,29.683-66.168,66.168
	s29.683,66.17,66.168,66.17s66.17-29.684,66.17-66.17C322.17,234.187,321.744,229.833,320.903,225.597z"/>
<path d="M498.65,123.557c0-23.979-19.51-43.489-43.489-43.489c-8.706,0-16.815,2.581-23.623,7.003
	c-19.903-12.893-45.809-20.312-75.594-21.626C329.046,23.198,293.692,0,256,0s-73.046,23.2-99.946,65.446
	c-29.783,1.314-55.691,8.731-75.599,21.621c-6.806-4.419-14.912-6.999-23.615-6.999c-23.979,0-43.489,19.509-43.489,43.489
	c0,16.854,9.643,31.488,23.697,38.704c-1.203,23.665,5.326,49.803,19.073,76.26c-23.139,44.442-25.555,86.665-6.712,119.296
	c18.847,32.637,56.623,51.656,106.676,53.837c16.01,25.116,35.373,43.836,56.483,54.635c-0.038,0.736-0.056,1.477-0.056,2.223
	c0,23.979,19.509,43.489,43.488,43.489s43.489-19.509,43.489-43.489c0-0.746-0.019-1.486-0.056-2.223
	c22.211-11.363,42.499-31.475,58.967-58.596c15.368-25.267,27.207-56.407,34.34-90.203c21.128-18.961,39.115-39.803,52.753-61.069
	c15.797,35.244,16.691,67.8,2.245,92.819c-13.295,23.023-38.501,38.017-72.891,43.36c-4.68,0.727-7.885,5.11-7.158,9.791
	c0.657,4.234,4.308,7.261,8.463,7.261c0.438,0,0.882-0.033,1.328-0.103c39.699-6.169,69.129-24.057,85.11-51.732
	c18.843-32.631,16.427-74.854-6.712-119.296c13.747-26.456,20.276-52.594,19.073-76.259
	C489.005,155.046,498.65,140.41,498.65,123.557z M256,378.334c-21.645-7.465-43.105-17.278-63.828-29.242
	c-20.717-11.96-39.945-25.638-57.236-40.655c-2.051-10.595-3.666-21.506-4.758-32.51c-0.468-4.713-4.659-8.152-9.38-7.687
	c-4.713,0.468-8.155,4.667-7.687,9.38c0.381,3.834,0.838,7.653,1.333,11.46c-15.645-16.172-28.808-33.314-38.765-50.539
	c9.954-17.218,23.116-34.357,38.766-50.531c-2.146,16.526-3.252,33.431-3.252,50.531c0,4.736,3.84,8.575,8.575,8.575
	s8.575-3.84,8.575-8.575c0-23.903,2.233-47.392,6.593-69.888c17.278-15.014,36.505-28.696,57.236-40.664
	c20.723-11.965,42.183-21.777,63.828-29.242c21.643,7.465,43.104,17.278,63.828,29.242c20.729,11.967,39.955,25.648,57.236,40.664
	c4.359,22.496,6.592,45.985,6.592,69.888c0,23.91-2.233,47.401-6.592,69.898c-17.29,15.014-36.518,28.692-57.236,40.654
	C299.105,361.055,277.646,370.868,256,378.334z M165.848,394.707c-9.935-17.215-18.199-37.184-24.39-58.84
	c13.233,10.117,27.323,19.526,42.139,28.08c14.821,8.556,30.015,16.054,45.392,22.456
	C207.154,391.865,185.735,394.695,165.848,394.707z M165.849,82.375c19.884,0.014,41.303,2.841,63.138,8.306
	c-15.376,6.402-30.57,13.899-45.391,22.455c-14.822,8.557-28.91,17.966-42.135,28.08C147.65,119.564,155.915,99.596,165.849,82.375z
	 M328.403,113.135c-14.821-8.556-30.015-16.054-45.391-22.455c21.835-5.464,43.258-8.293,63.138-8.306
	c9.934,17.22,18.198,37.189,24.389,58.842C357.312,131.101,343.224,121.692,328.403,113.135z M256,17.151
	c28.899,0,56.644,17.047,79.255,48.341c-25.213,1.18-52.258,6.337-79.255,15.152c-26.997-8.817-54.042-13.977-79.254-15.155
	C199.357,34.198,227.102,17.151,256,17.151z M56.842,97.219c14.522,0,26.338,11.815,26.338,26.338
	c0,14.522-11.815,26.337-26.338,26.337s-26.338-11.815-26.338-26.337C30.504,109.033,42.318,97.219,56.842,97.219z M56.842,167.045
	c23.979,0,43.489-19.509,43.489-43.488c0-8.914-2.7-17.208-7.319-24.114c14.379-8.498,32.292-13.938,52.758-16.057
	c-11.586,22.422-20.642,48.419-26.509,76.217c-21.125,18.959-39.109,39.791-52.742,61.04c-8.393-18.784-12.637-37.008-12.472-53.696
	C54.971,167.005,55.902,167.045,56.842,167.045z M64.264,349.24c-14.448-25.019-13.554-57.576,2.243-92.819
	c13.638,21.266,31.626,42.109,52.753,61.068c5.869,27.807,14.927,53.807,26.514,76.221
	C107.356,389.768,78.713,374.264,64.264,349.24z M256.001,494.849c-14.522,0-26.337-11.815-26.337-26.338
	s11.815-26.338,26.337-26.338s26.338,11.815,26.338,26.338S270.523,494.849,256.001,494.849z M343.744,398.785
	c-13.963,22.995-30.689,40.252-48.774,50.452c-7.119-14.335-21.909-24.215-38.97-24.215s-31.852,9.88-38.97,24.216
	c-14.544-8.203-28.202-20.986-40.26-37.637c25.212-1.182,52.254-6.353,79.246-15.168c21.77,7.113,43.365,11.851,64.225,14.039
	c0.304,0.032,0.606,0.048,0.906,0.048c4.335,0,8.056-3.276,8.518-7.682c0.494-4.71-2.925-8.929-7.634-9.423
	c-12.749-1.337-25.809-3.683-39.04-7.003c15.384-6.404,30.586-13.904,45.412-22.464c14.817-8.554,28.906-17.963,42.139-28.08
	C363.858,359.25,354.759,380.676,343.744,398.785z M397.555,289.081c2.147-16.528,3.252-33.436,3.252-50.54
	c0-17.101-1.105-34.006-3.252-50.531c15.649,16.173,28.811,33.313,38.766,50.531C426.363,255.768,413.2,272.909,397.555,289.081z
	 M445.482,220.642c-13.633-21.25-31.617-42.083-52.74-61.04c-5.868-27.798-14.924-53.796-26.51-76.217
	c20.467,2.12,38.378,7.562,52.755,16.064c-4.617,6.905-7.315,15.196-7.315,24.107c0,23.979,19.51,43.488,43.489,43.488
	c0.939,0,1.868-0.04,2.793-0.099C458.119,183.633,453.874,201.859,445.482,220.642z M455.161,149.894
	c-14.522,0-26.338-11.815-26.338-26.337s11.815-26.338,26.338-26.338s26.338,11.815,26.338,26.338
	C481.499,138.079,469.683,149.894,455.161,149.894z"/>
</svg>