<svg height="16px" width="16px" version="1.1" id="Layer_1" xmlns="http://www.w3.org/2000/svg" xmlns:xlink="http://www.w3.org/1999/xlink" viewBox="0 0 512 512" xml:space="preserve" fill="currentColor"><path style="fill:#FF4719;" d="M460.253,245.106l-12.637,105.668l37.343,0.065l0.054,0.022	c12.125-29.217,18.813-61.255,18.813-94.862L460.253,245.106z"></path><g><path style="fill:#FF754F;" d="M438.466,256l16.34-21.787L471.147,256c0,29.445-4.455,57.682-12.637,83.881l-27.397,11.003		l-6.536-25.055C433.531,304.313,438.466,280.718,438.466,256z"></path><path style="fill:#FF754F;" d="M431.243,80.765c-0.011,0-34.555,1.863-34.555,1.863L471.147,256h32.681		C503.828,187.566,476.092,125.603,431.243,80.765z"></path></g><path style="fill:#FF9269;" d="M471.147,256h-32.681c0-50.307-20.458-95.929-53.509-128.959l0.065-0.065l-4.474-39.1l37.928,5.646	C451.288,137.02,471.147,193.841,471.147,256z"></path><path style="fill:#A0F6FA;" d="M217.053,159.199l-52.823-7.364c-28.879,25.469-47.126,62.725-47.126,104.165	s18.247,78.695,47.126,104.165l52.823-7.364L242.381,256L217.053,159.199z"></path><path style="fill:#25BBCC;" d="M347.777,151.824l-13.454-0.414V360.59c0,0,13.454-0.414,13.443-0.425	c28.89-25.469,47.126-62.725,47.126-104.165S376.656,177.305,347.777,151.824z"></path><path style="fill:#50D1DD;" d="M334.323,162.304l-39.37-3.105L269.615,256l25.339,96.801l39.37-3.105	c17.31-24.718,27.888-57.627,27.888-93.696S351.633,187.022,334.323,162.304z"></path><path style="fill:#78E3EC;" d="M294.953,180.987h-77.9c-4.652,21.646-7.353,47.398-7.353,75.013c0,27.615,2.702,53.368,7.353,75.013	h77.9c4.652-21.646,7.342-47.398,7.342-75.013C302.296,228.385,299.605,202.632,294.953,180.987z"></path><path style="fill:#F0FEFF;" d="M164.23,151.835c15.066,13.29,33.04,23.378,52.823,29.151l38.945-63.88	C220.855,117.106,188.719,130.233,164.23,151.835z"></path><path style="fill:#78E3EC;" d="M257.37,117.117l76.953,45.187c4.695-3.214,9.183-6.71,13.443-10.469	C323.604,130.506,291.979,117.444,257.37,117.117z"></path><path style="fill:#A0F6FA;" d="M257.37,117.117c-0.458-0.011-0.915-0.011-1.373-0.011l38.956,63.88	c14.194-4.15,27.452-10.501,39.37-18.683C315.183,134.95,287.796,117.618,257.37,117.117z"></path><path style="fill:#F0FEFF;" d="M217.053,331.013c-19.783,5.774-37.757,15.861-52.823,29.151	c24.489,21.602,56.625,34.729,91.768,34.729L217.053,331.013z"></path><path style="fill:#78E3EC;" d="M347.766,360.165c-4.259-3.758-8.748-7.255-13.443-10.469l-76.953,45.187	C291.979,394.556,323.604,381.494,347.766,360.165z"></path><path style="fill:#A0F6FA;" d="M294.953,331.013l-38.956,63.88c0.458,0,0.915,0,1.373-0.011	c30.426-0.501,57.812-17.833,76.953-45.187C322.405,341.515,309.148,335.164,294.953,331.013z"></path><g><path style="fill:#D0FBFD;" d="M255.998,117.106c16.33,0,30.709,25.48,38.956,63.88c-12.364,3.628-25.437,5.567-38.956,5.567		s-26.591-1.939-38.945-5.567C225.3,142.587,239.679,117.106,255.998,117.106z"></path><path style="fill:#D0FBFD;" d="M294.953,331.013c-8.246,38.4-22.626,63.88-38.956,63.88c-16.319,0-30.698-25.48-38.945-63.88		c12.353-3.628,25.426-5.567,38.945-5.567C269.517,325.447,282.589,327.386,294.953,331.013z"></path></g><path style="fill:#FFCD60;" d="M258.776,8.192l159.7,85.33l12.756-12.756C386.994,36.505,326.098,8.922,258.776,8.192z"></path><path style="fill:#FFEAB5;" d="M385.022,126.976l-0.065,0.065c-33.029-33.051-78.652-53.509-128.959-53.509	s-95.929,20.458-128.959,53.509l-0.065-0.065l-44.186-0.615l-2.014-45.595C125.612,35.905,187.575,8.17,255.998,8.17	c0.926,0,1.852,0.011,2.778,0.022c63.749,0.926,120.799,33.792,159.7,85.33L385.022,126.976z"></path><path style="fill:#FFCD60;" d="M126.974,126.976l0.065,0.065C93.988,160.071,73.53,205.693,73.53,256l-32.681,32.681L8.168,256	c0-68.434,27.735-130.397,72.595-175.235C80.774,80.765,126.974,126.976,126.974,126.976z"></path><path style="fill:#FF9269;" d="M255.998,438.468l32.681,32.681l-32.681,32.681C119.13,503.83,8.168,392.867,8.168,256H73.53	C73.53,356.613,155.384,438.468,255.998,438.468z"></path><path style="fill:#E02E00;" d="M484.96,350.84l-26.45-10.959L258.776,503.808c102.084-1.111,189.342-63.946,226.239-152.946	L484.96,350.84z"></path><path style="fill:#FF4719;" d="M255.998,503.83v-65.362c75.896,0,141.116-46.57,168.579-112.64l33.934,14.053	c-29.543,94.644-107.673,162.587-199.734,163.927C257.85,503.819,256.924,503.83,255.998,503.83z"></path><path d="M437.019,74.981C388.668,26.628,324.38,0,256,0S123.332,26.628,74.981,74.981C26.628,123.332,0,187.62,0,256	s26.628,132.668,74.981,181.019C123.332,485.372,187.62,512,256,512s132.668-26.628,181.019-74.981	C485.372,388.668,512,324.38,512,256S485.372,123.332,437.019,74.981z M480.411,340.111L435.1,321.342	c6.572-17.957,10.504-37.172,11.351-57.172h49.053C494.608,290.804,489.347,316.347,480.411,340.111z M431.053,92.501	c38.314,40.995,62.434,95.405,64.452,155.329h-49.053c-1.967-46.412-20.601-88.581-50.065-120.662L431.053,92.501z M419.499,80.947	l-34.667,34.667C350.878,84.429,305.626,65.362,256,65.362s-94.878,19.067-128.832,50.252L92.501,80.947	C135.353,40.897,192.858,16.34,256,16.34S376.647,40.897,419.499,80.947z M65.548,247.83H16.495	c2.019-59.924,26.137-114.334,64.452-155.329l34.667,34.667C86.15,159.248,67.515,201.418,65.548,247.83z M16.495,264.17H65.54	c1.802,41.651,17.334,81.84,44.195,113.959c2.893,3.462,8.046,3.921,11.508,1.026c3.461-2.896,3.921-8.048,1.026-11.509	C96.11,336.367,81.702,296.716,81.702,256c0-96.108,78.19-174.298,174.298-174.298S430.298,159.892,430.298,256	S352.108,430.298,256,430.298c-40.716,0-80.367-14.408-111.646-40.568c-3.461-2.893-8.614-2.435-11.509,1.026	c-2.894,3.461-2.435,8.614,1.026,11.508c32.119,26.861,72.309,42.394,113.959,44.195v49.045	C122.164,491.273,20.727,389.836,16.495,264.17z M264.17,495.505v-49.053c72.911-3.091,135.347-47.322,164.646-110.026	l45.329,18.776C437.418,435.646,357.47,492.362,264.17,495.505z"></path><path d="M256,403.064c81.091,0,147.064-65.973,147.064-147.064S337.091,108.936,256,108.936S108.936,174.909,108.936,256	S174.909,403.064,256,403.064z M201.617,264.17c0.413,21.737,2.473,42.592,5.994,61.316c-15.501,5.414-30.081,13.426-43.096,23.792	c-22.379-21.953-36.915-51.867-38.975-85.107H201.617z M211.129,170.414c-12.129-4.445-23.597-10.689-34.007-18.587	c14.757-11.201,31.955-19.341,50.643-23.471c-4.53,7.097-8.634,16.077-12.24,26.893C213.93,160.04,212.467,165.116,211.129,170.414z	 M231.029,160.417c8.636-25.909,18.563-35.141,24.971-35.141s16.335,9.231,24.971,35.141c1.538,4.616,2.948,9.519,4.23,14.655	c-9.511,2.184-19.301,3.311-29.201,3.311c-9.9,0-19.691-1.125-29.201-3.311C228.081,169.935,229.49,165.033,231.029,160.417z	 M296.473,155.249c-3.603-10.808-7.702-19.796-12.227-26.89c18.684,4.132,35.877,12.269,50.63,23.468	c-10.41,7.898-21.878,14.142-34.007,18.587C299.533,165.116,298.07,160.04,296.473,155.249z M256,194.723	c11.06,0,21.997-1.251,32.626-3.673c3.162,17.325,5.018,36.619,5.413,56.78h-76.078c0.395-20.161,2.251-39.456,5.413-56.78	C234.003,193.473,244.94,194.723,256,194.723z M294.038,264.17c-0.395,20.161-2.251,39.456-5.413,56.78	c-10.629-2.423-21.566-3.673-32.626-3.673s-21.997,1.251-32.625,3.673c-3.162-17.325-5.018-36.619-5.413-56.78H294.038z	 M300.871,341.586c12.129,4.445,23.597,10.689,34.007,18.587c-14.756,11.201-31.954,19.341-50.643,23.471	c4.53-7.097,8.634-16.077,12.24-26.893C298.07,351.96,299.533,346.884,300.871,341.586z M280.971,351.583	c-8.636,25.909-18.563,35.141-24.971,35.141s-16.335-9.231-24.971-35.141c-1.538-4.616-2.948-9.519-4.23-14.655	c9.511-2.185,19.301-3.311,29.201-3.311c9.9,0,19.691,1.125,29.201,3.311C283.919,342.065,282.51,346.967,280.971,351.583z	 M215.527,356.751c3.605,10.814,7.709,19.796,12.238,26.893c-18.688-4.131-35.886-12.271-50.642-23.471	c10.41-7.898,21.878-14.142,34.007-18.587C212.467,346.884,213.93,351.96,215.527,356.751z M347.486,349.278	c-13.016-10.365-27.596-18.378-43.096-23.792c3.521-18.723,5.582-39.579,5.994-61.315h76.078	C384.4,297.411,369.864,327.325,347.486,349.278z M386.461,247.83h-76.078c-0.413-21.737-2.473-42.592-5.994-61.315	c15.501-5.414,30.081-13.426,43.096-23.792C369.864,184.675,384.4,214.589,386.461,247.83z M164.514,162.722	c13.016,10.365,27.596,18.378,43.096,23.792c-3.521,18.723-5.582,39.579-5.994,61.316h-76.078	C127.6,214.589,142.136,184.675,164.514,162.722z"></path></svg>