<?xml version="1.0" ?>
<!-- Uploaded to: SVG Repo, www.svgrepo.com, Generator: SVG Repo Mixer Tools -->
<svg width="800px" height="800px" viewBox="0 -92.33 485.69 485.69" xmlns="http://www.w3.org/2000/svg">
<defs>
<style>.cls-1{fill:#e5e5e5;}.cls-2{fill:#ffffff;}.cls-3{fill:#426572;}.cls-4{fill:#32caf8;}.cls-5{fill:#078de5;opacity:0.5;}</style>
</defs>
<title/>
<g data-name="Layer 2" id="Layer_2">
<g data-name="Layer 1" id="Layer_1-2">
<path class="cls-1" d="M452.58,14.86V244.93a6.25,6.25,0,0,1-6.33,6.17H44.88a6.26,6.26,0,0,1-6.33-6.17V14.86a6.26,6.26,0,0,1,6.33-6.17H446.25A6.25,6.25,0,0,1,452.58,14.86Z"/>
<path class="cls-2" d="M64.55,233.29v-12.4c0,2.66,2.48,4.83,5.55,4.83h352c3.06,0,5.55-2.17,5.55-4.83v12.4c0,2.66-2.49,4.83-5.55,4.83H70.1C67,238.11,64.55,235.95,64.55,233.29Z"/>
<path class="cls-2" d="M450.29,9.89V25.62A6.19,6.19,0,0,0,444,19.5H47.09a6.2,6.2,0,0,0-6.26,6.12V9.89a6.2,6.2,0,0,1,6.26-6.12H444A6.19,6.19,0,0,1,450.29,9.89Z"/>
<path class="cls-3" d="M439.45,267.11H51.67a18.45,18.45,0,0,1-18.34-18.52V18.52A18.45,18.45,0,0,1,51.67,0H439.45a18.45,18.45,0,0,1,18.34,18.52V248.59A18.45,18.45,0,0,1,439.45,267.11ZM51.67,12.35a6.15,6.15,0,0,0-6.11,6.17V248.59a6.15,6.15,0,0,0,6.11,6.17H439.45a6.15,6.15,0,0,0,6.11-6.17V18.52a6.15,6.15,0,0,0-6.11-6.17Z"/>
<path class="cls-4" d="M423.9,40.42V223.17a5.21,5.21,0,0,1-5.45,4.91H72.67a5.2,5.2,0,0,1-5.44-4.91V40.42a5.2,5.2,0,0,1,5.44-4.91H418.45A5.21,5.21,0,0,1,423.9,40.42Z"/>
<path class="cls-5" d="M422.74,214.4v9.53a29.35,29.35,0,0,1-5.45.26H71.51a29.15,29.15,0,0,1-5.44-.26V214.4a29.15,29.15,0,0,1,5.44-.26H417.29A29.35,29.35,0,0,1,422.74,214.4Z"/>
<path class="cls-3" d="M149.13,146.94V124q0-10.58,5.77-15.52t15-4.94q9.54,0,15.65,4.6a15,15,0,0,1,6.11,12.66q0,3.73-1.56,5.07t-5.2,1.34q-6.68,0-6.76-4.08a20.38,20.38,0,0,0-.09-2,9.23,9.23,0,0,0-.52-2,4.54,4.54,0,0,0-1.21-1.91,7.35,7.35,0,0,0-2.3-1.26,10.36,10.36,0,0,0-3.6-.56q-7.8,0-7.8,8.67v23q0,8.67,7.72,8.67t7.8-8.67V144h-5.12a3.47,3.47,0,0,1-3-1.52,6.55,6.55,0,0,1,0-7.28,3.45,3.45,0,0,1,2.95-1.6h14.57a3.75,3.75,0,0,1,3,1.26,4.44,4.44,0,0,1,1.08,3v9.11q0,10.58-5.81,15.52t-15.52,4.94q-9.63,0-15.44-4.94T149.13,146.94Z"/>
<path class="cls-3" d="M199.52,162.81V107.57a3.51,3.51,0,0,1,1.65-2.86,7,7,0,0,1,4.25-1.21h15.35q9.71,0,15.52,4.94T242.1,124v22.46q0,10.58-5.81,15.52t-15.52,4.94H205.41a7,7,0,0,1-4.25-1.21A3.51,3.51,0,0,1,199.52,162.81ZM213,155.1h7.72q7.8,0,7.8-8.67V124q0-8.67-7.8-8.67H213Z"/>
<path class="cls-3" d="M250.68,162.73V107.57a3.69,3.69,0,0,1,1.39-2.86,5.33,5.33,0,0,1,3.64-1.21h18q9.28,0,14.87,4.81t5.59,15.13v.43q0,10.32-5.85,15.22T272.79,144h-8.58v18.73a3.37,3.37,0,0,1-2,3.08,11,11,0,0,1-9.54,0A3.37,3.37,0,0,1,250.68,162.73Zm13.53-29.14h8.58q7.8,0,7.8-8.67v-1q0-8.67-7.8-8.67h-8.58Z"/>
<path class="cls-3" d="M300,162.73V107.57a4.07,4.07,0,0,1,4.16-4.08h18q21.33,0,21.33,18.56,0,13.53-10.49,17.6l10.58,19.17a2.62,2.62,0,0,1,.43,1.56q0,2.52-2.73,4.77a8.93,8.93,0,0,1-5.77,2.25,4.5,4.5,0,0,1-4.34-2.51l-11.88-23.07h-5.72v20.9a3.37,3.37,0,0,1-2,3.08,11,11,0,0,1-9.54,0A3.37,3.37,0,0,1,300,162.73Zm13.53-31.31h8.58a8.21,8.21,0,0,0,5.81-1.86q2-1.86,2-6.2t-2-6.2a8.21,8.21,0,0,0-5.81-1.86h-8.58Z"/>
<path class="cls-3" d="M414.22,231.73H76.91c-8.79,0-15.95-6.3-15.95-14V43.26c0-7.74,7.15-14,15.95-14H414.22c8.79,0,15.95,6.3,15.95,14V217.69C430.17,225.43,423,231.73,414.22,231.73ZM76.91,38.58c-2.93,0-5.32,2.1-5.32,4.68V217.69c0,2.58,2.38,4.68,5.32,4.68H414.22c2.93,0,5.32-2.1,5.32-4.68V43.26c0-2.58-2.38-4.68-5.32-4.68Z"/>
<path class="cls-2" d="M485.63,257.25A50.5,50.5,0,0,1,482,276.39H14.61a50.5,50.5,0,0,1-3.67-19.14Z"/>
<path class="cls-1" d="M480.66,276.39a41.21,41.21,0,0,1-5.12,9.12c-5.41,7.26-12.9,11.76-21.12,11.76H39.55c-11.28,0-21.15-8.46-26.24-20.88Z"/>
<path class="cls-2" d="M484.33,257.25a50.5,50.5,0,0,1-3.67,19.14H13.31a50.5,50.5,0,0,1-3.67-19.14Z"/>
<path class="cls-1" d="M480.66,276.39a41.21,41.21,0,0,1-5.12,9.12c-5.41,7.26-12.9,11.76-21.12,11.76H39.55c-11.28,0-21.15-8.46-26.24-20.88Z"/>
<path class="cls-3" d="M457.19,301H28.5A28.53,28.53,0,0,1,0,272.53V250H485.69v22.52A28.53,28.53,0,0,1,457.19,301ZM11,261v11.52A17.52,17.52,0,0,0,28.5,290H457.19a17.52,17.52,0,0,0,17.5-17.5V261Z"/>
<path class="cls-2" d="M263,60.08h36.06c3.86,0,3.87-6,0-6H263c-3.86,0-3.87,6,0,6Z"/>
<path class="cls-2" d="M314,60.08h89.54c3.86,0,3.87-6,0-6H314c-3.86,0-3.87,6,0,6Z"/>
</g>
</g>
</svg>