<?xml version="1.0" encoding="iso-8859-1"?>
<!-- Uploaded to: SVG Repo, www.svgrepo.com, Generator: SVG Repo Mixer Tools -->
<svg version="1.1" id="Layer_1" xmlns="http://www.w3.org/2000/svg" xmlns:xlink="http://www.w3.org/1999/xlink" 
	 viewBox="0 0 512 512" xml:space="preserve">
<path style="fill:#A7A9AC;" d="M350.041,470.204v20.898c0,5.745-4.704,10.449-10.449,10.449H172.408
	c-5.745,0-10.449-4.704-10.449-10.449v-20.898h31.347h125.388H350.041z"/>
<rect x="193.306" y="370.939" style="fill:#F1F2F2;" width="125.388" height="99.265"/>
<path style="fill:#D1D3D4;" d="M501.551,282.122v78.367c0,5.745-4.704,10.449-10.449,10.449H318.694H193.306H20.898
	c-5.745,0-10.449-4.704-10.449-10.449v-78.367H501.551z"/>
<path style="fill:#FFD248;" d="M370.939,94.041c20.163,0,36.571,16.404,36.571,36.571s-16.408,36.571-36.571,36.571
	s-36.571-16.404-36.571-36.571S350.775,94.041,370.939,94.041z"/>
<path style="fill:#31C0D8;" d="M334.367,130.612c0,20.168,16.408,36.571,36.571,36.571s36.571-16.404,36.571-36.571
	s-16.408-36.571-36.571-36.571S334.367,110.445,334.367,130.612z M501.551,20.898v261.224H10.449V20.898
	c0-5.745,4.704-10.449,10.449-10.449h470.204C496.847,10.449,501.551,15.153,501.551,20.898z"/>
<g>
	<path style="fill:#231F20;" d="M491.102,0H20.898C9.375,0,0,9.375,0,20.898V360.49c0,11.523,9.375,20.898,20.898,20.898h161.959
		v78.367h-20.898c-5.771,0-10.449,4.678-10.449,10.449v20.898c0,11.523,9.375,20.898,20.898,20.898h167.184
		c11.523,0,20.898-9.375,20.898-20.898v-20.898c0-5.771-4.679-10.449-10.449-10.449h-20.898v-78.367h161.959
		c11.523,0,20.898-9.375,20.898-20.898V20.898C512,9.375,502.625,0,491.102,0z M491.102,20.898v250.775H20.898V20.898H491.102z
		 M339.594,491.102H172.408v-10.449h167.185L339.594,491.102z M203.755,459.755v-78.367h104.49v78.367H203.755z M318.694,360.49
		H193.306H20.898v-67.918h470.204v67.918H318.694z"/>
	<path style="fill:#231F20;" d="M331.151,155.623l-14.621,14.621l14.778,14.778l14.621-14.621c4.415,2.785,9.323,4.854,14.561,6.048
		v22.082h20.898v-22.083c5.239-1.194,10.146-3.262,14.561-6.048l14.621,14.621l14.778-14.778l-14.621-14.621
		c2.786-4.416,4.855-9.323,6.048-14.562h22.083v-20.898h-22.083c-1.194-5.239-3.262-10.146-6.048-14.562l14.621-14.621
		L410.57,76.201l-14.621,14.621c-4.415-2.786-9.323-4.854-14.561-6.048V62.694H360.49v22.083
		c-5.239,1.194-10.146,3.262-14.561,6.048l-14.621-14.621L316.53,90.981l14.621,14.621c-2.786,4.416-4.855,9.323-6.048,14.562
		H303.02v20.898h22.083C326.297,146.3,328.365,151.207,331.151,155.623z M370.939,104.49c14.404,0,26.122,11.719,26.122,26.122
		s-11.719,26.122-26.122,26.122c-14.404,0-26.122-11.719-26.122-26.122S356.535,104.49,370.939,104.49z"/>
	<rect x="188.082" y="78.367" style="fill:#231F20;" width="73.143" height="20.898"/>
	<rect x="109.714" y="120.163" style="fill:#231F20;" width="151.51" height="20.898"/>
	<rect x="57.469" y="161.959" style="fill:#231F20;" width="203.755" height="20.898"/>
	<rect x="109.714" y="203.755" style="fill:#231F20;" width="151.51" height="20.898"/>
	<rect x="146.286" y="78.367" style="fill:#231F20;" width="20.898" height="20.898"/>
	<rect x="67.918" y="203.755" style="fill:#231F20;" width="20.898" height="20.898"/>
	<rect x="376.163" y="214.204" style="fill:#231F20;" width="20.898" height="20.898"/>
	<rect x="344.816" y="214.204" style="fill:#231F20;" width="20.898" height="20.898"/>
</g>
</svg>