<?xml version="1.0" encoding="iso-8859-1"?>
<!-- Uploaded to: SVG Repo, www.svgrepo.com, Generator: SVG Repo Mixer Tools -->
<svg height="800px" width="800px" version="1.1" id="Layer_1" xmlns="http://www.w3.org/2000/svg" xmlns:xlink="http://www.w3.org/1999/xlink" 
	 viewBox="0 0 512 512" xml:space="preserve">
<g>
	<polygon style="fill:#CCCCCC;" points="341.659,456.402 170.593,456.402 176.436,420.786 181.107,392.324 331.157,392.324 
		335.816,420.786 	"/>
	<path style="fill:#CCCCCC;" d="M502.579,84.651v277.238c0,16.802-13.62,30.435-30.435,30.435H40.108
		c-16.802,0-30.435-13.633-30.435-30.435V84.651c0-16.815,13.633-30.435,30.435-30.435h432.036
		C488.959,54.216,502.579,67.836,502.579,84.651z"/>
</g>
<path style="fill:#F2F2F2;" d="M502.579,84.651v277.238c0,16.802-13.62,30.435-30.435,30.435h-238.3l78.627-338.109h159.673
	C488.959,54.216,502.579,67.836,502.579,84.651z"/>
<path style="fill:#808080;" d="M502.579,84.651v261.671H9.673V84.651c0-16.815,13.633-30.435,30.435-30.435h432.036
	C488.959,54.216,502.579,67.836,502.579,84.651z"/>
<path style="fill:#999999;" d="M502.579,84.651v261.671H244.536l67.935-292.106h159.673
	C488.959,54.216,502.579,67.836,502.579,84.651z"/>
<polygon style="fill:#B3B3B3;" points="335.816,420.786 176.436,420.786 181.107,392.324 331.157,392.324 "/>
<path style="fill:#EAB96C;" d="M296.738,282.396c-0.675,0.191-1.617,0.395-2.711,0.611c-14.868,2.902-28.271,10.845-37.894,22.53
	c-0.535-0.662-1.095-1.298-1.655-1.935c-9.496-10.629-22.225-17.859-36.24-20.596c-1.107-0.216-2.049-0.42-2.724-0.611
	c-32.268-8.974-51.209-45.532-36.24-78.309l6.505-14.257c3.042-6.657,4.519-13.722,4.519-20.748
	c0-12.755-4.875-25.318-14.155-34.852l28.908-29.175c6.988,6.034,16.089,9.674,26.044,9.674c9.483,0,18.19-3.31,25.038-8.834
	c6.835,5.524,15.542,8.834,25.025,8.834c6.581,0,12.793-1.591,18.266-4.43c2.8-1.426,5.423-3.195,7.79-5.244l28.895,29.175
	c-9.267,9.534-14.155,22.11-14.155,34.865c0,7.014,1.477,14.078,4.519,20.736l6.517,14.257
	C347.96,236.864,329.006,273.422,296.738,282.396z"/>
<path style="fill:#FCCC8B;" d="M296.738,282.396c-0.675,0.191-1.617,0.395-2.711,0.611c-14.868,2.902-28.271,10.845-37.894,22.53
	c-0.535-0.662-1.095-1.298-1.655-1.935L299.424,110.3c2.8-1.426,5.423-3.195,7.79-5.244l28.895,29.175
	c-9.267,9.534-14.155,22.11-14.155,34.865c0,7.014,1.477,14.078,4.519,20.736l6.517,14.257
	C347.96,236.864,329.006,273.422,296.738,282.396z"/>
<path d="M170.461,200.816c-8.078,17.686-8.031,37.887,0.131,55.425c8.252,17.733,23.647,30.869,42.197,36.028
	c0.936,0.265,2.089,0.527,3.489,0.796c12.682,2.477,24.174,9.309,32.36,19.234c1.814,2.2,4.515,3.474,7.365,3.474
	s5.551-1.273,7.365-3.474c8.186-9.926,19.678-16.758,32.33-19.227c1.419-0.272,2.562-0.532,3.488-0.794
	c18.586-5.172,33.974-18.304,42.226-36.035c8.161-17.537,8.209-37.739,0.131-55.427l-6.519-14.263
	c-2.421-5.3-3.649-10.943-3.649-16.772c0-10.594,4.067-20.608,11.455-28.197c3.63-3.73,3.604-9.679-0.059-13.376l-28.903-29.185
	c-3.532-3.565-9.223-3.789-13.024-0.507c-5.494,4.747-12.53,7.361-19.81,7.361c-7.004,0-13.586-2.324-19.034-6.722
	c-3.498-2.826-8.495-2.826-11.993,0c-5.448,4.398-12.03,6.722-19.034,6.722c-7.281,0-14.316-2.615-19.813-7.362
	c-3.798-3.283-9.492-3.059-13.023,0.507l-28.901,29.185c-3.662,3.698-3.686,9.649-0.056,13.378
	c7.384,7.584,11.451,17.595,11.451,28.191c0,5.824-1.23,11.469-3.655,16.778L170.461,200.816z M187.83,208.749l6.513-14.263
	c3.57-7.816,5.381-16.129,5.381-24.711c0-12.426-3.8-24.309-10.844-34.273l17.128-17.296c7.523,4.402,16.135,6.763,24.964,6.763
	c8.812,0,17.48-2.387,25.03-6.815c7.551,4.43,16.218,6.815,25.03,6.815c8.83,0,17.441-2.363,24.963-6.763l17.129,17.297
	c-7.044,9.969-10.845,21.852-10.845,34.277c0,8.587,1.809,16.899,5.378,24.708l6.517,14.26c5.839,12.783,5.811,26.788-0.075,39.437
	c-5.892,12.66-16.843,22.028-30.044,25.697c-0.014,0.004-0.027,0.008-0.039,0.011c-0.181,0.051-0.727,0.193-1.951,0.429
	c-13.494,2.635-25.988,8.95-36.064,18.102c-10.078-9.151-22.577-15.467-36.098-18.108c-1.194-0.229-1.741-0.372-1.96-0.433
	c-13.2-3.671-24.15-13.038-30.042-25.699C182.016,235.536,181.991,221.531,187.83,208.749z"/>
<path d="M228.416,186.898h55.171c5.274,0,9.547-4.274,9.547-9.547c0-5.272-4.273-9.547-9.547-9.547h-55.171
	c-5.274,0-9.547,4.274-9.547,9.547C218.869,182.623,223.144,186.898,228.416,186.898z"/>
<path d="M228.416,216.324h55.171c5.274,0,9.547-4.274,9.547-9.547c0-5.272-4.273-9.547-9.547-9.547h-55.171
	c-5.274,0-9.547,4.274-9.547,9.547C218.869,212.049,223.144,216.324,228.416,216.324z"/>
<path d="M472.018,45.359H39.982C17.936,45.359,0,63.294,0,85.341v40.201c0,5.272,4.273,9.547,9.547,9.547s9.547-4.274,9.547-9.547
	V85.341c0-11.517,9.37-20.888,20.888-20.888h432.036c11.519,0,20.888,9.371,20.888,20.888v252.124H436.16
	c-5.274,0-9.547,4.274-9.547,9.547s4.273,9.547,9.547,9.547h56.746v6.021c0,11.517-9.37,20.888-20.888,20.888H39.982
	c-11.519,0-20.888-9.371-20.888-20.888v-6.021h387.791c5.274,0,9.547-4.274,9.547-9.547s-4.273-9.547-9.547-9.547H19.094V157.999
	c0-5.272-4.273-9.547-9.547-9.547S0,152.727,0,157.999v204.58c0,22.047,17.936,39.982,39.982,39.982h129.753l-7.374,44.987h-18.402
	c-5.274,0-9.547,4.274-9.547,9.547c0,5.272,4.273,9.547,9.547,9.547h224.088c5.274,0,9.547-4.274,9.547-9.547
	c0-5.272-4.273-9.547-9.547-9.547h-18.402l-7.375-44.987h129.748c22.045,0,39.982-17.935,39.982-39.982V85.341
	C512,63.294,494.065,45.359,472.018,45.359z M330.296,447.548H181.71l7.374-44.987H322.92L330.296,447.548z"/>
</svg>