<?xml version="1.0" encoding="iso-8859-1"?>
<!-- Uploaded to: SVG Repo, www.svgrepo.com, Generator: SVG Repo Mixer Tools -->
<svg version="1.1" id="Layer_1" xmlns="http://www.w3.org/2000/svg" xmlns:xlink="http://www.w3.org/1999/xlink" 
	 viewBox="0 0 512 512" xml:space="preserve">
<rect x="46.395" y="46.227" style="fill:#FFFFFF;" width="419.2" height="419.557"/>
<path style="fill:#ABABAB;" d="M368.787,420.133H143.213c-28.357,0-51.346-22.989-51.346-51.346V143.213
	c0-28.357,22.989-51.346,51.346-51.346h225.574c28.357,0,51.346,22.989,51.346,51.346v225.574
	C420.133,397.144,397.144,420.133,368.787,420.133z"/>
<g>
	<rect x="87.187" y="10.492" style="fill:#FFB33C;" width="80.577" height="35.735"/>
	<rect x="344.236" y="10.492" style="fill:#FFB33C;" width="80.577" height="35.735"/>
	<rect x="215.711" y="10.492" style="fill:#FFB33C;" width="80.577" height="35.735"/>
	<rect x="87.187" y="465.773" style="fill:#FFB33C;" width="80.577" height="35.735"/>
	<rect x="344.236" y="465.773" style="fill:#FFB33C;" width="80.577" height="35.735"/>
	<rect x="215.711" y="465.773" style="fill:#FFB33C;" width="80.577" height="35.735"/>
	<rect x="465.773" y="87.187" style="fill:#FFB33C;" width="35.735" height="80.577"/>
	<rect x="465.773" y="344.236" style="fill:#FFB33C;" width="35.735" height="80.577"/>
	<rect x="465.773" y="215.711" style="fill:#FFB33C;" width="35.735" height="80.577"/>
	<rect x="10.492" y="87.187" style="fill:#FFB33C;" width="35.735" height="80.577"/>
	<rect x="10.492" y="344.236" style="fill:#FFB33C;" width="35.735" height="80.577"/>
	<rect x="10.492" y="215.711" style="fill:#FFB33C;" width="35.735" height="80.577"/>
</g>
<path d="M368.787,81.377H143.213c-34.097,0-61.837,27.739-61.837,61.837v225.574c0,34.097,27.739,61.837,61.837,61.837h225.574
	c34.097,0,61.837-27.739,61.837-61.837V143.213C430.623,109.116,402.884,81.377,368.787,81.377z M409.64,368.787
	c0,22.527-18.327,40.853-40.853,40.853H143.213c-22.527,0-40.853-18.327-40.853-40.853V143.213
	c0-22.527,18.327-40.853,40.853-40.853h225.574c22.527,0,40.853,18.327,40.853,40.853V368.787z"/>
<path d="M386.098,135.85c-5.794,0-10.492,4.698-10.492,10.492v6.654c0,5.794,4.698,10.492,10.492,10.492s10.492-4.698,10.492-10.492
	v-6.654C396.59,140.548,391.892,135.85,386.098,135.85z"/>
<path d="M386.098,180.21c-5.794,0-10.492,4.698-10.492,10.492v179.658c0,5.794,4.698,10.492,10.492,10.492
	s10.492-4.698,10.492-10.492V190.702C396.59,184.908,391.892,180.21,386.098,180.21z"/>
<path d="M501.508,178.256c5.794,0,10.492-4.698,10.492-10.492V87.187c0-5.794-4.698-10.492-10.492-10.492h-25.415V46.223
	c0-5.794-4.698-10.492-10.492-10.492h-30.296V10.492C435.305,4.698,430.607,0,424.813,0h-80.577
	c-5.794,0-10.492,4.698-10.492,10.492v25.239H306.78V10.492C306.78,4.698,302.082,0,296.289,0h-80.577
	c-5.794,0-10.492,4.698-10.492,10.492v25.239h-26.964V10.492C178.256,4.698,173.557,0,167.764,0H87.187
	c-5.794,0-10.492,4.698-10.492,10.492v25.239H46.399c-5.794,0-10.492,4.698-10.492,10.492v30.472H10.492
	C4.698,76.695,0,81.393,0,87.187v80.577c0,5.794,4.698,10.492,10.492,10.492h25.415v26.964H10.492C4.698,205.22,0,209.918,0,215.711
	v80.577c0,5.794,4.698,10.492,10.492,10.492h25.415v26.964H10.492C4.698,333.744,0,338.442,0,344.236v80.577
	c0,5.794,4.698,10.492,10.492,10.492h25.415v30.472c0,5.794,4.698,10.492,10.492,10.492h30.296v25.239
	c0,5.794,4.698,10.492,10.492,10.492h80.577c5.794,0,10.492-4.698,10.492-10.492v-25.239h26.964v25.239
	c0,5.794,4.698,10.492,10.492,10.492h80.577c5.794,0,10.492-4.698,10.492-10.492v-25.239h26.964v25.239
	c0,5.794,4.698,10.492,10.492,10.492h80.577c5.794,0,10.492-4.698,10.492-10.492v-25.239h30.296c5.794,0,10.492-4.698,10.492-10.492
	v-30.472h25.415c5.794,0,10.492-4.698,10.492-10.492v-80.577c0-5.794-4.698-10.492-10.492-10.492h-25.415V306.78h25.415
	c5.794,0,10.492-4.698,10.492-10.492v-80.577c0-5.794-4.698-10.492-10.492-10.492h-25.415v-26.964H501.508z M476.269,97.679h14.747
	v59.593h-14.747V97.679z M35.731,157.272H20.984V97.679h14.747V157.272z M35.731,285.797H20.984v-59.593h14.747V285.797z
	 M35.731,414.321H20.984v-59.593h14.747V414.321z M476.269,354.728h14.747v59.593h-14.747V354.728z M476.269,226.203h14.747v59.593
	h-14.747V226.203z M354.728,20.984h59.593v14.747h-59.593V20.984z M226.203,20.984h59.593v14.747h-59.593V20.984z M97.679,20.984
	h59.593v14.747H97.679V20.984z M157.272,491.016H97.679v-14.747h59.593V491.016z M285.797,491.016h-59.593v-14.747h59.593V491.016z
	 M414.321,491.016h-59.593v-14.747h59.593V491.016z M56.891,455.285V56.714h398.22v398.572H56.891V455.285z"/>
</svg>