<?xml version="1.0" encoding="iso-8859-1"?>
<!-- Uploaded to: SVG Repo, www.svgrepo.com, Generator: SVG Repo Mixer Tools -->
<svg version="1.1" id="Layer_1" xmlns="http://www.w3.org/2000/svg" xmlns:xlink="http://www.w3.org/1999/xlink" 
	 viewBox="0 0 512 512" xml:space="preserve">
<g>
	<path style="fill:#AA947D;" d="M298.118,339.846v122.311c0,23.164-18.953,42.118-42.118,42.118l0,0
		c-23.164,0-42.118-18.953-42.118-42.118V339.846H298.118z"/>
	<path style="fill:#AA947D;" d="M322.781,347.33H189.22c-10.576,0-19.23-8.653-19.23-19.23v-6.764c0-10.576,8.653-19.23,19.23-19.23
		h133.56c10.576,0,19.23,8.653,19.23,19.23v6.764C342.01,338.676,333.357,347.33,322.781,347.33z"/>
</g>
<path style="fill:#D8D7D9;" d="M298.118,302.109h-84.236V7.726h12.598c39.564,0,71.638,32.074,71.638,71.638V302.109z"/>
<path style="opacity:0.19;enable-background:new    ;" d="M261.764,120.336c0-33.502-19.559-62.437-47.881-76.009v257.781h45.489
	l2.392-0.008V120.336z"/>
<rect x="213.887" y="377.906" style="opacity:0.32;fill:#564A3D;enable-background:new    ;" width="84.24" height="33.616"/>
<g style="opacity:0.32;">
	<path style="fill:#564A3D;" d="M213.883,445.134v17.023c0,23.164,18.953,42.118,42.118,42.118l0,0
		c23.164,0,42.118-18.953,42.118-42.118v-17.023H213.883z"/>
</g>
<rect x="213.876" y="347.333" style="fill:#564A3D;" width="84.24" height="18.737"/>
<g style="opacity:0.14;">
	<path style="fill:#59575C;" d="M279.408,61.82v240.288h18.71V79.936c0-24.915-12.725-46.849-32.022-59.684
		C274.467,31.977,279.408,46.317,279.408,61.82z"/>
	<path style="fill:#59575C;" d="M323.243,302.705c0.021,0.363,0.056,0.722,0.056,1.09v6.762c0,10.576-8.653,19.229-19.23,19.229
		l-24.662,17.552l0,0v1.196v11.826v33.616v50.638c0,23.166-18.953,42.118-42.118,42.118l0,0l0,0c-2.171,0-4.307-0.167-6.392-0.487
		c-1.391-0.214-2.759-0.496-4.102-0.845c-0.672-0.174-1.337-0.364-1.995-0.57c-1.316-0.412-2.606-0.887-3.865-1.422
		c-0.718-0.305-1.417-0.645-2.113-0.991c0.195,0.366,0.387,0.732,0.592,1.092c1.863,3.259,4.141,6.254,6.774,8.898
		c0.022,0.022,0.042,0.045,0.065,0.068c0.022,0.022,0.045,0.042,0.068,0.065c0.934,0.93,1.91,1.818,2.926,2.659
		c0.52,0.43,1.052,0.848,1.593,1.254c1.98,1.483,4.1,2.787,6.325,3.909c0.814,0.411,1.638,0.805,2.48,1.163
		c1.259,0.535,2.548,1.009,3.865,1.422c0.658,0.206,1.324,0.397,1.995,0.57c1.343,0.348,2.711,0.63,4.102,0.845
		c2.086,0.321,4.22,0.487,6.392,0.487l0,0l0,0c23.164,0,42.118-18.952,42.118-42.118v-50.638v-33.616v-11.826V347.91v-0.008h24.662
		c10.576,0,19.23-8.653,19.23-19.229v-6.762C342.01,311.491,333.606,302.955,323.243,302.705z"/>
</g>
<path d="M322.781,294.383h-16.937V79.365C305.844,35.603,270.242,0,226.48,0h-12.598c-4.267,0-7.726,3.458-7.726,7.726v36.223
	c-0.008,0.177-0.004,0.354,0,0.53v249.904H189.22c-14.863,0-26.955,12.091-26.955,26.954v6.762
	c0,14.863,12.092,26.955,26.955,26.955h16.937v107.102c0,27.484,22.36,49.844,49.844,49.844s49.844-22.36,49.844-49.844V355.056
	h16.937c14.863,0,26.954-12.092,26.954-26.955v-6.762C349.735,306.474,337.644,294.383,322.781,294.383z M226.48,15.451
	c35.241,0,63.912,28.671,63.912,63.913v215.018h-20.903V120.336c0-33.543-18.643-64.687-47.881-80.709V15.451H226.48z
	 M221.608,57.816c20.022,14.198,32.43,37.563,32.43,62.52v174.047h-32.43V57.816z M221.608,419.244h68.785v18.164h-68.785
	L221.608,419.244L221.608,419.244z M290.393,403.793h-68.785v-18.164h68.785V403.793z M256.001,496.549
	c-18.964,0-34.392-15.429-34.392-34.392v-9.296h68.785v9.296C290.393,481.12,274.964,496.549,256.001,496.549z M290.393,370.177
	h-68.785v-15.123h68.785V370.177z M334.284,328.101c0,6.343-5.161,11.504-11.503,11.504H189.22c-6.343,0-11.504-5.161-11.504-11.504
	v-6.762c0-6.342,5.161-11.503,11.504-11.503h24.662h84.236h24.662c6.343,0,11.503,5.161,11.503,11.503L334.284,328.101
	L334.284,328.101z"/>
</svg>