<?xml version="1.0" ?>
<!DOCTYPE svg  PUBLIC '-//W3C//DTD SVG 1.1//EN'  'http://www.w3.org/Graphics/SVG/1.1/DTD/svg11.dtd'>
<!-- Uploaded to: SVG Repo, www.svgrepo.com, Generator: SVG Repo Mixer Tools -->
<svg width="800px" height="800px" viewBox="0 0 512 512" version="1.1" xml:space="preserve" xmlns="http://www.w3.org/2000/svg" xmlns:xlink="http://www.w3.org/1999/xlink">
<g id="_x34_82_x2C__pencil_x2C__education_x2C__pen_x2C__line">
<g>
<path d="M341.05,397.04c-24.569,15.67-53.75,24.75-85.05,24.75s-60.48-9.08-85.05-24.75l46.68-46.68    c11.74,5.189,24.71,8.09,38.37,8.09s26.63-2.9,38.37-8.09L341.05,397.04z" style="fill:#FFD8A8;"/>
<polygon points="148.5,419.49 63.4,459.8 103.71,374.7   " style="fill:#747371;"/>
<polygon points="105.71,388.45 140.527,423.267 148.5,419.49 103.71,374.7 63.4,459.8 74.375,454.601   " style="fill:#5B5A57;"/>
<polygon points="256,311.99 217.63,350.36 170.95,397.04 148.5,419.49 103.71,374.7 125.4,353.01     171.51,306.89 211.21,267.2   " style="fill:#FFC85F;"/>
<polygon points="125.4,366.444 171.51,320.324 211.21,280.635 249.283,318.707 256,311.99 211.21,267.2     171.51,306.89 125.4,353.01 103.71,374.7 110.427,381.417   " style="fill:#FFC85F;"/>
<rect height="63.342" style="fill:#D7DEED;" transform="matrix(0.7071 -0.7071 0.7071 0.7071 56.2503 329.7817)" width="63.342" x="394.539" y="65.319"/>
<polygon points="426.21,66.034 464.083,103.907 471,96.99 426.21,52.2 381.42,96.99 388.337,103.907   " style="fill:#AFB9D2;"/>
<rect height="63.342" style="fill:#D7DEED;" transform="matrix(0.7071 -0.7071 0.7071 0.7071 -43.4551 89.0698)" width="63.342" x="54.119" y="65.319"/>
<polygon points="85.79,66.2 123.58,103.99 130.58,96.99 85.79,52.2 41,96.99 48,103.99   " style="fill:#AFB9D2;"/>
<path d="M160.98,263.43c0,15.67,3.82,30.44,10.53,43.46l-46.11,46.12    c-17.51-25.479-27.76-56.33-27.76-89.58c0-31.3,9.08-60.479,24.75-85.05l46.69,46.68C163.89,236.8,160.98,249.77,160.98,263.43z" style="fill:#FFD8A8;"/>
<g>
<g>
<g>
<path d="M165.41,221.391c-2.184,7.977-3.36,16.368-3.36,25.039c0,0.85,0.016,1.696,0.039,2.541       c1.289-8.379,3.671-16.397,6.992-23.911L165.41,221.391z" style="fill:#EABD8C;"/>
</g>
<g>
<path d="M126.469,336.01c-17.51-25.479-27.76-56.33-27.76-89.58c0-0.536,0.023-1.065,0.029-1.6       c-0.714,6.103-1.098,12.306-1.098,18.6c0,33.25,10.25,64.101,27.76,89.58l46.11-46.12c-1.84-3.569-3.453-7.274-4.839-11.09       L126.469,336.01z" style="fill:#EABD8C;"/>
</g>
</g>
</g>
<g>
<g>
<g>
<path d="M234.501,355.988c-5.847-1.357-11.49-3.249-16.872-5.628l-2.488,2.487       C221.365,354.536,227.84,355.606,234.501,355.988z" style="fill:#EABD8C;"/>
</g>
<g>
<path d="M294.37,350.36c-3.229,1.427-6.554,2.675-9.958,3.743l40.638,40.637       c-24.569,15.67-53.75,24.75-85.05,24.75c-4.963,0-9.866-0.254-14.713-0.7c9.938,1.953,20.203,3,30.713,3       c31.3,0,60.48-9.08,85.05-24.75L294.37,350.36z" style="fill:#EABD8C;"/>
</g>
</g>
</g>
<path d="M389.61,178.38c15.67,24.57,24.75,53.75,24.75,85.05c0,33.25-10.25,64.101-27.761,89.58    l-46.109-46.12c6.71-13.02,10.529-27.79,10.529-43.46c0-13.66-2.909-26.63-8.1-38.37L389.61,178.38z" style="fill:#FFD8A8;"/>
<g>
<g>
<g>
<path d="M386.36,193.32c15.67,24.57,24.75,53.75,24.75,85.05c0,8.963-0.751,17.749-2.183,26.306       c3.54-13.151,5.433-26.977,5.433-41.246c0-31.3-9.08-60.479-24.75-85.05l-46.69,46.68c1.214,2.747,2.298,5.563,3.255,8.437       L386.36,193.32z" style="fill:#EABD8C;"/>
</g>
<g>
<path d="M340.49,306.89l2.186,2.187c1.976-5.773,3.403-11.8,4.238-18.015       C345.238,296.565,343.083,301.859,340.49,306.89z" style="fill:#EABD8C;"/>
</g>
</g>
</g>
<polygon points="426.21,141.78 389.61,178.38 342.92,225.06 300.79,267.2 256,222.41 299.46,178.95     345.57,132.83 381.42,96.99   " style="fill:#FFC85F;"/>
<polygon points="299.46,192.783 345.57,146.663 381.42,110.823 419.293,148.696 426.21,141.78     381.42,96.99 345.57,132.83 299.46,178.95 256,222.41 262.916,229.327   " style="fill:#FFC85F;"/>
<path d="M345.57,132.83l-46.11,46.12c-13.03-6.72-27.79-10.53-43.46-10.53s-30.43,3.81-43.46,10.53    l-46.12-46.12c25.48-17.51,56.33-27.76,89.58-27.76S320.1,115.32,345.57,132.83z" style="fill:#FFD8A8;"/>
<path d="M264.75,114.32c28.575,0,55.373,7.576,78.512,20.819l2.309-2.309    c-25.471-17.51-56.32-27.76-89.57-27.76s-64.1,10.25-89.58,27.76l9.049,9.049C200.891,124.493,231.629,114.32,264.75,114.32z" style="fill:#EABD8C;"/>
<polygon points="408.29,374.7 363.5,419.49 341.05,397.04 294.37,350.36 256,311.99 211.21,267.2     169.08,225.06 122.39,178.38 85.79,141.78 130.58,96.99 166.42,132.83 212.54,178.95 256,222.41 300.79,267.2 340.49,306.89     386.6,353.01   " style="fill:#F7D794;"/>
<polygon points="130.58,110.823 166.42,146.663 212.54,192.783 256,236.243 300.79,281.033 340.49,320.723     386.6,366.843 401.373,381.617 408.29,374.7 386.6,353.01 340.49,306.89 300.79,267.2 256,222.41 212.54,178.95 166.42,132.83     130.58,96.99 85.79,141.78 92.707,148.696   " style="fill:#E2BF7F;"/>
<rect height="20" width="20" x="321" y="56.87"/>
<rect height="20" width="20" x="291" y="56.87"/>
<rect height="20" width="20" x="261" y="56.87"/>
<rect height="20" width="20" x="231" y="56.87"/>
<rect height="20" width="20" x="201" y="56.87"/>
<rect height="20" width="20" x="171" y="56.87"/>
<path d="M386.595,358.01c-0.976,0-1.962-0.285-2.827-0.879c-2.275-1.564-2.853-4.678-1.289-6.953    c17.586-25.589,26.882-55.586,26.882-86.748c0-29.297-8.287-57.777-23.966-82.361c-1.484-2.328-0.801-5.419,1.527-6.904    c2.329-1.484,5.419-0.801,6.904,1.527c16.704,26.193,25.534,56.532,25.534,87.738c0,33.193-9.903,65.149-28.64,92.412    C389.751,357.252,388.187,358.01,386.595,358.01z"/>
<path d="M166.424,137.831c-1.591,0-3.156-0.758-4.125-2.168c-1.564-2.276-0.987-5.389,1.289-6.953    c27.264-18.736,59.22-28.64,92.412-28.64c33.196,0,65.148,9.903,92.403,28.64c2.275,1.564,2.852,4.677,1.287,6.953    c-1.563,2.274-4.673,2.854-6.953,1.288c-25.579-17.585-55.573-26.88-86.737-26.88c-31.162,0-61.159,9.295-86.748,26.881    C168.387,137.545,167.4,137.831,166.424,137.831z"/>
<path d="M256,426.79c-31.207,0-61.546-8.83-87.738-25.534c-2.328-1.485-3.012-4.576-1.527-6.904    c1.486-2.328,4.577-3.012,6.904-1.527c24.583,15.679,53.063,23.966,82.361,23.966c29.299,0,57.778-8.287,82.361-23.966    c2.328-1.485,5.419-0.801,6.904,1.527c1.484,2.328,0.801,5.419-1.527,6.904C317.547,417.96,287.207,426.79,256,426.79z"/>
<path d="M125.404,358.01c-1.591,0-3.156-0.758-4.125-2.168c-18.736-27.264-28.639-59.22-28.639-92.412    c0-31.206,8.83-61.545,25.534-87.738c1.486-2.328,4.577-3.011,6.904-1.527c2.328,1.485,3.012,4.576,1.527,6.904    c-15.679,24.584-23.966,53.064-23.966,82.361c0,31.162,9.295,61.159,26.88,86.748c1.564,2.276,0.987,5.389-1.289,6.953    C127.367,357.725,126.38,358.01,125.404,358.01z"/>
<path d="M171.514,311.891c-1.812,0-3.561-0.988-4.448-2.71c-7.356-14.272-11.085-29.666-11.085-45.751    c0-14.003,2.869-27.592,8.527-40.391c1.117-2.526,4.07-3.668,6.595-2.552c2.526,1.117,3.668,4.069,2.552,6.595    c-5.092,11.518-7.673,23.747-7.673,36.348c0,14.477,3.356,28.327,9.974,41.169c1.265,2.455,0.301,5.471-2.154,6.735    C173.068,311.712,172.285,311.891,171.514,311.891z"/>
<path d="M299.456,183.951c-0.771,0-1.555-0.179-2.288-0.557c-12.833-6.618-26.684-9.974-41.168-9.974    c-14.485,0-28.336,3.356-41.168,9.974c-2.453,1.265-5.47,0.303-6.736-2.152c-1.266-2.454-0.302-5.47,2.152-6.736    c14.264-7.356,29.657-11.086,45.752-11.086c16.095,0,31.488,3.73,45.752,11.086c2.454,1.266,3.418,4.281,2.151,6.736    C303.016,182.963,301.268,183.951,299.456,183.951z"/>
<path d="M340.486,311.891c-0.771,0-1.554-0.179-2.287-0.557c-2.454-1.265-3.419-4.28-2.153-6.735    c6.618-12.841,9.974-26.692,9.974-41.169c0-12.604-2.581-24.833-7.673-36.348c-1.116-2.526,0.025-5.479,2.552-6.595    c2.528-1.117,5.479,0.026,6.595,2.551c5.657,12.797,8.526,26.387,8.526,40.392c0,16.086-3.729,31.479-11.085,45.751    C344.047,310.902,342.299,311.891,340.486,311.891z"/>
<path d="M256,363.45c-14.017,0-27.606-2.865-40.392-8.517c-2.526-1.116-3.668-4.069-2.552-6.595    c1.117-2.525,4.069-3.666,6.595-2.552c11.503,5.085,23.733,7.663,36.349,7.663c12.616,0,24.846-2.578,36.349-7.663    c2.527-1.113,5.479,0.026,6.595,2.552s-0.026,5.479-2.552,6.595C283.606,360.585,270.017,363.45,256,363.45z"/>
<path d="M256,227.41c-1.28,0-2.559-0.488-3.536-1.464c-1.953-1.953-1.953-5.119,0-7.071l125.42-125.42    c1.953-1.952,5.118-1.952,7.071,0.001c1.952,1.953,1.952,5.119-0.001,7.071l-125.42,125.419    C258.56,226.922,257.279,227.41,256,227.41z"/>
<path d="M300.79,272.2c-1.279,0-2.559-0.488-3.535-1.464c-1.953-1.952-1.953-5.118-0.001-7.071l125.421-125.421    c1.951-1.952,5.119-1.952,7.07,0c1.953,1.953,1.953,5.119,0,7.071l-125.419,125.42C303.35,271.712,302.069,272.2,300.79,272.2z"/>
<path d="M148.5,424.49c-1.28,0-2.559-0.488-3.536-1.465c-1.953-1.952-1.953-5.118,0-7.07l107.5-107.5    c1.953-1.953,5.12-1.953,7.071,0c1.953,1.952,1.953,5.118,0,7.07l-107.5,107.5C151.059,424.002,149.78,424.49,148.5,424.49z"/>
<path d="M103.71,379.7c-1.28,0-2.559-0.488-3.536-1.465c-1.953-1.952-1.953-5.118,0-7.07l107.5-107.501    c1.953-1.951,5.119-1.951,7.071,0.001c1.952,1.953,1.952,5.119-0.001,7.071l-107.5,107.499    C106.269,379.212,104.99,379.7,103.71,379.7z"/>
<path d="M63.401,464.8c-1.298,0-2.578-0.506-3.537-1.465c-1.494-1.494-1.888-3.766-0.983-5.676l40.31-85.1    c0.696-1.47,2.063-2.509,3.665-2.786c1.604-0.277,3.239,0.241,4.389,1.392l44.79,44.79c1.149,1.149,1.668,2.786,1.391,4.389    c-0.278,1.602-1.317,2.969-2.787,3.665l-85.1,40.31C64.856,464.643,64.126,464.8,63.401,464.8z M105.191,383.253l-31.28,66.035    l66.036-31.279L105.191,383.253z"/>
<path d="M426.21,146.78c-1.279,0-2.56-0.488-3.535-1.464l-44.79-44.79c-0.938-0.938-1.465-2.209-1.465-3.536    s0.526-2.598,1.465-3.536l44.79-44.79c1.951-1.952,5.119-1.952,7.07,0l44.79,44.79c0.938,0.938,1.465,2.209,1.465,3.536    s-0.526,2.598-1.465,3.536l-44.79,44.79C428.77,146.292,427.489,146.78,426.21,146.78z M388.491,96.99l37.719,37.719    l37.719-37.719L426.21,59.271L388.491,96.99z"/>
<path d="M408.29,379.7c-1.279,0-2.56-0.488-3.535-1.465l-277.71-277.709c-1.953-1.953-1.953-5.119,0-7.071    c1.953-1.952,5.118-1.952,7.071,0l277.709,277.71c1.953,1.952,1.953,5.118,0,7.07C410.85,379.212,409.569,379.7,408.29,379.7z"/>
<path d="M363.5,424.49c-1.279,0-2.56-0.488-3.535-1.465l-277.71-277.71c-1.953-1.953-1.953-5.119,0-7.071    c1.953-1.952,5.118-1.952,7.071,0l277.709,277.711c1.953,1.952,1.953,5.118,0,7.07C366.06,424.002,364.779,424.49,363.5,424.49z"/>
<path d="M85.79,146.78c-1.28,0-2.559-0.488-3.536-1.464l-44.79-44.79C36.527,99.588,36,98.316,36,96.99s0.527-2.598,1.464-3.536    l44.79-44.79c1.953-1.952,5.118-1.952,7.071,0l44.79,44.79c0.938,0.938,1.464,2.209,1.464,3.536s-0.527,2.598-1.464,3.536    l-44.79,44.79C88.349,146.292,87.07,146.78,85.79,146.78z M48.071,96.99l37.719,37.719l37.719-37.719L85.79,59.271L48.071,96.99z"/>
<polygon points="409.529,375.908 449.839,461.009 364.739,420.698   " style="fill:#747371;"/>
<polygon points="406.196,390.908 436.381,454.634 449.839,461.009 409.529,375.908 364.739,420.698     372.656,424.448   " style="fill:#5B5A57;"/>
<path d="M454.839,461.007c0,1.299-0.506,2.578-1.465,3.537c-1.494,1.494-3.766,1.888-5.676,0.982l-85.1-40.31    c-1.47-0.696-2.509-2.063-2.786-3.665c-0.277-1.604,0.241-3.239,1.392-4.389l44.79-44.791c1.149-1.148,2.786-1.668,4.389-1.391    c1.602,0.277,2.969,1.316,3.665,2.787l40.31,85.1C454.682,459.552,454.839,460.282,454.839,461.007z M373.292,419.217    l66.035,31.28l-31.279-66.036L373.292,419.217z"/>
</g>
</g>
<g id="Layer_1"/>
</svg>