<?xml version="1.0" ?>
<!-- Uploaded to: SVG Repo, www.svgrepo.com, Generator: SVG Repo Mixer Tools -->
<svg width="800px" height="800px" viewBox="0 0 64 64" version="1.1" xml:space="preserve" xmlns="http://www.w3.org/2000/svg" xmlns:xlink="http://www.w3.org/1999/xlink">
<style type="text/css">
	.st0{fill:#FFEEA9;}
	.st1{fill:#D32436;}
	.st2{fill:#8DD1D3;}
	.st3{fill:#330D00;}
	.st4{fill:none;stroke:#330D00;stroke-linecap:round;stroke-linejoin:round;stroke-miterlimit:10;}
</style>
<g id="_x34_0-Id_Card"/>
<g id="_x33_9-Formula"/>
<g id="_x33_8-Elbow"/>
<g id="_x33_7-Diploma"/>
<g id="_x33_6-Laptop"/>
<g id="_x33_5-Brush"/>
<g id="_x33_4-Baseball"/>
<g id="_x33_3-Student"/>
<g id="_x33_2-Highlighter"/>
<g id="_x33_1-Ruler"/>
<g id="_x33_0-Caliper"/>
<g id="_x32_9-Ruler_Elbow"/>
<g id="_x32_8-Abacus"/>
<g id="_x32_7-Id_Card"/>
<g id="_x32_6-Eraser"/>
<g id="_x32_5-Pencil"/>
<g id="_x32_4-Ink"/>
<g id="_x32_3-Graduation_Cap"/>
<g id="_x32_2-_Sling_Bag"/>
<g id="_x32_1-Rugby_Ball"/>
<g id="_x32_0-Clock"/>
<g id="_x31_9-Certificate"/>
<g id="_x31_8-Idea"/>
<g id="_x31_7-Bookshelf"/>
<g id="_x31_6-Formula"/>
<g id="_x31_5-Bell"/>
<g id="_x31_4-Magnifying_Glass"/>
<g id="_x31_3-Calculator"/>
<g id="_x31_2-Eyeglasses"/>
<g id="_x31_1-Bus"/>
<g id="_x31_0-Trophy"/>
<g id="_x39_-Globe">
<g>
<g>
<path class="st1" d="M57.4,24.3c0,6.1-2.3,11.6-6.2,15.8c-4.3,4.6-10.3,7.5-17.1,7.5s-12.8-2.9-17.1-7.5     c-3.8-4.2-6.2-9.7-6.2-15.8c0-6.1,2.3-11.6,6.2-15.8C21.3,4,27.4,1.1,34.1,1.1S47,4,51.2,8.6C55,12.7,57.4,18.3,57.4,24.3z"/>
</g>
<g>
<polygon class="st0" points="43,58.5 25.3,58.5 22.4,62.9 45.9,62.9    "/>
</g>
<g>
<polyline class="st2" points="36.3,51.9 36.3,58.5 31.9,58.5 31.9,51.9    "/>
</g>
<g>
<g>
<path class="st3" d="M9.8,24.4c0,6.1,2.3,12,6.5,16.5c4.6,5,11.1,7.8,17.9,7.8s13.3-2.9,17.9-7.8c4.2-4.5,6.5-10.4,6.5-16.5      s-2.3-12-6.5-16.5C47.4,2.9,40.9,0,34.1,0S20.9,2.9,16.3,7.8C12.1,12.3,9.8,18.2,9.8,24.4z M19.9,7.4c0.3-0.3,0.6-0.5,0.9-0.7      c0.3-0.2,0.5-0.4,0.8-0.6c0.3-0.2,0.7-0.4,1-0.6c0.3-0.2,0.6-0.4,0.9-0.5c0.4-0.2,0.7-0.4,1.1-0.5c0.3-0.1,0.6-0.3,0.9-0.4      c0.3-0.1,0.5-0.2,0.8-0.3C25.1,4.9,24,6.3,23.1,8c-0.5,1-1,2-1.4,3c-1.1-0.7-2.1-1.6-3.1-2.5c0.2-0.2,0.3-0.3,0.5-0.5      C19.4,7.9,19.6,7.7,19.9,7.4z M43.7,4.4c0.4,0.2,0.7,0.3,1.1,0.5c0.3,0.2,0.6,0.3,0.9,0.5c0.3,0.2,0.7,0.4,1,0.6      c0.3,0.2,0.6,0.4,0.8,0.6c0.3,0.2,0.6,0.5,0.9,0.7c0.3,0.2,0.5,0.5,0.8,0.7c0.2,0.1,0.3,0.3,0.5,0.5c-0.9,0.9-2,1.8-3.1,2.5      C46.2,10,45.7,9,45.2,8c-0.9-1.7-2-3.2-3.2-4.4c0.3,0.1,0.5,0.2,0.8,0.3C43.1,4.1,43.4,4.3,43.7,4.4z M51.1,38.5      c-1.2-1.1-2.4-2.1-3.8-3c1-3.1,1.5-6.5,1.6-10h7.3C56,30.3,54.2,34.8,51.1,38.5z M48.4,41.2c-0.3,0.3-0.6,0.5-1,0.8      c-0.3,0.2-0.5,0.4-0.8,0.6c-0.3,0.2-0.7,0.4-1,0.7c-0.3,0.2-0.6,0.3-0.9,0.5c-0.4,0.2-0.7,0.4-1.1,0.5c-0.3,0.1-0.6,0.3-0.9,0.4      c-0.3,0.1-0.5,0.2-0.8,0.3c1.2-1.2,2.3-2.6,3.2-4.4c0.5-1,1-2,1.4-3c1.1,0.7,2.1,1.6,3.1,2.5c-0.2,0.2-0.3,0.3-0.5,0.5      C48.9,40.8,48.7,41,48.4,41.2z M24.6,44.3c-0.4-0.2-0.7-0.4-1.1-0.5c-0.3-0.2-0.6-0.3-0.9-0.5c-0.3-0.2-0.7-0.4-1-0.6      c-0.3-0.2-0.6-0.4-0.8-0.6c-0.3-0.2-0.6-0.5-0.9-0.7c-0.3-0.2-0.5-0.5-0.8-0.7c-0.2-0.1-0.3-0.3-0.5-0.5c0.9-0.9,2-1.8,3.1-2.5      c0.4,1.1,0.9,2.1,1.4,3c0.9,1.7,2,3.2,3.2,4.4c-0.3-0.1-0.5-0.2-0.8-0.3C25.2,44.6,24.9,44.4,24.6,44.3z M19.3,25.5      c0.1,3.5,0.6,6.9,1.6,10c-1.4,0.9-2.6,1.9-3.8,3c-3.1-3.7-4.9-8.3-5.1-13.1H19.3z M35.2,33.8c3.3,0.2,6.5,1.1,9.4,2.6      c-0.4,1.1-0.9,2.2-1.4,3.2c-2.1,3.9-5,6.3-8,6.8V33.8z M35.2,31.6v-6.2h11.5c-0.1,3.1-0.6,6.1-1.4,8.9      C42.2,32.7,38.8,31.8,35.2,31.6z M35.2,23.2v-6.2c3.5-0.2,7-1.1,10.1-2.7c0.8,2.8,1.3,5.7,1.4,8.9H35.2z M35.2,14.9V2.3      c3,0.5,5.9,2.9,8,6.8c0.5,1,1,2,1.4,3.2C41.8,13.8,38.6,14.7,35.2,14.9z M33,14.9c-3.3-0.2-6.5-1.1-9.4-2.6      c0.4-1.1,0.9-2.2,1.4-3.2c2.1-3.9,5-6.3,8-6.8V14.9z M33,17.1v6.2H21.6c0.1-3.1,0.6-6.1,1.4-8.9C26.1,16,29.5,16.9,33,17.1z       M33,25.5v6.2c-3.5,0.2-7,1.1-10.1,2.7c-0.8-2.7-1.3-5.7-1.4-8.9H33z M33,33.8v12.6c-3-0.5-5.9-2.9-8-6.8c-0.5-1-1-2-1.4-3.2      C26.5,34.9,29.7,34,33,33.8z M48.9,23.2c-0.1-3.5-0.6-6.9-1.6-10c1.4-0.9,2.6-1.9,3.8-3c3.1,3.7,4.9,8.3,5.1,13.1H48.9z       M19.3,23.2H12c0.2-4.8,2-9.4,5.1-13.1c1.2,1.1,2.4,2.1,3.8,3C20,16.3,19.4,19.7,19.3,23.2z"/>
</g>
<g>
<path class="st3" d="M54.4,43l-0.8-0.8c-0.4-0.4-1.1-0.4-1.6,0c-0.4,0.4-0.4,1.1,0,1.5c-4.9,4.5-11.2,7-17.9,7      c-14.6,0-26.4-11.9-26.4-26.4c0-6.7,2.5-13,7-17.9c0.4,0.3,1,0.2,1.4-0.1c0.4-0.4,0.4-1.1,0-1.6l-0.6-0.6c0,0,0,0-0.1,0      l-1.3-1.4c-0.4-0.4-1.1-0.4-1.6,0c-0.4,0.4-0.4,1.1,0,1.6l0.7,0.7c-4.9,5.3-7.6,12.1-7.6,19.4c0,14.7,11.1,26.8,25.3,28.4v4.6      h-5.5c-0.4,0-0.7,0.2-0.9,0.5l-2.9,4.4c-0.2,0.3-0.2,0.8-0.1,1.1c0.2,0.4,0.6,0.6,1,0.6h23.5c0.4,0,0.8-0.2,1-0.6      s0.2-0.8-0.1-1.1l-2.9-4.4c-0.2-0.3-0.5-0.5-0.9-0.5h-5.5v-4.6c6-0.7,11.6-3.3,16.1-7.4l0.6,0.6c0.2,0.2,0.5,0.3,0.8,0.3      c0.3,0,0.6-0.1,0.8-0.3c0.4-0.4,0.4-1.1,0-1.6L54.4,43z M43.8,61.8H24.4l1.5-2.2h6h4.4h6L43.8,61.8z M35.2,57.4H33v-4.5      c0.4,0,0.7,0.1,1.1,0.1c0.4,0,0.7,0,1.1-0.1V57.4z"/>
</g>
</g>
</g>
</g>
<g id="_x38_-Basket_Ball"/>
<g id="_x37_-Pen"/>
<g id="_x36_-Board"/>
<g id="_x35_-Bag"/>
<g id="_x34_-Exam"/>
<g id="_x33_-Book"/>
<g id="_x32_-Ruler"/>
<g id="_x31_-Building"/>
</svg>