<svg version="1.1" id="Layer_1" xmlns="http://www.w3.org/2000/svg" xmlns:xlink="http://www.w3.org/1999/xlink" viewBox="0 0 512 512" xml:space="preserve" fill="currentColor" width="16px" height="16px"><path style="fill:#E0E0E3;" d="M314.866,201.838V36.653H197.135v164.976c0,14.279-7.089,27.747-19.117,35.441	c-40.419,25.852-67.161,71.207-66.941,122.797c0.34,79.96,66.382,145.055,146.339,144.29	c79.388-0.76,143.509-65.351,143.509-144.919c0-51.284-26.641-96.341-66.835-122.099	C322.077,229.44,314.866,216.106,314.866,201.838z"></path><rect x="197.131" y="36.655" style="fill:#D2D1D3;" width="117.729" height="28.642"></rect><path style="fill:#E0E0E3;" d="M319.064,36.653H192.936c-7.74,0-14.014-6.275-14.014-14.014v-0.788	c0-7.74,6.275-14.014,14.014-14.014h126.128c7.74,0,14.014,6.275,14.014,14.014v0.788C333.078,30.378,326.803,36.653,319.064,36.653	z"></path><path style="fill:#00ABE7;" d="M366.712,361.275c0,15.024-2.999,29.346-8.423,42.407c-17.223,41.524-59,70.296-107.222,68.207	c-40.207-1.752-75.116-25.281-92.998-59.112c-7.105-13.383-11.52-28.378-12.543-44.271c-0.771-11.926,0.378-23.46,3.139-34.363	c0.701-2.775,2.957-4.863,5.759-5.396c17.028-3.294,37.852-10.524,60.933-25.211c61.663-39.24,93.194,31.995,128.931,6.349	c0.028-0.014,0.042-0.042,0.07-0.056c3.728-2.677,8.969-1.528,11.002,2.592C362.621,327.15,366.712,343.743,366.712,361.275z"></path><path style="fill:#009AE5;" d="M358.289,403.682c-17.223,41.524-59,70.296-107.222,68.207	c-40.207-1.752-75.116-25.281-92.998-59.112c16.313-3.587,35.835-10.805,57.29-24.455c61.663-39.24,93.194,31.995,128.931,6.349	c0.028-0.014,0.042-0.042,0.07-0.056c3.728-2.677,8.969-1.528,11.002,2.592C356.412,399.323,357.379,401.482,358.289,403.682z"></path><path d="M367.954,255.309c-2.946-3.171-7.905-3.353-11.076-0.409s-3.353,7.904-0.409,11.076	c23.615,25.422,36.618,58.544,36.618,93.261c0,74.871-60.897,136.366-135.749,137.082c-0.444,0.004-0.888,0.006-1.331,0.006	c-36.092,0-70.187-14.048-96.138-39.643c-26.257-25.898-40.803-60.293-40.958-96.85c-0.201-47.246,23.474-90.672,63.327-116.162	c14.234-9.104,22.732-24.821,22.732-42.043V44.49h102.057v157.348c0,17.074,8.536,32.737,22.833,41.898	c3.642,2.336,8.492,1.275,10.826-2.37c2.335-3.644,1.275-8.491-2.37-10.826c-9.778-6.267-15.616-16.996-15.616-28.702V44.162	c10.319-1.741,18.213-10.716,18.213-21.523v-0.788C340.915,9.802,331.113,0,319.064,0h-76.728c-4.328,0-7.837,3.509-7.837,7.837	s3.509,7.837,7.837,7.837h76.728c3.406,0,6.177,2.771,6.177,6.177v0.788c0,3.406-2.771,6.177-6.177,6.177H192.936	c-3.406,0-6.177-2.771-6.177-6.177v-0.788c0-3.406,2.771-6.177,6.177-6.177h18.808c4.328,0,7.837-3.509,7.837-7.837	S216.073,0,211.745,0h-18.808c-12.049,0-21.851,9.802-21.851,21.851v0.788c0,10.806,7.894,19.782,18.213,21.523v157.467	c0,11.849-5.795,22.629-15.503,28.838c-44.403,28.4-70.779,76.786-70.556,129.433c0.173,40.759,16.377,79.094,45.625,107.942	C177.772,496.353,215.768,512,256.004,512c0.495,0,0.991-0.002,1.486-0.007c40.492-0.388,78.498-16.449,107.016-45.226	c28.538-28.796,44.256-66.984,44.256-107.529C408.762,320.55,394.269,283.641,367.954,255.309z"></path><path d="M339.719,303.518c-11.342,8.141-21.923,3.492-39.647-5.426c-22.086-11.114-49.573-24.946-86.715-2.534	c-3.705,2.236-4.897,7.053-2.66,10.758c2.237,3.705,7.053,4.898,10.758,2.66c29.729-17.94,51.001-7.236,71.572,3.116	c17.746,8.929,36.09,18.162,55.575,4.342c6.817,14.036,10.273,29.121,10.273,44.845c0,28.326-11.271,54.718-31.738,74.315	c-20.454,19.585-47.351,29.687-75.732,28.46c-52.523-2.281-94.68-43.575-98.065-96.054c-0.688-10.668,0.266-21.303,2.836-31.613	c12.186-2.379,24.551-6.356,36.757-11.822c3.95-1.769,5.719-6.405,3.949-10.356c-1.769-3.951-6.403-5.719-10.355-3.949	c-11.197,5.014-22.499,8.644-33.588,10.789c-5.782,1.118-10.445,5.507-11.879,11.181c-3.03,11.995-4.161,24.369-3.36,36.778	c1.872,29.043,14.452,56.349,35.42,76.89c20.971,20.544,48.532,32.552,77.606,33.815c1.784,0.077,3.562,0.116,5.335,0.116	c30.718,0,59.631-11.576,81.916-32.914c23.583-22.581,36.571-52.994,36.571-85.636c0-18.355-4.091-35.961-12.158-52.329	c-1.959-3.973-5.554-6.868-9.863-7.943c-4.399-1.097-9.045-0.199-12.694,2.43C339.82,303.447,339.733,303.508,339.719,303.518z"></path><path d="M231.475,215.376h21.722c4.328,0,7.837-3.509,7.837-7.837c0-4.328-3.509-7.837-7.837-7.837h-21.722	c-4.328,0-7.837,3.509-7.837,7.837C223.639,211.868,227.147,215.376,231.475,215.376z"></path><path d="M231.475,181.041h21.722c4.328,0,7.837-3.509,7.837-7.837s-3.509-7.837-7.837-7.837h-21.722	c-4.328,0-7.837,3.509-7.837,7.837S227.147,181.041,231.475,181.041z"></path><path d="M231.475,146.706h21.722c4.328,0,7.837-3.509,7.837-7.837c0-4.328-3.509-7.837-7.837-7.837h-21.722	c-4.328,0-7.837,3.509-7.837,7.837C223.639,143.197,227.147,146.706,231.475,146.706z"></path><path d="M231.475,112.371h21.722c4.328,0,7.837-3.509,7.837-7.837s-3.509-7.837-7.837-7.837h-21.722	c-4.328,0-7.837,3.509-7.837,7.837S227.147,112.371,231.475,112.371z"></path></svg>