<?xml version="1.0" encoding="iso-8859-1"?>
<!-- Uploaded to: SVG Repo, www.svgrepo.com, Generator: SVG Repo Mixer Tools -->
<svg version="1.1" id="Layer_1" xmlns="http://www.w3.org/2000/svg" xmlns:xlink="http://www.w3.org/1999/xlink" 
	 viewBox="0 0 512 512" xml:space="preserve">
<path style="fill:#E4EAF6;" d="M416,488c0,8.8-7.2,16-16,16H112c-8.8,0-16-7.2-16-16V24c0-8.8,7.2-16,16-16h288c8.8,0,16,7.2,16,16
	V488z"/>
<g>
	<path style="fill:#D7DEED;" d="M96,80l29.82,11.928c6.148,2.459,10.18,8.414,10.18,15.037v194.071
		c0,6.622-4.032,12.577-10.18,15.037L96,328V80z"/>
	<path style="fill:#D7DEED;" d="M416,80l-29.82,11.928c-6.148,2.459-10.18,8.414-10.18,15.037v194.071
		c0,6.622,4.032,12.577,10.18,15.037L416,328V80z"/>
</g>
<g>
	<rect x="160" y="96" style="fill:#FF6464;" width="192" height="32"/>
	<rect x="216" y="328" style="fill:#FF6464;" width="80" height="32"/>
	<rect x="152" y="352" style="fill:#FF6464;" width="32" height="32"/>
	<rect x="328" y="352" style="fill:#FF6464;" width="32" height="32"/>
</g>
<path d="M424,327.837V80.163c0-0.01,0-0.02,0-0.029V24c0-13.234-10.766-24-24-24H112C98.766,0,88,10.766,88,24v56.133
	c0,0.01,0,0.02,0,0.029v247.675c0,0.01,0,0.02,0,0.03V488c0,13.234,10.766,24,24,24h288c13.234,0,24-10.766,24-24V327.867
	C424,327.857,424,327.847,424,327.837z M384,106.964c0-3.371,2.022-6.357,5.151-7.609L408,91.816v224.368l-18.849-7.539
	c-3.129-1.252-5.151-4.238-5.151-7.609V106.964z M104,91.816l18.849,7.539c3.129,1.252,5.151,4.238,5.151,7.609v194.071
	c0,3.371-2.022,6.357-5.151,7.609L104,316.184V91.816z M400,496H112c-4.411,0-8-3.589-8-8v-56h256c4.418,0,8-3.582,8-8s-3.582-8-8-8
	H104v-82.584l24.791-9.916C138.03,319.804,144,310.986,144,301.036V248h176c4.418,0,8-3.581,8-8s-3.582-8-8-8H144V106.964
	c0-9.951-5.97-18.769-15.209-22.464L104,74.584V24c0-4.411,3.589-8,8-8h72v48c0,4.419,3.581,8,8,8s8-3.581,8-8V16h16v48
	c0,4.419,3.581,8,8,8s8-3.581,8-8V16h16v48c0,4.419,3.581,8,8,8c4.418,0,8-3.581,8-8V16h16v48c0,4.419,3.582,8,8,8s8-3.581,8-8V16
	h16v48c0,4.419,3.582,8,8,8s8-3.581,8-8V16h72c4.411,0,8,3.589,8,8v50.584L383.209,84.5C373.97,88.196,368,97.014,368,106.964V232
	h-16c-4.418,0-8,3.581-8,8s3.582,8,8,8h16v53.036c0,9.951,5.97,18.769,15.209,22.464L408,333.416V416h-16c-4.418,0-8,3.582-8,8
	s3.582,8,8,8h16v56C408,492.411,404.411,496,400,496z M160,136h192c4.418,0,8-3.581,8-8V96c0-4.419-3.582-8-8-8H160
	c-4.419,0-8,3.581-8,8v32C152,132.419,155.581,136,160,136z M168,104h176v16H168V104z M296,320h-32v-40c0-4.418-3.582-8-8-8
	c-4.419,0-8,3.582-8,8v40h-32c-4.419,0-8,3.582-8,8v32c0,4.418,3.581,8,8,8h80c4.418,0,8-3.582,8-8v-32
	C304,323.582,300.418,320,296,320z M288,352h-64v-16h64V352z M184,344h-32c-4.419,0-8,3.582-8,8v32c0,4.418,3.581,8,8,8h32
	c4.419,0,8-3.582,8-8v-32C192,347.582,188.419,344,184,344z M176,376h-16v-16h16V376z M368,352c0-4.418-3.582-8-8-8h-32
	c-4.418,0-8,3.582-8,8v32c0,4.418,3.582,8,8,8h32c4.418,0,8-3.582,8-8V352z M352,376h-16v-16h16V376z M352,160H160
	c-4.419,0-8-3.581-8-8s3.581-8,8-8h192c4.418,0,8,3.581,8,8S356.418,160,352,160z M392,464c0,4.418-3.582,8-8,8H128
	c-4.419,0-8-3.582-8-8s3.581-8,8-8h256C388.418,456,392,459.582,392,464z"/>
</svg>