<?xml version="1.0" ?>
<!DOCTYPE svg  PUBLIC '-//W3C//DTD SVG 1.1//EN'  'http://www.w3.org/Graphics/SVG/1.1/DTD/svg11.dtd'>
<!-- Uploaded to: SVG Repo, www.svgrepo.com, Generator: SVG Repo Mixer Tools -->
<svg fill="#000000" width="800px" height="800px" viewBox="-1.5 0 30 30" style="fill-rule:evenodd;clip-rule:evenodd;stroke-linejoin:round;stroke-miterlimit:2;" version="1.1" xml:space="preserve" xmlns="http://www.w3.org/2000/svg" xmlns:serif="http://www.serif.com/" xmlns:xlink="http://www.w3.org/1999/xlink">
<g transform="matrix(1,0,0,1,-126,-5)">
<g id="Bitgem-digital-future-system-security-crypto-sign-symbol">
<g transform="matrix(1,0,0,1,0,-91)">
<rect height="1" width="1.001" x="139" y="125"/>
</g>
<g transform="matrix(1,0,0,1,0,-93)">
<rect height="1" width="1" x="140" y="126"/>
</g>
<g transform="matrix(1,0,0,1,0,-93)">
<rect height="1" style="fill:white;" width="1.001" x="139" y="126"/>
</g>
<g transform="matrix(1,0,0,1,0,-93)">
<rect height="1" width="1" x="138" y="126"/>
</g>
<g transform="matrix(1,0,0,1,0,-95)">
<rect height="1" width="1" x="152" y="127"/>
</g>
<g transform="matrix(1,0,0,1,0,-95)">
<rect height="1" width="1" x="150" y="127"/>
</g>
<g transform="matrix(1,0,0,1,0,-95)">
<rect height="1" width="1" x="141" y="127"/>
</g>
<g transform="matrix(1,0,0,1,0,-95)">
<rect height="1" style="fill:rgb(99,155,255);" width="1" x="140" y="127"/>
</g>
<g transform="matrix(1,0,0,1,0,-95)">
<rect height="1" style="fill:white;" width="1.001" x="139" y="127"/>
</g>
<g transform="matrix(1,0,0,1,0,-95)">
<rect height="1" style="fill:rgb(91,110,225);" width="1" x="138" y="127"/>
</g>
<g transform="matrix(1,0,0,1,0,-95)">
<rect height="1" width="1" x="137" y="127"/>
</g>
<g transform="matrix(1,0,0,1,0,-95)">
<rect height="1" width="1" x="127" y="127"/>
</g>
<g transform="matrix(1,0,0,1,0,-97)">
<rect height="1" width="1" x="151" y="128"/>
</g>
<g transform="matrix(1,0,0,1,0,-97)">
<rect height="1" width="1" x="141" y="128"/>
</g>
<g transform="matrix(1,0,0,1,0,-97)">
<rect height="1" style="fill:rgb(99,155,255);" width="1" x="140" y="128"/>
</g>
<g transform="matrix(1,0,0,1,0,-97)">
<rect height="1" style="fill:white;" width="1.001" x="139" y="128"/>
</g>
<g transform="matrix(1,0,0,1,0,-97)">
<rect height="1" style="fill:rgb(91,110,225);" width="1" x="138" y="128"/>
</g>
<g transform="matrix(1,0,0,1,0,-97)">
<rect height="1" width="1" x="137" y="128"/>
</g>
<g transform="matrix(1,0,0,1,0,-97)">
<rect height="1" width="1" x="128" y="128"/>
</g>
<g transform="matrix(1,0,0,1,0,-97)">
<rect height="1" width="1" x="126" y="128"/>
</g>
<g transform="matrix(1,0,0,1,0,-99)">
<rect height="1" width="1" x="152" y="129"/>
</g>
<g transform="matrix(1,0,0,1,0,-99)">
<rect height="1" width="1" x="150" y="129"/>
</g>
<g transform="matrix(1,0,0,1,0,-99)">
<rect height="1" width="1" x="142" y="129"/>
</g>
<g transform="matrix(1,0,0,1,0,-99)">
<rect height="1" style="fill:rgb(99,155,255);" width="1" x="141" y="129"/>
</g>
<g transform="matrix(1,0,0,1,0,-99)">
<rect height="1" style="fill:rgb(99,155,255);" width="1" x="140" y="129"/>
</g>
<g transform="matrix(1,0,0,1,0,-99)">
<rect height="1" style="fill:white;" width="1.001" x="139" y="129"/>
</g>
<g transform="matrix(1,0,0,1,0,-99)">
<rect height="1" style="fill:rgb(91,110,225);" width="1" x="138" y="129"/>
</g>
<g transform="matrix(1,0,0,1,0,-99)">
<rect height="1" style="fill:rgb(91,110,225);" width="1" x="137" y="129"/>
</g>
<g transform="matrix(1,0,0,1,0,-99)">
<rect height="1" width="1" x="136" y="129"/>
</g>
<g transform="matrix(1,0,0,1,0,-99)">
<rect height="1" width="1" x="127" y="129"/>
</g>
<g transform="matrix(1,0,0,1,0,-101.001)">
<rect height="1.001" width="1" x="142" y="130"/>
</g>
<g transform="matrix(1,0,0,1,0,-101.001)">
<rect height="1.001" style="fill:rgb(99,155,255);" width="1" x="141" y="130"/>
</g>
<g transform="matrix(1,0,0,1,0,-101.001)">
<rect height="1.001" style="fill:rgb(99,155,255);" width="1" x="140" y="130"/>
</g>
<g transform="matrix(1,0,0,1,0,-101.001)">
<rect height="1.001" style="fill:white;" width="1.001" x="139" y="130"/>
</g>
<g transform="matrix(1,0,0,1,0,-101.001)">
<rect height="1.001" style="fill:rgb(91,110,225);" width="1" x="138" y="130"/>
</g>
<g transform="matrix(1,0,0,1,0,-101.001)">
<rect height="1.001" style="fill:rgb(91,110,225);" width="1" x="137" y="130"/>
</g>
<g transform="matrix(1,0,0,1,0,-101.001)">
<rect height="1.001" width="1" x="136" y="130"/>
</g>
<g transform="matrix(1,0,0,1,0,-103)">
<rect height="1" width="1" x="143" y="131"/>
</g>
<g transform="matrix(1,0,0,1,0,-103)">
<rect height="1" style="fill:rgb(99,155,255);" width="1" x="142" y="131"/>
</g>
<g transform="matrix(1,0,0,1,0,-103)">
<rect height="1" style="fill:rgb(99,155,255);" width="1" x="141" y="131"/>
</g>
<g transform="matrix(1,0,0,1,0,-103)">
<rect height="1" style="fill:rgb(99,155,255);" width="1" x="140" y="131"/>
</g>
<g transform="matrix(1,0,0,1,0,-103)">
<rect height="1" style="fill:white;" width="1.001" x="139" y="131"/>
</g>
<g transform="matrix(1,0,0,1,0,-103)">
<rect height="1" style="fill:rgb(91,110,225);" width="1" x="138" y="131"/>
</g>
<g transform="matrix(1,0,0,1,0,-103)">
<rect height="1" style="fill:rgb(91,110,225);" width="1" x="137" y="131"/>
</g>
<g transform="matrix(1,0,0,1,0,-103)">
<rect height="1" style="fill:rgb(91,110,225);" width="1" x="136" y="131"/>
</g>
<g transform="matrix(1,0,0,1,0,-103)">
<rect height="1" width="1" x="135" y="131"/>
</g>
<g transform="matrix(1,0,0,1,0,-105)">
<rect height="1" width="1" x="143" y="132"/>
</g>
<g transform="matrix(1,0,0,1,0,-105)">
<rect height="1" style="fill:rgb(99,155,255);" width="1" x="142" y="132"/>
</g>
<g transform="matrix(1,0,0,1,0,-105)">
<rect height="1" style="fill:rgb(99,155,255);" width="1" x="141" y="132"/>
</g>
<g transform="matrix(1,0,0,1,0,-105)">
<rect height="1" style="fill:rgb(99,155,255);" width="1" x="140" y="132"/>
</g>
<g transform="matrix(1,0,0,1,0,-105)">
<rect height="1" style="fill:white;" width="1.001" x="139" y="132"/>
</g>
<g transform="matrix(1,0,0,1,0,-105)">
<rect height="1" style="fill:rgb(91,110,225);" width="1" x="138" y="132"/>
</g>
<g transform="matrix(1,0,0,1,0,-105)">
<rect height="1" style="fill:rgb(91,110,225);" width="1" x="137" y="132"/>
</g>
<g transform="matrix(1,0,0,1,0,-105)">
<rect height="1" style="fill:rgb(91,110,225);" width="1" x="136" y="132"/>
</g>
<g transform="matrix(1,0,0,1,0,-105)">
<rect height="1" width="1" x="135" y="132"/>
</g>
<g transform="matrix(1,0,0,1,0,-107)">
<rect height="1" width="1" x="144" y="133"/>
</g>
<g transform="matrix(1,0,0,1,0,-107)">
<rect height="1" style="fill:rgb(99,155,255);" width="1" x="143" y="133"/>
</g>
<g transform="matrix(1,0,0,1,0,-107)">
<rect height="1" style="fill:rgb(99,155,255);" width="1" x="142" y="133"/>
</g>
<g transform="matrix(1,0,0,1,0,-107)">
<rect height="1" style="fill:rgb(99,155,255);" width="1" x="141" y="133"/>
</g>
<g transform="matrix(1,0,0,1,0,-107)">
<rect height="1" style="fill:rgb(99,155,255);" width="1" x="140" y="133"/>
</g>
<g transform="matrix(1,0,0,1,0,-107)">
<rect height="1" style="fill:white;" width="1.001" x="139" y="133"/>
</g>
<g transform="matrix(1,0,0,1,0,-107)">
<rect height="1" style="fill:rgb(91,110,225);" width="1" x="138" y="133"/>
</g>
<g transform="matrix(1,0,0,1,0,-107)">
<rect height="1" style="fill:rgb(91,110,225);" width="1" x="137" y="133"/>
</g>
<g transform="matrix(1,0,0,1,0,-107)">
<rect height="1" style="fill:rgb(91,110,225);" width="1" x="136" y="133"/>
</g>
<g transform="matrix(1,0,0,1,0,-107)">
<rect height="1" style="fill:rgb(91,110,225);" width="1" x="135" y="133"/>
</g>
<g transform="matrix(1,0,0,1,0,-107)">
<rect height="1" width="1" x="134" y="133"/>
</g>
<g transform="matrix(1,0,0,1,0,-109)">
<rect height="1" width="1" x="144" y="134"/>
</g>
<g transform="matrix(1,0,0,1,0,-109)">
<rect height="1" style="fill:rgb(99,155,255);" width="1" x="143" y="134"/>
</g>
<g transform="matrix(1,0,0,1,0,-109)">
<rect height="1" style="fill:rgb(99,155,255);" width="1" x="142" y="134"/>
</g>
<g transform="matrix(1,0,0,1,0,-109)">
<rect height="1" style="fill:rgb(99,155,255);" width="1" x="141" y="134"/>
</g>
<g transform="matrix(1,0,0,1,0,-109)">
<rect height="1" style="fill:rgb(99,155,255);" width="1" x="140" y="134"/>
</g>
<g transform="matrix(1,0,0,1,0,-109)">
<rect height="1" style="fill:white;" width="1.001" x="139" y="134"/>
</g>
<g transform="matrix(1,0,0,1,0,-109)">
<rect height="1" style="fill:rgb(91,110,225);" width="1" x="138" y="134"/>
</g>
<g transform="matrix(1,0,0,1,0,-109)">
<rect height="1" style="fill:rgb(91,110,225);" width="1" x="137" y="134"/>
</g>
<g transform="matrix(1,0,0,1,0,-109)">
<rect height="1" style="fill:rgb(91,110,225);" width="1" x="136" y="134"/>
</g>
<g transform="matrix(1,0,0,1,0,-109)">
<rect height="1" style="fill:rgb(91,110,225);" width="1" x="135" y="134"/>
</g>
<g transform="matrix(1,0,0,1,0,-109)">
<rect height="1" width="1" x="134" y="134"/>
</g>
<g transform="matrix(1,0,0,1,0,-111)">
<rect height="1" width="1" x="145" y="135"/>
</g>
<g transform="matrix(1,0,0,1,0,-111)">
<rect height="1" style="fill:rgb(99,155,255);" width="1" x="144" y="135"/>
</g>
<g transform="matrix(1,0,0,1,0,-111)">
<rect height="1" style="fill:rgb(99,155,255);" width="1" x="143" y="135"/>
</g>
<g transform="matrix(1,0,0,1,0,-111)">
<rect height="1" style="fill:rgb(99,155,255);" width="1" x="142" y="135"/>
</g>
<g transform="matrix(1,0,0,1,0,-111)">
<rect height="1" style="fill:rgb(99,155,255);" width="1" x="141" y="135"/>
</g>
<g transform="matrix(1,0,0,1,0,-111)">
<rect height="1" style="fill:rgb(99,155,255);" width="1" x="140" y="135"/>
</g>
<g transform="matrix(1,0,0,1,0,-111)">
<rect height="1" style="fill:white;" width="1.001" x="139" y="135"/>
</g>
<g transform="matrix(1,0,0,1,0,-111)">
<rect height="1" style="fill:rgb(91,110,225);" width="1" x="138" y="135"/>
</g>
<g transform="matrix(1,0,0,1,0,-111)">
<rect height="1" style="fill:rgb(91,110,225);" width="1" x="137" y="135"/>
</g>
<g transform="matrix(1,0,0,1,0,-111)">
<rect height="1" style="fill:rgb(91,110,225);" width="1" x="136" y="135"/>
</g>
<g transform="matrix(1,0,0,1,0,-111)">
<rect height="1" style="fill:rgb(91,110,225);" width="1" x="135" y="135"/>
</g>
<g transform="matrix(1,0,0,1,0,-111)">
<rect height="1" style="fill:rgb(91,110,225);" width="1" x="134" y="135"/>
</g>
<g transform="matrix(1,0,0,1,0,-111)">
<rect height="1" width="1" x="133" y="135"/>
</g>
<g transform="matrix(1,0,0,1,0,-113)">
<rect height="1" width="1" x="145" y="136"/>
</g>
<g transform="matrix(1,0,0,1,0,-113)">
<rect height="1" style="fill:rgb(99,155,255);" width="1" x="144" y="136"/>
</g>
<g transform="matrix(1,0,0,1,0,-113)">
<rect height="1" style="fill:rgb(99,155,255);" width="1" x="143" y="136"/>
</g>
<g transform="matrix(1,0,0,1,0,-113)">
<rect height="1" style="fill:rgb(99,155,255);" width="1" x="142" y="136"/>
</g>
<g transform="matrix(1,0,0,1,0,-113)">
<rect height="1" style="fill:rgb(99,155,255);" width="1" x="141" y="136"/>
</g>
<g transform="matrix(1,0,0,1,0,-113)">
<rect height="1" style="fill:white;" width="1" x="140" y="136"/>
</g>
<g transform="matrix(1,0,0,1,0,-113)">
<rect height="1" style="fill:white;" width="1.001" x="139" y="136"/>
</g>
<g transform="matrix(1,0,0,1,0,-113)">
<rect height="1" style="fill:white;" width="1" x="138" y="136"/>
</g>
<g transform="matrix(1,0,0,1,0,-113)">
<rect height="1" style="fill:rgb(91,110,225);" width="1" x="137" y="136"/>
</g>
<g transform="matrix(1,0,0,1,0,-113)">
<rect height="1" style="fill:rgb(91,110,225);" width="1" x="136" y="136"/>
</g>
<g transform="matrix(1,0,0,1,0,-113)">
<rect height="1" style="fill:rgb(91,110,225);" width="1" x="135" y="136"/>
</g>
<g transform="matrix(1,0,0,1,0,-113)">
<rect height="1" style="fill:rgb(91,110,225);" width="1" x="134" y="136"/>
</g>
<g transform="matrix(1,0,0,1,0,-113)">
<rect height="1" width="1" x="133" y="136"/>
</g>
<g transform="matrix(1,0,0,1,0,-115)">
<rect height="1" width="1" x="146" y="137"/>
</g>
<g transform="matrix(1,0,0,1,0,-115)">
<rect height="1" style="fill:rgb(99,155,255);" width="1" x="145" y="137"/>
</g>
<g transform="matrix(1,0,0,1,0,-115)">
<rect height="1" style="fill:rgb(99,155,255);" width="1" x="144" y="137"/>
</g>
<g transform="matrix(1,0,0,1,0,-115)">
<rect height="1" style="fill:rgb(99,155,255);" width="1" x="143" y="137"/>
</g>
<g transform="matrix(1,0,0,1,0,-115)">
<rect height="1" style="fill:white;" width="1" x="142" y="137"/>
</g>
<g transform="matrix(1,0,0,1,0,-115)">
<rect height="1" style="fill:white;" width="1" x="141" y="137"/>
</g>
<g transform="matrix(1,0,0,1,0,-115)">
<rect height="1" style="fill:rgb(91,110,225);" width="1" x="140" y="137"/>
</g>
<g transform="matrix(1,0,0,1,0,-115)">
<rect height="1" style="fill:white;" width="1.001" x="139" y="137"/>
</g>
<g transform="matrix(1,0,0,1,0,-115)">
<rect height="1" style="fill:rgb(99,155,255);" width="1" x="138" y="137"/>
</g>
<g transform="matrix(1,0,0,1,0,-115)">
<rect height="1" style="fill:white;" width="1" x="137" y="137"/>
</g>
<g transform="matrix(1,0,0,1,0,-115)">
<rect height="1" style="fill:white;" width="1" x="136" y="137"/>
</g>
<g transform="matrix(1,0,0,1,0,-115)">
<rect height="1" style="fill:rgb(91,110,225);" width="1" x="135" y="137"/>
</g>
<g transform="matrix(1,0,0,1,0,-115)">
<rect height="1" style="fill:rgb(91,110,225);" width="1" x="134" y="137"/>
</g>
<g transform="matrix(1,0,0,1,0,-115)">
<rect height="1" style="fill:rgb(91,110,225);" width="1" x="133" y="137"/>
</g>
<g transform="matrix(1,0,0,1,0,-115)">
<rect height="1" width="1" x="132" y="137"/>
</g>
<g transform="matrix(1,0,0,1,0,-117)">
<rect height="1" width="1" x="147" y="138"/>
</g>
<g transform="matrix(1,0,0,1,0,-117)">
<rect height="1" style="fill:rgb(99,155,255);" width="1" x="146" y="138"/>
</g>
<g transform="matrix(1,0,0,1,0,-117)">
<rect height="1" style="fill:white;" width="1" x="145" y="138"/>
</g>
<g transform="matrix(1,0,0,1,0,-117)">
<rect height="1" style="fill:white;" width="1" x="144" y="138"/>
</g>
<g transform="matrix(1,0,0,1,0,-117)">
<rect height="1" style="fill:white;" width="1" x="143" y="138"/>
</g>
<g transform="matrix(1,0,0,1,0,-117)">
<rect height="1" style="fill:rgb(91,110,225);" width="1" x="142" y="138"/>
</g>
<g transform="matrix(1,0,0,1,0,-117)">
<rect height="1" style="fill:rgb(91,110,225);" width="1" x="141" y="138"/>
</g>
<g transform="matrix(1,0,0,1,0,-117)">
<rect height="1" style="fill:rgb(91,110,225);" width="1" x="140" y="138"/>
</g>
<g transform="matrix(1,0,0,1,0,-117)">
<rect height="1" style="fill:white;" width="1.001" x="139" y="138"/>
</g>
<g transform="matrix(1,0,0,1,0,-117)">
<rect height="1" style="fill:rgb(99,155,255);" width="1" x="138" y="138"/>
</g>
<g transform="matrix(1,0,0,1,0,-117)">
<rect height="1" style="fill:rgb(99,155,255);" width="1" x="137" y="138"/>
</g>
<g transform="matrix(1,0,0,1,0,-117)">
<rect height="1" style="fill:rgb(99,155,255);" width="1" x="136" y="138"/>
</g>
<g transform="matrix(1,0,0,1,0,-117)">
<rect height="1" style="fill:white;" width="1" x="135" y="138"/>
</g>
<g transform="matrix(1,0,0,1,0,-117)">
<rect height="1" style="fill:white;" width="1" x="134" y="138"/>
</g>
<g transform="matrix(1,0,0,1,0,-117)">
<rect height="1" style="fill:white;" width="1" x="133" y="138"/>
</g>
<g transform="matrix(1,0,0,1,0,-117)">
<rect height="1" style="fill:rgb(91,110,225);" width="1" x="132" y="138"/>
</g>
<g transform="matrix(1,0,0,1,0,-117)">
<rect height="1" width="1" x="131" y="138"/>
</g>
<g transform="matrix(1,0,0,1,0,-119.001)">
<rect height="1.001" style="fill:white;" width="1" x="147" y="139"/>
</g>
<g transform="matrix(1,0,0,1,0,-119.001)">
<rect height="1.001" style="fill:white;" width="1" x="146" y="139"/>
</g>
<g transform="matrix(1,0,0,1,0,-119.001)">
<rect height="1.001" style="fill:rgb(91,110,225);" width="1" x="145" y="139"/>
</g>
<g transform="matrix(1,0,0,1,0,-119.001)">
<rect height="1.001" style="fill:rgb(91,110,225);" width="1" x="144" y="139"/>
</g>
<g transform="matrix(1,0,0,1,0,-119.001)">
<rect height="1.001" style="fill:rgb(91,110,225);" width="1" x="143" y="139"/>
</g>
<g transform="matrix(1,0,0,1,0,-119.001)">
<rect height="1.001" style="fill:rgb(91,110,225);" width="1" x="142" y="139"/>
</g>
<g transform="matrix(1,0,0,1,0,-119.001)">
<rect height="1.001" style="fill:rgb(91,110,225);" width="1" x="141" y="139"/>
</g>
<g transform="matrix(1,0,0,1,0,-119.001)">
<rect height="1.001" style="fill:rgb(91,110,225);" width="1" x="140" y="139"/>
</g>
<g transform="matrix(1,0,0,1,0,-119.001)">
<rect height="1.001" style="fill:white;" width="1.001" x="139" y="139"/>
</g>
<g transform="matrix(1,0,0,1,0,-119.001)">
<rect height="1.001" style="fill:rgb(99,155,255);" width="1" x="138" y="139"/>
</g>
<g transform="matrix(1,0,0,1,0,-119.001)">
<rect height="1.001" style="fill:rgb(99,155,255);" width="1" x="137" y="139"/>
</g>
<g transform="matrix(1,0,0,1,0,-119.001)">
<rect height="1.001" style="fill:rgb(99,155,255);" width="1" x="136" y="139"/>
</g>
<g transform="matrix(1,0,0,1,0,-119.001)">
<rect height="1.001" style="fill:rgb(99,155,255);" width="1" x="135" y="139"/>
</g>
<g transform="matrix(1,0,0,1,0,-119.001)">
<rect height="1.001" style="fill:rgb(99,155,255);" width="1" x="134" y="139"/>
</g>
<g transform="matrix(1,0,0,1,0,-119.001)">
<rect height="1.001" style="fill:rgb(99,155,255);" width="1" x="133" y="139"/>
</g>
<g transform="matrix(1,0,0,1,0,-119.001)">
<rect height="1.001" style="fill:white;" width="1" x="132" y="139"/>
</g>
<g transform="matrix(1,0,0,1,0,-119.001)">
<rect height="1.001" style="fill:white;" width="1" x="131" y="139"/>
</g>
<g transform="matrix(1,0,0,1,0,-121)">
<rect height="1" width="1" x="147" y="140"/>
</g>
<g transform="matrix(1,0,0,1,0,-121)">
<rect height="1" width="1" x="146" y="140"/>
</g>
<g transform="matrix(1,0,0,1,0,-121)">
<rect height="1" style="fill:rgb(91,110,225);" width="1" x="145" y="140"/>
</g>
<g transform="matrix(1,0,0,1,0,-121)">
<rect height="1" style="fill:rgb(91,110,225);" width="1" x="144" y="140"/>
</g>
<g transform="matrix(1,0,0,1,0,-121)">
<rect height="1" style="fill:rgb(91,110,225);" width="1" x="143" y="140"/>
</g>
<g transform="matrix(1,0,0,1,0,-121)">
<rect height="1" style="fill:rgb(91,110,225);" width="1" x="142" y="140"/>
</g>
<g transform="matrix(1,0,0,1,0,-121)">
<rect height="1" style="fill:rgb(91,110,225);" width="1" x="141" y="140"/>
</g>
<g transform="matrix(1,0,0,1,0,-121)">
<rect height="1" style="fill:rgb(91,110,225);" width="1" x="140" y="140"/>
</g>
<g transform="matrix(1,0,0,1,0,-121)">
<rect height="1" style="fill:white;" width="1.001" x="139" y="140"/>
</g>
<g transform="matrix(1,0,0,1,0,-121)">
<rect height="1" style="fill:rgb(99,155,255);" width="1" x="138" y="140"/>
</g>
<g transform="matrix(1,0,0,1,0,-121)">
<rect height="1" style="fill:rgb(99,155,255);" width="1" x="137" y="140"/>
</g>
<g transform="matrix(1,0,0,1,0,-121)">
<rect height="1" style="fill:rgb(99,155,255);" width="1" x="136" y="140"/>
</g>
<g transform="matrix(1,0,0,1,0,-121)">
<rect height="1" style="fill:rgb(99,155,255);" width="1" x="135" y="140"/>
</g>
<g transform="matrix(1,0,0,1,0,-121)">
<rect height="1" style="fill:rgb(99,155,255);" width="1" x="134" y="140"/>
</g>
<g transform="matrix(1,0,0,1,0,-121)">
<rect height="1" style="fill:white;" width="1" x="133" y="140"/>
</g>
<g transform="matrix(1,0,0,1,0,-121)">
<rect height="1" width="1" x="132" y="140"/>
</g>
<g transform="matrix(1,0,0,1,0,-121)">
<rect height="1" width="1" x="131" y="140"/>
</g>
<g transform="matrix(1,0,0,1,0,-123)">
<rect height="1" width="1" x="146" y="141"/>
</g>
<g transform="matrix(1,0,0,1,0,-123)">
<rect height="1" style="fill:rgb(91,110,225);" width="1" x="145" y="141"/>
</g>
<g transform="matrix(1,0,0,1,0,-123)">
<rect height="1" style="fill:rgb(91,110,225);" width="1" x="144" y="141"/>
</g>
<g transform="matrix(1,0,0,1,0,-123)">
<rect height="1" style="fill:rgb(91,110,225);" width="1" x="143" y="141"/>
</g>
<g transform="matrix(1,0,0,1,0,-123)">
<rect height="1" style="fill:rgb(91,110,225);" width="1" x="142" y="141"/>
</g>
<g transform="matrix(1,0,0,1,0,-123)">
<rect height="1" style="fill:rgb(91,110,225);" width="1" x="141" y="141"/>
</g>
<g transform="matrix(1,0,0,1,0,-123)">
<rect height="1" style="fill:rgb(91,110,225);" width="1" x="140" y="141"/>
</g>
<g transform="matrix(1,0,0,1,0,-123)">
<rect height="1" style="fill:white;" width="1.001" x="139" y="141"/>
</g>
<g transform="matrix(1,0,0,1,0,-123)">
<rect height="1" style="fill:rgb(99,155,255);" width="1" x="138" y="141"/>
</g>
<g transform="matrix(1,0,0,1,0,-123)">
<rect height="1" style="fill:rgb(99,155,255);" width="1" x="137" y="141"/>
</g>
<g transform="matrix(1,0,0,1,0,-123)">
<rect height="1" style="fill:rgb(99,155,255);" width="1" x="136" y="141"/>
</g>
<g transform="matrix(1,0,0,1,0,-123)">
<rect height="1" style="fill:rgb(99,155,255);" width="1" x="135" y="141"/>
</g>
<g transform="matrix(1,0,0,1,0,-123)">
<rect height="1" style="fill:rgb(99,155,255);" width="1" x="134" y="141"/>
</g>
<g transform="matrix(1,0,0,1,0,-123)">
<rect height="1" style="fill:white;" width="1" x="133" y="141"/>
</g>
<g transform="matrix(1,0,0,1,0,-123)">
<rect height="1" width="1" x="132" y="141"/>
</g>
<g transform="matrix(1,0,0,1,0,-125)">
<rect height="1" width="1" x="146" y="142"/>
</g>
<g transform="matrix(1,0,0,1,0,-125)">
<rect height="1" style="fill:rgb(91,110,225);" width="1" x="145" y="142"/>
</g>
<g transform="matrix(1,0,0,1,0,-125)">
<rect height="1" style="fill:rgb(91,110,225);" width="1" x="144" y="142"/>
</g>
<g transform="matrix(1,0,0,1,0,-125)">
<rect height="1" style="fill:rgb(91,110,225);" width="1" x="143" y="142"/>
</g>
<g transform="matrix(1,0,0,1,0,-125)">
<rect height="1" style="fill:rgb(91,110,225);" width="1" x="142" y="142"/>
</g>
<g transform="matrix(1,0,0,1,0,-125)">
<rect height="1" style="fill:rgb(91,110,225);" width="1" x="141" y="142"/>
</g>
<g transform="matrix(1,0,0,1,0,-125)">
<rect height="1" style="fill:rgb(91,110,225);" width="1" x="140" y="142"/>
</g>
<g transform="matrix(1,0,0,1,0,-125)">
<rect height="1" style="fill:white;" width="1.001" x="139" y="142"/>
</g>
<g transform="matrix(1,0,0,1,0,-125)">
<rect height="1" style="fill:rgb(99,155,255);" width="1" x="138" y="142"/>
</g>
<g transform="matrix(1,0,0,1,0,-125)">
<rect height="1" style="fill:rgb(99,155,255);" width="1" x="137" y="142"/>
</g>
<g transform="matrix(1,0,0,1,0,-125)">
<rect height="1" style="fill:rgb(99,155,255);" width="1" x="136" y="142"/>
</g>
<g transform="matrix(1,0,0,1,0,-125)">
<rect height="1" style="fill:rgb(99,155,255);" width="1" x="135" y="142"/>
</g>
<g transform="matrix(1,0,0,1,0,-125)">
<rect height="1" style="fill:rgb(99,155,255);" width="1" x="134" y="142"/>
</g>
<g transform="matrix(1,0,0,1,0,-125)">
<rect height="1" style="fill:white;" width="1" x="133" y="142"/>
</g>
<g transform="matrix(1,0,0,1,0,-125)">
<rect height="1" width="1" x="132" y="142"/>
</g>
<g transform="matrix(1,0,0,1,0,-127)">
<rect height="1" width="1" x="145" y="143"/>
</g>
<g transform="matrix(1,0,0,1,0,-127)">
<rect height="1" style="fill:rgb(91,110,225);" width="1" x="144" y="143"/>
</g>
<g transform="matrix(1,0,0,1,0,-127)">
<rect height="1" style="fill:rgb(91,110,225);" width="1" x="143" y="143"/>
</g>
<g transform="matrix(1,0,0,1,0,-127)">
<rect height="1" style="fill:rgb(91,110,225);" width="1" x="142" y="143"/>
</g>
<g transform="matrix(1,0,0,1,0,-127)">
<rect height="1" style="fill:rgb(91,110,225);" width="1" x="141" y="143"/>
</g>
<g transform="matrix(1,0,0,1,0,-127)">
<rect height="1" style="fill:rgb(91,110,225);" width="1" x="140" y="143"/>
</g>
<g transform="matrix(1,0,0,1,0,-127)">
<rect height="1" style="fill:white;" width="1.001" x="139" y="143"/>
</g>
<g transform="matrix(1,0,0,1,0,-127)">
<rect height="1" style="fill:rgb(99,155,255);" width="1" x="138" y="143"/>
</g>
<g transform="matrix(1,0,0,1,0,-127)">
<rect height="1" style="fill:rgb(99,155,255);" width="1" x="137" y="143"/>
</g>
<g transform="matrix(1,0,0,1,0,-127)">
<rect height="1" style="fill:rgb(99,155,255);" width="1" x="136" y="143"/>
</g>
<g transform="matrix(1,0,0,1,0,-127)">
<rect height="1" style="fill:rgb(99,155,255);" width="1" x="135" y="143"/>
</g>
<g transform="matrix(1,0,0,1,0,-127)">
<rect height="1" style="fill:white;" width="1" x="134" y="143"/>
</g>
<g transform="matrix(1,0,0,1,0,-127)">
<rect height="1" width="1" x="133" y="143"/>
</g>
<g transform="matrix(1,0,0,1,0,-129)">
<rect height="1" width="1" x="145" y="144"/>
</g>
<g transform="matrix(1,0,0,1,0,-129)">
<rect height="1" style="fill:rgb(91,110,225);" width="1" x="144" y="144"/>
</g>
<g transform="matrix(1,0,0,1,0,-129)">
<rect height="1" style="fill:rgb(91,110,225);" width="1" x="143" y="144"/>
</g>
<g transform="matrix(1,0,0,1,0,-129)">
<rect height="1" style="fill:rgb(91,110,225);" width="1" x="142" y="144"/>
</g>
<g transform="matrix(1,0,0,1,0,-129)">
<rect height="1" style="fill:rgb(91,110,225);" width="1" x="141" y="144"/>
</g>
<g transform="matrix(1,0,0,1,0,-129)">
<rect height="1" style="fill:rgb(91,110,225);" width="1" x="140" y="144"/>
</g>
<g transform="matrix(1,0,0,1,0,-129)">
<rect height="1" style="fill:white;" width="1.001" x="139" y="144"/>
</g>
<g transform="matrix(1,0,0,1,0,-129)">
<rect height="1" style="fill:rgb(99,155,255);" width="1" x="138" y="144"/>
</g>
<g transform="matrix(1,0,0,1,0,-129)">
<rect height="1" style="fill:rgb(99,155,255);" width="1" x="137" y="144"/>
</g>
<g transform="matrix(1,0,0,1,0,-129)">
<rect height="1" style="fill:rgb(99,155,255);" width="1" x="136" y="144"/>
</g>
<g transform="matrix(1,0,0,1,0,-129)">
<rect height="1" style="fill:rgb(99,155,255);" width="1" x="135" y="144"/>
</g>
<g transform="matrix(1,0,0,1,0,-129)">
<rect height="1" style="fill:white;" width="1" x="134" y="144"/>
</g>
<g transform="matrix(1,0,0,1,0,-129)">
<rect height="1" width="1" x="133" y="144"/>
</g>
<g transform="matrix(1,0,0,1,0,-131)">
<rect height="1" width="1" x="144" y="145"/>
</g>
<g transform="matrix(1,0,0,1,0,-131)">
<rect height="1" style="fill:rgb(91,110,225);" width="1" x="143" y="145"/>
</g>
<g transform="matrix(1,0,0,1,0,-131)">
<rect height="1" style="fill:rgb(91,110,225);" width="1" x="142" y="145"/>
</g>
<g transform="matrix(1,0,0,1,0,-131)">
<rect height="1" style="fill:rgb(91,110,225);" width="1" x="141" y="145"/>
</g>
<g transform="matrix(1,0,0,1,0,-131)">
<rect height="1" style="fill:rgb(91,110,225);" width="1" x="140" y="145"/>
</g>
<g transform="matrix(1,0,0,1,0,-131)">
<rect height="1" style="fill:white;" width="1.001" x="139" y="145"/>
</g>
<g transform="matrix(1,0,0,1,0,-131)">
<rect height="1" style="fill:rgb(99,155,255);" width="1" x="138" y="145"/>
</g>
<g transform="matrix(1,0,0,1,0,-131)">
<rect height="1" style="fill:rgb(99,155,255);" width="1" x="137" y="145"/>
</g>
<g transform="matrix(1,0,0,1,0,-131)">
<rect height="1" style="fill:rgb(99,155,255);" width="1" x="136" y="145"/>
</g>
<g transform="matrix(1,0,0,1,0,-131)">
<rect height="1" style="fill:white;" width="1" x="135" y="145"/>
</g>
<g transform="matrix(1,0,0,1,0,-131)">
<rect height="1" width="1" x="134" y="145"/>
</g>
<g transform="matrix(1,0,0,1,0,-133)">
<rect height="1" width="1" x="144" y="146"/>
</g>
<g transform="matrix(1,0,0,1,0,-133)">
<rect height="1" style="fill:rgb(91,110,225);" width="1" x="143" y="146"/>
</g>
<g transform="matrix(1,0,0,1,0,-133)">
<rect height="1" style="fill:rgb(91,110,225);" width="1" x="142" y="146"/>
</g>
<g transform="matrix(1,0,0,1,0,-133)">
<rect height="1" style="fill:rgb(91,110,225);" width="1" x="141" y="146"/>
</g>
<g transform="matrix(1,0,0,1,0,-133)">
<rect height="1" style="fill:rgb(91,110,225);" width="1" x="140" y="146"/>
</g>
<g transform="matrix(1,0,0,1,0,-133)">
<rect height="1" style="fill:white;" width="1.001" x="139" y="146"/>
</g>
<g transform="matrix(1,0,0,1,0,-133)">
<rect height="1" style="fill:rgb(99,155,255);" width="1" x="138" y="146"/>
</g>
<g transform="matrix(1,0,0,1,0,-133)">
<rect height="1" style="fill:rgb(99,155,255);" width="1" x="137" y="146"/>
</g>
<g transform="matrix(1,0,0,1,0,-133)">
<rect height="1" style="fill:rgb(99,155,255);" width="1" x="136" y="146"/>
</g>
<g transform="matrix(1,0,0,1,0,-133)">
<rect height="1" style="fill:white;" width="1" x="135" y="146"/>
</g>
<g transform="matrix(1,0,0,1,0,-133)">
<rect height="1" width="1" x="134" y="146"/>
</g>
<g transform="matrix(1,0,0,1,0,-135)">
<rect height="1" width="1" x="143" y="147"/>
</g>
<g transform="matrix(1,0,0,1,0,-135)">
<rect height="1" style="fill:rgb(91,110,225);" width="1" x="142" y="147"/>
</g>
<g transform="matrix(1,0,0,1,0,-135)">
<rect height="1" style="fill:rgb(91,110,225);" width="1" x="141" y="147"/>
</g>
<g transform="matrix(1,0,0,1,0,-135)">
<rect height="1" style="fill:rgb(91,110,225);" width="1" x="140" y="147"/>
</g>
<g transform="matrix(1,0,0,1,0,-135)">
<rect height="1" style="fill:white;" width="1.001" x="139" y="147"/>
</g>
<g transform="matrix(1,0,0,1,0,-135)">
<rect height="1" style="fill:rgb(99,155,255);" width="1" x="138" y="147"/>
</g>
<g transform="matrix(1,0,0,1,0,-135)">
<rect height="1" style="fill:rgb(99,155,255);" width="1" x="137" y="147"/>
</g>
<g transform="matrix(1,0,0,1,0,-135)">
<rect height="1" style="fill:white;" width="1" x="136" y="147"/>
</g>
<g transform="matrix(1,0,0,1,0,-135)">
<rect height="1" width="1" x="135" y="147"/>
</g>
<g transform="matrix(1,0,0,1,0,-137.001)">
<rect height="1.001" width="1" x="143" y="148"/>
</g>
<g transform="matrix(1,0,0,1,0,-137.001)">
<rect height="1.001" style="fill:rgb(91,110,225);" width="1" x="142" y="148"/>
</g>
<g transform="matrix(1,0,0,1,0,-137.001)">
<rect height="1.001" style="fill:rgb(91,110,225);" width="1" x="141" y="148"/>
</g>
<g transform="matrix(1,0,0,1,0,-137.001)">
<rect height="1.001" style="fill:rgb(91,110,225);" width="1" x="140" y="148"/>
</g>
<g transform="matrix(1,0,0,1,0,-137.001)">
<rect height="1.001" style="fill:white;" width="1.001" x="139" y="148"/>
</g>
<g transform="matrix(1,0,0,1,0,-137.001)">
<rect height="1.001" style="fill:rgb(99,155,255);" width="1" x="138" y="148"/>
</g>
<g transform="matrix(1,0,0,1,0,-137.001)">
<rect height="1.001" style="fill:rgb(99,155,255);" width="1" x="137" y="148"/>
</g>
<g transform="matrix(1,0,0,1,0,-137.001)">
<rect height="1.001" style="fill:white;" width="1" x="136" y="148"/>
</g>
<g transform="matrix(1,0,0,1,0,-137.001)">
<rect height="1.001" width="1" x="135" y="148"/>
</g>
<g transform="matrix(1,0,0,1,0,-139)">
<rect height="1" width="1" x="142" y="149"/>
</g>
<g transform="matrix(1,0,0,1,0,-139)">
<rect height="1" style="fill:rgb(91,110,225);" width="1" x="141" y="149"/>
</g>
<g transform="matrix(1,0,0,1,0,-139)">
<rect height="1" style="fill:rgb(91,110,225);" width="1" x="140" y="149"/>
</g>
<g transform="matrix(1,0,0,1,0,-139)">
<rect height="1" style="fill:white;" width="1.001" x="139" y="149"/>
</g>
<g transform="matrix(1,0,0,1,0,-139)">
<rect height="1" style="fill:rgb(99,155,255);" width="1" x="138" y="149"/>
</g>
<g transform="matrix(1,0,0,1,0,-139)">
<rect height="1" style="fill:white;" width="1" x="137" y="149"/>
</g>
<g transform="matrix(1,0,0,1,0,-139)">
<rect height="1" width="1" x="136" y="149"/>
</g>
<g transform="matrix(1,0,0,1,0,-141)">
<rect height="1" width="1" x="149" y="150"/>
</g>
<g transform="matrix(1,0,0,1,0,-141)">
<rect height="1" width="1" x="142" y="150"/>
</g>
<g transform="matrix(1,0,0,1,0,-141)">
<rect height="1" style="fill:rgb(91,110,225);" width="1" x="141" y="150"/>
</g>
<g transform="matrix(1,0,0,1,0,-141)">
<rect height="1" style="fill:rgb(91,110,225);" width="1" x="140" y="150"/>
</g>
<g transform="matrix(1,0,0,1,0,-141)">
<rect height="1" style="fill:white;" width="1.001" x="139" y="150"/>
</g>
<g transform="matrix(1,0,0,1,0,-141)">
<rect height="1" style="fill:rgb(99,155,255);" width="1" x="138" y="150"/>
</g>
<g transform="matrix(1,0,0,1,0,-141)">
<rect height="1" style="fill:white;" width="1" x="137" y="150"/>
</g>
<g transform="matrix(1,0,0,1,0,-141)">
<rect height="1" width="1" x="136" y="150"/>
</g>
<g transform="matrix(1,0,0,1,0,-141)">
<rect height="1" width="1" x="129" y="150"/>
</g>
<g transform="matrix(1,0,0,1,0,-141)">
<rect height="1" width="1" x="127" y="150"/>
</g>
<g transform="matrix(1,0,0,1,0,-143)">
<rect height="1" width="1" x="150" y="151"/>
</g>
<g transform="matrix(1,0,0,1,0,-143)">
<rect height="1" width="1" x="149" y="151"/>
</g>
<g transform="matrix(1,0,0,1,0,-143)">
<rect height="1" width="1.001" x="148" y="151"/>
</g>
<g transform="matrix(1,0,0,1,0,-143)">
<rect height="1" width="1" x="141" y="151"/>
</g>
<g transform="matrix(1,0,0,1,0,-143)">
<rect height="1" style="fill:rgb(91,110,225);" width="1" x="140" y="151"/>
</g>
<g transform="matrix(1,0,0,1,0,-143)">
<rect height="1" style="fill:white;" width="1.001" x="139" y="151"/>
</g>
<g transform="matrix(1,0,0,1,0,-143)">
<rect height="1" style="fill:white;" width="1" x="138" y="151"/>
</g>
<g transform="matrix(1,0,0,1,0,-143)">
<rect height="1" width="1" x="137" y="151"/>
</g>
<g transform="matrix(1,0,0,1,0,-143)">
<rect height="1" width="1" x="128" y="151"/>
</g>
<g transform="matrix(1,0,0,1,0,-145)">
<rect height="1" width="1" x="149" y="152"/>
</g>
<g transform="matrix(1,0,0,1,0,-145)">
<rect height="1" width="1" x="141" y="152"/>
</g>
<g transform="matrix(1,0,0,1,0,-145)">
<rect height="1" style="fill:rgb(91,110,225);" width="1" x="140" y="152"/>
</g>
<g transform="matrix(1,0,0,1,0,-145)">
<rect height="1" style="fill:white;" width="1.001" x="139" y="152"/>
</g>
<g transform="matrix(1,0,0,1,0,-145)">
<rect height="1" style="fill:white;" width="1" x="138" y="152"/>
</g>
<g transform="matrix(1,0,0,1,0,-145)">
<rect height="1" width="1" x="137" y="152"/>
</g>
<g transform="matrix(1,0,0,1,0,-145)">
<rect height="1" width="1" x="129" y="152"/>
</g>
<g transform="matrix(1,0,0,1,0,-145)">
<rect height="1" width="1" x="127" y="152"/>
</g>
<g transform="matrix(1,0,0,1,0,-147)">
<rect height="1" width="1" x="140" y="153"/>
</g>
<g transform="matrix(1,0,0,1,0,-147)">
<rect height="1" style="fill:white;" width="1.001" x="139" y="153"/>
</g>
<g transform="matrix(1,0,0,1,0,-147)">
<rect height="1" width="1" x="138" y="153"/>
</g>
<g transform="matrix(1,0,0,1,0,-149)">
<rect height="1" width="1.001" x="139" y="154"/>
</g>
</g>
</g>
</svg>