<?xml version="1.0" ?>
<!DOCTYPE svg  PUBLIC '-//W3C//DTD SVG 1.1//EN'  'http://www.w3.org/Graphics/SVG/1.1/DTD/svg11.dtd'>
<!-- Uploaded to: SVG Repo, www.svgrepo.com, Generator: SVG Repo Mixer Tools -->
<svg fill="#000000" width="800px" height="800px" viewBox="0 -1 24 24" style="fill-rule:evenodd;clip-rule:evenodd;stroke-linejoin:round;stroke-miterlimit:2;" version="1.1" xml:space="preserve" xmlns="http://www.w3.org/2000/svg" xmlns:serif="http://www.serif.com/" xmlns:xlink="http://www.w3.org/1999/xlink">
<g transform="matrix(1,0,0,1,-130,-51)">
<g id="nftListing-digital-future-system-security-crypto-sign-symbol">
<g transform="matrix(1,0,0,1,0,-15)">
<rect height="1" width="1" x="150" y="87"/>
</g>
<g transform="matrix(1,0,0,1,0,-15)">
<rect height="1" width="1" x="149" y="87"/>
</g>
<g transform="matrix(1,0,0,1,0,-15)">
<rect height="1" width="1.001" x="148" y="87"/>
</g>
<g transform="matrix(1,0,0,1,0,-15)">
<rect height="1" width="1" x="147" y="87"/>
</g>
<g transform="matrix(1,0,0,1,0,-15)">
<rect height="1" width="1" x="146" y="87"/>
</g>
<g transform="matrix(1,0,0,1,0,-15)">
<rect height="1" width="1" x="145" y="87"/>
</g>
<g transform="matrix(1,0,0,1,0,-15)">
<rect height="1" width="1" x="144" y="87"/>
</g>
<g transform="matrix(1,0,0,1,0,-15)">
<rect height="1" width="1" x="143" y="87"/>
</g>
<g transform="matrix(1,0,0,1,0,-15)">
<rect height="1" width="1" x="142" y="87"/>
</g>
<g transform="matrix(1,0,0,1,0,-15)">
<rect height="1" width="1" x="141" y="87"/>
</g>
<g transform="matrix(1,0,0,1,0,-15)">
<rect height="1" width="1" x="140" y="87"/>
</g>
<g transform="matrix(1,0,0,1,0,-15)">
<rect height="1" width="1.001" x="139" y="87"/>
</g>
<g transform="matrix(1,0,0,1,0,-15)">
<rect height="1" width="1" x="138" y="87"/>
</g>
<g transform="matrix(1,0,0,1,0,-15)">
<rect height="1" width="1" x="137" y="87"/>
</g>
<g transform="matrix(1,0,0,1,0,-15)">
<rect height="1" width="1" x="136" y="87"/>
</g>
<g transform="matrix(1,0,0,1,0,-15)">
<rect height="1" width="1" x="135" y="87"/>
</g>
<g transform="matrix(1,0,0,1,0,-15)">
<rect height="1" width="1" x="134" y="87"/>
</g>
<g transform="matrix(1,0,0,1,0,-15)">
<rect height="1" width="1" x="133" y="87"/>
</g>
<g transform="matrix(1,0,0,1,0,-17)">
<rect height="1" width="1" x="151" y="88"/>
</g>
<g transform="matrix(1,0,0,1,0,-17)">
<rect height="1" style="fill:rgb(155,173,183);" width="1" x="150" y="88"/>
</g>
<g transform="matrix(1,0,0,1,0,-17)">
<rect height="1" style="fill:rgb(155,173,183);" width="1" x="149" y="88"/>
</g>
<g transform="matrix(1,0,0,1,0,-17)">
<rect height="1" width="1.001" x="148" y="88"/>
</g>
<g transform="matrix(1,0,0,1,0,-17)">
<rect height="1" style="fill:rgb(155,173,183);" width="1" x="147" y="88"/>
</g>
<g transform="matrix(1,0,0,1,0,-17)">
<rect height="1" style="fill:rgb(155,173,183);" width="1" x="146" y="88"/>
</g>
<g transform="matrix(1,0,0,1,0,-17)">
<rect height="1" style="fill:rgb(155,173,183);" width="1" x="145" y="88"/>
</g>
<g transform="matrix(1,0,0,1,0,-17)">
<rect height="1" style="fill:rgb(155,173,183);" width="1" x="144" y="88"/>
</g>
<g transform="matrix(1,0,0,1,0,-17)">
<rect height="1" style="fill:rgb(155,173,183);" width="1" x="143" y="88"/>
</g>
<g transform="matrix(1,0,0,1,0,-17)">
<rect height="1" style="fill:rgb(155,173,183);" width="1" x="142" y="88"/>
</g>
<g transform="matrix(1,0,0,1,0,-17)">
<rect height="1" style="fill:rgb(155,173,183);" width="1" x="141" y="88"/>
</g>
<g transform="matrix(1,0,0,1,0,-17)">
<rect height="1" style="fill:rgb(155,173,183);" width="1" x="140" y="88"/>
</g>
<g transform="matrix(1,0,0,1,0,-17)">
<rect height="1" style="fill:rgb(155,173,183);" width="1.001" x="139" y="88"/>
</g>
<g transform="matrix(1,0,0,1,0,-17)">
<rect height="1" style="fill:rgb(155,173,183);" width="1" x="138" y="88"/>
</g>
<g transform="matrix(1,0,0,1,0,-17)">
<rect height="1" style="fill:rgb(155,173,183);" width="1" x="137" y="88"/>
</g>
<g transform="matrix(1,0,0,1,0,-17)">
<rect height="1" style="fill:rgb(155,173,183);" width="1" x="136" y="88"/>
</g>
<g transform="matrix(1,0,0,1,0,-17)">
<rect height="1" style="fill:rgb(155,173,183);" width="1" x="135" y="88"/>
</g>
<g transform="matrix(1,0,0,1,0,-17)">
<rect height="1" style="fill:rgb(155,173,183);" width="1" x="134" y="88"/>
</g>
<g transform="matrix(1,0,0,1,0,-17)">
<rect height="1" style="fill:rgb(155,173,183);" width="1" x="133" y="88"/>
</g>
<g transform="matrix(1,0,0,1,0,-17)">
<rect height="1" width="1" x="132" y="88"/>
</g>
<g transform="matrix(1,0,0,1,0,-19)">
<rect height="1" width="1" x="152" y="89"/>
</g>
<g transform="matrix(1,0,0,1,0,-19)">
<rect height="1" style="fill:rgb(155,173,183);" width="1" x="151" y="89"/>
</g>
<g transform="matrix(1,0,0,1,0,-19)">
<rect height="1" style="fill:rgb(155,173,183);" width="1" x="150" y="89"/>
</g>
<g transform="matrix(1,0,0,1,0,-19)">
<rect height="1" style="fill:rgb(155,173,183);" width="1" x="149" y="89"/>
</g>
<g transform="matrix(1,0,0,1,0,-19)">
<rect height="1" style="fill:rgb(155,173,183);" width="1.001" x="148" y="89"/>
</g>
<g transform="matrix(1,0,0,1,0,-19)">
<rect height="1" width="1" x="147" y="89"/>
</g>
<g transform="matrix(1,0,0,1,0,-19)">
<rect height="1" style="fill:rgb(155,173,183);" width="1" x="146" y="89"/>
</g>
<g transform="matrix(1,0,0,1,0,-19)">
<rect height="1" style="fill:rgb(155,173,183);" width="1" x="145" y="89"/>
</g>
<g transform="matrix(1,0,0,1,0,-19)">
<rect height="1" style="fill:rgb(155,173,183);" width="1" x="144" y="89"/>
</g>
<g transform="matrix(1,0,0,1,0,-19)">
<rect height="1" style="fill:white;" width="1" x="143" y="89"/>
</g>
<g transform="matrix(1,0,0,1,0,-19)">
<rect height="1" style="fill:white;" width="1" x="142" y="89"/>
</g>
<g transform="matrix(1,0,0,1,0,-19)">
<rect height="1" style="fill:white;" width="1" x="141" y="89"/>
</g>
<g transform="matrix(1,0,0,1,0,-19)">
<rect height="1" style="fill:white;" width="1" x="140" y="89"/>
</g>
<g transform="matrix(1,0,0,1,0,-19)">
<rect height="1" style="fill:white;" width="1.001" x="139" y="89"/>
</g>
<g transform="matrix(1,0,0,1,0,-19)">
<rect height="1" style="fill:white;" width="1" x="138" y="89"/>
</g>
<g transform="matrix(1,0,0,1,0,-19)">
<rect height="1" style="fill:white;" width="1" x="137" y="89"/>
</g>
<g transform="matrix(1,0,0,1,0,-19)">
<rect height="1" style="fill:white;" width="1" x="136" y="89"/>
</g>
<g transform="matrix(1,0,0,1,0,-19)">
<rect height="1" style="fill:white;" width="1" x="135" y="89"/>
</g>
<g transform="matrix(1,0,0,1,0,-19)">
<rect height="1" style="fill:rgb(155,173,183);" width="1" x="134" y="89"/>
</g>
<g transform="matrix(1,0,0,1,0,-19)">
<rect height="1" style="fill:rgb(155,173,183);" width="1" x="133" y="89"/>
</g>
<g transform="matrix(1,0,0,1,0,-19)">
<rect height="1" style="fill:rgb(155,173,183);" width="1" x="132" y="89"/>
</g>
<g transform="matrix(1,0,0,1,0,-19)">
<rect height="1" width="1" x="131" y="89"/>
</g>
<g transform="matrix(1,0,0,1,0,-21)">
<rect height="1" width="1" x="153" y="90"/>
</g>
<g transform="matrix(1,0,0,1,0,-21)">
<rect height="1" style="fill:rgb(155,173,183);" width="1" x="152" y="90"/>
</g>
<g transform="matrix(1,0,0,1,0,-21)">
<rect height="1" style="fill:rgb(155,173,183);" width="1" x="151" y="90"/>
</g>
<g transform="matrix(1,0,0,1,0,-21)">
<rect height="1" style="fill:rgb(155,173,183);" width="1" x="150" y="90"/>
</g>
<g transform="matrix(1,0,0,1,0,-21)">
<rect height="1" style="fill:rgb(155,173,183);" width="1" x="149" y="90"/>
</g>
<g transform="matrix(1,0,0,1,0,-21)">
<rect height="1" style="fill:rgb(155,173,183);" width="1.001" x="148" y="90"/>
</g>
<g transform="matrix(1,0,0,1,0,-21)">
<rect height="1" width="1" x="147" y="90"/>
</g>
<g transform="matrix(1,0,0,1,0,-21)">
<rect height="1" style="fill:white;" width="1" x="146" y="90"/>
</g>
<g transform="matrix(1,0,0,1,0,-21)">
<rect height="1" style="fill:white;" width="1" x="145" y="90"/>
</g>
<g transform="matrix(1,0,0,1,0,-21)">
<rect height="1" style="fill:white;" width="1" x="144" y="90"/>
</g>
<g transform="matrix(1,0,0,1,0,-21)">
<rect height="1" style="fill:white;" width="1" x="143" y="90"/>
</g>
<g transform="matrix(1,0,0,1,0,-21)">
<rect height="1" style="fill:white;" width="1" x="142" y="90"/>
</g>
<g transform="matrix(1,0,0,1,0,-21)">
<rect height="1" style="fill:white;" width="1" x="141" y="90"/>
</g>
<g transform="matrix(1,0,0,1,0,-21)">
<rect height="1" style="fill:white;" width="1" x="140" y="90"/>
</g>
<g transform="matrix(1,0,0,1,0,-21)">
<rect height="1" style="fill:white;" width="1.001" x="139" y="90"/>
</g>
<g transform="matrix(1,0,0,1,0,-21)">
<rect height="1" style="fill:white;" width="1" x="138" y="90"/>
</g>
<g transform="matrix(1,0,0,1,0,-21)">
<rect height="1" style="fill:white;" width="1" x="137" y="90"/>
</g>
<g transform="matrix(1,0,0,1,0,-21)">
<rect height="1" style="fill:white;" width="1" x="136" y="90"/>
</g>
<g transform="matrix(1,0,0,1,0,-21)">
<rect height="1" style="fill:white;" width="1" x="135" y="90"/>
</g>
<g transform="matrix(1,0,0,1,0,-21)">
<rect height="1" style="fill:white;" width="1" x="134" y="90"/>
</g>
<g transform="matrix(1,0,0,1,0,-21)">
<rect height="1" style="fill:white;" width="1" x="133" y="90"/>
</g>
<g transform="matrix(1,0,0,1,0,-21)">
<rect height="1" style="fill:white;" width="1" x="132" y="90"/>
</g>
<g transform="matrix(1,0,0,1,0,-21)">
<rect height="1" width="1" x="131" y="90"/>
</g>
<g transform="matrix(1,0,0,1,0,-23)">
<rect height="1" width="1" x="153" y="91"/>
</g>
<g transform="matrix(1,0,0,1,0,-23)">
<rect height="1" style="fill:rgb(155,173,183);" width="1" x="152" y="91"/>
</g>
<g transform="matrix(1,0,0,1,0,-23)">
<rect height="1" style="fill:rgb(155,173,183);" width="1" x="151" y="91"/>
</g>
<g transform="matrix(1,0,0,1,0,-23)">
<rect height="1" style="fill:rgb(155,173,183);" width="1" x="150" y="91"/>
</g>
<g transform="matrix(1,0,0,1,0,-23)">
<rect height="1" style="fill:rgb(155,173,183);" width="1" x="149" y="91"/>
</g>
<g transform="matrix(1,0,0,1,0,-23)">
<rect height="1" style="fill:rgb(155,173,183);" width="1.001" x="148" y="91"/>
</g>
<g transform="matrix(1,0,0,1,0,-23)">
<rect height="1" style="fill:rgb(155,173,183);" width="1" x="147" y="91"/>
</g>
<g transform="matrix(1,0,0,1,0,-23)">
<rect height="1" width="1" x="146" y="91"/>
</g>
<g transform="matrix(1,0,0,1,0,-23)">
<rect height="1" style="fill:white;" width="1" x="145" y="91"/>
</g>
<g transform="matrix(1,0,0,1,0,-23)">
<rect height="1" style="fill:white;" width="1" x="144" y="91"/>
</g>
<g transform="matrix(1,0,0,1,0,-23)">
<rect height="1" width="1" x="143" y="91"/>
</g>
<g transform="matrix(1,0,0,1,0,-23)">
<rect height="1" width="1" x="142" y="91"/>
</g>
<g transform="matrix(1,0,0,1,0,-23)">
<rect height="1" width="1" x="141" y="91"/>
</g>
<g transform="matrix(1,0,0,1,0,-23)">
<rect height="1" width="1" x="140" y="91"/>
</g>
<g transform="matrix(1,0,0,1,0,-23)">
<rect height="1" width="1.001" x="139" y="91"/>
</g>
<g transform="matrix(1,0,0,1,0,-23)">
<rect height="1" width="1" x="138" y="91"/>
</g>
<g transform="matrix(1,0,0,1,0,-23)">
<rect height="1" width="1" x="137" y="91"/>
</g>
<g transform="matrix(1,0,0,1,0,-23)">
<rect height="1" width="1" x="136" y="91"/>
</g>
<g transform="matrix(1,0,0,1,0,-23)">
<rect height="1" width="1" x="135" y="91"/>
</g>
<g transform="matrix(1,0,0,1,0,-23)">
<rect height="1" width="1" x="134" y="91"/>
</g>
<g transform="matrix(1,0,0,1,0,-23)">
<rect height="1" style="fill:white;" width="1" x="133" y="91"/>
</g>
<g transform="matrix(1,0,0,1,0,-23)">
<rect height="1" style="fill:white;" width="1" x="132" y="91"/>
</g>
<g transform="matrix(1,0,0,1,0,-23)">
<rect height="1" style="fill:white;" width="1" x="131" y="91"/>
</g>
<g transform="matrix(1,0,0,1,0,-23)">
<rect height="1" width="1.001" x="130" y="91"/>
</g>
<g transform="matrix(1,0,0,1,0,-25)">
<rect height="1" width="1" x="153" y="92"/>
</g>
<g transform="matrix(1,0,0,1,0,-25)">
<rect height="1" style="fill:rgb(155,173,183);" width="1" x="152" y="92"/>
</g>
<g transform="matrix(1,0,0,1,0,-25)">
<rect height="1" style="fill:rgb(155,173,183);" width="1" x="151" y="92"/>
</g>
<g transform="matrix(1,0,0,1,0,-25)">
<rect height="1" style="fill:rgb(155,173,183);" width="1" x="150" y="92"/>
</g>
<g transform="matrix(1,0,0,1,0,-25)">
<rect height="1" style="fill:rgb(155,173,183);" width="1" x="149" y="92"/>
</g>
<g transform="matrix(1,0,0,1,0,-25)">
<rect height="1" style="fill:rgb(155,173,183);" width="1.001" x="148" y="92"/>
</g>
<g transform="matrix(1,0,0,1,0,-25)">
<rect height="1" style="fill:rgb(155,173,183);" width="1" x="147" y="92"/>
</g>
<g transform="matrix(1,0,0,1,0,-25)">
<rect height="1" width="1" x="146" y="92"/>
</g>
<g transform="matrix(1,0,0,1,0,-25)">
<rect height="1" style="fill:white;" width="1" x="145" y="92"/>
</g>
<g transform="matrix(1,0,0,1,0,-25)">
<rect height="1" style="fill:white;" width="1" x="144" y="92"/>
</g>
<g transform="matrix(1,0,0,1,0,-25)">
<rect height="1" style="fill:white;" width="1" x="143" y="92"/>
</g>
<g transform="matrix(1,0,0,1,0,-25)">
<rect height="1" style="fill:white;" width="1" x="142" y="92"/>
</g>
<g transform="matrix(1,0,0,1,0,-25)">
<rect height="1" style="fill:white;" width="1" x="141" y="92"/>
</g>
<g transform="matrix(1,0,0,1,0,-25)">
<rect height="1" style="fill:white;" width="1" x="140" y="92"/>
</g>
<g transform="matrix(1,0,0,1,0,-25)">
<rect height="1" style="fill:white;" width="1.001" x="139" y="92"/>
</g>
<g transform="matrix(1,0,0,1,0,-25)">
<rect height="1" style="fill:white;" width="1" x="138" y="92"/>
</g>
<g transform="matrix(1,0,0,1,0,-25)">
<rect height="1" style="fill:white;" width="1" x="137" y="92"/>
</g>
<g transform="matrix(1,0,0,1,0,-25)">
<rect height="1" style="fill:white;" width="1" x="136" y="92"/>
</g>
<g transform="matrix(1,0,0,1,0,-25)">
<rect height="1" style="fill:white;" width="1" x="135" y="92"/>
</g>
<g transform="matrix(1,0,0,1,0,-25)">
<rect height="1" style="fill:white;" width="1" x="134" y="92"/>
</g>
<g transform="matrix(1,0,0,1,0,-25)">
<rect height="1" style="fill:white;" width="1" x="133" y="92"/>
</g>
<g transform="matrix(1,0,0,1,0,-25)">
<rect height="1" style="fill:white;" width="1" x="132" y="92"/>
</g>
<g transform="matrix(1,0,0,1,0,-25)">
<rect height="1" style="fill:white;" width="1" x="131" y="92"/>
</g>
<g transform="matrix(1,0,0,1,0,-25)">
<rect height="1" width="1.001" x="130" y="92"/>
</g>
<g transform="matrix(1,0,0,1,0,-27)">
<rect height="1" width="1" x="153" y="93"/>
</g>
<g transform="matrix(1,0,0,1,0,-27)">
<rect height="1" style="fill:rgb(155,173,183);" width="1" x="152" y="93"/>
</g>
<g transform="matrix(1,0,0,1,0,-27)">
<rect height="1" style="fill:rgb(155,173,183);" width="1" x="151" y="93"/>
</g>
<g transform="matrix(1,0,0,1,0,-27)">
<rect height="1" style="fill:rgb(155,173,183);" width="1" x="150" y="93"/>
</g>
<g transform="matrix(1,0,0,1,0,-27)">
<rect height="1" style="fill:rgb(155,173,183);" width="1" x="149" y="93"/>
</g>
<g transform="matrix(1,0,0,1,0,-27)">
<rect height="1" style="fill:rgb(155,173,183);" width="1.001" x="148" y="93"/>
</g>
<g transform="matrix(1,0,0,1,0,-27)">
<rect height="1" style="fill:rgb(155,173,183);" width="1" x="147" y="93"/>
</g>
<g transform="matrix(1,0,0,1,0,-27)">
<rect height="1" width="1" x="146" y="93"/>
</g>
<g transform="matrix(1,0,0,1,0,-27)">
<rect height="1" style="fill:white;" width="1" x="145" y="93"/>
</g>
<g transform="matrix(1,0,0,1,0,-27)">
<rect height="1" style="fill:white;" width="1" x="144" y="93"/>
</g>
<g transform="matrix(1,0,0,1,0,-27)">
<rect height="1" style="fill:white;" width="1" x="143" y="93"/>
</g>
<g transform="matrix(1,0,0,1,0,-27)">
<rect height="1" style="fill:white;" width="1" x="142" y="93"/>
</g>
<g transform="matrix(1,0,0,1,0,-27)">
<rect height="1" style="fill:white;" width="1" x="141" y="93"/>
</g>
<g transform="matrix(1,0,0,1,0,-27)">
<rect height="1" style="fill:white;" width="1" x="140" y="93"/>
</g>
<g transform="matrix(1,0,0,1,0,-27)">
<rect height="1" style="fill:white;" width="1.001" x="139" y="93"/>
</g>
<g transform="matrix(1,0,0,1,0,-27)">
<rect height="1" style="fill:white;" width="1" x="138" y="93"/>
</g>
<g transform="matrix(1,0,0,1,0,-27)">
<rect height="1" style="fill:white;" width="1" x="137" y="93"/>
</g>
<g transform="matrix(1,0,0,1,0,-27)">
<rect height="1" style="fill:white;" width="1" x="136" y="93"/>
</g>
<g transform="matrix(1,0,0,1,0,-27)">
<rect height="1" style="fill:white;" width="1" x="135" y="93"/>
</g>
<g transform="matrix(1,0,0,1,0,-27)">
<rect height="1" style="fill:white;" width="1" x="134" y="93"/>
</g>
<g transform="matrix(1,0,0,1,0,-27)">
<rect height="1" style="fill:white;" width="1" x="133" y="93"/>
</g>
<g transform="matrix(1,0,0,1,0,-27)">
<rect height="1" style="fill:white;" width="1" x="132" y="93"/>
</g>
<g transform="matrix(1,0,0,1,0,-27)">
<rect height="1" style="fill:white;" width="1" x="131" y="93"/>
</g>
<g transform="matrix(1,0,0,1,0,-27)">
<rect height="1" width="1.001" x="130" y="93"/>
</g>
<g transform="matrix(1,0,0,1,0,-29.001)">
<rect height="1.001" width="1" x="153" y="94"/>
</g>
<g transform="matrix(1,0,0,1,0,-29.001)">
<rect height="1.001" style="fill:rgb(155,173,183);" width="1" x="152" y="94"/>
</g>
<g transform="matrix(1,0,0,1,0,-29.001)">
<rect height="1.001" style="fill:rgb(155,173,183);" width="1" x="151" y="94"/>
</g>
<g transform="matrix(1,0,0,1,0,-29.001)">
<rect height="1.001" style="fill:rgb(155,173,183);" width="1" x="150" y="94"/>
</g>
<g transform="matrix(1,0,0,1,0,-29.001)">
<rect height="1.001" style="fill:rgb(155,173,183);" width="1" x="149" y="94"/>
</g>
<g transform="matrix(1,0,0,1,0,-29.001)">
<rect height="1.001" style="fill:rgb(155,173,183);" width="1.001" x="148" y="94"/>
</g>
<g transform="matrix(1,0,0,1,0,-29.001)">
<rect height="1.001" style="fill:rgb(155,173,183);" width="1" x="147" y="94"/>
</g>
<g transform="matrix(1,0,0,1,0,-29.001)">
<rect height="1.001" width="1" x="146" y="94"/>
</g>
<g transform="matrix(1,0,0,1,0,-29.001)">
<rect height="1.001" style="fill:white;" width="1" x="145" y="94"/>
</g>
<g transform="matrix(1,0,0,1,0,-29.001)">
<rect height="1.001" style="fill:white;" width="1" x="144" y="94"/>
</g>
<g transform="matrix(1,0,0,1,0,-29.001)">
<rect height="1.001" width="1" x="143" y="94"/>
</g>
<g transform="matrix(1,0,0,1,0,-29.001)">
<rect height="1.001" width="1" x="142" y="94"/>
</g>
<g transform="matrix(1,0,0,1,0,-29.001)">
<rect height="1.001" width="1" x="141" y="94"/>
</g>
<g transform="matrix(1,0,0,1,0,-29.001)">
<rect height="1.001" width="1" x="140" y="94"/>
</g>
<g transform="matrix(1,0,0,1,0,-29.001)">
<rect height="1.001" width="1.001" x="139" y="94"/>
</g>
<g transform="matrix(1,0,0,1,0,-29.001)">
<rect height="1.001" width="1" x="138" y="94"/>
</g>
<g transform="matrix(1,0,0,1,0,-29.001)">
<rect height="1.001" width="1" x="137" y="94"/>
</g>
<g transform="matrix(1,0,0,1,0,-29.001)">
<rect height="1.001" width="1" x="136" y="94"/>
</g>
<g transform="matrix(1,0,0,1,0,-29.001)">
<rect height="1.001" width="1" x="135" y="94"/>
</g>
<g transform="matrix(1,0,0,1,0,-29.001)">
<rect height="1.001" width="1" x="134" y="94"/>
</g>
<g transform="matrix(1,0,0,1,0,-29.001)">
<rect height="1.001" width="1" x="133" y="94"/>
</g>
<g transform="matrix(1,0,0,1,0,-29.001)">
<rect height="1.001" style="fill:white;" width="1" x="132" y="94"/>
</g>
<g transform="matrix(1,0,0,1,0,-29.001)">
<rect height="1.001" style="fill:white;" width="1" x="131" y="94"/>
</g>
<g transform="matrix(1,0,0,1,0,-29.001)">
<rect height="1.001" width="1.001" x="130" y="94"/>
</g>
<g transform="matrix(1,0,0,1,0,-31)">
<rect height="1" width="1" x="153" y="95"/>
</g>
<g transform="matrix(1,0,0,1,0,-31)">
<rect height="1" width="1" x="152" y="95"/>
</g>
<g transform="matrix(1,0,0,1,0,-31)">
<rect height="1" width="1" x="151" y="95"/>
</g>
<g transform="matrix(1,0,0,1,0,-31)">
<rect height="1" width="1" x="150" y="95"/>
</g>
<g transform="matrix(1,0,0,1,0,-31)">
<rect height="1" width="1" x="149" y="95"/>
</g>
<g transform="matrix(1,0,0,1,0,-31)">
<rect height="1" width="1.001" x="148" y="95"/>
</g>
<g transform="matrix(1,0,0,1,0,-31)">
<rect height="1" width="1" x="147" y="95"/>
</g>
<g transform="matrix(1,0,0,1,0,-31)">
<rect height="1" width="1" x="146" y="95"/>
</g>
<g transform="matrix(1,0,0,1,0,-31)">
<rect height="1" style="fill:white;" width="1" x="145" y="95"/>
</g>
<g transform="matrix(1,0,0,1,0,-31)">
<rect height="1" style="fill:white;" width="1" x="144" y="95"/>
</g>
<g transform="matrix(1,0,0,1,0,-31)">
<rect height="1" style="fill:white;" width="1" x="143" y="95"/>
</g>
<g transform="matrix(1,0,0,1,0,-31)">
<rect height="1" style="fill:white;" width="1" x="142" y="95"/>
</g>
<g transform="matrix(1,0,0,1,0,-31)">
<rect height="1" style="fill:white;" width="1" x="141" y="95"/>
</g>
<g transform="matrix(1,0,0,1,0,-31)">
<rect height="1" style="fill:white;" width="1" x="140" y="95"/>
</g>
<g transform="matrix(1,0,0,1,0,-31)">
<rect height="1" style="fill:white;" width="1.001" x="139" y="95"/>
</g>
<g transform="matrix(1,0,0,1,0,-31)">
<rect height="1" style="fill:white;" width="1" x="138" y="95"/>
</g>
<g transform="matrix(1,0,0,1,0,-31)">
<rect height="1" style="fill:white;" width="1" x="137" y="95"/>
</g>
<g transform="matrix(1,0,0,1,0,-31)">
<rect height="1" style="fill:white;" width="1" x="136" y="95"/>
</g>
<g transform="matrix(1,0,0,1,0,-31)">
<rect height="1" style="fill:white;" width="1" x="135" y="95"/>
</g>
<g transform="matrix(1,0,0,1,0,-31)">
<rect height="1" style="fill:white;" width="1" x="134" y="95"/>
</g>
<g transform="matrix(1,0,0,1,0,-31)">
<rect height="1" style="fill:white;" width="1" x="133" y="95"/>
</g>
<g transform="matrix(1,0,0,1,0,-31)">
<rect height="1" style="fill:white;" width="1" x="132" y="95"/>
</g>
<g transform="matrix(1,0,0,1,0,-31)">
<rect height="1" style="fill:white;" width="1" x="131" y="95"/>
</g>
<g transform="matrix(1,0,0,1,0,-31)">
<rect height="1" width="1.001" x="130" y="95"/>
</g>
<g transform="matrix(1,0,0,1,0,-33)">
<rect height="1" width="1" x="146" y="96"/>
</g>
<g transform="matrix(1,0,0,1,0,-33)">
<rect height="1" style="fill:white;" width="1" x="145" y="96"/>
</g>
<g transform="matrix(1,0,0,1,0,-33)">
<rect height="1" style="fill:white;" width="1" x="144" y="96"/>
</g>
<g transform="matrix(1,0,0,1,0,-33)">
<rect height="1" style="fill:white;" width="1" x="143" y="96"/>
</g>
<g transform="matrix(1,0,0,1,0,-33)">
<rect height="1" style="fill:white;" width="1" x="142" y="96"/>
</g>
<g transform="matrix(1,0,0,1,0,-33)">
<rect height="1" style="fill:white;" width="1" x="141" y="96"/>
</g>
<g transform="matrix(1,0,0,1,0,-33)">
<rect height="1" style="fill:white;" width="1" x="140" y="96"/>
</g>
<g transform="matrix(1,0,0,1,0,-33)">
<rect height="1" style="fill:white;" width="1.001" x="139" y="96"/>
</g>
<g transform="matrix(1,0,0,1,0,-33)">
<rect height="1" style="fill:white;" width="1" x="138" y="96"/>
</g>
<g transform="matrix(1,0,0,1,0,-33)">
<rect height="1" style="fill:white;" width="1" x="137" y="96"/>
</g>
<g transform="matrix(1,0,0,1,0,-33)">
<rect height="1" style="fill:white;" width="1" x="136" y="96"/>
</g>
<g transform="matrix(1,0,0,1,0,-33)">
<rect height="1" style="fill:white;" width="1" x="135" y="96"/>
</g>
<g transform="matrix(1,0,0,1,0,-33)">
<rect height="1" style="fill:white;" width="1" x="134" y="96"/>
</g>
<g transform="matrix(1,0,0,1,0,-33)">
<rect height="1" style="fill:white;" width="1" x="133" y="96"/>
</g>
<g transform="matrix(1,0,0,1,0,-33)">
<rect height="1" style="fill:white;" width="1" x="132" y="96"/>
</g>
<g transform="matrix(1,0,0,1,0,-33)">
<rect height="1" style="fill:white;" width="1" x="131" y="96"/>
</g>
<g transform="matrix(1,0,0,1,0,-33)">
<rect height="1" width="1.001" x="130" y="96"/>
</g>
<g transform="matrix(1,0,0,1,0,-35)">
<rect height="1" width="1" x="146" y="97"/>
</g>
<g transform="matrix(1,0,0,1,0,-35)">
<rect height="1" style="fill:white;" width="1" x="145" y="97"/>
</g>
<g transform="matrix(1,0,0,1,0,-35)">
<rect height="1" style="fill:white;" width="1" x="144" y="97"/>
</g>
<g transform="matrix(1,0,0,1,0,-35)">
<rect height="1" style="fill:white;" width="1" x="143" y="97"/>
</g>
<g transform="matrix(1,0,0,1,0,-35)">
<rect height="1" style="fill:white;" width="1" x="142" y="97"/>
</g>
<g transform="matrix(1,0,0,1,0,-35)">
<rect height="1" style="fill:white;" width="1" x="141" y="97"/>
</g>
<g transform="matrix(1,0,0,1,0,-35)">
<rect height="1" style="fill:white;" width="1" x="140" y="97"/>
</g>
<g transform="matrix(1,0,0,1,0,-35)">
<rect height="1" style="fill:white;" width="1.001" x="139" y="97"/>
</g>
<g transform="matrix(1,0,0,1,0,-35)">
<rect height="1" width="1" x="138" y="97"/>
</g>
<g transform="matrix(1,0,0,1,0,-35)">
<rect height="1" style="fill:white;" width="1" x="137" y="97"/>
</g>
<g transform="matrix(1,0,0,1,0,-35)">
<rect height="1" style="fill:white;" width="1" x="136" y="97"/>
</g>
<g transform="matrix(1,0,0,1,0,-35)">
<rect height="1" style="fill:white;" width="1" x="135" y="97"/>
</g>
<g transform="matrix(1,0,0,1,0,-35)">
<rect height="1" style="fill:white;" width="1" x="134" y="97"/>
</g>
<g transform="matrix(1,0,0,1,0,-35)">
<rect height="1" style="fill:white;" width="1" x="133" y="97"/>
</g>
<g transform="matrix(1,0,0,1,0,-35)">
<rect height="1" style="fill:white;" width="1" x="132" y="97"/>
</g>
<g transform="matrix(1,0,0,1,0,-35)">
<rect height="1" style="fill:white;" width="1" x="131" y="97"/>
</g>
<g transform="matrix(1,0,0,1,0,-35)">
<rect height="1" width="1.001" x="130" y="97"/>
</g>
<g transform="matrix(1,0,0,1,0,-37)">
<rect height="1" width="1" x="146" y="98"/>
</g>
<g transform="matrix(1,0,0,1,0,-37)">
<rect height="1" style="fill:white;" width="1" x="145" y="98"/>
</g>
<g transform="matrix(1,0,0,1,0,-37)">
<rect height="1" style="fill:white;" width="1" x="144" y="98"/>
</g>
<g transform="matrix(1,0,0,1,0,-37)">
<rect height="1" style="fill:white;" width="1" x="143" y="98"/>
</g>
<g transform="matrix(1,0,0,1,0,-37)">
<rect height="1" style="fill:white;" width="1" x="142" y="98"/>
</g>
<g transform="matrix(1,0,0,1,0,-37)">
<rect height="1" style="fill:white;" width="1" x="141" y="98"/>
</g>
<g transform="matrix(1,0,0,1,0,-37)">
<rect height="1" style="fill:white;" width="1" x="140" y="98"/>
</g>
<g transform="matrix(1,0,0,1,0,-37)">
<rect height="1" width="1.001" x="139" y="98"/>
</g>
<g transform="matrix(1,0,0,1,0,-37)">
<rect height="1" style="fill:rgb(223,113,38);" width="1" x="138" y="98"/>
</g>
<g transform="matrix(1,0,0,1,0,-37)">
<rect height="1" width="1" x="137" y="98"/>
</g>
<g transform="matrix(1,0,0,1,0,-37)">
<rect height="1" style="fill:white;" width="1" x="136" y="98"/>
</g>
<g transform="matrix(1,0,0,1,0,-37)">
<rect height="1" style="fill:white;" width="1" x="135" y="98"/>
</g>
<g transform="matrix(1,0,0,1,0,-37)">
<rect height="1" style="fill:white;" width="1" x="134" y="98"/>
</g>
<g transform="matrix(1,0,0,1,0,-37)">
<rect height="1" style="fill:white;" width="1" x="133" y="98"/>
</g>
<g transform="matrix(1,0,0,1,0,-37)">
<rect height="1" style="fill:white;" width="1" x="132" y="98"/>
</g>
<g transform="matrix(1,0,0,1,0,-37)">
<rect height="1" style="fill:white;" width="1" x="131" y="98"/>
</g>
<g transform="matrix(1,0,0,1,0,-37)">
<rect height="1" width="1.001" x="130" y="98"/>
</g>
<g transform="matrix(1,0,0,1,0,-39)">
<rect height="1" width="1" x="146" y="99"/>
</g>
<g transform="matrix(1,0,0,1,0,-39)">
<rect height="1" style="fill:white;" width="1" x="145" y="99"/>
</g>
<g transform="matrix(1,0,0,1,0,-39)">
<rect height="1" style="fill:white;" width="1" x="144" y="99"/>
</g>
<g transform="matrix(1,0,0,1,0,-39)">
<rect height="1" style="fill:white;" width="1" x="143" y="99"/>
</g>
<g transform="matrix(1,0,0,1,0,-39)">
<rect height="1" style="fill:white;" width="1" x="142" y="99"/>
</g>
<g transform="matrix(1,0,0,1,0,-39)">
<rect height="1" style="fill:white;" width="1" x="141" y="99"/>
</g>
<g transform="matrix(1,0,0,1,0,-39)">
<rect height="1" width="1" x="140" y="99"/>
</g>
<g transform="matrix(1,0,0,1,0,-39)">
<rect height="1" style="fill:rgb(223,113,38);" width="1.001" x="139" y="99"/>
</g>
<g transform="matrix(1,0,0,1,0,-39)">
<rect height="1" style="fill:rgb(223,113,38);" width="1" x="138" y="99"/>
</g>
<g transform="matrix(1,0,0,1,0,-39)">
<rect height="1" style="fill:rgb(251,242,54);" width="1" x="137" y="99"/>
</g>
<g transform="matrix(1,0,0,1,0,-39)">
<rect height="1" width="1" x="136" y="99"/>
</g>
<g transform="matrix(1,0,0,1,0,-39)">
<rect height="1" style="fill:white;" width="1" x="135" y="99"/>
</g>
<g transform="matrix(1,0,0,1,0,-39)">
<rect height="1" style="fill:white;" width="1" x="134" y="99"/>
</g>
<g transform="matrix(1,0,0,1,0,-39)">
<rect height="1" style="fill:white;" width="1" x="133" y="99"/>
</g>
<g transform="matrix(1,0,0,1,0,-39)">
<rect height="1" style="fill:white;" width="1" x="132" y="99"/>
</g>
<g transform="matrix(1,0,0,1,0,-39)">
<rect height="1" style="fill:white;" width="1" x="131" y="99"/>
</g>
<g transform="matrix(1,0,0,1,0,-39)">
<rect height="1" width="1.001" x="130" y="99"/>
</g>
<g transform="matrix(1,0,0,1,0,-41)">
<rect height="1" width="1" x="146" y="100"/>
</g>
<g transform="matrix(1,0,0,1,0,-41)">
<rect height="1" style="fill:white;" width="1" x="145" y="100"/>
</g>
<g transform="matrix(1,0,0,1,0,-41)">
<rect height="1" style="fill:white;" width="1" x="144" y="100"/>
</g>
<g transform="matrix(1,0,0,1,0,-41)">
<rect height="1" style="fill:white;" width="1" x="143" y="100"/>
</g>
<g transform="matrix(1,0,0,1,0,-41)">
<rect height="1" style="fill:white;" width="1" x="142" y="100"/>
</g>
<g transform="matrix(1,0,0,1,0,-41)">
<rect height="1" width="1" x="141" y="100"/>
</g>
<g transform="matrix(1,0,0,1,0,-41)">
<rect height="1" style="fill:rgb(223,113,38);" width="1" x="140" y="100"/>
</g>
<g transform="matrix(1,0,0,1,0,-41)">
<rect height="1" style="fill:rgb(223,113,38);" width="1.001" x="139" y="100"/>
</g>
<g transform="matrix(1,0,0,1,0,-41)">
<rect height="1" style="fill:rgb(223,113,38);" width="1" x="138" y="100"/>
</g>
<g transform="matrix(1,0,0,1,0,-41)">
<rect height="1" style="fill:rgb(251,242,54);" width="1" x="137" y="100"/>
</g>
<g transform="matrix(1,0,0,1,0,-41)">
<rect height="1" style="fill:rgb(251,242,54);" width="1" x="136" y="100"/>
</g>
<g transform="matrix(1,0,0,1,0,-41)">
<rect height="1" width="1" x="135" y="100"/>
</g>
<g transform="matrix(1,0,0,1,0,-41)">
<rect height="1" style="fill:white;" width="1" x="134" y="100"/>
</g>
<g transform="matrix(1,0,0,1,0,-41)">
<rect height="1" style="fill:white;" width="1" x="133" y="100"/>
</g>
<g transform="matrix(1,0,0,1,0,-41)">
<rect height="1" style="fill:white;" width="1" x="132" y="100"/>
</g>
<g transform="matrix(1,0,0,1,0,-41)">
<rect height="1" style="fill:white;" width="1" x="131" y="100"/>
</g>
<g transform="matrix(1,0,0,1,0,-41)">
<rect height="1" width="1.001" x="130" y="100"/>
</g>
<g transform="matrix(1,0,0,1,0,-43)">
<rect height="1" width="1" x="146" y="101"/>
</g>
<g transform="matrix(1,0,0,1,0,-43)">
<rect height="1" style="fill:white;" width="1" x="145" y="101"/>
</g>
<g transform="matrix(1,0,0,1,0,-43)">
<rect height="1" width="1" x="144" y="101"/>
</g>
<g transform="matrix(1,0,0,1,0,-43)">
<rect height="1" width="1" x="143" y="101"/>
</g>
<g transform="matrix(1,0,0,1,0,-43)">
<rect height="1" style="fill:white;" width="1" x="142" y="101"/>
</g>
<g transform="matrix(1,0,0,1,0,-43)">
<rect height="1" width="1" x="141" y="101"/>
</g>
<g transform="matrix(1,0,0,1,0,-43)">
<rect height="1" style="fill:rgb(223,113,38);" width="1" x="140" y="101"/>
</g>
<g transform="matrix(1,0,0,1,0,-43)">
<rect height="1" style="fill:rgb(223,113,38);" width="1.001" x="139" y="101"/>
</g>
<g transform="matrix(1,0,0,1,0,-43)">
<rect height="1" style="fill:rgb(223,113,38);" width="1" x="138" y="101"/>
</g>
<g transform="matrix(1,0,0,1,0,-43)">
<rect height="1" style="fill:rgb(251,242,54);" width="1" x="137" y="101"/>
</g>
<g transform="matrix(1,0,0,1,0,-43)">
<rect height="1" style="fill:rgb(251,242,54);" width="1" x="136" y="101"/>
</g>
<g transform="matrix(1,0,0,1,0,-43)">
<rect height="1" width="1" x="135" y="101"/>
</g>
<g transform="matrix(1,0,0,1,0,-43)">
<rect height="1" style="fill:white;" width="1" x="134" y="101"/>
</g>
<g transform="matrix(1,0,0,1,0,-43)">
<rect height="1" width="1" x="133" y="101"/>
</g>
<g transform="matrix(1,0,0,1,0,-43)">
<rect height="1" width="1" x="132" y="101"/>
</g>
<g transform="matrix(1,0,0,1,0,-43)">
<rect height="1" style="fill:white;" width="1" x="131" y="101"/>
</g>
<g transform="matrix(1,0,0,1,0,-43)">
<rect height="1" width="1.001" x="130" y="101"/>
</g>
<g transform="matrix(1,0,0,1,0,-45)">
<rect height="1" width="1" x="146" y="102"/>
</g>
<g transform="matrix(1,0,0,1,0,-45)">
<rect height="1" style="fill:white;" width="1" x="145" y="102"/>
</g>
<g transform="matrix(1,0,0,1,0,-45)">
<rect height="1" style="fill:white;" width="1" x="144" y="102"/>
</g>
<g transform="matrix(1,0,0,1,0,-45)">
<rect height="1" style="fill:white;" width="1" x="143" y="102"/>
</g>
<g transform="matrix(1,0,0,1,0,-45)">
<rect height="1" style="fill:white;" width="1" x="142" y="102"/>
</g>
<g transform="matrix(1,0,0,1,0,-45)">
<rect height="1" width="1" x="141" y="102"/>
</g>
<g transform="matrix(1,0,0,1,0,-45)">
<rect height="1" style="fill:rgb(223,113,38);" width="1" x="140" y="102"/>
</g>
<g transform="matrix(1,0,0,1,0,-45)">
<rect height="1" style="fill:rgb(223,113,38);" width="1.001" x="139" y="102"/>
</g>
<g transform="matrix(1,0,0,1,0,-45)">
<rect height="1" style="fill:rgb(251,242,54);" width="1" x="138" y="102"/>
</g>
<g transform="matrix(1,0,0,1,0,-45)">
<rect height="1" style="fill:white;" width="1" x="137" y="102"/>
</g>
<g transform="matrix(1,0,0,1,0,-45)">
<rect height="1" style="fill:rgb(251,242,54);" width="1" x="136" y="102"/>
</g>
<g transform="matrix(1,0,0,1,0,-45)">
<rect height="1" width="1" x="135" y="102"/>
</g>
<g transform="matrix(1,0,0,1,0,-45)">
<rect height="1" style="fill:white;" width="1" x="134" y="102"/>
</g>
<g transform="matrix(1,0,0,1,0,-45)">
<rect height="1" style="fill:white;" width="1" x="133" y="102"/>
</g>
<g transform="matrix(1,0,0,1,0,-45)">
<rect height="1" style="fill:white;" width="1" x="132" y="102"/>
</g>
<g transform="matrix(1,0,0,1,0,-45)">
<rect height="1" style="fill:white;" width="1" x="131" y="102"/>
</g>
<g transform="matrix(1,0,0,1,0,-45)">
<rect height="1" width="1.001" x="130" y="102"/>
</g>
<g transform="matrix(1,0,0,1,0,-47.001)">
<rect height="1.001" width="1" x="146" y="103"/>
</g>
<g transform="matrix(1,0,0,1,0,-47.001)">
<rect height="1.001" style="fill:white;" width="1" x="145" y="103"/>
</g>
<g transform="matrix(1,0,0,1,0,-47.001)">
<rect height="1.001" style="fill:white;" width="1" x="144" y="103"/>
</g>
<g transform="matrix(1,0,0,1,0,-47.001)">
<rect height="1.001" style="fill:white;" width="1" x="143" y="103"/>
</g>
<g transform="matrix(1,0,0,1,0,-47.001)">
<rect height="1.001" style="fill:white;" width="1" x="142" y="103"/>
</g>
<g transform="matrix(1,0,0,1,0,-47.001)">
<rect height="1.001" width="1" x="141" y="103"/>
</g>
<g transform="matrix(1,0,0,1,0,-47.001)">
<rect height="1.001" style="fill:rgb(223,113,38);" width="1" x="140" y="103"/>
</g>
<g transform="matrix(1,0,0,1,0,-47.001)">
<rect height="1.001" style="fill:rgb(251,242,54);" width="1.001" x="139" y="103"/>
</g>
<g transform="matrix(1,0,0,1,0,-47.001)">
<rect height="1.001" style="fill:rgb(251,242,54);" width="1" x="138" y="103"/>
</g>
<g transform="matrix(1,0,0,1,0,-47.001)">
<rect height="1.001" style="fill:rgb(251,242,54);" width="1" x="137" y="103"/>
</g>
<g transform="matrix(1,0,0,1,0,-47.001)">
<rect height="1.001" style="fill:white;" width="1" x="136" y="103"/>
</g>
<g transform="matrix(1,0,0,1,0,-47.001)">
<rect height="1.001" width="1" x="135" y="103"/>
</g>
<g transform="matrix(1,0,0,1,0,-47.001)">
<rect height="1.001" style="fill:white;" width="1" x="134" y="103"/>
</g>
<g transform="matrix(1,0,0,1,0,-47.001)">
<rect height="1.001" style="fill:white;" width="1" x="133" y="103"/>
</g>
<g transform="matrix(1,0,0,1,0,-47.001)">
<rect height="1.001" style="fill:white;" width="1" x="132" y="103"/>
</g>
<g transform="matrix(1,0,0,1,0,-47.001)">
<rect height="1.001" style="fill:white;" width="1" x="131" y="103"/>
</g>
<g transform="matrix(1,0,0,1,0,-47.001)">
<rect height="1.001" width="1.001" x="130" y="103"/>
</g>
<g transform="matrix(1,0,0,1,0,-49)">
<rect height="1" width="1" x="146" y="104"/>
</g>
<g transform="matrix(1,0,0,1,0,-49)">
<rect height="1" style="fill:white;" width="1" x="145" y="104"/>
</g>
<g transform="matrix(1,0,0,1,0,-49)">
<rect height="1" style="fill:white;" width="1" x="144" y="104"/>
</g>
<g transform="matrix(1,0,0,1,0,-49)">
<rect height="1" style="fill:white;" width="1" x="143" y="104"/>
</g>
<g transform="matrix(1,0,0,1,0,-49)">
<rect height="1" style="fill:white;" width="1" x="142" y="104"/>
</g>
<g transform="matrix(1,0,0,1,0,-49)">
<rect height="1" style="fill:white;" width="1" x="141" y="104"/>
</g>
<g transform="matrix(1,0,0,1,0,-49)">
<rect height="1" width="1" x="140" y="104"/>
</g>
<g transform="matrix(1,0,0,1,0,-49)">
<rect height="1" style="fill:rgb(251,242,54);" width="1.001" x="139" y="104"/>
</g>
<g transform="matrix(1,0,0,1,0,-49)">
<rect height="1" style="fill:rgb(251,242,54);" width="1" x="138" y="104"/>
</g>
<g transform="matrix(1,0,0,1,0,-49)">
<rect height="1" style="fill:white;" width="1" x="137" y="104"/>
</g>
<g transform="matrix(1,0,0,1,0,-49)">
<rect height="1" width="1" x="136" y="104"/>
</g>
<g transform="matrix(1,0,0,1,0,-49)">
<rect height="1" style="fill:white;" width="1" x="135" y="104"/>
</g>
<g transform="matrix(1,0,0,1,0,-49)">
<rect height="1" style="fill:white;" width="1" x="134" y="104"/>
</g>
<g transform="matrix(1,0,0,1,0,-49)">
<rect height="1" style="fill:white;" width="1" x="133" y="104"/>
</g>
<g transform="matrix(1,0,0,1,0,-49)">
<rect height="1" style="fill:white;" width="1" x="132" y="104"/>
</g>
<g transform="matrix(1,0,0,1,0,-49)">
<rect height="1" style="fill:white;" width="1" x="131" y="104"/>
</g>
<g transform="matrix(1,0,0,1,0,-49)">
<rect height="1" width="1.001" x="130" y="104"/>
</g>
<g transform="matrix(1,0,0,1,0,-51)">
<rect height="1" width="1" x="146" y="105"/>
</g>
<g transform="matrix(1,0,0,1,0,-51)">
<rect height="1" style="fill:white;" width="1" x="145" y="105"/>
</g>
<g transform="matrix(1,0,0,1,0,-51)">
<rect height="1" style="fill:white;" width="1" x="144" y="105"/>
</g>
<g transform="matrix(1,0,0,1,0,-51)">
<rect height="1" style="fill:white;" width="1" x="143" y="105"/>
</g>
<g transform="matrix(1,0,0,1,0,-51)">
<rect height="1" style="fill:white;" width="1" x="142" y="105"/>
</g>
<g transform="matrix(1,0,0,1,0,-51)">
<rect height="1" style="fill:white;" width="1" x="141" y="105"/>
</g>
<g transform="matrix(1,0,0,1,0,-51)">
<rect height="1" style="fill:white;" width="1" x="140" y="105"/>
</g>
<g transform="matrix(1,0,0,1,0,-51)">
<rect height="1" width="1.001" x="139" y="105"/>
</g>
<g transform="matrix(1,0,0,1,0,-51)">
<rect height="1" style="fill:white;" width="1" x="138" y="105"/>
</g>
<g transform="matrix(1,0,0,1,0,-51)">
<rect height="1" width="1" x="137" y="105"/>
</g>
<g transform="matrix(1,0,0,1,0,-51)">
<rect height="1" style="fill:white;" width="1" x="136" y="105"/>
</g>
<g transform="matrix(1,0,0,1,0,-51)">
<rect height="1" style="fill:white;" width="1" x="135" y="105"/>
</g>
<g transform="matrix(1,0,0,1,0,-51)">
<rect height="1" style="fill:white;" width="1" x="134" y="105"/>
</g>
<g transform="matrix(1,0,0,1,0,-51)">
<rect height="1" style="fill:white;" width="1" x="133" y="105"/>
</g>
<g transform="matrix(1,0,0,1,0,-51)">
<rect height="1" style="fill:white;" width="1" x="132" y="105"/>
</g>
<g transform="matrix(1,0,0,1,0,-51)">
<rect height="1" style="fill:white;" width="1" x="131" y="105"/>
</g>
<g transform="matrix(1,0,0,1,0,-51)">
<rect height="1" width="1.001" x="130" y="105"/>
</g>
<g transform="matrix(1,0,0,1,0,-53)">
<rect height="1" width="1" x="146" y="106"/>
</g>
<g transform="matrix(1,0,0,1,0,-53)">
<rect height="1" style="fill:white;" width="1" x="145" y="106"/>
</g>
<g transform="matrix(1,0,0,1,0,-53)">
<rect height="1" style="fill:white;" width="1" x="144" y="106"/>
</g>
<g transform="matrix(1,0,0,1,0,-53)">
<rect height="1" style="fill:white;" width="1" x="143" y="106"/>
</g>
<g transform="matrix(1,0,0,1,0,-53)">
<rect height="1" style="fill:white;" width="1" x="142" y="106"/>
</g>
<g transform="matrix(1,0,0,1,0,-53)">
<rect height="1" style="fill:white;" width="1" x="141" y="106"/>
</g>
<g transform="matrix(1,0,0,1,0,-53)">
<rect height="1" style="fill:white;" width="1" x="140" y="106"/>
</g>
<g transform="matrix(1,0,0,1,0,-53)">
<rect height="1" style="fill:white;" width="1.001" x="139" y="106"/>
</g>
<g transform="matrix(1,0,0,1,0,-53)">
<rect height="1" width="1" x="138" y="106"/>
</g>
<g transform="matrix(1,0,0,1,0,-53)">
<rect height="1" style="fill:white;" width="1" x="137" y="106"/>
</g>
<g transform="matrix(1,0,0,1,0,-53)">
<rect height="1" style="fill:white;" width="1" x="136" y="106"/>
</g>
<g transform="matrix(1,0,0,1,0,-53)">
<rect height="1" style="fill:white;" width="1" x="135" y="106"/>
</g>
<g transform="matrix(1,0,0,1,0,-53)">
<rect height="1" style="fill:white;" width="1" x="134" y="106"/>
</g>
<g transform="matrix(1,0,0,1,0,-53)">
<rect height="1" style="fill:white;" width="1" x="133" y="106"/>
</g>
<g transform="matrix(1,0,0,1,0,-53)">
<rect height="1" style="fill:white;" width="1" x="132" y="106"/>
</g>
<g transform="matrix(1,0,0,1,0,-53)">
<rect height="1" style="fill:white;" width="1" x="131" y="106"/>
</g>
<g transform="matrix(1,0,0,1,0,-53)">
<rect height="1" width="1.001" x="130" y="106"/>
</g>
<g transform="matrix(1,0,0,1,0,-55)">
<rect height="1" width="1" x="146" y="107"/>
</g>
<g transform="matrix(1,0,0,1,0,-55)">
<rect height="1" style="fill:white;" width="1" x="145" y="107"/>
</g>
<g transform="matrix(1,0,0,1,0,-55)">
<rect height="1" style="fill:white;" width="1" x="144" y="107"/>
</g>
<g transform="matrix(1,0,0,1,0,-55)">
<rect height="1" style="fill:white;" width="1" x="143" y="107"/>
</g>
<g transform="matrix(1,0,0,1,0,-55)">
<rect height="1" style="fill:white;" width="1" x="142" y="107"/>
</g>
<g transform="matrix(1,0,0,1,0,-55)">
<rect height="1" style="fill:white;" width="1" x="141" y="107"/>
</g>
<g transform="matrix(1,0,0,1,0,-55)">
<rect height="1" style="fill:white;" width="1" x="140" y="107"/>
</g>
<g transform="matrix(1,0,0,1,0,-55)">
<rect height="1" style="fill:white;" width="1.001" x="139" y="107"/>
</g>
<g transform="matrix(1,0,0,1,0,-55)">
<rect height="1" style="fill:white;" width="1" x="138" y="107"/>
</g>
<g transform="matrix(1,0,0,1,0,-55)">
<rect height="1" style="fill:white;" width="1" x="137" y="107"/>
</g>
<g transform="matrix(1,0,0,1,0,-55)">
<rect height="1" style="fill:white;" width="1" x="136" y="107"/>
</g>
<g transform="matrix(1,0,0,1,0,-55)">
<rect height="1" style="fill:white;" width="1" x="135" y="107"/>
</g>
<g transform="matrix(1,0,0,1,0,-55)">
<rect height="1" style="fill:white;" width="1" x="134" y="107"/>
</g>
<g transform="matrix(1,0,0,1,0,-55)">
<rect height="1" style="fill:white;" width="1" x="133" y="107"/>
</g>
<g transform="matrix(1,0,0,1,0,-55)">
<rect height="1" style="fill:white;" width="1" x="132" y="107"/>
</g>
<g transform="matrix(1,0,0,1,0,-55)">
<rect height="1" style="fill:white;" width="1" x="131" y="107"/>
</g>
<g transform="matrix(1,0,0,1,0,-55)">
<rect height="1" width="1.001" x="130" y="107"/>
</g>
<g transform="matrix(1,0,0,1,0,-57)">
<rect height="1" width="1" x="145" y="108"/>
</g>
<g transform="matrix(1,0,0,1,0,-57)">
<rect height="1" width="1" x="144" y="108"/>
</g>
<g transform="matrix(1,0,0,1,0,-57)">
<rect height="1" width="1" x="143" y="108"/>
</g>
<g transform="matrix(1,0,0,1,0,-57)">
<rect height="1" width="1" x="142" y="108"/>
</g>
<g transform="matrix(1,0,0,1,0,-57)">
<rect height="1" width="1" x="141" y="108"/>
</g>
<g transform="matrix(1,0,0,1,0,-57)">
<rect height="1" width="1" x="140" y="108"/>
</g>
<g transform="matrix(1,0,0,1,0,-57)">
<rect height="1" width="1.001" x="139" y="108"/>
</g>
<g transform="matrix(1,0,0,1,0,-57)">
<rect height="1" width="1" x="138" y="108"/>
</g>
<g transform="matrix(1,0,0,1,0,-57)">
<rect height="1" width="1" x="137" y="108"/>
</g>
<g transform="matrix(1,0,0,1,0,-57)">
<rect height="1" width="1" x="136" y="108"/>
</g>
<g transform="matrix(1,0,0,1,0,-57)">
<rect height="1" width="1" x="135" y="108"/>
</g>
<g transform="matrix(1,0,0,1,0,-57)">
<rect height="1" width="1" x="134" y="108"/>
</g>
<g transform="matrix(1,0,0,1,0,-57)">
<rect height="1" width="1" x="133" y="108"/>
</g>
<g transform="matrix(1,0,0,1,0,-57)">
<rect height="1" width="1" x="132" y="108"/>
</g>
<g transform="matrix(1,0,0,1,0,-57)">
<rect height="1" width="1" x="131" y="108"/>
</g>
</g>
</g>
</svg>