<?xml version="1.0" encoding="iso-8859-1"?>
<!-- Uploaded to: SVG Repo, www.svgrepo.com, Generator: SVG Repo Mixer Tools -->
<svg height="800px" width="800px" version="1.1" id="Layer_1" xmlns="http://www.w3.org/2000/svg" xmlns:xlink="http://www.w3.org/1999/xlink" 
	 viewBox="0 0 512 512" xml:space="preserve">
<polygon style="fill:#367596;" points="256,90.022 222.242,301.011 256,512 512,301.011 "/>
<g>
	<polygon style="fill:#5195AF;" points="0,301.011 256,512 256,90.022 	"/>
	<polygon style="fill:#5195AF;" points="256,45.011 256,278.505 484.693,278.505 512,256 	"/>
</g>
<polygon style="fill:#88ACB5;" points="0,256 27.307,278.505 256,278.505 256,45.011 "/>
<polygon style="fill:#25BBCC;" points="256,90.022 222.242,278.505 256,466.989 484.693,278.505 "/>
<polygon style="fill:#50D1DD;" points="27.307,278.505 256,466.989 256,90.022 "/>
<polygon style="fill:#D0FBFD;" points="256,0 0,210.989 27.307,233.495 484.693,233.495 512,210.989 "/>
<polygon style="fill:#A7CBCF;" points="457.387,256 484.693,233.495 256,45.011 27.307,233.495 54.613,256 "/>
<polygon style="fill:#78E3EC;" points="256,333.193 323.517,366.332 457.387,256 256,90.022 54.613,256 188.484,366.332 "/>
<polygon style="fill:#A0F6FA;" points="256,310.687 256,342.738 289.758,366.332 323.517,366.332 "/>
<polygon style="fill:#D0FBFD;" points="188.484,366.332 289.758,366.332 256,310.687 "/>
</svg>