<?xml version="1.0" encoding="iso-8859-1"?>
<!-- Uploaded to: SVG Repo, www.svgrepo.com, Generator: SVG Repo Mixer Tools -->
<svg height="800px" width="800px" version="1.1" id="Layer_1" xmlns="http://www.w3.org/2000/svg" xmlns:xlink="http://www.w3.org/1999/xlink" 
	 viewBox="0 0 490 490" xml:space="preserve">
<g>
	<g id="XMLID_17_">
		<g>
			<polygon style="fill:#FFD248;" points="420,167.5 420,207.5 390,207.5 350,207.5 350,202.5 350,167.5 365,167.5 			"/>
			<polygon style="fill:#D1D3D4;" points="350,207.5 350,232.5 290,232.5 290,202.5 350,202.5 			"/>
			<polygon style="fill:#6D6E71;" points="215,137.5 365,137.5 365,162.5 365,167.5 350,167.5 215,167.5 			"/>
			<polygon style="fill:#D1D3D4;" points="290,202.5 290,232.5 165,232.5 120,232.5 120,202.5 			"/>
			<polygon style="fill:#FFD248;" points="60,167.5 100,167.5 115,167.5 115,137.5 140,137.5 215,137.5 215,167.5 350,167.5 
				350,202.5 290,202.5 120,202.5 120,232.5 95,232.5 60,232.5 60,212.5 60,207.5 10,207.5 10,167.5 			"/>
			<polygon style="fill:#6D6E71;" points="170,402.5 75,402.5 75,372.5 95,372.5 155,372.5 170,372.5 170,387.5 			"/>
			<polygon style="fill:#A7A9AC;" points="160,302.5 155,372.5 95,372.5 95,232.5 120,232.5 165,232.5 			"/>
			<path style="fill:#9CD2CB;" d="M140,127.5v10h-25v30h-15c-22.1,0-40-17.9-40-40s17.9-40,40-40S140,105.4,140,127.5z"/>
		</g>
		<path style="fill:#231F20;" d="M490,157.5h-70h-45v-45h-20v15H215h-65c0-27.57-22.43-50-50-50s-50,22.43-50,50
			c0,11.248,3.735,21.638,10.027,30H20v-15H0v90h20v-15h30v15c0,5.523,4.477,10,10,10h25v120H75c-5.523,0-10,4.477-10,10v30
			c0,5.523,4.477,10,10,10h95c5.523,0,10-4.477,10-10v-15c0-6.068,2.606-9.915,8.45-12.475c5.555-2.433,11.542-2.524,11.55-2.525
			h155c18.092,0,32.145-8.178,39.569-23.028C399.848,338.915,400,328.637,400,327.5v-110h20c5.522,0,10-4.477,10-10v-30h60V157.5z
			 M300,212.5h40v10h-40V212.5z M355,157.5H225v-10h130V157.5z M70,127.5c0-16.542,13.458-30,30-30s30,13.458,30,30h-15
			c-5.523,0-10,4.477-10,10v20h-5C83.458,157.5,70,144.042,70,127.5z M70,212.5v-25H50v10H20v-20h95h60v-20h-50v-10h80v20
			c0,5.523,4.477,10,10,10h125v15h-50H120c-5.523,0-10,4.477-10,10v20H70V212.5z M130,222.5v-10h150v10H130z M105,242.5h15h34.26
			l-1.071,15H120v20h31.76l-1.071,15H120v20h29.26l-1.071,15H120v20h26.76l-1.071,15H105V242.5z M160,392.5H85v-10h75V392.5z
			 M380,327.436c-0.001,0.07-0.132,7.049-3.57,13.582c-4.067,7.727-11.077,11.482-21.43,11.482H200
			c-0.972,0-9.762,0.109-18.846,3.894c-3.9,1.625-7.281,3.703-10.146,6.157c-0.331-0.033-0.667-0.051-1.007-0.051h-4.26l8.571-120
			H290h60c5.522,0,10-4.477,10-10v-15h20V327.436z M410,197.5h-50v-20h50V197.5z"/>
	</g>
</g>
</svg>