<?xml version="1.0" encoding="iso-8859-1"?>
<!-- Uploaded to: SVG Repo, www.svgrepo.com, Generator: SVG Repo Mixer Tools -->
<svg height="800px" width="800px" version="1.1" id="Layer_1" xmlns="http://www.w3.org/2000/svg" xmlns:xlink="http://www.w3.org/1999/xlink" 
	 viewBox="0 0 512.001 512.001" xml:space="preserve">
<path style="fill:#D6D6D6;" d="M366.237,352.138l-28.212,28.212L47.909,90.234c-12.11-12.1-19.968-27.752-22.486-44.586
	c-0.251-1.62-0.439-3.239-0.585-4.88l-0.021-0.24L21.943,7.844L366.237,352.138z"/>
<path style="fill:#F75534;" d="M490.057,484.223c0,5.099-1.944,10.209-5.841,14.106c-0.042,0.042-0.094,0.094-0.136,0.136
	c-7.805,7.649-20.334,7.607-28.076-0.136L347.251,389.577l28.212-28.212l108.753,108.753
	C488.114,474.015,490.057,479.114,490.057,484.223z"/>
<path style="fill:#BD391E;" d="M489.765,484.526c0,5.036-1.891,10.073-5.684,13.939c-7.805,7.649-20.334,7.607-28.076-0.136
	L347.251,389.577l13.333-13.333l100.561,100.561c7.795,7.795,19.529,8.683,27.324,0.899c0.021-0.031,0.052-0.063,0.073-0.084
	C489.357,479.845,489.765,482.186,489.765,484.526z"/>
<path style="fill:#B3B3B3;" d="M351.337,367.038l-13.312,13.312L47.909,90.234c-12.11-12.1-19.968-27.752-22.486-44.586
	c-0.251-1.62-0.439-3.239-0.585-4.88l-0.021-0.24L351.337,367.038z"/>
<path style="fill:#362928;" d="M405.625,341.311l-78.428,78.428c-1.632,1.632-4.279,1.632-5.911,0l-13.255-13.255
	c-1.632-1.632-1.632-4.279,0-5.911l78.428-78.428c1.632-1.632,4.279-1.632,5.911,0l13.255,13.255
	C407.257,337.032,407.257,339.679,405.625,341.311z"/>
<path style="fill:#D6D6D6;" d="M490.057,7.844l-2.267,25.778l-0.303,3.438l-0.324,3.709c-0.146,1.599-0.334,3.187-0.575,4.775
	c-2.497,16.875-10.365,32.569-22.497,44.69l-290.9,290.9l-28.212-28.212L490.057,7.844z"/>
<polygon style="fill:#B3B3B3;" points="490.057,7.844 487.79,33.622 487.487,37.059 158.302,366.244 144.98,352.922 "/>
<path style="fill:#F75534;" d="M164.749,389.577L55.998,498.327c-7.791,7.791-20.421,7.791-28.212,0l0,0
	c-7.791-7.791-7.791-20.422,0-28.212l108.751-108.751L164.749,389.577z"/>
<path style="fill:#BD391E;" d="M40.673,483.869l109.185-109.185l-13.32-13.32L27.786,470.115c-7.791,7.791-7.791,20.421,0,28.212
	l0,0c2.25,2.25,4.908,3.827,7.731,4.778C33.754,496.458,35.46,489.082,40.673,483.869z"/>
<path style="fill:#362928;" d="M106.375,341.311l78.428,78.428c1.632,1.632,4.279,1.632,5.911,0l13.255-13.255
	c1.632-1.632,1.632-4.279,0-5.911l-78.428-78.428c-1.632-1.632-4.279-1.632-5.911,0L106.375,335.4
	C104.743,337.032,104.743,339.679,106.375,341.311z"/>
<path d="M458.554,84.69L339.539,203.705c-3.061,3.062-3.061,8.023,0,11.084c1.53,1.53,3.536,2.295,5.541,2.295
	c2.005,0,4.011-0.765,5.541-2.295L469.637,95.773c14.544-14.545,23.545-33.839,25.343-54.327l2.89-32.923
	c0.288-3.283-1.508-6.395-4.494-7.788c-2.986-1.394-6.524-0.77-8.854,1.56L456.918,29.9c-3.06,3.062-3.06,8.023,0,11.084
	c3.06,3.059,8.023,3.059,11.083,0l12.372-12.372l-1.006,11.464C477.889,56.901,470.498,72.746,458.554,84.69z"/>
<path d="M22.239,503.875C27.655,509.292,34.771,512,41.887,512s14.232-2.708,19.648-8.125l22.241-22.241
	c0.014-0.014,0.027-0.027,0.041-0.041l29.088-29.088c0.013-0.013,0.025-0.025,0.038-0.038l29.092-29.092
	c0.01-0.01,0.021-0.021,0.032-0.032l17.627-17.627l18.962,18.962c2.431,2.431,5.664,3.77,9.102,3.77c3.439,0,6.672-1.339,9.101-3.77
	l12.048-12.048c2.43-2.431,3.769-5.663,3.769-9.1c0-3.439-1.34-6.671-3.77-9.101l-18.963-18.963L256,309.41l66.058,66.06
	l-18.963,18.963c-2.431,2.43-3.77,5.662-3.77,9.101c0,3.437,1.339,6.669,3.77,9.101l12.046,12.045
	c2.43,2.433,5.663,3.771,9.102,3.771c3.438,0,6.671-1.339,9.101-3.77l18.963-18.963l17.628,17.628c0.01,0.01,0.02,0.02,0.03,0.03
	l29.094,29.094c0.011,0.011,0.024,0.024,0.036,0.036l29.089,29.089c0.014,0.014,0.027,0.027,0.041,0.041l22.241,22.241
	c5.417,5.417,12.533,8.125,19.648,8.125s14.232-2.708,19.648-8.126c10.833-10.832,10.833-28.461,0-39.295l-98.158-98.158
	l18.963-18.963c2.431-2.43,3.77-5.663,3.77-9.101c0-3.439-1.34-6.671-3.77-9.1l-12.047-12.049c-5.018-5.016-13.182-5.017-18.201,0
	l-18.963,18.964l-66.058-66.058l23.977-23.977c3.06-3.062,3.06-8.023,0-11.084c-3.06-3.059-8.023-3.059-11.083,0l-29.518,29.516
	c-0.001,0-0.002,0.001-0.002,0.002s-0.001,0.001-0.002,0.002l-28.207,28.207c-0.001,0.001-0.003,0.003-0.005,0.004
	c-0.002,0.001-0.003,0.003-0.004,0.004l-71.596,71.596l-13.382-13.382l-3.748-3.748l71.593-71.592
	c0.002-0.002,0.005-0.004,0.008-0.007s0.004-0.005,0.007-0.008l28.199-28.199c0.002-0.002,0.004-0.004,0.007-0.006
	c0.002-0.002,0.004-0.004,0.006-0.007L443.917,65.068c3.06-3.062,3.06-8.023,0-11.084c-3.06-3.059-8.023-3.059-11.083,0L256,230.817
	l-55.586-55.586c-3.061-3.059-8.023-3.059-11.083,0c-3.061,3.062-3.061,8.023,0,11.084l55.585,55.585l-17.129,17.13L53.443,84.686
	c-11.938-11.928-19.326-27.769-20.805-44.61l-1.007-11.461l130.584,130.584c3.061,3.059,8.023,3.059,11.083,0
	c3.061-3.062,3.061-8.023,0-11.084L27.479,2.296c-2.33-2.329-5.868-2.953-8.854-1.56c-2.986,1.394-4.782,4.507-4.493,7.789
	l2.894,32.925c1.8,20.504,10.799,39.797,25.338,54.323l174.341,174.341l-66.058,66.058l-18.964-18.964
	c-5.019-5.019-13.183-5.017-18.201,0.001l-12.047,12.047c-2.431,2.43-3.77,5.662-3.77,9.101c0,3.438,1.339,6.671,3.77,9.101
	l18.963,18.963L22.24,464.579C11.405,475.413,11.405,493.041,22.239,503.875z M427.602,424.585l-21.734,12.526l-17.65-17.65
	l21.734-12.526L427.602,424.585z M456.728,453.711l-21.733,12.527l-17.65-17.65l21.734-12.526L456.728,453.711z M478.678,492.792
	c-4.723,4.725-12.408,4.725-17.13,0l-15.076-15.076l21.733-12.527l10.473,10.473C483.4,480.384,483.4,488.069,478.678,492.792z
	 M398.475,395.458l-21.734,12.526l-13.351-13.351l17.13-17.13L398.475,395.458z M389.419,330.274l8.082,8.083l-22.518,22.518
	c-0.002,0.002-0.003,0.003-0.005,0.005l-28.213,28.213c-0.002,0.002-0.003,0.003-0.005,0.005l-22.518,22.518l-8.082-8.082
	l22.429-22.429c0.032-0.031,0.067-0.057,0.098-0.089l28.213-28.213c0.033-0.033,0.061-0.069,0.093-0.102L389.419,330.274z
	 M350.272,347.255l-17.13,17.13l-66.058-66.059l17.129-17.129L350.272,347.255z M72.922,436.062l21.734,12.526l-17.65,17.65
	l-21.733-12.526L72.922,436.062z M102.049,406.934l21.734,12.526l-17.65,17.65l-21.734-12.526L102.049,406.934z M122.581,330.274
	l73.258,73.259l-8.082,8.082l-22.518-22.518c-0.002-0.002-0.003-0.003-0.005-0.005l-28.213-28.213
	c-0.002-0.002-0.003-0.003-0.005-0.005l-22.518-22.518L122.581,330.274z M148.61,394.634l-13.351,13.351l-21.734-12.526
	l17.954-17.954L148.61,394.634z M33.322,475.663l10.474-10.474l21.733,12.527l-15.076,15.076c-2.288,2.287-5.33,3.548-8.565,3.548
	c-3.236,0-6.278-1.26-8.565-3.547C28.6,488.069,28.6,480.384,33.322,475.663z"/>
</svg>