<?xml version="1.0" encoding="iso-8859-1"?>
<!-- Uploaded to: SVG Repo, www.svgrepo.com, Generator: SVG Repo Mixer Tools -->
<svg version="1.1" id="Layer_1" xmlns="http://www.w3.org/2000/svg" xmlns:xlink="http://www.w3.org/1999/xlink" 
	 viewBox="0 0 512.001 512.001" xml:space="preserve">
<path style="fill:#E7B636;" d="M52.27,141.404L4.895,93.914c-6.531-6.547-6.526-17.149,0.017-23.69l47.375-47.381
	c6.285-6.285,17.416-6.285,23.702,0l47.375,47.381c6.541,6.541,6.547,17.143,0.017,23.69l-47.375,47.49
	c-3.143,3.148-7.415,4.921-11.867,4.921S55.413,144.553,52.27,141.404z"/>
<path style="fill:#649CE2;" d="M109.036,60.823c1.576-1.58,2.463-2.469,2.463-2.469l118.608,118.601l-71.222,71.059L40.448,129.576
	C42.805,127.213,96.774,73.114,109.036,60.823z"/>
<g>
	
		<rect x="84.931" y="136.469" transform="matrix(-0.7071 0.7071 -0.7071 -0.7071 339.2029 165.9547)" style="fill:#598BC8;" width="100.6" height="33.519"/>
	<path style="fill:#598BC8;" d="M135.251,82.104l-71.138,71.138l-23.665-23.666c1.158-1.161,14.772-14.808,29.77-29.843l41.33-41.33
		L135.251,82.104z"/>
</g>
<path style="fill:#CFD8E4;" d="M507.087,453.95l-7.934-7.934l-280.92-280.92c-4.358-4.358-10.503-5.811-15.979-4.358
	c0,0,0,0.112-0.111,0.112c-2.235,0.447-4.358,1.564-6.146,3.129c-0.559,0.335-1.117,0.782-1.453,1.117l-25.701,25.701l-21.79,21.678
	c-3.129,3.129-4.917,7.375-4.917,11.845c0,4.47,1.788,8.716,4.917,11.845l225.719,225.607c21.007,21.008,49.39,32.07,77.996,32.07
	c17.99,0,36.093-4.358,52.519-13.297c4.581-2.57,7.822-7.151,8.492-12.403C512.563,463.001,510.775,457.638,507.087,453.95z"/>
<path style="fill:#A8B9C9;" d="M499.152,446.017c-36.651,8.939-76.543-1.453-104.032-28.941L169.401,191.468
	c-0.223-0.223-0.447-0.447-0.559-0.67l25.701-25.701c0.335-0.335,0.894-0.782,1.453-1.117c1.453-1.006,3.576-2.011,6.146-3.129
	c0.111,0,0.111-0.112,0.111-0.112c5.476-1.453,11.621,0,15.979,4.358L499.152,446.017z"/>
<path style="fill:#E6EAF0;" d="M8.709,480.493c-4.627-2.532-7.792-7.099-8.539-12.325c-0.748-5.222,1.009-10.493,4.741-14.224
	L293.765,165.09c6.541-6.541,17.138-6.547,23.69-0.017l47.49,47.381c3.148,3.143,4.921,7.41,4.921,11.861
	c0,4.446-1.768,8.714-4.911,11.861l-225.72,225.607C104.964,496.047,51.315,503.826,8.709,480.493z"/>
<path style="fill:#BBC9D6;" d="M12.847,446.008c36.692,8.93,76.581-1.468,104.04-28.92l225.721-225.606
	c0.222-0.222,0.383-0.489,0.591-0.722l-25.744-25.685c-6.553-6.531-17.149-6.526-23.69,0.017L12.847,446.008z"/>
<path style="fill:#E7B636;" d="M447.864,146.327c-4.452,0-8.725-1.773-11.867-4.921l-47.375-47.49
	c-6.531-6.547-6.526-17.149,0.017-23.69l47.375-47.381c6.285-6.285,17.416-6.285,23.702,0l47.375,47.381
	c6.541,6.541,6.547,17.143,0.017,23.69l-47.375,47.49C456.588,144.553,452.316,146.327,447.864,146.327z"/>
<path style="fill:#BC4931;" d="M471.553,129.576L353.118,248.013l-71.222-71.059L400.502,58.353c0,0,0.887,0.889,2.463,2.469
	C415.228,73.114,469.195,127.213,471.553,129.576z"/>
<g>
	
		<rect x="326.466" y="136.481" transform="matrix(0.7071 0.7071 -0.7071 0.7071 218.7093 -221.5308)" style="fill:#AF3D25;" width="100.6" height="33.519"/>
	<path style="fill:#AF3D25;" d="M376.75,82.104l71.138,71.138l23.666-23.666c-1.158-1.161-14.772-14.808-29.77-29.843l-41.33-41.33
		L376.75,82.104z"/>
</g>
<g>
	<path style="fill:#E7B636;" d="M364.909,259.89l-94.818-94.812c-6.547-6.541-6.547-17.155,0-23.702s17.155-6.547,23.702,0
		l94.818,94.812c6.547,6.541,6.547,17.155,0,23.702C382.062,266.438,371.456,266.438,364.909,259.89z"/>
	<path style="fill:#E7B636;" d="M147.093,259.89l94.818-94.812c6.547-6.541,6.547-17.155,0-23.702s-17.155-6.547-23.702,0
		l-94.818,94.812c-6.547,6.541-6.547,17.155,0,23.702C129.939,266.438,140.545,266.438,147.093,259.89z"/>
</g>
</svg>