<?xml version="1.0" encoding="iso-8859-1"?>
<!-- Uploaded to: SVG Repo, www.svgrepo.com, Generator: SVG Repo Mixer Tools -->
<svg height="800px" width="800px" version="1.1" id="Layer_1" xmlns="http://www.w3.org/2000/svg" xmlns:xlink="http://www.w3.org/1999/xlink" 
	 viewBox="0 0 512 512" xml:space="preserve">
<path d="M503.83,0H8.17C3.657,0,0,3.657,0,8.17v495.66c0,4.513,3.657,8.17,8.17,8.17h495.66c4.513,0,8.17-3.657,8.17-8.17V8.17
	C512,3.657,508.343,0,503.83,0z M182.574,413.05h-1.013v-0.474C181.897,412.737,182.236,412.892,182.574,413.05z M256,413.049
	c-86.597,0-157.049-70.452-157.049-157.049S169.403,98.951,256,98.951S413.049,169.403,413.049,256S342.597,413.049,256,413.049z
	 M330.439,412.576v0.474h-1.013C329.764,412.892,330.103,412.737,330.439,412.576z M82.61,247.83H16.34v-66.269H82.61V247.83z
	 M98.95,181.561h0.474c-0.16,0.337-0.315,0.675-0.474,1.013V181.561z M82.61,264.17v66.269H16.34V264.17H82.61z M98.95,329.426
	c0.158,0.338,0.313,0.677,0.474,1.013H98.95V329.426z M329.426,98.95h1.013v0.474C330.103,99.263,329.764,99.108,329.426,98.95z
	 M181.561,99.424V98.95h1.013C182.236,99.108,181.897,99.263,181.561,99.424z M412.576,181.561h0.474v1.013
	C412.892,182.236,412.737,181.897,412.576,181.561z M413.05,329.426v1.013h-0.474C412.737,330.103,412.892,329.764,413.05,329.426z
	 M429.39,264.17h66.269v66.269H429.39V264.17z M429.39,247.83v-66.269h66.269v66.269H429.39z M429.39,165.22V98.95h66.269v66.27
	L429.39,165.22L429.39,165.22z M413.05,165.22h-9.385c-14.257-23.105-33.78-42.629-56.885-56.885V98.95h66.27V165.22z M346.78,82.61
	V16.34h66.27V82.61H346.78z M330.439,82.61H264.17V16.34h66.269V82.61z M247.83,82.61h-66.269V16.34h66.269V82.61z M165.22,82.61
	H98.95V16.34h66.27L165.22,82.61L165.22,82.61z M165.22,98.95v9.385c-23.105,14.256-42.629,33.78-56.885,56.885H98.95V98.95H165.22z
	 M82.61,165.22H16.34V98.95H82.61V165.22z M16.34,346.78H82.61v66.27H16.34V346.78z M98.95,346.78h9.385
	c14.256,23.105,33.78,42.629,56.885,56.885v9.385H98.95V346.78z M165.22,429.39v66.269H98.95V429.39H165.22z M181.561,429.39h66.269
	v66.269h-66.269L181.561,429.39L181.561,429.39z M264.17,429.39h66.269v66.269H264.17V429.39z M346.78,429.39h66.27v66.269h-66.27
	V429.39z M346.78,413.05v-9.385c23.105-14.257,42.629-33.78,56.885-56.885h9.385v66.27H346.78z M429.39,346.78h66.269v66.27H429.39
	V346.78z M495.66,82.61H429.39V16.34h66.269V82.61z M82.61,16.34V82.61H16.34V16.34H82.61z M16.34,429.39H82.61v66.269H16.34V429.39
	z M429.39,495.66V429.39h66.269v66.269H429.39z"/>
<path style="fill:#6DDEB4;" d="M359.563,330.439H346.78V264.17h41.759c4.513,0,8.17-3.657,8.17-8.17s-3.657-8.17-8.17-8.17H346.78
	v-66.269h12.793c4.513,0,8.17-3.657,8.17-8.17c0-4.513-3.657-8.17-8.17-8.17H346.78v-12.783c0-4.513-3.657-8.17-8.17-8.17
	c-4.513,0-8.17,3.657-8.17,8.17v12.783H264.17v-41.759c0-4.513-3.657-8.17-8.17-8.17s-8.17,3.657-8.17,8.17v41.759h-66.269v-12.784
	c0-4.513-3.657-8.17-8.17-8.17c-4.513,0-8.17,3.657-8.17,8.17v12.784h-12.784c-4.513,0-8.17,3.657-8.17,8.17
	c0,4.513,3.657,8.17,8.17,8.17h12.784v66.269h-41.76c-4.513,0-8.17,3.657-8.17,8.17s3.657,8.17,8.17,8.17h41.76v66.269h-12.783
	c-4.513,0-8.17,3.657-8.17,8.17c0,4.513,3.657,8.17,8.17,8.17h12.783v12.783c0,4.513,3.657,8.17,8.17,8.17
	c4.513,0,8.17-3.657,8.17-8.17V346.78h66.269v41.759c0,4.513,3.657,8.17,8.17,8.17s8.17-3.657,8.17-8.17V346.78h66.269v12.784
	c0,4.513,3.657,8.17,8.17,8.17c4.513,0,8.17-3.657,8.17-8.17V346.78h12.784c4.513,0,8.17-3.657,8.17-8.17
	C367.734,334.096,364.077,330.439,359.563,330.439z M330.439,181.561v66.269H264.17v-66.269L330.439,181.561L330.439,181.561z
	 M181.561,181.561h66.269v66.269h-66.269L181.561,181.561L181.561,181.561z M181.561,330.439V264.17h66.269v66.269H181.561z
	 M264.17,330.439V264.17h66.269v66.269H264.17z"/>
</svg>