<?xml version="1.0" ?><!-- Uploaded to: SVG Repo, www.svgrepo.com, Generator: SVG Repo Mixer Tools -->
<svg width="800px" height="800px" viewBox="0 0 2050 2050" data-name="Layer 2" id="Layer_2" xmlns="http://www.w3.org/2000/svg"><defs><style>.cls-1{fill:#67baeb;}.cls-2{fill:#46a1f8;}.cls-3{fill:#4d4c78;}.cls-4{fill:#323150;}.cls-5{fill:#f4c23f;}.cls-6{fill:#f4a93f;}.cls-7{fill:#de3226;}.cls-8{fill:#b11a31;}.cls-9{fill:#f8881b;}.cls-10{fill:#f08000;}.cls-11{fill:#fad564;}.cls-12{fill:#f44533;}</style></defs><title/><path class="cls-1" d="M1025,193.6c-459.2,0-831.4,372.2-831.4,831.4s372.2,831.4,831.4,831.4,831.4-372.2,831.4-831.4S1484.2,193.6,1025,193.6Zm517.2,1342.3a730.5,730.5,0,0,1-232.5,154.9c-90.1,37.7-185.9,56.7-284.7,56.7s-194.6-19-284.7-56.7a730.5,730.5,0,0,1-232.5-154.9A721.4,721.4,0,0,1,351,1306.2a717.5,717.5,0,0,1,0-562.4A721.4,721.4,0,0,1,507.8,514.1,730.5,730.5,0,0,1,740.3,359.2c90.1-37.7,185.9-56.7,284.7-56.7s194.6,19,284.7,56.7a730.5,730.5,0,0,1,232.5,154.9A721.4,721.4,0,0,1,1699,743.8a717.5,717.5,0,0,1,0,562.4A721.4,721.4,0,0,1,1542.2,1535.9Z"/><path class="cls-2" d="M1025,246.9c-429.8,0-778.1,348.3-778.1,778.1s348.3,778.1,778.1,778.1,778.1-348.3,778.1-778.1S1454.8,246.9,1025,246.9Zm517.2,1289a730.5,730.5,0,0,1-232.5,154.9c-90.1,37.7-185.9,56.7-284.7,56.7s-194.6-19-284.7-56.7a730.5,730.5,0,0,1-232.5-154.9A721.4,721.4,0,0,1,351,1306.2a717.5,717.5,0,0,1,0-562.4A721.4,721.4,0,0,1,507.8,514.1,730.5,730.5,0,0,1,740.3,359.2c90.1-37.7,185.9-56.7,284.7-56.7s194.6,19,284.7,56.7a730.5,730.5,0,0,1,232.5,154.9A721.4,721.4,0,0,1,1699,743.8a717.5,717.5,0,0,1,0,562.4A721.4,721.4,0,0,1,1542.2,1535.9Z"/><rect class="cls-3" height="299.55" rx="47.7" ry="47.7" width="95.4" x="977.3" y="82.5"/><rect class="cls-3" height="299.55" rx="47.7" ry="47.7" transform="translate(-792.7 1257.3) rotate(-90)" width="95.4" x="184.6" y="875.2"/><rect class="cls-3" height="299.55" rx="47.7" ry="47.7" transform="translate(2050 3635.4) rotate(-180)" width="95.4" x="977.3" y="1667.9"/><rect class="cls-3" height="299.55" rx="47.7" ry="47.7" transform="translate(2842.7 -792.7) rotate(90)" width="95.4" x="1770" y="875.2"/><path class="cls-4" d="M1050.9,355.4h0a47.7,47.7,0,0,1-47.7-47.7V103.6a47.1,47.1,0,0,1,3.2-17.3,47.7,47.7,0,0,0-29.1,43.9V334.3a47.7,47.7,0,0,0,47.7,47.8h0a47.8,47.8,0,0,0,44.5-30.5A47.9,47.9,0,0,1,1050.9,355.4Z"/><path class="cls-4" d="M360.2,1046H156.1a47.6,47.6,0,0,1-47.7-47.7h0a47.5,47.5,0,0,1,3.2-17.3,47.8,47.8,0,0,0-29.1,44h0a47.7,47.7,0,0,0,47.7,47.7H334.3a47.7,47.7,0,0,0,44.5-30.4A47.9,47.9,0,0,1,360.2,1046Z"/><path class="cls-4" d="M1050.9,1940.8h0a47.6,47.6,0,0,1-47.7-47.7V1689a47.5,47.5,0,0,1,3.2-17.3,47.8,47.8,0,0,0-29.1,44v204.1a47.7,47.7,0,0,0,47.7,47.7h0a47.7,47.7,0,0,0,44.5-30.4A47.9,47.9,0,0,1,1050.9,1940.8Z"/><path class="cls-4" d="M1945.7,1046H1741.6a47.7,47.7,0,0,1-47.8-47.7h0a47.5,47.5,0,0,1,3.3-17.3,47.9,47.9,0,0,0-29.2,44h0a47.7,47.7,0,0,0,47.8,47.7h204.1a47.9,47.9,0,0,0,44.5-30.4A48.2,48.2,0,0,1,1945.7,1046Z"/><path class="cls-5" d="M1463.7,971c0,44.2-64.1,77.7-77,117.5-13.4,41.3,18.2,106-6.8,140.4s-96.7,24.4-131.4,49.7-46.6,96.3-87.9,109.7-91.4-37.1-135.6-37.1-95.7,50-135.6,37.1-53.5-84.7-87.9-109.7-106.1-15-131.4-49.7,6.6-99.1-6.8-140.4c-12.9-39.8-77-73.3-77-117.5s64.1-77.7,77-117.5-18.2-106,6.8-140.4,96.7-24.4,131.4-49.7,46.6-96.3,87.9-109.7,91.4,37.1,135.6,37.1,95.7-50,135.6-37.1,53.5,84.7,87.9,109.7,106.1,15,131.4,49.7-6.6,99.1,6.8,140.4S1463.7,926.8,1463.7,971Z"/><path class="cls-6" d="M1014.8,1285.3A287.3,287.3,0,0,1,750.4,886.6a288.9,288.9,0,0,1,61.5-91.2,287,287,0,1,1,202.9,489.9Z"/><path class="cls-6" d="M1196.7,1060.8a24,24,0,0,0-31.6-12L988.9,1128a25.7,25.7,0,0,0-6.6,4.5,25.7,25.7,0,0,0-6.6-4.5l-176.2-79.2a23.8,23.8,0,0,0-31.5,12l-81.9,182c32,18.4,86.5,14.7,115.4,35.8,33.3,24.2,45.8,91.7,84,108.2l96.8-215.3,85.9,191c32.2,13.9,65,34.7,92.4,25.8,41.3-13.4,53.5-84.7,87.9-109.7,10.4-7.6,24.3-12,39.2-15.4Z"/><path class="cls-7" d="M841.8,1486.3,800,1412.5a23.7,23.7,0,0,0-25.7-11.6l-82.9,17.8c-19.2,4.1-34.8-15.3-26.8-33.1l146.1-324.8a23.8,23.8,0,0,1,31.5-12l176.2,79.2a24,24,0,0,1,12,31.6L884.3,1484.4C876.3,1502.2,851.4,1503.3,841.8,1486.3Z"/><path class="cls-8" d="M861.7,1120.4a49.4,49.4,0,0,0-24.1-65.5l-14-6.5a23.4,23.4,0,0,0-12.9,12.4L664.6,1385.6c-8,17.8,7.6,37.2,26.8,33.1l35.9-7.7Z"/><path class="cls-7" d="M1208.2,1486.3l41.8-73.8a23.7,23.7,0,0,1,25.7-11.6l82.9,17.8c19.2,4.1,34.8-15.3,26.8-33.1l-146.1-324.8a23.8,23.8,0,0,0-31.5-12L1031.6,1128a24,24,0,0,0-12,31.6l146.1,324.8C1173.7,1502.2,1198.6,1503.3,1208.2,1486.3Z"/><path class="cls-8" d="M1077.5,1145.2l-53.6,23.9,141.8,315.3c8,17.8,32.9,18.9,42.5,1.9l11.9-21Z"/><path class="cls-8" d="M1018.4,1128l-176.2-79.2a23.8,23.8,0,0,0-31.5,12l-39.9,88.6a288.4,288.4,0,0,0,132.3,113.3,281.9,281.9,0,0,0,72,19.8l55.3-122.9A24,24,0,0,0,1018.4,1128Z"/><path class="cls-8" d="M1270.1,1129.3l-30.8-68.5a23.8,23.8,0,0,0-31.5-12L1031.6,1128a24,24,0,0,0-12,31.6l53.9,119.7a287.5,287.5,0,0,0,196.6-150Z"/><circle class="cls-9" cx="1025" cy="963.9" r="268.5"/><circle class="cls-10" cx="1025" cy="963.9" r="237.3"/><circle class="cls-5" cx="1025" cy="963.9" r="210.6"/><path class="cls-11" d="M1212.5,653.6h0a49.8,49.8,0,0,0,15.1-13.7c-20.7-31.4-35.3-75.9-67-86.2-10.9-3.5-22.8-2.4-35,1.2a48.2,48.2,0,0,0,1,46.3l20,34.7A48.3,48.3,0,0,0,1212.5,653.6Z"/><path class="cls-11" d="M1026.1,606.6a48.3,48.3,0,0,0,6.8-16.3,71.3,71.3,0,0,1-7.9.5c-38.8,0-83.3-38.6-120.5-39.2a48.1,48.1,0,0,0,21.3,47l33.5,22a48.3,48.3,0,0,0,66.8-14Z"/><path class="cls-11" d="M1386.7,853.5c-13.4-41.3,18.2-106-6.8-140.4-15.8-21.7-49.6-25.8-81.2-32a77.5,77.5,0,0,0-10.6,47.4l6.2,64.6a78.2,78.2,0,0,0,85.3,70.4h0a71.9,71.9,0,0,0,10.5-1.7A58,58,0,0,1,1386.7,853.5Z"/><rect class="cls-12" height="135.98" rx="35.7" ry="35.7" transform="translate(655.7 -250.5) rotate(24.8)" width="71.4" x="861.5" y="1296.9"/><rect class="cls-12" height="135.98" rx="35.7" ry="35.7" transform="translate(-406.4 638) rotate(-24)" width="71.4" x="1261.1" y="1206.4"/><path class="cls-6" d="M1028.2,849.5l28.1,56.9a15.5,15.5,0,0,0,11.6,8.4l62.8,9.1a15.4,15.4,0,0,1,8.5,26.2l-45.5,44.3a15.5,15.5,0,0,0-4.4,13.6l10.8,62.5a15.4,15.4,0,0,1-22.3,16.2l-56.2-29.5a15.1,15.1,0,0,0-14.3,0l-56.1,29.5a15.4,15.4,0,0,1-22.3-16.2l10.7-62.5a15.2,15.2,0,0,0-4.4-13.6l-45.4-44.3a15.4,15.4,0,0,1,8.5-26.2l62.8-9.1a15.2,15.2,0,0,0,11.5-8.4l28.1-56.9A15.3,15.3,0,0,1,1028.2,849.5Z"/><path class="cls-9" d="M1037.6,848.8l25.8,52.3a14.5,14.5,0,0,0,10.6,7.7l57.8,8.4a14.1,14.1,0,0,1,7.8,24l-41.8,40.7a14.1,14.1,0,0,0-4,12.5l9.8,57.5a14,14,0,0,1-20.4,14.8l-51.6-27.1a14,14,0,0,0-13.2,0l-51.6,27.1a14,14,0,0,1-20.4-14.8l9.8-57.5a14.1,14.1,0,0,0-4-12.5l-41.8-40.7a14.1,14.1,0,0,1,7.8-24l57.8-8.4a14.5,14.5,0,0,0,10.6-7.7l25.8-52.3A14,14,0,0,1,1037.6,848.8Z"/></svg>