<?xml version="1.0" encoding="iso-8859-1"?>
<!-- Uploaded to: SVG Repo, www.svgrepo.com, Generator: SVG Repo Mixer Tools -->
<svg height="800px" width="800px" version="1.1" id="Layer_1" xmlns="http://www.w3.org/2000/svg" xmlns:xlink="http://www.w3.org/1999/xlink" 
	 viewBox="0 0 512 512" xml:space="preserve">
<polygon style="fill:#FFC36E;" points="256,61.793 44.138,229.517 256,397.241 467.862,229.517 "/>
<path style="fill:#EFF2FA;" d="M441.379,0H70.621c-4.875,0-8.828,3.953-8.828,8.828v361.931h388.414V8.828
	C450.207,3.953,446.254,0,441.379,0z"/>
<g>
	<path style="fill:#C7CFE2;" d="M397.241,211.862H114.759c-4.875,0-8.828-3.953-8.828-8.828s3.953-8.828,8.828-8.828h282.483
		c4.875,0,8.828,3.953,8.828,8.828S402.116,211.862,397.241,211.862z"/>
	<path style="fill:#C7CFE2;" d="M397.241,247.172H114.759c-4.875,0-8.828-3.953-8.828-8.828c0-4.875,3.953-8.828,8.828-8.828
		h282.483c4.875,0,8.828,3.953,8.828,8.828C406.069,243.22,402.116,247.172,397.241,247.172z"/>
	<path style="fill:#C7CFE2;" d="M397.241,282.483H114.759c-4.875,0-8.828-3.953-8.828-8.828s3.953-8.828,8.828-8.828h282.483
		c4.875,0,8.828,3.953,8.828,8.828S402.116,282.483,397.241,282.483z"/>
	<path style="fill:#C7CFE2;" d="M397.241,317.793H114.759c-4.875,0-8.828-3.953-8.828-8.828s3.953-8.828,8.828-8.828h282.483
		c4.875,0,8.828,3.953,8.828,8.828S402.116,317.793,397.241,317.793z"/>
	<path style="fill:#C7CFE2;" d="M397.241,353.103H114.759c-4.875,0-8.828-3.953-8.828-8.828c0-4.875,3.953-8.828,8.828-8.828
		h282.483c4.875,0,8.828,3.953,8.828,8.828C406.069,349.151,402.116,353.103,397.241,353.103z"/>
</g>
<path style="fill:#FFD782;" d="M44.138,229.517L256,397.241l211.862-167.724v264.828c0,9.751-7.904,17.655-17.655,17.655H61.793
	c-9.751,0-17.655-7.904-17.655-17.655V229.517z"/>
<path style="fill:#FFC36E;" d="M294.355,374.641c-22.475-17.793-54.236-17.793-76.711,0L49.976,507.379
	c3.133,2.844,7.252,4.621,11.817,4.621h388.414c4.565,0,8.684-1.778,11.817-4.621L294.355,374.641z"/>
<g>
	<path style="fill:#AFB9D2;" d="M397.241,61.793h-61.793c-4.875,0-8.828-3.953-8.828-8.828s3.953-8.828,8.828-8.828h61.793
		c4.875,0,8.828,3.953,8.828,8.828S402.116,61.793,397.241,61.793z"/>
	<path style="fill:#AFB9D2;" d="M397.241,97.103h-97.103c-4.875,0-8.828-3.953-8.828-8.828c0-4.875,3.953-8.828,8.828-8.828h97.103
		c4.875,0,8.828,3.953,8.828,8.828C406.069,93.151,402.116,97.103,397.241,97.103z"/>
	<path style="fill:#AFB9D2;" d="M335.448,158.897H176.552c-4.875,0-8.828-3.953-8.828-8.828c0-4.875,3.953-8.828,8.828-8.828
		h158.897c4.875,0,8.828,3.953,8.828,8.828C344.276,154.944,340.323,158.897,335.448,158.897z"/>
</g>
</svg>