<svg version="1.1" id="Layer_1" xmlns="http://www.w3.org/2000/svg" xmlns:xlink="http://www.w3.org/1999/xlink" viewBox="0 0 512 512" xml:space="preserve" fill="currentColor" width="16px" height="16px"><polygon style="fill:#C6C3CB;" points="423.967,77.899 504.396,77.899 504.396,466.546 143.464,466.546 75.873,466.546 	7.604,466.546 7.604,77.899 352.997,77.899 "></polygon><path style="opacity:0.34;fill:#77757E;enable-background:new    ;" d="M442.167,77.899v154.447	c0,94.978-76.995,171.972-171.972,171.972H81.236h-67.59H7.604v62.229h68.269h67.591h360.932V77.899H442.167z"></path><polygon style="fill:#CD2A00;" points="105.341,137.955 105.341,114.736 127.646,114.736 127.646,139.918 127.646,200.876 	127.646,303.314 105.341,303.314 105.341,200.876 "></polygon><circle style="fill:#FF5023;" cx="116.493" cy="170.4" r="32.444"></circle><circle style="fill:#77757E;" cx="93.62" cy="382.703" r="33.433"></circle><polygon style="fill:#CD2A00;" points="313.692,137.954 313.692,114.736 291.387,114.736 291.387,137.954 291.387,200.875 	291.387,303.314 313.692,303.314 313.692,200.875 "></polygon><circle style="fill:#FF5023;" cx="302.536" cy="170.4" r="32.444"></circle><polygon style="fill:#CD2A00;" points="198.364,207.108 198.364,114.736 220.669,114.736 220.669,207.108 220.669,270.02 	220.669,303.314 198.364,303.314 198.364,271.212 "></polygon><circle style="fill:#FF5023;" cx="209.514" cy="239.546" r="32.444"></circle><polygon style="fill:#CD2A00;" points="384.41,270.02 384.41,303.314 406.715,303.314 406.715,270.02 406.715,207.108 	406.715,114.736 384.41,114.736 384.41,207.108 "></polygon><circle style="fill:#FF5023;" cx="395.558" cy="239.546" r="32.444"></circle><g><circle style="fill:#77757E;" cx="310.749" cy="382.703" r="33.433"></circle><circle style="fill:#77757E;" cx="428.356" cy="382.703" r="33.433"></circle><circle style="fill:#77757E;" cx="199.903" cy="382.703" r="33.433"></circle><polyline style="fill:#77757E;" points="61.68,45.455 61.68,77.899 145.492,77.899 145.492,45.455 113.05,45.455 	"></polyline><rect x="210.721" y="45.455" style="fill:#77757E;" width="41.903" height="32.444"></rect></g><path d="M156.541,170.4c0-15.308-8.637-28.631-21.291-35.37v-20.295c0-4.2-3.405-7.604-7.604-7.604h-22.305	c-4.199,0-7.604,3.404-7.604,7.604v20.295c-12.654,6.738-21.291,20.061-21.291,35.37s8.637,28.631,21.291,35.37v97.545	c0,4.2,3.405,7.604,7.604,7.604h22.305c4.199,0,7.604-3.404,7.604-7.604V205.77C147.904,199.032,156.541,185.708,156.541,170.4z	 M112.945,122.34h7.097v8.179c-1.17-0.103-2.352-0.166-3.549-0.166s-2.379,0.063-3.549,0.166V122.34z M116.494,145.561	c13.696,0,24.84,11.142,24.84,24.84s-11.143,24.84-24.84,24.84s-24.84-11.142-24.84-24.84S102.797,145.561,116.494,145.561z	 M120.042,295.71h-7.097v-85.428c1.17,0.103,2.352,0.166,3.549,0.166s2.379-0.063,3.549-0.166V295.71z"></path><path d="M93.617,341.668c-22.627,0-41.037,18.41-41.037,41.038c0,22.628,18.41,41.037,41.037,41.037s41.037-18.409,41.037-41.037	C134.654,360.077,116.244,341.668,93.617,341.668z M93.617,408.534c-14.242,0-25.829-11.587-25.829-25.829	c0-11.597,7.683-21.432,18.225-24.685v17.428c0,4.2,3.405,7.604,7.604,7.604s7.604-3.404,7.604-7.604v-17.428	c10.542,3.254,18.225,13.089,18.225,24.685C119.446,396.947,107.859,408.534,93.617,408.534z"></path><path d="M75.873,458.942H15.208V85.502H61.68h83.813h65.225h41.906h100.373c4.199,0,7.604-3.404,7.604-7.604	s-3.405-7.604-7.604-7.604h-92.769v-24.84c0-4.2-3.405-7.604-7.604-7.604h-41.906c-4.199,0-7.604,3.404-7.604,7.604v24.84h-50.017	v-24.84c0-4.2-3.405-7.604-7.604-7.604H113.05c-4.199,0-7.604,3.404-7.604,7.604s3.405,7.604,7.604,7.604h24.84v17.236H69.284	v-24.84c0-4.2-3.405-7.604-7.604-7.604s-7.604,3.404-7.604,7.604v24.84H7.604C3.405,70.295,0,73.698,0,77.899v388.647	c0,4.2,3.405,7.604,7.604,7.604h68.269c4.199,0,7.604-3.404,7.604-7.604S80.074,458.942,75.873,458.942z M218.322,53.059h26.698	v17.236h-26.698V53.059z"></path><path d="M504.396,70.295h-80.429c-4.199,0-7.604,3.404-7.604,7.604s3.405,7.604,7.604,7.604h72.825v373.439H143.464	c-4.199,0-7.604,3.404-7.604,7.604s3.405,7.604,7.604,7.604h360.932c4.199,0,7.604-3.404,7.604-7.604V77.899	C512,73.699,508.595,70.295,504.396,70.295z"></path><path d="M313.692,107.132h-22.305c-4.199,0-7.604,3.404-7.604,7.604v20.295c-12.654,6.738-21.291,20.061-21.291,35.37	s8.637,28.631,21.291,35.37v97.545c0,4.2,3.405,7.604,7.604,7.604h22.305c4.199,0,7.604-3.404,7.604-7.604v-97.545	c12.654-6.738,21.291-20.061,21.291-35.37s-8.637-28.631-21.291-35.37v-20.295C321.296,110.536,317.891,107.132,313.692,107.132z	 M298.991,122.34h7.097v8.179c-1.17-0.103-2.352-0.166-3.549-0.166s-2.379,0.063-3.549,0.166V122.34z M306.088,295.71h-7.097	v-85.428c1.17,0.103,2.352,0.166,3.549,0.166s2.379-0.063,3.549-0.166V295.71z M302.539,195.24c-13.696,0-24.84-11.142-24.84-24.84	s11.143-24.84,24.84-24.84s24.84,11.142,24.84,24.84S316.236,195.24,302.539,195.24z"></path><path d="M228.273,204.178v-89.443c0-4.2-3.405-7.604-7.604-7.604h-22.305c-4.199,0-7.604,3.404-7.604,7.604v89.443	c-12.654,6.738-21.291,20.061-21.291,35.37s8.637,28.631,21.291,35.37v28.397c0,4.2,3.405,7.604,7.604,7.604h22.305	c4.199,0,7.604-3.404,7.604-7.604v-28.397c12.654-6.738,21.291-20.061,21.291-35.37S240.927,210.916,228.273,204.178z	 M205.968,122.34h7.097v77.326c-1.17-0.103-2.352-0.166-3.549-0.166s-2.379,0.063-3.549,0.166V122.34z M213.065,295.71h-7.097	V279.43c1.17,0.103,2.352,0.166,3.549,0.166s2.379-0.063,3.549-0.166V295.71z M209.516,264.387c-13.696,0-24.84-11.142-24.84-24.84	c0-13.697,11.143-24.84,24.84-24.84s24.84,11.142,24.84,24.84C234.356,253.245,223.213,264.387,209.516,264.387z"></path><path d="M355.515,239.548c0,15.308,8.637,28.631,21.291,35.37v28.397c0,4.2,3.405,7.604,7.604,7.604h22.305	c4.199,0,7.604-3.404,7.604-7.604v-28.397c12.654-6.738,21.291-20.061,21.291-35.37s-8.637-28.631-21.291-35.37v-89.443	c0-4.2-3.405-7.604-7.604-7.604H384.41c-4.199,0-7.604,3.404-7.604,7.604v89.443C364.152,210.916,355.515,224.239,355.515,239.548z	 M399.111,295.71h-7.097V279.43c1.17,0.103,2.352,0.166,3.549,0.166s2.379-0.063,3.549-0.166V295.71z M392.014,122.34h7.097v77.326	c-1.17-0.103-2.352-0.166-3.549-0.166s-2.379,0.063-3.549,0.166V122.34z M395.562,214.708c13.696,0,24.84,11.142,24.84,24.84	c0,13.697-11.143,24.84-24.84,24.84s-24.84-11.142-24.84-24.84C370.722,225.85,381.866,214.708,395.562,214.708z"></path><path d="M310.752,423.742c22.627,0,41.037-18.409,41.037-41.037c0-22.628-18.41-41.038-41.037-41.038s-41.037,18.41-41.037,41.038	C269.714,405.333,288.124,423.742,310.752,423.742z M303.148,358.019v17.428c0,4.2,3.405,7.604,7.604,7.604s7.604-3.404,7.604-7.604	v-17.428c10.542,3.254,18.225,13.089,18.225,24.685c0,14.242-11.587,25.829-25.829,25.829s-25.829-11.587-25.829-25.829	C284.922,371.108,292.605,361.273,303.148,358.019z"></path><path d="M402.627,350.739c-8.538,6.873-13.889,16.661-15.066,27.559c-2.43,22.497,13.896,42.777,36.394,45.208	c1.491,0.16,2.97,0.239,4.436,0.239c20.668,0,38.501-15.628,40.769-36.633c1.177-10.898-1.96-21.602-8.834-30.141	c-6.874-8.539-16.662-13.889-27.559-15.066C421.869,340.733,411.164,343.866,402.627,350.739z M448.48,366.508	c4.326,5.374,6.301,12.111,5.56,18.97c-1.529,14.161-14.293,24.453-28.453,22.906c-14.161-1.53-24.436-14.294-22.906-28.453	c0.741-6.86,4.108-13.02,9.483-17.345c3.336-2.685,7.198-4.448,11.287-5.235l-1.871,17.323c-0.451,4.175,2.568,7.925,6.743,8.378	c0.277,0.029,0.553,0.045,0.825,0.045c3.833,0,7.129-2.892,7.55-6.788l1.873-17.338C442.399,360.61,445.794,363.172,448.48,366.508z	"></path><path d="M182.44,345.568c-20.477,9.63-29.302,34.123-19.673,54.599c4.665,9.92,12.913,17.428,23.226,21.144	c4.543,1.636,9.247,2.452,13.937,2.452c5.955,0,11.888-1.313,17.436-3.923c20.477-9.629,29.302-34.121,19.673-54.599	C227.41,344.764,202.915,335.941,182.44,345.568z M210.894,406.078c-6.244,2.935-13.256,3.264-19.747,0.927	c-6.491-2.339-11.682-7.066-14.618-13.309c-6.061-12.888-0.507-28.305,12.381-34.366c3.542-1.666,7.274-2.454,10.952-2.454	c7.217,0,14.215,3.042,19.139,8.443l-15.768,7.415c-3.8,1.787-5.432,6.316-3.645,10.117c1.296,2.755,4.031,4.371,6.886,4.371	c1.084,0,2.185-0.232,3.231-0.725l15.772-7.416C227.019,390.007,221.389,401.144,210.894,406.078z"></path></svg>