<?xml version="1.0" encoding="iso-8859-1"?>
<!-- Uploaded to: SVG Repo, www.svgrepo.com, Generator: SVG Repo Mixer Tools -->
<svg height="800px" width="800px" version="1.1" id="Layer_1" xmlns="http://www.w3.org/2000/svg" xmlns:xlink="http://www.w3.org/1999/xlink" 
	 viewBox="0 0 512 512" xml:space="preserve">
<polygon style="fill:#E6E6E6;" points="427.857,10.199 84.143,10.199 84.143,501.801 342.693,501.801 427.857,416.637 "/>
<polygon style="fill:#FFBA57;" points="427.857,416.637 342.693,501.801 342.693,416.128 "/>
<g>
	<path style="fill:#603813;" d="M427.857,0H84.143c-5.632,0-10.199,4.566-10.199,10.199v491.602c0,5.633,4.567,10.199,10.199,10.199
		h258.55c2.705,0,5.298-1.075,7.212-2.987l85.163-85.163c1.912-1.912,2.987-4.507,2.987-7.212V10.199
		C438.056,4.566,433.489,0,427.857,0z M94.343,20.398h323.315v385.979l-74.903-0.449c-2.727,0.019-5.326,1.052-7.251,2.966
		c-1.927,1.914-3.009,4.518-3.009,7.233v75.474H94.343V20.398z M352.892,477.177v-50.789l50.487,0.302L352.892,477.177z"/>
	<path style="fill:#603813;" d="M118.311,226.422c-5.632,0-10.199,4.566-10.199,10.199v231.522c0,5.633,4.567,10.199,10.199,10.199
		s10.199-4.566,10.199-10.199V236.622C128.51,230.989,123.943,226.422,118.311,226.422z"/>
	<path style="fill:#603813;" d="M118.311,184.606c-5.632,0-10.199,4.566-10.199,10.199v9.179c0,5.633,4.567,10.199,10.199,10.199
		s10.199-4.566,10.199-10.199v-9.179C128.51,189.172,123.943,184.606,118.311,184.606z"/>
</g>
</svg>