<svg version="1.1" id="Layer_1" xmlns="http://www.w3.org/2000/svg" xmlns:xlink="http://www.w3.org/1999/xlink" viewBox="0 0 512.003 512.003" xml:space="preserve" fill="currentColor" width="16px" height="16px"><path style="fill:#3C5D76;" d="M371.527,275.718c-7.32-6.807-15.548-13.402-24.477-19.718c8.928-6.313,17.157-12.91,24.477-19.717	c15.618-14.52,23.391-26.41,26.814-33.571c-7.283-3.149-20.953-7.013-42.266-7.707c-2.232-0.072-4.497-0.108-6.781-0.108	c-28.565-0.002-60.996,5.653-93.291,16.203c-32.291-10.549-135.06-11.535-142.344-8.385c3.423,7.159,11.198,19.05,26.814,33.568	c7.322,6.807,15.55,13.404,24.48,19.718c-8.93,6.314-17.158,12.913-24.48,19.72c-15.616,14.518-23.39,26.409-26.814,33.568	c7.285,3.15,20.953,7.013,42.263,7.709c2.236,0.074,4.503,0.108,6.792,0.108c28.568,0,60.999-5.655,93.29-16.203	c32.295,10.55,64.726,16.203,93.291,16.203c2.284,0,4.549-0.036,6.781-0.108c21.313-0.694,34.983-4.558,42.266-7.707	C394.918,302.128,387.145,290.236,371.527,275.718z"></path><path style="fill:#1E2E3B;" d="M371.527,275.718c-7.32-6.807-15.548-13.402-24.477-19.718c8.928-6.313,17.157-12.91,24.477-19.717	c15.618-14.52,23.391-26.41,26.814-33.571c-7.283-3.149-20.953-7.013-42.266-7.707c-2.232-0.072-4.497-0.108-6.781-0.108	c-28.565-0.002-60.996,5.653-93.291,16.203c0,19.299,0,62.97,0,89.802c32.295,10.55,64.726,16.203,93.291,16.203	c2.284,0,4.549-0.036,6.781-0.108c21.313-0.694,34.983-4.558,42.266-7.707C394.918,302.128,387.145,290.236,371.527,275.718z"></path><path style="fill:#5A8BB0;" d="M162.683,155.286c38.067,0,80.279,8.27,122.074,23.917c52.547,19.671,99.226,49.601,128.072,82.113	c21.454,24.185,31.36,48.351,25.85,63.071c-7.24,19.337-43.148,32.33-89.358,32.33c-38.064,0-80.276-8.27-122.068-23.917	c-52.548-19.671-99.228-49.598-128.073-82.112c-21.456-24.186-31.362-48.353-25.852-63.074	C80.568,168.279,116.478,155.286,162.683,155.286 M162.683,110.109c-65.685,0-116.613,21.466-131.663,61.666	c-24.627,65.786,56.14,156.821,180.394,203.333c48.326,18.093,96.101,26.784,137.907,26.784c65.687,0,116.618-21.469,131.668-61.668	c24.627-65.785-56.138-156.814-180.392-203.331C252.27,118.803,204.49,110.109,162.683,110.109L162.683,110.109z"></path><g><rect x="233.415" style="fill:#78B9EB;" width="45.177" height="45.177"></rect><rect x="233.415" y="90.353" style="fill:#78B9EB;" width="45.177" height="45.177"></rect><rect x="233.415" y="466.826" style="fill:#78B9EB;" width="45.177" height="45.177"></rect><rect x="233.415" y="376.473" style="fill:#78B9EB;" width="45.177" height="45.177"></rect></g><path style="fill:#E4F1FB;" d="M349.32,155.286c46.207,0,82.115,12.993,89.354,32.328c5.51,14.72-4.396,38.888-25.852,63.074	c-28.845,32.514-75.525,62.442-128.073,82.112c-41.792,15.646-84.002,23.917-122.068,23.917c-46.21,0-82.118-12.993-89.358-32.33	c-5.51-14.719,4.396-38.887,25.85-63.071c28.845-32.512,75.525-62.442,128.072-82.113	C269.04,163.556,311.251,155.286,349.32,155.286 M349.32,110.109c-41.807,0-89.587,8.692-137.913,26.784	C87.153,183.412,6.388,274.441,31.015,340.226c15.048,40.198,65.979,61.668,131.668,61.668c41.805,0,89.581-8.691,137.907-26.784	c124.254-46.514,205.021-137.548,180.394-203.333C465.933,131.576,415.006,110.109,349.32,110.109L349.32,110.109z"></path><path style="fill:#C9E3F7;" d="M32.55,343.98l42.163-16.61c-0.535-0.977-1.01-1.97-1.39-2.982	c-5.51-14.719,4.396-38.887,25.85-63.071c28.845-32.512,75.525-62.442,128.072-82.113c41.795-15.646,84.006-23.917,122.074-23.917	c43.722,0,78.207,11.638,87.923,29.27l42.166-16.611c-16.783-37.73-66.524-57.834-130.091-57.834	c-41.807,0-89.587,8.692-137.913,26.784C87.153,183.412,6.388,274.441,31.015,340.226C31.491,341.495,32.003,342.748,32.55,343.98z"></path><path style="fill:#93C7EF;" d="M437.231,327.48c-9.743,17.614-44.213,29.237-87.909,29.237c-38.064,0-80.276-8.27-122.068-23.917	c-52.548-19.671-99.228-49.598-128.073-82.112c-21.456-24.186-31.362-48.353-25.852-63.074c0.461-1.229,1.039-2.432,1.726-3.608	l-42.157-16.7c-0.67,1.467-1.309,2.95-1.878,4.471C6.393,237.563,87.159,328.598,211.414,375.11	c48.326,18.093,96.101,26.784,137.907,26.784c63.503,0,113.208-20.069,130.041-57.724L437.231,327.48z"></path></svg>