<?xml version="1.0" encoding="iso-8859-1"?>
<!-- Uploaded to: SVG Repo, www.svgrepo.com, Generator: SVG Repo Mixer Tools -->
<svg height="800px" width="800px" version="1.1" id="Layer_1" xmlns="http://www.w3.org/2000/svg" xmlns:xlink="http://www.w3.org/1999/xlink" 
	 viewBox="0 0 512.001 512.001" xml:space="preserve">
<g>
	<polygon style="fill:#E6E6E6;" points="73.559,387.801 35.028,426.332 9.094,400.398 31.318,378.175 	"/>
	<polygon style="fill:#E6E6E6;" points="124.202,438.444 133.829,480.673 111.605,502.909 85.671,476.975 	"/>
	<polygon style="fill:#E6E6E6;" points="233.126,329.52 250.767,388.056 228.98,409.843 202.646,359.988 	"/>
	<polygon style="fill:#E6E6E6;" points="182.483,278.877 152.003,309.357 102.16,283.023 123.947,261.236 	"/>
	<polygon style="fill:#E6E6E6;" points="330.217,131.131 251.483,209.878 201.628,183.544 256.466,128.718 	"/>
	<polygon style="fill:#E6E6E6;" points="380.873,181.762 383.285,255.538 328.447,310.376 302.113,260.521 	"/>
</g>
<path style="fill:#B3B3B3;" d="M85.671,476.975l-50.643-50.643l38.531-38.531l78.444-78.444l30.48-30.48l68.999-68.999
	l78.735-78.747h0.012l58.657-58.669c1.673-1.673,3.383-3.334,5.104-4.947L444.476,118c-1.613,1.722-3.274,3.431-4.947,5.104
	l-58.657,58.657l-78.759,78.759l-68.987,68.999l-30.48,30.468l-78.444,78.456L85.671,476.975z"/>
<path style="fill:#F95428;" d="M502.903,9.088c-5.044,21.581-13.046,42.253-23.703,61.446c-9.53,17.132-21.169,33.099-34.724,47.466
	l-50.485-50.485C424.483,38.805,462.044,18.63,502.903,9.088z"/>
<g>
	<path style="fill:#333333;" d="M509.337,2.663c-2.222-2.222-5.435-3.14-8.497-2.425c-44.866,10.469-85.801,33.222-118.38,65.8
		l-55.871,55.871l-69.83-2.282c-2.518-0.082-4.949,0.881-6.728,2.659l-54.837,54.836c-2.042,2.042-2.992,4.931-2.561,7.786
		c0.43,2.854,2.192,5.336,4.744,6.684l38.952,20.576l-56.436,56.436l-53.326-16.077c-3.209-0.968-6.687-0.092-9.056,2.276
		l-21.787,21.786c-2.042,2.042-2.992,4.931-2.561,7.786c0.43,2.855,2.192,5.336,4.744,6.684l38.952,20.576l-66.184,66.184
		l-37.333-8.515c-3.054-0.696-6.242,0.224-8.453,2.436L2.662,393.969C0.958,395.675,0,397.988,0,400.4s0.958,4.725,2.662,6.43
		l102.508,102.508c1.776,1.776,4.104,2.664,6.431,2.664c2.327,0,4.655-0.887,6.431-2.664l22.229-22.229
		c2.21-2.21,3.13-5.403,2.436-8.452l-8.515-37.335l66.184-66.184l20.576,38.952c1.348,2.552,3.829,4.314,6.685,4.744
		c0.452,0.068,0.906,0.102,1.355,0.102c2.393,0,4.713-0.946,6.431-2.664l21.787-21.787c2.368-2.368,3.243-5.848,2.276-9.054
		l-16.077-53.326l56.434-56.435l20.577,38.952c1.348,2.553,3.829,4.314,6.685,4.744c0.452,0.068,0.906,0.102,1.355,0.102
		c2.393,0,4.713-0.946,6.431-2.664l54.837-54.836c1.777-1.779,2.74-4.213,2.658-6.728l-2.283-69.831l55.871-55.871l0,0
		c32.577-32.577,55.33-73.512,65.8-118.379C512.477,8.099,511.56,4.886,509.337,2.663z M393.918,80.301l37.78,37.78L265.475,284.305
		l-37.78-37.782L393.918,80.301z M252.616,297.165L148.459,401.322l-37.782-37.782l104.158-104.157L252.616,297.165z
		 M216.771,181.266l43.335-43.335l48.864,1.597l-59.18,59.18L216.771,181.266z M117.302,280.734l9.227-9.227l38.772,11.689
		l-14.98,14.979L117.302,280.734z M34.199,388.153l21.29,4.856l-20.462,20.463l-13.074-13.074L34.199,388.153z M73.207,451.652
		l19.992-19.992c3.551-3.551,3.551-9.308,0-12.859c-3.551-3.55-9.308-3.551-12.86,0l-19.992,19.992l-12.461-12.461l49.931-49.93
		l37.782,37.782l-49.93,49.93L73.207,451.652z M123.848,477.801l-12.247,12.246l-13.074-13.074l20.463-20.463L123.848,477.801z
		 M240.493,385.471l-9.227,9.227l-17.443-33.019l14.98-14.98L240.493,385.471z M374.068,251.894l-43.335,43.335l-17.443-33.019
		l59.18-59.18L374.068,251.894z M444.138,104.801L407.2,67.863c24.114-20.92,52.293-36.551,82.827-45.89
		C480.689,52.506,465.057,80.687,444.138,104.801z"/>
	<path style="fill:#333333;" d="M270.366,241.634c1.776,1.776,4.104,2.664,6.431,2.664c2.327,0,4.654-0.887,6.431-2.664
		l78.758-78.758c3.551-3.551,3.551-9.308,0-12.859c-3.552-3.551-9.309-3.551-12.86,0l-78.758,78.758
		C266.816,232.326,266.816,238.083,270.366,241.634z"/>
	<path style="fill:#333333;" d="M168.728,343.271c1.776,1.776,4.103,2.664,6.431,2.664c2.327,0,4.655-0.887,6.431-2.664
		l38.621-38.619c3.551-3.551,3.551-9.308,0-12.859c-3.551-3.55-9.308-3.551-12.86,0l-38.621,38.619
		C165.177,333.962,165.177,339.72,168.728,343.271z"/>
</g>
</svg>