<?xml version="1.0" encoding="iso-8859-1"?>
<!-- Uploaded to: SVG Repo, www.svgrepo.com, Generator: SVG Repo Mixer Tools -->
<svg height="800px" width="800px" version="1.1" id="Layer_1" xmlns="http://www.w3.org/2000/svg" xmlns:xlink="http://www.w3.org/1999/xlink" 
	 viewBox="0 0 512 512" xml:space="preserve">
<path style="fill:#53B400;" d="M499.058,363.369c-13.227-38.335-42.752-91.791-108.441-131.951
	c-2.026-76.77-33.495-128.952-60.039-159.526c-29.943-34.489-60.746-49.965-62.043-50.606L256,15.096l0,0l-20.899,34.363L256,79.96
	l0,0c8.455,6.027,20.729,15.989,32.812,30.129c22.7,26.564,36.952,57.833,42.583,93.281c-8.55-2.772-18.107-5.351-28.552-7.374
	c-14.94-2.893-30.294-4.361-45.636-4.361c-0.402,0-0.805,0.008-1.207,0.01l0,0l-20.9,29.539l20.9,27.054
	c0.327-0.002,0.653-0.01,0.98-0.01c4.113,0,8.117,0.138,12.01,0.389c3.817,0.287,8.115,0.766,11.924,1.297l-0.482-0.074l0.482,0.074
	c1.016,0.144,2.031,0.304,3.046,0.466c0.897,0.143,1.793,0.294,2.69,0.449c0.943,0.164,1.885,0.329,2.827,0.508
	c0.591,0.113,1.182,0.234,1.773,0.352c0.909,0.182,1.818,0.368,2.727,0.563c0.583,0.125,1.166,0.256,1.749,0.387
	c0.933,0.21,1.867,0.428,2.799,0.653c0.55,0.133,1.099,0.264,1.649,0.402c1.015,0.254,2.029,0.52,3.043,0.791
	c0.465,0.124,0.93,0.243,1.395,0.372c1.437,0.396,2.873,0.806,4.308,1.236c0.202,0.061,0.403,0.125,0.605,0.187
	c1.268,0.385,2.536,0.782,3.802,1.193c0.628,0.204,1.255,0.419,1.883,0.629c0.804,0.27,1.606,0.54,2.409,0.821
	c0.749,0.261,1.498,0.532,2.247,0.802c0.652,0.236,1.304,0.475,1.955,0.719c0.847,0.317,1.694,0.637,2.54,0.965
	c0.486,0.189,0.972,0.383,1.458,0.577c0.991,0.393,1.981,0.788,2.971,1.197c0.041,0.017,0.082,0.034,0.122,0.052
	c9.078,3.765,18.083,8.212,26.98,13.35c10.586,6.113,20.398,12.82,29.421,20.151c16.343,13.256,30.007,28.435,40.918,45.408
	c0.045,0.07,0.093,0.138,0.139,0.208c0,0,8.002,13.369,11.372,20.455c11.701,24.597,15.728,46.995,17.07,61.099
	c-9.449,4.313-24.225,9.968-42.526,13.366c-11.329,2.103-22.792,3.17-34.07,3.171c-0.002,0-0.006,0-0.008,0
	c-22.833,0-45.615-4.366-68.062-12.977c6.611-5.974,13.543-12.891,20.432-20.827c11.48-13.223,23.875-30.504,34.418-52.052
	c1.263-2.513,2.454-4.998,3.585-7.451c-10.364-10.776-22.698-20.318-36.944-28.543c-3.42-1.975-6.847-3.812-10.28-5.522
	c-2.936,7.828-6.363,15.419-10.304,22.746c-4.245,7.719-8.988,15.136-14.314,22.174c-11.129,14.734-24.783,28.046-40.741,39.775
	L235.1,433.286l20.9,31.319c39.373,21.433,80.662,32.3,122.844,32.3c15.34,0,30.694-1.467,45.635-4.361
	c44.938-8.707,73.657-27.634,74.856-28.435l11.619-7.753l0.906-13.942C511.955,440.959,513.955,406.547,499.058,363.369z"/>
<g>
	<path style="fill:#6CD800;" d="M234.259,411.949c-11.464,6.618-23.082,12.081-34.799,16.409c-0.694,0.256-1.388,0.518-2.081,0.767
		c-0.845,0.302-1.692,0.591-2.538,0.881c-0.813,0.279-1.627,0.555-2.441,0.822c-0.784,0.258-1.568,0.513-2.353,0.76
		c-0.977,0.308-1.955,0.604-2.933,0.897c-0.632,0.189-1.264,0.385-1.896,0.566c-1.581,0.456-3.163,0.89-4.746,1.304
		c-0.447,0.117-0.895,0.224-1.343,0.336c-1.241,0.315-2.482,0.62-3.724,0.908c-0.534,0.124-1.068,0.245-1.603,0.364
		c-1.238,0.277-2.476,0.54-3.716,0.791c-0.443,0.09-0.886,0.183-1.33,0.27c-3.383,0.66-6.77,1.226-10.161,1.695
		c-0.4,0.055-0.799,0.104-1.2,0.158c-1.317,0.173-2.633,0.332-3.951,0.478c-0.456,0.05-0.911,0.1-1.366,0.146
		c-1.426,0.145-4.706,0.427-4.919,0.443c0,0-8.912,0.501-13.372,0.501c-11.275,0-22.739-1.067-34.072-3.17
		c-18.288-3.395-33.051-9.043-42.497-13.353c0.991-10.333,3.483-25.942,9.686-43.479c11.693-33.052,31.744-61.105,59.774-83.744
		c1.876,8.808,4.423,18.392,7.9,28.47c3.139,9.099,7.212,19.056,12.454,29.48c6.106,12.471,12.833,23.503,19.642,33.155
		c14.474-3.609,28.96-9.565,43.33-17.863c3.469-2.003,6.806-4.072,10.03-6.2c-9.571-11.669-17.644-24.349-24.144-38.015
		c-1.393-2.928-2.67-5.823-3.854-8.679c-3.836-9.596-6.875-19.601-9.156-29.981c-3.286-15.007-5.032-31.076-5.032-47.798
		c0-33.735,6.808-64.486,20.235-91.403c6.706-13.482,15.105-26.076,25.105-37.778c12.082-14.137,24.356-24.1,32.811-30.126V15.096
		l-12.526,6.187c-1.305,0.646-32.109,16.122-62.051,50.611c-26.544,30.573-58.014,82.755-60.039,159.526
		c-65.688,40.16-95.213,93.616-108.441,131.951c-14.897,43.177-12.898,77.59-12.805,79.034l0.907,13.951l11.62,7.754
		c1.198,0.8,29.918,19.728,74.854,28.434c14.946,2.894,30.299,4.361,45.636,4.361c42.183,0,83.472-10.867,122.843-32.3l0,0v-66.837
		C249.169,402.788,241.922,407.524,234.259,411.949z"/>
	<path style="fill:#6CD800;" d="M232.513,192.672c-4.114,14.298-6.157,29.779-6.157,46.596c0,3.895,0.122,7.71,0.341,11.465
		c9.72-1.607,19.494-2.441,29.302-2.493v-56.595c-0.402-0.002-0.804-0.01-1.206-0.01
		C247.354,191.633,239.911,191.985,232.513,192.672z"/>
</g>
</svg>