<svg height="16px" width="16px" version="1.1" id="Layer_1" xmlns="http://www.w3.org/2000/svg" xmlns:xlink="http://www.w3.org/1999/xlink" viewBox="0 0 512 512" xml:space="preserve" fill="currentColor"><g><path style="fill:#FFF8EF;" d="M415.497,100.178v202.897c0.134,54.25-27.315,104.847-72.864,134.313l-86.631,56.244l-86.631-56.327		c-45.55-29.465-72.999-80.064-72.864-134.313V100.178c69.591-5.205,121.888-30.724,159.497-77.902		C293.608,69.454,345.907,94.973,415.497,100.178z M364.374,391.384c28.794-35.005,39.371-75.551,34.333-131.962		c-0.417-4.637-4.514-8.056-9.15-7.639c-4.637,0.417-8.056,4.514-7.639,9.15c3.98,29.065,0.543,58.664-9.989,86.045l-6.8-2.854		v-16.789h-16.789v-8.395c0-4.637-3.758-8.395-8.394-8.395h-22.246c3.57-7.62,5.433-15.928,5.457-24.344v-26.023h25.184		c4.637,0,8.395-3.758,8.395-8.395v-16.789h16.789v-16.789h-25.184c-4.637,0-8.394,3.758-8.394,8.395v16.789h-16.79v-9.234		c-0.068-25.817-17.168-48.492-41.973-55.656v-10.661h25.184c4.637,0,8.395-3.758,8.395-8.395v-16.789h-16.789v8.395H272.79		c-4.637,0-8.395,3.758-8.395,8.395v16.789h-16.789v-16.789c0-4.637-3.758-8.395-8.395-8.395h-25.184v-8.395h-16.789v16.789		c0,4.637,3.758,8.395,8.395,8.395h25.184v10.661c-24.804,7.164-41.904,29.838-41.973,55.656v9.234h-16.789v-16.789		c0-4.637-3.758-8.395-8.395-8.395h-25.184v16.789h16.789v16.789c0,4.637,3.758,8.395,8.395,8.395h25.184V286.2		c0.024,8.416,1.885,16.724,5.457,24.344h-22.246c-4.637,0-8.395,3.758-8.395,8.395v8.395h-16.789v16.789l-8.395,2.183		c-4.267-17.506-7.075-35.335-8.395-53.305c-0.417-4.637-4.514-8.056-9.15-7.639c-4.637,0.417-8.056,4.514-7.639,9.15		c5.457,59.685,14.439,91.584,53.557,122.645c26.879,19.677,55.384,37.032,85.205,51.879c0.398,0.218,0.82,0.387,1.259,0.504h0.588		c1.379,0.335,2.818,0.335,4.198,0h0.672c0.412-0.117,0.807-0.286,1.176-0.504C309.642,442.339,342.8,417.659,364.374,391.384z		 M398.708,193.021V117.47c0.018-4.357-3.3-8.002-7.639-8.395c-0.755,0-89.318-8.395-128.605-55.739l-0.588-0.504l-0.504-0.588		l-0.84-0.419c-0.447-0.326-0.925-0.607-1.427-0.84h-1.511l-1.595-0.672h-1.595h-1.511c-0.502,0.232-0.98,0.513-1.427,0.84		l-0.84,0.419l-0.504,0.588l-0.588,0.504c-39.202,48.017-127.849,56.411-128.605,56.411c-4.339,0.392-7.656,4.038-7.639,8.395		v134.313c0,4.637,3.758,8.395,8.395,8.395s8.395-3.758,8.395-8.395V124.941c22.33-3.106,87.639-15.11,125.919-53.81		c38.279,38.699,103.589,50.367,125.919,53.81v68.08c0,4.637,3.758,8.395,8.395,8.395		C394.949,201.416,398.708,197.658,398.708,193.021z"></path><path style="fill:#FFF8EF;" d="M365.13,344.123l6.8,2.854c-5.156,12.148-12.087,23.465-20.567,33.578		c-19.811,24.008-50.031,46.674-95.362,71.521c-27.512-13.817-53.822-29.906-78.657-48.101		c-19.338-14.051-33.101-34.473-38.867-57.67l8.395-2.183h25.184c4.637,0,8.395-3.758,8.395-8.394v-8.395h25.604		c10.81,10.769,25.454,16.808,40.714,16.789h18.468c15.405,0.131,30.22-5.916,41.133-16.789h25.184v8.395		c0,4.637,3.758,8.394,8.395,8.394L365.13,344.123L365.13,344.123z"></path></g><g><path style="fill:#42210B;" d="M432.286,92.287v210.787c0.115,59.911-30.207,115.78-80.504,148.332l-91.248,59.265		c-2.763,1.772-6.304,1.772-9.067,0l-91.248-59.265c-50.297-32.552-80.618-88.421-80.504-148.332V92.287		c0-4.637,3.758-8.395,8.395-8.395c72.53-3.693,125.331-30.052,161.511-80.419c2.719-3.755,7.967-4.595,11.723-1.877		c0.721,0.522,1.354,1.156,1.877,1.877c36.181,50.367,88.982,76.726,161.511,80.419C429.037,84.325,432.308,87.959,432.286,92.287z		 M415.497,303.074V100.178C345.905,94.973,293.608,69.454,256,22.276c-37.607,47.177-89.905,72.697-159.497,77.902v202.897		c-0.134,54.25,27.315,104.847,72.864,134.313l86.631,56.244l86.631-56.327C388.157,407.853,415.603,357.293,415.497,303.074z"></path><path style="fill:#42210B;" d="M398.708,259.422c5.036,56.244-5.541,96.957-34.333,131.962		c-21.574,26.275-54.732,50.955-104.428,77.65c-0.369,0.218-0.763,0.387-1.176,0.504h-0.672c-1.379,0.335-2.818,0.335-4.198,0		h-0.588c-0.438-0.117-0.862-0.285-1.259-0.504c-29.821-14.847-58.325-32.202-85.205-51.879		c-39.119-31.059-48.101-62.959-53.557-122.645c-0.417-4.637,3.003-8.733,7.639-9.15c4.637-0.417,8.733,3.003,9.15,7.639		c1.32,17.97,4.128,35.799,8.395,53.305c5.787,23.21,19.582,43.633,38.95,57.67c24.808,18.191,51.09,34.28,78.573,48.101		c45.414-25.184,75.551-47.513,95.446-71.354c8.479-10.114,15.41-21.43,20.567-33.578c10.533-27.438,13.941-57.099,9.905-86.212		c-0.417-4.637,3.003-8.733,7.639-9.15C394.194,251.366,398.29,254.786,398.708,259.422z"></path><path style="fill:#42210B;" d="M398.708,117.471v75.551c0,4.637-3.758,8.395-8.394,8.395c-4.637,0-8.395-3.758-8.395-8.395v-68.08		c-22.33-3.106-87.639-15.11-125.919-53.81c-38.279,38.699-103.589,50.367-125.919,53.81v126.841c0,4.637-3.758,8.395-8.395,8.395		s-8.395-3.758-8.395-8.395V117.471c-0.018-4.357,3.3-8.002,7.639-8.395c0.924,0,89.402-8.395,128.605-55.739l0.588-0.504		l0.504-0.588l0.84-0.419c0.447-0.326,0.925-0.607,1.427-0.84h1.511L256,50.314h1.595h1.511c0.502,0.232,0.98,0.513,1.427,0.84		l0.84,0.419l0.504,0.588l0.588,0.504c39.286,48.017,127.849,56.411,128.605,56.411		C395.408,109.468,398.725,113.114,398.708,117.471z"></path><path style="fill:#42210B;" d="M373.525,218.205v16.789h-16.789v16.789c0,4.637-3.758,8.395-8.395,8.395h-25.183v26.023		c-0.024,8.416-1.885,16.724-5.457,24.344h22.246c4.637,0,8.394,3.758,8.394,8.395v8.395h16.789v16.789h-25.184		c-4.637,0-8.395-3.758-8.395-8.394v-8.395h-25.184c-10.81,10.769-25.454,16.808-40.714,16.789h-18.887		c-15.26,0.019-29.902-6.02-40.714-16.789h-25.604v8.395c0,4.637-3.758,8.394-8.395,8.394h-25.184v-16.789h16.789v-8.395		c0-4.637,3.758-8.395,8.395-8.395h22.246c-3.57-7.62-5.433-15.928-5.457-24.344v-26.023h-25.184c-4.637,0-8.395-3.758-8.395-8.395		v-16.789h-16.789v-16.789h25.184c4.637,0,8.395,3.758,8.395,8.395v16.789h16.789v-9.234c0.068-25.817,17.168-48.492,41.973-55.656		v-10.661h-25.184c-4.637,0-8.395-3.758-8.395-8.395v-16.789h16.789v8.395h25.184c4.637,0,8.395,3.758,8.395,8.395v16.789h16.789		v-16.789c0-4.637,3.758-8.395,8.395-8.395h25.184v-8.395h16.789v16.789c0,4.637-3.758,8.395-8.395,8.395h-25.184V178.5		c24.804,7.164,41.904,29.838,41.973,55.656v9.234h16.789V226.6c0-4.637,3.758-8.395,8.394-8.395L373.525,218.205L373.525,218.205z		 M306.368,286.2v-42.812h-41.973v83.945h0.84c12.953-0.105,25.094-6.331,32.739-16.789l0,0l0,0		C303.316,303.543,306.259,295.007,306.368,286.2z M206.389,226.599h99.224c-3.664-19.428-20.607-33.518-40.378-33.578h-18.468		C226.997,193.081,210.053,207.172,206.389,226.599z M247.606,327.334v-83.945h-41.973V286.2c0.108,8.806,3.052,17.343,8.395,24.344		l0,0l0,0c7.645,10.458,19.785,16.684,32.738,16.789H247.606z"></path></g><path style="fill:#E94545;" d="M306.368,243.388V286.2c-0.108,8.806-3.052,17.343-8.394,24.344l0,0l0,0	c-7.645,10.458-19.785,16.684-32.739,16.789h-0.84v-83.945L306.368,243.388L306.368,243.388z"></path><path style="fill:#EE5656;" d="M289.579,243.388V286.2c0.069,8.363-1.588,16.651-4.869,24.344l0,0l0,0	c-2.684,8.967-10.367,15.534-19.644,16.789h-0.672v-83.945L289.579,243.388L289.579,243.388z"></path><path style="fill:#6D411C;" d="M305.612,226.599h-99.224c3.664-19.428,20.607-33.518,40.378-33.578h18.468	C285.006,193.081,301.949,207.172,305.612,226.599z"></path><path style="fill:#996632;" d="M305.612,226.599h-99.224c3.61-9.57,20.315-16.789,40.378-16.789h18.468	C285.298,209.81,302.002,217.113,305.612,226.599z"></path><path style="fill:#E94545;" d="M247.606,243.388v83.945h-0.84c-12.953-0.105-25.094-6.331-32.738-16.789l0,0l0,0	c-5.342-7.001-8.286-15.538-8.395-24.344v-42.812L247.606,243.388L247.606,243.388z"></path><path style="fill:#EE5656;" d="M247.606,243.388v83.945h-0.504c-9.276-1.255-16.96-7.822-19.644-16.789l0,0l0,0	c-3.338-7.681-5.053-15.969-5.036-24.344v-42.812L247.606,243.388L247.606,243.388z"></path><path style="fill:#E0CBB5;" d="M256.001,22.276c-37.607,47.177-89.905,72.697-159.497,77.902v202.897	c-0.134,54.25,27.315,104.847,72.864,134.313L256,493.63l86.631-56.327c45.55-29.465,72.999-80.064,72.864-134.313V100.178	C345.907,94.973,293.608,69.454,256.001,22.276z M364.374,391.637c-21.574,26.275-54.732,50.955-104.428,77.65	c-0.369,0.218-0.763,0.387-1.176,0.504h-0.672c-1.379,0.335-2.818,0.335-4.198,0h-0.588c-0.438-0.117-0.862-0.285-1.259-0.504	c-29.829-14.928-58.334-32.368-85.205-52.13c-39.119-31.059-48.101-62.959-53.557-122.645c-0.434-4.616,2.956-8.71,7.572-9.144	c0.023-0.002,0.045-0.004,0.068-0.006h0.755v-25.184c-4.637,0-8.395-3.758-8.395-8.395V117.471c-0.018-4.357,3.3-8.002,7.639-8.395	c0.924,0,89.402-8.395,128.605-55.739l0.588-0.504l0.504-0.588h0.84c0.447-0.326,0.925-0.607,1.427-0.84h1.511l1.595-1.091h1.595	h1.511c0.502,0.232,0.98,0.513,1.427,0.84h0.84l0.504,0.588l0.588,0.504c39.286,48.436,127.849,56.831,128.605,56.831	c4.339,0.392,7.656,4.038,7.639,8.395v75.551c0,4.637-3.758,8.395-8.394,8.395v50.367c4.328-0.022,7.962,3.249,8.394,7.555	c5.036,56.327-5.541,97.041-34.333,132.046v0.25H364.374z"></path></svg>