<svg height="16px" width="16px" version="1.1" id="Layer_1" xmlns="http://www.w3.org/2000/svg" xmlns:xlink="http://www.w3.org/1999/xlink" viewBox="0 0 512 512" xml:space="preserve" fill="currentColor"><path style="fill:#FFC107;" d="M29.324,252.831C29.324,385.445,128.05,494.938,256,512	c127.95-17.062,226.676-126.546,226.676-259.169V61.42c0-15.641-10.401-29.398-25.457-33.644C393.226,9.738,325.764,0,256,0	S118.774,9.738,54.781,27.777C39.725,32.022,29.324,45.771,29.324,61.42C29.324,61.42,29.324,252.831,29.324,252.831z"></path><path style="fill:#B71C1C;" d="M256,476.769C146.332,459.838,64.197,364.39,64.197,252.831V61.412	C126.542,43.783,191.057,34.873,256,34.873s129.458,8.91,191.75,26.469l0.052,191.489C447.803,364.39,365.668,459.838,256,476.769z"></path><circle style="fill:#FFCDD2;" cx="256" cy="252.831" r="165.648"></circle><circle style="fill:#FFFFFF;" cx="256" cy="252.831" r="122.056"></circle><circle style="fill:#263238;" cx="256" cy="252.831" r="104.62"></circle><circle style="fill:#5C6BC0;" cx="256" cy="252.831" r="87.183"></circle><circle style="fill:#311B92;" cx="256" cy="252.831" r="52.31"></circle><circle style="fill:#FFA000;" cx="256" cy="252.831" r="17.437"></circle></svg>