<?xml version="1.0" encoding="iso-8859-1"?>
<!-- Uploaded to: SVG Repo, www.svgrepo.com, Generator: SVG Repo Mixer Tools -->
<svg height="800px" width="800px" version="1.1" id="Layer_1" xmlns="http://www.w3.org/2000/svg" xmlns:xlink="http://www.w3.org/1999/xlink" 
	 viewBox="0 0 512.001 512.001" xml:space="preserve">
<g>
	<path style="fill:#4D4D4D;" d="M281.72,346.563c7.051,12.218-1.766,27.493-15.868,27.493h-8.698
		c-14.102,0-22.918-15.275-15.868-27.493l20.217-35.006L281.72,346.563z"/>
	<path style="fill:#4D4D4D;" d="M161.096,229.612l65.189,65.189c-25.49,25.49-66.812,25.49-92.302,0
		c-12.822-12.834-19.198-29.661-19.115-46.465C114.987,224.409,144.186,212.701,161.096,229.612z"/>
	<path style="fill:#4D4D4D;" d="M397.131,248.335c0.083,16.804-6.281,33.631-19.115,46.465c-25.478,25.49-66.812,25.49-92.302,0
		l65.189-65.189C367.813,212.701,397.024,224.409,397.131,248.335z"/>
</g>
<path style="fill:#B3B3B3;" d="M316.821,425.32c12.004-2.666,23.867-6.127,35.515-10.393v51.667
	c0,10.381-6.612,19.577-16.401,23.001c-51.738,18.095-108.122,18.095-159.861,0c-9.8-3.425-16.401-12.621-16.401-23.001v-51.667
	c11.649,4.266,23.499,7.726,35.504,10.393c13.379,2.974,26.936,4.953,40.552,5.925c13.498,0.995,27.042,0.995,40.552,0
	C289.885,430.273,303.442,428.294,316.821,425.32z"/>
<path style="fill:#999999;" d="M198.779,478.426v-52.34c-1.2-0.25-2.402-0.499-3.6-0.766c-12.004-2.666-23.855-6.127-35.504-10.393
	v51.667c0,10.381,6.601,19.577,16.401,23.001c9.331,3.264,18.815,5.929,28.395,8.016
	C200.88,492.353,198.779,485.621,198.779,478.426z"/>
<path style="fill:#CCCCCC;" d="M161.096,229.612c-16.91-16.91-46.11-5.202-46.228,18.723c-0.083,16.804,6.293,33.631,19.115,46.465
	c25.49,25.49,66.812,25.49,92.302,0L161.096,229.612z M316.821,425.32c-13.379,2.974-26.936,4.953-40.54,5.925
	c-13.509,0.995-27.054,0.995-40.552,0c-13.616-0.972-27.173-2.951-40.552-5.925c-12.004-2.666-23.855-6.127-35.504-10.393
	c-6.198-2.252-12.324-4.74-18.38-7.454c-1.635-0.735-2.678-2.382-2.678-4.171v-18.321c0-8.449-7.11-15.145-15.536-14.647
	c-2.583,0.154-5.202,0.166-7.845,0.036c-36.238-1.825-65.509-31.344-67.037-67.594c-0.924-21.947,8.153-41.796,23.049-55.365
	c7.798-7.122,11.673-17.621,9.753-28.002c-1.955-10.547-2.974-21.425-2.974-32.541c0-98.547,80.084-178.383,178.715-177.98
	c96.462,0.391,175.634,78.556,177.21,175.005c0.201,12.135-0.818,23.997-2.939,35.468c-1.92,10.405,1.932,20.916,9.753,28.038
	c14.896,13.58,23.973,33.418,23.049,55.365c-1.529,36.262-30.799,65.781-67.037,67.606c-2.654,0.13-5.273,0.119-7.857-0.036
	c-8.426-0.498-15.524,6.198-15.524,14.647v18.321c0,1.789-1.055,3.437-2.69,4.171c-6.055,2.714-12.182,5.202-18.368,7.454
	C340.688,419.193,328.825,422.653,316.821,425.32z M350.903,229.612L285.714,294.8c25.49,25.49,66.824,25.49,92.302,0
	c12.834-12.834,19.198-29.661,19.115-46.465C397.024,224.409,367.813,212.701,350.903,229.612z M265.853,374.055
	c14.102,0,22.918-15.275,15.868-27.493l-20.217-35.006l-20.217,35.006c-7.051,12.218,1.766,27.493,15.868,27.493H265.853z"/>
<path style="fill:#B3B3B3;" d="M179.161,384.981c0-8.449-7.11-15.145-15.536-14.647c-2.583,0.154-5.202,0.166-7.845,0.036
	c-36.238-1.825-65.509-31.344-67.037-67.594c-0.924-21.947,8.153-41.796,23.049-55.365c7.798-7.122,11.673-17.621,9.753-28.002
	c-1.955-10.547-2.974-21.425-2.974-32.541c0-91.425,68.931-166.733,157.648-176.82c-6.4-0.731-12.898-1.133-19.478-1.16
	C158.11,8.485,78.025,88.32,78.025,186.868c0,11.116,1.019,21.994,2.974,32.541c1.92,10.381-1.955,20.88-9.753,28.002
	c-14.896,13.569-23.973,33.418-23.049,55.365c1.529,36.25,30.799,65.769,67.037,67.594c2.643,0.13,5.262,0.119,7.845-0.036
	c8.426-0.498,15.536,6.198,15.536,14.647v18.321c0,1.789,1.043,3.437,2.678,4.171c6.056,2.714,12.182,5.202,18.38,7.454
	c6.436,2.357,12.936,4.459,19.487,6.326L179.161,384.981L179.161,384.981z"/>
<g>
	<path style="fill:#333333;" d="M269.203,307.108c-1.588-2.75-4.521-4.444-7.697-4.444s-6.109,1.693-7.697,4.444l-20.215,35.014
		c-4.919,8.52-4.919,18.693,0,27.213s13.729,13.607,23.567,13.607h8.691c9.838,0,18.648-5.086,23.567-13.607s4.919-18.693,0-27.213
		L269.203,307.108z M274.024,360.447c-0.819,1.418-3.255,4.719-8.173,4.719h-8.691c-4.918,0-7.354-3.3-8.173-4.719
		c-0.819-1.418-2.459-5.179,0-9.438l12.519-21.682l12.519,21.682C276.484,355.269,274.844,359.028,274.024,360.447z"/>
	<path style="fill:#333333;" d="M235.172,294.796c0-2.357-0.936-4.618-2.604-6.284l-62.582-62.582v-56.66
		c0-4.908-3.979-8.888-8.888-8.888s-8.888,3.979-8.888,8.888v44.927c-7.704-2.317-16.113-1.967-24.088,1.314
		c-13.589,5.591-22.074,18.15-22.145,32.777c-0.096,19.943,7.617,38.691,21.719,52.793l0,0c7.126,7.126,15.45,12.612,24.514,16.294
		v22.712c0,4.908,3.979,8.888,8.888,8.888c4.908,0,8.888-3.979,8.888-8.888v-17.986c3.336,0.454,6.721,0.7,10.146,0.7
		c19.807,0,38.429-7.713,52.435-21.719C234.236,299.414,235.172,297.154,235.172,294.796z M180.134,305.025
		c-15.059,0-29.218-5.865-39.867-16.513l0,0c-10.721-10.721-16.586-24.976-16.512-40.138c0.036-7.431,4.197-13.57,11.132-16.423
		c2.094-0.862,4.573-1.415,7.191-1.415c4.228,0,8.819,1.442,12.738,5.36l58.411,58.411
		C203.664,301.267,192.187,305.025,180.134,305.025z"/>
	<path style="fill:#333333;" d="M383.881,215.511c-7.975-3.281-16.384-3.631-24.088-1.314V169.27c0-4.908-3.979-8.888-8.888-8.888
		c-4.908,0-8.888,3.979-8.888,8.888v56.66l-62.582,62.582c-1.667,1.666-2.604,3.927-2.604,6.284s0.936,4.618,2.604,6.284
		c14.006,14.006,32.629,21.719,52.435,21.719c3.425,0,6.81-0.246,10.146-0.7v17.986c0,4.908,3.979,8.888,8.888,8.888
		c4.908,0,8.888-3.979,8.888-8.888v-22.712c9.063-3.681,17.388-9.169,24.514-16.294c14.102-14.102,21.815-32.85,21.719-52.793
		C405.954,233.661,397.47,221.102,383.881,215.511z M371.737,288.511L371.737,288.511c-10.649,10.649-24.806,16.513-39.867,16.513
		c-12.053,0-23.53-3.758-33.092-10.717l58.411-58.411c6.345-6.345,14.455-6.198,19.929-3.946
		c6.935,2.852,11.097,8.992,11.132,16.423C388.322,263.536,382.458,277.79,371.737,288.511z"/>
	<path style="fill:#333333;" d="M446.747,240.834c-5.718-5.209-8.333-12.631-6.998-19.854c2.256-12.206,3.297-24.733,3.092-37.234
		c-0.803-48.982-20.573-95.043-55.67-129.699C352.079,19.395,305.772,0.201,256.78,0.001C256.516,0,256.259,0,255.996,0
		C206.222,0,159.42,19.323,124.14,54.46c-35.469,35.325-55.003,82.347-55.003,132.405c0,11.468,1.052,22.964,3.127,34.166
		c1.331,7.19-1.289,14.594-7.009,19.805c-17.484,15.93-26.939,38.642-25.942,62.309c1.712,40.63,34.865,74.057,75.475,76.1
		c2.937,0.148,5.901,0.136,8.815-0.036c1.605-0.095,3.139,0.461,4.31,1.564c1.168,1.102,1.812,2.594,1.812,4.203v18.327
		c0,5.298,3.117,10.119,7.939,12.278c4.336,1.943,8.714,3.761,13.119,5.48v45.534c0,14.1,8.984,26.714,22.353,31.39
		c26.718,9.344,54.791,14.015,82.865,14.015c28.072,0,56.146-4.671,82.863-14.015c13.37-4.676,22.353-17.291,22.353-31.39v-45.535
		c4.406-1.718,8.782-3.536,13.118-5.478c4.823-2.16,7.94-6.98,7.94-12.278v-18.327c0-1.608,0.643-3.101,1.812-4.203
		c1.171-1.103,2.709-1.661,4.31-1.564c2.918,0.172,5.884,0.182,8.82,0.036c40.61-2.045,73.76-35.474,75.471-76.104
		C473.686,279.473,464.231,256.764,446.747,240.834z M343.443,466.594c0,6.554-4.197,12.426-10.446,14.611
		c-49.649,17.364-104.338,17.364-153.991,0c-6.247-2.185-10.446-8.057-10.446-14.611v-39.267c5.868,1.858,11.782,3.525,17.732,5.001
		v23.909c0,4.908,3.979,8.888,8.888,8.888s8.888-3.979,8.888-8.888v-20.082c7.555,1.376,15.151,2.446,22.773,3.215v28.992
		c0,4.908,3.979,8.888,8.888,8.888s8.888-3.979,8.888-8.888v-27.759c3.794,0.149,7.59,0.248,11.386,0.248
		c3.796,0,7.591-0.1,11.386-0.249v27.761c0,4.908,3.979,8.888,8.888,8.888c4.908,0,8.888-3.979,8.888-8.888v-28.994
		c7.621-0.77,15.218-1.84,22.773-3.216v20.085c0,4.908,3.979,8.888,8.888,8.888c4.908,0,8.888-3.979,8.888-8.888v-23.912
		c5.951-1.474,11.865-3.142,17.732-5v39.268H343.443z M454.931,302.392c-1.328,31.551-27.071,57.511-58.607,59.1
		c-2.292,0.115-4.609,0.107-6.883-0.027c-6.457-0.38-12.848,1.946-17.547,6.377c-4.699,4.43-7.392,10.676-7.392,17.134v15.518
		c-12.647,5.509-25.617,9.999-38.79,13.493v-27.809c0-4.908-3.979-8.888-8.888-8.888c-4.908,0-8.888,3.979-8.888,8.888v31.877
		c-7.55,1.468-15.147,2.62-22.773,3.441v-23.193c0-4.908-3.979-8.888-8.888-8.888c-4.908,0-8.888,3.979-8.888,8.888v24.517
		c-7.588,0.318-15.184,0.318-22.772,0v-24.517c0-4.908-3.979-8.888-8.888-8.888s-8.888,3.979-8.888,8.888v23.193
		c-7.626-0.821-15.223-1.973-22.773-3.441v-31.877c0-4.908-3.979-8.888-8.888-8.888s-8.888,3.979-8.888,8.888v27.809
		c-13.173-3.493-26.144-7.984-38.79-13.493v-15.518c0-6.46-2.694-12.705-7.392-17.134c-4.7-4.432-11.09-6.758-17.548-6.377
		c-2.271,0.134-4.586,0.143-6.88,0.027c-31.534-1.587-57.277-27.545-58.608-59.096c-0.775-18.395,6.57-36.044,20.154-48.42
		c10.294-9.38,14.973-22.905,12.515-36.181c-1.877-10.138-2.83-20.544-2.83-30.928c0-45.295,17.676-87.845,49.771-119.809
		c31.924-31.797,74.27-49.281,119.311-49.281c0.235,0,0.474,0,0.71,0.001c44.314,0.18,86.211,17.554,117.976,48.919
		c31.766,31.367,49.66,73.039,50.386,117.342c0.186,11.322-0.756,22.664-2.798,33.711l0,0c-2.46,13.307,2.215,26.849,12.506,36.225
		C448.358,266.35,455.704,283.998,454.931,302.392z"/>
</g>
</svg>