<?xml version="1.0" encoding="utf-8"?>
<!-- Uploaded to: SVG Repo, www.svgrepo.com, Generator: SVG Repo Mixer Tools -->
<svg xmlns="http://www.w3.org/2000/svg" xmlns:xlink="http://www.w3.org/1999/xlink" version="1.1" id="snowflake"  viewBox="0 0 202.5276 200.7692" enable-background="new 0 0 202.5276 200.7692" xml:space="preserve" width="512" height="512">
<g>
	<path fill="#FFFFFF" d="M96,79.3096c-11.0273,0-20,8.9727-20,20s8.9727,20,20,20s20-8.9727,20-20S107.0273,79.3096,96,79.3096z"/>
	<path fill="#1C71DA" d="M169.6562,99.3096l21.1719-21.1719c1.5625-1.5625,1.5625-4.0938,0-5.6562s-4.0938-1.5625-5.6562,0   l-22.8281,22.8281h-38.6633c-0.6816-4.7319-2.5435-9.0762-5.2878-12.738l27.3474-27.344h32.2834c2.209,0,4-1.7891,4-4s-1.791-4-4-4   H148.084V17.2861c0-2.2109-1.791-4-4-4s-4,1.7891-4,4V49.571l-27.3479,27.3445c-3.6614-2.7437-8.0049-4.605-12.7361-5.2866V32.9658   l22.8281-22.8281c1.5625-1.5625,1.5625-4.0938,0-5.6563s-4.0938-1.5625-5.6562,0L96,25.6533L74.8281,4.4814   c-1.5625-1.5625-4.0938-1.5625-5.6562,0s-1.5625,4.0938,0,5.6563L92,32.9658v38.6631c-4.7312,0.6816-9.0747,2.543-12.7361,5.2866   L51.916,49.571V17.2861c0-2.2109-1.791-4-4-4s-4,1.7891-4,4v29.9414H13.9766c-2.209,0-4,1.7891-4,4s1.791,4,4,4H46.26   l27.3474,27.344c-2.7444,3.6619-4.6062,8.0061-5.2878,12.738H29.6562L6.8281,72.4814c-1.5625-1.5625-4.0938-1.5625-5.6562,0   s-1.5625,4.0938,0,5.6562l21.1719,21.1719L1.1719,120.4814c-1.5625,1.5625-1.5625,4.0938,0,5.6562   c0.7812,0.7812,1.8047,1.1719,2.8281,1.1719s2.0469-0.3906,2.8281-1.1719l22.8281-22.8281h38.6633   c0.6816,4.731,2.5427,9.0742,5.2864,12.7358l-27.3462,27.3462H13.9766c-2.209,0-4,1.7891-4,4s1.791,4,4,4H43.916v29.9414   c0,2.2109,1.791,4,4,4s4-1.7891,4-4v-32.2852l27.3457-27.3457c3.6619,2.7444,8.0061,4.6062,12.7383,5.2878v38.6633   l-22.8281,22.8281c-1.5625,1.5625-1.5625,4.0938,0,5.6562s4.0938,1.5625,5.6562,0L96,172.9658l21.1719,21.1719   c0.7812,0.7812,1.8047,1.1719,2.8281,1.1719s2.0469-0.3906,2.8281-1.1719c1.5625-1.5625,1.5625-4.0938,0-5.6562L100,165.6533   V126.99c4.7322-0.6816,9.0764-2.5435,12.7383-5.2878l27.3457,27.3457v32.2852c0,2.2109,1.791,4,4,4s4-1.7891,4-4v-29.9414h29.9395   c2.209,0,4-1.7891,4-4s-1.791-4-4-4h-32.2832l-27.3462-27.3462c2.7437-3.6616,4.6047-8.0049,5.2864-12.7358h38.6633   l22.8281,22.8281c0.7812,0.7812,1.8047,1.1719,2.8281,1.1719s2.0469-0.3906,2.8281-1.1719c1.5625-1.5625,1.5625-4.0938,0-5.6562   L169.6562,99.3096z M96,119.3096c-11.0273,0-20-8.9727-20-20s8.9727-20,20-20s20,8.9727,20,20S107.0273,119.3096,96,119.3096z"/>
</g>
<path fill="#FF5D5D" d="M184.3854,22.1412c-1.0239,0-2.0474-0.3906-2.8286-1.1719c-1.562-1.5615-1.562-4.0947,0-5.6562  l14.1421-14.1416c1.5635-1.5625,4.0957-1.5615,5.6572,0c1.562,1.5615,1.562,4.0947,0,5.6562L187.214,20.9694  C186.4328,21.7506,185.4088,22.1412,184.3854,22.1412z"/>
<path fill="#FF5D5D" d="M198.5275,22.1422c-1.0239,0-2.0474-0.3906-2.8286-1.1719L181.5568,6.8278  c-1.562-1.5615-1.562-4.0947,0-5.6562c1.5635-1.5625,4.0957-1.5615,5.6572,0l14.1421,14.1426c1.562,1.5615,1.562,4.0947,0,5.6562  C200.5748,21.7516,199.5509,22.1422,198.5275,22.1422z"/>
<path fill="#00D40B" d="M158.3854,110.1412c-7.7197,0-14-6.2803-14-14s6.2803-14,14-14s14,6.2803,14,14  S166.1051,110.1412,158.3854,110.1412z M158.3854,90.1412c-3.3086,0-6,2.6914-6,6s2.6914,6,6,6s6-2.6914,6-6  S161.694,90.1412,158.3854,90.1412z"/>
<path fill="#FFC504" d="M23.6989,200.7692L23.6989,200.7692c-1.061,0-2.0786-0.4219-2.8286-1.1719L9.5568,188.2828  c-1.562-1.5615-1.562-4.0947,0-5.6562l11.3135-11.3135c1.5625-1.5625,4.0952-1.5625,5.6567,0l11.314,11.3135  c0.7505,0.75,1.1719,1.7676,1.1719,2.8281s-0.4214,2.0781-1.1714,2.8281l-11.314,11.3145  C25.7775,200.3473,24.7599,200.7692,23.6989,200.7692z M18.0421,185.4547l5.6567,5.6572l5.6572-5.6572l-5.6572-5.6562  L18.0421,185.4547z"/>
</svg>