<?xml version="1.0" encoding="iso-8859-1"?>
<!-- Uploaded to: SVG Repo, www.svgrepo.com, Generator: SVG Repo Mixer Tools -->
<!DOCTYPE svg PUBLIC "-//W3C//DTD SVG 1.1//EN" "http://www.w3.org/Graphics/SVG/1.1/DTD/svg11.dtd">
<svg height="800px" width="800px" version="1.1" id="Capa_1" xmlns="http://www.w3.org/2000/svg" xmlns:xlink="http://www.w3.org/1999/xlink" 
	 viewBox="0 0 461.281 461.281" xml:space="preserve">
<g>
	<path style="fill:#EDC148;" d="M264.423,229.17v26.155l-16.945,41.597l-3.076,157.517c-0.074,3.801-3.176,6.843-6.978,6.843
		h-12.496c-3.801,0-6.904-3.042-6.978-6.843l-5.869-300.114h5.276h27.63h5.285l-1.818,92.827L264.423,229.17z"/>
	<polygon style="fill:#E6E6E6;" points="230.64,0 265.339,62.126 230.64,50.861 	"/>
	<polygon style="fill:#999999;" points="230.64,0 230.64,50.861 195.942,62.126 	"/>
	<polygon style="fill:#CCCCCC;" points="265.339,62.126 252.087,110.528 245.315,110.528 215.966,110.528 209.194,110.528 
		195.942,62.126 230.64,50.861 	"/>
	<path style="fill:#D34A20;" d="M247.619,134.534c7.116,0,12.892,5.776,12.892,12.892c0,3.553-1.439,6.778-3.782,9.111
		c-2.332,2.332-5.547,3.782-9.111,3.782h-33.957c-7.116,0-12.892-5.776-12.892-12.892c0-3.553,1.439-6.778,3.782-9.111
		c2.332-2.332,5.547-3.782,9.111-3.782H247.619z"/>
	<path style="fill:#F15A24;" d="M247.619,108.75c7.116,0,12.892,5.776,12.892,12.892c0,3.553-1.439,6.778-3.782,9.111
		c-2.332,2.332-5.547,3.782-9.111,3.782h-33.957c-7.116,0-12.892-5.776-12.892-12.892c0-3.553,1.439-6.778,3.782-9.111
		c2.332-2.332,5.547-3.782,9.111-3.782H247.619z"/>
	<path style="fill:#B2863F;" d="M226.237,277.855c-2.407,0-4.359-1.952-4.359-4.359v-88.267c0-2.408,1.952-4.359,4.359-4.359
		c2.407,0,4.359,1.952,4.359,4.359v88.267C230.596,275.904,228.645,277.855,226.237,277.855z"/>
</g>
</svg>