<?xml version="1.0" encoding="iso-8859-1"?>
<!-- Uploaded to: SVG Repo, www.svgrepo.com, Generator: SVG Repo Mixer Tools -->
<svg version="1.1" id="Layer_1" xmlns="http://www.w3.org/2000/svg" xmlns:xlink="http://www.w3.org/1999/xlink" 
	 viewBox="0 0 512 512" xml:space="preserve">
<path style="fill:#EFEFEF;" d="M486.376,239.843c28.884-38.147,13.386-94.105-27.344-116.121
	c-7.854-4.246-16.314-7.069-24.965-8.504l0.807-0.809c14.845-14.845,31.787-36.574,41.177-55.353l24.041-48.081l-48.082,24.04
	c-18.779,9.389-40.507,26.33-55.353,41.177L193.505,279.346l38.216,38.216l151.01-151.01c16.982-11.902,38.523-15.215,57.298-3.914
	c24.003,14.449,33.407,51.973,14.89,74.657c-9.663,11.838-19.177,28.624-26.256,43.221
	C448.74,270.747,472.528,258.131,486.376,239.843z"/>
<rect x="82.206" y="263.69" transform="matrix(-0.7071 -0.7071 0.7071 -0.7071 -52.5519 745.608)" style="fill:#FBA026;" width="91.878" height="239.996"/>
<g>
	<path style="fill:#231F20;" d="M509.941,175.882c-5.766-26.586-22.449-49.064-45.77-61.669c-3.251-1.758-6.603-3.31-10.046-4.651
		c12.867-14.829,24.576-31.638,31.594-45.672l24.04-48.08c2.081-4.162,1.265-9.187-2.025-12.477
		c-3.29-3.288-8.314-4.103-12.477-2.025l-48.08,24.04c-18.177,9.088-41.008,26.046-58.164,43.201l-195.509,195.51l-5.35-5.35
		c-4.222-4.22-11.064-4.22-15.288,0L3.166,428.411c-4.221,4.221-4.221,11.065,0,15.288l64.968,64.968
		c2.111,2.11,4.877,3.166,7.643,3.166c2.766,0,5.532-1.056,7.643-3.166l169.703-169.702c2.027-2.028,3.166-4.777,3.166-7.643
		c0-2.867-1.139-5.615-3.166-7.643l-6.115-6.115l142.669-142.669c14.677-9.939,31.355-11.072,44.776-2.994
		c9.436,5.681,16.626,16.84,18.761,29.12c1.966,11.308-0.403,21.762-6.671,29.441c-12.05,14.763-22.469,34.744-27.607,45.339
		c-2.009,4.145-1.172,9.11,2.088,12.365c3.26,3.255,8.226,4.084,12.368,2.071c23.345-11.362,46.964-24.539,61.6-43.869
		C509.93,226.641,515.378,200.95,509.941,175.882z M75.777,485.735l-49.68-49.68l154.415-154.416l49.682,49.682L75.777,485.735z
		 M477.758,233.317C477.758,233.318,477.758,233.318,477.758,233.317c-5.255,6.943-12.294,13.082-20.318,18.65
		c2.004-2.896,3.966-5.525,5.852-7.835c10.145-12.427,14.235-29.491,11.223-46.816c-3.227-18.558-14.035-34.984-28.912-43.939
		c-21.19-12.756-47.013-11.137-69.075,4.323c-0.515,0.361-0.996,0.765-1.44,1.208L231.722,302.275l-22.93-22.93L404.301,83.836
		c15.649-15.649,36.274-31.016,52.543-39.152l19.076-9.538l-9.538,19.076c-8.135,16.27-23.504,36.895-39.152,52.543l-0.809,0.809
		c-2.863,2.864-3.887,7.091-2.648,10.948c1.239,3.857,4.528,6.697,8.525,7.36c7.652,1.268,14.917,3.741,21.594,7.349
		c17.505,9.462,30.559,27.119,34.923,47.233C492.973,199.639,489.046,218.409,477.758,233.317z"/>
	<path style="fill:#231F20;" d="M148.895,351.47l-80.762,80.762c-4.221,4.221-4.221,11.065,0,15.288
		c2.111,2.11,4.877,3.166,7.643,3.166c2.766,0,5.532-1.056,7.643-3.166l80.762-80.762c4.221-4.221,4.221-11.065,0-15.288
		C159.961,347.25,153.118,347.25,148.895,351.47z"/>
	<path style="fill:#231F20;" d="M176.574,323.791l-1.081,1.081c-4.221,4.221-4.221,11.065,0,15.288
		c2.111,2.11,4.877,3.166,7.643,3.166c2.766,0,5.532-1.056,7.643-3.166l1.081-1.081c4.221-4.221,4.221-11.065,0-15.288
		C187.639,319.571,180.796,319.571,176.574,323.791z"/>
</g>
</svg>