<?xml version="1.0" encoding="iso-8859-1"?>
<!-- Uploaded to: SVG Repo, www.svgrepo.com, Generator: SVG Repo Mixer Tools -->
<svg height="800px" width="800px" version="1.1" id="Layer_1" xmlns="http://www.w3.org/2000/svg" xmlns:xlink="http://www.w3.org/1999/xlink" 
	 viewBox="0 0 512 512" xml:space="preserve">
<path style="fill:#933EC5;" d="M354.128,277.16c0,53.511-43.323,97.043-96.563,97.043s-96.563-43.531-96.563-97.043
	c0-21.265,6.723-41.465,19.427-58.386c12.297-16.379,29.773-28.645,49.21-34.533l-4.541-14.991
	c-5.272,1.608-10.418,3.622-15.398,5.992c5.7-21.964,25.117-38.009,47.864-38.009s42.164,16.045,47.864,38.009
	c-4.625-2.203-9.395-4.103-14.27-5.637l-4.708,14.928c19.198,6.044,36.443,18.342,48.542,34.637
	C347.509,236.019,354.128,256.073,354.128,277.16z"/>
<g>
	<path style="fill:#FFFFFF;" d="M192.321,277.831c0-2.87,0.186-5.756,0.552-8.578l-15.528-2.016
		c-0.453,3.488-0.683,7.053-0.683,10.594c0,4.969,0.451,9.945,1.339,14.792l15.402-2.825
		C192.686,285.882,192.321,281.854,192.321,277.831z"/>
	<path style="fill:#FFFFFF;" d="M198.033,304.709l-14.291,6.398c13.044,29.136,42.021,47.962,73.825,47.962V343.41
		C231.927,343.41,208.557,328.219,198.033,304.709z"/>
</g>
<path d="M368.715,292.709c0.702-5.084,1.073-10.272,1.073-15.547c0-14.055-2.546-27.711-7.455-40.5l25.575,14.765v45.002h15.659
	v-54.042l-45.258-26.129l58.455-33.749V41.37L345.111,0h-33.416v15.659h29.219l60.19,34.751v123.058l-56.469,32.603
	c-6.353-7.825-13.755-14.768-21.918-20.625l-0.065-1.072c-2.124-35.215-30.714-62.8-65.087-62.8
	c-34.372,0-62.962,27.585-65.087,62.799l-0.066,1.086c-8.159,5.853-15.565,12.783-21.919,20.611l-56.467-32.602V50.41l60.191-34.751
	h29.219V0h-33.416L98.368,41.37v141.139l58.287,33.653l-45.425,26.226v52.999h15.659v-43.958l26.001-15.012
	c-4.969,12.856-7.545,26.594-7.545,40.746c0,4.695,0.292,9.322,0.85,13.867l-66.617,38.461V470.63L151.231,512h33.416v-15.659
	h-29.219L95.236,461.59V338.532l54.176-31.279c13.142,47.58,56.647,82.609,108.153,82.609c50.943,0,94.06-34.269,107.712-81.055
	l51.486,29.726V461.59l-60.19,34.751h-29.219V512h33.416l71.654-41.37V329.491L368.715,292.709z M257.566,374.203
	c-53.245,0-96.563-43.533-96.563-97.04c0-21.271,6.719-41.462,19.429-58.391c12.297-16.378,29.773-28.642,49.205-34.532
	l-4.542-14.985c-5.273,1.598-10.414,3.615-15.392,5.986c5.696-21.966,25.111-38.007,47.861-38.007
	c22.751,0,42.168,16.043,47.862,38.012c-4.626-2.204-9.39-4.108-14.274-5.644l-4.7,14.937c19.198,6.04,36.435,18.339,48.539,34.63
	c12.518,16.848,19.134,36.903,19.134,57.995C354.128,330.67,310.81,374.203,257.566,374.203z"/>
<path d="M186.841,126.793v9.917H202.5v-9.917c0-18.42,14.985-33.405,33.405-33.405V77.729
	C208.851,77.729,186.841,99.739,186.841,126.793z"/>
<path d="M312.632,126.793v9.917h15.659v-9.917c0-27.054-22.01-49.064-49.064-49.064h-1.044v15.659h1.044
	C297.648,93.388,312.632,108.374,312.632,126.793z"/>
<polygon points="403.567,339.231 387.908,339.231 387.908,393.884 312.11,437.645 319.94,451.205 403.567,402.924 "/>
<polygon points="126.888,337.143 111.23,337.143 111.23,402.924 194.148,450.797 201.978,437.235 126.888,393.884 "/>
</svg>