<?xml version="1.0" encoding="utf-8"?><!-- Uploaded to: SVG Repo, www.svgrepo.com, Generator: SVG Repo Mixer Tools -->
<svg fill="#000000" width="800px" height="800px" viewBox="0 0 24 24" id="virus-2" data-name="Flat Color" xmlns="http://www.w3.org/2000/svg" class="icon flat-color"><path id="secondary" d="M12,21a1,1,0,0,1-1-1V16a1,1,0,0,1,2,0v4A1,1,0,0,1,12,21Zm5.66-2.34a1,1,0,0,1-.71-.3l-2.83-2.82a1,1,0,1,1,1.42-1.42L18.36,17a1,1,0,0,1,0,1.41A1,1,0,0,1,17.66,18.66Zm-11.32,0a1,1,0,0,1-.7-.3,1,1,0,0,1,0-1.41l2.82-2.83a1,1,0,1,1,1.42,1.42L7.05,18.36A1,1,0,0,1,6.34,18.66ZM20,13H16a1,1,0,0,1,0-2h4a1,1,0,0,1,0,2ZM8,13H4a1,1,0,0,1,0-2H8a1,1,0,0,1,0,2Zm6.83-2.83a1,1,0,0,1-.71-.29,1,1,0,0,1,0-1.42L17,5.64a1,1,0,1,1,1.41,1.41L15.54,9.88A1,1,0,0,1,14.83,10.17Zm-5.66,0a1,1,0,0,1-.71-.29L5.64,7.05A1,1,0,0,1,7.05,5.64L9.88,8.46a1,1,0,0,1,0,1.42A1,1,0,0,1,9.17,10.17ZM12,9a1,1,0,0,1-1-1V4a1,1,0,0,1,2,0V8A1,1,0,0,1,12,9Z" style="fill: rgb(44, 169, 188);"></path><path id="primary" d="M17,12a5,5,0,1,1-5-5A5,5,0,0,1,17,12ZM12,2a1.5,1.5,0,1,0,1.5,1.5A1.5,1.5,0,0,0,12,2Zm7.07,5.05a1.5,1.5,0,1,1,0-2.12A1.49,1.49,0,0,1,19.07,7.05ZM20.5,13.5A1.5,1.5,0,1,1,22,12,1.5,1.5,0,0,1,20.5,13.5ZM17,19.07a1.5,1.5,0,1,1,2.12,0A1.49,1.49,0,0,1,17,19.07ZM10.5,20.5A1.5,1.5,0,1,1,12,22,1.5,1.5,0,0,1,10.5,20.5ZM4.93,17a1.5,1.5,0,1,1,0,2.12A1.49,1.49,0,0,1,4.93,17ZM3.5,10.5A1.5,1.5,0,1,1,2,12,1.5,1.5,0,0,1,3.5,10.5ZM7.05,4.93a1.5,1.5,0,1,1-2.12,0A1.49,1.49,0,0,1,7.05,4.93Z" style="fill: rgb(0, 0, 0);"></path></svg>