<?xml version="1.0" encoding="iso-8859-1"?>
<!-- Uploaded to: SVG Repo, www.svgrepo.com, Generator: SVG Repo Mixer Tools -->
<svg height="800px" width="800px" version="1.1" id="Layer_1" xmlns="http://www.w3.org/2000/svg" xmlns:xlink="http://www.w3.org/1999/xlink" 
	 viewBox="0 0 512.001 512.001" xml:space="preserve">
<path style="fill:#10BAFC;" d="M10.445,378.735c0-135.57,109.9-245.469,245.469-245.469s245.469,109.899,245.469,245.469H10.445z"/>
<path d="M256.379,184.188h-0.498c-5.768,0-10.445,4.676-10.445,10.445c0,5.769,4.677,10.445,10.445,10.445h0.498
	c5.768,0,10.445-4.676,10.445-10.445C266.825,188.864,262.148,184.188,256.379,184.188z"/>
<path d="M172.699,368.289h-0.498c-5.769,0-10.445,4.677-10.445,10.445s4.676,10.445,10.445,10.445h0.498
	c5.768,0,10.445-4.677,10.445-10.445S178.467,368.289,172.699,368.289z"/>
<path d="M339.799,368.289h-0.498c-5.768,0-10.445,4.677-10.445,10.445s4.677,10.445,10.445,10.445h0.498
	c5.768,0,10.445-4.677,10.445-10.445S345.567,368.289,339.799,368.289z"/>
<path d="M511.805,376.739c-0.514-67.61-27.067-131.099-74.932-178.962c-48.335-48.336-112.601-74.956-180.959-74.956
	S123.291,149.44,74.956,197.776C26.619,246.111,0,310.378,0,378.735c0,5.768,4.676,10.445,10.445,10.445h0.001h0.001h127.961
	c5.769,0,10.445-4.677,10.445-10.445s-4.676-10.445-10.445-10.445h-19.201c0.351-13.746,1.394-27.275,3.102-40.476h75.125
	c-0.69,16.575-1.047,33.614-1.047,50.922c0,5.768,4.676,10.445,10.445,10.445c5.768,0,10.445-4.677,10.445-10.445
	c0-17.309,0.364-34.356,1.065-50.922h75.141c0.703,16.565,1.066,33.612,1.066,50.922c0,5.768,4.676,10.445,10.445,10.445
	c5.768,0,10.445-4.677,10.445-10.445c0-17.308-0.357-34.347-1.048-50.922h75.125c1.707,13.201,2.75,26.73,3.102,40.476h-19.031
	c-5.768,0-10.445,4.677-10.445,10.445s4.677,10.445,10.445,10.445h127.963c5.768,0,10.445-4.677,10.445-10.445
	C512,378.052,511.93,377.385,511.805,376.739z M479.703,306.922h-72.269c-2.476-13.933-5.671-27.467-9.559-40.476h64.456
	C469.332,279.264,475.162,292.806,479.703,306.922z M449.449,245.555h-58.587c-5.369-14.354-11.636-27.913-18.762-40.476h42.013
	C427.369,217.165,439.23,230.752,449.449,245.555z M164.116,205.079h46.466c-2.448,12.508-4.603,26.066-6.445,40.476h-60.769
	c5.051-12.445,10.843-24.175,17.351-35.018C161.836,208.676,162.971,206.866,164.116,205.079z M296.636,184.188
	c-3.552-14.203-7.473-25.883-11.775-35.117c16.911,6.344,32.972,18.228,47.43,35.117H296.636z M226.968,149.071
	c-4.304,9.234-8.223,20.914-11.775,35.117h-35.654C193.997,167.301,210.058,155.415,226.968,149.071z M230.863,210.206
	c11.468-59.389,24.124-66.084,25.051-66.479c0.929,0.395,13.583,7.089,25.051,66.479c2.121,10.983,4.009,22.822,5.656,35.349
	h-61.416C226.853,233.029,228.741,221.19,230.863,210.206z M301.246,205.079h46.466c1.145,1.787,2.281,3.597,3.397,5.458
	c6.506,10.844,12.298,22.574,17.351,35.018h-60.769C305.849,231.144,303.694,217.587,301.246,205.079z M387.635,184.188h-28.854
	c-7.132-9.956-14.738-18.776-22.74-26.403C354.411,164.467,371.718,173.377,387.635,184.188z M153.047,184.188h-28.854
	c15.917-10.811,33.224-19.721,51.593-26.403C167.785,165.412,160.179,174.232,153.047,184.188z M97.714,205.079h42.013
	c-7.126,12.563-13.394,26.122-18.762,40.476H62.379C72.598,230.752,84.459,217.165,97.714,205.079z M49.497,266.446h64.457
	c-3.888,13.009-7.084,26.543-9.559,40.476H32.126C36.667,292.806,42.496,279.264,49.497,266.446z M98.313,368.289H21.135
	c0.608-13.834,2.419-27.358,5.328-40.476h74.798C99.636,341.051,98.647,354.576,98.313,368.289z M125.617,306.922
	c2.633-14.005,6.033-27.549,10.179-40.476h65.95c-1.322,12.989-2.411,26.523-3.253,40.476H125.617z M219.428,306.922
	c0.86-13.976,1.969-27.52,3.321-40.476h66.33c1.352,12.957,2.461,26.5,3.321,40.476H219.428z M313.334,306.922
	c-0.842-13.953-1.93-27.487-3.253-40.476h65.95c4.147,12.927,7.546,26.471,10.179,40.476H313.334z M410.567,327.813h74.798
	c2.909,13.118,4.72,26.642,5.328,40.476h-77.178C413.182,354.576,412.192,341.051,410.567,327.813z"/>
</svg>