<?xml version="1.0" encoding="iso-8859-1"?>
<!-- Uploaded to: SVG Repo, www.svgrepo.com, Generator: SVG Repo Mixer Tools -->
<svg height="800px" width="800px" version="1.1" id="Layer_1" xmlns="http://www.w3.org/2000/svg" xmlns:xlink="http://www.w3.org/1999/xlink" 
	 viewBox="0 0 512 512" xml:space="preserve">
<path style="fill:#EEBF70;" d="M378.256,111.659c-16.88,0-30.564,13.684-30.564,30.564V91.469c0-16.88-13.684-30.564-30.564-30.564
	c-16.88,0-30.564,13.684-30.564,30.564l0,0V47.26c0.001-16.88-13.683-30.564-30.563-30.564s-30.564,13.684-30.564,30.564v44.21l0,0
	c0-16.88-13.684-30.564-30.564-30.564s-30.564,13.684-30.564,30.564v99.278c0-16.88-13.684-30.564-30.564-30.564
	s-30.564,13.684-30.564,30.564v107.011l44.006,107.461v90.084h218.037V405.22l43.598-107.461V142.224
	C408.82,125.344,395.136,111.659,378.256,111.659z"/>
<path style="fill:#E79C25;" d="M378.256,111.659c-16.88,0-30.564,13.684-30.564,30.564V91.469c0-16.88-13.684-30.564-30.564-30.564
	c-16.88,0-30.564,13.684-30.564,30.564V47.26c0.001-16.88-13.683-30.564-30.563-30.564v478.609h109.223V405.22l43.598-107.461
	V142.224C408.82,125.344,395.136,111.659,378.256,111.659z"/>
<path style="fill:#F3D49D;" d="M378.256,94.964c-4.824,0-9.481,0.73-13.869,2.08V91.47c0-26.06-21.2-47.26-47.259-47.26
	c-4.833,0-9.499,0.732-13.893,2.087C302.719,20.681,281.736,0,256,0c-25.736,0-46.719,20.681-47.235,46.297
	c-4.394-1.355-9.059-2.087-13.893-2.087c-26.059,0-47.259,21.2-47.259,47.26v54.098c-4.388-1.349-9.043-2.08-13.869-2.08
	c-26.06,0-47.26,21.2-47.26,47.26v110.298l44.006,107.461V512h251.428V408.478l43.597-107.461V142.224
	C425.515,116.165,404.315,94.964,378.256,94.964z M392.124,294.501l-43.597,107.461v76.646H163.882v-76.674l-44.006-107.461V190.748
	c0-7.648,6.221-13.869,13.869-13.869c7.648,0,13.869,6.221,13.869,13.869v36.536h33.391V91.47c0-7.648,6.221-13.869,13.867-13.869
	c7.648,0,13.869,6.221,13.869,13.869v115.173h33.391V47.26c0-7.648,6.221-13.869,13.869-13.869c7.648,0,13.869,6.221,13.869,13.869
	v155.517h33.391V91.47c0-7.648,6.221-13.869,13.868-13.869c7.647,0,13.867,6.221,13.867,13.869v129.554h33.391v-78.799
	c0-7.648,6.221-13.869,13.869-13.869c7.648,0,13.868,6.221,13.868,13.869V294.501z"/>
<path style="fill:#EEBF70;" d="M378.256,94.964c-4.824,0-9.481,0.73-13.869,2.08V91.47c0-26.06-21.2-47.26-47.259-47.26
	c-4.833,0-9.499,0.732-13.893,2.087C302.719,20.681,281.736,0,256,0v33.391c7.648,0,13.869,6.221,13.869,13.869v155.517h33.391
	V91.47c0-7.648,6.221-13.869,13.868-13.869c7.647,0,13.867,6.221,13.867,13.869v129.554h33.391v-78.799
	c0-7.648,6.221-13.869,13.869-13.869c7.648,0,13.868,6.221,13.868,13.869v152.278l-43.597,107.461v76.645H256V512h125.919V408.478
	l43.597-107.461V142.224C425.515,116.165,404.315,94.964,378.256,94.964z"/>
<polygon style="fill:#B5E45F;" points="330.996,263.658 330.996,300.803 318.542,329.956 318.542,249.568 285.151,249.568 
	285.151,350.09 272.696,350.09 272.696,249.568 239.304,249.568 239.304,350.09 226.849,350.09 226.849,249.568 193.458,249.568 
	193.458,329.956 181.004,300.803 181.004,263.658 147.613,263.658 147.613,307.637 180.014,383.481 193.458,383.481 193.458,512 
	226.849,512 226.849,383.481 239.304,383.481 239.304,512 272.696,512 272.696,383.481 285.151,383.481 285.151,512 318.542,512 
	318.542,383.481 331.986,383.481 364.387,307.637 364.387,263.658 "/>
<polygon style="fill:#7DBB4E;" points="330.996,263.658 330.996,300.803 318.542,329.956 318.542,249.568 285.151,249.568 
	285.151,350.09 272.696,350.09 272.696,249.568 256,249.568 256,512 272.696,512 272.696,383.481 285.151,383.481 285.151,512 
	318.542,512 318.542,383.481 331.986,383.481 364.387,307.637 364.387,263.658 "/>
<circle style="fill:#588D3F;" cx="347.693" cy="263.658" r="20.626"/>
<circle style="fill:#7DBB4E;" cx="164.307" cy="263.658" r="20.626"/>
<circle style="fill:#588D3F;" cx="301.846" cy="249.567" r="20.626"/>
<circle style="fill:#7DBB4E;" cx="256" cy="249.567" r="20.626"/>
<path style="fill:#588D3F;" d="M256,270.194c11.391,0,20.626-9.235,20.626-20.626c0-11.391-9.235-20.626-20.626-20.626
	C256,243.032,256,256,256,270.194z"/>
<circle style="fill:#7DBB4E;" cx="210.154" cy="249.567" r="20.626"/>
</svg>