<?xml version="1.0" encoding="iso-8859-1"?>
<!-- Uploaded to: SVG Repo, www.svgrepo.com, Generator: SVG Repo Mixer Tools -->
<svg height="800px" width="800px" version="1.1" id="Layer_1" xmlns="http://www.w3.org/2000/svg" xmlns:xlink="http://www.w3.org/1999/xlink" 
	 viewBox="0 0 511.999 511.999" xml:space="preserve">
<g>
	<path style="fill:#707287;" d="M458.21,99.461c-11.43-11.43-29.961-11.43-41.39,0L375.43,58.07c11.43-11.429,11.43-29.961,0-41.39
		s-29.961-11.43-41.39,0l-90.495,90.495l124.172,124.172l90.495-90.495C469.64,129.422,469.64,110.891,458.21,99.461z"/>
	<path style="fill:#707287;" d="M251.188,99.531l-21.989,21.989V74.306c0-16.164-13.104-29.268-29.268-29.268
		s-29.268,13.104-29.268,29.268v105.748L12.389,338.33l165.562,165.562L416.75,265.093L251.188,99.531z"/>
</g>
<g>
	<path style="fill:#5B5D6E;" d="M491.036,149.416c-11.43-11.43-29.961-11.43-41.39,0l-81.93,81.93l41.39,41.391l81.93-81.93
		C502.466,179.377,502.466,160.846,491.036,149.416z"/>
	<path style="fill:#5B5D6E;" d="M430.523,44.367c-11.43-11.43-29.961-11.43-41.39,0L284.935,148.565l41.39,41.39L430.523,85.757
		C441.952,74.328,441.952,55.797,430.523,44.367z"/>
</g>
<circle style="fill:#FFFFFF;" cx="216.689" cy="299.597" r="59.329"/>
<circle style="fill:#74D6FF;" cx="216.689" cy="299.598" r="27.699"/>
<path d="M53.24,297.488c-3.168-3.166-8.3-3.166-11.467,0L6.665,332.596c-3.166,3.166-3.166,8.3,0,11.466l165.562,165.562
	c1.521,1.521,3.583,2.375,5.734,2.375c2.151,0,4.212-0.854,5.734-2.375L414.849,278.47c0.001-0.001,0.001-0.002,0.001-0.002
	l81.93-81.929c14.572-14.572,14.572-38.284-0.001-52.857c-6.5-6.499-14.975-10.303-24.069-10.865
	c1.439-4.008,2.19-8.277,2.19-12.662c0-9.983-3.889-19.37-10.947-26.428c-5.859-5.859-13.324-9.525-21.401-10.605
	c7.833-14.203,5.745-32.458-6.286-44.488c-7.059-7.059-16.445-10.947-26.428-10.947c-6.429,0-12.606,1.621-18.079,4.655
	c-1.055-7.831-4.579-15.389-10.585-21.395C374.112,3.888,364.727,0,354.742,0s-19.37,3.888-26.429,10.947l-90.494,90.494
	c-0.004,0.004-0.009,0.01-0.013,0.014l-0.49,0.49V74.306c0-20.608-16.766-37.376-37.375-37.376s-37.376,16.766-37.376,37.376
	v102.389l-97.86,97.86c-3.166,3.166-3.166,8.3,0,11.466c3.168,3.166,8.3,3.166,11.467,0l100.234-100.234
	c1.52-1.521,2.374-3.583,2.374-5.733V74.306c0-11.667,9.492-21.16,21.16-21.16c11.667,0,21.159,9.492,21.159,21.16v47.213
	c0,3.279,1.975,6.237,5.005,7.491c3.029,1.256,6.517,0.562,8.836-1.757l8.612-8.611l9.229,9.229l-52.556,52.556
	c-17.01,17.009-25.509,40.861-23.281,64.684c-2.789,2.043-5.445,4.307-7.936,6.799c-26.293,26.294-26.293,69.076,0,95.371
	c7.028,7.028,15.314,12.306,24.628,15.689c4.21,1.53,8.859-0.645,10.388-4.853c1.529-4.21-0.645-8.86-4.854-10.388
	c-7.067-2.566-13.357-6.575-18.695-11.913c-19.972-19.972-19.972-52.467,0-72.438c9.675-9.675,22.537-15.002,36.219-15.002
	c13.681,0,26.545,5.328,36.218,15.002c9.675,9.675,15.003,22.538,15.003,36.219c0,13.681-5.329,26.545-15.003,36.219
	c-7.081,7.082-15.998,11.896-25.784,13.921c-4.386,0.907-7.204,5.198-6.297,9.583c0.792,3.83,4.168,6.466,7.932,6.466
	c0.545,0,1.098-0.055,1.652-0.17c12.894-2.668,24.639-9.009,33.964-18.334c2.285-2.284,4.377-4.709,6.286-7.246
	c2.682,0.275,5.365,0.428,8.04,0.428c20.766,0,40.961-8.202,55.861-23.103l53.851-53.851l9.228,9.228L177.96,492.425L23.865,338.33
	l29.375-29.375C56.405,305.788,56.405,300.655,53.24,297.488z M437.523,98.997c5.652,0,10.965,2.201,14.962,6.197
	c3.996,3.997,6.197,9.31,6.197,14.962c0,5.653-2.201,10.966-6.198,14.962l-78.617,78.618l-6.144,6.144l-9.228-9.229l54.588-54.588
	c4.298,0.716,8.866-0.573,12.183-3.89c5.456-5.456,5.456-14.303,0-19.759c-5.456-5.456-14.303-5.456-19.759,0
	c-3.316,3.316-4.604,7.883-3.89,12.182l-54.588,54.588l-9.228-9.228l84.763-84.761C426.558,101.198,431.871,98.997,437.523,98.997z
	 M381.2,63.774l13.672-13.672c3.997-3.996,9.311-6.197,14.963-6.197c5.652,0,10.966,2.201,14.962,6.197
	c8.251,8.251,8.251,21.674,0,29.924l-13.702,13.703l-0.001,0.001l-84.76,84.761l-9.228-9.228l71.656-71.656
	c4.298,0.715,8.866-0.573,12.182-3.89c5.456-5.456,5.456-14.303,0-19.759c-5.456-5.456-14.303-5.456-19.759,0
	c-3.317,3.316-4.604,7.883-3.89,12.183l-71.656,71.656l-9.229-9.229l84.763-84.761C381.182,63.794,381.191,63.783,381.2,63.774z
	 M339.78,22.413c3.996-3.996,9.309-6.197,14.962-6.197s10.966,2.201,14.962,6.197c8.247,8.247,8.25,21.666,0.008,29.917
	l-84.769,84.769l-9.228-9.228l54.588-54.588c4.298,0.715,8.865-0.573,12.182-3.89c5.456-5.456,5.456-14.303,0-19.759
	c-5.456-5.456-14.303-5.456-19.759,0c-3.317,3.316-4.604,7.883-3.89,12.182l-54.588,54.589l-5.984-5.984l-3.245-3.245L339.78,22.413
	z M216.695,232.158c-8.291,0-16.346,1.503-23.875,4.348c0.283-16.607,6.968-32.709,18.872-44.614l52.556-52.556l14.956,14.956
	c0.002,0.002,0.003,0.004,0.005,0.005l14.962,14.962l-64.196,64.196C225.648,232.598,221.205,232.158,216.695,232.158z
	 M276.944,269.269c-3.197-6.335-7.401-12.197-12.564-17.36s-11.025-9.367-17.359-12.564l58.618-58.618l14.962,14.962l14.962,14.961
	L276.944,269.269z M323.1,305.895c-11.654,11.654-27.386,18.148-43.615,18.347c3.039-7.749,4.646-16.072,4.646-24.646
	c0-4.51-0.44-8.953-1.299-13.28l64.196-64.197l14.961,14.961l0.001,0.001l14.962,14.962L323.1,305.895z M388.419,240.575
	l-9.229-9.229l13.024-13.024l63.174-63.174c3.996-3.997,9.309-6.198,14.962-6.198c5.652,0,10.966,2.201,14.962,6.198
	c8.251,8.25,8.251,21.673,0,29.924l-76.197,76.197l-9.228-9.228l41.827-41.827c4.298,0.715,8.866-0.573,12.182-3.89
	c5.456-5.456,5.456-14.303,0-19.759c-5.456-5.456-14.303-5.456-19.759,0c-3.317,3.316-4.604,7.883-3.89,12.183L388.419,240.575z"/>
<path d="M242.014,274.276c-6.763-6.763-15.756-10.487-25.32-10.487c-9.565,0-18.558,3.724-25.321,10.487
	c-13.961,13.961-13.961,36.679,0,50.64c6.763,6.763,15.756,10.487,25.321,10.487c9.564,0,18.557-3.724,25.32-10.487
	C255.975,310.954,255.975,288.236,242.014,274.276z M230.546,313.448c-3.699,3.701-8.62,5.738-13.852,5.738
	c-5.233,0-10.153-2.038-13.853-5.738c-7.639-7.639-7.639-20.068,0-27.707c3.701-3.701,8.62-5.738,13.853-5.738
	c5.232,0,10.153,2.038,13.852,5.738C238.186,293.38,238.186,305.809,230.546,313.448z"/>
</svg>